<svg width="617" height="242" viewBox="0 0 617 242" xmlns="http://www.w3.org/2000/svg">
    <g transform="translate(1 1)" fill="none" fill-rule="evenodd">
        <g transform="translate(3 129)">
            <path d="M1.21 82.787c12.302 0 17.63 6.987 35.198 6.987 17.567 0 19.322-3.28 29.377-3.493.008 5.043-.259 8.881-.8 11.515l-6.414 7.441-8.173 4.369-10.13.537H19.012l-7.84-3.212-6.132-4.115-4.158-6.35L.11 91.64l.772-5.877c0-1.657.109-2.649.326-2.976zM207.212 30c3.505 2 6.823 3 9.953 3 3.13 0 6.184-.794 9.16-2.381v72.174c-2.06 3.856-3.145 5.797-3.258 5.824-.114.027-2.17.563-6.167 1.609l-6.813-1.425-3.087-5.398.212-7.44V30zM308.983 78.557c12.948 0 22.18 6.049 36.084 6.049 13.903 0 21.756-3.714 25.365-3.714.695 1.92 1.462 5.113 2.301 9.575l-1.855 8.55-7.026 7.158-8.55 3.844h-28.3l-11.798-3.38-6.562-8.02-2.12-5.567V86.16c1.06-3.512 1.88-6.046 2.461-7.602zM514.212 70c3.178 1.91 6.332 2.864 9.462 2.864s6.014-.749 8.65-2.245v32.174c-2.058 3.856-3.144 5.797-3.257 5.824-.114.027-2.17.563-6.167 1.609l-6.813-1.425-2.087-5.398.212-7.44V70zM144.138 54.415c11.153 0 11.289 8.21 27.058 8.21 15.77 0 20.394-4.583 27.123-4.88.164 7.686 0 44.301 0 44.506 0 .137-.665 1.64-1.994 4.509l-4.75 3.24-6.764.712h-31.325l-5.647-2.625-3.336-4.526-.365-4.442c.018-26.26.018-41.161 0-44.704z" fill="#1692D0"/>
            <path d="M65.96 90.68c0 8.63-4.047 12.002-8.811 15.7-4.763 3.698-12.739 3.95-12.739 3.95h-18.1C7.689 110.33 0 99.7 0 90.68c0-15.31 10.529-28.17 24.77-31.81.469-1.85.81-3.46.94-5.08.229-2.77.06-9.42 0-11.4-.061-1.97.109-3.88.06-4.57-.06-.67-1.19-1.96-1.531-2.76-.349-.78-.229-1.58.62-1.97.851-.4 1.621-.33 7.67-.33 6.04 0 7.721-.07 8.571.33.85.39.96 1.19.62 1.97-.34.8-1.47 2.09-1.531 2.76-.049.69.111 2.6.061 4.57-.061 1.98-.221 8.63 0 11.4.13 1.62.46 3.23.939 5.08C55.43 62.51 65.96 75.37 65.96 90.68z" stroke="#39393A" stroke-width="2"/>
            <path d="M389.316 46c8.552 0 15.77 4.751 25.816 3.665 10.045-1.086 9.638-3.122 15.34-2.715.9 3.4 5.53 20.007 13.894 49.82l-.812 5.018-2.435 4.501-9.298 3.764h-44.497l-7.454-2.952-3.542-3.837-1.328-5.46 1.771-7.085c7.84-27.37 12.022-42.275 12.545-44.719z" fill="#1692D0"/>
            <circle fill="#1692D0" cx="400" cy="50" r="5"/>
            <circle fill="#FFF" cx="400" cy="50" r="3"/>
            <circle fill="#1692D0" cx="418" cy="51" r="4"/>
            <path d="M135.51 105.29c-.42.521-.88.99-1.37 1.42-5.36 3.62-11.23 3.62-11.23 3.62H83.6c-2.69 0-7.63-.769-10.85-3.62-.48-.43-.95-.899-1.37-1.42-2.18-2.7-2.93-6.9-1.95-10.979C70 91.94 78.01 64.02 82.8 47.34c1.74-6.05 3.05-10.62 3.42-11.93 1.47-5.17 2.34-9.34 2.59-12.41.22-2.71.12-5.649.04-8.01l-.05-1.35c-.04-1.39.01-2.76.05-3.85.03-.74.05-1.34.03-1.66-.06-.11-.49-.76-.75-1.15-.391-.59-.76-1.14-.99-1.69-.86-1.99-.19-3.91 1.67-4.77.63-.29 1.63-.45 3.94-.52h21.36c2.34.07 3.35.22 3.98.52 1.86.86 2.53 2.78 1.67 4.77-.24.55-.61 1.1-1 1.69-.25.39-.69 1.04-.76 1.27-.011.2.02.8.05 1.54.03 1.09.08 2.46.04 3.85l-.04 1.35c-.08 2.361-.18 5.3.03 8.01.26 3.07 1.13 7.24 2.59 12.41.37 1.31 1.68 5.88 3.42 11.93 4.79 16.68 12.81 44.6 13.38 46.971.97 4.079.23 8.279-1.96 10.979zM200.72 38.83c0 .83-.1 1.3-.79 2.36-.7 1.06-1.49 2.17-1.53 2.58-.05.42-.18 7.31-.18 10.41l-.01 43.64c0 3.74.05 5.31-1.35 8.04-.16.32-.36.59-.58.85-3.81 3.81-8.75 3.62-8.75 3.62h-33.37c-3.63 0-6.13-1.46-8.14-3.62-1.54-1.63-1.88-4.05-1.97-5.28-.09-1.39 0-37.74-.23-44.579-.23-6.841-1.16-8.781-2.09-10.121-.93-1.34-2.08-1.85-2.92-1.94-.83-.09-1.9-.18-2.27-.56-.38-.36-.93-1.15.09-2.45 1.02-1.29 4.45-3.09 5.52-3.46 1.07-.37 2.93-.55 5.62-.69 2.69-.14 12.95-.18 20.88-.18 0 0 28.35-.06 29.93-.06 1.58 0 2.14.61 2.14 1.44z" stroke="#39393A" stroke-width="2"/>
            <circle fill="#FFF" cx="418" cy="51" r="2"/>
            <path d="M226.47 8.86c-.07.83.08 3.19.02 5.62-.06 2 0 81.76 0 87.62 0 1.85-.814 3.966-2.114 5.176-2.4 2.4-4.168 3.013-7.97 3.013-3.8 0-6.177-2.228-7.217-3.138-1.22-1.17-1.51-3.15-1.51-5.05 0-5.86.05-85.62 0-87.62-.07-2.432.02-4.79-.05-5.62-.07-.83-1.46-2.42-1.88-3.392-.41-.979-.28-1.949.77-2.429 1.04-.49 3.11-.4 10.53-.4 7.43 0 9.49-.09 10.54.4 1.04.48 1.18 1.45.76 2.43-.42.97-1.81 2.56-1.88 3.39zM299.54 95.28c.92 3.83.21 7.78-1.84 10.32-.32.39-.66.77-1.02 1.11 0 0-3.585 3.62-7.648 3.62H244.1c-4.29 0-6.701-1.9-8.321-3.62h.021c-.16-.15-.311-.31-.46-.47-.111-.12-.22-.24-.321-.36-.08-.09-.16-.19-.24-.28-2.059-2.55-2.76-6.5-1.84-10.32.351-1.46 3.101-6.62 9.3-18.06 4.841-8.92 10.851-20.02 11.49-22.27l.161-.59c1.21-4.24 2-7.05 2.24-9.89.17-2.04.17-6.71-.01-12.82-.03-1.29.01-2.58.04-3.59.029-.68.06-1.23.029-1.53-.049-.06-.439-.65-.67-1-.379-.57-.75-1.15-.939-1.59-.811-1.89-.15-3.78 1.62-4.6.89-.42 1.71-.52 3.61-.55h12.24c2.33.03 3.36.14 4.24.55 1.76.82 2.43 2.71 1.6 4.6-.18.44-.55 1.02-.93 1.59-.24.35-.63.94-.7 1.15 0 .15.03.7.05 1.39.04 1.01.089 2.29.049 3.59-.069 2.23-.259 9.75-.009 12.81.24 2.84 1.03 5.63 2.219 9.86l.181.62c.64 2.25 6.66 13.36 11.5 22.29 6.189 11.43 8.95 16.58 9.29 18.04zM372.293 90.68c0 8.63-4.047 12.002-8.811 15.7-4.763 3.698-12.739 3.95-12.739 3.95h-18.1c-18.621 0-26.31-10.63-26.31-19.65 0-15.31 10.529-28.17 24.77-31.81.469-1.85.81-3.46.94-5.08.229-2.77.06-9.42 0-11.4-.061-1.97.109-3.88.06-4.57-.06-.67-1.19-1.96-1.531-2.76-.349-.78-.229-1.58.62-1.97.851-.4 1.621-.33 7.67-.33 6.04 0 7.721-.07 8.571.33.85.39.96 1.19.62 1.97-.34.8-1.47 2.09-1.531 2.76-.049.69.111 2.6.061 4.57-.061 1.98-.221 8.63 0 11.4.13 1.62.46 3.23.939 5.08 14.241 3.64 24.771 16.5 24.771 31.81zM441.843 105.29c-.42.521-.88.99-1.37 1.42-5.36 3.62-11.23 3.62-11.23 3.62h-39.31c-2.69 0-7.63-.769-10.85-3.62-.48-.43-.95-.899-1.37-1.42-2.18-2.7-2.93-6.9-1.95-10.979.57-2.371 8.58-30.291 13.37-46.971 1.74-6.05 3.05-10.62 3.42-11.93 1.47-5.17 2.34-9.34 2.59-12.41.22-2.71.12-5.649.04-8.01l-.05-1.35c-.04-1.39.01-2.76.05-3.85.03-.74.05-1.34.03-1.66-.06-.11-.49-.76-.75-1.15-.391-.59-.76-1.14-.99-1.69-.86-1.99-.19-3.91 1.67-4.77.63-.29 1.63-.45 3.94-.52h21.36c2.34.07 3.35.22 3.98.52 1.86.86 2.53 2.78 1.67 4.77-.24.55-.61 1.1-1 1.69-.25.39-.69 1.04-.76 1.27-.011.2.02.8.05 1.54.03 1.09.08 2.46.04 3.85l-.04 1.35c-.08 2.361-.18 5.3.03 8.01.26 3.07 1.13 7.24 2.59 12.41.37 1.31 1.68 5.88 3.42 11.93 4.79 16.68 12.81 44.6 13.38 46.971.97 4.079.23 8.279-1.96 10.979zM507.053 38.83c0 .83-.1 1.3-.79 2.36-.7 1.06-1.49 2.17-1.53 2.58-.05.42-.18 7.31-.18 10.41l-.01 43.64c0 3.74.05 5.31-1.35 8.04-.16.32-.36.59-.58.85-3.81 3.81-8.75 3.62-8.75 3.62h-33.37c-3.63 0-6.13-1.46-8.14-3.62-1.54-1.63-1.88-4.05-1.97-5.28-.09-1.39 0-37.74-.23-44.579-.23-6.841-1.16-8.781-2.09-10.121-.93-1.34-2.08-1.85-2.92-1.94-.83-.09-1.9-.18-2.27-.56-.38-.36-.93-1.15.09-2.45 1.02-1.29 4.45-3.09 5.52-3.46 1.07-.37 2.93-.55 5.62-.69 2.69-.14 12.95-.18 20.88-.18 0 0 28.35-.06 29.93-.06 1.58 0 2.14.61 2.14 1.44zM532.803 8.86c-.07.83.08 3.19.02 5.62-.06 2 0 81.76 0 87.62 0 1.85-.814 3.966-2.114 5.176-2.4 2.4-4.168 3.013-7.97 3.013-3.8 0-6.177-2.228-7.217-3.138-1.22-1.17-1.51-3.15-1.51-5.05 0-5.86.05-85.62 0-87.62-.07-2.432.02-4.79-.05-5.62-.07-.83-1.46-2.42-1.88-3.392-.41-.979-.28-1.949.77-2.429 1.04-.49 3.11-.4 10.53-.4 7.43 0 9.49-.09 10.54.4 1.04.48 1.18 1.45.76 2.43-.42.97-1.81 2.56-1.88 3.39zM605.873 95.28c.92 3.83.21 7.78-1.84 10.32-.32.39-.66.77-1.02 1.11 0 0-3.585 3.62-7.648 3.62h-44.932c-4.29 0-6.701-1.9-8.321-3.62h.021c-.16-.15-.311-.31-.46-.47-.111-.12-.22-.24-.321-.36-.08-.09-.16-.19-.24-.28-2.059-2.55-2.76-6.5-1.84-10.32.351-1.46 3.101-6.62 9.3-18.06 4.841-8.92 10.851-20.02 11.49-22.27l.161-.59c1.21-4.24 2-7.05 2.24-9.89.17-2.04.17-6.71-.01-12.82-.03-1.29.01-2.58.04-3.59.029-.68.06-1.23.029-1.53-.049-.06-.439-.65-.67-1-.379-.57-.75-1.15-.939-1.59-.811-1.89-.15-3.78 1.62-4.6.89-.42 1.71-.52 3.61-.55h12.24c2.33.03 3.36.14 4.24.55 1.76.82 2.43 2.71 1.6 4.6-.18.44-.55 1.02-.93 1.59-.24.35-.63.94-.7 1.15 0 .15.03.7.05 1.39.04 1.01.089 2.29.049 3.59-.069 2.23-.259 9.75-.009 12.81.24 2.84 1.03 5.63 2.219 9.86l.181.62c.64 2.25 6.66 13.36 11.5 22.29 6.189 11.43 8.95 16.58 9.29 18.04z" stroke="#39393A" stroke-width="2"/>
        </g>
        <path d="M128.093 69.896c0 5.456 3.814 9.896 8.622 9.896 1.389 0 2.693-.381 3.858-1.04 1.167.659 2.471 1.04 3.858 1.04a7.789 7.789 0 0 0 3.858-1.04c1.166.659 2.476 1.04 3.857 1.04a7.793 7.793 0 0 0 3.859-1.04 7.813 7.813 0 0 0 3.863 1.04 7.787 7.787 0 0 0 3.853-1.04c1.166.659 2.474 1.04 3.862 1.04s2.692-.381 3.857-1.04a7.787 7.787 0 0 0 3.859 1.04c4.803 0 8.716-4.442 8.716-9.898h-2.007c0 2.166-.752 4.139-1.968 5.558-1.216 1.425-2.89 2.307-4.741 2.307a5.778 5.778 0 0 1-2.04-.37c1.856-1.82 3.04-4.497 3.04-7.495-.006-5.638-2.09-9.894-4.863-9.894-1.61 0-2.986 1.443-3.859 3.75-.873-2.307-2.248-3.75-3.856-3.75-1.61 0-2.986 1.443-3.86 3.75-.874-2.307-2.248-3.75-3.856-3.75-1.609 0-2.985 1.443-3.859 3.75-.874-2.307-2.25-3.75-3.857-3.75-1.608 0-2.985 1.443-3.858 3.75-.874-2.307-2.249-3.75-3.858-3.75-2.768 0-4.858 4.256-4.858 9.894 0 2.998 1.183 5.676 3.039 7.495a5.814 5.814 0 0 1-2.039.37c-3.703 0-6.632-3.523-6.632-7.863h-1.99z" fill="#39393A"/>
        <path d="M171.435 62.033c1.166 0 2.857 3.06 2.857 7.86 0 2.656-1.127 5.002-2.852 6.43-1.726-1.428-2.857-3.774-2.857-6.43 0-4.8 1.692-7.86 2.852-7.86M167.583 74.486a9.937 9.937 0 0 0 2.034 2.902 5.743 5.743 0 0 1-2.034.37 5.756 5.756 0 0 1-2.04-.37 10.107 10.107 0 0 0 2.04-2.902M163.72 62.033c1.167 0 2.856 3.06 2.856 7.86a8.92 8.92 0 0 1-.778 3.676 7.71 7.71 0 0 1-2.077 2.753c-1.726-1.427-2.853-3.773-2.853-6.429 0-4.8 1.69-7.86 2.853-7.86M159.868 74.486a9.918 9.918 0 0 0 2.034 2.902 5.756 5.756 0 0 1-2.034.37 5.756 5.756 0 0 1-2.04-.37 10.107 10.107 0 0 0 2.04-2.902M156.005 62.033c1.165 0 2.856 3.06 2.856 7.86a8.921 8.921 0 0 1-.78 3.676 7.72 7.72 0 0 1-2.076 2.753c-1.725-1.427-2.852-3.773-2.852-6.429 0-4.8 1.69-7.86 2.852-7.86M154.185 77.389a5.778 5.778 0 0 1-4.072 0 9.95 9.95 0 0 0 2.032-2.902 10.01 10.01 0 0 0 2.04 2.902M148.29 62.033c1.165 0 2.856 3.06 2.856 7.86a8.905 8.905 0 0 1-.779 3.676c-.504 1.096-1.217 2.04-2.078 2.753-1.725-1.427-2.853-3.773-2.853-6.429 0-4.8 1.691-7.86 2.853-7.86M146.47 77.389a5.818 5.818 0 0 1-4.079 0 10.008 10.008 0 0 0 2.04-2.902 9.973 9.973 0 0 0 2.04 2.902M140.573 62.034c1.167 0 2.852 3.058 2.852 7.86.005 2.655-1.127 5.002-2.852 6.429-1.724-1.427-2.856-3.774-2.856-6.43 0-4.801 1.69-7.86 2.856-7.86z" fill="#FFF"/>
        <path d="M167 69.894c0 5.456 3.907 9.898 8.715 9.898 1.389 0 2.693-.381 3.858-1.04 1.167.659 2.471 1.04 3.858 1.04a7.789 7.789 0 0 0 3.858-1.04c1.166.659 2.476 1.04 3.857 1.04a7.793 7.793 0 0 0 3.859-1.04 7.813 7.813 0 0 0 3.863 1.04 7.787 7.787 0 0 0 3.853-1.04c1.166.659 2.474 1.04 3.862 1.04s2.692-.381 3.857-1.04a7.787 7.787 0 0 0 3.859 1.04c4.803 0 8.716-4.442 8.716-9.898h-2.007c0 2.166-.752 4.139-1.968 5.558-1.216 1.425-2.89 2.307-4.741 2.307a5.778 5.778 0 0 1-2.04-.37c1.856-1.82 3.04-4.497 3.04-7.495-.006-5.638-2.09-9.894-4.863-9.894-1.61 0-2.986 1.443-3.859 3.75-.873-2.307-2.248-3.75-3.856-3.75-1.61 0-2.986 1.443-3.86 3.75-.874-2.307-2.248-3.75-3.856-3.75-1.609 0-2.985 1.443-3.859 3.75-.874-2.307-2.25-3.75-3.857-3.75-1.608 0-2.985 1.443-3.858 3.75-.874-2.307-2.249-3.75-3.858-3.75-2.768 0-4.858 4.256-4.858 9.894 0 2.998 1.183 5.676 3.039 7.495a5.814 5.814 0 0 1-2.039.37c-3.703 0-7.715-3.525-7.715-7.865h-1z" fill="#39393A"/>
        <path d="M210.435 62.033c1.166 0 2.857 3.06 2.857 7.86 0 2.656-1.127 5.002-2.852 6.43-1.726-1.428-2.857-3.774-2.857-6.43 0-4.8 1.692-7.86 2.852-7.86M206.583 74.486a9.937 9.937 0 0 0 2.034 2.902 5.743 5.743 0 0 1-2.034.37 5.756 5.756 0 0 1-2.04-.37 10.107 10.107 0 0 0 2.04-2.902M202.72 62.033c1.167 0 2.856 3.06 2.856 7.86a8.92 8.92 0 0 1-.778 3.676 7.71 7.71 0 0 1-2.077 2.753c-1.726-1.427-2.853-3.773-2.853-6.429 0-4.8 1.69-7.86 2.853-7.86M198.868 74.486a9.918 9.918 0 0 0 2.034 2.902 5.756 5.756 0 0 1-2.034.37 5.756 5.756 0 0 1-2.04-.37 10.107 10.107 0 0 0 2.04-2.902M195.005 62.033c1.165 0 2.856 3.06 2.856 7.86a8.921 8.921 0 0 1-.78 3.676 7.72 7.72 0 0 1-2.076 2.753c-1.725-1.427-2.852-3.773-2.852-6.429 0-4.8 1.69-7.86 2.852-7.86M193.185 77.389a5.778 5.778 0 0 1-4.072 0 9.95 9.95 0 0 0 2.032-2.902 10.01 10.01 0 0 0 2.04 2.902M187.29 62.033c1.165 0 2.856 3.06 2.856 7.86a8.905 8.905 0 0 1-.779 3.676c-.504 1.096-1.217 2.04-2.078 2.753-1.725-1.427-2.853-3.773-2.853-6.429 0-4.8 1.691-7.86 2.853-7.86M185.47 77.389a5.818 5.818 0 0 1-4.079 0 10.008 10.008 0 0 0 2.04-2.902 9.973 9.973 0 0 0 2.04 2.902M179.573 62.034c1.167 0 2.852 3.058 2.852 7.86.005 2.655-1.127 5.002-2.852 6.429-1.724-1.427-2.856-3.774-2.856-6.43 0-4.801 1.69-7.86 2.856-7.86z" fill="#FFF"/>
        <path d="M222.017 69.945c0-9.107 7.382-16.489 16.488-16.489h11.231c11.046 0 20 8.954 20 20v73.327M129.092 69.912V42.525c0-8.213-6.657-14.87-14.87-14.87-8.212 0-14.87 6.657-14.87 14.87v86.366" stroke="#39393A" stroke-width="2"/>
        <g>
            <path d="M319.1 20.584c0 5.266-3.665 9.551-8.174 9.551a7.074 7.074 0 0 1-2.763-.573c2.292-2.124 3.762-5.356 3.762-8.978C311.92 13.981 309.522 9 306.332 9c-1.951 0-3.602 1.865-4.591 4.818-.995-2.953-2.643-4.818-4.588-4.818-1.951 0-3.604 1.865-4.593 4.818-.995-2.953-2.647-4.818-4.592-4.818-1.946 0-3.6 1.865-4.594 4.813-.995-2.948-2.642-4.813-4.587-4.813-1.951 0-3.598 1.865-4.591 4.813C273.2 10.865 271.55 9 269.606 9c-1.95 0-3.602 1.865-4.592 4.818-.995-2.953-2.646-4.818-4.598-4.818-1.945 0-3.6 1.865-4.587 4.818-.996-2.953-2.643-4.818-4.594-4.818-1.944 0-3.597 1.865-4.592 4.813C245.648 10.865 244 9 242.055 9c-1.95 0-3.598 1.865-4.592 4.818C236.468 10.865 234.82 9 232.87 9c-1.946 0-3.6 1.865-4.593 4.813-.99-2.948-2.643-4.813-4.588-4.813-1.944 0-3.598 1.865-4.593 4.818-.994-2.953-2.642-4.818-4.592-4.818-1.946 0-3.598 1.865-4.593 4.813-.99-2.948-2.642-4.813-4.587-4.813-1.947 0-3.598 1.865-4.593 4.813C199.737 10.865 198.09 9 196.144 9c-1.95 0-3.603 1.865-4.593 4.818-.995-2.953-2.646-4.818-4.593-4.818-1.945 0-3.597 1.865-4.592 4.813C181.37 10.865 179.723 9 177.78 9c-3.191 0-5.594 4.981-5.594 11.584 0 3.622 1.47 6.854 3.763 8.978a7.074 7.074 0 0 1-2.763.573c-4.511 0-7.97-4.285-7.97-9.551h-2.006c0 6.384 4.36 11.577 9.976 11.577a9.102 9.102 0 0 0 4.594-1.258c1.38.803 2.933 1.258 4.586 1.258a9.087 9.087 0 0 0 4.592-1.258 9.096 9.096 0 0 0 4.593 1.258c1.653 0 3.205-.455 4.588-1.258a9.09 9.09 0 0 0 4.593 1.258 9.096 9.096 0 0 0 4.593-1.258 9.09 9.09 0 0 0 4.592 1.258c1.653 0 3.206-.455 4.593-1.258a9.057 9.057 0 0 0 4.587 1.258 9.096 9.096 0 0 0 4.593-1.258c1.383.803 2.94 1.258 4.588 1.258a9.08 9.08 0 0 0 4.593-1.258 9.09 9.09 0 0 0 4.592 1.258 9.087 9.087 0 0 0 4.592-1.258c1.383.803 2.936 1.258 4.588 1.258a9.09 9.09 0 0 0 4.592-1.258 9.1 9.1 0 0 0 4.594 1.258c1.653 0 3.21-.455 4.59-1.258a9.102 9.102 0 0 0 4.595 1.258c1.653 0 3.205-.455 4.588-1.258a9.088 9.088 0 0 0 4.594 1.258 9.06 9.06 0 0 0 4.586-1.258c1.386.803 2.939 1.258 4.592 1.258 1.653 0 3.21-.455 4.594-1.258a9.09 9.09 0 0 0 4.592 1.258c1.653 0 3.205-.455 4.587-1.258 1.389.803 2.94 1.258 4.594 1.258a9.086 9.086 0 0 0 4.59-1.258 9.102 9.102 0 0 0 4.595 1.258c5.615 0 10.18-5.193 10.18-11.577H319.1z" fill="#39393A"/>
            <path d="M177.78 28.484c-2.169-1.719-3.589-4.62-3.589-7.9 0-5.469 1.891-9.556 3.588-9.556 1.69 0 3.58 4.087 3.58 9.556h.006c0 3.28-1.426 6.181-3.586 7.9M182.365 30.135a7.054 7.054 0 0 1-2.758-.573c1.162-1.077 2.107-2.448 2.758-4.003.658 1.555 1.6 2.926 2.764 4.003a7.124 7.124 0 0 1-2.764.573M186.958 28.484c-2.166-1.719-3.587-4.62-3.587-7.9 0-5.469 1.897-9.556 3.587-9.556 1.691 0 3.587 4.087 3.587 9.556 0 1.638-.358 3.183-.984 4.536-.624 1.348-1.52 2.504-2.603 3.364M191.55 30.135a7.074 7.074 0 0 1-2.762-.573c1.16-1.077 2.105-2.448 2.763-4.003.652 1.555 1.598 2.926 2.764 4.003a7.12 7.12 0 0 1-2.764.573M196.139 28.484c-2.161-1.719-3.588-4.62-3.588-7.9 0-5.469 1.897-9.556 3.593-9.556 1.69 0 3.582 4.087 3.582 9.556 0 1.638-.355 3.183-.983 4.536-.625 1.348-1.522 2.504-2.604 3.364M200.731 30.135a7.106 7.106 0 0 1-2.764-.573c1.166-1.077 2.111-2.448 2.764-4.003.657 1.555 1.598 2.926 2.763 4.003a7.097 7.097 0 0 1-2.763.573M205.324 28.484c-2.16-1.725-3.588-4.62-3.588-7.9 0-5.469 1.891-9.556 3.588-9.556 1.691 0 3.587 4.087 3.587 9.556 0 1.638-.355 3.183-.983 4.531-.625 1.353-1.527 2.51-2.604 3.37M209.917 30.135a7.08 7.08 0 0 1-2.764-.573c1.167-1.077 2.106-2.448 2.764-4.003.652 1.555 1.597 2.926 2.763 4.003a7.12 7.12 0 0 1-2.763.573M214.51 28.484c-2.167-1.725-3.593-4.62-3.593-7.9 0-5.469 1.896-9.556 3.588-9.556 1.69 0 3.585 4.087 3.585 9.556 0 1.638-.352 3.183-.977 4.531-.63 1.353-1.526 2.51-2.603 3.37M219.097 30.135a7.112 7.112 0 0 1-2.763-.573c1.166-1.077 2.113-2.448 2.763-4.003.658 1.555 1.597 2.926 2.764 4.003a7.076 7.076 0 0 1-2.764.573M223.69 28.484c-2.166-1.719-3.586-4.62-3.586-7.9 0-5.469 1.894-9.556 3.585-9.556 1.692 0 3.583 4.087 3.583 9.556h.005c0 3.28-1.426 6.181-3.587 7.9M228.277 30.135a7.072 7.072 0 0 1-2.758-.573c1.166-1.077 2.106-2.448 2.758-4.003.658 1.555 1.602 2.926 2.77 4.003a7.13 7.13 0 0 1-2.77.573M232.87 28.484c-2.162-1.719-3.587-4.62-3.587-7.9 0-5.469 1.896-9.556 3.587-9.556 1.697 0 3.587 4.087 3.587 9.556h.005c0 3.28-1.426 6.181-3.592 7.9M237.463 30.135a7.083 7.083 0 0 1-2.764-.573c1.166-1.077 2.112-2.448 2.764-4.003.652 1.555 1.597 2.926 2.765 4.003a7.092 7.092 0 0 1-2.765.573M242.055 28.484c-2.166-1.719-3.592-4.62-3.592-7.9 0-5.469 1.895-9.556 3.592-9.556 1.69 0 3.582 4.087 3.582 9.556h.006c0 3.28-1.426 6.181-3.588 7.9M246.643 30.135a7.124 7.124 0 0 1-2.764-.573c1.166-1.077 2.113-2.448 2.764-4.003.658 1.555 1.598 2.926 2.764 4.003a7.083 7.083 0 0 1-2.764.573M251.234 28.484c-2.16-1.725-3.586-4.62-3.586-7.9 0-5.469 1.896-9.556 3.586-9.556 1.692 0 3.588 4.087 3.588 9.556h.006c0 3.28-1.426 6.175-3.594 7.9M255.83 30.135a7.126 7.126 0 0 1-2.766-.573c1.168-1.077 2.112-2.448 2.765-4.003.657 1.555 1.597 2.926 2.763 4.003a7.12 7.12 0 0 1-2.763.573M260.42 28.484c-2.164-1.725-3.586-4.62-3.586-7.9 0-2.736.47-5.12 1.155-6.829.686-1.707 1.58-2.727 2.427-2.727 1.696 0 3.586 4.087 3.586 9.556h.006c0 3.28-1.426 6.175-3.588 7.9M265.014 30.135a7.083 7.083 0 0 1-2.764-.573c1.16-1.077 2.106-2.448 2.764-4.003.652 1.555 1.598 2.926 2.764 4.003a7.12 7.12 0 0 1-2.764.573M269.602 28.484c-2.162-1.719-3.581-4.62-3.581-7.9 0-5.469 1.89-9.556 3.585-9.556 1.693 0 3.583 4.087 3.583 9.556 0 1.638-.355 3.183-.984 4.536-.624 1.348-1.521 2.504-2.603 3.364M274.195 30.135a7.08 7.08 0 0 1-2.765-.573c1.166-1.077 2.106-2.448 2.765-4.003.65 1.555 1.596 2.926 2.762 4.003a7.11 7.11 0 0 1-2.762.573M278.781 28.484c-2.16-1.719-3.586-4.62-3.586-7.9 0-5.469 1.895-9.556 3.592-9.556 1.69 0 3.581 4.087 3.581 9.556h.006c0 3.28-1.425 6.181-3.593 7.9M283.374 30.135a7.112 7.112 0 0 1-2.763-.573c1.166-1.077 2.111-2.448 2.763-4.003.657 1.555 1.597 2.926 2.763 4.003a7.078 7.078 0 0 1-2.763.573M287.968 28.484c-2.162-1.719-3.588-4.62-3.588-7.9 0-5.469 1.896-9.556 3.588-9.556 1.69 0 3.585 4.087 3.585 9.556 0 1.638-.357 3.183-.982 4.536-.625 1.348-1.521 2.504-2.603 3.364M292.56 30.135a7.078 7.078 0 0 1-2.763-.573c1.166-1.077 2.105-2.448 2.763-4.003.65 1.555 1.597 2.926 2.763 4.003a7.112 7.112 0 0 1-2.763.573M297.147 28.484c-2.162-1.719-3.587-4.62-3.587-7.9 0-5.469 1.897-9.556 3.593-9.556 1.685 0 3.58 4.087 3.58 9.556h.007c0 3.28-1.426 6.181-3.593 7.9M301.74 30.135a7.124 7.124 0 0 1-2.764-.573c1.166-1.077 2.111-2.448 2.764-4.003.657 1.555 1.597 2.926 2.763 4.003a7.078 7.078 0 0 1-2.763.573" fill="#FFF"/>
            <path d="M306.332 28.484c-2.16-1.719-3.587-4.62-3.587-7.9 0-5.469 1.897-9.556 3.587-9.556 1.691 0 3.588 4.087 3.588 9.556 0 1.638-.355 3.183-.984 4.536-.625 1.348-1.526 2.504-2.604 3.364" fill="#39393A"/>
            <path d="M447.804 20.529c0 5.266-3.753 9.606-8.262 9.606a7.074 7.074 0 0 1-2.763-.573c2.292-2.124 3.762-5.356 3.762-8.978C440.536 13.981 438.138 9 434.948 9c-1.951 0-3.602 1.865-4.591 4.818-.995-2.953-2.643-4.818-4.588-4.818-1.951 0-3.604 1.865-4.593 4.818C420.18 10.865 418.529 9 416.584 9c-1.946 0-3.6 1.865-4.594 4.813-.995-2.948-2.642-4.813-4.587-4.813-1.951 0-3.598 1.865-4.591 4.813-.996-2.948-2.645-4.813-4.59-4.813-1.95 0-3.602 1.865-4.592 4.818-.995-2.953-2.646-4.818-4.598-4.818-1.945 0-3.6 1.865-4.587 4.818C383.449 10.865 381.802 9 379.85 9c-1.944 0-3.597 1.865-4.592 4.813C374.264 10.865 372.617 9 370.67 9c-1.95 0-3.598 1.865-4.592 4.818-.995-2.953-2.642-4.818-4.592-4.818-1.946 0-3.6 1.865-4.593 4.813-.99-2.948-2.643-4.813-4.588-4.813-1.944 0-3.598 1.865-4.593 4.818C346.719 10.865 345.07 9 343.12 9c-1.946 0-3.598 1.865-4.593 4.813-.99-2.948-2.642-4.813-4.587-4.813-1.947 0-3.598 1.865-4.593 4.813C328.353 10.865 326.706 9 324.76 9c-1.95 0-3.603 1.865-4.593 4.818C319.172 10.865 317.52 9 315.574 9c-1.945 0-3.597 1.865-4.592 4.813-.995-2.948-2.643-4.813-4.586-4.813-3.191 0-5.594 4.981-5.594 11.584 0 3.622 1.47 6.854 3.763 8.978a7.074 7.074 0 0 1-2.763.573c-4.511 0-8.18-4.285-8.18-9.551h-2.006c0 6.384 4.57 11.577 10.186 11.577a9.102 9.102 0 0 0 4.594-1.258c1.38.803 2.933 1.258 4.586 1.258a9.087 9.087 0 0 0 4.592-1.258 9.096 9.096 0 0 0 4.593 1.258c1.653 0 3.205-.455 4.588-1.258a9.09 9.09 0 0 0 4.593 1.258 9.096 9.096 0 0 0 4.593-1.258 9.09 9.09 0 0 0 4.592 1.258c1.653 0 3.206-.455 4.593-1.258a9.057 9.057 0 0 0 4.587 1.258 9.096 9.096 0 0 0 4.593-1.258c1.383.803 2.94 1.258 4.588 1.258a9.08 9.08 0 0 0 4.593-1.258 9.09 9.09 0 0 0 4.592 1.258 9.087 9.087 0 0 0 4.592-1.258c1.383.803 2.936 1.258 4.588 1.258a9.09 9.09 0 0 0 4.592-1.258 9.1 9.1 0 0 0 4.594 1.258c1.653 0 3.21-.455 4.59-1.258a9.102 9.102 0 0 0 4.595 1.258c1.653 0 3.205-.455 4.588-1.258a9.088 9.088 0 0 0 4.594 1.258 9.06 9.06 0 0 0 4.586-1.258c1.386.803 2.939 1.258 4.592 1.258 1.653 0 3.21-.455 4.594-1.258a9.09 9.09 0 0 0 4.592 1.258c1.653 0 3.205-.455 4.587-1.258 1.389.803 2.94 1.258 4.594 1.258a9.086 9.086 0 0 0 4.59-1.258 9.102 9.102 0 0 0 4.595 1.258c5.615 0 10.268-5.248 10.268-11.632h-2.006z" fill="#39393A"/>
            <path d="M306.395 28.484c-2.168-1.719-3.588-4.62-3.588-7.9 0-5.469 1.891-9.556 3.588-9.556 1.69 0 3.58 4.087 3.58 9.556h.006c0 3.28-1.426 6.181-3.586 7.9M310.981 30.135a7.054 7.054 0 0 1-2.758-.573c1.162-1.077 2.107-2.448 2.758-4.003.658 1.555 1.6 2.926 2.764 4.003a7.124 7.124 0 0 1-2.764.573M315.574 28.484c-2.166-1.719-3.587-4.62-3.587-7.9 0-5.469 1.897-9.556 3.587-9.556 1.691 0 3.587 4.087 3.587 9.556 0 1.638-.358 3.183-.984 4.536-.624 1.348-1.52 2.504-2.603 3.364M320.167 30.135a7.074 7.074 0 0 1-2.763-.573c1.16-1.077 2.105-2.448 2.763-4.003.652 1.555 1.598 2.926 2.764 4.003a7.12 7.12 0 0 1-2.764.573M324.755 28.484c-2.161-1.719-3.588-4.62-3.588-7.9 0-5.469 1.897-9.556 3.593-9.556 1.69 0 3.582 4.087 3.582 9.556 0 1.638-.355 3.183-.983 4.536-.625 1.348-1.522 2.504-2.604 3.364M329.348 30.135a7.106 7.106 0 0 1-2.764-.573c1.166-1.077 2.11-2.448 2.764-4.003.657 1.555 1.598 2.926 2.763 4.003a7.097 7.097 0 0 1-2.763.573M333.94 28.484c-2.16-1.725-3.588-4.62-3.588-7.9 0-5.469 1.891-9.556 3.588-9.556 1.691 0 3.587 4.087 3.587 9.556 0 1.638-.355 3.183-.983 4.531-.625 1.353-1.527 2.51-2.604 3.37M338.533 30.135a7.08 7.08 0 0 1-2.764-.573c1.167-1.077 2.106-2.448 2.764-4.003.652 1.555 1.597 2.926 2.763 4.003a7.12 7.12 0 0 1-2.763.573M343.126 28.484c-2.167-1.725-3.593-4.62-3.593-7.9 0-5.469 1.896-9.556 3.588-9.556 1.691 0 3.585 4.087 3.585 9.556 0 1.638-.352 3.183-.977 4.531-.63 1.353-1.526 2.51-2.603 3.37M347.713 30.135a7.112 7.112 0 0 1-2.763-.573c1.166-1.077 2.113-2.448 2.763-4.003.658 1.555 1.597 2.926 2.764 4.003a7.076 7.076 0 0 1-2.764.573M352.306 28.484c-2.166-1.719-3.586-4.62-3.586-7.9 0-5.469 1.895-9.556 3.586-9.556 1.69 0 3.582 4.087 3.582 9.556h.005c0 3.28-1.426 6.181-3.587 7.9M356.894 30.135a7.072 7.072 0 0 1-2.758-.573c1.166-1.077 2.106-2.448 2.758-4.003.658 1.555 1.602 2.926 2.769 4.003a7.13 7.13 0 0 1-2.77.573M361.486 28.484c-2.162-1.719-3.587-4.62-3.587-7.9 0-5.469 1.896-9.556 3.587-9.556 1.697 0 3.587 4.087 3.587 9.556h.005c0 3.28-1.426 6.181-3.592 7.9M366.08 30.135a7.083 7.083 0 0 1-2.765-.573c1.166-1.077 2.112-2.448 2.764-4.003.652 1.555 1.597 2.926 2.765 4.003a7.092 7.092 0 0 1-2.765.573M370.67 28.484c-2.165-1.719-3.591-4.62-3.591-7.9 0-5.469 1.895-9.556 3.592-9.556 1.69 0 3.582 4.087 3.582 9.556h.006c0 3.28-1.426 6.181-3.588 7.9M375.259 30.135a7.124 7.124 0 0 1-2.764-.573c1.166-1.077 2.113-2.448 2.764-4.003.658 1.555 1.598 2.926 2.764 4.003a7.083 7.083 0 0 1-2.764.573M379.85 28.484c-2.16-1.725-3.585-4.62-3.585-7.9 0-5.469 1.896-9.556 3.586-9.556 1.692 0 3.588 4.087 3.588 9.556h.006c0 3.28-1.426 6.175-3.594 7.9M384.445 30.135a7.126 7.126 0 0 1-2.765-.573c1.168-1.077 2.112-2.448 2.765-4.003.657 1.555 1.597 2.926 2.763 4.003a7.12 7.12 0 0 1-2.763.573M389.036 28.484c-2.164-1.725-3.586-4.62-3.586-7.9 0-2.736.47-5.12 1.155-6.829.686-1.707 1.581-2.727 2.427-2.727 1.696 0 3.586 4.087 3.586 9.556h.006c0 3.28-1.426 6.175-3.588 7.9M393.63 30.135a7.083 7.083 0 0 1-2.764-.573c1.16-1.077 2.106-2.448 2.764-4.003.652 1.555 1.598 2.926 2.764 4.003a7.12 7.12 0 0 1-2.764.573M398.218 28.484c-2.162-1.719-3.581-4.62-3.581-7.9 0-5.469 1.89-9.556 3.585-9.556 1.693 0 3.583 4.087 3.583 9.556 0 1.638-.355 3.183-.984 4.536-.624 1.348-1.521 2.504-2.603 3.364M402.812 30.135a7.08 7.08 0 0 1-2.765-.573c1.166-1.077 2.106-2.448 2.764-4.003.65 1.555 1.597 2.926 2.763 4.003a7.11 7.11 0 0 1-2.762.573M407.398 28.484c-2.16-1.719-3.587-4.62-3.587-7.9 0-5.469 1.896-9.556 3.593-9.556 1.69 0 3.58 4.087 3.58 9.556h.007c0 3.28-1.425 6.181-3.593 7.9M411.99 30.135a7.112 7.112 0 0 1-2.763-.573c1.166-1.077 2.111-2.448 2.763-4.003.657 1.555 1.597 2.926 2.763 4.003a7.078 7.078 0 0 1-2.763.573M416.584 28.484c-2.162-1.719-3.588-4.62-3.588-7.9 0-5.469 1.896-9.556 3.588-9.556 1.69 0 3.585 4.087 3.585 9.556 0 1.638-.357 3.183-.982 4.536-.625 1.348-1.521 2.504-2.603 3.364M421.176 30.135a7.078 7.078 0 0 1-2.763-.573c1.166-1.077 2.105-2.448 2.763-4.003.65 1.555 1.597 2.926 2.763 4.003a7.112 7.112 0 0 1-2.763.573M425.763 28.484c-2.162-1.719-3.587-4.62-3.587-7.9 0-5.469 1.897-9.556 3.593-9.556 1.685 0 3.58 4.087 3.58 9.556h.007c0 3.28-1.426 6.181-3.593 7.9M430.356 30.135a7.124 7.124 0 0 1-2.764-.573c1.166-1.077 2.111-2.448 2.764-4.003.657 1.555 1.597 2.926 2.763 4.003a7.078 7.078 0 0 1-2.763.573M434.948 28.484c-2.16-1.719-3.587-4.62-3.587-7.9 0-5.469 1.897-9.556 3.587-9.556 1.691 0 3.588 4.087 3.588 9.556 0 1.638-.355 3.183-.984 4.536-.625 1.348-1.526 2.504-2.604 3.364" fill="#FFF"/>
        </g>
        <path d="M164.224 20.59v-.032c0-11.046-8.954-20-20-20h-8.727c-11.045 0-20 8.954-20 20v108.51M448.802 20.558c0-7.826 6.345-14.171 14.171-14.171h1.906c8.878 0 16.076 7.198 16.076 16.076v144.073" stroke="#39393A" stroke-width="2"/>
        <circle stroke="#1692D0" stroke-width="2" fill="#FFF" cx="42" cy="146" r="2"/>
        <circle stroke="#1692D0" stroke-width="2" fill="#FFF" cx="29.5" cy="132.5" r="2.5"/>
        <circle stroke="#1692D0" stroke-width="2" fill="#FFF" cx="41.5" cy="117.5" r="3.5"/>
        <circle stroke="#1692D0" stroke-width="2" fill="#FFF" cx="27.5" cy="99.5" r="4.5"/>
        <circle fill="#1692D0" cx="412" cy="166" r="5"/>
        <circle fill="#1692D0" cx="405" cy="150" r="3"/>
        <circle fill="#1692D0" cx="419" cy="142" r="2"/>
        <circle fill="#1692D0" cx="409.5" cy="133.5" r="1.5"/>
        <circle fill="#1692D0" cx="418.5" cy="122.5" r="1.5"/>
        <circle fill="#1692D0" cx="412.5" cy="116.5" r="1.5"/>
        <path d="M0 240h614.321" stroke="#39393A" stroke-width="2" stroke-linecap="round" stroke-linejoin="round"/>
    </g>
</svg>
