<svg id="complex-svg" viewBox="0 0 308 247" fill="none" xmlns="http://www.w3.org/2000/svg">
<g clip-path="url(#clip0)">
<path d="M149.528 153.128V162.712H154.436C154.68 162.712 154.936 162.751 155.191 162.822L154.048 160.316C150.311 152.127 154.839 145.063 163.826 145.063H237.088L254.351 175.473C254.098 174.693 253.844 173.921 253.588 173.157C252.37 169.515 251.17 166.211 250.005 163.328C249.926 163.132 249.85 162.936 249.777 162.739C247.058 155.451 248.158 147.755 251.595 140.372C252.316 138.824 253.088 137.414 253.863 136.166C254.334 135.407 254.708 134.862 254.956 134.53L302.091 73.404C302.764 72.5309 302.624 71.1809 301.779 70.4626L301.033 69.8284C300.219 69.1365 299.063 69.2465 298.403 70.0708L254.102 125.346L239.273 140.61L236.467 137.877L251.172 122.752L295.349 67.6171C297.39 65.0699 301.073 64.7195 303.567 66.8397L304.313 67.4738C306.753 69.5489 307.14 73.2705 305.19 75.8003L258.074 136.9C257.91 137.121 257.598 137.575 257.188 138.236C256.492 139.356 255.795 140.63 255.144 142.029C252.109 148.547 251.153 155.227 253.444 161.367C253.505 161.531 253.569 161.694 253.635 161.857C254.832 164.822 256.058 168.198 257.301 171.912C258.962 176.877 260.569 182.19 262.063 187.502C262.361 188.561 262.642 189.577 262.905 190.542L264.149 192.733C266.959 197.683 264.566 202.85 258.987 203.878L257.042 204.236L247.745 207.523L203.349 223.269L213.201 233.278H258.079C259.162 233.278 260.515 234.016 261.103 234.933L267.787 245.345C268.374 246.259 267.986 247 266.911 247H129.847C128.776 247 128.381 246.262 128.97 245.345L135.654 234.933C136.241 234.019 137.604 233.278 138.679 233.278H155.313V217.602C155.313 211.102 160.586 205.833 167.073 205.833H174.427C175.164 205.833 175.932 205.882 176.723 205.974L176.584 205.884L227.017 186.299H169.137C167.278 186.299 165.334 185.046 164.562 183.354L156.957 166.691H149.528L147.49 166.692C146.417 166.692 145.546 165.799 145.546 164.724V155.314C146.744 154.657 148.26 153.824 149.528 153.128ZM149.528 139.304L145.546 141.438V76.4892H80.9242C78.7526 76.4892 76.9922 74.7466 76.9922 72.5702V49.9295H80.8636L81.0046 70.6533C81.012 71.7439 81.8814 72.6279 82.9844 72.6279H145.546V27.4444H145.526V23.5238H145.546V11.9286C145.546 10.8552 146.43 9.98511 147.49 9.98511C148.658 9.98511 149.528 10.8664 149.528 11.9381V23.5238H182.735C183.807 23.5238 184.676 24.3939 184.676 25.4841V26.4643V33.4068L200.85 33.406C202.392 33.406 204.382 34.1248 205.558 35.1093L213.337 41.6231L210.826 44.6309L203.046 38.1171C202.577 37.7242 201.476 37.3267 200.85 37.3267H184.682C182.507 37.3267 180.761 35.5809 180.761 33.4139V27.4444H149.528V139.304ZM183.183 207.526C187.525 209.055 191.742 211.476 194.42 214.197L200.329 220.131L245.989 203.986L236.114 186.972L183.183 207.526ZM163.826 148.984C157.69 148.984 155.056 153.093 157.609 158.686L168.122 181.724C168.258 182.022 168.812 182.379 169.137 182.379H237.977L249.188 201.696L258.279 200.022C261.204 199.483 262.226 197.278 260.746 194.671L234.81 148.984H163.826ZM191.632 216.95C187.826 213.083 179.871 209.754 174.427 209.754H167.073C162.744 209.754 159.228 213.271 159.228 217.602V233.278H207.704L191.632 216.95ZM257.81 237.053C257.869 237.145 257.88 237.183 257.895 237.198C257.929 237.211 138.679 237.198 138.679 237.198C138.879 237.182 138.89 237.143 138.947 237.053L135.079 243.079H261.679L257.908 237.205L257.81 237.053ZM190.549 117.619C189.468 117.619 188.591 116.741 188.591 115.659C188.591 114.576 189.468 113.698 190.549 113.698H219.639C221.482 113.698 223.415 114.968 224.157 116.651L231.734 133.83C232.171 134.82 231.723 135.978 230.734 136.415C229.745 136.853 228.589 136.404 228.153 135.414L220.576 118.235C220.458 117.968 219.927 117.619 219.639 117.619H190.549Z" fill="#39393A"/>
<path d="M43.8155 47.1661H118.084V4.01133H43.8155V47.1661ZM39.9004 4.00759C39.9004 1.84435 41.6531 0.0906982 43.8049 0.0906982H118.094C120.251 0.0906982 121.999 1.8461 121.999 4.00759V47.1698C121.999 49.3331 120.246 51.0867 118.094 51.0867H43.8049C41.6485 51.0867 39.9004 49.3313 39.9004 47.1698V4.00759ZM47.8583 11.8416V39.42C47.8583 41.5903 49.6055 43.3474 51.7607 43.3474H110.299C112.46 43.3474 114.201 41.5891 114.201 39.42V11.8416C114.201 9.67139 112.454 7.91426 110.299 7.91426H51.7607C49.5987 7.91426 47.8583 9.67259 47.8583 11.8416ZM110.287 39.4267C110.287 39.4267 51.7734 39.4247 51.7734 39.42L51.772 11.8349C51.772 11.8349 110.286 11.837 110.286 11.8416L110.287 39.4267ZM233.709 148.975H161.258L88.3897 187.269C84.6192 189.305 79.9335 187.859 77.9238 184.04C75.9142 180.221 77.3417 175.474 81.1122 173.439L157.392 133.303H233.709C237.982 133.303 241.445 136.811 241.445 141.139C241.445 145.467 237.982 148.975 233.709 148.975ZM82.97 176.89C81.0949 177.902 80.3765 180.291 81.3874 182.212C82.3849 184.108 84.6824 184.817 86.5704 183.798L160.293 145.055H161.258H233.709C235.809 145.055 237.53 143.311 237.53 141.139C237.53 138.967 235.809 137.223 233.709 137.223H158.358L82.97 176.89ZM283.42 63.7363C285.884 60.2484 290.777 59.3676 294.35 61.7689C297.922 64.1703 298.82 68.9445 296.356 72.4324C294.56 74.9749 287.496 83.8475 276.417 97.5675C276.277 97.7401 276.277 97.7401 276.138 97.9126C271.699 103.408 266.945 109.274 262.191 115.125C260.527 117.172 258.982 119.072 257.596 120.776C256.823 121.725 256.823 121.725 256.308 122.358C255.931 122.82 255.931 122.82 255.851 122.918C253.149 126.234 248.205 126.787 244.81 124.153C241.414 121.519 240.852 116.696 243.554 113.38C243.632 113.284 243.632 113.284 244.008 112.823C244.521 112.192 244.521 112.193 245.292 111.245C246.676 109.545 248.218 107.649 249.879 105.604C254.625 99.7642 259.37 93.9099 263.798 88.4272C263.937 88.2551 263.937 88.2551 264.076 88.0831C274.737 74.8817 281.921 65.8583 283.42 63.7363ZM267.12 90.5485L266.981 90.7206L266.842 90.8928C262.584 96.1652 257.883 101.967 252.916 108.079C251.319 110.044 249.776 111.943 248.327 113.723C247.772 114.405 247.772 114.405 247.494 114.746C247.309 114.973 247.309 114.973 247.041 115.302C246.704 115.715 246.704 115.715 246.623 115.815C245.28 117.464 245.548 119.767 247.207 121.053C248.927 122.388 251.461 122.104 252.818 120.439C252.936 120.294 252.936 120.294 253.274 119.88C253.542 119.551 253.542 119.551 253.727 119.323C254.005 118.982 254.005 118.982 254.561 118.299C256.011 116.517 257.556 114.617 259.154 112.65C264.125 106.532 268.831 100.725 273.094 95.447L273.233 95.2746L273.372 95.1022C284.915 80.8086 291.513 72.4997 293.16 70.168C294.349 68.4847 293.92 66.2019 292.168 65.0242C290.354 63.8048 287.849 64.2557 286.616 66.0008C285.084 68.1687 278.217 76.8067 267.12 90.5485ZM188.592 111.739C188.592 110.657 189.482 109.779 190.55 109.779H219.913C220.994 109.779 221.87 110.649 221.87 111.739C221.87 112.822 220.98 113.7 219.913 113.7H190.55C189.469 113.7 188.592 112.83 188.592 111.739ZM199.965 57.8387C197.61 55.0279 197.965 50.8466 200.799 48.4653L217.707 34.2573C220.523 31.8913 224.72 32.2576 227.07 35.0627L229.926 38.4713C230.704 39.3996 230.581 40.785 229.639 41.5768L205.925 61.5033C204.989 62.2902 203.589 62.163 202.821 61.2472L199.965 57.8387ZM225.819 39.6688L224.071 37.5829C223.11 36.4361 221.383 36.2869 220.224 37.2607L203.316 51.4687C202.144 52.4533 201.994 54.1606 202.964 55.3186L204.712 57.4045L225.819 39.6688Z" fill="#1692D0"/>
</g>
<defs>
<clipPath id="clip0">
<rect width="308" height="247" fill="white"/>
</clipPath>
</defs>
</svg>
