<svg viewBox="0 0 45 52" xmlns="http://www.w3.org/2000/svg" id="icon-pdf" class="icon icon_file_pdf"><g fill-rule="evenodd" class="icon__content"><path d="M38 12h-2V7.999c0-.026-.106-.281-.123-.299l-5.575-5.577a2.111 2.111 0 0 0-.29-.123H2v48h34V31h2v19.997c0 .554-.453 1.003-.997 1.003H.997A.998.998 0 0 1 0 51.008V.992A.99.99 0 0 1 .997 0H30.01c.55 0 1.315.319 1.706.71l5.574 5.576C37.683 6.678 38 7.441 38 8V12zm-24 .995a.99.99 0 0 1 .996-.995h29.008a1 1 0 0 1 .996.995v17.01a.99.99 0 0 1-.996.995H14.996a1 1 0 0 1-.996-.995v-17.01zM16 29h27V14H16v15z" fill-rule="nonzero"></path> <path d="M22.412 21.22h.498c.466 0 .814-.091 1.045-.275.231-.184.347-.452.347-.803 0-.355-.097-.617-.29-.787-.194-.169-.498-.253-.911-.253h-.689v2.119zm3.418-1.132c0 .768-.24 1.356-.72 1.763-.48.406-1.163.61-2.048.61h-.65V25h-1.514v-7.139h2.28c.867 0 1.525.187 1.976.56.45.372.676.928.676 1.667zm7.27 1.274c0 1.175-.334 2.075-1.003 2.7-.669.626-1.635.938-2.898.938h-2.021v-7.139h2.24c1.166 0 2.071.308 2.716.923.644.615.967 1.475.967 2.578zm-1.572.04c0-1.534-.677-2.3-2.03-2.3h-.807v4.648h.65c1.458 0 2.187-.783 2.187-2.349zM36.07 25H34.58v-7.139h4.092v1.24h-2.603v1.841h2.422v1.236H36.07V25z"></path></g></svg>