<svg viewBox="0 0 112 68" fill="none" xmlns="http://www.w3.org/2000/svg" id="icon-h-lab">
<path d="M46.1957 26.4907L47.9783 27.1678V62.2353H60.4565V31.9074L62.2391 32.5845V38.4118C62.2407 38.4118 62.2423 38.4118 62.2438 38.4118H95.2127C96.1998 38.4118 97 39.1988 97 40.1764V62.2354C97 63.2099 96.2028 64 95.2127 64H61.3478H47.087H15V50.7566C15 49.7864 15.7989 49 16.7847 49H46.1957V26.4907ZM46.1957 20.774V6.64252C46.1957 5.1831 47.4015 4 48.8629 4H59.5719C61.045 4 62.2391 5.17925 62.2391 6.64252V26.8041L60.4565 26.1341V6.64252C60.4565 6.15529 60.0619 5.76471 59.5719 5.76471H48.8629C48.3811 5.76471 47.9783 6.1626 47.9783 6.64252V21.444L46.1957 20.774ZM95.2127 62.2353C95.2178 62.2353 95.2174 40.1764 95.2174 40.1764C95.2174 40.176 62.2438 40.1765 62.2438 40.1765C62.2387 40.1765 62.2391 62.2353 62.2391 62.2353H95.2127ZM16.7826 62.2353H46.1957V50.7647H16.7847C16.7836 50.7647 16.7826 62.2353 16.7826 62.2353Z" fill="#39393A"/>
<path d="M67.9916 37.9277C67.8116 37.0444 67.7355 36.1352 67.7719 35.218L17.3447 16.8622C15.4942 16.1886 14.5427 14.1511 15.2164 12.3197C15.8915 10.4845 17.9475 9.54601 19.7894 10.2165L70.2341 28.5786C73.2496 24.767 78.5079 23.1215 83.3542 24.8668C88.8241 26.8366 91.8898 32.4491 90.7713 37.9277H88.9413C90.094 33.1837 87.4873 28.2367 82.743 26.5282C77.6423 24.6913 72.0024 27.2935 70.1459 32.3402C69.4611 34.2017 69.3868 36.1357 69.8216 37.9277H67.9916ZM67.9899 33.4134C68.1042 32.8513 68.2625 32.2907 68.4667 31.7355C68.6781 31.1607 68.9311 30.6127 69.221 30.0937L19.1725 11.8758C18.2558 11.5421 17.2312 12.0123 16.8956 12.9244C16.5579 13.8425 17.0371 14.8663 17.9617 15.2029L67.9899 33.4134ZM33.5215 22.7507V26.7C37.6244 27.6915 40.6694 31.3528 40.6694 35.7177C40.6694 40.8442 36.4691 45 31.2878 45C26.1065 45 21.9062 40.8442 21.9062 35.7177C21.9062 31.3528 24.9512 27.6915 29.0541 26.7V21.1245L30.8411 21.775V26.4353H31.7346V22.1207L31.0893 21.8653L33.5215 22.7507ZM57.6456 23.9963L55.8587 23.3458V18.479H52.2847V22.0449L50.4977 21.3944V16.711H57.6456V23.9963ZM57.6456 31.532V36.1597H50.4977V28.9301L52.2847 29.5806V34.3916H55.8587V30.8815L57.6456 31.532ZM31.2878 43.2319C35.4822 43.2319 38.8824 39.8677 38.8824 35.7177C38.8824 31.5676 35.4822 28.2034 31.2878 28.2034C27.0934 28.2034 23.6932 31.5676 23.6932 35.7177C23.6932 39.8677 27.0934 43.2319 31.2878 43.2319Z" fill="#1692D0"/>
</svg>
