<svg id="icon-c-op" viewBox="0 0 48 48" fill="none" xmlns="http://www.w3.org/2000/svg">
<path d="M9.13107 31.017C9.04907 31.2366 8.93526 31.6047 8.82376 32.0893C8.73948 32.4557 8.66958 32.8391 8.61876 33.2355C8.54703 33.795 8.94241 34.3066 9.50186 34.3784C10.0613 34.4501 10.573 34.0547 10.6447 33.4953C10.6867 33.168 10.7446 32.8504 10.8143 32.5473C10.9044 32.1557 10.9922 31.8719 11.0445 31.7316C11.2419 31.2032 10.9735 30.6149 10.4451 30.4176C9.91672 30.2203 9.3284 30.4886 9.13107 31.017ZM8.76446 36.6717C8.95559 37.4616 9.26506 38.1995 9.70543 38.8705C10.0149 39.342 10.6481 39.4734 11.1196 39.1639C11.5912 38.8544 11.7225 38.2212 11.413 37.7497C11.1061 37.2821 10.8875 36.7609 10.7497 36.1913C10.6171 35.6431 10.0651 35.3062 9.51689 35.4389C8.96868 35.5715 8.6318 36.1235 8.76446 36.6717ZM12.4054 41.2542C13.0377 41.5828 13.7455 41.8504 14.5306 42.055C15.0764 42.1972 15.6341 41.87 15.7764 41.3242C15.9186 40.7784 15.5914 40.2206 15.0456 40.0784C14.405 39.9115 13.8403 39.698 13.3472 39.4418C12.8467 39.1817 12.2301 39.3766 11.9701 39.8771C11.71 40.3776 11.9049 40.9941 12.4054 41.2542ZM17.8068 42.5209C18.1376 42.5362 18.4775 42.544 18.8267 42.5443C19.2127 42.5443 19.5763 42.5407 19.9361 42.5333C20.5 42.5217 20.9477 42.0552 20.9362 41.4913C20.9246 40.9274 20.4581 40.4796 19.8942 40.4912C19.5485 40.4983 19.199 40.5017 18.8275 40.5017C18.5097 40.5015 18.2006 40.4944 17.901 40.4805C17.3376 40.4545 16.8597 40.8901 16.8337 41.4536C16.8077 42.017 17.2433 42.4949 17.8068 42.5209ZM23.0695 42.3621C23.7988 42.2946 24.4963 42.2085 25.1614 42.1042C25.7186 42.0168 26.0995 41.4943 26.0121 40.937C25.9247 40.3798 25.4021 39.9989 24.8449 40.0863C24.2232 40.1838 23.5685 40.2646 22.8813 40.3282C22.3197 40.3802 21.9065 40.8776 21.9585 41.4392C22.0105 42.0009 22.5079 42.414 23.0695 42.3621ZM28.2906 41.4087C29.0353 41.1847 29.7186 40.9285 30.339 40.6407C30.8507 40.4034 31.0731 39.7962 30.8357 39.2846C30.5984 38.7729 29.9912 38.5505 29.4796 38.7878C28.9499 39.0335 28.3569 39.2558 27.7023 39.4528C27.1621 39.6152 26.856 40.1848 27.0184 40.7249C27.1809 41.2651 27.7505 41.5712 28.2906 41.4087ZM33.1853 38.661C33.7862 38.0114 34.2118 37.2879 34.4502 36.5064C34.6148 35.9669 34.3109 35.3961 33.7714 35.2315C33.2319 35.0669 32.6611 35.3709 32.4965 35.9103C32.3502 36.3901 32.0823 36.8454 31.6858 37.2742C31.3028 37.6883 31.328 38.3344 31.7421 38.7174C32.1562 39.1004 32.8024 39.0751 33.1853 38.661ZM34.2257 32.7201C34.4288 33.2463 34.1668 33.8375 33.6406 34.0406C33.1144 34.2437 32.5232 33.9817 32.3201 33.4555C32.2305 33.2234 32.1216 32.9869 31.9933 32.7467C31.7276 32.2492 31.9154 31.6305 32.4129 31.3647C32.9105 31.099 33.5292 31.2869 33.7949 31.7844C33.9618 32.0967 34.1056 32.4088 34.2257 32.7201ZM26.3716 17.4839L32.3459 21.1282L27.2594 31.2296C26.7868 32.1681 25.7943 33.0944 24.8227 33.5042L19.472 35.7615C17.1023 36.7611 15.1512 34.4793 16.5916 32.2975L26.3716 17.4839ZM26.9904 20.2539L18.2962 33.4229C17.9786 33.9039 18.155 34.1002 18.6781 33.8795L24.0288 31.6223C24.5551 31.4003 25.1815 30.8145 25.4351 30.311L29.6747 21.8914L26.9904 20.2539Z" fill="#1692D0"/>
<path d="M39.5069 10.8908L41.2248 12.042L37.2738 17.9376C36.8536 18.5647 36.1171 19.382 35.5344 19.8686L33.5626 21.5153C32.459 22.4368 30.7574 22.5657 29.5363 21.8173L26.9983 20.2619C25.6101 19.4111 25.1086 17.6095 25.8408 16.1541L31.0462 5.80774L32.795 6.68757C32.2168 7.92221 31.6234 9.20312 31.6234 9.20312L31.6242 9.20359L27.6654 17.0721C27.4072 17.5854 27.5891 18.2283 28.0656 18.5204L30.6036 20.0758C31.073 20.3635 31.8187 20.3104 32.2533 19.9475L34.2251 18.3009C34.6591 17.9385 35.265 17.2662 35.5771 16.8005L38.1039 13.03L38.1172 13.0378L39.5069 10.8908ZM16.9503 31.7538C14.3187 31.446 11.5432 30.7374 8.74742 29.7401C7.39963 29.2593 6.14076 28.7441 5.00684 28.2294C4.61123 28.0498 4.26006 27.8835 3.95778 27.7347C3.77904 27.6467 3.65799 27.585 3.59907 27.5541C3.09977 27.2917 2.48232 27.4838 2.21996 27.9831C1.95759 28.4824 2.14967 29.0999 2.64897 29.3622C2.7235 29.4014 2.86055 29.4712 3.05578 29.5673C3.37678 29.7253 3.74717 29.9008 4.16263 30.0893C5.34601 30.6265 6.65696 31.163 8.06116 31.6639C10.78 32.6338 13.4889 33.3457 16.1019 33.7049C16.1241 33.2545 16.277 32.7736 16.5913 32.2975L16.9503 31.7538ZM27.2464 31.2545C28.0507 31.1693 28.8872 31.0798 29.7534 30.9865C30.1619 30.9424 30.576 30.8976 30.9953 30.8521C33.9936 30.5267 37.1373 30.178 40.235 29.8293C41.3192 29.7072 42.3201 29.5939 43.214 29.4922C43.7115 29.4356 43.7115 29.4356 44.0422 29.3978C44.2835 29.3702 44.2835 29.3702 44.3339 29.3644C44.8943 29.3001 45.4007 29.7023 45.4649 30.2626C45.5292 30.823 45.1271 31.3294 44.5667 31.3937C44.5158 31.3995 44.5158 31.3995 44.2741 31.4271C43.9429 31.465 43.9429 31.465 43.4449 31.5217C42.5503 31.6235 41.5485 31.7369 40.4635 31.859C37.3633 32.208 34.217 32.557 31.2157 32.8828C30.7959 32.9283 30.3813 32.9732 29.9723 33.0173C28.0387 33.2257 26.2529 33.4147 24.6403 33.5811L24.8224 33.5043C25.7854 33.098 26.769 32.1845 27.2464 31.2545Z" fill="#39393A"/>
</svg>
