<svg viewBox="0 0 16 16" fill="none" xmlns="http://www.w3.org/2000/svg" id="icon-vk">
<g clip-path="url(#clip0)">
<path d="M15.8574 11.5782C15.8144 11.5062 15.5484 10.9282 14.2683 9.7401C12.9282 8.49601 13.1082 8.69802 14.7223 6.54686C15.7054 5.23677 16.0984 4.43671 15.9754 4.09468C15.8584 3.76866 15.1354 3.85466 15.1354 3.85466L12.7312 3.86866C12.7312 3.86866 12.5532 3.84466 12.4202 3.92367C12.2911 4.00167 12.2081 4.18169 12.2081 4.18169C12.2081 4.18169 11.8271 5.19576 11.3191 6.05783C10.248 7.87696 9.81896 7.97297 9.64394 7.85996C9.23691 7.59694 9.33892 6.80188 9.33892 6.23784C9.33892 4.47471 9.60594 3.73965 8.81788 3.54964C8.55586 3.48664 8.36385 3.44463 7.6948 3.43763C6.83673 3.42863 6.10968 3.44063 5.69865 3.64165C5.42463 3.77566 5.21361 4.07468 5.34262 4.09168C5.50163 4.11268 5.86166 4.18869 6.05268 4.44871C6.29969 4.78373 6.29069 5.53779 6.29069 5.53779C6.29069 5.53779 6.4327 7.61294 5.95967 7.87096C5.63464 8.04797 5.18961 7.68695 4.23454 6.03582C3.7455 5.19076 3.37548 4.25569 3.37548 4.25569C3.37548 4.25569 3.30447 4.08168 3.17746 3.98867C3.02345 3.87566 2.80743 3.83966 2.80743 3.83966L0.521262 3.85366C0.521262 3.85366 0.178237 3.86366 0.0522272 4.01267C-0.0597812 4.14568 0.0432265 4.4197 0.0432265 4.4197C0.0432265 4.4197 1.83336 8.60701 3.85951 10.7182C5.71865 12.6533 7.82881 12.5263 7.82881 12.5263H8.78488C8.78488 12.5263 9.0739 12.4943 9.22091 12.3353C9.35692 12.1893 9.35192 11.9153 9.35192 11.9153C9.35192 11.9153 9.33292 10.6322 9.92897 10.4432C10.516 10.2571 11.2701 11.6832 12.0691 12.2323C12.6732 12.6473 13.1322 12.5563 13.1322 12.5563L15.2694 12.5263C15.2694 12.5263 16.3874 12.4573 15.8574 11.5782Z" fill="#1C1B17"/>
</g>
<defs>
<clipPath id="clip0">
<rect width="16" height="16" fill="white"/>
</clipPath>
</defs>
</svg>
