<svg viewBox="0 0 112 68" fill="none" xmlns="http://www.w3.org/2000/svg" id="icon-med">
<path d="M31 48H18.0023C16.9007 48 16 47.1044 16 46.0002V41H33.6265L39.3723 33.8178C39.7189 33.3844 40.4523 33.0325 41.0057 33.0317L63.059 33C64.7171 32.9976 66 34.3486 66 36.0003V41H77.719L96.3058 29.6596L99.2437 33.8149C99.8968 34.7387 99.633 35.9866 98.6742 36.5819L81.3808 47.3197C80.7495 47.7117 79.7387 48 78.9977 48H64V61H71.9966C72.5508 61 73 61.4439 73 62V63H26V62C26 61.4477 26.4501 61 27.0034 61H31V48ZM36.1877 41H64L64.0613 35.996C64.0613 35.4479 63.6122 34.9992 63.0619 35L41.0085 35.0317C41.0607 35.0316 40.9011 35.1083 40.934 35.0672L36.1877 41ZM52.0034 7.04799C51.4511 7.04987 51.0019 6.60369 51 6.05141C50.9981 5.49913 51.4443 5.04989 51.9966 5.048L66.0431 5.00004C69.3646 4.98869 72.0523 7.66379 72.0523 10.9893V35.9947C72.0523 36.547 71.6046 36.9947 71.0523 36.9947C70.5 36.9947 70.0523 36.547 70.0523 35.9947V10.9893C70.0523 8.77161 68.2647 6.99246 66.0499 7.00002L52.0034 7.04799ZM18 43V46.0002C18 45.9973 78.9977 46 78.9977 46C79.3659 46 80.0113 45.8159 80.3258 45.6206L97.5706 34.913L95.7518 32.3404L78.281 43H18ZM26 25H28V35H26V25ZM33 48V61H62V48H33Z" fill="#39393A"/>
<path fill-rule="evenodd" clip-rule="evenodd" d="M65.8439 35H76.0065L95.8134 22.3242C96.7449 21.7281 98.0153 21.9663 98.6575 22.8653L101.333 26.6109C101.972 27.5058 101.726 28.6976 100.789 29.2697L97.4543 31.3045L96.2926 29.6704L99.6134 27.6441L97.0301 24.0278C97.0097 23.9993 76.5916 37 76.5916 37H66.0012C65.9999 36.4055 65.9949 35.7853 65.9805 35.6523C65.9513 35.3827 65.9087 35.2436 65.9087 35.2436C65.892 35.161 65.8703 35.0797 65.8439 35ZM38.4635 35H11.9934C10.8955 35 10 35.8946 10 36.9981V41.0019C10 42.1133 10.8984 43 12.0067 43H16V41.0008C13.4817 41.0009 12.0001 41.001 12 41.0011V37H36.8963L38.4635 35ZM58.0065 24H54.0123C52.9045 24 52.0065 23.1029 52.0065 21.9941V12.0059C52.0065 10.8981 52.9035 10 54.0123 10H55.0065V6H57.0065V10H61.0065V6H63.0065V10H64.0006C65.1084 10 66.0065 10.8971 66.0065 12.0059V21.9941C66.0065 23.1019 65.1094 24 64.0006 24H60.0065V33H58.0065V24ZM54.0065 21.9941C54.0065 21.9979 64.0006 22 64.0006 22C64.0043 22 64.0065 12.0059 64.0065 12.0059C64.0065 12.0021 54.0123 12 54.0123 12C54.0086 12 54.0065 21.9941 54.0065 21.9941ZM71.0065 62C71.0065 60.3431 72.353 59 74.0065 59C75.6633 59 77.0065 60.3465 77.0065 62C77.0065 63.6569 75.66 65 74.0065 65C72.3496 65 71.0065 63.6535 71.0065 62ZM73.0065 62C73.0065 62.5504 73.4557 63 74.0065 63C74.5569 63 75.0065 62.5508 75.0065 62C75.0065 61.4496 74.5572 61 74.0065 61C73.456 61 73.0065 61.4492 73.0065 62ZM17.0065 13.0059C17.0065 11.8981 17.9047 11 18.9973 11H35.0157C36.1152 11 37.0065 11.8971 37.0065 13.0059V22.9941C37.0065 24.1019 36.1083 25 35.0157 25H18.9973C17.8978 25 17.0065 24.1029 17.0065 22.9941V13.0059ZM35.0157 23C35.0038 23 35.0065 13.0059 35.0065 13.0059C35.0065 13.0015 18.9973 13 18.9973 13C19.0092 13 19.0065 22.9941 19.0065 22.9941C19.0065 22.9985 35.0157 23 35.0157 23ZM22.0065 62C22.0065 60.3431 23.353 59 25.0065 59C26.6633 59 28.0065 60.3465 28.0065 62C28.0065 63.6569 26.66 65 25.0065 65C23.3496 65 22.0065 63.6535 22.0065 62ZM24.0065 62C24.0065 62.5504 24.4557 63 25.0065 63C25.5569 63 26.0065 62.5508 26.0065 62C26.0065 61.4496 25.5572 61 25.0065 61C24.456 61 24.0065 61.4492 24.0065 62Z" fill="#1692D0"/>
</svg>
