<svg id="icon-soap" viewBox="0 0 48 48" fill="none" xmlns="http://www.w3.org/2000/svg">
<path d="M22.6738 15.0616H22.695C23.4284 15.0616 24.1244 14.7705 24.6558 14.2412C25.1926 13.7065 25.5005 12.9711 25.5005 12.2237C25.5005 11.2157 24.9009 10.2572 24.5436 9.77561C24.0904 9.16474 23.4005 8.43668 22.688 8.43668C21.9754 8.43668 21.2856 9.16483 20.8324 9.77561C20.475 10.2572 19.8755 11.2157 19.8755 12.2237C19.8755 12.9711 20.1834 13.7064 20.7202 14.2412C21.2515 14.7705 21.9474 15.0616 22.6738 15.0616ZM22.6879 10.4746C23.0793 10.8733 23.6254 11.6791 23.6254 12.2237C23.6254 12.4762 23.5186 12.7273 23.3324 12.9129C23.155 13.0895 22.9287 13.1866 22.6877 13.1866C22.6866 13.1866 22.6855 13.1866 22.6843 13.1866C22.6832 13.1866 22.6822 13.1866 22.681 13.1866C22.447 13.1866 22.2206 13.0895 22.0433 12.9129C21.8571 12.7273 21.7503 12.4762 21.7503 12.2237C21.7503 11.679 22.2964 10.8733 22.6879 10.4746Z" fill="#2E9DDC"/>
<path d="M47.3669 13.9075C47.1991 13.619 46.8904 13.4414 46.5565 13.4414C46.5429 13.4414 45.1874 13.3419 45.1874 12.5039C45.1874 11.9861 44.7676 11.5664 44.2499 11.5664V10.6289C44.2499 9.07809 42.9882 7.8165 41.4375 7.81641V5.62509V5.625H42.375C42.8927 5.625 43.3125 5.20528 43.3125 4.6875V0.9375C43.3125 0.419719 42.8927 0 42.375 0H24.5625C23.3127 0 22.1363 0.48825 21.2498 1.37475C20.3633 2.26125 19.875 3.43772 19.875 4.6875V6.5625C19.875 7.08028 20.2947 7.5 20.8125 7.5H24.5625C25.0802 7.5 25.5 7.08028 25.5 6.5625V5.625H35.8124V5.62509V7.81641C34.2616 7.81641 33 9.07809 33 10.6289V11.5664C32.4823 11.5664 32.0625 11.9861 32.0625 12.5039C32.0625 13.342 30.7072 13.4414 30.6934 13.4414C30.3596 13.4414 30.051 13.6189 29.8831 13.9073C29.4689 14.6193 29.2499 15.4307 29.2499 16.2538V17.9314L26.4423 18.837C26.2087 17.567 25.0998 16.3313 23.2429 16.2563L21.1385 16.1711C20.6201 16.1486 20.1848 16.5526 20.1639 17.0699C20.1429 17.5873 20.5453 18.0236 21.0626 18.0445L23.167 18.1297C24.1532 18.1696 24.6082 18.7808 24.6137 19.3317C24.6197 19.9454 24.1068 20.3431 23.2414 20.3953L16.3157 20.8138C15.7989 20.845 15.4052 21.2893 15.4364 21.8062C15.4677 22.323 15.912 22.7161 16.4288 22.6854L23.3544 22.2669C24.6158 22.1907 25.4735 21.6558 25.9684 20.96L36.0521 17.7075C37.0944 17.431 38.8874 17.1631 39.3674 18.4009C39.4084 18.5218 39.3195 18.6381 39.1034 18.7465L26.5835 24.7658C24.4602 25.5332 19.7595 25.848 15.978 26.1012C14.3036 26.2133 12.722 26.3193 11.526 26.4517C11.439 26.4613 11.3536 26.4831 11.2726 26.5163L1.87499 30.3798V22.5012H5.68638C6.20416 22.5012 6.62388 22.0815 6.62388 21.5637C6.62388 20.4743 7.07716 19.4141 7.86766 18.655C8.605 17.9468 9.55121 17.5792 10.529 17.6182L12.6328 17.7035C13.15 17.7248 13.5865 17.3221 13.6074 16.8047C13.6283 16.2873 13.2259 15.851 12.7086 15.8301L10.6049 15.7448C9.11096 15.6836 7.67781 16.2376 6.56894 17.3027C5.64063 18.1943 5.02995 19.3707 4.82511 20.6262H0.937496C0.419717 20.6262 0 21.0459 0 21.5637V31.7788C0 32.0915 0.155906 32.3836 0.415592 32.5577C0.572248 32.6627 0.75431 32.7163 0.93759 32.7163C1.05815 32.7163 1.17918 32.6931 1.29393 32.6459L11.8625 28.3012C13.0038 28.1796 14.511 28.0786 16.1033 27.972C20.2338 27.6954 24.9155 27.3819 27.2736 26.5099C27.301 26.4997 27.3281 26.4882 27.3545 26.4755L29.2501 25.5642V45.1875C29.2501 46.7383 30.5118 48 32.0626 48H45.1875C46.7383 48 48 46.7383 48 45.1875V16.2539C48 15.4308 47.7811 14.6195 47.3669 13.9075ZM24.5626 3.75C24.0448 3.75 23.6251 4.16972 23.6251 4.6875V5.625H21.7501V4.6875C21.7501 3.93853 22.0433 3.23288 22.5757 2.70056C23.108 2.16816 23.8136 1.875 24.5625 1.875H41.4376V3.75H24.5626ZM39.5626 5.625C39.5626 5.625 39.5626 5.62509 39.5626 5.625V7.81641H37.6874V5.62509V5.625H39.5626ZM34.8751 11.5664V10.6289C34.8751 10.112 35.2956 9.69141 35.8125 9.69141H41.4375C41.9545 9.69141 42.375 10.112 42.375 10.6289V11.5664H34.8751ZM35.5447 15.9023C35.5296 15.9064 35.5145 15.9109 35.4997 15.9157L31.1252 17.3267V16.2539C31.1252 15.9137 31.1877 15.5768 31.3082 15.2606C32.2922 15.0863 33.3653 14.5 33.7704 13.4414H43.4799C43.8849 14.5 44.958 15.0863 45.9421 15.2606C46.0626 15.5768 46.1251 15.9137 46.1251 16.2539V20.408H46.125H39.9719C41.2229 19.7642 41.4446 18.5703 41.1164 17.7248C40.3763 15.816 38.3455 15.1515 35.5447 15.9023ZM36.0754 22.2829H46.1249H46.125V37.2834H46.1249H31.1251V24.6628L36.0754 22.2829ZM45.1875 46.125H32.0626C31.5456 46.125 31.1251 45.7044 31.1251 45.1875V39.1584H46.1249H46.125V45.1875C46.125 45.7044 45.7044 46.125 45.1875 46.125Z" fill="#1C1B17"/>
<path d="M33.9375 32.5946H35.8125V34.4696C35.8125 34.9874 36.2323 35.4071 36.75 35.4071H40.5C41.0177 35.4071 41.4375 34.9874 41.4375 34.4696V32.5946H43.3125C43.8302 32.5946 44.25 32.1749 44.25 31.6571V27.9071C44.25 27.3893 43.8302 26.9696 43.3125 26.9696H41.4375V25.0946C41.4375 24.5768 41.0177 24.1571 40.5 24.1571H36.75C36.2323 24.1571 35.8125 24.5768 35.8125 25.0946V26.9696H33.9375C33.4198 26.9696 33 27.3893 33 27.9071V31.6571C33 32.1749 33.4197 32.5946 33.9375 32.5946ZM34.875 28.8447H36.75C37.2677 28.8447 37.6875 28.425 37.6875 27.9072V26.0322H39.5625V27.9072C39.5625 28.425 39.9823 28.8447 40.5 28.8447H42.375V30.7197H40.5C39.9823 30.7197 39.5625 31.1394 39.5625 31.6572V33.5322H37.6875V31.6572C37.6875 31.1394 37.2677 30.7197 36.75 30.7197H34.875V28.8447Z" fill="#2E9DDC"/>
<path d="M16.886 17.8738C17.4038 17.8738 17.8235 17.4541 17.8235 16.9363C17.8235 16.4186 17.4038 15.9988 16.886 15.9988H16.8854C16.3676 15.9988 15.9482 16.4186 15.9482 16.9363C15.9482 17.4541 16.3682 17.8738 16.886 17.8738Z" fill="#2E9DDC"/>
</svg>
