<svg viewBox="0 0 112 68" fill="none" xmlns="http://www.w3.org/2000/svg" id="icon-react">
<path fill-rule="evenodd" clip-rule="evenodd" d="M38.5 58.0714C37.9871 58.0714 37.5714 57.6557 37.5714 57.1429C37.5714 56.63 37.9871 56.2143 38.5 56.2143C39.0128 56.2143 39.4285 56.63 39.4285 57.1429C39.4285 57.6557 39.0128 58.0714 38.5 58.0714ZM28.6785 53.6557C27.9093 53.6557 27.2857 53.0282 27.2857 52.2541C27.2857 51.48 27.9093 50.8525 28.6785 50.8525C29.4478 50.8525 30.0714 51.48 30.0714 52.2541C30.0714 53.0282 29.4478 53.6557 28.6785 53.6557ZM50.7857 44.3115C50.2728 44.3115 49.8571 43.8931 49.8571 43.377C49.8571 42.861 50.2728 42.4426 50.7857 42.4426C51.2985 42.4426 51.7143 42.861 51.7143 43.377C51.7143 43.8931 51.2985 44.3115 50.7857 44.3115ZM46.7857 38.3115C46.2728 38.3115 45.8571 37.8931 45.8571 37.377C45.8571 36.861 46.2728 36.4426 46.7857 36.4426C47.2985 36.4426 47.7143 36.861 47.7143 37.377C47.7143 37.8931 47.2985 38.3115 46.7857 38.3115ZM40.4285 49.9836C39.4029 49.9836 38.5714 49.1469 38.5714 48.1148C38.5714 47.0826 39.4029 46.2459 40.4285 46.2459C41.4542 46.2459 42.2857 47.0826 42.2857 48.1148C42.2857 49.1469 41.4542 49.9836 40.4285 49.9836ZM34.4285 44.9836C33.4029 44.9836 32.5714 44.1469 32.5714 43.1148C32.5714 42.0826 33.4029 41.2459 34.4285 41.2459C35.4542 41.2459 36.2857 42.0826 36.2857 43.1148C36.2857 44.1469 35.4542 44.9836 34.4285 44.9836ZM24.0357 45.2459C23.2664 45.2459 22.6428 44.6184 22.6428 43.8443C22.6428 43.0702 23.2664 42.4426 24.0357 42.4426C24.8049 42.4426 25.4285 43.0702 25.4285 43.8443C25.4285 44.6184 24.8049 45.2459 24.0357 45.2459ZM29.0357 39.2459C28.2664 39.2459 27.6428 38.6184 27.6428 37.8443C27.6428 37.0702 28.2664 36.4426 29.0357 36.4426C29.8049 36.4426 30.4285 37.0702 30.4285 37.8443C30.4285 38.6184 29.8049 39.2459 29.0357 39.2459ZM47.9285 51.7869C47.4157 51.7869 47 51.3685 47 50.8525C47 50.3364 47.4157 49.918 47.9285 49.918C48.4414 49.918 48.8571 50.3364 48.8571 50.8525C48.8571 51.3685 48.4414 51.7869 47.9285 51.7869ZM71.8571 56.5246C71.3443 56.5246 70.9285 56.1062 70.9285 55.5902C70.9285 55.0741 71.3443 54.6557 71.8571 54.6557C72.3699 54.6557 72.7857 55.0741 72.7857 55.5902C72.7857 56.1062 72.3699 56.5246 71.8571 56.5246ZM83.4643 47.1148C82.695 47.1148 82.0714 46.4872 82.0714 45.7131C82.0714 44.939 82.695 44.3115 83.4643 44.3115C84.2335 44.3115 84.8571 44.939 84.8571 45.7131C84.8571 46.4872 84.2335 47.1148 83.4643 47.1148ZM78.8214 52.7869C78.0521 52.7869 77.4285 52.1594 77.4285 51.3852C77.4285 50.6111 78.0521 49.9836 78.8214 49.9836C79.5906 49.9836 80.2143 50.6111 80.2143 51.3852C80.2143 52.1594 79.5906 52.7869 78.8214 52.7869ZM79.2857 60C78.7728 60 78.3571 59.5843 78.3571 59.0714C78.3571 58.5586 78.7728 58.1429 79.2857 58.1429C79.7985 58.1429 80.2143 58.5586 80.2143 59.0714C80.2143 59.5843 79.7985 60 79.2857 60ZM76.5 43.377C75.9871 43.377 75.5714 42.9587 75.5714 42.4426C75.5714 41.9266 75.9871 41.5082 76.5 41.5082C77.0128 41.5082 77.4285 41.9266 77.4285 42.4426C77.4285 42.9587 77.0128 43.377 76.5 43.377ZM87.6428 56.5246C87.13 56.5246 86.7142 56.1062 86.7142 55.5902C86.7142 55.0741 87.13 54.6557 87.6428 54.6557C88.1557 54.6557 88.5714 55.0741 88.5714 55.5902C88.5714 56.1062 88.1557 56.5246 87.6428 56.5246ZM74.6169 35.4404L75.8215 33.8439C75.9373 33.9312 76.0358 34.0307 76.1299 34.1459C76.2147 34.2497 76.5954 34.8224 76.7146 34.9611C77.1053 35.4158 77.6491 35.6619 78.6856 35.6619C79.4331 35.6619 79.9191 35.458 80.4917 35.0011C80.552 34.9529 80.6139 34.9019 80.6921 34.8359C80.7943 34.7493 80.8582 34.6952 80.9007 34.6595C81.0918 34.4992 81.2311 34.3907 81.3838 34.2901C82.0732 33.8358 82.805 33.7607 83.5881 34.169L82.6635 35.9424C82.5618 35.8894 82.5971 35.8858 82.4844 35.9601C82.3664 36.0378 81.7351 36.5676 81.7391 36.5644C80.8386 37.2829 79.9355 37.6619 78.6856 37.6619C77.07 37.6619 75.971 37.1644 75.1977 36.2646C74.9762 36.0069 74.5768 35.406 74.5808 35.4109C74.5803 35.4103 74.5903 35.4204 74.6169 35.4404ZM23.4001 32.5997L24.6047 31.0032C25.2535 31.4927 26.0579 31.9437 27.1778 32.3213C28.8624 32.8894 30.8395 33.1133 33.1354 32.8673C34.7076 32.6988 35.8086 32.3278 38.127 31.3185L38.1839 31.2938C42.4314 29.4446 46.2833 29.3227 50.4392 30.2582L50 32.2094C46.3402 31.3856 42.8762 31.4323 38.9822 33.1276L38.9253 33.1523C36.4305 34.2384 35.1804 34.6596 33.3485 34.8559C30.7627 35.133 28.495 34.8762 26.5387 34.2165C25.1972 33.7641 24.2091 33.2101 23.4001 32.5997ZM31 6C31 5.44772 31.4475 5 31.9985 5H43.0015C43.5529 5 44 5.44386 44 6C44 6.55228 43.5525 7 43.0015 7H31.9985C31.447 7 31 6.55614 31 6ZM74.0435 14.0943C74.0435 13.5758 74.4689 13.1555 74.9748 13.1555H83.0108C83.5251 13.1555 83.942 13.5722 83.942 14.0943C83.942 14.6127 83.5167 15.033 83.0108 15.033H74.9748C74.4605 15.033 74.0435 14.6163 74.0435 14.0943Z" fill="#1692D0"/>
<path d="M40 25V7H42V27H33V7H35V25H40ZM42 25.532C50.6001 27.602 57 35.4618 57 44.6823C57 55.4516 48.328 64 37.5585 64C26.7889 64 18 55.4516 18 44.6823C18 35.4618 24.3999 27.602 33 25.532V7H35V25H40V7H42V25.532ZM37.5589 62C47.252 62 55 54.3202 55 44.6834C55 34.9776 47.1242 27 37.5 27C27.8758 27 20 34.9776 20 44.6834C20 54.294 27.8391 62 37.5589 62Z" fill="#39393A"/>
<path fill-rule="evenodd" clip-rule="evenodd" d="M81.9829 15.5336C81.9829 15.9509 81.9829 16.518 81.9829 18.4845C81.9829 21.3807 81.9829 21.3807 81.9829 24.758C81.9829 29.3117 81.9829 29.3117 81.9829 32.686V32.8994L82.07 33.0942L94.1301 60.0606C95.0264 61.9171 94.2504 63.161 92.2248 63.161H66.1496C64.1234 63.161 63.3219 61.8974 64.1845 60.0615L75.9186 33.0848L76.0016 32.894V32.686V16.017H81.9829V15.5336Z" stroke="#39393A" stroke-width="2"/>
</svg>
