<svg id="icon-spray" viewBox="0 0 48 48" fill="none" xmlns="http://www.w3.org/2000/svg">
<path d="M14.4705 37.533L11.4105 36.5895L10.467 33.5288C10.4199 33.3753 10.3248 33.241 10.1958 33.1457C10.0667 33.0503 9.91047 32.9988 9.74999 32.9988C9.5895 32.9988 9.43324 33.0503 9.30418 33.1457C9.17512 33.241 9.08007 33.3753 9.03299 33.5288L8.08949 36.5895L5.02949 37.533C4.87606 37.5801 4.74178 37.6751 4.64639 37.8042C4.55099 37.9333 4.49951 38.0895 4.49951 38.25C4.49951 38.4105 4.55099 38.5667 4.64639 38.6958C4.74178 38.8249 4.87606 38.9199 5.02949 38.967L8.08949 39.9105L9.03299 42.975C9.08007 43.1284 9.17512 43.2627 9.30418 43.3581C9.43324 43.4535 9.5895 43.505 9.74999 43.505C9.91047 43.505 10.0667 43.4535 10.1958 43.3581C10.3248 43.2627 10.4199 43.1284 10.467 42.975L11.4105 39.9143L14.4705 38.9708C14.6239 38.9237 14.7582 38.8286 14.8536 38.6996C14.949 38.5705 15.0005 38.4142 15.0005 38.2538C15.0005 38.0933 14.949 37.937 14.8536 37.8079C14.7582 37.6789 14.6239 37.5838 14.4705 37.5368V37.533ZM10.59 38.5935C10.4731 38.6294 10.3667 38.6933 10.2802 38.7797C10.1937 38.8661 10.1296 38.9724 10.0935 39.0893L9.74999 40.2045L9.40649 39.0893C9.37042 38.9724 9.30632 38.8661 9.21978 38.7797C9.13324 38.6933 9.02689 38.6294 8.90999 38.5935L7.79549 38.25L8.90999 37.9065C9.02689 37.8706 9.13324 37.8067 9.21978 37.7203C9.30632 37.6339 9.37042 37.5276 9.40649 37.4108L9.74999 36.2955L10.0935 37.4108C10.1296 37.5276 10.1937 37.6339 10.2802 37.7203C10.3667 37.8067 10.4731 37.8706 10.59 37.9065L11.7045 38.25L10.59 38.5935Z" fill="#2E9DDC"/>
<path d="M42.9705 37.533L39.9105 36.5895L38.967 33.5288C38.9199 33.3753 38.8249 33.241 38.6958 33.1457C38.5667 33.0503 38.4105 32.9988 38.25 32.9988C38.0895 32.9988 37.9332 33.0503 37.8042 33.1457C37.6751 33.241 37.5801 33.3753 37.533 33.5288L36.5895 36.5895L33.5295 37.533C33.3761 37.5801 33.2418 37.6751 33.1464 37.8042C33.051 37.9333 32.9995 38.0895 32.9995 38.25C32.9995 38.4105 33.051 38.5667 33.1464 38.6958C33.2418 38.8249 33.3761 38.9199 33.5295 38.967L36.5895 39.9105L37.533 42.975C37.5801 43.1284 37.6751 43.2627 37.8042 43.3581C37.9332 43.4535 38.0895 43.505 38.25 43.505C38.4105 43.505 38.5667 43.4535 38.6958 43.3581C38.8249 43.2627 38.9199 43.1284 38.967 42.975L39.9105 39.9143L42.9705 38.9708C43.1239 38.9237 43.2582 38.8286 43.3536 38.6996C43.449 38.5705 43.5005 38.4142 43.5005 38.2538C43.5005 38.0933 43.449 37.937 43.3536 37.8079C43.2582 37.6789 43.1239 37.5838 42.9705 37.5368V37.533ZM39.09 38.5935C38.9731 38.6294 38.8667 38.6933 38.7802 38.7797C38.6937 38.8661 38.6296 38.9724 38.5935 39.0893L38.25 40.2045L37.9065 39.0893C37.8704 38.9724 37.8063 38.8661 37.7198 38.7797C37.6332 38.6933 37.5269 38.6294 37.41 38.5935L36.2955 38.25L37.41 37.9065C37.5269 37.8706 37.6332 37.8067 37.7198 37.7203C37.8063 37.6339 37.8704 37.5276 37.9065 37.4108L38.25 36.2955L38.5935 37.4108C38.6296 37.5276 38.6937 37.6339 38.7802 37.7203C38.8667 37.8067 38.9731 37.8706 39.09 37.9065L40.2045 38.25L39.09 38.5935Z" fill="#2E9DDC"/>
<path d="M19.2795 10.467L22.3395 11.4105L23.283 14.475C23.3301 14.6284 23.4251 14.7627 23.5542 14.8581C23.6832 14.9535 23.8395 15.005 24 15.005C24.1605 15.005 24.3167 14.9535 24.4458 14.8581C24.5749 14.7627 24.6699 14.6284 24.717 14.475L25.6605 11.4143L28.7205 10.4708C28.8739 10.4237 29.0082 10.3286 29.1036 10.1996C29.199 10.0705 29.2505 9.91424 29.2505 9.75375C29.2505 9.59327 29.199 9.43701 29.1036 9.30795C29.0082 9.17889 28.8739 9.08384 28.7205 9.03675L25.6605 8.09325L24.717 5.02875C24.6699 4.87533 24.5749 4.74105 24.4458 4.64565C24.3167 4.55026 24.1605 4.49878 24 4.49878C23.8395 4.49878 23.6832 4.55026 23.5542 4.64565C23.4251 4.74105 23.3301 4.87533 23.283 5.02875L22.3395 8.0895L19.2795 9.033C19.1261 9.08009 18.9918 9.17514 18.8964 9.3042C18.801 9.43326 18.7495 9.58952 18.7495 9.75C18.7495 9.91049 18.801 10.0667 18.8964 10.1958C18.9918 10.3249 19.1261 10.4199 19.2795 10.467ZM23.16 9.4065C23.2769 9.37061 23.3832 9.30667 23.4698 9.22027C23.5563 9.13386 23.6204 9.0276 23.6565 8.91075L24 7.7955L24.3435 8.91075C24.3796 9.0276 24.4437 9.13386 24.5302 9.22027C24.6167 9.30667 24.7231 9.37061 24.84 9.4065L25.9545 9.75L24.84 10.0935C24.7231 10.1294 24.6167 10.1933 24.5302 10.2797C24.4437 10.3661 24.3796 10.4724 24.3435 10.5893L24 11.7045L23.6565 10.5893C23.6204 10.4724 23.5563 10.3661 23.4698 10.2797C23.3832 10.1933 23.2769 10.1294 23.16 10.0935L22.0455 9.75L23.16 9.4065Z" fill="#2E9DDC"/>
<path d="M27.75 30.135V29.25C27.7476 28.7861 27.6023 28.3341 27.3339 27.9557C27.0655 27.5772 26.6871 27.2907 26.25 27.135V23.25C26.25 23.0511 26.171 22.8603 26.0303 22.7197C25.8897 22.579 25.6989 22.5 25.5 22.5H22.5C22.3011 22.5 22.1103 22.579 21.9697 22.7197C21.829 22.8603 21.75 23.0511 21.75 23.25V27.135C21.3129 27.2907 20.9345 27.5772 20.6661 27.9557C20.3977 28.3341 20.2524 28.7861 20.25 29.25V30.135C19.8129 30.2907 19.4345 30.5772 19.1661 30.9557C18.8977 31.3341 18.7524 31.7861 18.75 32.25V44.25C18.7518 44.8462 18.9894 45.4175 19.411 45.839C19.8325 46.2606 20.4038 46.4982 21 46.5H27C27.5962 46.4982 28.1675 46.2606 28.589 45.839C29.0106 45.4175 29.2482 44.8462 29.25 44.25V32.25C29.2476 31.7861 29.1023 31.3341 28.8339 30.9557C28.5655 30.5772 28.1871 30.2907 27.75 30.135ZM23.25 24H24.75V27H23.25V24ZM21.75 29.25C21.75 29.0511 21.829 28.8603 21.9697 28.7197C22.1103 28.579 22.3011 28.5 22.5 28.5H25.5C25.6989 28.5 25.8897 28.579 26.0303 28.7197C26.171 28.8603 26.25 29.0511 26.25 29.25V30H21.75V29.25ZM27.75 44.25C27.75 44.4489 27.671 44.6397 27.5303 44.7803C27.3897 44.921 27.1989 45 27 45H21C20.8011 45 20.6103 44.921 20.4697 44.7803C20.329 44.6397 20.25 44.4489 20.25 44.25V43.5H27.75V44.25ZM27.75 42H20.25V34.5H27.75V42ZM27.75 33H20.25V32.25C20.25 32.0511 20.329 31.8603 20.4697 31.7197C20.6103 31.579 20.8011 31.5 21 31.5H27C27.1989 31.5 27.3897 31.579 27.5303 31.7197C27.671 31.8603 27.75 32.0511 27.75 32.25V33Z" fill="#1C1B17"/>
<path d="M21.75 39H23.25V40.5H24.75V39H26.25V37.5H24.75V36H23.25V37.5H21.75V39Z" fill="#2E9DDC"/>
<path d="M20.3326 18.9675L18 14.0775V11.25C17.9993 11.1326 17.9711 11.017 17.9175 10.9125L15.75 6.57V2.25C15.75 2.05109 15.671 1.86032 15.5304 1.71967C15.3897 1.57902 15.199 1.5 15 1.5H4.50005C4.30114 1.5 4.11037 1.57902 3.96972 1.71967C3.82907 1.86032 3.75005 2.05109 3.75005 2.25V6.615L1.54505 12.4875C1.51497 12.5717 1.49974 12.6606 1.50005 12.75V24C1.49763 24.3606 1.5825 24.7165 1.74743 25.0372C1.91236 25.3579 2.15245 25.6339 2.44719 25.8417C2.74193 26.0495 3.08258 26.1829 3.44005 26.2305C3.79753 26.2781 4.16121 26.2384 4.50005 26.115V27C4.49763 27.3606 4.5825 27.7165 4.74743 28.0372C4.91236 28.3579 5.15245 28.6339 5.44719 28.8417C5.74193 29.0495 6.08258 29.1829 6.44005 29.2305C6.79753 29.2781 7.16121 29.2384 7.50005 29.115V29.25C7.50005 29.8467 7.7371 30.419 8.15906 30.841C8.58102 31.2629 9.15331 31.5 9.75005 31.5C10.3468 31.5 10.9191 31.2629 11.341 30.841C11.763 30.419 12.0001 29.8467 12.0001 29.25V29.115C12.3389 29.2384 12.7026 29.2781 13.06 29.2305C13.4175 29.1829 13.7582 29.0495 14.0529 28.8417C14.3477 28.6339 14.5877 28.3579 14.7527 28.0372C14.9176 27.7165 15.0025 27.3606 15 27V18.3375L16.2151 21.0525C16.2301 21.075 16.2375 21.0975 16.2526 21.12C16.5517 21.6364 17.0433 22.0131 17.6196 22.1678C18.196 22.3224 18.8101 22.2423 19.3276 21.945L19.425 21.885C19.9147 21.6012 20.2798 21.1437 20.4479 20.6033C20.616 20.0628 20.5748 19.479 20.3326 18.9675ZM18.675 20.5875L18.5776 20.6475C18.4093 20.7442 18.2103 20.7725 18.0218 20.7264C17.8332 20.6803 17.6697 20.5634 17.5651 20.4L15.6826 16.1925C15.6234 16.0609 15.5276 15.9492 15.4065 15.8707C15.2854 15.7922 15.1443 15.7503 15 15.75H14.25C13.4544 15.75 12.6913 15.4339 12.1287 14.8713C11.5661 14.3087 11.2501 13.5456 11.2501 12.75H9.75005C9.75217 13.8124 10.1297 14.8398 10.8158 15.6509C11.502 16.4619 12.4527 17.0044 13.5 17.1825V27C13.5 27.1989 13.421 27.3897 13.2804 27.5303C13.1397 27.671 12.949 27.75 12.7501 27.75C12.5511 27.75 12.3604 27.671 12.2197 27.5303C12.0791 27.3897 12.0001 27.1989 12.0001 27V18.75H10.5001V29.25C10.5001 29.4489 10.421 29.6397 10.2804 29.7803C10.1397 29.921 9.94896 30 9.75005 30C9.55114 30 9.36037 29.921 9.21972 29.7803C9.07907 29.6397 9.00005 29.4489 9.00005 29.25V18.75H7.50005V27C7.50005 27.1989 7.42103 27.3897 7.28038 27.5303C7.13973 27.671 6.94896 27.75 6.75005 27.75C6.55114 27.75 6.36037 27.671 6.21972 27.5303C6.07907 27.3897 6.00005 27.1989 6.00005 27V18.75H4.50005V24C4.50005 24.1989 4.42103 24.3897 4.28038 24.5303C4.13973 24.671 3.94896 24.75 3.75005 24.75C3.55114 24.75 3.36037 24.671 3.21972 24.5303C3.07907 24.3897 3.00005 24.1989 3.00005 24V12.885L5.20505 7.0125C5.23513 6.92827 5.25036 6.83945 5.25005 6.75V3H14.25V6.75C14.2508 6.86741 14.279 6.98301 14.3326 7.0875L16.5 11.43V14.25C16.4981 14.362 16.5239 14.4728 16.5751 14.5725L18.975 19.6125C19.0555 19.7832 19.0693 19.9777 19.0138 20.1581C18.9583 20.3384 18.8375 20.4915 18.675 20.5875Z" fill="#1C1B17"/>
<path d="M46.4551 12.4875L44.2501 6.615V2.25C44.2501 2.05109 44.1711 1.86032 44.0304 1.71967C43.8898 1.57902 43.699 1.5 43.5001 1.5H33.0001C32.8012 1.5 32.6104 1.57902 32.4698 1.71967C32.3291 1.86032 32.2501 2.05109 32.2501 2.25V6.57L30.0826 10.9125C30.029 11.017 30.0008 11.1326 30.0001 11.25V14.0775L27.7201 18.87C27.4647 19.4087 27.4209 20.0236 27.5972 20.5931C27.7736 21.1625 28.1574 21.645 28.6726 21.945C29.1903 22.2409 29.804 22.3202 30.38 22.1657C30.9559 22.0112 31.4475 21.6353 31.7476 21.12C31.7626 21.0975 31.7701 21.075 31.7851 21.0525L33.0001 18.3375V27C32.9977 27.3606 33.0825 27.7165 33.2475 28.0372C33.4124 28.3579 33.6525 28.6339 33.9472 28.8417C34.242 29.0495 34.5826 29.1829 34.9401 29.2305C35.2976 29.2781 35.6612 29.2384 36.0001 29.115V29.25C36.0001 29.8467 36.2371 30.419 36.6591 30.841C37.0811 31.2629 37.6534 31.5 38.2501 31.5C38.8468 31.5 39.4191 31.2629 39.8411 30.841C40.263 30.419 40.5001 29.8467 40.5001 29.25V29.115C40.8389 29.2384 41.2026 29.2781 41.5601 29.2305C41.9176 29.1829 42.2582 29.0495 42.553 28.8417C42.8477 28.6339 43.0878 28.3579 43.2527 28.0372C43.4176 27.7165 43.5025 27.3606 43.5001 27V26.115C43.8389 26.2384 44.2026 26.2781 44.5601 26.2305C44.9176 26.1829 45.2582 26.0495 45.553 25.8417C45.8477 25.6339 46.0878 25.3579 46.2527 25.0372C46.4176 24.7165 46.5025 24.3606 46.5001 24V12.75C46.5004 12.6606 46.4852 12.5717 46.4551 12.4875ZM45.0001 24C45.0001 24.1989 44.9211 24.3897 44.7804 24.5303C44.6398 24.671 44.449 24.75 44.2501 24.75C44.0512 24.75 43.8604 24.671 43.7198 24.5303C43.5791 24.3897 43.5001 24.1989 43.5001 24V18.75H42.0001V27C42.0001 27.1989 41.9211 27.3897 41.7804 27.5303C41.6398 27.671 41.449 27.75 41.2501 27.75C41.0512 27.75 40.8604 27.671 40.7198 27.5303C40.5791 27.3897 40.5001 27.1989 40.5001 27V18.75H39.0001V29.25C39.0001 29.4489 38.9211 29.6397 38.7804 29.7803C38.6398 29.921 38.449 30 38.2501 30C38.0512 30 37.8604 29.921 37.7198 29.7803C37.5791 29.6397 37.5001 29.4489 37.5001 29.25V18.75H36.0001V27C36.0001 27.1989 35.9211 27.3897 35.7804 27.5303C35.6398 27.671 35.449 27.75 35.2501 27.75C35.0512 27.75 34.8604 27.671 34.7198 27.5303C34.5791 27.3897 34.5001 27.1989 34.5001 27V17.1825C35.5474 17.0044 36.4981 16.4619 37.1843 15.6509C37.8705 14.8398 38.248 13.8124 38.2501 12.75H36.7501C36.7501 13.5456 36.434 14.3087 35.8714 14.8713C35.3088 15.4339 34.5457 15.75 33.7501 15.75H33.0001C32.8558 15.7503 32.7147 15.7922 32.5936 15.8707C32.4726 15.9492 32.3767 16.0609 32.3176 16.1925L30.4351 20.4C30.3301 20.5632 30.166 20.6794 29.9772 20.7241C29.7884 20.7689 29.5896 20.7387 29.4226 20.64C29.2336 20.5307 29.0925 20.3545 29.0272 20.1461C28.962 19.9378 28.9773 19.7126 29.0701 19.515L31.4251 14.5725C31.4763 14.4728 31.502 14.362 31.5001 14.25V11.43L33.6676 7.0875C33.7211 6.98301 33.7494 6.86741 33.7501 6.75V3H42.7501V6.75C42.7498 6.83945 42.765 6.92827 42.7951 7.0125L45.0001 12.885V24Z" fill="#1C1B17"/>
</svg>
