<svg id="icon-pdf" viewBox="0 0 38 40" fill="none" xmlns="http://www.w3.org/2000/svg">
<path d="M6.5 0.5H29.7929L37.5 8.20711V39.5H6.5V0.5Z" stroke="#1C1B17"/>
<rect x="4.5" y="16.5" width="26" height="15" fill="#FAFAFA" stroke="#1C1B17"/>
<path d="M9.6456 27H10.8313V24.7884H12.0842C13.5959 24.7884 14.4077 23.8807 14.4077 22.6214C14.4077 21.3718 13.6055 20.4545 12.1001 20.4545H9.6456V27ZM10.8313 23.8136V21.4453H11.918C12.8065 21.4453 13.1996 21.9247 13.1996 22.6214C13.1996 23.3182 12.8065 23.8136 11.9244 23.8136H10.8313ZM17.6556 27C19.6499 27 20.8325 25.7663 20.8325 23.7209C20.8325 21.6818 19.6499 20.4545 17.7004 20.4545H15.4376V27H17.6556ZM16.6233 25.9741V21.4805H17.6333C18.9628 21.4805 19.6563 22.2219 19.6563 23.7209C19.6563 25.2262 18.9628 25.9741 17.5981 25.9741H16.6233ZM21.9591 27H23.1448V24.2195H25.8646V23.2255H23.1448V21.4485H26.1523V20.4545H21.9591V27Z" fill="#1C1B17"/>
</svg>
