<svg id="icon-c-hands" viewBox="0 0 48 48" fill="none" xmlns="http://www.w3.org/2000/svg">
<g clip-path="url(#clip0)">
<path d="M29.8074 26.8219L29.7756 26.9261C29.7803 26.9133 29.7857 26.8991 29.7918 26.8836C29.7972 26.8628 29.8024 26.8423 29.8074 26.8219ZM40.0295 33.0627L39.9738 32.9598C39.9823 32.9779 39.991 32.9964 40.0001 33.0152L40.0295 33.0627ZM27.9629 30.5232C26.6062 32.3816 25.0211 32.6844 23.7025 31.9374C22.494 31.2528 21.9298 29.1287 23.1447 27.9458C23.158 27.9329 23.1873 27.896 23.2254 27.8385C23.4153 27.5515 23.6507 27.0184 23.8942 26.3339C24.0544 25.8838 24.2084 25.3976 24.3498 24.9108C24.4347 24.6187 24.4961 24.3929 24.5193 24.3061C24.5309 24.2529 24.5523 24.1583 24.5831 24.0281C24.6339 23.8139 24.6931 23.5759 24.7604 23.3199C24.9532 22.5869 25.173 21.8531 25.4176 21.1631C25.7505 20.2237 26.104 19.4363 26.4894 18.8363C26.7054 18.5002 26.8486 18.0096 26.911 17.4037C26.9783 16.7506 26.9479 16.03 26.855 15.332C26.8291 15.1374 26.8037 14.9823 26.7842 14.8778L25.0809 10.7286L25.5013 10.2524C25.9719 9.71944 26.8716 8.97135 28.2222 8.23827C28.4155 8.13334 28.6141 8.03148 28.818 7.93296C29.4373 7.63366 30.1579 7.43078 30.9615 7.30525C32.0447 7.13604 33.1752 7.11767 34.2166 7.18622C34.4238 7.19986 34.5776 7.21384 34.6672 7.2239L35.2486 7.28916L35.4864 7.82371C35.5196 7.89849 35.5872 8.04684 35.6877 8.2621C35.8565 8.62392 36.0556 9.03933 36.2836 9.50164C36.936 10.8251 37.6876 12.2564 38.527 13.7418C39.0479 14.6636 39.671 15.6832 40.5996 17.1523C40.7182 17.3397 40.7182 17.3397 40.837 17.5271C40.9123 17.646 41.5671 18.6772 41.7559 18.9755C42.1027 19.5235 42.3781 19.9628 42.6306 20.3718C42.7587 20.5794 42.8896 20.7864 43.0236 20.9934C43.6054 21.8926 44.205 22.7361 44.9681 23.7513C45.1048 23.9332 45.2425 24.115 45.4215 24.3504C45.6411 24.639 45.757 24.7914 45.8525 24.9172C46.1903 25.3625 46.4207 25.6721 46.6297 25.9645C47.914 27.7609 48.3187 28.8609 47.5725 29.9752C47.1805 30.5604 46.6749 30.935 46.0833 31.0605C45.6264 31.1575 45.1923 31.1051 44.7783 30.9415C44.9784 31.4203 45.1362 31.8643 45.2522 32.2913C45.6746 33.8457 45.5517 35.0961 44.3996 35.7362C43.1045 36.4558 41.9404 35.8127 40.9375 34.5198C40.9489 34.5746 40.96 34.629 40.9709 34.6832C41.5146 37.3933 41.4356 39.0968 39.9443 39.6344C38.6321 40.1075 37.5382 39.7058 36.8385 38.7901C36.5687 38.437 36.4115 38.091 36.3396 37.8495L35.6493 35.7548C35.6565 36.1712 35.6603 36.4381 35.6603 36.5338C35.6614 37.0505 35.6368 37.3903 35.5285 37.8072C35.2359 38.9333 34.4283 39.7045 33.1252 39.7045C32.0245 39.7045 31.223 39.1135 30.7359 38.2134C30.4727 37.7269 30.3463 37.2578 30.2923 36.8335C30.2872 36.7498 30.2772 36.5916 30.2627 36.3696C30.2385 35.9989 30.2104 35.5857 30.1787 35.1406C30.0883 33.8695 29.9873 32.5986 29.8786 31.414C29.7439 29.9472 29.6071 28.7252 29.4745 27.8362C29.1621 28.619 28.6729 29.5506 27.9629 30.5232ZM31.2767 9.32333C30.6574 9.42008 30.1246 9.5701 29.7067 9.77203C29.5319 9.85652 29.3618 9.94373 29.1966 10.0334C28.5347 10.3927 27.9771 10.775 27.5219 11.1535C27.507 11.1658 28.7113 14.1937 28.7113 14.1937L28.7655 14.3692C28.7959 14.5121 28.8382 14.7508 28.8797 15.0626C28.992 15.9064 29.0288 16.7785 28.9428 17.613C28.8503 18.5113 28.6206 19.2979 28.2079 19.9404C27.9227 20.3842 27.6278 21.0413 27.3428 21.8455C27.1192 22.4761 26.9152 23.1573 26.7358 23.8393C26.6282 24.2485 26.5534 24.5646 26.5062 24.7781C26.4691 24.9221 26.4023 25.1674 26.3112 25.4808C26.1594 26.0034 25.9937 26.5265 25.8186 27.0186C25.5236 27.8477 25.233 28.5058 24.9289 28.9655C24.816 29.1361 24.6986 29.2837 24.5696 29.4093C24.4372 29.5382 24.5836 30.089 24.7092 30.1602C25.1429 30.4059 25.5807 30.3222 26.3132 29.3188C26.8261 28.6162 27.2233 27.893 27.5176 27.1927C27.6902 26.7818 27.7879 26.4795 27.8249 26.3303L27.8568 26.2261C27.9243 26.0411 28.0328 25.7891 28.181 25.5258C28.6773 24.6441 29.2851 24.111 30.2389 24.5982C30.7591 24.8638 31.038 25.3852 31.2413 26.1871C31.4726 27.0998 31.6937 28.8425 31.9126 31.2273C32.0227 32.4274 32.1247 33.7116 32.2161 34.9956C32.2481 35.4448 32.2765 35.862 32.3009 36.2365C32.3156 36.4616 32.3258 36.6228 32.3239 36.6362C32.3409 36.7631 32.4076 37.0109 32.5323 37.2413C32.6918 37.536 32.8626 37.6619 33.1252 37.6619C33.3995 37.6619 33.4745 37.5903 33.5516 37.2936C33.6039 37.0921 33.6185 36.8908 33.6178 36.5761C33.6177 36.3503 33.6 35.3462 33.5707 33.8242C33.5688 33.729 33.5688 33.729 33.567 33.6338C33.5559 33.0586 33.5439 32.4531 33.532 31.8548C33.5193 31.219 33.5193 31.219 33.5161 31.0617C33.4704 28.7721 35.3801 28.4112 36.1046 30.6101L38.2879 37.2369C38.3034 37.2887 38.3643 37.4228 38.4614 37.5499C38.632 37.7731 38.7978 37.8494 39.1376 37.7504C39.1718 37.6484 39.1986 37.4857 39.2085 37.2725C39.2335 36.7338 39.1481 35.9816 38.9683 35.085C38.8668 34.5791 38.7382 34.0412 38.5888 33.485C38.4488 32.9641 38.2986 32.4564 38.1486 31.9833C38.059 31.7009 37.9899 31.4945 37.9482 31.3745L37.324 29.52C36.5777 27.3027 38.3455 26.4532 39.5832 28.4556L41.767 31.9888L41.8227 32.0917C41.8491 32.1481 41.9068 32.2616 41.9909 32.4123C42.1325 32.6658 42.292 32.9189 42.4627 33.1505C42.9462 33.8067 43.2921 34.0149 43.4076 33.9507C43.3992 33.9554 43.4043 33.9461 43.4166 33.8211C43.4395 33.5875 43.3941 33.2427 43.2811 32.8269C43.1906 32.4938 43.0617 32.1312 42.9045 31.7548C42.7838 31.4659 42.6539 31.1864 42.5242 30.9284C42.4474 30.7757 42.3892 30.6666 42.3501 30.5963L40.2188 26.6201C39.1024 24.5373 40.742 23.4415 42.2312 25.2895L44.7128 28.3694C44.7773 28.4531 44.9171 28.6072 45.0961 28.7583C45.3643 28.9848 45.5833 29.0786 45.6592 29.0625C45.697 29.0545 45.7641 29.0048 45.8753 28.8386C45.9375 28.7459 45.7574 28.2564 44.9681 27.1524C44.7728 26.8792 44.5522 26.5828 44.2252 26.1517C44.1307 26.0272 44.0159 25.8763 43.7955 25.5866C43.6145 25.3485 43.4747 25.164 43.3354 24.9786C42.5459 23.9283 41.9203 23.0482 41.3087 22.103C41.167 21.884 41.0283 21.6647 40.8924 21.4446C40.6446 21.0431 40.373 20.6098 40.0299 20.0677C39.8422 19.771 39.188 18.7409 39.1118 18.6208C38.9925 18.4324 38.9925 18.4324 38.8731 18.2436C37.9278 16.7482 37.2902 15.705 36.7487 14.7467C35.8894 13.2261 35.1203 11.7612 34.4516 10.4048C34.2349 9.96531 34.043 9.56604 33.8772 9.21225C33.03 9.16798 32.1197 9.19165 31.2767 9.32333Z" fill="#1692D0"/>
<path d="M23.952 26.1686C23.8169 25.7758 23.6869 25.3604 23.566 24.9446C23.4811 24.6525 23.4197 24.4267 23.3874 24.3015C23.385 24.2868 23.3636 24.1922 23.3328 24.062C23.282 23.8477 23.2228 23.6097 23.1555 23.3537C22.9627 22.6207 22.7429 21.8869 22.4983 21.1969C22.1654 20.2575 21.8119 19.4701 21.4264 18.8701C21.2105 18.534 21.0673 18.0434 21.0049 17.4375C20.9376 16.7845 20.968 16.0639 21.0609 15.3659C21.0868 15.1712 21.1122 15.0162 21.1317 14.9116L22.835 10.7624L22.4146 10.2862C21.944 9.75325 21.0443 9.00517 19.6937 8.27208C19.5004 8.16715 19.3018 8.06529 19.0979 7.96677C18.4786 7.66747 17.758 7.4646 16.9544 7.33906C15.8712 7.16985 14.7407 7.15148 13.6993 7.22003C13.4921 7.23368 13.3383 7.24765 13.2487 7.25771L12.6673 7.32297L12.4295 7.85752C12.3962 7.9323 12.3287 8.08066 12.2282 8.29591C12.0593 8.65773 11.8602 9.07314 11.6323 9.53545C10.9798 10.8589 10.2283 12.2902 9.38893 13.7756C8.86803 14.6975 8.24492 15.717 7.31627 17.1861C7.19773 17.3735 7.19773 17.3735 7.07893 17.561C7.00357 17.6798 6.34876 18.711 6.15998 19.0093C5.81318 19.5574 5.53774 19.9966 5.28532 20.4056C5.15718 20.6132 5.02625 20.8202 4.89231 21.0272C4.31049 21.9264 3.71092 22.7699 2.94776 23.7851C2.81105 23.967 2.67338 24.1488 2.49436 24.3842C2.27476 24.6728 2.15886 24.8252 2.06338 24.951C1.7256 25.3963 1.49519 25.7059 1.28613 25.9983C0.00185005 27.7948 -0.402827 28.8947 0.343408 30.009C0.735346 30.5942 1.24103 30.9688 1.83262 31.0943C2.28952 31.1913 2.72357 31.1389 3.12665 31.0013C2.93749 31.4542 2.77973 31.8981 2.66371 32.3251C2.24131 33.8795 2.36421 35.1299 3.51627 35.77C4.81143 36.4896 5.97545 35.8465 6.97839 34.5537C6.96698 34.6084 6.95584 34.6628 6.94497 34.717C6.40125 37.4271 6.48025 39.1306 7.97154 39.6683C9.2838 40.1413 10.3776 39.7396 11.0774 38.8239C11.3472 38.4708 11.5044 38.1248 11.5847 37.8566L12.2666 35.7877C12.2594 36.2046 12.2556 36.4719 12.2556 36.6052C12.2545 37.0843 12.2791 37.4241 12.3874 37.841C12.6799 38.9671 13.4876 39.7383 14.7907 39.7383C15.8914 39.7383 16.6929 39.1473 17.1799 38.2472C17.4432 37.7607 17.5696 37.2916 17.6165 36.9406C17.6287 36.7836 17.6387 36.6254 17.6532 36.4034C17.6774 36.0327 17.7055 35.6195 17.7372 35.1744C17.8276 33.9033 17.9286 32.6324 18.0373 31.4478C18.1719 29.981 18.3088 28.759 18.4413 27.87C18.7538 28.6528 19.243 29.5844 19.953 30.557C21.2359 32.3144 22.7232 32.6807 23.9962 32.0836C23.897 32.0404 23.799 31.9913 23.7025 31.9366C23.1312 31.613 22.7039 30.9676 22.5405 30.2521C22.2797 30.1428 21.9804 29.87 21.6027 29.3526C21.0898 28.65 20.6926 27.9268 20.3983 27.2265C20.2257 26.8156 20.1279 26.5133 20.091 26.3641L20.0591 26.2599C19.9916 26.0749 19.883 25.8229 19.7349 25.5596C19.2386 24.6779 18.6308 24.1448 17.677 24.632C17.1568 24.8976 16.8779 25.419 16.6746 26.2209C16.4432 27.1336 16.2222 28.8763 16.0033 31.2611C15.8931 32.4612 15.7911 33.7454 15.6998 35.0294C15.6678 35.4786 15.6394 35.8958 15.615 36.2703C15.6003 36.4955 15.5901 36.6566 15.5849 36.7432C15.575 36.7969 15.5082 37.0447 15.3835 37.2751C15.224 37.5698 15.0533 37.6957 14.7907 37.6957C14.5164 37.6957 14.4414 37.6241 14.3643 37.3274C14.312 37.126 14.2974 36.9246 14.2982 36.5676C14.2982 36.3841 14.3159 35.3801 14.3452 33.858C14.347 33.7628 14.347 33.7628 14.3489 33.6676C14.36 33.0924 14.3719 32.4869 14.3839 31.8886C14.3966 31.2529 14.3966 31.2529 14.3998 31.0958C14.4455 28.8059 12.5358 28.445 11.8113 30.6439L9.63638 37.244C9.61246 37.3226 9.55155 37.4566 9.45446 37.5837C9.28388 37.8069 9.11805 37.8832 8.77831 37.7842C8.74407 37.6822 8.71725 37.5195 8.70737 37.3063C8.68238 36.7676 8.76774 36.0154 8.94761 35.1188C9.0491 34.613 9.17771 34.075 9.32713 33.5188C9.46705 32.998 9.61724 32.4902 9.76733 32.0171C9.85691 31.7347 9.92596 31.5283 9.9641 31.4189L10.5919 29.5538C11.3381 27.3365 9.57037 26.487 8.33272 28.4894L6.14893 32.0226L6.09321 32.1256C6.06675 32.1819 6.00911 32.2954 5.92496 32.4461C5.78334 32.6996 5.62388 32.9527 5.45322 33.1843C4.96967 33.8405 4.62376 34.0487 4.50831 33.9845C4.51666 33.9892 4.51162 33.9799 4.49933 33.8549C4.47637 33.6213 4.52178 33.2765 4.63478 32.8607C4.72529 32.5277 4.85415 32.165 5.01138 31.7886C5.13206 31.4997 5.262 31.2202 5.3917 30.9622C5.46844 30.8095 5.52665 30.7005 5.5569 30.6464L7.69711 26.6539C8.81347 24.5711 7.17384 23.4753 5.68465 25.3233L3.21708 28.3854C3.13863 28.4869 2.99875 28.641 2.81982 28.7921C2.55159 29.0187 2.33263 29.1124 2.25664 29.0963C2.2189 29.0883 2.15182 29.0386 2.04053 28.8724C1.97842 28.7797 2.15852 28.2902 2.94773 27.1862C3.14306 26.913 3.36365 26.6166 3.69072 26.1855C3.78514 26.061 3.89995 25.9101 4.12034 25.6205C4.30141 25.3823 4.44113 25.1978 4.58044 25.0125C5.37 23.9621 5.9956 23.082 6.60719 22.1368C6.74891 21.9178 6.88759 21.6985 7.02344 21.4784C7.27124 21.077 7.54292 20.6437 7.88599 20.1015C8.07371 19.8048 8.72789 18.7747 8.80403 18.6546C8.92343 18.4662 8.92343 18.4662 9.0428 18.2775C9.98812 16.782 10.6257 15.7388 11.1672 14.7805C12.0264 13.2599 12.7956 11.795 13.4643 10.4387C13.681 9.99913 13.8728 9.59985 14.0387 9.24606C14.8859 9.2018 15.7962 9.22546 16.6391 9.35714C17.2585 9.45389 17.7913 9.60391 18.2092 9.80585C18.384 9.89033 18.554 9.97754 18.7193 10.0672C19.3811 10.4265 19.9388 10.8088 20.4376 11.2238L19.2045 14.2275L19.1504 14.403C19.12 14.5459 19.0777 14.7846 19.0362 15.0964C18.9239 15.9402 18.8871 16.8123 18.973 17.6468C19.0656 18.5451 19.2952 19.3317 19.708 19.9742C19.9931 20.418 20.2881 21.0751 20.5731 21.8793C20.7966 22.5099 21.0007 23.1911 21.1801 23.8731C21.2876 24.2823 21.3625 24.5984 21.4005 24.7735C21.4468 24.9559 21.5135 25.2012 21.6047 25.5147C21.7565 26.0372 21.9222 26.5603 22.0973 27.0524C22.3034 27.6318 22.5075 28.1277 22.7154 28.5307C22.8213 28.3197 22.9632 28.1219 23.1448 27.945C23.158 27.9321 23.1874 27.8952 23.2254 27.8377C23.4153 27.5507 23.6507 27.0176 23.8943 26.3331C23.9136 26.2788 23.9329 26.2239 23.952 26.1686Z" fill="#39393A"/>
</g>
<defs>
<clipPath id="clip0">
<rect width="48" height="48" fill="white"/>
</clipPath>
</defs>
</svg>
