<svg id="icon-settings" viewBox="0 0 32 32" fill="none" xmlns="http://www.w3.org/2000/svg">
<g clip-path="url(#clip0)">
<path d="M6.83826 5.56819H0.941168C0.421311 5.56819 0 5.1466 0 4.62702C0 4.10744 0.421311 3.68585 0.941168 3.68585H6.83826C7.35812 3.68585 7.77943 4.10744 7.77943 4.62702C7.77943 5.1466 7.35812 5.56819 6.83826 5.56819Z" fill="#2E9DDC"/>
<path d="M10.208 8.93774C7.83083 8.93774 5.89697 7.00388 5.89697 4.62692C5.89697 2.24947 7.83083 0.315613 10.208 0.315613C12.5852 0.315613 14.519 2.24947 14.519 4.62692C14.519 7.00395 12.5852 8.93774 10.208 8.93774ZM10.208 2.19802C8.86879 2.19802 7.77931 3.28771 7.77931 4.62692C7.77931 5.96613 8.86879 7.05533 10.208 7.05533C11.5472 7.05533 12.6367 5.96613 12.6367 4.62692C12.6367 3.28771 11.5472 2.19802 10.208 2.19802Z" fill="#2E9DDC"/>
<path d="M31.0589 5.56819H16.9922C16.4723 5.56819 16.051 5.1466 16.051 4.62702C16.051 4.10744 16.4723 3.68585 16.9922 3.68585H31.0588C31.5787 3.68585 32 4.10744 32 4.62702C32 5.1466 31.5788 5.56819 31.0589 5.56819Z" fill="#1C1B17"/>
<path d="M22.8447 20.3108C20.4675 20.3108 18.5337 18.377 18.5337 16C18.5337 13.6231 20.4675 11.6892 22.8447 11.6892C25.2219 11.6892 27.1557 13.6231 27.1557 16C27.1557 18.377 25.222 20.3108 22.8447 20.3108ZM22.8447 13.5716C21.5055 13.5716 20.416 14.6608 20.416 16C20.416 17.3392 21.5055 18.4284 22.8447 18.4284C24.1839 18.4284 25.2734 17.3392 25.2734 16C25.2734 14.6608 24.1839 13.5716 22.8447 13.5716Z" fill="#2E9DDC"/>
<path d="M16.061 16.9412H0.941168C0.421311 16.9412 0 16.5196 0 16C0 15.4804 0.421311 15.0588 0.941168 15.0588H16.061C16.5809 15.0588 17.0022 15.4804 17.0022 16C17.0022 16.5196 16.5809 16.9412 16.061 16.9412Z" fill="#1C1B17"/>
<path d="M31.059 16.9412H26.2149C25.695 16.9412 25.2737 16.5196 25.2737 16C25.2737 15.4804 25.695 15.0588 26.2149 15.0588H31.059C31.5788 15.0588 32.0001 15.4804 32.0001 16C32.0001 16.5196 31.5788 16.9412 31.059 16.9412Z" fill="#2E9DDC"/>
<path d="M9.15526 31.6843C6.77809 31.6843 4.84424 29.7505 4.84424 27.373C4.84424 24.996 6.77809 23.0622 9.15526 23.0622C11.5324 23.0622 13.4663 24.996 13.4663 27.373C13.4663 29.7505 11.5324 31.6843 9.15526 31.6843ZM9.15526 24.9446C7.81605 24.9446 6.72658 26.0338 6.72658 27.373C6.72658 28.7122 7.81605 29.8019 9.15526 29.8019C10.4945 29.8019 11.584 28.7122 11.584 27.373C11.584 26.0338 10.4945 24.9446 9.15526 24.9446Z" fill="#2E9DDC"/>
<path d="M31.0588 28.3142H15.939C15.4191 28.3142 14.9978 27.8926 14.9978 27.373C14.9978 26.8535 15.4191 26.4319 15.939 26.4319H31.0588C31.5787 26.4319 32 26.8535 32 27.373C32 27.8926 31.5787 28.3142 31.0588 28.3142Z" fill="#1C1B17"/>
<path d="M5.7853 28.3142H0.941168C0.421311 28.3142 0 27.8926 0 27.373C0 26.8534 0.421311 26.4318 0.941168 26.4318H5.7853C6.30515 26.4318 6.72646 26.8534 6.72646 27.373C6.72646 27.8926 6.30515 28.3142 5.7853 28.3142Z" fill="#2E9DDC"/>
</g>
<defs>
<clipPath id="clip0">
<rect width="32" height="32" fill="white"/>
</clipPath>
</defs>
</svg>
