<svg viewBox="0 0 176 112" fill="none" xmlns="http://www.w3.org/2000/svg" id="icon-lab">
<path d="M70.7826 45.7335L73.913 46.9297V108.882H95.8261V55.3031L98.9565 56.4993V66.7941C98.9593 66.7941 98.962 66.7941 98.9648 66.7941H156.861C158.595 66.7941 160 68.1845 160 69.9116V108.882C160 110.604 158.6 112 156.861 112H97.3913H72.3478H16V88.6033C16 86.8894 17.4029 85.5 19.1342 85.5H70.7826V45.7335ZM70.7826 35.6341V10.6685C70.7826 8.09014 72.9002 6 75.4666 6H94.2725C96.8594 6 98.9565 8.08334 98.9565 10.6685V46.2873L95.8261 45.1036V10.6685C95.8261 9.80768 95.1331 9.11765 94.2725 9.11765H75.4666C74.6205 9.11765 73.913 9.82059 73.913 10.6685V36.8177L70.7826 35.6341ZM156.861 108.882C156.87 108.882 156.87 69.9116 156.87 69.9116C156.87 69.9109 98.9648 69.9118 98.9648 69.9118C98.9557 69.9118 98.9565 108.882 98.9565 108.882H156.861ZM19.1304 108.882H70.7826V88.6177H19.1342C19.1321 88.6177 19.1304 108.882 19.1304 108.882Z" fill="#39393A"/>
<path d="M109.255 66.7941C108.939 65.2365 108.806 63.6332 108.87 62.0159L20.5309 29.6491C17.2891 28.4613 15.6222 24.8686 16.8025 21.6392C17.9851 18.4032 21.5868 16.7483 24.8135 17.9305L113.183 50.3086C118.466 43.5877 127.677 40.6861 136.167 43.7635C145.749 47.2369 151.12 57.1335 149.16 66.7941H145.955C147.974 58.4289 143.407 49.7058 135.096 46.6932C126.161 43.4542 116.281 48.0425 113.029 56.9415C111.829 60.2238 111.699 63.6342 112.46 66.7941H109.255ZM109.252 58.8339C109.452 57.8428 109.729 56.8542 110.087 55.8752C110.457 54.8617 110.9 53.8955 111.408 52.9803L23.7327 20.8565C22.1269 20.2681 20.3319 21.0971 19.7441 22.7055C19.1525 24.3243 19.992 26.1297 21.6117 26.7231L109.252 58.8339ZM48.8696 40.0322V46.9962C56.057 48.7445 61.3913 55.2004 61.3913 62.897C61.3913 71.9366 54.0332 79.2647 44.9565 79.2647C35.8798 79.2647 28.5217 71.9366 28.5217 62.897C28.5217 55.2004 33.856 48.7445 41.0435 46.9962V37.1648L44.1739 38.3117V46.5294H45.7391V38.9214L44.6087 38.4711L48.8696 40.0322ZM91.1304 42.2287L88 41.0817V32.5H81.7391V38.7877L78.6087 37.6408V29.3823H91.1304V42.2287ZM91.1304 55.5163V63.6764H78.6087V50.9284L81.7391 52.0754V60.5588H88V54.3694L91.1304 55.5163ZM44.9565 76.147C52.3043 76.147 58.2609 70.2148 58.2609 62.897C58.2609 55.5793 52.3043 49.647 44.9565 49.647C37.6087 49.647 31.6522 55.5793 31.6522 62.897C31.6522 70.2148 37.6087 76.147 44.9565 76.147Z" fill="#1692D0"/>
</svg>
