<svg viewBox="0 0 48 48" fill="none" xmlns="http://www.w3.org/2000/svg" id="icon-skin">
<path d="M14.4246 47.9935C13.9069 47.9935 13.4871 47.5738 13.4871 47.056V39.0126C12.2453 37.6233 11.5658 35.8482 11.5658 33.9715V25.6048L4.99602 17.1833C3.95361 15.847 4.07127 13.9358 5.26958 12.7374C5.90455 12.1024 6.74896 11.7526 7.64708 11.7526C8.5453 11.7526 9.38961 12.1023 10.0247 12.7373L14.4204 17.133L12.2129 8.89406C11.9659 7.97194 12.0926 7.00884 12.5699 6.18216C13.0472 5.35547 13.8179 4.76409 14.7399 4.51706C16.643 4.00697 18.6068 5.14069 19.1168 7.04409L20.387 11.7842V3.57375C20.387 1.60322 21.9902 0 23.9608 0C25.9314 0 27.5345 1.60322 27.5345 3.57375V11.7832L28.8052 7.04175C29.315 5.13966 31.2771 4.00678 33.1793 4.51641C34.102 4.76363 34.8727 5.35556 35.3495 6.18319C35.8264 7.01081 35.952 7.97447 35.7032 8.89659L34.8854 11.9276C34.7505 12.4275 34.2358 12.7234 33.736 12.5886C33.2361 12.4537 32.9403 11.9392 33.0751 11.4392L33.8929 8.40816C34.0111 7.97016 33.9515 7.51238 33.7249 7.11928C33.4984 6.72619 33.1323 6.44494 32.6939 6.32756C31.7908 6.08559 30.8583 6.62353 30.6161 7.52709L27.5024 19.1459C27.3805 19.6004 26.9404 19.8942 26.4744 19.8327C26.008 19.7713 25.6594 19.3737 25.6594 18.9032V3.57375C25.6594 2.63709 24.8974 1.875 23.9606 1.875C23.0239 1.875 22.2618 2.63709 22.2618 3.57375V18.9053C22.2618 19.3758 21.9131 19.7733 21.4466 19.8348C20.9805 19.896 20.5404 19.6024 20.4187 19.148L17.3059 7.52934C17.0634 6.62456 16.1299 6.08588 15.2253 6.32812C14.787 6.44559 14.4206 6.72666 14.1938 7.11966C13.967 7.51256 13.9067 7.97044 14.024 8.40872L17.1372 20.0272C17.247 20.4371 17.0678 20.8697 16.7004 21.0818C16.3329 21.2939 15.8687 21.2328 15.5688 20.9329L8.69914 14.0632C8.41817 13.7823 8.04467 13.6276 7.64736 13.6276C7.25005 13.6276 6.87655 13.7823 6.59558 14.0632C6.06542 14.5934 6.01339 15.4388 6.47455 16.03L13.2426 24.7058C13.3712 24.8705 13.4409 25.0734 13.4409 25.2824V33.9716C13.4409 35.4833 14.0269 36.9074 15.0907 37.9815C15.2646 38.1571 15.3621 38.3942 15.3621 38.6413V47.0561C15.3621 47.5738 14.9424 47.9935 14.4246 47.9935Z" fill="#1C1B17"/>
<path d="M28.7451 48C28.2273 48 27.8076 47.5803 27.8076 47.0625V39.8906C27.8076 39.5349 28.0089 39.2098 28.3274 39.0514C29.612 38.4119 30.6645 37.3487 31.2908 36.0578L32.3181 33.9405C32.4 33.7718 32.5305 33.6316 32.6928 33.5378L42.55 27.8468C43.6699 27.2002 44.055 25.7631 43.4084 24.6433C42.8307 23.6427 41.5854 23.2099 40.5116 23.6364L34.6397 25.9691C33.4133 26.4564 32.0162 26.1699 31.0806 25.2392C30.2399 24.403 29.9095 23.1725 30.2184 22.0276L30.8773 19.5858C31.0122 19.0858 31.527 18.7898 32.0267 18.9248C32.5265 19.0597 32.8224 19.5743 32.6876 20.0742L32.0287 22.516C31.8947 23.0128 32.0381 23.547 32.403 23.9098C32.809 24.3137 33.4153 24.4381 33.9475 24.2266L39.8194 21.8939C41.7517 21.1263 43.9927 21.9052 45.0323 23.7058C45.596 24.682 45.7457 25.8194 45.4539 26.9081C45.1622 27.997 44.4638 28.9071 43.4876 29.4706L33.8796 35.0178L32.9779 36.8762C32.2577 38.3604 31.1001 39.6108 29.6828 40.4475V47.0625C29.6826 47.5803 29.2629 48 28.7451 48Z" fill="#1C1B17"/>
<path d="M4.78125 3.09375C4.26347 3.09375 3.84375 2.67403 3.84375 2.15625V0.9375C3.84375 0.419719 4.26347 0 4.78125 0C5.29903 0 5.71875 0.419719 5.71875 0.9375V2.15625C5.71875 2.67403 5.29903 3.09375 4.78125 3.09375Z" fill="#2E9DDC"/>
<path d="M4.78125 9.56248C4.26347 9.56248 3.84375 9.14276 3.84375 8.62498V7.43961C3.84375 6.92182 4.26347 6.50211 4.78125 6.50211C5.29903 6.50211 5.71875 6.92182 5.71875 7.43961V8.62498C5.71875 9.14276 5.29903 9.56248 4.78125 9.56248Z" fill="#2E9DDC"/>
<path d="M8.625 5.71875H7.40625C6.88847 5.71875 6.46875 5.29903 6.46875 4.78125C6.46875 4.26347 6.88847 3.84375 7.40625 3.84375H8.625C9.14278 3.84375 9.5625 4.26347 9.5625 4.78125C9.5625 5.29903 9.14278 5.71875 8.625 5.71875Z" fill="#2E9DDC"/>
<path d="M2.15625 5.71875H0.9375C0.419719 5.71875 0 5.29903 0 4.78125C0 4.26347 0.419719 3.84375 0.9375 3.84375H2.15625C2.67403 3.84375 3.09375 4.26347 3.09375 4.78125C3.09375 5.29903 2.67403 5.71875 2.15625 5.71875Z" fill="#2E9DDC"/>
<path d="M4.78125 40.3125C4.26347 40.3125 3.84375 39.8928 3.84375 39.375V38.1562C3.84375 37.6385 4.26347 37.2188 4.78125 37.2188C5.29903 37.2188 5.71875 37.6385 5.71875 38.1562V39.375C5.71875 39.8928 5.29903 40.3125 4.78125 40.3125Z" fill="#2E9DDC"/>
<path d="M4.78125 46.7813C4.26347 46.7813 3.84375 46.3616 3.84375 45.8438V44.6584C3.84375 44.1406 4.26347 43.7209 4.78125 43.7209C5.29903 43.7209 5.71875 44.1406 5.71875 44.6584V45.8438C5.71875 46.3616 5.29903 46.7813 4.78125 46.7813Z" fill="#2E9DDC"/>
<path d="M8.625 42.9375H7.40625C6.88847 42.9375 6.46875 42.5178 6.46875 42C6.46875 41.4822 6.88847 41.0625 7.40625 41.0625H8.625C9.14278 41.0625 9.5625 41.4822 9.5625 42C9.5625 42.5178 9.14278 42.9375 8.625 42.9375Z" fill="#2E9DDC"/>
<path d="M2.15625 42.9375H0.9375C0.419719 42.9375 0 42.5178 0 42C0 41.4822 0.419719 41.0625 0.9375 41.0625H2.15625C2.67403 41.0625 3.09375 41.4822 3.09375 42C3.09375 42.5178 2.67403 42.9375 2.15625 42.9375Z" fill="#2E9DDC"/>
<path d="M43.2188 10.8182C42.701 10.8182 42.2812 10.3985 42.2812 9.88071V8.66196C42.2812 8.14418 42.701 7.72446 43.2188 7.72446C43.7365 7.72446 44.1562 8.14418 44.1562 8.66196V9.88071C44.1562 10.3984 43.7365 10.8182 43.2188 10.8182Z" fill="#2E9DDC"/>
<path d="M43.2188 17.2869C42.701 17.2869 42.2812 16.8672 42.2812 16.3494V15.1641C42.2812 14.6463 42.701 14.2266 43.2188 14.2266C43.7365 14.2266 44.1562 14.6463 44.1562 15.1641V16.3494C44.1562 16.8672 43.7365 17.2869 43.2188 17.2869Z" fill="#2E9DDC"/>
<path d="M47.0625 13.4432H45.8438C45.326 13.4432 44.9062 13.0235 44.9062 12.5057C44.9062 11.9879 45.326 11.5682 45.8438 11.5682H47.0625C47.5803 11.5682 48 11.9879 48 12.5057C48 13.0235 47.5803 13.4432 47.0625 13.4432Z" fill="#2E9DDC"/>
<path d="M40.5938 13.4432H39.375C38.8572 13.4432 38.4375 13.0235 38.4375 12.5057C38.4375 11.9879 38.8572 11.5682 39.375 11.5682H40.5938C41.1115 11.5682 41.5312 11.9879 41.5312 12.5057C41.5312 13.0235 41.1115 13.4432 40.5938 13.4432Z" fill="#2E9DDC"/>
<path d="M32.8818 16.6941C32.6343 16.6941 32.3934 16.5937 32.218 16.4194C32.0437 16.245 31.9434 16.0031 31.9434 15.7566C31.9434 15.51 32.0437 15.2681 32.218 15.0937C32.3934 14.9194 32.6343 14.8191 32.8818 14.8191C33.1284 14.8191 33.3693 14.9194 33.5446 15.0937C33.719 15.2681 33.8193 15.51 33.8193 15.7566C33.8193 16.0031 33.719 16.245 33.5446 16.4194C33.3693 16.5937 33.1284 16.6941 32.8818 16.6941Z" fill="#2E9DDC"/>
</svg>
