<svg id="icon-swipe" viewBox="0 0 35 35" fill="none" xmlns="http://www.w3.org/2000/svg">
<g clip-path="url(#clip0)">
<path d="M31.1963 3.04248H22.0656C21.6456 3.04248 21.3047 3.38338 21.3047 3.8034C21.3047 4.22341 21.6456 4.56432 22.0656 4.56432H31.1963C31.6163 4.56432 31.9572 4.22341 31.9572 3.8034C31.9572 3.38338 31.6163 3.04248 31.1963 3.04248Z" fill="#2E9DDC"/>
<path d="M31.7347 3.26616L28.6911 0.222561C28.3944 -0.0741871 27.9119 -0.0741871 27.6152 0.222561C27.3184 0.51931 27.3184 1.00174 27.6152 1.29849L30.1201 3.80338L27.6137 6.30976C27.3169 6.60651 27.3169 7.08894 27.6137 7.38569C27.7628 7.53328 27.9576 7.60789 28.1524 7.60789C28.3472 7.60789 28.5419 7.53335 28.6911 7.38569L31.7347 4.34209C32.0315 4.04527 32.0315 3.56291 31.7347 3.26616Z" fill="#2E9DDC"/>
<path d="M11.4131 3.04248H2.2824C1.86239 3.04248 1.52148 3.38338 1.52148 3.8034C1.52148 4.22341 1.86239 4.56432 2.2824 4.56432H11.4131C11.8331 4.56432 12.174 4.22341 12.174 3.8034C12.174 3.38338 11.8331 3.04248 11.4131 3.04248Z" fill="#2E9DDC"/>
<path d="M3.35813 3.80328L5.86301 1.2984C6.15976 1.00165 6.15976 0.519218 5.86301 0.22247C5.56626 -0.0742787 5.08383 -0.0742787 4.78709 0.22247L1.74356 3.26614C1.44681 3.56289 1.44681 4.04532 1.74356 4.34207L4.78716 7.38567C4.93632 7.53326 5.13106 7.60787 5.32587 7.60787C5.52068 7.60787 5.71542 7.53333 5.86308 7.38417C6.15983 7.08742 6.15983 6.60499 5.86308 6.30824L3.35813 3.80328Z" fill="#2E9DDC"/>
<path d="M30.4353 15.2167C29.8098 15.2167 29.227 15.4069 28.743 15.7311C28.3261 14.5472 27.1954 13.6949 25.8699 13.6949C25.2445 13.6949 24.6616 13.8852 24.1777 14.2093C23.7607 13.0254 22.63 12.1732 21.3046 12.1732C20.7506 12.1732 20.2302 12.3223 19.7828 12.5826V7.60781C19.7828 5.92925 18.4177 4.56421 16.7392 4.56421C15.0606 4.56421 13.6956 5.92925 13.6956 7.60781V20.543L11.0507 18.5601C9.48333 17.3837 7.25237 17.5405 5.863 18.9284C4.97275 19.8187 4.97275 21.2659 5.863 22.1561L16.6997 32.9943C17.9932 34.2878 19.7143 35 21.5435 35H25.1091C29.7232 35 33.4789 31.2458 33.4789 26.6302V18.2603C33.4789 16.5817 32.1138 15.2167 30.4353 15.2167ZM31.9571 26.6301C31.9571 30.4057 28.8846 33.4781 25.1091 33.4781H21.5435C20.1191 33.4781 18.7815 32.9242 17.7756 31.9183L6.93892 21.0802C6.64218 20.7834 6.64218 20.301 6.93892 20.0043C7.41066 19.534 8.04067 19.2921 8.67376 19.2921C9.18815 19.2921 9.70553 19.4519 10.1392 19.7775L14 22.6734C14.2314 22.8469 14.5418 22.8728 14.7975 22.745C15.0546 22.6157 15.2175 22.3524 15.2175 22.0647V7.60781C15.2175 6.76928 15.8992 6.08604 16.7393 6.08604C17.5793 6.08604 18.261 6.76935 18.261 7.60781V19.0212C18.261 19.4412 18.6019 19.7821 19.0219 19.7821C19.442 19.7821 19.7829 19.4412 19.7829 19.0212V15.2168C19.7829 14.3782 20.4646 13.695 21.3046 13.695C22.1446 13.695 22.8264 14.3783 22.8264 15.2168V19.0212C22.8264 19.4412 23.1673 19.7821 23.5873 19.7821C24.0073 19.7821 24.3482 19.4412 24.3482 19.0212V16.7385C24.3482 15.9 25.03 15.2168 25.87 15.2168C26.71 15.2168 27.3918 15.9001 27.3918 16.7385V19.0212C27.3918 19.4412 27.7327 19.7821 28.1527 19.7821C28.5727 19.7821 28.9136 19.4412 28.9136 19.0212V18.2603C28.9136 17.4218 29.5953 16.7385 30.4353 16.7385C31.2754 16.7385 31.9571 17.4218 31.9571 18.2603V26.6301Z" fill="#1C1B17"/>
</g>
<defs>
<clipPath id="clip0">
<rect width="35" height="35" fill="white"/>
</clipPath>
</defs>
</svg>
