<svg viewBox="0 0 112 68" fill="none" xmlns="http://www.w3.org/2000/svg" id="icon-dez">
<path d="M82.0043 10.0222C82.0384 10.203 82.2559 11.4645 81.9999 13C81.7233 14.6601 81.4063 15.097 81.4063 15.097C81.1819 15.5957 80.5561 16 79.9999 16C79.4477 16 79.1786 15.5937 79.3852 15.0832C79.3852 15.0832 79.7766 14.3399 79.9999 13C80.2081 11.7509 80.0281 10.2233 80.0028 10.0222H78.9991L78.0363 9.01062H74.9977C74.4467 9.01062 73.9999 8.56549 73.9999 8.0179V5.98735C73.9999 5.43908 74.4473 4.99463 74.9977 4.99463H78.0363L78.9955 4H90.0723C90.6299 4 91.472 4.21709 91.9515 4.48401L94.1304 5.69689C94.6106 5.96421 94.9999 6.63037 94.9999 7.17543V14.0055C94.9999 14.5547 94.5443 15 93.9978 15H91.9999V18H85.9999V15H84.0062C83.4528 15 83.0041 14.5583 83.0041 13.9927V11.0295C83.0041 10.4732 82.5602 10.0222 82.0141 10.0222H82.0043ZM80.4211 21.18L82.3571 20.6779C82.4153 20.9023 82.6285 21.3223 83.0663 21.7584C83.8413 22.5303 85.0247 23.0049 86.768 23.0049C88.5557 23.0049 89.416 22.8061 90.3494 22.3409C90.4292 22.3012 90.7055 22.1599 90.7302 22.1474C91.6827 21.6658 92.4169 21.4669 93.6581 21.4669V23.4669C92.7537 23.4669 92.3212 23.5841 91.6326 23.9322C91.616 23.9406 91.3324 24.0857 91.2416 24.1309C90.0285 24.7355 88.8626 25.0049 86.768 25.0049C84.5029 25.0049 82.8102 24.326 81.655 23.1755C80.9347 22.4581 80.5624 21.7246 80.4211 21.18ZM53.1794 30.5267L54.8737 29.464C54.9654 29.6101 55.2158 29.8901 55.6376 30.1851C56.3749 30.7008 57.3243 31.0137 58.5317 31.0137C59.6397 31.0137 60.0971 30.821 60.8047 30.2346C60.8798 30.1722 60.8798 30.1722 60.9587 30.1064C61.9013 29.3228 62.6216 28.9954 63.9111 28.9954V30.9954C63.1556 30.9954 62.8519 31.1334 62.2372 31.6444C62.1616 31.7074 62.1616 31.7074 62.0809 31.7745C61.0383 32.6386 60.1477 33.0137 58.5317 33.0137C56.9047 33.0137 55.5574 32.5697 54.4912 31.824C53.8309 31.3621 53.4042 30.8852 53.1794 30.5267ZM55.9999 17.9974C55.9999 16.8943 56.8982 16 57.9979 16H60.002C61.1054 16 61.9999 16.8959 61.9999 17.9974V25H55.9999V17.9974ZM57.9979 18C58.0002 17.9998 57.9999 23 57.9999 23H59.9999V18H57.9979ZM17.1731 15.5839L18.8571 14.5049C18.8941 14.5627 18.9929 14.6954 19.1545 14.8785C19.4371 15.1984 19.785 15.5215 20.1989 15.8242C21.5617 16.8207 23.2804 17.3573 25.4128 17.1882C27.245 17.0429 28.1903 16.6943 29.7867 15.7743C29.8747 15.7236 29.8747 15.7236 29.9636 15.6723C32.026 14.4831 33.38 14.0444 36.0107 14.0444V16.0444C33.7722 16.0444 32.7447 16.3773 30.9626 17.4049C30.8746 17.4557 30.8746 17.4557 30.7854 17.5071C28.9533 18.563 27.7415 19.0098 25.5709 19.1819C22.9413 19.3905 20.7536 18.7074 19.0184 17.4386C18.095 16.7634 17.4894 16.0776 17.1731 15.5839ZM18.9999 6.00592C18.9999 4.89808 19.8874 4 20.9996 4H27.0003C28.1047 4 28.9999 4.88655 28.9999 6.00592V11H18.9999V6.00592ZM26.9999 9V6.00592C26.9999 5.99548 20.9996 6 20.9996 6C20.9973 6 20.9999 9 20.9999 9H26.9999ZM87.9999 16H89.9999V15H87.9999V16ZM78.8939 7.01062L79.8566 8.02222H82.0141C83.6726 8.02222 85.0041 9.37637 85.0041 11.0295V13H92.9999V7.3566L90.9788 6.23152C90.7976 6.13066 90.2904 6 90.0723 6H79.8453L78.886 6.99463H75.9999L78.8939 7.01062Z" fill="#1692D0"/>
<path d="M93.0092 62C93.0042 62 93.0019 61.9998 93.0008 62H93.0092ZM93 18H85.137C85.1615 18 84.9894 18.0791 85.0127 18.0518L82.2139 21.3323L82.6356 22.36C83.0496 23.369 83.0344 24.7585 82.6003 25.7624L82.1361 26.8357C82.1253 26.8608 82.1219 27.1265 82.1293 27.1448L83.3962 30.2815C83.9032 31.5365 83.5879 33.1089 82.6443 34.0729L77.1305 39.706C77.1088 39.7282 77 39.9934 77 40.017V62H93V18ZM55 24.5359V23.999C55 23.4472 55.453 23 55.997 23H62.003C62.5536 23 63 23.4427 63 23.999V24.5342C64.1955 25.2258 65 26.5194 65 28.0002V63.0009C65 63.5527 64.5442 64 63.9975 64H54.0025C53.4488 64 53 63.5451 53 63.0009V28.0002C53 26.5201 53.8064 25.2277 55 24.5359ZM80.2797 21.8869C80.0702 21.3764 80.1914 20.6214 80.5434 20.2088L83.4912 16.7537C83.8464 16.3374 84.5737 16 85.137 16H93.9973C94.5511 16 95 16.4433 95 16.9968V62.0025C95 63.1057 94.1018 64 93.0092 64H76.9908C75.8913 64 75 63.1102 75 62.005V40.017C75 39.4683 75.3151 38.7015 75.7012 38.307L81.215 32.6739C81.6023 32.2783 81.7513 31.5491 81.5418 31.0305L80.2748 27.8938C80.068 27.3818 80.0762 26.5603 80.3004 26.0419L80.7646 24.9685C80.9855 24.4577 80.9941 23.6281 80.7853 23.1192L80.2797 21.8869ZM63 62V28.0002C63 26.8957 62.1055 26 61.0042 26H56.9958C55.8984 26 55 26.8982 55 28.0002V62H63ZM17 10.9969C17 9.89402 17.8858 9 18.992 9H28.508C29.6082 9 31.1787 9.58499 32.0224 10.3121L42.4776 19.3236C43.3184 20.0483 44 21.5225 44 22.6446V61.9911C44 63.1006 43.1017 64 41.9927 64H19.0073C17.8987 64 17 63.1077 17 62.0031V10.9969ZM19 11V62.0031C19 61.9999 41.9927 62 41.9927 62C41.9966 62 42 22.6446 42 22.6446C42 22.1096 41.5758 21.1867 41.1719 20.8385L30.7166 11.8271C30.2363 11.4131 29.1291 11 28.508 11H19Z" fill="#39393A"/>
</svg>
