<svg viewBox="0 0 176 112" fill="none" xmlns="http://www.w3.org/2000/svg" id="icon-lab-3">
<path d="M77.4531 108.8H114.684V88H67.8552L77.4531 108.8ZM11.1378 108.8V40.7985C11.1378 38.7501 11.8956 35.8118 12.8896 34.0182L19.9897 21.2073C21.1243 19.1602 23.7301 17.6 26.0295 17.6H40.9591C43.551 17.6 45.6531 19.753 45.6531 22.3967V28.8H42.5154V22.3967C42.5154 21.5173 41.815 20.8 40.9591 20.8H26.0295C24.8646 20.8 23.3008 21.7363 22.7214 22.7819L15.6213 35.5928C14.8934 36.906 14.2755 39.3018 14.2755 40.7985V108.8H15.8589C16.7173 108.8 17.4133 109.51 17.4133 110.4C17.4133 111.284 16.7058 112 15.8589 112H9.55441C8.69593 112 8 111.29 8 110.4C8 109.516 8.70753 108.8 9.55441 108.8H11.1378ZM114.684 84.8H117.822V112H75.4618L64.3874 88H114.684V84.8ZM89.5818 31.8814C89.5818 28.3494 92.2107 24.4532 95.4276 23.1891L117.795 14.4H161.718C165.187 14.4 168 17.2682 168 20.8038V112H114.71V54.4199C114.71 50.8865 111.901 48.0094 108.434 47.9937L95.8579 47.9367C92.3917 47.921 89.5818 45.0457 89.5818 41.513V31.8814ZM131.973 17.6H118.379L96.5557 26.1751C94.5455 26.965 92.7195 29.6774 92.7195 31.8814V41.513C92.7195 43.283 94.1322 44.7288 95.8719 44.7367L108.448 44.7937C113.642 44.8172 117.848 49.1243 117.848 54.4199V108.8H164.862V20.8038C164.862 19.0354 163.454 17.6 161.718 17.6H152.375V14.4H131.973V17.6Z" fill="#39393A"/>
<path d="M150.767 108.8V14.3881C150.767 12.632 149.357 11.2 147.613 11.2H136.601C134.846 11.2 133.447 12.6228 133.447 14.3881V108.8H150.767ZM147.613 8C151.089 8 153.906 10.8628 153.906 14.3881V112H130.309V14.3881C130.309 10.86 133.108 8 136.601 8H147.613ZM114.684 73.6H46.3523C42.4582 73.6 39.285 76.8235 39.285 80.8C39.285 84.7684 42.4491 88 46.3523 88H114.684V84.8H46.3523C44.1854 84.8 42.4237 83.0039 42.4237 80.8C42.4237 78.5952 44.1874 76.8 46.3523 76.8H114.684V73.6ZM38.0887 34.6861L50.4426 32.4653C51.3017 32.3108 51.8714 31.4819 51.7208 30.6108C51.5709 29.7443 50.7524 29.1602 49.8975 29.3139L37.5437 31.5347C36.6845 31.6892 36.1148 32.5181 36.2655 33.3892C36.4153 34.2557 37.2338 34.8398 38.0887 34.6861ZM33.1744 33.9449C32.7229 31.3342 34.4315 28.8448 36.9986 28.3833L49.3525 26.1625C51.9161 25.7017 54.3612 27.4498 54.8118 30.0551C55.2634 32.6658 53.5547 35.1552 50.9876 35.6167L38.6337 37.8375C36.0701 38.2983 33.625 36.5502 33.1744 33.9449Z" fill="#1692D0"/>
</svg>
