<svg id="icon-antibac" viewBox="0 0 48 48" fill="none" xmlns="http://www.w3.org/2000/svg">
<g clip-path="url(#clip0)">
<path d="M18.2952 33.3186L17.733 33.4442C17.2273 33.557 16.9087 34.0584 17.0219 34.5641C17.1193 35.001 17.5067 35.298 17.9363 35.298C18.004 35.298 18.0729 35.2903 18.1417 35.2753L18.8661 35.1134C19.1774 35.7642 19.5692 36.3732 20.0314 36.9295L19.6432 37.221C19.229 37.5319 19.1455 38.12 19.4564 38.5342C19.641 38.7796 19.9226 38.9088 20.2075 38.9088C20.4034 38.9088 20.6012 38.8477 20.77 38.721L21.3893 38.2559C21.8551 38.6254 22.3601 38.955 22.8992 39.2384L22.7585 40.0382C22.6692 40.5484 23.0101 41.0347 23.5203 41.1244C23.5752 41.1339 23.6298 41.1387 23.6836 41.1387C24.1307 41.1387 24.5266 40.8179 24.6064 40.3623L24.6789 39.9489C25.006 40.0276 25.3103 40.0635 25.5912 40.0635C26.6968 40.0635 27.4431 39.512 27.817 38.8616C28.3747 37.8919 28.1656 36.6405 27.3299 35.9499C27.2768 35.9066 27.2223 35.8656 27.1666 35.8261L27.2981 35.7049C27.6786 35.3533 27.702 34.7597 27.3505 34.3792C26.9989 33.9987 26.4056 33.9752 26.0251 34.3268L25.3638 34.938C24.7566 34.6396 24.2131 34.2653 23.8597 33.5717L24.512 33.0817C24.9261 32.7708 25.0096 32.1826 24.6984 31.7685C24.3874 31.3543 23.7993 31.2708 23.3851 31.5817L23.2877 31.6546C23.016 31.1038 22.5201 30.6786 21.8716 30.4658C20.8499 30.1311 19.6893 30.3959 18.9833 31.1254C18.6394 31.4806 18.1721 32.1856 18.2952 33.3186ZM20.3309 32.4306C20.5382 32.2163 20.9491 32.1383 21.2864 32.2489C21.4988 32.3189 21.6178 32.4357 21.6398 32.5979C22.0452 35.5576 23.9791 36.3955 25.259 36.95C25.6208 37.1067 25.9622 37.2547 26.1357 37.3975C26.2676 37.5066 26.2928 37.7491 26.1907 37.9267C26.0098 38.2409 25.4553 38.2731 24.7434 38.0105C22.6044 37.2206 21.0286 35.692 20.3068 33.7064C20.183 33.367 20.0218 32.7499 20.3309 32.4306Z" fill="#2E9DDC"/>
<path d="M23.4504 24.2867C23.0839 23.9205 22.4902 23.9205 22.1237 24.2867C21.7574 24.6529 21.7574 25.2469 22.1237 25.6135L35.0736 38.5631C31.8993 40.9779 28.005 42.2973 23.9987 42.2973C13.9103 42.2973 5.70276 34.0884 5.70276 23.9985C5.70276 19.9885 7.02295 16.0927 9.43921 12.9206L16.8726 20.2983C17.2402 20.6634 17.8342 20.6612 18.1993 20.2936C18.5641 19.9259 18.5619 19.3319 18.1942 18.9668L10.0229 10.8567C9.83765 10.6728 9.58533 10.5739 9.32349 10.5849C9.06238 10.5959 8.81812 10.7146 8.64856 10.9134C5.53943 14.5558 3.82666 19.203 3.82666 23.9985C3.82666 35.1229 12.8761 44.1734 23.999 44.1734C28.7913 44.1734 33.4381 42.461 37.0841 39.3519C37.283 39.182 37.402 38.9366 37.4126 38.6751C37.4229 38.4137 37.3236 38.1599 37.1387 37.9746L23.4504 24.2867Z" fill="#1C1B17"/>
<path d="M40.9698 7.02905C36.4475 2.50708 30.4351 0.0106201 24.0385 0H23.9597C17.5569 0.0106201 11.5393 2.51147 7.01587 7.04224C2.49133 11.5734 0 17.595 0 23.9985C0 30.4094 2.49609 36.4365 7.02869 40.9698C11.5616 45.5032 17.588 48 23.9985 48C30.4021 48 36.4244 45.5083 40.9563 40.9834C45.4878 36.4592 47.9894 30.442 48 24.0385V23.9597C47.9894 17.5642 45.4926 11.5514 40.9698 7.02905ZM46.1239 24.037C46.1034 36.2157 36.1783 46.1239 23.9985 46.1239C11.8004 46.1239 1.8761 36.1985 1.8761 23.9985C1.8761 11.8206 11.7843 1.89661 23.9615 1.8761H24.037C36.1956 1.89661 46.1034 11.8044 46.1239 23.9615V24.037Z" fill="#1C1B17"/>
<path d="M23.9983 3.82654C19.5188 3.82654 15.2755 5.26538 11.727 7.98779C11.5127 8.15222 11.3798 8.40125 11.3619 8.67078C11.3443 8.94031 11.4439 9.20435 11.6347 9.39551L31.3006 29.0592C31.3068 29.0658 31.3119 29.0728 31.3181 29.079L33.5872 31.3458L38.6043 36.3622C38.7808 36.5387 39.0199 36.6372 39.2679 36.6372C39.288 36.6372 39.3085 36.6365 39.3294 36.635C39.5989 36.6174 39.8476 36.4845 40.012 36.2703C42.7344 32.7217 44.1733 28.4784 44.1733 23.9985C44.1733 12.8756 35.1227 3.82654 23.9983 3.82654ZM33.3477 28.4528C34.9096 26.8063 34.8393 24.9496 34.7906 23.6653C34.7902 23.658 34.7898 23.6506 34.7898 23.6433C34.7898 23.6415 34.7898 23.6393 34.7898 23.6371C34.7898 23.6235 34.7884 23.6104 34.788 23.5968C34.7715 23.1599 34.7594 22.752 34.8232 22.4963C34.8872 22.2389 35.1861 22.0488 35.4908 22.0719C35.984 22.1096 36.3316 22.7003 36.4202 23.6525V23.6539C36.5187 24.6943 36.4513 25.701 36.2294 26.6473C36.2126 26.6979 36.199 26.7488 36.191 26.8C35.9093 27.9086 35.4142 28.931 34.7159 29.8209L33.3477 28.4528ZM39.1525 34.2576L36.0492 31.1543C36.7509 30.2959 37.3013 29.3225 37.6862 28.2748L38.0671 28.4637C38.2007 28.53 38.3428 28.5615 38.4831 28.5615C38.8284 28.5615 39.1602 28.3704 39.3243 28.0404C39.5542 27.576 39.3649 27.0132 38.9005 26.7832L38.1791 26.425C38.2871 25.7985 38.341 25.1554 38.338 24.5035H38.8771C39.3953 24.5035 39.815 24.0835 39.815 23.5657C39.815 23.0475 39.3953 22.6274 38.8771 22.6274H38.1451C37.7268 20.9659 36.6227 20.2767 35.6332 20.2013C34.4192 20.109 33.2884 20.8997 33.0027 22.043C32.95 22.2557 32.9225 22.4747 32.9093 22.6992H32.3293C31.8111 22.6992 31.3914 23.1193 31.3914 23.6375C31.3914 24.1553 31.8111 24.5753 32.3293 24.5753H32.9324C32.9196 25.4451 32.7629 26.3141 32.0187 27.1241L13.7397 8.84692C16.7712 6.78662 20.2956 5.70264 23.9983 5.70264C34.0882 5.70264 42.2972 13.9102 42.2972 23.9985C42.2972 27.7013 41.2132 31.2261 39.1525 34.2576Z" fill="#1C1B17"/>
<path d="M11.1992 32.8762C11.4193 32.9279 11.6416 32.9531 11.862 32.9531C12.3908 32.9531 12.9105 32.8066 13.3716 32.5214C14.0252 32.1167 14.4819 31.4821 14.6573 30.7343C14.8327 29.9865 14.706 29.2145 14.3006 28.5612C13.8952 27.9078 13.2602 27.4515 12.5128 27.2761C11.7646 27.1007 10.993 27.2271 10.3401 27.6317C9.68637 28.0367 9.22971 28.6721 9.05466 29.4207C8.87888 30.1688 9.00595 30.9401 9.41172 31.593C9.81674 32.2449 10.4518 32.7004 11.1992 32.8762ZM10.8813 29.8488C10.9421 29.588 11.101 29.3672 11.3285 29.2262C11.4885 29.127 11.6694 29.0757 11.8536 29.0757C11.9301 29.0757 12.0074 29.0848 12.084 29.1028C12.344 29.1636 12.5652 29.3229 12.7065 29.5503C12.8475 29.7777 12.8918 30.0458 12.8307 30.3058C12.705 30.8419 12.1653 31.1759 11.6277 31.0496C11.0904 30.9236 10.7553 30.3849 10.8813 29.8488Z" fill="#1C1B17"/>
<path d="M13.5187 20.884C13.1137 20.231 12.4787 19.7743 11.7309 19.5989C10.9831 19.4235 10.2115 19.5495 9.55853 19.9545C8.90485 20.3595 8.44818 20.9949 8.27277 21.7435C8.09735 22.4913 8.22406 23.2632 8.62946 23.9165C9.03485 24.5699 9.66986 25.0262 10.4173 25.2016C10.6378 25.2532 10.8575 25.2781 11.0746 25.2781C12.3798 25.2781 13.5645 24.3816 13.8758 23.0571C14.0512 22.3092 13.9245 21.5376 13.5187 20.884ZM12.0491 22.6282C11.9228 23.1662 11.3834 23.5013 10.8461 23.3753C10.5861 23.3141 10.3649 23.1552 10.2239 22.9274C10.0826 22.7 10.0386 22.4319 10.0994 22.1716C10.1606 21.9112 10.3195 21.69 10.5466 21.549C10.707 21.4498 10.8879 21.3985 11.0717 21.3985C11.1486 21.3985 11.2259 21.4076 11.3024 21.4256C11.5624 21.4864 11.7833 21.6457 11.9246 21.8731C12.066 22.1005 12.1099 22.3689 12.0491 22.6282Z" fill="#2E9DDC"/>
<path d="M23.8596 9.60461C23.1115 9.42883 22.3399 9.55518 21.6869 9.95984C21.0332 10.3649 20.5766 11.0006 20.4015 11.7491C20.2257 12.4973 20.3521 13.2686 20.7571 13.9211C21.1621 14.5734 21.7975 15.0293 22.5438 15.204C22.7654 15.2567 22.9888 15.2827 23.2111 15.2827C23.7377 15.2827 24.2559 15.1362 24.7158 14.8521C25.3706 14.4474 25.828 13.812 26.0038 13.0627C26.3663 11.5184 25.4043 9.96716 23.8596 9.60461ZM24.1775 12.6339C24.1163 12.8943 23.957 13.1155 23.7293 13.2565C23.5026 13.3964 23.2352 13.4399 22.9741 13.3777C22.713 13.3169 22.4918 13.1583 22.3512 12.9316C22.2106 12.7053 22.167 12.4376 22.2278 12.1772C22.289 11.9165 22.4479 11.6957 22.6749 11.5547C22.8353 11.4554 23.0163 11.4042 23.2001 11.4042C23.277 11.4042 23.3543 11.413 23.4308 11.4313C23.9684 11.5573 24.3035 12.097 24.1775 12.6339Z" fill="#2E9DDC"/>
<path d="M30.9473 12.7192C30.2339 12.5511 29.4975 12.6713 28.8742 13.0583C28.2512 13.4447 27.8165 14.0508 27.6507 14.762C27.4826 15.4753 27.603 16.2118 27.9898 16.8351C28.3765 17.458 28.9822 17.8927 29.6934 18.0582C29.904 18.108 30.1164 18.1326 30.3273 18.1326C30.8312 18.1326 31.3263 17.9927 31.765 17.7206C32.3872 17.335 32.8223 16.7296 32.99 16.0159C33.3365 14.5452 32.4202 13.0664 30.9473 12.7192ZM31.1637 15.5856V15.5863C31.1106 15.8126 30.9733 16.0045 30.7766 16.1261C30.5807 16.2477 30.3489 16.2854 30.1215 16.2316C29.897 16.1792 29.7062 16.0422 29.5843 15.8459C29.4623 15.6493 29.4242 15.4167 29.4777 15.1897C29.5301 14.9652 29.667 14.7744 29.8633 14.6525C30.0021 14.5664 30.1588 14.5221 30.3181 14.5221C30.3844 14.5221 30.4511 14.5298 30.5174 14.5452C30.7433 14.5986 30.9348 14.7363 31.0572 14.933C31.1787 15.1293 31.2168 15.3611 31.1637 15.5856Z" fill="#1C1B17"/>
<path d="M20.1596 23.2281C20.3654 23.2281 20.5723 23.161 20.7451 23.0226C21.1498 22.6989 21.2153 22.1085 20.8916 21.7039L20.881 21.6907C20.5573 21.2864 19.9669 21.2205 19.5623 21.5442C19.158 21.8679 19.0924 22.4583 19.4162 22.8626L19.4268 22.8761C19.6121 23.1076 19.8845 23.2281 20.1596 23.2281Z" fill="#2E9DDC"/>
</g>
<defs>
<clipPath id="clip0">
<rect width="48" height="48" fill="white"/>
</clipPath>
</defs>
</svg>
