<svg viewBox="0 0 24 23" fill="none" xmlns="http://www.w3.org/2000/svg" id="icon-vg">
<path d="M4.35431 11.3659C4.35431 11.3659 4.97485 11.2972 6.14936 9.31067C6.14936 9.31067 6.17599 9.27593 6.22 9.20918C6.80282 11.9252 9.60819 11.4857 9.60819 11.4857L9.87741 10.4325C7.99286 10.8432 7.96846 8.60882 7.96846 8.60882L10.8563 9.61046C11.1126 9.32746 11.2757 8.97614 11.3444 8.59828C11.3718 9.50311 11.2905 10.4786 11.0279 11.4857C11.0279 11.4857 12.7734 10.8174 13.9808 11.9822C13.9808 11.9822 13.8654 9.95943 13.2619 7.86794C13.6081 7.65442 14.348 7.33941 14.4786 8.45464C14.6502 9.91884 16.6076 11.9479 18.4433 9.43051C18.4433 9.43051 17.2932 10.0984 16.6568 8.71149C16.0614 7.41397 15.8302 5.71322 14.2212 6.21247C15.1424 5.4794 16.004 4.29235 14.919 3.18883C13.4723 1.71721 11.2169 3.47417 10.8197 3.8048C10.5597 3.63461 10.279 3.50306 9.97541 3.41992C9.97541 3.41992 10.9059 5.02308 11.2357 7.33824C11.0246 6.73944 10.5823 6.18593 9.90182 5.83461C9.09194 5.41577 8.01579 5.4915 7.21885 6.05204C7.38749 4.65069 7.34792 2.77428 6.76953 0.37207L3.96305 1.84486C3.96305 1.84486 6.14936 6.22848 4.15868 9.1397C4.15868 9.1397 1.61328 7.5299 3.21234 4.27634L1.58111 3.96797C1.58111 3.96797 0.739789 4.96375 0.846664 6.52826C0.97055 8.33636 2.17206 10.7827 4.35431 11.3659ZM13.8181 4.15885C14.4542 4.97897 13.5023 5.714 12.6758 5.87326C12.6758 5.87326 12.5241 4.9048 11.9742 4.27439C11.9742 4.27439 13.182 3.33833 13.8181 4.15885ZM9.62964 6.57823C10.1585 6.76716 10.4473 7.39172 10.3456 8.04594L8.23398 7.23987C8.54018 6.68479 9.11487 6.39437 9.62964 6.57823ZM19.7569 8.86528H19.7924C19.4791 9.99534 18.92 10.6398 18.2233 11.1086C16.9504 11.965 15.2862 11.4857 15.2862 11.4857C15.6616 12.5814 19.7569 14.6362 21.0294 11.006C22.3019 7.37571 20.0017 4.8927 20.0017 4.8927C20.12 6.39555 20.0734 7.53263 19.8993 8.41326C19.5635 8.4644 17.7825 8.56979 18.582 4.82439L16.7548 4.10498C16.7548 4.10498 15.841 9.24236 19.7569 8.86528Z" fill="white"/>
<path d="M21.0782 14.157C18.9085 13.6089 17.5213 14.3112 17.5213 14.3112C17.5213 14.3112 18.8268 14.739 19.0553 16.9484C19.2835 19.1573 16.9829 20.6813 16.9829 20.6813C16.9829 20.6813 19.5283 21.1778 21.4372 20.3385C23.3462 19.4997 23.3954 17.4449 23.3954 17.1537C23.3954 16.8625 23.2482 14.705 21.0782 14.157ZM20.529 18.8158C20.4905 18.8177 20.4528 18.8166 20.4147 18.8142C20.7468 18.4551 20.9502 17.8895 20.9243 17.2606C20.8933 16.4944 20.5312 15.8511 20.039 15.5759C20.1514 15.5345 20.2701 15.508 20.394 15.5021C21.1591 15.4678 21.8096 16.1817 21.847 17.0967C21.8843 18.0121 21.2945 18.7818 20.529 18.8158ZM18.0516 17.2122C18.0516 15.5532 16.7532 14.2081 15.1516 14.2081C14.9929 14.2081 14.8372 14.2222 14.686 14.2475C14.2663 13.1698 13.2578 12.4102 12.08 12.4102C10.648 12.4102 9.46651 13.5332 9.28937 14.9857C8.04755 15.2254 6.70403 16.0537 6.25508 18.395L7.74837 18.7549C7.74837 18.7549 8.04607 17.8832 8.84449 17.099L8.87407 17.188C8.87407 17.188 9.07007 19.7565 7.08752 20.0649C5.10497 20.3733 3.90568 18.087 4.51772 16.5717C5.12975 15.0559 6.37786 15.4584 6.37786 15.4584L8.79234 13.078L7.88668 12.6842C5.33315 11.7423 2.04591 13.4891 1.84991 17.3161C1.65428 21.1434 5.74142 23.4812 8.58044 21.5291C10.1181 20.4716 10.4206 18.9169 10.3751 17.7138C10.8485 18.0929 11.4387 18.3181 12.08 18.3181C12.2042 18.3181 12.3259 18.3087 12.4457 18.2927C12.8647 19.4173 13.9179 20.2156 15.1516 20.2156C16.7532 20.2156 18.0516 18.8708 18.0516 17.2122ZM12.7038 15.6016C12.6761 15.6473 12.6491 15.6934 12.6232 15.7406C12.439 16.01 12.1388 16.186 11.7985 16.186C11.5508 16.186 11.3237 16.0927 11.1469 15.9377C11.3496 15.9053 11.5618 15.8835 11.7863 15.878L11.7131 15.1075C11.7131 15.1075 11.3459 14.9915 10.7997 14.9334C10.884 14.4341 11.2985 14.0543 11.7985 14.0543C12.3595 14.0543 12.8144 14.5313 12.8144 15.1204C12.8144 15.2937 12.7741 15.4568 12.7038 15.6016ZM14.5274 18.087C14.2248 18.087 13.9534 17.9488 13.7652 17.7302C14.3018 17.3086 14.6897 16.6903 14.8332 15.9779C15.2518 16.1146 15.5554 16.5244 15.5554 17.0081C15.5554 17.6037 15.095 18.087 14.5274 18.087Z" fill="white"/>
</svg>
