<svg id="icon-wash" viewBox="0 0 48 48" fill="none" xmlns="http://www.w3.org/2000/svg">
<g clip-path="url(#clip0)">
<path d="M13.5997 36C12.2742 36 11.1997 37.0745 11.1997 38.4C11.1997 39.7255 12.2742 40.8 13.5997 40.8C14.9252 40.8 15.9997 39.7255 15.9997 38.4C15.9997 37.0745 14.9252 36 13.5997 36ZM13.5997 39.2C13.1579 39.2 12.7997 38.8418 12.7997 38.4C12.7997 37.9582 13.1579 37.6 13.5997 37.6C14.0415 37.6 14.3997 37.9582 14.3997 38.4C14.3997 38.8418 14.0415 39.2 13.5997 39.2Z" fill="#2E9DDC"/>
<path d="M47.2 46.4H43.8048C43.8112 46.0309 43.6865 45.6714 43.4528 45.3856C41.8648 43.4672 39.2 39.6976 39.2 36V29.3184C39.7716 29.214 40.2401 28.805 40.4208 28.2528L40.9088 26.7288C41.0376 26.3243 41.0004 25.8852 40.8054 25.5081C40.6103 25.1311 40.2734 24.847 39.8688 24.7184L46.4248 4.1728C46.9621 2.48899 46.0326 0.688462 44.3488 0.151199C42.665 -0.386063 40.8645 0.543394 40.3272 2.2272L33.7728 22.7728C32.9307 22.5078 32.0327 22.9724 31.7624 23.8128L31.2768 25.3328C31.1716 25.666 31.1795 26.0246 31.2992 26.3528C29.6262 27.3251 28.0392 28.4382 26.5552 29.68L27.1368 23.868C28.1236 23.5516 28.7948 22.6363 28.8 21.6V20C28.8 18.6745 27.7255 17.6 26.4 17.6H25.6C25.614 16.3947 25.0775 15.2489 24.1429 14.4878C23.2082 13.7266 21.9775 13.4334 20.8 13.6912V8C20.8 5.34903 18.651 3.2 16 3.2C13.349 3.2 11.2 5.34903 11.2 8V10.8736C10.2167 11.2689 9.34816 11.9043 8.6736 12.7216C8.00784 12.2532 7.214 12.0013 6.4 12C5.0499 11.9975 3.78999 12.6775 3.05103 13.8074C2.31206 14.9373 2.19415 16.3641 2.7376 17.6H2.4C1.07452 17.6 0 18.6745 0 20V21.6C0.00347839 22.6377 0.675032 23.5551 1.6632 23.872L3.716 44.4C3.91318 46.4481 5.63843 48.0086 7.696 48H21.104C22.0826 47.9997 23.0267 47.6382 23.7552 46.9848C25.4232 47.7912 27.6656 48 30.4 48H47.2C47.6418 48 48 47.6418 48 47.2C48 46.7582 47.6418 46.4 47.2 46.4ZM41.8512 2.7136C42.0471 2.09544 42.5966 1.65662 43.2428 1.60245C43.889 1.54828 44.504 1.88948 44.8 2.4664C44.996 2.84298 45.0329 3.28241 44.9024 3.6864L38.3456 24.232L35.2976 23.2592L41.8512 2.7136ZM33.2864 24.2968L39.3832 26.24L38.8968 27.764L32.8 25.8208L33.2864 24.2968ZM26.4 19.2C26.8418 19.2 27.2 19.5582 27.2 20V21.6C27.2 22.0418 26.8418 22.4 26.4 22.4H20.8V19.2H26.4ZM16 19.2H19.2V22.4H16V19.2ZM21.6 15.2C22.9255 15.2 24 16.2745 24 17.6H20.8V15.36C21.0551 15.2598 21.326 15.2057 21.6 15.2ZM12.8 8C12.8 6.23269 14.2327 4.8 16 4.8C17.7673 4.8 19.2 6.23269 19.2 8V13.7376C17.9564 11.4193 15.4085 10.1119 12.8 10.4536V8ZM4 16C3.99474 14.9976 4.61611 14.0986 5.5557 13.7492C6.49528 13.3998 7.55306 13.6745 8.204 14.4368C8.37168 14.6297 8.62142 14.7308 8.87606 14.709C9.1307 14.6872 9.35959 14.545 9.492 14.3264C10.5076 12.6353 12.4552 11.7387 14.4003 12.0668C16.3454 12.3948 17.8912 13.8806 18.296 15.8112C18.3598 16.1166 18.5952 16.357 18.8992 16.4272C18.9982 16.4484 19.1004 16.45 19.2 16.432V17.6H16V16.8C16 16.3582 15.6418 16 15.2 16C14.7582 16 14.4 16.3582 14.4 16.8V32C14.4003 32.2155 14.3118 32.4215 14.1552 32.5696C14.0093 32.7189 13.8087 32.8021 13.6 32.8C13.1582 32.8 12.8 32.4418 12.8 32V26.4C12.7934 25.0772 11.7228 24.0066 10.4 24C9.07452 24 8 25.0745 8 26.4V28.8C8.00032 29.0155 7.91175 29.2215 7.7552 29.3696C7.60928 29.5189 7.40874 29.6021 7.2 29.6C6.75817 29.6 6.4 29.2418 6.4 28.8V16.8C6.4 16.3582 6.04183 16 5.6 16C5.15817 16 4.8 16.3582 4.8 16.8V17.6H4.6336C4.23069 17.1641 4.00478 16.5936 4 16ZM1.6 20C1.6 19.5582 1.95817 19.2 2.4 19.2H4.8V22.4H2.4C1.95817 22.4 1.6 22.0418 1.6 21.6V20ZM21.104 46.4H7.696C6.46128 46.4056 5.42588 45.4691 5.308 44.24L3.284 24H4.8V28.8C4.8 30.1255 5.87452 31.2 7.2 31.2C8.52239 31.1926 9.59257 30.1224 9.6 28.8V26.4C9.6 25.9582 9.95817 25.6 10.4 25.6C10.6158 25.5995 10.8222 25.688 10.9704 25.8448C11.1188 25.9913 11.2016 26.1915 11.2 26.4V32C11.2 33.3255 12.2745 34.4 13.6 34.4C14.9224 34.3926 15.9926 33.3224 16 32V24H19.2V25.7472C18.098 26.1368 17.4369 27.2637 17.6346 28.4158C17.8322 29.5678 18.8311 30.4099 20 30.4099C21.1689 30.4099 22.1678 29.5678 22.3654 28.4158C22.5631 27.2637 21.902 26.1368 20.8 25.7472V24H25.52L24.78 31.396C22.5817 33.7337 21.1904 36.7144 20.8104 39.9008C20.4848 42.5064 20.8904 44.4152 22.0584 45.7352C22.1528 45.8424 22.2648 45.9272 22.3672 46.0248C21.9899 46.2665 21.552 46.3965 21.104 46.4ZM20.8 28C20.8 28.4418 20.4418 28.8 20 28.8C19.5582 28.8 19.2 28.4418 19.2 28C19.2 27.5582 19.5582 27.2 20 27.2C20.4418 27.2 20.8 27.5582 20.8 28ZM40.8 46.4H37.0624C36.8403 46.2466 36.6101 46.1053 36.3728 45.9768C34.9504 45.1896 32.8 44 32.8 40C32.8 34.852 34.948 32.584 34.9656 32.5656C35.2688 32.2517 35.2644 31.7527 34.9559 31.4441C34.6473 31.1356 34.1483 31.1312 33.8344 31.4344C33.7264 31.5416 31.2 34.136 31.2 40C31.2 43.4976 32.6872 45.34 34.0624 46.4H30.6224C29.0494 45.6083 27.8792 44.1948 27.3952 42.5016C26.6656 39.516 28.6472 36.4728 28.6672 36.4424C28.9091 36.0747 28.8085 35.5806 28.4421 35.3367C28.0756 35.0928 27.581 35.1908 27.3352 35.556C27.2376 35.7032 24.948 39.1952 25.8384 42.8696C26.1622 44.184 26.8563 45.3779 27.8384 46.3096C25.9 46.1496 24.1952 45.7392 23.2576 44.6776C22.4136 43.7176 22.132 42.224 22.3976 40.1C23.184 33.8232 27.7376 30.2904 32.612 27.44L37.6 29.032V36C37.6 40.1992 40.4944 44.32 42.2168 46.4H40.8Z" fill="#1C1B17"/>
<path d="M7.1999 7.19999C7.1999 5.8745 6.12539 4.79999 4.7999 4.79999C3.47442 4.79999 2.3999 5.8745 2.3999 7.19999C2.3999 8.52547 3.47442 9.59999 4.7999 9.59999C5.43642 9.59999 6.04687 9.34713 6.49696 8.89704C6.94705 8.44696 7.1999 7.83651 7.1999 7.19999ZM3.9999 7.19999C3.9999 6.75816 4.35807 6.39999 4.7999 6.39999C5.24173 6.39999 5.5999 6.75816 5.5999 7.19999C5.5999 7.64182 5.24173 7.99999 4.7999 7.99999C4.35807 7.99999 3.9999 7.64182 3.9999 7.19999Z" fill="#2E9DDC"/>
<path d="M26.4 11.2C27.7255 11.2 28.8 10.1255 28.8 8.79999C28.8 7.47451 27.7255 6.39999 26.4 6.39999C25.0745 6.39999 24 7.47451 24 8.79999C24 10.1255 25.0745 11.2 26.4 11.2ZM26.4 7.99999C26.8418 7.99999 27.2 8.35817 27.2 8.79999C27.2 9.24182 26.8418 9.59999 26.4 9.59999C25.9582 9.59999 25.6 9.24182 25.6 8.79999C25.6 8.35817 25.9582 7.99999 26.4 7.99999Z" fill="#2E9DDC"/>
<path d="M23.1999 4C23.6417 4 23.9999 3.64182 23.9999 3.19999C23.9999 2.75817 23.6417 2.39999 23.1999 2.39999C22.7581 2.39999 22.3999 2.75817 22.3999 3.19999C22.3999 3.64182 22.7581 4 23.1999 4Z" fill="#2E9DDC"/>
<path d="M9.59981 4C10.0416 4 10.3998 3.64182 10.3998 3.19999C10.3998 2.75817 10.0416 2.39999 9.59981 2.39999C9.15798 2.39999 8.7998 2.75817 8.7998 3.19999C8.7998 3.64182 9.15798 4 9.59981 4Z" fill="#2E9DDC"/>
</g>
<defs>
<clipPath id="clip0">
<rect width="48" height="48" fill="white"/>
</clipPath>
</defs>
</svg>
