<svg id="icon-med-2" viewBox="0 0 288 174" fill="none" xmlns="http://www.w3.org/2000/svg">
<path d="M210.901 25.6451C210.989 26.1075 211.548 29.3356 210.89 33.2647C210.178 37.5127 209.363 38.6305 209.363 38.6305C208.786 39.9066 207.177 40.9412 205.747 40.9412C204.327 40.9412 203.635 39.9014 204.166 38.5953C204.166 38.5953 205.173 36.6932 205.747 33.2647C206.282 30.0684 205.82 26.1597 205.754 25.6451H203.173L200.698 23.0566H192.884C191.467 23.0566 190.319 21.9176 190.319 20.5164V15.3206C190.319 13.9177 191.469 12.7804 192.884 12.7804H200.698L203.164 10.2353H231.647C233.081 10.2353 235.247 10.7908 236.48 11.4738L242.083 14.5773C243.317 15.2614 244.319 16.966 244.319 18.3606V35.8376C244.319 37.243 243.147 38.3823 241.742 38.3823H236.604V46.0588H221.176V38.3823H216.049C214.626 38.3823 213.472 37.252 213.472 35.8048V28.2227C213.472 26.7991 212.331 25.6451 210.926 25.6451H210.901ZM206.83 54.196L211.808 52.911C211.958 53.4853 212.506 54.56 213.632 55.6759C215.625 57.651 218.668 58.8654 223.151 58.8654C227.748 58.8654 229.96 58.3569 232.36 57.1664C232.565 57.0648 233.276 56.7033 233.339 56.6712C235.788 55.4391 237.676 54.9301 240.868 54.9301V60.0477C238.542 60.0477 237.43 60.3475 235.66 61.2384C235.617 61.2598 234.888 61.631 234.654 61.7467C231.535 63.2939 228.537 63.9831 223.151 63.9831C217.326 63.9831 212.973 62.246 210.003 59.3019C208.151 57.4663 207.193 55.5894 206.83 54.196ZM136.78 78.1124L141.137 75.3932C141.372 75.7671 142.017 76.4834 143.101 77.2383C144.997 78.5579 147.438 79.3585 150.543 79.3585C153.392 79.3585 154.568 78.8654 156.388 77.3649C156.581 77.2052 156.581 77.2052 156.784 77.0369C159.208 75.0318 161.06 74.194 164.376 74.194V79.3117C162.433 79.3117 161.652 79.665 160.072 80.9723C159.877 81.1336 159.877 81.1336 159.67 81.3053C156.989 83.5163 154.698 84.4762 150.543 84.4762C146.359 84.4762 142.895 83.3401 140.153 81.4319C138.455 80.25 137.358 79.0297 136.78 78.1124ZM144.033 46.0521C144.033 43.2294 146.343 40.9412 149.17 40.9412H154.324C157.161 40.9412 159.461 43.2335 159.461 46.0521V63.9706H144.033V46.0521ZM149.17 46.0588C149.176 46.0583 149.176 58.8529 149.176 58.8529H154.319V46.0588H149.17ZM44.1924 39.8766L48.5226 37.1155C48.6177 37.2633 48.8719 37.603 49.2875 38.0713C50.014 38.8901 50.9086 39.7168 51.973 40.4913C55.4774 43.0412 59.8968 44.4142 65.3803 43.9815C70.0915 43.6098 72.5224 42.7178 76.6274 40.3636C76.8537 40.2338 76.8536 40.2338 77.0822 40.1026C82.3855 37.0596 85.8673 35.9372 92.6319 35.9372V41.0549C86.8759 41.0549 84.2337 41.9066 79.6512 44.536C79.4248 44.666 79.4248 44.666 79.1953 44.7977C74.4843 47.4994 71.3684 48.6427 65.7868 49.0832C59.0248 49.6167 53.3994 47.869 48.9375 44.6223C46.5631 42.8946 45.0057 41.1397 44.1924 39.8766ZM48.89 15.3681C48.89 12.5333 51.172 10.2353 54.0318 10.2353H69.4624C72.3022 10.2353 74.6043 12.5038 74.6043 15.3681V28.1471H48.89V15.3681ZM69.4614 23.0294V15.3681C69.4614 15.3414 54.0318 15.3529 54.0318 15.3529C54.026 15.3529 54.0328 23.0294 54.0328 23.0294H69.4614ZM226.319 40.9412H231.461V38.3823H226.319V40.9412ZM202.903 17.9389L205.379 20.5274H210.926C215.191 20.5274 218.615 23.9925 218.615 28.2227V33.2647H239.176V18.8242L233.978 15.9454C233.512 15.6873 232.208 15.3529 231.647 15.3529H205.349L202.883 17.898H195.461L202.903 17.9389Z" fill="#1692D0"/>
<path d="M239.199 158.647C239.186 158.647 239.181 158.647 239.178 158.647H239.199ZM239.176 46.0588H218.957C219.02 46.0588 218.577 46.2613 218.637 46.1914L211.44 54.5856L212.524 57.2152C213.589 59.7971 213.55 63.3527 212.433 65.9213L211.24 68.6679C211.212 68.732 211.203 69.412 211.222 69.4587L214.48 77.4849C215.784 80.6963 214.973 84.7199 212.547 87.1866L198.368 101.601C198.313 101.657 198.033 102.336 198.033 102.396V158.647H239.176V46.0588ZM141.461 62.783V61.4091C141.461 59.9974 142.626 58.853 144.025 58.853H159.469C160.885 58.853 162.033 59.9856 162.033 61.4091V62.7787C165.107 64.5483 167.176 67.8585 167.176 71.6476V161.208C167.176 162.62 166.004 163.765 164.598 163.765H138.896C137.473 163.765 136.318 162.601 136.318 161.208V71.6476C136.318 67.8602 138.392 64.5533 141.461 62.783ZM206.466 56.0048C205.928 54.6984 206.239 52.7666 207.144 51.7108L214.725 42.8698C215.638 41.8046 217.508 40.9412 218.957 40.9412H241.74C243.164 40.9412 244.318 42.0754 244.318 43.4918V158.653C244.318 161.476 242.009 163.765 239.199 163.765H198.009C195.182 163.765 192.89 161.488 192.89 158.66V102.396C192.89 100.992 193.7 99.0302 194.693 98.021L208.871 83.6068C209.867 82.5944 210.25 80.7286 209.712 79.4016L206.454 71.3754C205.922 70.0653 205.943 67.9632 206.519 66.6366L207.713 63.89C208.281 62.5829 208.303 60.46 207.766 59.1579L206.466 56.0048ZM162.033 158.647V71.6476C162.033 68.8212 159.733 66.5294 156.901 66.5294H146.593C143.772 66.5294 141.461 68.8278 141.461 71.6476V158.647H162.033ZM43.7471 28.139C43.7471 25.3171 46.0248 23.0294 48.8693 23.0294H73.3391C76.1681 23.0294 80.2066 24.5263 82.376 26.387L109.261 49.4457C111.423 51.3 113.176 55.0723 113.176 57.9436V158.624C113.176 161.463 110.866 163.765 108.014 163.765H48.9088C46.058 163.765 43.7471 161.481 43.7471 158.655V28.139ZM48.8899 28.1471V158.655C48.8899 158.647 108.014 158.647 108.014 158.647C108.024 158.647 108.033 57.9436 108.033 57.9436C108.033 56.5746 106.942 54.213 105.903 53.3221L79.0184 30.2634C77.7832 29.204 74.9363 28.1471 73.3391 28.1471H48.8899Z" fill="#39393A"/>
</svg>
