<svg id="icon-dez-2" viewBox="0 0 66 40" fill="none" xmlns="http://www.w3.org/2000/svg">
<path d="M38.3066 5.89542C38.3267 6.00173 38.4549 6.7438 38.3041 7.64705C38.141 8.62361 37.9543 8.88057 37.9543 8.88057C37.822 9.17394 37.4532 9.41176 37.1255 9.41176C36.8 9.41176 36.6415 9.17274 36.7632 8.87248C36.7632 8.87248 36.9939 8.4352 37.1255 7.64705C37.2482 6.91227 37.1421 6.01372 37.1272 5.89542H36.5357L35.9684 5.30036H34.1777C33.853 5.30036 33.5898 5.03852 33.5898 4.71641V3.52196C33.5898 3.19946 33.8534 2.93801 34.1777 2.93801H35.9684L36.5336 2.35294H43.061C43.3896 2.35294 43.8858 2.48063 44.1684 2.63765L45.4524 3.35111C45.7354 3.50835 45.9648 3.90021 45.9648 4.22083V8.23851C45.9648 8.56161 45.6963 8.82352 45.3742 8.82352H44.1969V10.5882H40.6612V8.82352H39.4863C39.1602 8.82352 38.8958 8.56367 38.8958 8.23098V6.48796C38.8958 6.16071 38.6342 5.89542 38.3124 5.89542H38.3066ZM37.3737 12.4588L38.5145 12.1635C38.5488 12.2955 38.6745 12.5425 38.9325 12.799C39.3892 13.2531 40.0865 13.5323 41.1138 13.5323C42.1673 13.5323 42.6743 13.4154 43.2243 13.1417C43.2713 13.1183 43.4341 13.0352 43.4487 13.0279C44.01 12.7446 44.4426 12.6276 45.1741 12.6276V13.8041C44.6411 13.8041 44.3863 13.873 43.9805 14.0778C43.9707 14.0827 43.8035 14.168 43.7501 14.1946C43.0352 14.5503 42.3481 14.7087 41.1138 14.7087C39.779 14.7087 38.7815 14.3094 38.1008 13.6326C37.6763 13.2106 37.4569 12.7792 37.3737 12.4588ZM21.3205 17.9569L22.319 17.3318C22.373 17.4177 22.5206 17.5824 22.7691 17.7559C23.2036 18.0593 23.7631 18.2433 24.4746 18.2433C25.1275 18.2433 25.3971 18.13 25.814 17.785C25.8583 17.7483 25.8583 17.7483 25.9048 17.7096C26.4603 17.2487 26.8847 17.0561 27.6446 17.0561V18.2326C27.1994 18.2326 27.0204 18.3138 26.6582 18.6143C26.6136 18.6514 26.6136 18.6514 26.5661 18.6909C25.9517 19.1991 25.4269 19.4198 24.4746 19.4198C23.5158 19.4198 22.7218 19.1586 22.0936 18.72C21.7045 18.4483 21.453 18.1677 21.3205 17.9569ZM22.9826 10.5867C22.9826 9.9378 23.512 9.41176 24.16 9.41176H25.341C25.9912 9.41176 26.5184 9.93874 26.5184 10.5867V14.7059H22.9826V10.5867ZM24.16 10.5882C24.1613 10.5881 24.1612 13.5294 24.1612 13.5294H25.3398V10.5882H24.16ZM0.102539 9.16702L1.09487 8.5323C1.11668 8.56628 1.17493 8.64437 1.27016 8.75203C1.43666 8.94024 1.64168 9.13029 1.88561 9.30834C2.68868 9.89451 3.70148 10.2102 4.9581 10.1107C6.03776 10.0252 6.59484 9.82017 7.53557 9.27899C7.58741 9.24915 7.58741 9.24915 7.63979 9.21898C8.85513 8.51945 9.65304 8.26143 11.2033 8.26143V9.4379C9.88418 9.4379 9.27869 9.63369 8.22851 10.2382C8.17663 10.268 8.17663 10.268 8.12405 10.2983C7.04443 10.9194 6.33037 11.1822 5.05126 11.2835C3.50163 11.4061 2.21248 11.0044 1.18995 10.258C0.645819 9.86083 0.288927 9.45739 0.102539 9.16702ZM1.17907 3.53289C1.17907 2.88122 1.70202 2.35294 2.35742 2.35294H5.89358C6.54437 2.35294 7.07193 2.87444 7.07193 3.53289V6.47058H1.17907V3.53289ZM5.89336 5.29411V3.53289C5.89336 3.52675 2.35742 3.52941 2.35742 3.52941C2.35607 3.52941 2.35764 5.29411 2.35764 5.29411H5.89336ZM41.8398 9.41176H43.0184V8.82352H41.8398V9.41176ZM36.4737 4.12389L37.0411 4.71895H38.3124C39.2898 4.71895 40.0744 5.5155 40.0744 6.48796V7.64705H44.7862V4.3274L43.5952 3.6656C43.4884 3.60626 43.1895 3.52941 43.061 3.52941H37.0344L36.4691 4.11448H34.7684L36.4737 4.12389Z" fill="#1692D0"/>
<path d="M44.7911 36.4706C44.7882 36.4706 44.7868 36.4704 44.7862 36.4706H44.7911ZM44.7857 10.5882H40.1522C40.1666 10.5882 40.0652 10.6348 40.0789 10.6187L38.4296 12.5484L38.6781 13.1529C38.9221 13.7464 38.9131 14.5638 38.6573 15.1543L38.3838 15.7857C38.3774 15.8004 38.3754 15.9568 38.3797 15.9675L39.1264 17.8126C39.4251 18.5509 39.2393 19.4758 38.6833 20.0429L35.434 23.3565C35.4213 23.3695 35.3571 23.5255 35.3571 23.5394V36.4706H44.7857V10.5882ZM22.3929 14.4329V14.117C22.3929 13.7925 22.6598 13.5294 22.9804 13.5294H26.5196C26.8441 13.5294 27.1071 13.7898 27.1071 14.117V14.4319C27.8116 14.8387 28.2857 15.5996 28.2857 16.4707V37.0593C28.2857 37.3839 28.0171 37.647 27.695 37.647H21.805C21.4788 37.647 21.2143 37.3794 21.2143 37.0593V16.4707C21.2143 15.6 21.6895 14.8398 22.3929 14.4329ZM37.2898 12.8747C37.1664 12.5743 37.2378 12.1302 37.4452 11.8875L39.1823 9.8551C39.3916 9.61024 39.8202 9.41175 40.1522 9.41175H45.3734C45.6997 9.41175 45.9643 9.67249 45.9643 9.99809V36.472C45.9643 37.121 45.435 37.647 44.7911 37.647H35.3517C34.7038 37.647 34.1786 37.1236 34.1786 36.4735V23.5394C34.1786 23.2166 34.3643 22.7656 34.5918 22.5335L37.841 19.2199C38.0692 18.9872 38.157 18.5583 38.0336 18.2532L37.287 16.4081C37.1651 16.1069 37.1699 15.6237 37.302 15.3187L37.5755 14.6873C37.7057 14.3869 37.7108 13.8988 37.5877 13.5995L37.2898 12.8747ZM27.1071 36.4706V16.4707C27.1071 15.821 26.58 15.2941 25.931 15.2941H23.569C22.9223 15.2941 22.3929 15.8225 22.3929 16.4707V36.4706H27.1071ZM0 6.46872C0 5.81999 0.521973 5.2941 1.17384 5.2941H6.78152C7.42981 5.2941 8.35532 5.63821 8.85247 6.06595L15.0136 11.3668C15.5091 11.7931 15.9107 12.6603 15.9107 13.3203V36.4654C15.9107 37.118 15.3813 37.647 14.7278 37.647H1.18289C0.529598 37.647 0 37.1221 0 36.4724V6.46872ZM1.17857 6.47057V36.4724C1.17857 36.4705 14.7278 36.4706 14.7278 36.4706C14.7301 36.4706 14.7321 13.3203 14.7321 13.3203C14.7321 13.0056 14.4822 12.4627 14.2441 12.2579L8.08302 6.95709C7.79995 6.71355 7.14753 6.47057 6.78152 6.47057H1.17857Z" fill="#39393A"/>
</svg>
