<svg id="icon-bubbles" viewBox="0 0 48 48" fill="none" xmlns="http://www.w3.org/2000/svg">
<g clip-path="url(#clip0)">
<path d="M31.2054 8.03002C27.0698 8.02494 23.0802 9.55933 20.0138 12.3342C16.479 7.80558 10.0896 6.68845 5.22846 9.74981C0.366886 12.8108 -1.38726 19.0553 1.16902 24.2002C3.72529 29.3448 9.76176 31.7184 15.1374 29.693C15.3642 30.4373 15.6444 31.1641 15.9754 31.8683C12.706 34.0206 11.2544 38.0753 12.4144 41.8135C13.5745 45.5513 17.0668 48.0721 20.9799 47.9956C24.8933 47.9191 28.2841 45.264 29.2974 41.4833C35.4834 42.196 41.5554 39.4251 45.0707 34.2852C48.5856 29.1453 48.9658 22.4816 46.0578 16.9752C43.1499 11.4688 37.4323 8.02533 31.2054 8.03002ZM1.62765 19.2216C1.62102 15.0958 4.2577 11.4298 8.17116 10.1234C12.0846 8.81692 16.395 10.164 18.8682 13.4662C16.0031 16.5513 14.4133 20.6072 14.418 24.8174C14.4204 25.9294 14.5328 27.0379 14.7529 28.1277C11.8012 29.3108 8.45415 28.9498 5.82254 27.164C3.19093 25.3786 1.61907 22.402 1.62765 19.2216ZM20.8132 46.4011C16.8396 46.4011 13.6186 43.1801 13.6186 39.2065C13.6186 35.2333 16.8396 32.0119 20.8132 32.0119C24.7868 32.0119 28.0078 35.2333 28.0078 39.2065C28.0035 43.1781 24.7848 46.3968 20.8132 46.4011ZM31.2054 40.0059C30.6593 40.002 30.114 39.9688 29.5714 39.906C29.5898 39.6749 29.6066 39.4426 29.6066 39.2065C29.6066 36.2583 28.1284 33.5061 25.6709 31.8773C23.2129 30.2484 20.1024 29.96 17.3869 31.1087C16.9895 30.2461 16.6757 29.3475 16.4501 28.4252C16.1628 27.244 16.0172 26.0328 16.0168 24.8174C16.0168 16.4292 22.8172 9.62881 31.2054 9.62881C39.594 9.62881 46.3939 16.4292 46.3939 24.8174C46.3939 33.2059 39.594 40.0059 31.2054 40.0059Z" fill="#1C1B17"/>
<path d="M7.22363 36.0089C7.22363 35.5675 6.86569 35.2095 6.42423 35.2095C5.98277 35.2095 5.62483 35.5675 5.62483 36.0089C5.62483 37.3337 4.55103 38.4071 3.22664 38.4071C2.78518 38.4071 2.42725 38.7651 2.42725 39.2065C2.42725 39.648 2.78518 40.0059 3.22664 40.0059C4.55103 40.0059 5.62483 41.0797 5.62483 42.4041C5.62483 42.8456 5.98277 43.2035 6.42423 43.2035C6.86569 43.2035 7.22363 42.8456 7.22363 42.4041C7.22363 41.0797 8.29743 40.0059 9.62182 40.0059C10.0633 40.0059 10.4212 39.648 10.4212 39.2065C10.4212 38.7651 10.0633 38.4071 9.62182 38.4071C8.29743 38.4071 7.22363 37.3337 7.22363 36.0089ZM6.42423 40.0309C6.19159 39.7171 5.91368 39.4395 5.60024 39.2065C5.91368 38.9739 6.19159 38.696 6.42423 38.3825C6.65726 38.696 6.93478 38.9739 7.24861 39.2065C6.93478 39.4395 6.65726 39.7171 6.42423 40.0309Z" fill="#2E9DDC"/>
<path d="M39.1991 7.23064C39.1991 7.67211 39.557 8.03004 39.9984 8.03004C40.4399 8.03004 40.7978 7.67211 40.7978 7.23064C40.7978 5.90625 41.8716 4.83245 43.196 4.83245C43.6375 4.83245 43.9954 4.47452 43.9954 4.03306C43.9954 3.59159 43.6375 3.23366 43.196 3.23366C41.8716 3.23366 40.7978 2.16025 40.7978 0.835469C40.7978 0.394005 40.4399 0.0360718 39.9984 0.0360718C39.557 0.0360718 39.1991 0.394005 39.1991 0.835469C39.1991 2.16025 38.1253 3.23366 36.8009 3.23366C36.3594 3.23366 36.0015 3.59159 36.0015 4.03306C36.0015 4.47452 36.3594 4.83245 36.8009 4.83245C38.1253 4.83245 39.1991 5.90625 39.1991 7.23064ZM39.9984 3.20907C40.2315 3.5225 40.509 3.80042 40.8228 4.03306C40.509 4.26608 40.2315 4.54361 39.9984 4.85743C39.7658 4.54361 39.4879 4.26608 39.1745 4.03306C39.4879 3.80042 39.7658 3.5225 39.9984 3.20907Z" fill="#2E9DDC"/>
<path d="M41.5979 24.8174C40.2735 24.8174 39.1997 23.744 39.1997 22.4192C39.1997 21.9777 38.8418 21.6198 38.4003 21.6198C37.9588 21.6198 37.6009 21.9777 37.6009 22.4192C37.6009 23.744 36.5271 24.8174 35.2027 24.8174C34.7613 24.8174 34.4033 25.1753 34.4033 25.6168C34.4033 26.0582 34.7613 26.4162 35.2027 26.4162C36.5271 26.4162 37.6009 27.49 37.6009 28.8143C37.6009 29.2558 37.9588 29.6137 38.4003 29.6137C38.8418 29.6137 39.1997 29.2558 39.1997 28.8143C39.1997 27.49 40.2735 26.4162 41.5979 26.4162C42.0393 26.4162 42.3973 26.0582 42.3973 25.6168C42.3973 25.1753 42.0393 24.8174 41.5979 24.8174ZM38.4003 26.4411C38.1677 26.1273 37.8897 25.8498 37.5763 25.6168C37.8897 25.3841 38.1677 25.1062 38.4003 24.7928C38.6333 25.1062 38.9109 25.3841 39.2247 25.6168C38.9109 25.8498 38.6333 26.1273 38.4003 26.4411Z" fill="#2E9DDC"/>
<path d="M32.804 18.4222C32.804 17.9807 32.4461 17.6228 32.0046 17.6228C30.6802 17.6228 29.6064 16.5493 29.6064 15.2246C29.6064 14.7831 29.2485 14.4252 28.807 14.4252C28.3656 14.4252 28.0076 14.7831 28.0076 15.2246C28.0076 16.5493 26.9338 17.6228 25.6095 17.6228C25.168 17.6228 24.8101 17.9807 24.8101 18.4222C24.8101 18.8636 25.168 19.2215 25.6095 19.2215C26.9338 19.2215 28.0076 20.2953 28.0076 21.6197C28.0076 22.0612 28.3656 22.4191 28.807 22.4191C29.2485 22.4191 29.6064 22.0612 29.6064 21.6197C29.6064 20.2953 30.6802 19.2215 32.0046 19.2215C32.4461 19.2215 32.804 18.8636 32.804 18.4222ZM28.807 19.2465C28.5744 18.9327 28.2965 18.6552 27.9831 18.4222C28.2965 18.1895 28.5744 17.9116 28.807 17.5982C29.0401 17.9116 29.3176 18.1895 29.6314 18.4222C29.3176 18.6552 29.0401 18.9327 28.807 19.2465Z" fill="#1C1B17"/>
<path d="M9.62158 32.8113H11.2204V34.4101H9.62158V32.8113Z" fill="#1C1B17"/>
<path d="M1.62744 44.0029H3.22624V45.6017H1.62744V44.0029Z" fill="#1C1B17"/>
<path d="M47.1934 41.6047C47.1934 40.2803 46.1196 39.2065 44.7952 39.2065C43.4708 39.2065 42.397 40.2803 42.397 41.6047C42.397 42.9295 43.4708 44.0029 44.7952 44.0029C46.1196 44.0029 47.1934 42.9295 47.1934 41.6047ZM43.9958 41.6047C43.9958 41.1632 44.3537 40.8053 44.7952 40.8053C45.2366 40.8053 45.5946 41.1632 45.5946 41.6047C45.5946 42.0462 45.2366 42.4041 44.7952 42.4041C44.3537 42.4041 43.9958 42.0462 43.9958 41.6047Z" fill="#1C1B17"/>
<path d="M24.0109 5.63185C24.0109 3.866 22.5792 2.43427 20.8133 2.43427C19.0475 2.43427 17.6157 3.866 17.6157 5.63185C17.6157 7.3981 19.0475 8.82944 20.8133 8.82944C22.5792 8.82944 24.0109 7.3981 24.0109 5.63185ZM19.2145 5.63185C19.2145 4.74892 19.9304 4.03306 20.8133 4.03306C21.6962 4.03306 22.4121 4.74892 22.4121 5.63185C22.4121 6.51517 21.6962 7.23065 20.8133 7.23065C19.9304 7.23065 19.2145 6.51517 19.2145 5.63185Z" fill="#2E9DDC"/>
<path d="M28.8071 4.03305H30.4059V5.63184H28.8071V4.03305Z" fill="#1C1B17"/>
<path d="M32.0044 33.6107H33.6032V35.2095H32.0044V33.6107Z" fill="#2E9DDC"/>
<path d="M36.8013 44.0029H38.4001V45.6017H36.8013V44.0029Z" fill="#1C1B17"/>
<path d="M9.62158 20.8204H11.2204V22.4192H9.62158V20.8204Z" fill="#1C1B17"/>
<path d="M3.22619 20.8926L4.82498 20.7486C4.82108 20.7103 4.5053 16.9058 6.61152 14.5931C7.81999 13.3659 9.50075 12.7214 11.2202 12.8264V11.2276C9.04875 11.1129 6.93472 11.9486 5.42843 13.5173C2.84796 16.3441 3.21252 20.7088 3.22619 20.8926Z" fill="#1C1B17"/>
<path d="M32.0044 11.2276V12.8264C32.4041 12.8264 41.7213 12.997 43.2049 24.1237L44.7893 23.9126C43.1159 11.3732 32.1156 11.2276 32.0044 11.2276Z" fill="#2E9DDC"/>
</g>
<defs>
<clipPath id="clip0">
<rect width="48" height="48" fill="white"/>
</clipPath>
</defs>
</svg>
