<svg id="icon-household" viewBox="0 0 48 48" fill="none" xmlns="http://www.w3.org/2000/svg">
<path d="M41.25 22.5563V21.75C41.25 19.562 40.3808 17.4635 38.8336 15.9164C37.2864 14.3692 35.188 13.5 33 13.5C30.8119 13.5 28.7135 14.3692 27.1663 15.9164C25.6192 17.4635 24.75 19.562 24.75 21.75V24.75H21.75C21.5511 24.75 21.3603 24.829 21.2197 24.9697C21.079 25.1103 21 25.3011 21 25.5V28.5C21 28.6989 21.079 28.8897 21.2197 29.0303C21.3603 29.171 21.5511 29.25 21.75 29.25H21.825L22.5352 36H19.5V3.75C19.5 3.15326 19.2629 2.58097 18.841 2.15901C18.419 1.73705 17.8467 1.5 17.25 1.5C16.6532 1.5 16.0809 1.73705 15.659 2.15901C15.237 2.58097 15 3.15326 15 3.75V36H7.49998C7.1023 36.0005 6.72104 36.1587 6.43984 36.4399C6.15864 36.7211 6.00045 37.1023 5.99998 37.5V39.6577L4.52239 45.5681C4.49475 45.6787 4.49267 45.7941 4.51632 45.9056C4.53996 46.0171 4.58871 46.1217 4.65885 46.2116C4.72899 46.3014 4.81868 46.3741 4.92111 46.424C5.02354 46.474 5.13601 46.5 5.24998 46.5H40.5C40.6989 46.5 40.8897 46.421 41.0303 46.2803C41.171 46.1397 41.25 45.9489 41.25 45.75V42.7894L42.3086 32.7326C42.6712 32.5337 42.9733 32.2406 43.1831 31.8841C43.3928 31.5277 43.5023 31.1212 43.5 30.7076V25.3125C43.4992 24.6644 43.275 24.0363 42.8652 23.5342C42.4553 23.0321 41.8848 22.6867 41.25 22.5563ZM26.25 21.75C26.25 20.8636 26.4246 19.9858 26.7638 19.1669C27.103 18.3479 27.6002 17.6038 28.227 16.977C28.8538 16.3502 29.5979 15.853 30.4169 15.5138C31.2358 15.1746 32.1136 15 33 15C33.8864 15 34.7641 15.1746 35.5831 15.5138C36.402 15.853 37.1462 16.3502 37.7729 16.977C38.3997 17.6038 38.8969 18.3479 39.2362 19.1669C39.5754 19.9858 39.75 20.8636 39.75 21.75V22.5H32.8125C32.1643 22.5007 31.5363 22.725 31.0342 23.1348C30.5321 23.5447 30.1867 24.1151 30.0562 24.75H26.25V21.75ZM22.5 26.25H30V27.75H22.5V26.25ZM23.333 29.25H30V30.7087C30.0013 31.0149 30.063 31.3177 30.1817 31.5999C30.3003 31.8821 30.4736 32.138 30.6915 32.353C30.9004 32.5617 31.149 32.7264 31.4226 32.8375C31.6962 32.9486 31.9892 33.0038 32.2845 32.9999C32.826 32.9903 33.3461 32.7865 33.75 32.4256C34.1621 32.7954 34.6963 32.9999 35.25 32.9999C35.8037 32.9999 36.3379 32.7954 36.75 32.4256C37.162 32.7952 37.6959 32.9998 38.2495 32.9999C38.803 33 39.3371 32.7958 39.7492 32.4263C40.0401 32.6878 40.3948 32.868 40.7775 32.9489L39.825 42H29.0855L28.5 39.6577V37.5C28.4995 37.1023 28.3413 36.7211 28.0601 36.4399C27.7789 36.1587 27.3977 36.0005 27 36H24.0433L23.333 29.25ZM16.5 3.75C16.5 3.55109 16.579 3.36032 16.7196 3.21967C16.8603 3.07902 17.0511 3 17.25 3C17.4489 3 17.6397 3.07902 17.7803 3.21967C17.921 3.36032 18 3.55109 18 3.75V36H16.5V3.75ZM7.49998 37.5H27V39H7.49998V37.5ZM9.21054 45L10.3355 40.5H11.7894L10.6644 45H9.21054ZM7.33554 40.5H8.78942L7.66442 45H6.21054L7.33554 40.5ZM13.3355 40.5H14.9004L14.3379 45H12.2105L13.3355 40.5ZM15.8495 45L16.412 40.5H18.0879L18.6504 45H15.8495ZM20.162 45L19.5995 40.5H21.1644L22.2894 45H20.162ZM23.8355 45L22.7105 40.5H24.1644L25.2894 45H23.8355ZM26.8355 45L25.7105 40.5H27.1644L28.2894 45H26.8355ZM39.75 45H29.8355L29.4605 43.5H39.75V45ZM42 28.5V30.7076C42.0035 30.9052 41.9319 31.0968 41.7996 31.2437C41.6674 31.3906 41.4844 31.4818 41.2875 31.4991C41.186 31.5041 41.0845 31.4885 40.9892 31.4532C40.8939 31.4178 40.8067 31.3635 40.7331 31.2934C40.6594 31.2234 40.6008 31.1391 40.5607 31.0457C40.5206 30.9522 40.5 30.8516 40.5 30.75V27.75H39V30.75C39 30.9489 38.921 31.1397 38.7803 31.2803C38.6397 31.421 38.4489 31.5 38.25 31.5C38.0511 31.5 37.8603 31.421 37.7197 31.2803C37.579 31.1397 37.5 30.9489 37.5 30.75V27.75H36V30.75C36 30.9489 35.921 31.1397 35.7803 31.2803C35.6397 31.421 35.4489 31.5 35.25 31.5C35.0511 31.5 34.8603 31.421 34.7197 31.2803C34.579 31.1397 34.5 30.9489 34.5 30.75V27.75H33V30.75C33.0002 30.9469 32.9229 31.136 32.7847 31.2764C32.6466 31.4168 32.4587 31.4971 32.2618 31.5H32.2515C32.0605 31.4981 31.878 31.4205 31.7441 31.2844C31.6676 31.2092 31.6067 31.1197 31.5648 31.0209C31.523 30.9222 31.5011 30.8161 31.5004 30.7088V25.3125C31.5007 24.9645 31.6391 24.6309 31.8852 24.3848C32.1312 24.1388 32.4649 24.0004 32.8129 24H40.6879C41.0358 24.0004 41.3695 24.1388 41.6155 24.3848C41.8616 24.6309 42 24.9645 42.0004 25.3125L42 28.5Z" fill="#1C1B17"/>
<path d="M38.25 36.75H36.75V40.5H38.25V36.75Z" fill="#2E9DDC"/>
<path d="M38.25 33.75H36.75V35.25H38.25V33.75Z" fill="#2E9DDC"/>
<path d="M9.0387 25.7372C9.08849 25.8865 9.184 26.0163 9.31169 26.1084C9.43938 26.2004 9.59277 26.2499 9.75016 26.2499C9.90755 26.2499 10.061 26.2004 10.1886 26.1084C10.3163 26.0163 10.4118 25.8865 10.4616 25.7372C10.659 25.1498 10.9898 24.616 11.428 24.1778C11.8662 23.7397 12.3999 23.4089 12.9873 23.2116C13.1367 23.1618 13.2666 23.0663 13.3587 22.9386C13.4508 22.8109 13.5003 22.6574 13.5003 22.5C13.5003 22.3426 13.4508 22.1891 13.3587 22.0614C13.2666 21.9337 13.1367 21.8382 12.9873 21.7884C12.3999 21.5911 11.8662 21.2604 11.428 20.8222C10.9898 20.384 10.659 19.8503 10.4616 19.2628C10.4118 19.1135 10.3163 18.9837 10.1886 18.8916C10.061 18.7996 9.90755 18.7501 9.75016 18.7501C9.59277 18.7501 9.43938 18.7996 9.31169 18.8916C9.184 18.9837 9.08849 19.1135 9.0387 19.2628C8.84132 19.8503 8.51057 20.384 8.07236 20.8222C7.63416 21.2604 7.10042 21.5911 6.51298 21.7884C6.36361 21.8382 6.23368 21.9337 6.14161 22.0614C6.04954 22.1891 6 22.3426 6 22.5C6 22.6574 6.04954 22.8109 6.14161 22.9386C6.23368 23.0663 6.36361 23.1618 6.51298 23.2116C7.10042 23.4089 7.63416 23.7397 8.07236 24.1778C8.51057 24.616 8.84132 25.1498 9.0387 25.7372ZM9.75016 21.1469C10.1194 21.6729 10.5772 22.1307 11.1032 22.5C10.5772 22.8693 10.1194 23.3271 9.75016 23.8531C9.38089 23.3271 8.92309 22.8693 8.39716 22.5C8.92309 22.1307 9.38089 21.6729 9.75016 21.1469Z" fill="#2E9DDC"/>
<path d="M45.9873 12.7884C45.3999 12.5911 44.8662 12.2604 44.428 11.8222C43.9898 11.384 43.659 10.8503 43.4616 10.2628C43.4118 10.1135 43.3163 9.98366 43.1886 9.89165C43.061 9.79963 42.9076 9.75012 42.7502 9.75012C42.5928 9.75012 42.4394 9.79963 42.3117 9.89165C42.184 9.98366 42.0885 10.1135 42.0387 10.2628C41.8413 10.8503 41.5106 11.384 41.0724 11.8222C40.6342 12.2604 40.1004 12.5911 39.513 12.7884C39.3636 12.8382 39.2337 12.9337 39.1416 13.0614C39.0495 13.1891 39 13.3426 39 13.5C39 13.6574 39.0495 13.8109 39.1416 13.9386C39.2337 14.0663 39.3636 14.1618 39.513 14.2116C40.1004 14.4089 40.6342 14.7397 41.0724 15.1778C41.5106 15.616 41.8413 16.1498 42.0387 16.7372C42.0885 16.8865 42.184 17.0164 42.3117 17.1084C42.4394 17.2004 42.5928 17.2499 42.7502 17.2499C42.9076 17.2499 43.061 17.2004 43.1886 17.1084C43.3163 17.0164 43.4118 16.8865 43.4616 16.7372C43.659 16.1498 43.9898 15.616 44.428 15.1778C44.8662 14.7397 45.3999 14.4089 45.9873 14.2116C46.1367 14.1618 46.2666 14.0663 46.3587 13.9386C46.4508 13.8109 46.5003 13.6574 46.5003 13.5C46.5003 13.3426 46.4508 13.1891 46.3587 13.0614C46.2666 12.9337 46.1367 12.8382 45.9873 12.7884ZM42.7502 14.8531C42.3809 14.3271 41.9231 13.8693 41.3972 13.5C41.9231 13.1307 42.3809 12.6729 42.7502 12.1469C43.1194 12.6729 43.5772 13.1307 44.1032 13.5C43.5772 13.8693 43.1194 14.3271 42.7502 14.8531Z" fill="#2E9DDC"/>
<path d="M5.25017 35.25C5.40757 35.25 5.56098 35.2005 5.68867 35.1084C5.81636 35.0164 5.91186 34.8865 5.96164 34.7372C6.15901 34.1498 6.48976 33.616 6.92797 33.1778C7.36617 32.7397 7.89992 32.4089 8.48735 32.2116C8.63672 32.1618 8.76665 32.0663 8.85872 31.9386C8.95079 31.8109 9.00033 31.6574 9.00033 31.5C9.00033 31.3426 8.95079 31.1891 8.85872 31.0614C8.76665 30.9337 8.63672 30.8382 8.48735 30.7884C7.89992 30.5911 7.36617 30.2604 6.92797 29.8222C6.48976 29.384 6.15901 28.8503 5.96164 28.2628C5.91184 28.1135 5.81633 27.9837 5.68864 27.8917C5.56096 27.7996 5.40756 27.7501 5.25017 27.7501C5.09278 27.7501 4.93938 27.7996 4.81169 27.8917C4.684 27.9837 4.5885 28.1135 4.5387 28.2628C4.34133 28.8503 4.01057 29.384 3.57237 29.8222C3.13416 30.2604 2.60042 30.5911 2.01298 30.7884C1.86361 30.8382 1.73368 30.9337 1.64161 31.0614C1.54955 31.1891 1.5 31.3426 1.5 31.5C1.5 31.6574 1.54955 31.8109 1.64161 31.9386C1.73368 32.0663 1.86361 32.1618 2.01298 32.2116C2.60042 32.4089 3.13416 32.7397 3.57237 33.1778C4.01057 33.616 4.34133 34.1498 4.5387 34.7372C4.58848 34.8865 4.68397 35.0164 4.81166 35.1084C4.93935 35.2005 5.09276 35.25 5.25017 35.25ZM5.25017 30.1469C5.61944 30.6729 6.07724 31.1307 6.60317 31.5C6.07724 31.8693 5.61944 32.3271 5.25017 32.8531C4.8809 32.3271 4.4231 31.8693 3.89717 31.5C4.4231 31.1307 4.8809 30.6729 5.25017 30.1469Z" fill="#2E9DDC"/>
</svg>
