<svg viewBox="0 0 112 68" fill="none" xmlns="http://www.w3.org/2000/svg" id="icon-glass">
<g clip-path="url(#clip0)">
<path d="M102 23V50C102 50.6 102.4 51 103 51C103.6 51 104 50.6 104 50V23H102ZM92.0001 23V50C92.0001 50.6 92.4001 51 93.0001 51C93.6001 51 94.0001 50.6 94.0001 50L94.2001 23H92.0001ZM57.2001 62C66.1001 62 73.1001 55 73.1001 46.2C73.1001 37.3 65.9001 30 57.1001 30C48.3001 30 41.1001 37.3 41.1001 46.2C41.2001 55 48.3001 62 57.2001 62ZM57.2001 64C47.3001 64 39.1001 56.1 39.1001 46.2C39.1001 36.3 47.2001 28 57.2001 28C67.2001 28 75.2001 36.2 75.2001 46.2C75.2001 56.2 67.1001 64 57.2001 64ZM61.0001 8V28.5C59.9001 28.2 58.9001 28.1 57.8001 28.1L59.0001 28V8H55.0001V28L56.6001 28.1C55.4001 28.1 54.1001 28.3 53.0001 28.5V8H52.0001C51.4001 8 51.0001 7.6 51.0001 7C51.0001 6.4 51.5001 6 52.0001 6H62.0001C62.6001 6 63.0001 6.4 63.0001 7C63.0001 7.6 62.5001 8 62.0001 8H61.0001ZM96.0001 23V50C96.0001 51.7 94.7001 53 93.0001 53C91.3001 53 90.0001 51.7 90.0001 50L90.2001 23C89.6001 23 89.2001 22.6 89.2001 22C89.2001 21.4 89.7001 21 90.2001 21H96.2001C96.8001 21 97.2001 21.4 97.2001 22C97.2001 22.6 96.7001 23 96.2001 23H96.0001ZM106 23V50C106 51.7 104.7 53 103 53C101.3 53 100 51.7 100 50V23C99.4001 23 99.0001 22.6 99.0001 22C99.0001 21.4 99.5001 21 100 21H106C106.6 21 107 21.4 107 22C107 22.6 106.5 23 106 23Z" fill="#1692D0"/>
<path d="M20.9999 35.2V35V18C21.4999 18 21.9999 17.6 21.9999 17C21.9999 16.4 21.5999 16 20.9999 16H12.9999C12.4999 16 11.9999 16.4 11.9999 17C11.9999 17.6 12.3999 18 12.9999 18V35L1.09992 59.5C-0.100077 62 1.19992 64 3.89992 64H29.9999C32.7999 64 33.9999 62 32.7999 59.5L20.9999 35.2ZM31.1999 61.6C31.0999 61.8 30.6999 62 29.9999 62H3.89992C3.19992 62 2.79992 61.8 2.69992 61.6C2.59992 61.4 2.59992 61 2.89992 60.3L14.7999 35.5L14.9999 35.1V18H18.9999C18.9999 21.2 19.0999 31.1 19.0999 34.8V35.5L19.2999 35.9L30.9999 60.4C31.2999 61 31.2999 61.5 31.1999 61.6ZM110.2 34H106V36H110.2V64H112V34H110.2ZM83.9999 34V64H85.9999V36H90.0999V34H86.1999H83.9999ZM95.9999 34H99.9999V36H95.9999V34Z" fill="#3C3C3C"/>
</g>
<defs>
<clipPath id="clip0">
<rect width="112" height="68" fill="white"/>
</clipPath>
</defs>
</svg>
