<svg viewBox="0 0 112 68" fill="none" xmlns="http://www.w3.org/2000/svg" id="icon-prod">
<path d="M39.3272 62.0335V50.4895C39.3272 48.5442 40.3633 46.2871 42.7392 43.3498C43.6064 42.2778 44.5121 40.5947 45.4244 38.4539C45.9202 37.2906 46.3921 36.0558 46.868 34.7113C47.1233 33.9899 47.7039 32.2796 47.7277 32.2124C47.7296 32.2068 47.9166 31.6827 47.98 31.5013C48.0913 31.1828 48.1889 30.8919 48.2813 30.5991C48.5217 29.8372 48.7037 29.1339 48.8181 28.4804C49.1058 26.8357 48.9139 25.8024 48.3081 25.4543C47.6314 25.0655 47.1784 25.2343 46.6846 25.89C46.4571 26.192 46.3015 26.5028 46.2196 26.7192L43.8022 32.4518C43.7228 32.64 43.6412 32.7964 43.5461 32.9284C43.2859 33.2896 42.9548 33.529 42.395 33.3964C41.8337 33.2634 41.6452 32.8994 41.5758 32.4587C41.5505 32.2977 41.5482 32.121 41.5623 31.9181C41.5712 31.7863 41.5882 31.5397 41.6123 31.1948C41.6525 30.6202 41.6981 29.98 41.7482 29.2906C41.8916 27.3207 42.0426 25.3506 42.1946 23.5112C42.2981 22.2578 42.3985 21.1083 42.4947 20.085C42.6273 18.6748 42.7496 17.527 42.8601 16.6789C43.4023 12.5184 43.022 10.7109 41.8529 10.5445C41.2512 10.4589 40.8431 10.6659 40.5062 11.116C40.3362 11.3432 40.2256 11.576 40.1744 11.7241L38.2266 26.2903C38.2044 26.4563 38.1808 26.5919 38.153 26.703C38.1304 26.7935 38.1044 26.874 38.0643 26.9598C38.0149 27.0622 38.0149 27.0622 37.8845 27.2299C37.6519 27.4608 37.6519 27.4608 37.0593 27.5569C36.4984 27.3762 36.4984 27.3762 36.3079 27.127C36.2036 26.9505 36.2036 26.9505 36.1676 26.8454C36.1384 26.7568 36.1221 26.6744 36.1102 26.5827C36.0953 26.4684 36.0872 26.3295 36.084 26.1598C36.0824 26.0781 36.0824 26.0781 36.0754 25.7072C36.0659 25.2101 36.0608 24.9393 36.0525 24.4978C36.029 23.2365 36.0054 21.9453 35.9833 20.6982C35.9757 20.2654 35.9757 20.2654 35.9681 19.8301C35.9141 16.7106 35.8825 14.5571 35.8825 13.7846C35.8825 13.5114 35.8861 13.412 35.92 12.6098C35.956 11.7555 35.966 11.2332 35.9458 10.6781C35.876 8.7607 35.444 7.82657 34.5989 7.73237C33.8597 7.64999 33.3908 8.07781 33.054 9.04623C32.9267 9.41252 32.8383 9.8163 32.7844 10.2218C32.7522 10.4646 32.739 10.6481 32.7357 10.7665L31.9404 25.8769C31.9318 26.0391 31.9211 26.1701 31.9072 26.2738C31.8968 26.3513 31.8842 26.4195 31.864 26.4911C31.84 26.5744 31.84 26.5744 31.7688 26.7248C31.6473 26.9619 31.6473 26.9619 31.0105 27.2405C30.2335 27.0816 30.2335 27.0816 30.0409 26.7896C29.9451 26.6148 29.9451 26.6148 29.9159 26.5227C29.8921 26.4468 29.8778 26.3763 29.8658 26.2957C29.8505 26.1932 29.8385 26.0641 29.8283 25.9007C29.8217 25.7902 29.8089 25.581 29.7901 25.2861C29.7587 24.7939 29.722 24.2422 29.6805 23.6439C29.562 21.9347 29.4283 20.1959 29.2823 18.5325C29.2519 18.187 29.2253 17.8391 29.1861 17.2938C29.0967 16.0508 29.0887 15.9425 29.0455 15.4494C28.7106 11.6267 28.0202 9.92008 26.7192 9.92008C25.797 9.92008 25.3558 10.3441 25.1395 11.2187C25.0186 11.7074 24.999 12.2536 25.0412 12.7411C25.0479 12.8194 25.0541 12.8707 25.0644 12.9542L26.1943 26.5189C26.2085 26.6902 26.2142 26.8319 26.2098 26.951C26.2062 27.0476 26.1966 27.1355 26.1733 27.2313C26.144 27.3442 26.144 27.3442 26.0512 27.5305C25.8802 27.7856 25.8802 27.7856 25.3867 28.0037C24.8298 27.9966 24.8298 27.9966 24.5555 27.8082C24.3923 27.6567 24.3923 27.6567 24.3232 27.5555C24.267 27.4706 24.2278 27.389 24.1917 27.2969C24.148 27.1855 24.1068 27.0495 24.0621 26.8754C24.0175 26.6961 23.9367 26.3797 23.8295 25.972C23.6509 25.2928 23.4649 24.6138 23.2813 23.9818C23.194 23.6814 23.1093 23.3987 23.0277 23.1366C22.8933 22.7046 22.7697 22.3354 22.6601 22.0414C22.5037 21.6219 21.8416 18.9202 21.6399 18.2412C20.9372 15.8756 20.1641 14.7459 19.467 14.8669C18.7037 14.9994 18.3154 15.3794 18.1237 16.0135C17.9978 16.4301 17.9777 16.9026 18.0232 17.3239C18.0305 17.3913 18.6497 21.3651 18.6497 21.3651L20.7495 31.3194L21.5236 39.3345C21.6252 40.3947 21.8879 42.1331 22.1051 43.1801L23.2789 48.8396L23.2997 49.0426V62.0335H39.3272ZM44.3617 25.9801C44.4899 25.6374 44.7257 25.1665 45.087 24.6868C46.1257 23.3077 47.6185 22.7515 49.3044 23.7202C50.869 24.6191 51.2063 26.4352 50.7881 28.825C50.6567 29.5762 50.4536 30.3613 50.1886 31.201C50.0894 31.5152 49.9856 31.8248 49.868 32.1613C49.802 32.3499 49.6135 32.8783 49.6135 32.8785C49.5952 32.9302 49.0143 34.6411 48.7534 35.3785C48.2647 36.7595 47.7785 38.0316 47.2643 39.2381C46.2854 41.535 45.3032 43.3602 44.2942 44.6076C42.1798 47.2215 41.3272 49.079 41.3272 50.4895V64.0335H21.2997V49.1452L20.1468 43.5863C19.9149 42.4681 19.6412 40.6578 19.5327 39.5252L18.781 31.6771L16.6832 21.7256L16.073 17.8125C16.0618 17.752 16.0478 17.6593 16.0348 17.5389C15.9629 16.8736 15.9938 16.1477 16.2092 15.4348C16.6095 14.1105 17.5755 13.1653 19.1249 12.8964C21.2118 12.5342 22.4466 14.1748 23.4129 17.2031L23.0788 13.1849C23.0702 13.1267 23.0591 13.0346 23.0486 12.9134C22.9891 12.2258 23.0161 11.4738 23.198 10.7386C23.618 9.03997 24.7834 7.92008 26.7192 7.92008C28.9617 7.92008 30.067 9.41064 30.6494 12.3585L30.7374 10.6885C30.7525 10.0952 30.8642 9.25431 31.165 8.38929C31.7743 6.63722 32.9776 5.5393 34.8204 5.74468C37.0029 5.98792 37.8425 7.80346 37.9445 10.6054C37.9671 11.2268 37.9563 11.7907 37.9182 12.6941C37.8866 13.4419 37.8826 13.5503 37.8825 13.7737L38.2032 11.3754C38.333 10.8799 38.5422 10.4024 38.905 9.91769C39.6499 8.9223 40.7453 8.3667 42.1348 8.56449C44.9417 8.96403 45.5225 11.7251 44.8434 16.9373C44.7365 17.7573 44.6165 18.8837 44.486 20.2721C44.3905 21.2873 44.2907 22.4295 44.1878 23.6758C44.0987 24.7541 44.0099 25.8779 43.9228 27.0205L44.3617 25.9801ZM90.3208 64.0335H70.3603V50.4112C70.3603 48.7984 69.6739 47.1022 67.656 44.6076C66.647 43.3602 65.6648 41.535 64.6859 39.2381C64.1717 38.0316 63.6856 36.7595 63.1968 35.3785C62.9359 34.6411 62.355 32.9302 62.3368 32.8785C62.3367 32.8783 62.1482 32.3499 62.0823 32.1613C61.9647 31.8248 61.8608 31.5152 61.7616 31.201C61.4967 30.3613 61.2935 29.5762 61.1621 28.825C60.744 26.4352 61.0812 24.6191 62.6458 23.7202C64.3317 22.7515 65.8246 23.3077 66.8633 24.6868C67.2246 25.1665 67.4603 25.6374 67.5734 25.9421L68.0273 27.0183C67.9402 25.8765 67.8514 24.7534 67.7624 23.6758C67.6595 22.4295 67.5597 21.2873 67.4643 20.2721C67.3337 18.8837 67.2137 17.7573 67.1068 16.9373C66.4277 11.7251 67.0085 8.96403 69.8154 8.56449C71.205 8.3667 72.3003 8.9223 73.0452 9.91769C73.408 10.4024 73.6173 10.8799 73.718 11.2354L74.0677 13.7737C74.0676 13.5398 74.0633 13.4365 74.0247 12.6182C73.9827 11.7274 73.9688 11.162 73.9865 10.5452C74.0683 7.70852 74.8885 5.87594 77.0717 5.63262C78.9171 5.42695 80.1258 6.54519 80.7552 8.32921C81.0667 9.2119 81.1895 10.0712 81.2118 10.6614L81.301 12.3571C81.8835 9.41019 82.9889 7.92008 85.2311 7.92008C87.1668 7.92008 88.3322 9.03997 88.7523 10.7386C88.9341 11.4738 88.9611 12.2258 88.9016 12.9134C88.8912 13.0346 88.8801 13.1267 88.8789 13.1202L88.5394 17.1968C89.5053 14.1725 90.7399 12.5344 92.8253 12.8964C94.3748 13.1653 95.3407 14.1105 95.741 15.4348C95.9565 16.1477 95.9873 16.8736 95.9154 17.5389C95.9024 17.6593 95.8885 17.752 95.8822 17.7834L95.2574 21.7779L93.1693 31.6772L92.4175 39.5252C92.3078 40.671 91.9975 42.4808 91.7196 43.5949L90.3208 49.2021V64.0335ZM88.3208 48.9564L89.779 43.1109C90.0329 42.0932 90.3263 40.3815 90.4266 39.3345L91.1837 31.4305L93.2909 21.4173L93.9111 17.446C93.9725 16.9026 93.9525 16.4301 93.8265 16.0135C93.6349 15.3794 93.2465 14.9994 92.4833 14.8669C91.7862 14.7459 91.013 15.8756 90.3103 18.2412C90.1086 18.9202 89.4465 21.6219 89.2901 22.0414C89.1805 22.3354 89.0569 22.7046 88.9225 23.1366C88.841 23.3987 88.7562 23.6814 88.669 23.9818C88.4853 24.6138 88.2993 25.2928 88.1207 25.972C88.0135 26.3797 87.9328 26.6961 87.8864 26.882C87.8435 27.0495 87.8022 27.1855 87.7586 27.2969C87.7224 27.389 87.6833 27.4706 87.627 27.5555C87.5579 27.6567 87.5579 27.6567 87.3948 27.8082C87.1204 27.9966 87.1204 27.9966 86.5635 28.0037C86.07 27.7856 86.07 27.7856 85.899 27.5305C85.8062 27.3442 85.8062 27.3442 85.7769 27.2313C85.7536 27.1355 85.744 27.0476 85.7404 26.951C85.736 26.8319 85.7417 26.6902 85.756 26.5189L86.8933 12.8895C86.9512 12.2536 86.9316 11.7074 86.8108 11.2187C86.5945 10.3441 86.1532 9.92008 85.2311 9.92008C83.93 9.92008 83.2396 11.6267 82.9048 15.4494C82.8616 15.9425 82.8535 16.0508 82.7642 17.2938C82.725 17.8391 82.6983 18.187 82.668 18.5325C82.5219 20.1959 82.3882 21.9347 82.2697 23.6439C82.2282 24.2422 82.1916 24.7939 82.1602 25.2861C82.1414 25.581 82.1285 25.7902 82.1217 25.9038C82.1117 26.0641 82.0997 26.1932 82.0844 26.2957C82.0724 26.3763 82.0581 26.4468 82.0344 26.5227C82.0052 26.6148 82.0052 26.6148 81.9093 26.7896C81.7168 27.0816 81.7168 27.0816 80.9397 27.2405C80.303 26.9619 80.303 26.9619 80.1814 26.7248C80.1102 26.5744 80.1102 26.5744 80.0862 26.4911C80.0661 26.4195 80.0535 26.3513 80.043 26.2738C80.0291 26.1701 80.0184 26.0391 80.0099 25.8769L79.2139 10.7519C79.2103 10.6563 79.1945 10.4657 79.1585 10.2142C79.0984 9.79382 79.0034 9.37514 78.8692 8.99466C78.514 7.98808 78.028 7.53842 77.2933 7.62031C76.4654 7.71258 76.0417 8.65911 75.9857 10.6028C75.9698 11.1558 75.9827 11.6805 76.0225 12.5239C76.064 13.404 76.0677 13.4953 76.0677 13.7846C76.0677 14.5571 76.0362 16.7106 75.9821 19.8301C75.9745 20.2654 75.9745 20.2654 75.9669 20.6982C75.9449 21.9453 75.9213 23.2365 75.8977 24.4978C75.8894 24.9393 75.8843 25.2101 75.8749 25.7072C75.8678 26.0781 75.8678 26.0781 75.8662 26.1596C75.863 26.3295 75.8549 26.4684 75.84 26.5827C75.8281 26.6744 75.8118 26.7568 75.7826 26.8454C75.7466 26.9505 75.7466 26.9505 75.6423 27.127C75.4518 27.3762 75.4518 27.3762 74.8909 27.5569C74.2983 27.4608 74.2983 27.4608 74.0657 27.2299C73.9354 27.0622 73.9354 27.0622 73.8859 26.9598C73.8458 26.874 73.8198 26.7935 73.7972 26.703C73.7695 26.5919 73.7458 26.4563 73.7236 26.2903L71.7758 11.7241C71.7246 11.576 71.614 11.3432 71.444 11.116C71.1071 10.6659 70.699 10.4589 70.0973 10.5445C68.9282 10.7109 68.548 12.5184 69.0901 16.6789C69.2006 17.527 69.3229 18.6748 69.4555 20.085C69.5517 21.1083 69.6521 22.2578 69.7557 23.5112C69.9076 25.3506 70.0587 27.3207 70.202 29.2906C70.2521 29.98 70.2977 30.6202 70.3379 31.1948C70.362 31.5397 70.379 31.7863 70.3878 31.9165C70.402 32.121 70.3997 32.2977 70.3744 32.4587C70.305 32.8994 70.1166 33.2634 69.5553 33.3964C68.9954 33.529 68.6644 33.2896 68.4042 32.9284C68.309 32.7964 68.2274 32.64 68.148 32.4518L65.7155 26.6812C65.6487 26.5028 65.4931 26.192 65.2657 25.89C64.7718 25.2343 64.3188 25.0655 63.6421 25.4543C63.0363 25.8024 62.8444 26.8357 63.1322 28.4804C63.2465 29.1339 63.4285 29.8372 63.6689 30.5991C63.7613 30.8919 63.8589 31.1828 63.9702 31.5013C64.0336 31.6827 64.2206 32.2068 64.2226 32.2124C64.2463 32.2796 64.827 33.9899 65.0823 34.7113C65.5581 36.0558 66.03 37.2906 66.5258 38.4539C67.4382 40.5947 68.3439 42.2778 69.211 43.3498C71.4999 46.1795 72.3603 48.3056 72.3603 50.4112V62.0335H88.3208V48.9564Z" fill="#1692D0"/>
<path fill-rule="evenodd" clip-rule="evenodd" d="M19.3372 63C19.3372 62.4477 19.7846 62 20.3379 62H42.3365C42.8891 62 43.3372 62.4439 43.3372 63C43.3372 63.5523 42.8897 64 42.3365 64H20.3379C19.7852 64 19.3372 63.5561 19.3372 63ZM68.3372 63C68.3372 62.4477 68.7846 62 69.3379 62H91.3365C91.8891 62 92.3372 62.4439 92.3372 63C92.3372 63.5523 91.8897 64 91.3365 64H69.3379C68.7852 64 68.3372 63.5561 68.3372 63Z" fill="#39393A"/>
</svg>
