<svg viewBox="0 0 16 16" fill="none" xmlns="http://www.w3.org/2000/svg" id="icon-search">
<g clip-path="url(#clip0)">
<path d="M6.59505 13.1774C2.96202 13.1774 0.00634766 10.2217 0.00634766 6.58871C0.00634766 2.95567 2.96202 0 6.59505 0C10.2281 0 13.1838 2.95567 13.1838 6.58871C13.1838 10.2217 10.2281 13.1774 6.59505 13.1774ZM6.59505 1.24904C3.65074 1.24904 1.25539 3.6444 1.25539 6.58871C1.25539 9.53301 3.65074 11.9284 6.59505 11.9284C9.53936 11.9284 11.9347 9.53301 11.9347 6.58871C11.9347 3.6444 9.53936 1.24904 6.59505 1.24904Z" fill="#1C1B17"/>
<path d="M15.8609 14.9777C16.1047 15.2215 16.1047 15.617 15.8609 15.8609C15.7389 15.9828 15.5791 16.0438 15.4193 16.0438C15.2594 16.0438 15.0996 15.9828 14.9776 15.8609L12.1829 13.0662C11.939 12.8223 11.939 12.4268 12.1829 12.1829C12.4268 11.939 12.8222 11.939 13.0661 12.1829L15.8609 14.9777Z" fill="#2E9DDC"/>
</g>
<defs>
<clipPath id="clip0">
<rect width="16" height="16" fill="white"/>
</clipPath>
</defs>
</svg>
