<svg id="icon-c-in" viewBox="0 0 48 48" fill="none" xmlns="http://www.w3.org/2000/svg">
<path d="M22.8817 31.7535C22.4429 31.7674 22.0128 31.795 21.592 31.8366C18.3287 32.159 15.2217 32.7929 12.3271 33.6471C10.8104 34.0946 9.44744 34.5748 8.25777 35.056C7.83886 35.2255 7.47076 35.3834 7.15594 35.5258C6.96314 35.6131 6.8286 35.677 6.75478 35.7136C6.2496 35.9645 6.04344 36.5774 6.29429 37.0826C6.54515 37.5877 7.15804 37.7939 7.66322 37.543C7.71538 37.5171 7.82779 37.4638 7.99792 37.3868C8.28799 37.2555 8.63076 37.1085 9.02372 36.9495C10.1537 36.4924 11.4543 36.0343 12.9053 35.6061C15.6817 34.7867 18.6636 34.1784 21.7928 33.8692C21.9417 33.8545 22.0921 33.8418 22.244 33.831L22.8817 31.7535ZM28.0956 32.1383C30.6108 32.5483 33.2413 33.256 35.9029 34.1815C37.427 34.7114 38.8628 35.2791 40.1686 35.8471C40.6267 36.0464 41.0363 36.2317 41.3921 36.3985C41.608 36.4996 41.7594 36.5729 41.8412 36.6135C42.3462 36.8648 42.552 37.4778 42.3008 37.9828C42.0495 38.4878 41.4365 38.6935 40.9315 38.4423C40.8637 38.4086 40.7265 38.3423 40.5254 38.248C40.1864 38.0891 39.794 37.9116 39.3538 37.7201C38.0931 37.1717 36.7046 36.6228 35.232 36.1107C32.2172 35.0624 29.2542 34.308 26.499 33.9735C26.4657 33.9695 26.4325 33.9655 26.3992 33.9616L28.0956 32.1383Z" fill="#39393A"/>
<path d="M29.4613 30.67C29.9551 30.9493 30.5757 30.7825 30.8558 30.2973L41.0692 12.6072L39.3003 11.5859L29.5981 28.3905L26.0603 26.3479L35.7625 9.54337L33.9936 8.52209L23.7802 26.2122C23.4956 26.705 23.6678 27.3197 24.1546 27.6062L20.1377 40.6914L29.4613 30.67L29.4613 30.67Z" fill="#1692D0"/>
</svg>
