<svg viewBox="0 0 176 112" fill="none" xmlns="http://www.w3.org/2000/svg" id="icon-lab-2">
<path d="M140.144 77.0882C140.302 77.0882 140.536 76.8812 140.554 76.7333L140.564 76.6594C140.712 75.46 140.441 73.2736 140.001 72.141L136.782 63.8526C136.621 63.4371 135.877 62.9265 135.444 62.9265H104.778C101.267 62.9265 99.5453 65.2605 100.581 68.6325L103.18 77.0882H140.144ZM12.2857 103.838V103.051C12.2857 100.864 14.0446 99.1177 16.2143 99.1177H23.2857V81.8088H26.4286V99.1177H33.5C35.6606 99.1177 37.4286 100.879 37.4286 103.051V103.838H34.2857V103.051C34.2857 102.621 33.9291 102.265 33.5 102.265H16.2143C15.7732 102.265 15.4286 102.609 15.4286 103.051V103.838H12.2857ZM97.2619 65.435L104.262 61.0799C104.262 61.0799 132.308 60.8976 132.969 60.938C133.239 60.9546 133.452 59.7052 133.609 58.2252L163.477 18.6187L163.62 18.4543C163.792 18.2825 164.048 18.0725 164.388 17.868C165.825 17.0051 167.538 17.0051 168.985 18.4543C170.433 19.9036 170.433 21.6192 169.571 23.0574C169.41 23.3262 169.245 23.5427 169.099 23.7065L145.665 57.3295C145.559 57.5136 145.363 57.8755 145.108 58.3849C144.677 59.2425 144.246 60.1881 143.844 61.1907C143.018 63.2497 142.428 65.2677 142.175 67.1231C142.099 67.6769 142.055 68.2087 142.043 68.7164L142.93 71.0005C143.559 72.6202 143.895 75.3318 143.683 77.0473L143.673 77.1212C143.46 78.8411 141.892 80.2353 140.144 80.2353H128.768L130.143 102.265H112.857L114.232 80.2353H102.435C101.564 80.2353 100.649 79.5547 100.396 78.7311L97.5776 69.558C97.1249 68.0849 97.0367 66.6879 97.2619 65.435ZM101.408 54.1789L96.7903 56.8536H87.7104C85.9775 56.8536 84.5714 55.4499 84.5714 53.7155V33.0294C84.5714 32.1604 85.275 31.4559 86.1428 31.4559C87.0107 31.4559 87.7143 32.1604 87.7143 33.0294V53.7066H100.286C100.725 53.7066 101.123 53.8874 101.408 54.1789ZM122.305 53.3286L119.678 47.1912H111.286C110.418 47.1912 109.714 46.4867 109.714 45.6177C109.714 44.7486 110.418 44.0441 111.286 44.0441H121.75L125.745 53.3764L122.305 53.3286ZM140.927 60.0182C141.364 58.9289 141.831 57.904 142.3 56.9715C142.583 56.4068 142.807 55.9935 143.014 55.6446L166.585 21.8137L166.763 21.6014C166.766 21.5984 166.818 21.5345 166.876 21.4383C167.062 21.1281 167.062 20.9788 166.763 20.6797C166.464 20.3805 166.315 20.3805 166.005 20.5666C165.957 20.5959 165.916 20.6237 165.888 20.6445L136.24 59.9581C137.453 60.2918 138.582 61.2531 139.029 62.4083C139.123 62.6502 139.286 63.0738 139.497 63.6187C139.538 63.7231 139.578 63.8274 139.619 63.9317C139.955 62.6467 140.399 61.3365 140.927 60.0182ZM125.619 80.2353H117.381L116.203 99.1177H126.797L125.619 80.2353Z" fill="#39393A"/>
<path d="M69.6575 75.3114C68.8899 75.7771 68.6264 76.8048 69.0806 77.5946L69.7405 78.7423C70.1643 79.4795 71.0403 79.705 71.7633 79.2626L103.602 59.7794H131.428C132.285 59.7794 132.989 59.0701 132.989 58.1913V56.6469C132.989 55.7737 132.275 55.0588 131.408 55.0588H103.035L69.6575 75.3114ZM131.428 62.9265H104.486L73.4021 81.9479C71.1638 83.3176 68.3188 82.577 67.0168 80.3126L66.3569 79.1649C65.0485 76.8894 65.8034 73.9702 68.0287 72.6199L102.157 51.9118H131.408C134.007 51.9118 136.132 54.0318 136.132 56.6469V58.1913C136.132 60.8027 134.026 62.9265 131.428 62.9265ZM143.097 32.1846L155.664 16.0782C157.536 13.6787 160.987 13.2435 163.389 15.1225C165.786 16.9975 166.209 20.4538 164.332 22.8595L151.765 38.966C149.893 41.3655 146.441 41.8006 144.04 39.9216C141.643 38.0466 141.22 34.5904 143.097 32.1846ZM145.975 37.4417C147.008 38.2499 148.484 38.0592 149.288 37.0284L161.855 20.922C162.666 19.8827 162.48 18.4049 161.454 17.6024C160.421 16.7943 158.945 16.9849 158.14 18.0157L145.573 34.1221C144.763 35.1614 144.949 36.6392 145.975 37.4417ZM68.8571 14.1563C68.8571 12.4131 70.2552 11 71.9861 11H100.3C102.028 11 103.429 12.4116 103.429 14.1563V29.8731C103.429 31.6163 102.031 33.0294 100.3 33.0294H71.9861C70.258 33.0294 68.8571 31.6179 68.8571 29.8731V14.1563ZM100.289 29.8824C100.286 29.8817 100.286 14.1563 100.286 14.1563C100.286 14.1493 71.9966 14.1471 71.9966 14.1471C71.9993 14.1477 72 29.8731 72 29.8731C72 29.8801 100.289 29.8824 100.289 29.8824ZM99.9454 104.786C101.459 101.655 105.508 99.1176 108.967 99.1176H135.633C139.101 99.1176 142.87 101.757 144.063 105.043L145.938 110.212C146.237 111.037 145.774 111.706 144.904 111.706H98.1738C97.3039 111.706 96.9089 111.064 97.2852 110.286L99.9454 104.786ZM141.994 108.559L141.109 106.118C140.369 104.08 137.784 102.265 135.633 102.265H108.967C106.71 102.265 103.762 104.115 102.774 106.157L101.613 108.559H141.994ZM43.7143 76.3015C43.7143 79.3369 41.25 81.8088 38.2101 81.8088H11.5042C8.47454 81.8088 6 79.3431 6 76.3015C6 73.266 8.4643 70.7941 11.5042 70.7941H38.2101C41.2397 70.7941 43.7143 73.2598 43.7143 76.3015ZM40.5714 76.3015C40.5714 75.0029 39.509 73.9412 38.2101 73.9412H11.5042C10.2022 73.9412 9.14286 75.002 9.14286 76.3015C9.14286 77.6001 10.2053 78.6618 11.5042 78.6618H38.2101C39.5121 78.6618 40.5714 77.601 40.5714 76.3015ZM40.5714 106.985C40.5714 109.601 38.464 111.706 35.8571 111.706C33.2447 111.706 31.1429 109.596 31.1429 106.985C31.1429 104.369 33.2503 102.265 35.8571 102.265C38.4696 102.265 40.5714 104.375 40.5714 106.985ZM18.5714 106.985C18.5714 109.601 16.464 111.706 13.8571 111.706C11.2447 111.706 9.14286 109.596 9.14286 106.985C9.14286 104.369 11.2503 102.265 13.8571 102.265C16.4696 102.265 18.5714 104.375 18.5714 106.985ZM37.4286 106.985C37.4286 106.111 36.732 105.412 35.8571 105.412C34.9841 105.412 34.2857 106.109 34.2857 106.985C34.2857 107.859 34.9823 108.559 35.8571 108.559C36.7301 108.559 37.4286 107.861 37.4286 106.985ZM15.4286 106.985C15.4286 106.111 14.732 105.412 13.8571 105.412C12.9841 105.412 12.2857 106.109 12.2857 106.985C12.2857 107.859 12.9823 108.559 13.8571 108.559C14.7301 108.559 15.4286 107.861 15.4286 106.985Z" fill="#1692D0"/>
</svg>
