<svg id="icon-med-1" viewBox="0 0 288 174" fill="none" xmlns="http://www.w3.org/2000/svg">
<path d="M80.4308 119.083H47.0081C44.1753 119.083 41.8594 116.77 41.8594 113.917V101H87.1846L101.959 82.4459C102.851 81.3264 104.737 80.4172 106.16 80.4151L162.868 80.3333C167.132 80.3272 170.431 83.8173 170.431 88.0842V101H200.565L248.36 71.7039L255.914 82.4386C257.594 84.8249 256.916 88.0486 254.45 89.5866L209.981 117.326C208.358 118.339 205.759 119.083 203.853 119.083H165.288V152.667H185.851C187.276 152.667 188.431 153.813 188.431 155.25V157.833H67.5737V155.25C67.5737 153.823 68.7311 152.667 70.1538 152.667H80.4308V119.083ZM93.7707 101H165.288L165.446 88.0731C165.446 86.6571 164.291 85.4979 162.876 85.5L106.167 85.5818C106.301 85.5816 105.891 85.7798 105.975 85.6735L93.7707 101ZM134.44 13.2906C133.019 13.2955 131.864 12.1429 131.859 10.7161C131.855 9.28941 133.002 8.12887 134.422 8.124L170.542 8.00009C179.083 7.97079 185.994 14.8815 185.994 23.4725V88.0697C185.994 89.4964 184.843 90.653 183.422 90.653C182.002 90.653 180.851 89.4964 180.851 88.0697V23.4725C180.851 17.7433 176.254 13.1472 170.559 13.1667L134.44 13.2906ZM47.0022 106.167V113.917C47.0022 113.91 203.853 113.917 203.853 113.917C204.8 113.917 206.46 113.441 207.269 112.937L251.612 85.2752L246.935 78.6295L202.01 106.167H47.0022ZM67.5737 59.6667H72.7165V85.5H67.5737V59.6667ZM85.5737 119.083V152.667H160.145V119.083H85.5737Z" fill="#39393A"/>
<path fill-rule="evenodd" clip-rule="evenodd" d="M170.029 85.5001H196.162L247.094 52.7544C249.489 51.2145 252.756 51.8296 254.407 54.1521L261.287 63.8282C262.931 66.14 262.299 69.219 259.888 70.697L251.313 75.9533L248.326 71.732L256.865 66.4973L250.222 57.1553C250.17 57.0815 197.666 90.6668 197.666 90.6668H170.434C170.43 89.1309 170.418 87.5287 170.381 87.1852C170.305 86.4888 170.196 86.1295 170.196 86.1295C170.153 85.9159 170.097 85.7059 170.029 85.5001ZM99.6226 85.5001H31.5566C28.7335 85.5001 26.4307 87.8111 26.4307 90.6619V101.005C26.4307 103.876 28.741 106.167 31.5908 106.167H41.8592V101.002C35.3837 101.002 31.5738 101.003 31.5735 101.003V90.6668H95.5925L99.6226 85.5001ZM149.876 57.0834H139.605C136.757 57.0834 134.447 54.766 134.447 51.9016V26.0986C134.447 23.2367 136.754 20.9168 139.605 20.9168H142.162V10.5834H147.304V20.9168H157.59V10.5834H162.733V20.9168H165.289C168.138 20.9168 170.447 23.2342 170.447 26.0986V51.9016C170.447 54.7635 168.141 57.0834 165.289 57.0834H155.019V80.3334H149.876V57.0834ZM139.59 51.9016C139.59 51.9113 165.289 51.9168 165.289 51.9168C165.299 51.9168 165.304 26.0986 165.304 26.0986C165.304 26.0889 139.605 26.0834 139.605 26.0834C139.596 26.0834 139.59 51.9016 139.59 51.9016ZM183.304 155.25C183.304 150.97 186.767 147.5 191.019 147.5C195.279 147.5 198.733 150.979 198.733 155.25C198.733 159.53 195.271 163 191.019 163C186.758 163 183.304 159.522 183.304 155.25ZM188.447 155.25C188.447 156.672 189.602 157.833 191.019 157.833C192.434 157.833 193.59 156.673 193.59 155.25C193.59 153.828 192.435 152.667 191.019 152.667C189.603 152.667 188.447 153.827 188.447 155.25ZM44.4473 28.6819C44.4473 25.8201 46.757 23.5001 49.5665 23.5001H90.7567C93.5839 23.5001 95.8759 25.8175 95.8759 28.6819V54.485C95.8759 57.3468 93.5662 59.6668 90.7567 59.6668H49.5665C46.7392 59.6668 44.4473 57.3494 44.4473 54.485V28.6819ZM90.7567 54.5001C90.7261 54.5001 90.733 28.6819 90.733 28.6819C90.733 28.6707 49.5665 28.6668 49.5665 28.6668C49.5971 28.6668 49.5902 54.485 49.5902 54.485C49.5902 54.4962 90.7567 54.5001 90.7567 54.5001ZM57.3044 155.25C57.3044 150.97 60.7669 147.5 65.0187 147.5C69.2792 147.5 72.733 150.979 72.733 155.25C72.733 159.53 69.2705 163 65.0187 163C60.7582 163 57.3044 159.522 57.3044 155.25ZM62.4473 155.25C62.4473 156.672 63.6025 157.833 65.0187 157.833C66.4341 157.833 67.5902 156.673 67.5902 155.25C67.5902 153.828 66.435 152.667 65.0187 152.667C63.6033 152.667 62.4473 153.827 62.4473 155.25Z" fill="#1692D0"/>
</svg>
