<svg xmlns="http://www.w3.org/2000/svg" id="Layer_1" viewBox="-95.23 -93.83 1296.73 624.43">
  <g id="s1-air-line" fill="none" opacity="0">
    <path id="s1-line-blue" stroke="#1692D0" stroke-width="2" stroke-dashoffset="1216" d="M1.29 0S253.5 85.93 600 85.93s436.752-45.998 600-85.622" stroke-dasharray="1216"/>
    <path stroke="#FFF" stroke-width="3" d="M1.29 0S253.5 85.93 600 85.93s436.752-45.998 600-85.622" stroke-dasharray="10"/>
    <path id="s1-line-white" stroke="#FFF" stroke-width="3" stroke-dashoffset="1216" d="M1.29 0S253.5 85.93 600 85.93s436.752-45.998 600-85.622" stroke-dasharray="1216"/>
  </g>
  <g id="s1-aircraft">
    <path fill="#FFF" d="M91.297-51.575l-.035-.038c-3.826-3.48-9.588-7.834-13.657-10.332l-.09-.05c-4.72-2.635-12.473-4.905-17.66-5.168-.23-.015-23.328-1.37-55.316-1.37H3.15c-15.86.016-39.55.248-62.104 2.07l-.51.04-.324-.39c-6.95-8.068-20.934-25.16-21.072-25.338-.492-.632-1.64-1.182-2.446-1.182l-6.69-.01c-.223-.01-.417.07-.528.21-.115.13-.152.33-.11.57l5.917 30.43-.89.25c-4.454 1.24-6.934 2.24-6.992 2.25-.57.21-.98.93-.87 1.54l1.03 5.66c.13.7.87 1.52 1.58 1.72.27.07 23.41 7.03 59.91 10.86l-36.92 37.4h12.92c.93 0 2.45-.41 3.26-.86.17-.11 17.81-9.91 35.37-21.34 7.77-5.05 14.11-9.5 18.78-12.89 6.38.23 12.71.35 18.95.358 29.06 0 46.97-2.51 47.18-2.53 5.2-.53 13.87-2.31 19.32-3.98l.92-.278c2.15-.65 3.55-1.81 3.95-3.26.39-1.35-.13-2.91-1.45-4.39l-.01.06-.023-.013z"/>
    <path fill="#1692D0" d="M91.292-51.825c.19.17.37.33.542.49l-.96-.944c.127.132.256.272.365.382-3.84-3.49-9.64-7.9-13.93-10.53.07.04.14.08.21.11l-.97-.56c.23.15.47.278.71.43-4.82-2.68-12.76-5.02-18.09-5.29 0 0-22.98-1.36-55.38-1.36l-.63.01-28.99-16.73c-.95-.57-2.61-1.03-3.72-1.03l-13.31.01c-1.1.01-1.38.64-.61 1.44l16.95 16.71c-10.99.3-22.27.82-33.24 1.71-7.02-8.14-21.05-25.3-21.05-25.3-.68-.85-2.12-1.55-3.23-1.55h-6.69c-1.09.01-1.83.88-1.62 1.97l5.75 29.53c-4.58 1.28-7.07 2.3-7.07 2.3-1.04.39-1.72 1.58-1.52 2.67l1.03 5.66c.19 1.08 1.21 2.21 2.27 2.51 0 0 22.21 6.78 58.02 10.69L-69.1-2.4c-.772.79-.51 1.43.598 1.43l12.86-.01c1.11.004 2.78-.44 3.74-.98 0 0 17.64-9.79 35.43-21.37 7.64-4.98 13.89-9.34 18.53-12.71 6.63.23 12.86.328 18.64.33 29.48 0 47.27-2.532 47.27-2.532 5.48-.56 14.21-2.403 19.51-4.014l.91-.28c5.03-1.525 6.23-5.586 2.95-9.27l-.056-.01.01-.01zm-15.06-8.91l.07.04.032.02c1.965 1.21 4.297 2.828 6.594 4.56-8.328 3.386-21.205 1.257-21.372 1.23-.05-.01-.126-.105-.13-.16l.004-4.324c.008-.03.05-.08.056-.092.266-.02 6.032-.41 11.113-3 1.33.54 2.57 1.12 3.64 1.72l-.022.01.014-.002zm-116.358-24.15h10.57c.74 0 2.05.36 2.69.742l25.52 14.658-22.71.42-16.062-15.826-.008.005zm41.52 46.8l-.04-.002-2.64 1.91h.03c-.54.384-1.09.784-1.66 1.183l-.14.1c-4.037 2.864-8.92 6.2-14.57 9.883C-35.142-13.6-52.75-3.7-52.946-3.6c-.654.373-1.996.723-2.756.723l-10.516.007 32.652-33.168.012.007 2.22-2.26 1.8-1.83 1.02-1.03 2.912-2.95c.56-.56 1.742-1.28 2.448-1.49l.083-.02.07-.04c.04-.02 4.37-1.6 11.67-1.59 1.3 0 2.64.05 3.97.14 7.36.55 13.63 2.39 16.37 3.3-1.13.87-2.99 2.29-5.51 4.15-.65.51-1.35 1.01-2.1 1.55l-.01-.03.004.045zm89.65-8.95c-.312 1.1-1.51 2.04-3.288 2.58l-.902.28c-5.395 1.637-13.975 3.397-19.123 3.927l-.03-.003-.04.01c-.17.02-17.99 2.51-47 2.51-5.28 0-10.65-.08-16.02-.25 4.5-3.33 6.9-5.27 6.9-5.27.86-.682.72-1.53-.31-1.9 0 0-8.1-3.18-18.41-3.96-1.44-.11-2.82-.16-4.11-.16-3.9 0-6.99.42-9.11.86-2.11.43-3.25.86-3.25.86-1.06.29-2.55 1.21-3.32 2l-5.06 5.118c-36.11-3.83-58.98-10.7-59.26-10.8-.33-.1-.79-.61-.85-.95l-1.03-5.66c-.03-.13.12-.38.25-.42h.03l.04-.02c.02-.01 2.47-.99 6.86-2.21l1.77-.5-.34-1.8-5.65-29.12h6.27c.497 0 1.36.41 1.67.8.14.16 14.13 17.29 21.1 25.36l.66.77 1.02-.09c22.52-1.82 46.18-2.05 62.03-2.07H3.9c31.95 0 55.026 1.35 55.27 1.37 3.09.15 7.128 1.04 10.85 2.31-4.226 1.68-8.52 1.98-8.6 1.98-1.06.11-1.89 1.03-1.89 2.09l-.003 4.32c.008 1.05.81 1.99 1.818 2.14.32.05 4.39.73 9.467.73 4.52 0 9.84-.562 14.014-2.57 1.844 1.438 3.606 2.91 5.086 4.25 1.08 1.22 1.52 2.446 1.237 3.457l-.08-.04-.026.07z"/>
    <path fill="#1692D0" d="M-47.077-58.886c-1.655 0-3 1.344-3 3 0 1.653 1.344 3 2.998 3 1.66.008 3-1.333 3-2.997 0-1.655-1.34-2.994-2.99-2.993l.01-.01h-.017zm0 4c-.554-.007-1-.448-1-1s.447-1.005.998-1.007c.55-.004 1 .45 1 1.002 0 .55-.45.99-1 .99l.01.01-.007.004zm8.5-4c-1.657 0-3 1.345-3 3 0 1.657 1.344 3 3 3 1.654 0 3-1.343 3-3s-1.343-3-3-3zm0 4c-.55 0-1-.45-1-1s.45-1 1-1 1 .45 1 1.003c-.003.542-.45.994-1.002.997h.01-.007zm9-4c-1.657 0-3 1.345-3 3s1.335 3.006 3 3c1.663-.003 2.993-1.34 2.993-2.994 0-1.654-1.344-3-3-3.002l.007-.004zm0 4c-.55.003-1-.447-1-1 0-.554.45-1 1-1s1 .45 1 1c0 .553-.448 1-1 1zm8.5-3.998c-1.656 0-3 1.343-3 3 0 1.655 1.345 3 3 3 1.658-.002 3-1.345 3-3 0-1.657-1.334-3.005-3-3zm0 4c-.55 0-1-.45-1-1 0-.552.45-1 1.003-1 .55 0 1 .45.998 1.002 0 .55-.45 1-1 .998zm8-4c-1.654 0-3 1.343-3 3 0 1.653 1.344 3 3 3 1.66.006 3.005-1.337 3-3 0-1.657-1.34-2.996-2.995-2.996l-.005-.004zm0 4c-.554-.007-1-.45-1-1 0-.554.447-1.005.998-1.007.55-.01 1 .438 1 1 0 .55-.45.99-1 .99l.01.01-.007.006zm8-4.002c-1.655 0-3 1.343-3 2.997 0 1.657 1.345 3 3 3 1.66.012 3.004-1.33 3-2.995 0-1.656-1.34-2.995-2.996-2.994h-.005v-.006zm0 4c-.555-.005-1-.448-1-1s.447-1.005 1-1.007c.55-.004.997.45.997 1.002-.006.55-.452.99-1.003.99l.005.01v.004zm8-4c-1.656 0-3 1.344-3 3 0 1.653 1.345 3 3 3 1.657 0 3-1.345 3-3 0-1.654-1.342-3-3-3zm0 4c-.55 0-1-.45-1-1s.45-1 1-1 1 .45 1 1-.45 1-1 1zm8-4c-1.657 0-3 1.345-3 3 0 1.657 1.345 3 3 3s3-1.345 3-3c0-1.656-1.342-3-3-3zm0 4c-.55 0-1-.45-1-1s.45-1 1-1c.554 0 1 .45 1 1-.003.544-.45.997-1 1zm8-4c-1.655 0-3 1.345-3 3 0 1.66 1.345 3 3 3s3-1.343 3.002-3c0-1.653-1.343-3-3-3h-.002zm0 4c-.55 0-1-.447-1-1 0-.554.45-1 1-1s1 .45 1 1c.003.55-.45 1-.99.997l-.008.005h-.002zm8-4c-1.656 0-3 1.345-3 3 0 1.66 1.344 3 3 3 1.658 0 3-1.343 3-2.997.002-1.656-1.342-3-3-3.003zm0 4c-.55 0-1-.447-1-1-.002-.55.44-.995.993-.994.555.006.994.452.997 1.002s-.447 1.003-1 1.005l.01-.013zm8-3.998c-1.655 0-3 1.344-3 3 0 1.655 1.345 3 3 3s3-1.345 3-3-1.342-3-3-3zm0 4c-.55 0-1-.45-1-1s.45-1 .993-.995c.55 0 .994.46.997 1.01-.008.562-.45 1-1.002 1h.02l-.007-.014z"/>
  </g>
  <g id="s1-gifts">
    <g id="s1-gift-1" opacity="0">
      <path fill="none" d="M388.02 22.846c-1.943 1.053-3.607.124-3.587-2.096 0 0-3.347-30 30.826-30s30.368 30 30.368 30c-.07 2.21-1.687 3.11-3.6 2.02l-4.14-2.36-8.498-3.187h-2.796l-6.484.938-10 1-8.812-1.937-4.52.883-8.758 4.74z"/>
      <path id="s1-gift-1-parachute" fill="#39393A" d="M415.26-10c-34.174 0-30.83 31.002-30.83 31.002-.016 2.215.998 5.533 2.143 7.426L410.5 68h10l22.986-39.535c1.106-1.908 2.07-5.255 2.145-7.463 0 0 3.802-31.002-30.37-31.002zm-3.632 76l-23.344-38.607c-.446-.738-.862-1.744-1.188-2.783.154-.13.322-.27.505-.412 1.006-.792 2.202-1.585 3.582-2.328 7.56-4.064 12.288-5.252 23.183-.87H414v45h-2.372zm30.13-38.54L419.35 66H416V21h-.318c10.462-4.108 15.665-3.117 23.078.87 1.38.74 2.577 1.535 3.582 2.327.21.164.396.316.565.465-.327 1.063-.73 2.076-1.15 2.8zm1.888-6.7l-.014.088-.003.09c-.016.467-.084 1.01-.19 1.586-1.064-.826-2.31-1.647-3.735-2.416-8.068-4.34-12.797-5.354-24.27-.72-11.506-4.636-17.134-3.62-25.203.72-1.397.752-2.617 1.556-3.668 2.365-.09-.533-.14-1.033-.138-1.457v-.113l-.01-.11c-.015-.122-1.18-12.217 6.352-20.577C397.682-5.236 405.248-8 415.258-8c9.997 0 17.512 2.755 22.334 8.188 7.414 8.352 6.068 20.453 6.054 20.57z"/>
      <path fill="#FFF" d="M421.654 60.02l-3.154 5.518v2.866l6.52-4.346zM405.557 64.058l6.52 4.346v-2.866l-3.155-5.518zM404.125 70.125h21.812v15.812h-21.812z"/>
      <path fill="#1692D0" d="M424.995 69H419l7.17-4.174c.455-.303.542-.9.188-1.325l-3.714-4.455c-.166-.198-.36-.295-.554-.295-.225 0-.438.135-.59.396L417 66h-4l-3.926-6.854c-.148-.262-.365-.396-.59-.396-.19 0-.387.097-.553.295L404.22 63.5c-.355.427-.268 1.023.188 1.326L411 69h-5.995c-1.108 0-2.005.895-2.005 1.998V85.003c0 1.106.897 1.997 2.005 1.997h19.99c1.108 0 2.005-.894 2.005-1.997V70.998c0-1.106-.896-1.998-2.005-1.998zM420 65.804l2.308-4.038 1.73 2.077L420 66.535v-.73zM413 68h4v1h-4v-1zm-4.732-6.234l2.31 4.038v.73l-4.04-2.69 1.73-2.078zM405 71h9v6h-9v-6zm0 14v-6h9v6h-9zm20 0h-9v-6h9v6zm-9-8v-6h9v6h-9z"/>
    </g>
    <g id="s1-gift-2" opacity="0">
      <path fill="none" d="M694.388 28.567c-1.94 1.053-3.604.124-3.588-2.096 0 0-3.347-30 30.826-30 34.174 0 30.37 30 30.37 30-.07 2.21-1.69 3.112-3.603 2.022l-4.14-2.36-8.496-3.188h-2.797l-6.482.938-10 1-8.812-1.938-4.52.883-8.758 4.74z"/>
      <path id="s1-gift-2-parachute" fill="#39393A" d="M721.76-5c-34.174 0-30.83 31.002-30.83 31.002-.016 2.215 1 5.533 2.145 7.426L717 73h10l22.985-39.535c1.106-1.908 2.07-5.255 2.146-7.463 0 0 3.803-31.002-30.37-31.002zm-3.632 76l-23.344-38.607c-.446-.738-.862-1.744-1.188-2.783.153-.13.32-.27.504-.412 1.01-.792 2.2-1.585 3.58-2.328 7.563-4.064 12.29-5.252 23.188-.87h-.368v45h-2.372zm30.13-38.54L725.85 71h-3.35V26h-.318c10.462-4.108 15.665-3.117 23.078.87 1.38.74 2.577 1.535 3.582 2.327.21.164.396.316.565.465-.327 1.063-.73 2.076-1.15 2.8zm1.888-6.7l-.014.088-.003.09c-.016.467-.084 1.01-.19 1.586-1.064-.826-2.31-1.647-3.735-2.416-8.068-4.34-12.797-5.354-24.27-.72-11.507-4.636-17.135-3.62-25.2.72-1.398.752-2.618 1.556-3.67 2.365-.092-.533-.144-1.033-.14-1.457v-.113l-.012-.11c-.015-.122-1.18-12.217 6.354-20.577C704.182-.236 711.747-3 721.76-3c9.995 0 17.51 2.755 22.332 8.188 7.414 8.352 6.068 20.453 6.054 20.57z"/>
      <path fill="#FFF" d="M729.316 64.485l-3.154 5.518v2.866l6.52-4.347zM713.22 68.523l6.518 4.346v-2.867l-3.154-5.518zM711.787 74.59H733.6v15.812h-21.813z"/>
      <path fill="#1692D0" d="M731.495 74H725.5l7.17-4.174c.455-.303.542-.9.188-1.325l-3.716-4.455c-.163-.198-.357-.295-.552-.295-.225 0-.438.135-.59.396L723.5 71h-4l-3.926-6.854c-.148-.262-.365-.396-.59-.396-.19 0-.39.097-.557.295l-3.713 4.456c-.354.427-.268 1.023.188 1.326L717.5 74h-5.995c-1.104 0-2.005.895-2.005 1.998V90.003c0 1.106.896 1.997 2.005 1.997h19.99c1.104 0 2.005-.894 2.005-1.997V75.998c0-1.106-.896-1.998-2.005-1.998zm-4.995-3.196l2.308-4.038 1.73 2.077-4.038 2.692v-.73zm-7 2.196h4v1h-4v-1zm-4.73-6.234l2.31 4.038v.73l-4.038-2.69 1.727-2.078zM711.5 76h9v6h-9v-6zm0 14v-6h9v6h-9zm20 0h-9v-6h9v6zm-9-8v-6h9v6h-9z"/>
    </g>
    <g id="s1-gift-3" opacity="0">
      <path fill="none" d="M997.8-7.433c-1.94 1.053-3.605.124-3.59-2.096 0 0-3.346-30 30.827-30 34.174 0 30.37 30 30.37 30-.07 2.21-1.69 3.112-3.603 2.022l-4.14-2.36-8.496-3.188h-2.797l-6.482.938-10 1-8.812-1.938-4.52.883-8.757 4.74z"/>
      <path id="s1-gift-3-parachute" fill="#39393A" d="M1024.76-41c-34.174 0-30.83 31.002-30.83 31.002-.016 2.215 1 5.533 2.145 7.426L1020 37h10l22.985-39.535c1.106-1.908 2.07-5.255 2.146-7.463 0 0 3.803-31.002-30.37-31.002zm-3.632 76L997.784-3.607c-.446-.738-.862-1.744-1.188-2.783.153-.13.32-.27.504-.412 1.01-.792 2.2-1.585 3.582-2.328 7.562-4.064 12.287-5.252 23.186-.87h-.365v45h-2.375zm30.13-38.54L1028.85 35h-3.35v-45h-.318c10.463-4.108 15.665-3.117 23.078.87 1.38.74 2.577 1.535 3.582 2.327.21.164.396.316.565.465-.327 1.063-.73 2.076-1.15 2.8zm1.888-6.7l-.014.088-.003.09c-.016.467-.084 1.01-.19 1.586-1.064-.826-2.31-1.647-3.735-2.416-8.068-4.34-12.797-5.354-24.27-.72-11.508-4.636-17.136-3.62-25.202.72-1.397.752-2.617 1.556-3.668 2.365-.092-.533-.145-1.033-.142-1.457l.002-.113-.013-.11c-.015-.122-1.18-12.217 6.354-20.577 4.908-5.45 12.478-8.215 22.485-8.215 9.997 0 17.513 2.756 22.334 8.19 7.422 8.35 6.076 20.45 6.062 20.57z"/>
      <path fill="#FFF" d="M1032.727 28.535l-3.154 5.518v2.865l6.52-4.345zM1016.63 32.573l6.518 4.345v-2.865l-3.153-5.518zM1015.198 38.64h21.812v15.812h-21.812z"/>
      <path fill="#1692D0" d="M1034.495 38h-5.995l7.17-4.174c.455-.303.542-.9.188-1.325l-3.714-4.455c-.163-.198-.36-.295-.554-.295-.225 0-.438.135-.59.396L1026.5 35h-4l-3.926-6.854c-.148-.262-.365-.396-.592-.396-.19 0-.39.097-.555.295l-3.713 4.456c-.354.427-.268 1.023.188 1.326L1020.5 38h-5.995c-1.106 0-2.005.895-2.005 1.998V54.003c0 1.106.896 1.997 2.005 1.997h19.99c1.104 0 2.005-.894 2.005-1.997V39.998c0-1.106-.896-1.998-2.005-1.998zm-4.995-3.196l2.308-4.038 1.73 2.077-4.038 2.692v-.73zm-7 2.196h4v1h-4v-1zm-4.73-6.234l2.31 4.038v.73l-4.038-2.69 1.728-2.078zM1014.5 40h9v6h-9v-6zm0 14v-6h9v6h-9zm20 0h-9v-6h9v6zm-9-8v-6h9v6h-9z"/>
    </g>
  </g>
  <g transform="translate(0 120)">
    <path fill="#FFF" d="M210.604 271h138.572v136.605H210.604zM631 406H510.604V263.167l15.646-.292-.125-7.875s1.125-3.458 2.708-4.333S571.5 250 571.5 250s40-.458 42 .833 2.297 5.047 2.297 5.047l.453 6.62 14.75.5v143zM956.834 261L937 251.167 896.167 251v10H868.5v146H990V261z"/>
    <path id="s1-drop" fill="#1692D0" d="M244 325.605c-1.107 0-2-.988-2-2.214 0-1.213 2-4.187 2-4.187s2 2.98 2 4.188c0 1.227-.895 2.215-2 2.215z"/>
    <path fill="#FFF" d="M241 315.605h6v11h-6v-11z"/>
    <g id="s1-bottle-3" fill="#1692D0">
      <path id="s1-bottle-3-wave" d="M212.604 380.605c-1.174 0-2.516.012-2.604 0v-2c.053.007 6.043.56 9.2-1.682l1.155 1.63c-2.43 1.73-5.67 2.052-7.75 2.052z"/>
      <path id="s1-bottle-3-fig" d="M217 355.605v-3c0-.56-.443-1-1-1h-1.977c-.55 0-1.012.445-1.012 1v3H213l-4 3.59v18.41c0 .56.45 1.003 1.01 1.003l10-.003c.55 0 1-.445 1-1v-18l-4-4H217zm2 21l-8 .003v-16.52l2.766-2.482h2.43l2.805 2v17z"/>
    </g>
    <g id="s1-bottle-2" fill="#1692D0">
      <path id="s1-bottle-2-wave" d="M241.604 380.605c-1.174 0-2.516.012-2.604 0v-2c.053.007 6.043.56 9.2-1.682l1.155 1.63c-2.43 1.73-5.67 2.052-7.75 2.052z"/>
      <path id="s1-bottle-2-fig" d="M246 355.605v-3c0-.56-.443-1-1-1h-1.977c-.55 0-1.012.445-1.012 1v3H242l-4 3.59v18.41c0 .56.45 1.003 1.01 1.003l10-.003c.55 0 .99-.445.99-1v-18l-3.99-4H246zm2 21l-8 .003v-16.52l2.766-2.482h2.43l2.805 2v17z"/>
    </g>
    <g id="s1-bottle-1" fill="#1692D0">
      <path id="s1-bottle-1-wave" d="M270.604 361.605c-1.174 0-2.516.012-2.604 0v-2c.053.007 6.043.56 9.2-1.682l1.155 1.63c-2.43 1.73-5.67 2.052-7.75 2.052z"/>
      <path id="s1-bottle-1-fig" d="M275 355.605v-3c0-.56-.443-1-1-1h-1.977c-.55 0-1.012.445-1.012 1v3H271l-4 3.59v18.41c0 .56.45 1.003 1.01 1.003l10-.003c.55 0 .99-.445.99-1v-18l-3.99-4H275zm2 21l-8 .003v-16.52l2.766-2.482h2.43l2.805 2v17z"/>
    </g>
    <path fill="#FFF" d="M309 381.605h25v29h-25v-29zm-119-38h32v39h-32v-39z"/>
    <g fill="#39393A">
      <path d="M340.854 272.805c-.468-.985-1.753-1.805-2.86-1.805H222.007c-1.11 0-2.39.81-2.862 1.805l-7.295 15.385c-.468.988.042 1.81 1.15 1.81h7v36.003h-13.13l-5.872-88.062c-.035-.53-.473-.94-.998-.94h-12c-.525 0-.963.41-.998.93l-5.91 88.65c-.06.12-.092.27-.092.42v80c0 .55.448 1 1 1h40v-16h64.01c3.854 0 6.99-3.14 6.99-7s-3.13-7-6.99-7H222v-88h9v26c0 .54.385 1.22.86 1.49l6.917 4c.467.27 1.31.5 1.86.5H241v3.008c0 .54.443.99.99.99h4.02c.54 0 .99-.44.99-.99v-3.02h.52c.55 0 1.388-.23 1.86-.513l6.76-3.988c.475-.28.86-.962.86-1.512v-26h81V345h-35v62.966h37v-118h6.996c1.104 0 1.62-.812 1.15-1.812l-7.292-15.388v.046-.007zM220 377.995V406h-37v-78.645c.036-.097.06-.19.064-.295l5.872-88.065h10.13l5.87 88.065c.035.52.47.936.998.936H220v50zM338 406h-33v-59.004h33V406zm-52-26.004c2.757 0 5 2.242 5 5 0 2.757-2.243 5-5 5s-5-2.243-5-5c0-2.758 2.243-5 5-5zm-4.89 0c-1.3 1.27-2.11 3.042-2.11 5s.81 3.732 2.11 5.004h-34.22c1.3-1.27 2.11-3.046 2.11-5.004s-.812-3.73-2.11-5h34.22zm-39.11 0c2.757 0 5 2.242 5 5 0 2.757-2.243 5-5 5s-5-2.243-5-5c0-2.758 2.243-5 5-5zm-4.89 0c-1.3 1.27-2.11 3.042-2.11 5s.81 3.732 2.11 5.004H222v-10.004h15.11zM245 324h-2v-2.004h2V324zm10-8.146l-6.635 3.91c-.168.103-.65.236-.846.236h-6.89c-.2 0-.69-.145-.86-.244l-6.78-3.93v-25.83H255v25.858zM214.16 288l6.793-14.344c.14-.296.722-.66 1.055-.66h115.985c.333 0 .915.364 1.055.66L345.84 288H214.16z"/>
      <path d="M305 352h33v1.996h-33V352zm74.996 13.912c.117-16.312 2.978-26.035 16.004-26.89v2.06c-2.833.48-5 2.95-5 5.91 0 3.31 2.69 6 6 6s6-2.69 6-6c0-2.96-2.167-5.39-5-5.87v-4.14h-2.5v.01c-11.07.68-14.86 7.3-16.5 15.99-1.685-8.53-6.55-15.27-17.5-15.99v-.03H359v4.09c-2.833.48-5 2.94-5 5.91 0 3.313 2.69 6 6 6s6-2.687 6-6c0-2.97-2.167-5.43-5-5.91v-2.06c13.032.88 16.883 10.59 17 26.87v41.1h2m-16-59.998c0 2.2-1.794 4-4 4s-4-1.8-4-4 2.294-4 4.5-4 3.5 1.79 3.5 4zm33 4c-2.206 0-4-1.8-4-4s1.294-4 3.5-4 4.5 1.79 4.5 4-1.794 4-4 4z"/>
    </g>
    <g id="s1-clouds" fill="#1692D0" fill-opacity="0">
      <path id="s1-cloud-1" d="M194.404 235.062c-1.752-2.016-2.614-4.594-2.428-7.258.188-2.67 1.4-5.11 3.416-6.86 2.015-1.77 4.594-2.63 7.258-2.438 2.664.18 5.097 1.39 6.85 3.398l-1.51 1.312c-1.402-1.62-3.348-2.592-5.48-2.74-2.125-.15-4.19.54-5.805 1.938-1.613 1.4-2.583 3.342-2.732 5.48-.15 2.13.54 4.19 1.943 5.8l-1.51 1.312h-.002v.056z"/>
      <path id="s1-cloud-2" d="M210.604 238.605c-5.515 0-10-4.486-10-10h2c0 4.41 3.59 8 8 8s8-3.59 8-8h2c0 5.514-4.487 10-10 10z"/>
      <path id="s1-cloud-3" d="M232.463 228.793l-1.98-.274c.62-4.4-2.457-8.48-6.857-9.102-4.406-.61-8.482 2.46-9.102 6.86l-1.98-.27c.77-5.49 5.864-9.33 11.36-8.563 5.49.77 9.33 5.87 8.56 11.36v-.012z"/>
      <path id="s1-cloud-4" d="M233.055 238.688c-1.44 0-2.875-.315-4.22-.942-2.42-1.1-4.258-3.13-5.17-5.64l1.88-.68c.728 2.01 2.2 3.608 4.135 4.52 1.936.91 4.11 1 6.115.28 2.008-.73 3.61-2.2 4.516-4.13.91-1.94 1-4.11.27-6.12l1.88-.68c.92 2.51.8 5.23-.33 7.65-1.13 2.42-3.13 4.26-5.64 5.17-1.11.41-2.27.61-3.42.61l-.01-.01v-.022l-.005-.006z"/>
      <path id="s1-cloud-5" d="M213.18 217.768c-.462-2.63.127-5.284 1.658-7.473 1.532-2.19 3.825-3.65 6.456-4.142 5.43-.96 10.627 2.68 11.584 8.11l-1.97.35c-.766-4.35-4.926-7.26-9.268-6.49-4.345.762-7.256 4.922-6.49 9.27l-1.97.34V217.77z"/>
      <path id="s1-cloud-6" d="M247.104 228.56l-1-1.73c3.82-2.206 5.133-7.105 2.93-10.93-2.207-3.82-7.108-5.132-10.93-2.927l-1-1.732c4.775-2.754 10.903-1.11 13.66 3.66 2.756 4.774 1.114 10.903-3.66 13.66z"/>
    </g>
    <path fill="#1692D0" d="M309 382v24h25v-24h-25zm11.076 12.096L311 403.17v-18.15l9.076 9.074v.002zM312.414 384h18.15l-9.075 8.68-9.08-8.68h.004zm9.076 11.508l9.097 8.492h-18.193l9.096-8.492zm1.414-1.413l9.096-9.108v18.188l-9.096-9.108v.028z"/>
    <path fill="none" d="M182.066 327.605H182v80h39v-80h-15.066l-5.934-89h-12"/>
    <path fill="#39393A" d="M632.99 262H617v-5.5c0-4.14-3.36-7.5-7.51-7.5h-76.98c-4.146 0-7.51 3.37-7.51 7.5v5.5h-14.99c-.56 0-1.01.44-1.01 1 0 .55.45 1 1.01 1h.17c-.104.32-.18.64-.18 1v143h2v-64h38v63.98h2V335h-40v-70c0-.56.45-1 1.01-1H629c.56 0 1.01.45 1.01 1l-.01 57h2v-57c0-.35-.06-.69-.18-1h1.17c.56 0 1.01-.44 1.01-1 0-.55-.45-1-1.01-1zM550 337v5h-38v-5h38zm65-75h-88v-5.5c0-3.03 2.47-5.5 5.51-5.5h76.98c3.04 0 5.51 2.47 5.51 5.5v5.5z"/>
    <g id="s1-loader">
      <circle cx="455" cy="397.105" r="8.5" fill="#FFF"/>
      <path fill="#FFF" d="M441.06 400.216c0 2.42-1.822 4.392-4.062 4.392s-4.062-1.972-4.062-4.392c0-2.42 1.82-4.392 4.07-4.392s4.07 1.97 4.07 4.392h-.016z"/>
      <path fill="#FFF" d="M445.87 396.825c0 1.34.25 2.62.72 3.78h-3.55c.01-.132.02-.25.02-.392 0-3.53-2.72-6.392-6.062-6.392-3.354 0-6.062 2.86-6.062 6.393 0 .13.02.26.02.392h-.44v-14.922l3.86-4.078 14.23.038 4.9 5.562c.09-.02.18-.02.26-.04-4.46.71-7.88 4.762-7.88 9.66h-.016z"/>
      <path fill="#39393A" d="M468.5 382.605v-5c0-9.66-7.86-17-17.51-17h-13.5c-2.2 0-3.99 1.778-3.99 4v15l-5 5.278v15.852c0 1.102.89 1.87 2 1.87h.87c.896 2.34 3.07 4 5.62 4 2.59 0 4.79-1.712 5.66-4.102l-.03.102h5.05c-.02-.02-.03-.052-.04-.07 1.68 2.46 4.42 4.07 7.52 4.07 3.59 0 6.697-2.16 8.25-5.312-.053.1-.093.21-.143.312h5.24v-10m-31.507 13c-2.24 0-4.062-1.972-4.062-4.392 0-2.42 1.82-4.392 4.062-4.392s4.062 1.972 4.062 4.393c.004 2.423-1.823 4.392-4.062 4.392zm9.6-4h-3.55c.01-.132.02-.25.02-.392 0-3.53-2.72-6.392-6.062-6.392-3.354 0-6.062 2.86-6.062 6.393 0 .13.02.26.02.392h-.44v-14.922l3.86-4.078 14.23.038 4.9 5.562c.09-.02.18-.02.26-.04-4.46.71-7.88 4.762-7.88 9.66 0 1.34.25 2.62.72 3.78h-.016zm8.56 4c-4.02 0-7.28-3.49-7.28-7.78s3.26-7.78 7.28-7.78c4.02 0 7.29 3.49 7.29 7.78s-3.27 7.78-7.29 7.78zm11.35-18.03l-8.75-8.88.22-.222c.5-.5.5-1.3 0-1.812-.5-.5-1.31-.487-1.81 0l-2.12 2.133c-.5.5-.51 1.312 0 1.812.5.5 1.31.5 1.8 0l.104-.102 10.56 11.102v9h-2.44c-.01.038-.023.078-.04.108.272-.91.427-1.88.427-2.892 0-5.09-3.69-9.26-8.395-9.728l-6.55-7.45-5.53-.01-1.92-9.108c-.104-.54-.646-.98-1.21-.98h-.42c-.55 0-.91.44-.8.98l1.92 9.1-6.04-.02v-15c0-1.1.89-2 1.99-2h13.5c8.7 0 15.51 6.59 15.51 15l-.005 8.97zm2-3.97v-5c0-9.66-7.86-17-17.51-17h-13.5c-2.2 0-3.99 1.778-3.99 4v15l-5 5.278v15.852c0 1.102.89 1.87 2 1.87h.87c.896 2.34 3.07 4 5.62 4 2.59 0 4.79-1.712 5.66-4.102l-.03.102h5.05c-.02-.02-.03-.052-.04-.07 1.68 2.46 4.42 4.07 7.52 4.07 3.59 0 6.697-2.16 8.25-5.312-.053.1-.093.21-.143.312h5.24l.003-19zm-31.51 22c-2.24 0-4.062-1.972-4.062-4.392 0-2.42 1.82-4.392 4.062-4.392s4.062 1.972 4.062 4.393c.004 2.423-1.823 4.392-4.062 4.392zm9.6-4h-3.55c.01-.132.02-.25.02-.392 0-3.53-2.72-6.392-6.062-6.392-3.354 0-6.062 2.86-6.062 6.393 0 .13.02.26.02.392h-.44v-14.922l3.86-4.078 14.23.038 4.9 5.562c.09-.02.18-.02.26-.04-4.46.71-7.88 4.762-7.88 9.66 0 1.34.25 2.62.72 3.78h-.016zm8.56 4c-4.02 0-7.28-3.49-7.28-7.78s3.26-7.78 7.28-7.78c4.02 0 7.29 3.49 7.29 7.78s-3.27 7.78-7.29 7.78zm11.35-18.03l-8.75-8.88.22-.222c.5-.5.5-1.3 0-1.812-.5-.5-1.31-.487-1.81 0l-2.12 2.133c-.5.5-.51 1.312 0 1.812.5.5 1.31.5 1.8 0l.104-.102 10.56 11.102v9h-2.44c-.01.038-.023.078-.04.108.272-.91.427-1.88.427-2.892 0-5.09-3.69-9.26-8.395-9.728l-6.55-7.45-5.53-.01-1.92-9.108c-.104-.54-.646-.98-1.21-.98h-.42c-.55 0-.91.44-.8.98l1.92 9.1-6.04-.02v-15c0-1.1.89-2 1.99-2h13.5c8.7 0 15.51 6.59 15.51 15l-.005 8.97z"/>
      <g id="s1-loader-claw" fill="#39393A">
        <path d="M472.5 395.605v-1h-4v2h4m-4-8h4.01v2h-4.01v-2zM508.5 402.605h-31v-34.53c0-1.37-1.1-2.48-2.48-2.48s-2.482 1.103-2.482 2.48l-.025 20.53h.014v4.02l-.02 11.98h36c.55 0 1 0 1-1s-.457-1-1.007-1zm-33 0h-1v-34c0-.27 0-1 .52-1.012.48.012.48.74.48 1.012v34z"/>
      </g>
    </g>
    <g id="s1-apparatus">
      <path fill="#FFF" d="M481 352.605h24v49h-24v-49z"/>
      <path fill="#1692D0" d="M504 351.615l-6-.01 5.672-3.422c.45-.312.54-.898.19-1.328l-3.724-4.462c-.156-.188-.356-.288-.55-.288-.22 0-.438.13-.59.398l-3.5 6.118h-5.42l-3.51-6.117c-.147-.27-.36-.398-.593-.398-.188 0-.39.1-.56.288l-3.71 4.462c-.36.43-.27 1.02.19 1.328l5.88 3.422H482c-1.11 0-2 1.39-2 2.488v48.512h26v-49c.002-1.1-.9-1.99-2-1.99zm-19.958-4.42l1.73-2.07 2.31 4.03v.738l-4.04-2.698zm3.958 53.41h-6v-20h6v20zm0-22h-6v-5h6v5zm0-7h-6v-18h6v18zm8 29h-6v-20h6v20zm0-22h-6v-5h6v5zm0-7h-6v-18h6v18zm0-19.98h-6v-1h6v1zm1.502-2.47l2.31-4.03 1.73 2.07-4.04 2.698v-.738zm6.498 51.45h-6v-20h6v20zm0-22h-6v-5h6v5zm0-7h-6v-18h6v18z"/>
    </g>
    <path fill="#FFF" d="M425 315.605h85v91h-85v-91z"/>
    <g id="s1-flags-on-rope-1" fill="#39393A">
      <path d="M424.07 294.87c-49.438 4.19-83.874-1.853-84.216-1.917l-.354 1.972c.256.046 19.484 3.427 49.767 3.427 10.45 0 22.218-.4 34.973-1.482 49.812-4.22 86.873-26.528 87.26-26.76l-1.01-1.72c-.383.23-37.05 22.31-86.42 26.49v-.01z"/>
      <path d="M348.656 296.188l3.978.418-.607 5.78-1.192-.74-.85-.52-.932.368-.994.392.59-5.682m-1.78-2.197l-1.15 10.938 4.05-1.58 3.9 2.42 1.15-10.93-7.96-.84.01-.008zm22.54 4.01l3.99.21-.31 5.802-1.23-.67-.88-.48-.91.42-.97.44.3-5.7m-1.9-2.103l-.58 10.99 3.96-1.8 4.02 2.21.57-10.99-7.99-.42v.02l.02-.01zm26.77 2.41v5.812l-1.26-.61-.9-.43-.89.46-.95.49v-5.71h4m2-2.004h-8v11l3.86-2 4.13 2v-11h.01zm18.85 1.28l.3 5.8-1.3-.54-.92-.39-.86.507-.92.54-.3-5.7 4-.21m1.89-2.1l-7.99.424.58 10.988 3.76-2.188 4.24 1.78-.57-10.98-.02-.01v-.014zm18.97.04l.7 5.77-1.33-.448-.94-.327-.83.562-.88.602-.7-5.67 3.97-.49m1.735-2.236l-7.94.97 1.34 10.92 3.594-2.46 4.34 1.48-1.355-10.92.02.01zm18.76-1.55l1.325 5.31-1.374-.283-.97-.202-.75.67-.8.71-1.354-5.43 3.94-.75m1.494-2.32l-7.867 1.525 2.656 10.67 3.27-2.87 4.5.938-2.55-10.25h-.01V289.5zm19.11-3.98l1.89 5.496-1.393-.17-.99-.12-.688.73-.733.78-1.856-5.4 3.776-1.3m1.238-2.54l-7.57 2.61 3.58 10.4 3.007-3.15 4.562.55-3.58-10.4v-.01zm19.25-5.88l2.456 5.27-1.4-.02-1-.022-.606.79-.644.85-2.41-5.18 3.634-1.69m.966-2.66l-7.25 3.383 4.646 9.97 2.66-3.44 4.59.062-4.64-9.973-.006-.002z"/>
    </g>
    <g fill="#39393A">
      <path d="M752.467 345.22l-.26-.98-.52-1.933-.26-.97c-.14-.52-.69-.84-1.23-.7l-12.54 3.36c-.54.15-.86.69-.72 1.22l.26.974-32.84 8.8-.264-.973c-.14-.52-.697-.89-1.236-.8l-7.95 1.3-3.34-2.236c-.894-.645-2.52-1.17-3.634-1.17h-30.1c-1.12 0-2.52.735-3.16 1.647l-2.524 3.728c-.65.896-1.15 2.55-1.15 3.646v17.99h-18.18c-1.65 0-4.07.83-5.36 1.87l-5.16 4.13h-1.5c-1.66 0-3 1.2-3 2.86 0 1.42 1 2.605 2.33 2.92-.44.94-.398 2.157.24 3.485l2.57 5.44c2.14 4.5 7.89 8.188 12.855 8.188h90c4.96 0 10.562-3.76 12.49-8.34l2.18-5.18c.58-1.393.55-2.65.04-3.62 1.312-.32 2.28-1.5 2.28-2.9 0-1.657-1.34-2.85-3-2.85h-4.5l-5.16-4.13c-1.29-1.03-3.68-1.87-5.34-1.87h-14v-10.15c0-1.106-.73-2.526-1.62-3.17l-6.45-4.63 1.74-.857c.5-.25.78-.87.64-1.4l-.26-.97 32.84-8.802.264.973c.14.527.687.84 1.228.7l12.54-3.36c.54-.15.86-.69.72-1.22l.02-.014.01-.01h.01v.007zm-13.81 47.48l-2.184 5.188c-1.17 2.78-4 5.15-6.938 6.32 2.52-1.21 4.27-3.77 4.27-6.75 0-4.15-3.356-7.5-7.5-7.5-4.146 0-7.493 3.343-7.5 7.49-.005-4.148-3.356-7.49-7.5-7.49-4.146 0-7.5 3.35-7.5 7.5 0 4.14 3.354 7.5 7.5 7.5 4.144 0 7.495-3.355 7.5-7.49.007 4.136 3.354 7.602 7.5 7.602.19 0 .382-.02.57-.03-.35.04-.71.07-1.05.07h-90c-3.97 0-9.19-3.224-11.05-7.147l-2.58-5.43c-.37-.8-.44-1.49-.17-1.91.26-.41.92-.64 1.81-.64h112.98c.896 0 1.59.26 1.896.73.313.46.29 1.19-.06 2.01l.007-.023zm-12.35 10.26c-3.04 0-5.5-2.47-5.5-5.5 0-3.04 2.46-5.5 5.5-5.5 3.03 0 5.5 2.46 5.5 5.5 0 3.03-2.47 5.5-5.5 5.5zm-9.5-5.5c0 3.03-2.47 5.5-5.5 5.5-3.04 0-5.5-2.47-5.5-5.5 0-3.04 2.46-5.5 5.5-5.5 3.03 0 5.5 2.46 5.5 5.5zm23.02-11.353c.55 0 1.173 0 1.173 1 0 1.146-.623 1-1.173 1h-119c-.55 0-.827-.45-.827-1 0-.562.277-1 .827-1h119zm-15-6.146c1.2 0 3.146.68 4.1 1.43l3.2 2.73h-106.6l3.196-2.71c.94-.75 2.9-1.433 4.104-1.433h92v-.016zm-21.02-16.59l4.403 3.04c.38.28.79 1.08.79 1.55v10.15h-56v-17.99c0-.68.39-1.93.79-2.5l2.537-3.88c.26-.37 1.05-.79 1.51-.79h30.1c.69 0 1.91.397 2.46.79l3.094 2.22h.01l.95.69 6.277 4.51 3.08 2.21z"/>
      <path d="M696.308 389.96c-4.146 0-7.5 3.35-7.5 7.5 0 4.14 3.354 7.5 7.5 7.5 4.144 0 7.5-3.36 7.5-7.5 0-4.15-3.36-7.5-7.5-7.5zm0 13c-3.04 0-5.5-2.47-5.5-5.5 0-3.04 2.46-5.5 5.5-5.5 3.03 0 5.5 2.46 5.5 5.5 0 3.03-2.47 5.5-5.5 5.5zm-22.5-5.5c0 4.14 3.354 7.5 7.5 7.5 4.144 0 7.5-3.36 7.5-7.5 0-4.15-3.356-7.5-7.5-7.5-4.15 0-7.5 3.35-7.5 7.5zm7.5-5.5c3.03 0 5.5 2.46 5.5 5.5 0 3.03-2.47 5.5-5.5 5.5-3.04 0-5.5-2.47-5.5-5.5 0-3.04 2.46-5.5 5.5-5.5zm-22.5 5.5c0 4.14 3.354 7.5 7.5 7.5 4.144 0 7.5-3.36 7.5-7.5 0-4.15-3.356-7.5-7.5-7.5-4.15 0-7.5 3.35-7.5 7.5zm7.5-5.5c3.03 0 5.5 2.46 5.5 5.5 0 3.03-2.47 5.5-5.5 5.5-3.04 0-5.5-2.47-5.5-5.5 0-3.04 2.46-5.5 5.5-5.5zm-22.5 5.5c0 4.14 3.354 7.5 7.5 7.5 4.144 0 7.5-3.36 7.5-7.5 0-4.15-3.356-7.5-7.5-7.5-4.15 0-7.5 3.35-7.5 7.5zm7.5-5.5c3.03 0 5.5 2.46 5.5 5.5 0 3.03-2.47 5.5-5.5 5.5-3.04 0-5.5-2.47-5.5-5.5 0-3.04 2.46-5.5 5.5-5.5zm-22.5 5.5c0 4.14 3.354 7.5 7.5 7.5 4.144 0 7.5-3.36 7.5-7.5 0-4.15-3.356-7.5-7.5-7.5-4.15 0-7.5 3.35-7.5 7.5zm7.5-5.5c3.03 0 5.5 2.46 5.5 5.5 0 3.03-2.47 5.5-5.5 5.5-3.04 0-5.5-2.47-5.5-5.5 0-3.04 2.46-5.5 5.5-5.5z"/>
    </g>
    <!-- <path fill="#1692D0" d="M645 333.01l-6-.01 5.672-3.42c.45-.312.54-.9.19-1.33l-3.724-4.46c-.156-.19-.356-.29-.55-.29-.22 0-.438.13-.59.4l-3.5 6.116h-5.42l-3.51-6.116c-.147-.27-.36-.4-.593-.4-.188 0-.39.1-.56.29l-3.71 4.46c-.36.43-.27 1.02.19 1.33l5.88 3.42H623c-1.11 0-2 1.39-2 2.49V384h26v-49c.002-1.1-.9-1.99-2-1.99zm-19.958-4.42l1.73-2.07 2.31 4.03v.74l-4.04-2.7zM629 382h-6v-20h6v20zm0-22h-6v-5h6v5zm0-7h-6v-18h6v18zm8 29h-6v-20h6v20zm0-22h-6v-5h6v5zm0-7h-6v-18h6v18zm0-19.98h-6v-1h6v1zm1.502-2.47l2.31-4.03 1.73 2.07-4.04 2.7v-.74zM645 382h-6v-20h6v20zm0-22h-6v-5h6v5zm0-7h-6v-18h6v18z"/> -->
    <g id="s1-conveyor-part-1">
      <path id="s1-test-tube-1" fill="#1692D0" d="M858.512 265.875h-5.994c-.562 0-1.018.458-1.018 1.023 0 .564.46.976 1.02.977v14c0 1.645 1.334 2.973 2.98 2.973 1.643 0 3-1.33 3-2.973v-14h.02c.562 0 1.018-.41 1.018-.977-.01-.57-.464-1.023-1.026-1.023zm-1.992 16c0 .527-.44 1-1 1-.532 0-1.02-.464-1.02-1v-14.027h2.02v14.027z"/>
      <path id="s1-conveyor-detail-1" fill="#39393A" d="M856.52 265.875h-2V259.5l2 1"/>
    </g>
    <g id="s1-conveyor-part-2">
      <path id="s1-test-tube-2" fill="#1692D0" d="M867.482 269.875h-5.994c-.562 0-1.02.458-1.02 1.023 0 .564.474.976 1.03.977v14c0 1.645 1.322 2.973 2.97 2.973 1.646 0 3.02-1.33 3.02-2.973l-.006-14h.008c.57 0 1.01-.41 1.01-.977 0-.57-.45-1.023-1.01-1.023h-.008zm-1.982 16c0 .527-.456 1-1.01 1-.54 0-1-.464-1-1v-14.027h2.01v14.027z"/>
      <path id="s1-conveyor-detail-2" fill="#39393A" d="M865.5 269.875h-2V263.5l2 1"/>
    </g>
    <g id="s1-conveyor-part-3">
      <path id="s1-test-tube-3" fill="#1692D0" d="M876.5 273.848h-6c-.562 0-1 .438-1 1 0 .567.452 1 1.012 1l-.012 14.375c0 1.646 1.325 2.972 2.97 2.972 1.646 0 3.022-1.326 3.022-2.972l.008-14.375c.562 0 1-.436 1-1 0-.57-.438-1-1-1zm-2 16.375c0 .526-.456 1-1.01 1-.54 0-1-.465-1-1v-14.375h2.01v14.375z"/>
      <path id="s1-conveyor-detail-3" fill="#39393A" d="M874.5 273.848h-2v-6l2 1"/>
    </g>
    <path fill="#FFF" d="M868 372h121v34H868v-34zM942 298l-25-11v-12h25m-108-28h46v63h-46v-63z"/>
    <g id="s1-boxes">
      <g fill="#39393A">
        <path d="M836 372v34h34v-34h-34zm32 32h-30v-30h30v30z"/>
        <path d="M862 383l-18 3v9l18-3v-9zm-1.98 7.39l-14.045 2.27v-4.942l14.054-2.373v5.054h-.01v-.01z"/>
      </g>
      <g fill="#39393A">
        <path d="M874 372v34h34v-34h-34zm32 32h-30v-30h30v30z"/>
        <path d="M900 383l-18 3v9l18-3v-9zm-1.98 7.39l-14.045 2.27v-4.942l14.054-2.373v5.054h-.01v-.01z"/>
      </g>
      <g fill="#39393A">
        <path d="M912 372v34h34v-34h-34zm32 32h-30v-30h30v30z"/>
        <path d="M938 383l-18 3v9l18-3v-9zm-1.98 7.39l-14.045 2.27v-4.942l14.054-2.373v5.054h-.01v-.01z"/>
      </g>
      <path fill="#1692D0" d="M962.01 365h-5.99c-.56 0-1.02.46-1.02 1.02 0 .57.46.98 1.02.98v5H958v-5h2.02v5H962v-5h.02c.562 0 1.018-.41 1.018-.98-.004-.57-.468-1.02-1.028-1.02zm8.97 0h-5.99c-.562 0-1.02.46-1.02 1.02 0 .57.47.98 1.03.98v5h1.99v-5H969v5h1.98v-5h.01c.56 0 1.01-.41 1.01-.98 0-.57-.46-1.02-1.02-1.02zm9.03 0h-5.99c-.56 0-1.02.46-1.02 1.02 0 .57.46.98 1.02.98v5H976v-5h2.02v5H980v-5h.02c.562 0 1.018-.41 1.018-.98-.004-.57-.468-1.02-1.028-1.02z"/>
      <path fill="#39393A" d="M951 372v34h34v-34h-34zm32 32h-30v-30h30v30z"/>
      <path fill="#39393A" d="M977 383l-18 3v9l18-3v-9zm-1.98 7.39l-14.045 2.27v-4.942l14.054-2.373v5.054h-.01v-.01z"/>
    </g>
    <path fill="#FFF" d="M820 348h50v58h-50v-58zm169 0h50v58h-50v-58z"/>
    <path fill="#39393A" d="M868 311s-.18 96.58 0 96.77c.19.19.74.23 1 .23h44.08c-.06-.32-.08-.66-.08-1s.02-.68.08-1H870v-96h4c3.31 0 6-2.688 6-6.01v-32.01l65 29.038c.01 1.65 1.35 2.98 3 2.98 1.66 0 3-1.34 3-3 0-1.3-.84-2.4-2-2.82V262h40v144h-62.08c.06.32.08.66.08 1s-.02.68-.08 1H1025v-66l-34-24.56V262h1.01c.55 0 .99-.45.99-1 0-.56-.45-1-1-1h-35c-.36 0-1-.21-1.37-.44l-14.1-7.408c-.03-.022-3.51-2.152-4.53-2.152h-40.01c-1.11 0-1.99.9-1.99 2v8h-29.01c-.55 0-.99.45-.99 1 0 .562.44 1 .99 1H868v48m10-6.01c0 2.21-1.79 4.01-4 4.01h-4v-46h8v41.99zm69-5.81c-.59.21-1.1.604-1.45 1.11L880 269.98V262h67v36.18zM896.98 260c0-.01.01-.02.01-.04V252h39.938c.562.16 2.82 1.4 3.61 1.89l11.63 6.11H896.98zM1023 406h-32v-86.09l32 23.106V406z"/>
    <g id="s1-flags-on-rope-2" fill="#39393A">
      <path d="M868.93 267.583c-.604.18-61.434 18.092-119.285 18.325l-1.15.002c-57.49 0-117.53-17.148-118.13-17.323l-.562 1.922c.604.17 60.9 17.4 118.684 17.4.38 0 .77 0 1.156-.03 58.134-.24 119.23-18.23 119.843-18.41l-.57-1.92.022.01v.01l-.008.013z"/>
      <path d="M647.132 275.14l3.897.9-1.32 5.66-1.1-.878-.78-.627-.97.248-1.03.264 1.28-5.566m-1.5-2.4l-2.48 10.72 4.21-1.08 3.58 2.88 2.47-10.72-7.8-1.8h.02zm22.37 6.65l3.923.772-1.11 5.7-1.13-.84-.8-.602-.96.28-1.03.3 1.09-5.61m-1.594-2.35l-2.105 10.8 4.184-1.228 3.67 2.75 2.1-10.802-7.857-1.528v.01h.006zm22.42 5.91l3.96.56-.81 5.762-1.175-.78-.84-.56-.95.33-1.01.35.79-5.66m-1.696-2.26l-1.527 10.89 4.106-1.44 3.82 2.56 1.53-10.89-7.92-1.11-.014-.02.003.01zm22.58 4.98l3.973.49-.71 5.77-1.184-.76-.84-.54-.94.35-1 .37.7-5.67m-1.75-2.23l-1.34 10.92 4.08-1.51 3.86 2.487 1.34-10.92-7.94-.97v-.01zm22.61 3.948l3.99.278-.404 5.802-1.22-.7-.87-.5-.92.396-.98.424.4-5.698m-1.86-2.138l-.77 10.972 3.99-1.73 3.97 2.28.76-10.98-7.98-.56.02.02.01-.002zm26.545 2.724l.11 5.81-1.28-.59-.908-.42-.88.477-.94.52-.103-5.71 4-.07m1.96-2.03l-8 .142.19 11 3.83-2.062 4.17 1.932-.19-11v-.012zm18.73.796l.41 5.802-1.305-.52-.93-.37-.86.52-.907.56-.4-5.7 3.99-.278m1.85-2.136l-7.98.56.77 10.97 3.71-2.27 4.265 1.7-.77-10.98h.01l-.005.01v.01zm19.01-.04l.714 5.77-1.33-.46-.95-.33-.83.562-.88.61-.7-5.67 3.97-.49m1.736-2.23l-7.94.978 1.344 10.92 3.59-2.448 4.34 1.48-1.34-10.91.006-.02zm17.425-.7l1.01 5.72-1.35-.38-.96-.27-.797.607-.854.65-.986-5.63 3.938-.7m1.622-2.318l-7.877 1.39 1.91 10.83 3.46-2.64 4.42 1.25-1.91-10.83h-.004zm16.99-1.162l1.21 5.682-1.36-.337-.97-.24-.77.63-.82.67-1.19-5.59 3.91-.83m1.547-2.38l-7.816 1.66 2.29 10.76 3.366-2.76 4.46 1.09-2.276-10.76-.024.01zm17.45-2.142l1.302 5.667-1.358-.31-.98-.22-.77.647-.82.69-1.28-5.56 3.895-.9m1.496-2.396l-7.8 1.8 2.47 10.722 3.31-2.812 4.48 1.02-2.48-10.72h.02v-.01z"/>
    </g>
    <g id="s1-flag-2">
      <path id="s1-flag-2-substrate" fill="#1692D0" d="M836 253h-29v-21h29v21zm2-23h-33v25h33v-25z"/>
      <path fill="#FFF" d="M820.5 226h32v24h-32v-24z"/>
      <path fill="#39393A" d="M852 248h-31v-21h31v21zm2-23h-35v25h35v-25z"/>
      <path fill="#FFF" d="M847.51 406.5l1.98-180h3.02l1.98 180"/>
      <path fill="#39393A" d="M852 227l2 179h-6l2-179h1.52m2.48-2h-6l-2 183h10l-2-183z"/>
    </g>
    <g id="s1-flag-1">
      <path id="s1-flag-1-substrate" fill="#1692D0" d="M476 253h-29v-21h29v21zm2-23h-33v25h33v-25z"/>
      <path fill="#FFF" d="M460.5 226h32v24h-32v-24z"/>
      <path fill="#39393A" d="M492 248h-31v-21h31v21zm2-23h-35v25h35v-25z"/>
      <path fill="#FFF" d="M487.51 406.5l1.98-180h3.02l1.98 180"/>
      <path fill="#39393A" d="M492 227l2 179h-6l2-179h1.52m2.48-2h-6l-2 183h10l-2-183z"/>
    </g>
  </g>
</svg>