<svg xmlns="http://www.w3.org/2000/svg" version="1.1" viewBox="181 81.42 858 208.58">
    <g>
        <path id="s1-drop" fill="#1692D0" d="M244,201c-1.108,0-2-0.988-2-2.212c0-1.214,2-4.188,2-4.188s2,2.977,2,4.188 C246,200.012,245.106,201,244,201z"/>
        <path fill="#FFFFFF" d="M241,191h6v11h-6V191z"/>
        <g id="s1-bottle-3">
            <path id="s1-bottle-3-wave" fill="#1692D0" d="M212.603,256c-1.174,0-2.515,0.012-2.603,0v-2c0.053,0.007,6.043,0.56,9.2-1.68 l1.156,1.63C217.926,255.677,214.686,256,212.603,256z"/>
            <path id="s1-bottle-3-fig" fill="#1692D0" d="M217,231v-3c0-0.557-0.444-1-1-1h-1.976c-0.55,0-1.012,0.447-1.012,1v3H213l-4,3.59 V253c0,0.56,0.45,1.003,1.005,1.003L220,254c0.547,0,1-0.446,1-1v-18L217,231z M219,252l-8,0.003v-16.52l2.766-2.483h2.43l2.804,2 V252z"/>
        </g>
        <g id="s1-bottle-2">
            <path id="s1-bottle-2-wave" fill="#1692D0" d="M241.603,256c-1.174,0-2.515,0.012-2.603,0v-2c0.053,0.007,6.043,0.56,9.2-1.68 l1.156,1.63C246.926,255.677,243.686,256,241.603,256z"/>
            <path id="s1-bottle-2-fig" fill="#1692D0" d="M246,231v-3c0-0.557-0.444-1-1-1h-1.976c-0.55,0-1.012,0.447-1.012,1v3H242l-4,3.59 V253c0,0.56,0.45,1.003,1.005,1.003L249,254c0.547,0,1-0.446,1-1v-18L246,231z M248,252l-8,0.003v-16.52l2.766-2.483h2.43l2.804,2 V252z"/>
        </g>
        <g id="s1-bottle-1">
            <path id="s1-bottle-1-wave" fill="#1692D0" d="M270.603,237c-1.174,0-2.515,0.012-2.603,0v-2c0.053,0.007,6.043,0.56,9.2-1.68 l1.156,1.63C275.926,236.677,272.686,237,270.603,237L270.603,237z"/>
            <path id="s1-bottle-1-fig" fill="#1692D0" d="M275,231v-3c0-0.557-0.444-1-1-1h-1.976c-0.55,0-1.012,0.447-1.012,1v3H271l-4,3.59 V253c0,0.56,0.45,1.003,1.005,1.003L278,254c0.547,0,1-0.446,1-1v-18L275,231z M277,252l-8,0.003v-16.52l2.766-2.483h2.43l2.804,2 V252L277,252z"/>
        </g>
        <path fill="#FFFFFF" d="M309,257h25v29h-25V257z"/>
        <path fill="#FFFFFF" d="M190,219h32v37h-32V219z"/>
        <g>
            <path fill="#39393A" d="M340.854,148.805c-0.468-0.988-1.753-1.805-2.861-1.805H222.007c-1.11,0-2.39,0.808-2.862,1.805 l-7.29,15.39c-0.468,0.99,0.042,1.806,1.15,1.806H220v36h-13.13l-5.872-88.065c-0.035-0.527-0.472-0.935-0.998-0.935h-12 c-0.526,0-0.963,0.408-0.998,0.934l-5.91,88.645c-0.06,0.127-0.092,0.27-0.092,0.42v80c0,0.552,0.448,1,1,1h40v-16h64.01 c3.853,0,6.99-3.134,6.99-7c0-3.858-3.13-7-6.99-7H222v-88h9v26.002c0,0.542,0.385,1.22,0.86,1.496l6.918,4.005 c0.466,0.27,1.31,0.498,1.86,0.498H241v3.01c0,0.54,0.443,0.99,0.99,0.99h4.02c0.54,0,0.99-0.442,0.99-0.99V198h0.52 c0.55,0,1.387-0.227,1.86-0.507l6.76-3.986c0.474-0.28,0.86-0.954,0.86-1.505V166h81v55h-35v63h37V166h6.996 c1.104,0,1.62-0.808,1.15-1.805L340.854,148.805z M220,254v28h-37v-78.64c0.036-0.092,0.058-0.19,0.064-0.294L188.936,115h10.13 l5.87,88.066c0.035,0.525,0.47,0.934,0.998,0.934H220V254L220,254z M338,282h-33v-59h33V282z M286,256c2.757,0,5,2.243,5,5 s-2.243,5-5,5s-5-2.243-5-5S283.243,256,286,256z M281.11,256c-1.3,1.27-2.11,3.042-2.11,5s0.81,3.73,2.11,5h-34.22 c1.3-1.27,2.11-3.042,2.11-5s-0.81-3.73-2.11-5H281.11z M242,256c2.757,0,5,2.243,5,5s-2.243,5-5,5s-5-2.243-5-5 S239.243,256,242,256z M237.11,256c-1.3,1.27-2.11,3.042-2.11,5s0.81,3.73,2.11,5H222v-10H237.11z M245,200h-2v-2h2V200z M255,191.857l-6.635,3.913c-0.168,0.1-0.65,0.23-0.846,0.23h-6.88c-0.197,0-0.687-0.13-0.86-0.23l-6.78-3.924V166h22L255,191.857 L255,191.857z M340,164H214.16l6.793-14.34c0.14-0.296,0.722-0.66,1.055-0.66h115.985c0.333,0,0.915,0.364,1.055,0.66L345.84,164 H340z"/>
        </g>
        <g id="s1-clouds">
            <path id="s1-cloud-1" fill="#1692D0" fill-opacity="0" d="M194.405,110.457c-1.752-2.016-2.615-4.594-2.428-7.258 c0.187-2.664,1.4-5.098,3.415-6.85s4.594-2.617,7.258-2.43c2.665,0.187,5.097,1.4,6.85,3.415l-1.51,1.312 c-1.402-1.613-3.348-2.583-5.48-2.732c-2.125-0.145-4.192,0.54-5.805,1.943c-1.613,1.402-2.583,3.348-2.732,5.48 c-0.15,2.13,0.54,4.192,1.943,5.805l-1.51,1.314L194.405,110.457z"/>
            <path id="s1-cloud-2" fill="#1692D0" fill-opacity="0" d="M210.603,114c-5.514,0-10-4.486-10-10h2c0,4.41,3.59,8,8,8s8-3.59,8-8h2 C220.603,109.514,216.117,114,210.603,114z"/>
            <path id="s1-cloud-3" fill="#1692D0" fill-opacity="0" d="M232.463,104.187l-1.98-0.278c0.618-4.4-2.458-8.484-6.858-9.103 c-4.406-0.617-8.483,2.458-9.102,6.858l-1.98-0.278c0.772-5.492,5.864-9.334,11.36-8.56 C229.395,93.598,233.235,98.694,232.463,104.187L232.463,104.187z"/>
            <path id="s1-cloud-4" fill="#1692D0" fill-opacity="0" d="M233.054,114.083c-1.44,0-2.875-0.315-4.22-0.942 c-2.42-1.128-4.257-3.132-5.17-5.642l1.88-0.684c0.73,2.008,2.2,3.61,4.135,4.514c1.936,0.903,4.11,0.997,6.116,0.267 c2.008-0.73,3.61-2.2,4.515-4.137c0.904-1.937,1-4.11,0.268-6.117l1.88-0.684c0.913,2.51,0.794,5.226-0.334,7.646 c-1.13,2.42-3.133,4.257-5.643,5.17C235.366,113.884,234.209,114.084,233.054,114.083L233.054,114.083z"/>
            <path id="s1-cloud-5" fill="#1692D0" fill-opacity="0" d="M213.18,93.162c-0.462-2.63,0.126-5.284,1.658-7.472 c1.532-2.188,3.825-3.648,6.456-4.112c5.43-0.958,10.627,2.68,11.584,8.11l-1.97,0.35c-0.766-4.345-4.925-7.257-9.268-6.49 c-4.344,0.766-7.255,4.923-6.49,9.268L213.18,93.162L213.18,93.162z"/>
            <path id="s1-cloud-6" fill="#1692D0" fill-opacity="0" d="M247.103,103.955l-1-1.732c3.82-2.206,5.134-7.108,2.93-10.928 c-2.207-3.82-7.108-5.133-10.93-2.928l-1-1.732c4.776-2.755,10.904-1.114,13.66,3.66 C253.52,95.069,251.878,101.197,247.103,103.955z"/>
        </g>
        <path fill="#1692D0" d="M309,257v25h25v-25H309z M320.076,269.49L311,278.564v-18.15l9.076,9.074V269.49z M312.414,259h18.15 l-9.075,9.075L312.414,259L312.414,259z M321.49,270.903l9.097,9.097h-18.193L321.49,270.903z M322.904,269.489l9.096-9.097v18.192 l-9.096-9.096V269.489z"/>
        <path fill="none" d="M182.067,203H182v80h39v-80h-15.067L200,114h-12"/>
    </g>
    <g>
        <g>
            <path fill="#39393A" d="M632.99,138H617v-5.5c0-4.14-3.36-7.5-7.51-7.5h-76.98c-4.149,0-7.51,3.37-7.51,7.5v5.5h-14.99 c-0.56,0-1.01,0.44-1.01,1c0,0.55,0.45,1,1.01,1h0.17c-0.109,0.32-0.18,0.64-0.18,1v143h2v-64h38v63.98h2V211h-40v-70 c0-0.56,0.45-1,1.01-1H629c0.56,0,1.01,0.45,1.01,1L630,198h2v-57c0-0.35-0.06-0.69-0.18-1h1.17c0.56,0,1.01-0.44,1.01-1 C634,138.45,633.55,138,632.99,138z M550,213v5h-38v-5H550z M615,138h-88v-5.5c0-3.03,2.47-5.5,5.51-5.5h76.98 c3.04,0,5.51,2.47,5.51,5.5V138z"/>
        </g>
        <g id="s1-loader">
            <circle fill="#FFFFFF" cx="455" cy="272.5" r="8.5"/>
            <path fill="#FFFFFF" d="M441.06,275.61c0,2.42-1.829,4.39-4.069,4.39s-4.061-1.97-4.061-4.39s1.82-4.39,4.061-4.39 S441.06,273.19,441.06,275.61z"/>
            <path fill="#FFFFFF" d="M445.87,272.22c0,1.34,0.25,2.62,0.72,3.78h-3.55c0.01-0.13,0.02-0.25,0.02-0.39 c0-3.53-2.72-6.39-6.069-6.39c-3.351,0-6.061,2.86-6.061,6.39c0,0.13,0.011,0.26,0.011,0.39h-0.44v-14.92l3.86-4.08l14.229,0.04 l4.9,5.56c0.09-0.02,0.18-0.02,0.26-0.04C449.29,263.27,445.87,267.32,445.87,272.22z"/>
            <path fill="#39393A" d="M468.5,258v-5c0-9.66-7.86-17-17.51-17h-13.5c-2.2,0-3.99,1.78-3.99,4v15l-5,5.28v15.85 c0,1.1,0.89,1.87,2,1.87h0.87c0.899,2.34,3.07,4,5.62,4c2.59,0,4.79-1.71,5.66-4.1l-0.03,0.1h5.05c-0.02-0.02-0.03-0.05-0.04-0.07 c1.68,2.46,4.42,4.07,7.521,4.07c3.59,0,6.699-2.16,8.25-5.31c-0.051,0.1-0.091,0.21-0.141,0.31h5.24v-10 M436.99,280 c-2.24,0-4.061-1.97-4.061-4.39s1.82-4.39,4.061-4.39s4.069,1.97,4.069,4.39S439.23,280,436.99,280z M446.59,276h-3.55 c0.01-0.13,0.02-0.25,0.02-0.39c0-3.53-2.72-6.39-6.069-6.39c-3.351,0-6.061,2.86-6.061,6.39c0,0.13,0.011,0.26,0.011,0.39h-0.44 v-14.92l3.86-4.08l14.229,0.04l4.9,5.56c0.09-0.02,0.18-0.02,0.26-0.04c-4.46,0.71-7.88,4.76-7.88,9.66 C445.87,273.56,446.12,274.84,446.59,276z M455.15,280c-4.021,0-7.28-3.49-7.28-7.78c0-4.29,3.26-7.78,7.28-7.78 c4.02,0,7.289,3.49,7.289,7.78C462.439,276.51,459.17,280,455.15,280z M466.5,261.97l-8.75-8.88l0.22-0.22c0.5-0.5,0.5-1.3,0-1.81 c-0.5-0.5-1.31-0.49-1.81,0l-2.12,2.13c-0.5,0.5-0.51,1.31,0,1.81c0.5,0.5,1.31,0.5,1.8,0l0.1-0.1L466.5,266v9h-2.44 c-0.01,0.04-0.029,0.08-0.04,0.11c0.271-0.91,0.421-1.88,0.421-2.89c0-5.09-3.69-9.26-8.391-9.73l-6.55-7.45l-5.53-0.01 l-1.92-9.11c-0.109-0.54-0.649-0.98-1.21-0.98h-0.42c-0.55,0-0.91,0.44-0.8,0.98l1.92,9.1L435.5,255v-15c0-1.1,0.89-2,1.99-2h13.5 c8.7,0,15.51,6.59,15.51,15V261.97z M468.5,258v-5c0-9.66-7.86-17-17.51-17h-13.5c-2.2,0-3.99,1.78-3.99,4v15l-5,5.28v15.85 c0,1.1,0.89,1.87,2,1.87h0.87c0.899,2.34,3.07,4,5.62,4c2.59,0,4.79-1.71,5.66-4.1l-0.03,0.1h5.05c-0.02-0.02-0.03-0.05-0.04-0.07 c1.68,2.46,4.42,4.07,7.521,4.07c3.59,0,6.699-2.16,8.25-5.31c-0.051,0.1-0.091,0.21-0.141,0.31h5.24V258z M436.99,280 c-2.24,0-4.061-1.97-4.061-4.39s1.82-4.39,4.061-4.39s4.069,1.97,4.069,4.39S439.23,280,436.99,280z M446.59,276h-3.55 c0.01-0.13,0.02-0.25,0.02-0.39c0-3.53-2.72-6.39-6.069-6.39c-3.351,0-6.061,2.86-6.061,6.39c0,0.13,0.011,0.26,0.011,0.39h-0.44 v-14.92l3.86-4.08l14.229,0.04l4.9,5.56c0.09-0.02,0.18-0.02,0.26-0.04c-4.46,0.71-7.88,4.76-7.88,9.66 C445.87,273.56,446.12,274.84,446.59,276z M455.15,280c-4.021,0-7.28-3.49-7.28-7.78c0-4.29,3.26-7.78,7.28-7.78 c4.02,0,7.289,3.49,7.289,7.78C462.439,276.51,459.17,280,455.15,280z M466.5,261.97l-8.75-8.88l0.22-0.22c0.5-0.5,0.5-1.3,0-1.81 c-0.5-0.5-1.31-0.49-1.81,0l-2.12,2.13c-0.5,0.5-0.51,1.31,0,1.81c0.5,0.5,1.31,0.5,1.8,0l0.1-0.1L466.5,266v9h-2.44 c-0.01,0.04-0.029,0.08-0.04,0.11c0.271-0.91,0.421-1.88,0.421-2.89c0-5.09-3.69-9.26-8.391-9.73l-6.55-7.45l-5.53-0.01 l-1.92-9.11c-0.109-0.54-0.649-0.98-1.21-0.98h-0.42c-0.55,0-0.91,0.44-0.8,0.98l1.92,9.1L435.5,255v-15c0-1.1,0.89-2,1.99-2h13.5 c8.7,0,15.51,6.59,15.51,15V261.97z"/>
            <g id="s1-loader-claw">
                <path fill="#39393A" d="M472.5,271v-1h-4v2h4"/>
                <path fill="#39393A" d="M468.5,264h4.01v2h-4.01V264z"/>
                <path fill="#39393A" d="M508.5,278h-31v-34.53c0-1.37-1.1-2.48-2.48-2.48c-1.38,0-2.489,1.1-2.489,2.48L472.51,264h0.003 l-0.002,2v2.023L472.5,280h36c0.55,0,1,0,1-1S509.05,278,508.5,278z M475.5,278h-1v-34c0-0.27,0-1,0.52-1.01 c0.48,0.01,0.48,0.74,0.48,1.01V278z"/>
            </g>
        </g>
        <g id="s1-apparatus">
            <path fill="#FFFFFF" d="M481.5,219v6h23v-6H481.5z M496.5,223h-13v-2h13V223z M500.5,224c-1.1,0-2-0.9-2-2s0.9-2,2-2s2,0.9,2,2 S501.6,224,500.5,224z"/>
            <path fill="#FFFFFF" d="M481.5,227v47h23v-47H481.5z M487.5,249c-2.21,0-4-1.79-4-4s1.79-4,4-4s4,1.79,4,4S489.71,249,487.5,249z M502.5,260h-7v-7h7V260z M498.5,249c-2.21,0-4-1.79-4-4s1.79-4,4-4s4,1.79,4,4S500.71,249,498.5,249z M502.5,237h-19v-2h19V237z M502.5,232h-19v-2h19V232z"/>
            <path fill="#1692D0" d="M506.5,275v-56c0-1.104-0.898-2-2.007-2h-22.986c-1.107,0-2.007,0.887-2.007,2v6h-0.995 c-1.106,0-2.005,0.897-2.005,2.006v9.988c0,1.108,0.894,2.006,2.005,2.006h0.995v36h-1v2h29v-2H506.5z M481.5,219h23v6h-23V219z M481.5,239v-12h23v47h-23V239z M478.5,237v-10h1v10H478.5z"/>
            <path fill="#1692D0" d="M498.5,241c-2.206,0-4,1.794-4,4s1.794,4,4,4s4-1.794,4-4S500.706,241,498.5,241z M498.5,247 c-1.104,0-2-0.896-2-2c0-0.178,0.03-0.347,0.074-0.512l2.438,2.438C498.847,246.969,498.678,247,498.5,247L498.5,247z M500.426,245.512l-2.438-2.438c0.165-0.043,0.334-0.074,0.512-0.074c1.104,0,2,0.896,2,2 C500.5,245.178,500.47,245.347,500.426,245.512L500.426,245.512z"/>
            <path fill="#1692D0" d="M487.5,241c-2.206,0-4,1.794-4,4s1.794,4,4,4s4-1.794,4-4S489.706,241,487.5,241z M485.5,245 c0-1.104,0.896-2,2-2c0.178,0,0.347,0.03,0.512,0.074l-2.438,2.438C485.531,245.347,485.5,245.178,485.5,245L485.5,245z M487.5,247c-0.178,0-0.347-0.03-0.512-0.074l2.438-2.438c0.043,0.165,0.074,0.334,0.074,0.512 C489.5,246.104,488.604,247,487.5,247L487.5,247z"/>
            <path fill="#1692D0" d="M495.5,260h7v-7h-7V260z M497.5,255h3v3h-3V255z"/>
            <path fill="#1692D0" d="M483.5,230h19v2h-19V230z"/>
            <path fill="#1692D0" d="M483.5,235h19v2h-19V235z"/>
            <circle fill="#1692D0" cx="500.5" cy="222" r="2"/>
            <path fill="#1692D0" d="M483.5,221h13v2h-13V221z"/>
        </g>
        <path fill="#FFFFFF" d="M619.97,203.96H673V272h-53.03V203.96z"/>
        <path fill="#FFFFFF" d="M427,191h83v91h-85L427,191z"/>
        <g>
            <path fill="#39393A" d="M725.65,232.02c-0.301-0.6-0.931-1-1.601-1h-22.28c-0.97,0-1.75,0.8-1.75,1.78v39.49 c0,0.98,1,1.71,1.98,1.71h13.12c-0.019-0.102-0.025-0.205-0.038-0.308c0.588,4.683,4.575,8.308,9.417,8.308 s8.828-3.625,9.416-8.308c-0.013,0.103-0.021,0.206-0.037,0.308H735c0.98,0,1.96-0.73,1.96-1.71v-18.2c0-0.25-0.07-0.53-0.17-0.78 L725.65,232.02L725.65,232.02z M724.5,280c-4.136,0-7.5-3.364-7.5-7.5s3.364-7.5,7.5-7.5s7.5,3.364,7.5,7.5S728.636,280,724.5,280 z M735.01,272.09h-1.02c0.01,0.14,0.01,0.27,0.01,0.41c0-5.247-4.253-9.5-9.5-9.5s-9.5,4.253-9.5,9.5c0-0.15,0-0.31,0.01-0.46 L702,272v-39h22l11.01,21.09V272.09z"/>
            <path fill="#39393A" d="M720.99,236.082L707,236c-0.977,0-2,1.022-2,2l0.092,14.217c0,1.003,0.802,1.78,1.778,1.78l21.308-0.013 c0.623,0,1.178-0.3,1.502-0.827c0.325-0.527,0.376-0.974,0.101-1.525l-7.186-14.55 C722.295,236.482,721.669,236.082,720.99,236.082z M707,252v-14h14l7.01,14.022L707,252z"/>
            <path fill="#39393A" d="M695,202h-75c-0.98,0-2,1.02-2,2l0.03,52H618v2h0.04v14.24c0,0.98,0.81,1.76,1.78,1.76h9.3 c-0.018-0.102-0.024-0.205-0.037-0.308c0.588,4.683,4.575,8.308,9.417,8.308s8.83-3.625,9.417-8.308 c-0.013,0.103-0.021,0.206-0.037,0.308h2.24c-0.018-0.102-0.024-0.205-0.037-0.308c0.588,4.683,4.575,8.308,9.417,8.308 s8.83-3.625,9.417-8.308c-0.013,0.103-0.021,0.206-0.037,0.308h26.34c1,0,1.78-0.78,1.78-1.76V204C697,203.02,696,202,695,202 L695,202z M638.5,280c-4.136,0-7.5-3.364-7.5-7.5s3.364-7.5,7.5-7.5s7.5,3.364,7.5,7.5S642.636,280,638.5,280z M659.5,280 c-4.136,0-7.5-3.364-7.5-7.5s3.364-7.5,7.5-7.5s7.5,3.364,7.5,7.5S663.636,280,659.5,280z M695.04,272.03h-26.05 c0.01,0.16,0.01,0.31,0.01,0.47c0-5.247-4.253-9.5-9.5-9.5s-9.5,4.253-9.5,9.5c0-0.16,0-0.31,0.01-0.47h-2.02 c0.01,0.16,0.01,0.31,0.01,0.47c0-5.247-4.253-9.5-9.5-9.5s-9.5,4.253-9.5,9.5c0-0.16,0-0.31,0.01-0.47h-9.04V258h75.07V272.03 L695.04,272.03z M695.04,256h-75.07v-52.04h75.07V256z"/>
            <path fill="#39393A" d="M497,217.09V213h-0.062v-0.046c-0.589,0-1.157,0.016-1.711,0.046H495v0.018 c-11.07,0.684-15.385,7.303-17.025,15.995c-1.685-8.524-6.027-15.262-16.975-15.987V213h-0.307 c-0.549-0.03-1.112-0.046-1.693-0.046v4.136c-2.833,0.48-5,2.942-5,5.91c0,3.31,2.69,6,6,6s6-2.69,6-6c0-2.967-2.167-5.43-5-5.91 v-2.063c13.032,0.88,15.887,10.593,16.004,26.87V242H477v41h2v-40v-0.018h0.01c0-0.355-0.002-0.71-0.004-1.067 c0.117-16.31,2.968-26.035,15.994-26.89v2.066c-2.833,0.48-5,2.943-5,5.91c0,3.31,2.69,6,6,6s6-2.69,6-6 C502,220.034,499.833,217.571,497,217.09L497,217.09z M464,223c0,2.206-1.794,4-4,4s-4-1.794-4-4s1.794-4,4-4S464,220.794,464,223 z M496,227c-2.206,0-4-1.794-4-4s1.794-4,4-4s4,1.794,4,4S498.206,227,496,227z"/>
        </g>
    </g>
    <g>
        <g id="s1-conveyor-part-1">
            <path id="s1-test-tube-1" fill="#1692D0" d="M858.512,141.875h-5.995c-0.562,0-1.017,0.458-1.017,1.024 c0,0.568,0.46,0.975,1.02,0.976v14c0,1.644,1.334,2.972,2.98,2.972c1.642,0,3-1.33,3-2.972v-14h0.02 c0.562,0,1.011-0.41,1.011-0.976C859.528,142.329,859.073,141.875,858.512,141.875z M856.52,157.875c0,0.527-0.446,1-1,1 c-0.539,0-1.02-0.464-1.02-1v-14.028h2.02V157.875z"/>
            <path id="s1-conveyor-detail-1" fill="#39393A" d="M856.52,141.875h-2V135.5l2,1"/>
        </g>
        <g id="s1-conveyor-part-2">
            <path id="s1-test-tube-2" fill="#1692D0" d="M867.483,145.875h-5.995c-0.562,0-1.018,0.458-1.018,1.024 c0,0.568,0.471,0.975,1.03,0.976v14c0,1.644,1.324,2.972,2.97,2.972c1.644,0,3.021-1.33,3.021-2.972l-0.006-14h0.007 c0.562,0,1.01-0.41,1.01-0.976c0-0.57-0.455-1.024-1.017-1.024H867.483z M865.5,161.875c0,0.527-0.456,1-1.01,1 c-0.54,0-1-0.464-1-1v-14.028h2.01V161.875z"/>
            <path id="s1-conveyor-detail-2" fill="#39393A" d="M865.5,145.875h-2V139.5l2,1"/>
        </g>
        <g id="s1-conveyor-part-3">
            <path id="s1-test-tube-3" fill="#1692D0" d="M876.5,149.847h-6c-0.562,0-1,0.435-1,1c0,0.568,0.452,1,1.012,1l-0.012,14.375 c0,1.644,1.325,2.972,2.97,2.972s3.022-1.33,3.022-2.972l0.008-14.375c0.562,0,1-0.435,1-1 C877.5,150.277,877.062,149.847,876.5,149.847z M874.5,166.222c0,0.527-0.456,1-1.01,1c-0.54,0-1-0.464-1-1v-14.375h2.01V166.222z "/>
            <path id="s1-conveyor-detail-3" fill="#39393A" d="M874.5,149.847h-2v-6l2,1"/>
        </g>
        <path fill="#FFFFFF" d="M942,174l-25-11v-12h25"/>
        <path fill="#FFFFFF" d="M834,123h46v63h-46V123z"/>
        <path fill="#FFFFFF" d="M868,248h121v34H868V248z"/>
        <g id="s1-boxes">
            <g>
                <path fill="#39393A" d="M836,248v34h34v-34H836z M868,280h-30v-30h30V280z"/>
                <path fill="#39393A" d="M862,259l-18,3v9l18-3V259z M860.02,266.39l-14.045,2.267v-4.943l14.047-2.373v5.05L860.02,266.39z"/>
            </g>
            <g>
                <path fill="#39393A" d="M874,248v34h34v-34H874z M906,280h-30v-30h30V280z"/>
                <path fill="#39393A" d="M900,259l-18,3v9l18-3V259z M898.02,266.39l-14.045,2.267v-4.943l14.047-2.373v5.05L898.02,266.39z"/>
            </g>
            <g>
                <path fill="#39393A" d="M912,248v34h34v-34H912z M944,280h-30v-30h30V280z"/>
                <path fill="#39393A" d="M938,259l-18,3v9l18-3V259z M936.02,266.39l-14.045,2.267v-4.943l14.047-2.373v5.05L936.02,266.39z"/>
            </g>
            <g>
                <g>
                    <path fill="#1692D0" d="M962.01,241h-5.99c-0.56,0-1.02,0.46-1.02,1.02c0,0.57,0.46,0.98,1.02,0.98v5H958v-5h2.02v5H962v-5h0.02 c0.561,0,1.011-0.41,1.011-0.98S962.57,241,962.01,241z"/>
                    <path fill="#1692D0" d="M970.98,241h-5.99c-0.561,0-1.021,0.46-1.021,1.02c0,0.57,0.47,0.98,1.03,0.98v5h1.99v-5H969v5h1.98v-5 h0.01c0.56,0,1.01-0.41,1.01-0.98S971.54,241,970.98,241z"/>
                    <path fill="#1692D0" d="M980.01,241h-5.99c-0.56,0-1.02,0.46-1.02,1.02c0,0.57,0.46,0.98,1.02,0.98v5H976v-5h2.02v5H980v-5h0.02 c0.561,0,1.011-0.41,1.011-0.98S980.57,241,980.01,241z"/>
                </g>
                <path fill="#39393A" d="M951,248v34h34v-34H951z M983,280h-30v-30h30V280z"/>
                <path fill="#39393A" d="M977,259l-18,3v9l18-3V259z M975.02,266.39l-14.045,2.267v-4.943l14.047-2.373v5.05L975.02,266.39z"/>
            </g>
        </g>
        <path fill="#FFFFFF" d="M820,224h50v58h-50V224z"/>
        <path fill="#FFFFFF" d="M989,224h50v58h-50V224z"/>
        <g>
            <path fill="#39393A" d="M945,177.02c0.01,1.65,1.35,2.98,3,2.98c1.66,0,3-1.34,3-3c0-1.3-0.84-2.4-2-2.82V138h40v144h-62.08 c0.061,0.32,0.08,0.66,0.08,1s-0.02,0.68-0.08,1H1025v-66l-34-24.56V138h1.01c0.55,0,0.99-0.45,0.99-1c0-0.56-0.45-1-1-1h-35 c-0.36,0-1-0.21-1.37-0.44l-14.1-7.41c-0.03-0.02-3.511-2.15-4.53-2.15h-40.01c-1.11,0-1.99,0.9-1.99,2v8h-29.01 c-0.55,0-0.99,0.45-0.99,1c0,0.56,0.44,1,0.99,1H868v48h0.01L868,283c0,0.27,0.11,0.58,0.29,0.77c0.19,0.19,0.45,0.23,0.71,0.23 h44.08c-0.061-0.32-0.08-0.66-0.08-1s0.02-0.68,0.08-1H870v-96h4c3.31,0,6-2.69,6-6.01v-32.01L945,177.02z M878,179.99 c0,2.21-1.79,4.01-4,4.01h-4v-46h8V179.99z M947,174.18c-0.59,0.21-1.1,0.6-1.45,1.11L880,145.98V138h67V174.18z M896.98,136 c0-0.01,0.01-0.02,0.01-0.04V128h39.939c0.561,0.16,2.82,1.4,3.61,1.89l11.63,6.11H896.98z M1023,282h-32v-86.09l32,23.11V282z"/>
        </g>
    </g>
    <g>
        <path fill="#39393A" d="M273.08,282c-0.06,0.32-0.08,0.66-0.08,1s0.02,0.68,0.08,1H182c-0.56,0-1-0.45-1-1s0.44-1,1-1H273.08 L273.08,282z"/>
        <path fill="#39393A" d="M593.08,282c-0.061,0.32-0.08,0.66-0.08,1s0.02,0.68,0.08,1H287c0.06-0.32,0.08-0.66,0.08-1 s-0.02-0.68-0.08-1H593.08L593.08,282z"/>
        <path fill="#39393A" d="M913.08,282c-0.061,0.32-0.08,0.66-0.08,1s0.02,0.68,0.08,1H606.92c0.061-0.32,0.08-0.66,0.08-1 s-0.02-0.68-0.08-1H913.08L913.08,282z"/>
    </g>
    <g>
        <path fill="#1692D0" d="M280,276c-3.866,0-7,3.134-7,7s3.134,7,7,7s7-3.134,7-7S283.866,276,280,276z M280,288 c-2.757,0-5-2.243-5-5s2.243-5,5-5s5,2.243,5,5S282.757,288,280,288z"/>
        <circle fill="#1692D0" cx="280" cy="283" r="2"/>
    </g>
    <g>
        <path fill="#1692D0" d="M600,276c-3.866,0-7,3.134-7,7s3.134,7,7,7s7-3.134,7-7S603.866,276,600,276z M600,288 c-2.757,0-5-2.243-5-5s2.243-5,5-5s5,2.243,5,5S602.757,288,600,288z"/>
        <circle fill="#1692D0" cx="600" cy="283" r="2"/>
    </g>
    <g>
        <path fill="#1692D0" d="M920,276c-3.87,0-7,3.13-7,7s3.13,7,7,7s7-3.13,7-7S923.87,276,920,276z M920,288c-2.76,0-5-2.24-5-5 s2.24-5,5-5s5,2.24,5,5S922.76,288,920,288z"/>
        <path fill="#FFFFFF" d="M920,278c-2.76,0-5,2.24-5,5s2.24,5,5,5s5-2.24,5-5S922.76,278,920,278z M920,285c-1.1,0-2-0.9-2-2 s0.9-2,2-2s2,0.9,2,2S921.1,285,920,285z"/>
        <path fill="#1692D0" d="M922,283c0,1.1-0.9,2-2,2s-2-0.9-2-2s0.9-2,2-2S922,281.9,922,283z"/>
    </g>




    <g id="new_year_layer">
    	<g id="_x0A_wiring">
    		<path fill="#39393A" d="M512.066,148.558c-0.392,0.227-39.738,22.772-89.109,26.957c-49.424,4.19-82.731-2.354-83.062-2.421l-0.396,1.961c0.172,0.035,9.222,1.814,24.788,2.944v4.835h2v-4.696    c6.852,0.456,14.858,0.776,23.853,0.776c1.034,0,2.087-0.007,3.147-0.016v4.936h2v-4.959c8.54-0.115,17.86-0.521,27.838-1.367    c0.388-0.033,0.774-0.07,1.162-0.105v4.431h2v-4.623c9.835-0.995,19.246-2.688,28-4.76v4.383h2v-4.865c10.454-2.571,19.921-5.655,28-8.68v3.545h2v-4.303c16.409-6.299,26.583-12.128,26.782-12.244L512.066,148.558z"/>
    		<path fill="#39393A" d="M869.113,150.417l-0.57-1.917c-0.607,0.181-61.434,18.092-119.283,18.325c-57.856,0.229-118.676-17.187-119.283-17.363l-0.557,1.921c0.279,0.081,13.277,3.803,32.867,7.787v4.664h2v-4.26c8.367,1.67,17.848,3.366,28,4.843v4.417h2v-4.132    c8.944,1.264,18.375,2.346,28,3.084v4.047h2v-3.898c7.881,0.563,15.873,0.892,23.82,0.892c0.384,0,0.776-0.001,1.16-0.002c1.006-0.004,2.013-0.015,3.02-0.029v4.038h2v-4.074c9.393-0.198,18.814-0.83,28-1.749v3.822h2v-4.027c9.73-1.021,19.169-2.351,28-3.814v3.841h2v-4.177c10.414-1.767,19.928-3.7,28-5.499v3.676h2v-4.125C859.319,153.302,868.875,150.488,869.113,150.417z"/>
    	</g>
    	<g xmlns="http://www.w3.org/2000/svg" id="garland">
            <g id="solid">
                <g id="garlandLamps-even">
                    <g><circle fill="#1692D0" cx="394.288" cy="187.745" r="5"/></g>
                    <g><circle fill="#1692D0" cx="455.288" cy="181.745" r="5"/></g>
                    <g><circle fill="#1692D0" cx="663.287" cy="168.745" r="5"/></g>
                    <g><circle fill="#1692D0" cx="723.287" cy="176.745" r="5"/></g>
                    <g><circle fill="#1692D0" cx="783.287" cy="174.745" r="5"/></g>
                    <g><circle fill="#1692D0" cx="843.287" cy="165.745" r="5"/></g>
                </g>
                <g id="garlandLamps-odd" opacity="0">
                    <g><circle fill="#1692D0" cx="365.288" cy="186.745" r="5"/></g>
                    <g><circle fill="#1692D0" cx="425.288" cy="186.745" r="5"/></g>
                    <g><circle fill="#1692D0" cx="485.287" cy="171.745" r="5"/></g>
                    <g><circle fill="#1692D0" cx="693.287" cy="173.745" r="5"/></g>
                    <g><circle fill="#1692D0" cx="753.287" cy="177.745" r="5"/></g>
                    <g><circle fill="#1692D0" cx="813.287" cy="171.745" r="5"/></g>
                </g>
            </g>
            <g id="stroke">
                <path fill="#1692D0" d="M394.288,182.745c-2.762,0-5,2.238-5,5s2.238,5,5,5s5-2.238,5-5S397.049,182.745,394.288,182.745zM394.288,190.745c-1.654,0-3-1.346-3-3s1.346-3,3-3s3,1.346,3,3S395.942,190.745,394.288,190.745z"/>
                <path fill="#1692D0" d="M455.288,176.745c-2.762,0-5,2.238-5,5s2.238,5,5,5s5-2.238,5-5S458.049,176.745,455.288,176.745zM455.288,184.745c-1.654,0-3-1.346-3-3s1.346-3,3-3s3,1.346,3,3S456.942,184.745,455.288,184.745z"/>
                <path fill="#1692D0" d="M663.287,163.745c-2.762,0-5,2.238-5,5s2.238,5,5,5s5-2.238,5-5S666.049,163.745,663.287,163.745zM663.287,171.745c-1.654,0-3-1.346-3-3s1.346-3,3-3s3,1.346,3,3S664.941,171.745,663.287,171.745z"/>
                <path fill="#1692D0" d="M723.287,171.745c-2.762,0-5,2.238-5,5s2.238,5,5,5s5-2.238,5-5S726.049,171.745,723.287,171.745zM723.287,179.745c-1.654,0-3-1.346-3-3s1.346-3,3-3s3,1.346,3,3S724.941,179.745,723.287,179.745z"/>
                <path fill="#1692D0" d="M783.287,169.745c-2.762,0-5,2.238-5,5s2.238,5,5,5s5-2.238,5-5S786.049,169.745,783.287,169.745zM783.287,177.745c-1.654,0-3-1.346-3-3s1.346-3,3-3s3,1.346,3,3S784.941,177.745,783.287,177.745z"/>
                <path fill="#1692D0" d="M843.287,160.745c-2.762,0-5,2.238-5,5s2.238,5,5,5s5-2.238,5-5S846.049,160.745,843.287,160.745zM843.287,168.745c-1.654,0-3-1.346-3-3s1.346-3,3-3s3,1.346,3,3S844.941,168.745,843.287,168.745z"/>
                <path fill="#1692D0" d="M365.288,181.745c-2.762,0-5,2.238-5,5s2.238,5,5,5s5-2.238,5-5S368.049,181.745,365.288,181.745zM365.288,189.745c-1.654,0-3-1.346-3-3s1.346-3,3-3s3,1.346,3,3S366.942,189.745,365.288,189.745z"/>
                <path fill="#1692D0" d="M425.288,181.745c-2.762,0-5,2.238-5,5s2.238,5,5,5s5-2.238,5-5S428.049,181.745,425.288,181.745zM425.288,189.745c-1.654,0-3-1.346-3-3s1.346-3,3-3s3,1.346,3,3S426.942,189.745,425.288,189.745z"/>
                <path fill="#1692D0" d="M485.287,166.745c-2.762,0-5,2.238-5,5s2.238,5,5,5s5-2.238,5-5S488.049,166.745,485.287,166.745zM485.287,174.745c-1.654,0-3-1.346-3-3s1.346-3,3-3s3,1.346,3,3S486.941,174.745,485.287,174.745z"/>
                <path fill="#1692D0" d="M693.287,168.745c-2.762,0-5,2.238-5,5s2.238,5,5,5s5-2.238,5-5S696.049,168.745,693.287,168.745zM693.287,176.745c-1.654,0-3-1.346-3-3s1.346-3,3-3s3,1.346,3,3S694.941,176.745,693.287,176.745z"/>
                <path fill="#1692D0" d="M753.287,172.745c-2.762,0-5,2.238-5,5s2.238,5,5,5s5-2.238,5-5S756.049,172.745,753.287,172.745zM753.287,180.745c-1.654,0-3-1.346-3-3s1.346-3,3-3s3,1.346,3,3S754.941,180.745,753.287,180.745z"/>
                <path fill="#1692D0" d="M813.287,166.745c-2.762,0-5,2.238-5,5s2.238,5,5,5s5-2.238,5-5S816.049,166.745,813.287,166.745zM813.287,174.745c-1.654,0-3-1.346-3-3s1.346-3,3-3s3,1.346,3,3S814.941,174.745,813.287,174.745z"/>
            </g>
        </g>
    	<g id="snowman">
    		<circle fill="#39393A" cx="363.5" cy="251.5" r="1"/>
    		<circle fill="#39393A" cx="357.5" cy="251.5" r="1"/>
    		<ellipse fill="#39393A" cx="360.5" cy="255.485" rx="2" ry="2.015"/>
    		<path fill="#39393A" d="M370.58,238.973c0.127,0.99,0.958,1.757,1.974,1.757   c1.104,0,2-0.902,2-2.016c0-1.112-0.896-2.015-2-2.015c-0.188,0-0.365,0.034-0.538,0.083l-3.592-3.712   c-0.369-0.381-0.837-0.57-1.301-0.57c-0.502,0-1.002,0.222-1.369,0.661l-6.384,7.636l-0.498-0.184   c-0.228-0.084-0.46-0.124-0.689-0.124c-0.813,0-1.579,0.502-1.874,1.315l-0.558,1.533c-0.07,0.193-0.1,0.389-0.11,0.583c0.001-0.013-0.003-0.025-0.002-0.038c-3.05,1.72-5.12,5-5.12,8.78c0,2.78,1.13,5.27,2.95,7.07c-3.59,2.31-5.97,6.35-5.97,10.94   c0,7.18,5.82,13,13,13s13-5.82,13-13c0-4.58-2.37-8.61-5.94-10.92c1.83-1.8,2.96-4.3,2.96-7.09c0-1.36-0.27-2.65-0.76-3.82   c-0.03,0.055-0.074,0.095-0.109,0.146c0.092-0.134,0.181-0.272,0.239-0.432l0.558-1.533c0.38-1.044-0.155-2.194-1.192-2.577   l-0.766-0.283v-5.309L370.58,238.973z M368.52,252.664c0,2.15-0.84,4.16-2.36,5.66l-1.79,1.75l2.1,1.36   c3.15,2.04,5.03,5.49,5.03,9.24c0,6.06-4.93,11-11,11s-11-4.94-11-11c0-3.76,1.89-7.22,5.05-9.26l2.11-1.35l-1.78-1.76   c-1.52-1.49-2.36-3.5-2.36-5.64c0-2.98,1.61-5.58,4-6.97c-0.007-0.004-0.011-0.011-0.018-0.016c0.136,0.094,0.28,0.177,0.441,0.237   l10.384,3.834c0.228,0.084,0.46,0.124,0.689,0.124c0.195,0,0.387-0.032,0.571-0.087c-0.183,0.055-0.372,0.089-0.567,0.089   C368.35,250.743,368.52,251.683,368.52,252.664z M368.569,246.34l-0.549,1.533l-10.389-3.851l0.556-1.53l1.469,0.544   c0.066,0.033,0.127,0.069,0.202,0.095l1.403,0.5L368.569,246.34z M366.49,236.739v2.116v4.516l-4.207-1.499l-0.92-0.34l5.778-6.912l2.206,2.28l-0.745-0.042L366.49,236.739z"/>
    	</g>
    	<g id="spruce">
    		<g>
    			<path fill="#39393A" d="M859.78,263.548l-13.473-32.175c-0.428,0.537-1.025,0.932-1.722,1.077l13.454,32.131c0.188-0.615,0.753-1.066,1.429-1.066    C859.575,263.515,859.68,263.527,859.78,263.548z"/>
    			<path fill="#39393A" d="M829.969,218.515c0.421,0,0.811,0.131,1.133,0.353L835,209.56l7.311,17.458c0.475-0.316,1.045-0.502,1.658-0.502c0.109,0,0.213,0.021,0.318,0.032l-7.837-18.717l-0.59-0.32    c-0.48-0.26-1.271-0.26-1.74,0l-0.561,0.31l-4.597,10.976C829.26,218.622,829.601,218.515,829.969,218.515z"/>
    			<path fill="#39393A" d="M828.037,221.007l-9.442,22.546c0.121-0.023,0.246-0.038,0.374-0.038c0.609,0,1.147,0.278,1.514,0.707l9.107-21.745    C828.829,222.331,828.227,221.752,828.037,221.007z"/>
    			<path fill="#39393A" d="M860.73,265.82c-0.266,0.417-0.73,0.695-1.262,0.695c-0.573,0-1.065-0.326-1.318-0.798c-3.208,1.687-11.056,4.993-23.15,4.993c-12.39,0-20.42-3.53-23.45-5.16l7.56-18.049    c-0.048,0.003-0.093,0.014-0.141,0.014c-0.692,0-1.303-0.353-1.662-0.888l-8.276,19.763c0,0,8.689,6.05,25,6.29v10.13h2v-10.13c16.279-0.25,24.939-6.29,24.939-6.29L860.73,265.82z"/>
    		</g>
    		<path fill="#1692D0" d="M839.44,203.757c-0.391,0.39-0.641,1.16-0.551,1.71l0.57,3.41c0.08,0.55-0.24,0.78-0.71,0.51l-2.3-1.27l-0.59-0.32c-0.48-0.26-1.271-0.26-1.74,0l-0.561,0.31l-2.329,1.28   c-0.48,0.27-0.801,0.04-0.711-0.51l0.561-3.41c0.09-0.55-0.15-1.32-0.54-1.71l-2.33-2.39c-0.39-0.4-0.27-0.78,0.29-0.87l3.18-0.48   c0.551-0.09,1.19-0.56,1.42-1.06l1.46-3.11c0.24-0.49,0.62-0.49,0.851,0l1.47,3.11c0.23,0.5,0.86,0.97,1.42,1.06l3.181,0.48c0.55,0.08,0.68,0.48,0.289,0.87L839.44,203.757z"/>
    		<g id="treeLamps-even">
                <circle id="treeLamp-1" fill="#1692D0" cx="826.969" cy="254.515" r="3"/>
        		<circle id="treeLamp-2" fill="#1692D0" cx="845.969" cy="263.515" r="3"/>
        		<circle id="treeLamp-3" fill="#1692D0" cx="830.969" cy="242.515" r="3"/>
        		<circle id="treeLamp-4" fill="#1692D0" cx="843.969" cy="229.515" r="3"/>
        		<circle id="treeLamp-5" fill="#1692D0" cx="837.969" cy="227.515" r="2"/>
        		<circle id="treeLamp-6" fill="#1692D0" cx="818.969" cy="245.515" r="2"/>
        		<circle id="treeLamp-7" fill="#1692D0" cx="836.969" cy="238.515" r="2"/>
        		<circle id="treeLamp-8" fill="#1692D0" cx="829.969" cy="220.515" r="2"/>
    		</g>
            <g id="treeLamps-odd">
                <circle id="treeLamp-9" fill="#1692D0" cx="837.969" cy="261.515" r="2"/>
        		<circle id="treeLamp-10" fill="#1692D0" cx="853.969" cy="264.515" r="2"/>
        		<circle id="treeLamp-11" fill="#1692D0" cx="822.469" cy="250.015" r="1.5"/>
        		<circle id="treeLamp-12" fill="#1692D0" cx="832.469" cy="259.015" r="1.5"/>
        		<circle id="treeLamp-13" fill="#1692D0" cx="824.469" cy="244.015" r="1.5"/>
        		<circle id="treeLamp-14" fill="#1692D0" cx="833.469" cy="225.015" r="1.5"/>
        		<circle id="treeLamp-15" fill="#1692D0" cx="841.469" cy="235.015" r="1.5"/>
        		<circle id="treeLamp-16" fill="#1692D0" cx="859.469" cy="265.015" r="1.5"/>
            </g>
    	</g>
    </g>
</svg>