<svg xmlns="http://www.w3.org/2000/svg" id="Layer_1" x="0px" y="0px" viewBox="181 217 1135 204.61">
    <path fill="#FFF" d="M210.604 282h138.572v136.605H210.604V282zM631 417H510.604V274.167l15.646-.292-.125-7.875s1.125-3.458 2.708-4.333S571.5 261 571.5 261s40-.458 42 .833 2.297 5.047 2.297 5.047l.453 6.62 14.75.5v143zm325.834-145H868.5v146H990V272h-33.166z"/>
    <path id="s1-drop" fill="#1692D0" d="M244 336.605c-1.107 0-2-.988-2-2.215 0-1.213 2-4.187 2-4.187s2 2.979 2 4.188c0 1.228-.895 2.216-2 2.216v-.002z"/>
    <path fill="#FFF" d="M241 326.605h6v11h-6v-11z"/>
    <g id="s1-bottle-3" fill="#1692D0">
        <path id="s1-bottle-3-wave" d="M212.604 391.605c-1.174 0-2.516.012-2.604 0v-2c.053.007 6.043.56 9.2-1.683l1.155 1.63c-2.43 1.731-5.67 2.053-7.751 2.053z"/>
        <path id="s1-bottle-3-fig" d="M217 366.605v-3c0-.561-.443-1-1-1h-1.977a1.01 1.01 0 0 0-1.012 1v3H213l-4 3.59v18.41c0 .56.45 1.003 1.01 1.003l10-.003a1 1 0 0 0 1-1v-18l-4-4H217zm2 21l-8 .003v-16.521l2.766-2.481h2.43l2.805 2-.001 16.999z"/>
    </g>
    <g id="s1-bottle-2" fill="#1692D0">
        <path id="s1-bottle-2-wave" d="M241.604 391.605c-1.174 0-2.516.012-2.604 0v-2c.053.007 6.043.56 9.2-1.683l1.155 1.63c-2.43 1.731-5.67 2.053-7.751 2.053z"/>
        <path id="s1-bottle-2-fig" d="M246 366.605v-3c0-.561-.443-1-1-1h-1.977a1.01 1.01 0 0 0-1.012 1v3H242l-4 3.59v18.41c0 .56.45 1.003 1.01 1.003l10-.003c.55 0 .99-.445.99-1v-18l-3.99-4H246zm2 21l-8 .003v-16.521l2.766-2.481h2.43l2.805 2-.001 16.999z"/>
    </g>
    <g id="s1-bottle-1" fill="#1692D0">
        <path id="s1-bottle-1-wave" d="M270.604 372.605c-1.174 0-2.516.012-2.604 0v-2c.053.007 6.043.56 9.2-1.683l1.155 1.63c-2.43 1.731-5.67 2.053-7.751 2.053z"/>
        <path id="s1-bottle-1-fig" d="M275 366.605v-3c0-.561-.443-1-1-1h-1.977a1.01 1.01 0 0 0-1.012 1v3H271l-4 3.59v18.41c0 .56.45 1.003 1.01 1.003l10-.003c.55 0 .99-.445.99-1v-18l-3.99-4H275zm2 21l-8 .003v-16.521l2.766-2.481h2.43l2.805 2-.001 16.999z"/>
    </g>
    <path fill="#FFF" d="M309 392.605h25v29h-25v-29zm-119-38h32v39h-32v-39z"/>
    <path fill="#39393A" d="M340.854 283.805c-.468-.984-1.753-1.805-2.86-1.805H222.007c-1.11 0-2.39.81-2.862 1.805l-7.295 15.386c-.468.987.042 1.81 1.15 1.81h7v36.003h-13.13l-5.872-88.062a1.003 1.003 0 0 0-.998-.94h-12c-.525 0-.963.41-.998.93l-5.91 88.65a.959.959 0 0 0-.092.42v80c0 .55.448 1 1 1h40v-16h64.01c3.854 0 6.99-3.14 6.99-7s-3.13-7-6.99-7H222v-88h9v26c0 .54.385 1.22.86 1.49l6.917 4c.467.27 1.31.5 1.86.5H241V336c0 .54.443.99.99.99h4.02c.54 0 .99-.44.99-.99v-3.021h.52c.55 0 1.388-.229 1.86-.513l6.76-3.988c.475-.279.86-.962.86-1.512v-26h81V356h-35v62.966h37v-118h6.996c1.104 0 1.62-.812 1.15-1.812l-7.292-15.389v.047-.007zM220 388.995V417h-37v-78.645a.933.933 0 0 0 .064-.296l5.872-88.064h10.13l5.87 88.064c.035.521.47.937.998.937H220v49.999zM338 417h-33v-59.004h33V417zm-52-26.004c2.757 0 5 2.242 5 5 0 2.757-2.243 5-5 5s-5-2.243-5-5c0-2.758 2.243-5 5-5zm-4.89 0a6.988 6.988 0 0 0 0 10.004h-34.22a6.982 6.982 0 0 0 0-10.004h34.22zm-39.11 0c2.757 0 5 2.242 5 5 0 2.757-2.243 5-5 5s-5-2.243-5-5c0-2.758 2.243-5 5-5zm-4.89 0a6.988 6.988 0 0 0 0 10.004H222v-10.004h15.11zM245 335h-2v-2.004h2V335zm10-8.146l-6.635 3.91c-.168.104-.65.236-.846.236h-6.89c-.2 0-.69-.145-.86-.244l-6.78-3.93v-25.83H255v25.858zM214.16 299l6.793-14.344c.14-.296.722-.66 1.055-.66h115.985c.333 0 .915.364 1.055.66L345.84 299H214.16z"/>
    <path fill="#39393A" d="M305 363h33v1.996h-33V363z"/>
    <g id="s1-clouds" fill="#1692D0" fill-opacity="0">
        <path id="s1-cloud-1" d="M194.404 246.062a9.938 9.938 0 0 1-2.428-7.258 9.95 9.95 0 0 1 3.416-6.86 9.843 9.843 0 0 1 7.258-2.438 9.925 9.925 0 0 1 6.85 3.398l-1.51 1.312a7.924 7.924 0 0 0-5.48-2.74 7.966 7.966 0 0 0-5.805 1.938 7.93 7.93 0 0 0-2.732 5.48c-.15 2.13.54 4.19 1.943 5.8l-1.51 1.312h-.002v.056z"/>
        <path id="s1-cloud-2" d="M210.604 249.605c-5.515 0-10-4.486-10-10h2c0 4.41 3.59 8 8 8s8-3.59 8-8h2c0 5.514-4.487 10-10 10z"/>
        <path id="s1-cloud-3" d="M232.463 239.793l-1.98-.274c.62-4.4-2.457-8.48-6.857-9.102-4.406-.61-8.482 2.46-9.102 6.86l-1.98-.27c.77-5.49 5.864-9.33 11.36-8.563 5.49.77 9.33 5.87 8.56 11.36l-.001-.011z"/>
        <path id="s1-cloud-4" d="M233.055 249.688a9.969 9.969 0 0 1-4.22-.942c-2.42-1.1-4.258-3.13-5.17-5.64l1.88-.68a7.977 7.977 0 0 0 4.135 4.521c1.936.91 4.11 1 6.115.28a7.968 7.968 0 0 0 4.516-4.13c.91-1.94 1-4.11.27-6.12l1.88-.68c.92 2.51.8 5.23-.33 7.65a9.922 9.922 0 0 1-5.64 5.17c-1.11.41-2.27.61-3.42.61l-.01-.01v-.022l-.006-.007z"/>
        <path id="s1-cloud-5" d="M213.18 228.768a9.951 9.951 0 0 1 1.658-7.473c1.532-2.19 3.825-3.65 6.456-4.142 5.43-.96 10.627 2.68 11.584 8.11l-1.97.35c-.766-4.35-4.926-7.26-9.268-6.49-4.345.762-7.256 4.922-6.49 9.27l-1.97.34v.037-.002z"/>
        <path id="s1-cloud-6" d="M247.104 239.56l-1-1.73c3.82-2.206 5.133-7.105 2.93-10.93-2.207-3.82-7.108-5.132-10.93-2.927l-1-1.732c4.775-2.754 10.903-1.11 13.66 3.66 2.756 4.774 1.114 10.903-3.66 13.659z"/>
    </g>
    <path fill="#1692D0" d="M309 393v24h25v-24h-25zm11.076 12.096L311 414.17v-18.15l9.076 9.074v.002zM312.414 395h18.15l-9.075 8.68-9.08-8.68h.005zm9.076 11.508l9.097 8.492h-18.193l9.096-8.492zm1.414-1.413l9.096-9.107v18.188l-9.096-9.107v.026z"/>
    <path fill="none" d="M182.066 338.605H182v80h39v-80h-15.066l-5.934-89h-12"/>
    <path fill="#39393A" d="M632.99 273H617v-5.5c0-4.14-3.36-7.5-7.51-7.5h-76.98c-4.146 0-7.51 3.37-7.51 7.5v5.5h-14.99c-.56 0-1.01.44-1.01 1 0 .55.45 1 1.01 1h.17c-.104.32-.18.64-.18 1v143h2v-64h38v63.98h2V346h-40v-70c0-.56.45-1 1.01-1H629c.56 0 1.01.45 1.01 1l-.01 57h2v-57c0-.35-.06-.69-.18-1h1.17c.56 0 1.01-.44 1.01-1 0-.55-.45-1-1.01-1zM550 348v5h-38v-5h38zm65-75h-88v-5.5c0-3.03 2.47-5.5 5.51-5.5h76.98c3.04 0 5.51 2.47 5.51 5.5v5.5z"/>
    <g id="s1-loader">
        <circle cx="455" cy="408.105" r="8.5" fill="#FFF"/>
        <path fill="#FFF" d="M441.06 411.216c0 2.42-1.821 4.393-4.062 4.393s-4.062-1.973-4.062-4.393 1.82-4.392 4.07-4.392 4.07 1.97 4.07 4.392h-.016z"/>
        <path fill="#FFF" d="M445.87 407.825c0 1.34.25 2.62.72 3.78h-3.55c.01-.133.02-.25.02-.393 0-3.53-2.72-6.392-6.062-6.392-3.354 0-6.062 2.859-6.062 6.393 0 .13.021.26.021.393h-.44v-14.923l3.86-4.077 14.229.037 4.9 5.562c.09-.021.18-.021.26-.04-4.46.71-7.88 4.762-7.88 9.66h-.016z"/>
        <path fill="#39393A" d="M468.5 393.605v-5c0-9.66-7.86-17-17.51-17h-13.5c-2.2 0-3.99 1.777-3.99 4v15l-5 5.277v15.853c0 1.102.89 1.87 2 1.87h.87c.896 2.34 3.07 4 5.62 4 2.59 0 4.79-1.713 5.66-4.103l-.03.103h5.05c-.02-.021-.03-.053-.04-.07 1.68 2.46 4.42 4.07 7.521 4.07 3.59 0 6.696-2.16 8.25-5.312-.054.1-.094.21-.144.312h5.24v-10m-31.507 13c-2.24 0-4.062-1.973-4.062-4.393s1.82-4.392 4.062-4.392 4.062 1.972 4.062 4.393c.004 2.424-1.823 4.393-4.062 4.392zm9.6-4h-3.55c.01-.133.02-.25.02-.393 0-3.53-2.72-6.392-6.062-6.392-3.354 0-6.062 2.859-6.062 6.393 0 .13.021.26.021.393h-.44v-14.923l3.86-4.077 14.229.037 4.9 5.562c.09-.021.18-.021.26-.04-4.46.71-7.88 4.762-7.88 9.66 0 1.34.25 2.62.72 3.78h-.016zm8.56 4c-4.021 0-7.28-3.49-7.28-7.78s3.26-7.78 7.28-7.78c4.02 0 7.289 3.49 7.289 7.78s-3.269 7.78-7.289 7.78zm11.35-18.03l-8.75-8.88.22-.223c.5-.5.5-1.3 0-1.812-.5-.5-1.31-.487-1.81 0l-2.12 2.133c-.5.5-.51 1.312 0 1.812.5.5 1.31.5 1.8 0l.104-.103 10.56 11.103v9h-2.439a.485.485 0 0 1-.041.107c.272-.91.428-1.88.428-2.892 0-5.09-3.69-9.261-8.396-9.729l-6.55-7.45-5.53-.01-1.92-9.107c-.104-.54-.646-.98-1.21-.98h-.42c-.55 0-.91.44-.8.98l1.92 9.1-6.04-.02v-15c0-1.101.891-2 1.99-2h13.5c8.7 0 15.51 6.59 15.51 15l-.006 8.971zm2-3.97v-5c0-9.66-7.86-17-17.51-17h-13.5c-2.2 0-3.99 1.777-3.99 4v15l-5 5.277v15.853c0 1.102.89 1.87 2 1.87h.87c.896 2.34 3.069 4 5.62 4 2.59 0 4.79-1.713 5.66-4.103l-.03.103h5.05c-.02-.021-.03-.053-.04-.07 1.68 2.46 4.42 4.07 7.521 4.07 3.59 0 6.696-2.16 8.25-5.312-.054.1-.094.21-.144.312h5.24l.003-19zm-31.51 22c-2.24 0-4.062-1.973-4.062-4.393s1.82-4.392 4.062-4.392 4.062 1.972 4.062 4.393c.004 2.424-1.823 4.393-4.062 4.392zm9.6-4h-3.55c.01-.133.02-.25.02-.393 0-3.53-2.72-6.392-6.062-6.392-3.354 0-6.062 2.859-6.062 6.393 0 .13.021.26.021.393h-.44v-14.923l3.86-4.077 14.229.037 4.9 5.562c.09-.021.18-.021.26-.04-4.46.71-7.88 4.762-7.88 9.66 0 1.34.25 2.62.72 3.78h-.016zm8.56 4c-4.021 0-7.28-3.49-7.28-7.78s3.26-7.78 7.28-7.78c4.02 0 7.289 3.49 7.289 7.78s-3.269 7.78-7.289 7.78zm11.35-18.03l-8.75-8.88.22-.223c.5-.5.5-1.3 0-1.812-.5-.5-1.31-.487-1.81 0l-2.12 2.133c-.5.5-.51 1.312 0 1.812.5.5 1.31.5 1.8 0l.104-.103 10.56 11.103v9h-2.439a.485.485 0 0 1-.041.107c.272-.91.428-1.88.428-2.892 0-5.09-3.69-9.261-8.396-9.729l-6.55-7.45-5.53-.01-1.92-9.107c-.104-.54-.646-.98-1.21-.98h-.42c-.55 0-.91.44-.8.98l1.92 9.1-6.04-.02v-15c0-1.101.891-2 1.99-2h13.5c8.7 0 15.51 6.59 15.51 15l-.006 8.971z"/>
        <path id="s1-loader-claw" fill="#39393A" d="M472.5 406.605v-1h-4v2h4m-4-8h4.01v2h-4.01v-2zm40 14h-31v-34.53c0-1.37-1.1-2.48-2.48-2.48a2.47 2.47 0 0 0-2.481 2.48l-.025 20.53h.015v4.02l-.021 11.98h36c.55 0 1 0 1-1s-.458-1-1.008-1zm-33 0h-1v-34c0-.271 0-1 .52-1.013.48.013.48.74.48 1.013v34z"/>
    </g>
    <g id="s1-gift-box">
        <rect width="19" height="38" x="485" y="375" fill="#FFF"/>
        <path fill="#1692D0" d="M505.466 366.93l.058.071.059.069-.117-.14zm.054.07c-.7-.81-1.62-1.21-2.53-1.21-.93 0-1.85.41-2.56 1.24l-3.41 3.97H492l-3.4-3.97c-.71-.83-1.64-1.24-2.56-1.24s-1.83.4-2.54 1.21c-1.34 1.69-.9 3.87 1.01 4.92l3.82 2.08h-2.34c-1.09 0-1.99.89-1.99 2v38h21v-38c0-1.11-.89-2-1.99-2h-2.32l3.82-2.08c1.91-1.05 2.36-3.23 1.01-4.92zM490 412h-4v-14h4v14zm0-16h-4v-5h4v5zm0-7h-4l-.01-13H490v13zm0-16.37l-4.53-2.47c-.4-.22-.66-.52-.72-.86-.07-.33.03-.68.29-1.02.29-.32.64-.49 1-.49.37 0 .73.19 1.04.54l2.92 3.41v.89zm7 39.37h-5v-36h5v36zm.02-38H492v-1h5.02v1zm5.98 38h-4v-14h4v14zm0-16h-4v-5h4v5zm0-20v13h-4v-13h4zm1.28-6.7c-.07.34-.33.64-.72.86l-4.54 2.47v-.89l2.93-3.41c.3-.35.66-.54 1.04-.54.36 0 .7.17 1 .49.25.34.35.69.29 1.02z"/>
        <path fill="#1692D0" d="M483.441 367.07l.059-.069.058-.071-.117.14z"/>
    </g>
    <path fill="#FFF" d="M425 327h85v91h-85v-91z"/>
    <path fill="#39393A" d="M426.641 361.097a6.327 6.327 0 0 0-.857-2.956 12.41 12.41 0 0 0 .954-4.801c0-6.877-5.576-12.473-12.429-12.473-.915 0-1.822.1-2.707.297a5.36 5.36 0 0 0-4.897-2.141 12.744 12.744 0 0 0-9.539-4.274 12.79 12.79 0 0 0-11.435 7.055 10.587 10.587 0 0 0-1.899-.172c-5.605 0-10.319 4.521-10.854 10.234-4.932 1.175-8.432 5.689-8.432 11.033 0 2.891 1.027 5.6 2.906 7.698a11.66 11.66 0 0 0-.62 3.774c0 5.959 4.345 10.806 9.993 11.286 1.979 3.342 5.491 5.396 9.293 5.396 1.422 0 2.801-.278 4.103-.829 2.186.627 4.488.909 6.779.85V419h1.997l.001-28.071a22.282 22.282 0 0 0 2.259-.367c.8-.177 1.594-.4 2.369-.664a10.525 10.525 0 0 0 6.111 1.944c4.792 0 9.02-3.261 10.421-7.981a5.348 5.348 0 0 0 2.302-3.136c4.723-1.31 8.086-5.805 8.086-10.943.001-3.387-1.417-6.526-3.905-8.685zm-5.241 17.83l-.695.146-.091.705a3.351 3.351 0 0 1-1.772 2.538l-.395.206-.111.431c-1.045 4.058-4.581 6.891-8.599 6.891-1.938 0-3.78-.64-5.326-1.852l-.439-.344-.523.193c-.851.313-1.733.573-2.623.77a20 20 0 0 1-1.827.305v-8.128l12.272-5.811c.44-.208.789-.734.866-1.232-.078-.43-.436-.623-.866-.421l-12.272 5.75v-7.523l8.119-3.406c.45-.188.807-.7.884-1.196-.078-.433-.434-.645-.884-.459L399 369.836v-7.737a1 1 0 0 0-2 0v7.817l-8.313-3.429c-.45-.186-.806.026-.884.459.078.496.434 1.008.884 1.196L397 371.63v7.576l-12.558-5.884c-.431-.202-.788-.009-.866.421.077.498.426 1.024.866 1.232L397 380.921v8.154a20.585 20.585 0 0 1-6.556-.87l-.366-.112-.348.162a8.499 8.499 0 0 1-3.612.798c-3.244 0-6.234-1.85-7.803-4.828l-.271-.515-.582-.019c-4.839-.153-8.63-4.247-8.63-9.32 0-1.26.236-2.483.702-3.635l.249-.615-.47-.468c-1.784-1.778-2.766-4.177-2.766-6.755 0-4.564 3.243-8.526 7.543-9.217l.821-.132.02-.832c.12-5.011 4.113-9.087 8.902-9.087a8.54 8.54 0 0 1 2.208.289l.839.225.34-.799a10.8 10.8 0 0 1 9.946-6.597 10.76 10.76 0 0 1 8.372 3.987l.395.485.609-.143c1.45-.342 3.016.367 3.717 1.7l.379.722.783-.226a10.39 10.39 0 0 1 2.887-.406c5.75 0 10.429 4.698 10.429 10.473 0 1.562-.333 3.064-.992 4.464l-.249.53.34.477a4.34 4.34 0 0 1 .809 2.534l-.024.689.397.316c2.242 1.781 3.528 4.491 3.528 7.434.001 4.428-3.004 8.274-7.146 9.143z"/>
    <path fill="#39393A" d="M412.168 373.554c0 .062-.022.126-.032.189.009.053.032.096.032.156v-.345zm-24.397-6.448c0-.062.022-.105.032-.16-.01-.062-.032-.125-.032-.186v.346zm20.264-.345c0 .061-.022.124-.032.186.01.055.032.099.032.16v-.346zm-24.491 7.138c0-.061.022-.103.032-.156-.01-.063-.032-.128-.032-.189v.345zM482.242 393c-1.043 0-1.975.913-2.098 2.04L477.859 419H491l-2.901-23.96c-.123-1.125-1.063-2.04-2.099-2.04h-1V240.85c1.651-.449 3-1.951 3-3.85 0-2.272-1.926-4-4-4-2.073 0-4 1.728-4 4 0 1.898 1.349 3.401 3 3.849V248h-7v2h7v7h-7v2h7v7h-7v2h7v125h-.758zM482 237c0-1.179 1.054-2 2-2s2 .821 2 2-1.054 2-2 2-2-.821-2-2zm3.959 158a.407.407 0 0 1 .154.28l2.63 21.72h-8.684l2.073-21.743a.382.382 0 0 1 .147-.257h3.68z"/>
    <g id="s1-flag-1-substrate">
        <rect width="29" height="28" x="449" y="244" fill="#FFF"/>
        <path fill="#1692D0" d="M478 243h-29c-.507 0-1 .435-1 1v28c0 .556.485 1 1 1h29.069c.507 0 .931-.458.931-1.021v-27.875c0-.557-.485-1.104-1-1.104zm-1 28h-27v-26h27v26z"/>
        <path fill="#1692D0" d="M457 262h3v3c0 .573.483 1 1 1h5c.511 0 1-.431 1-1v-3h3c.522 0 .938-.355 1-1v-6c-.062-.482-.481-1-1-1h-3v-3c-.094-.791-.482-1-1-1h-5c-.51 0-1 .432-1 1v3h-3c-.522 0-.922.605-1 1v6c.078.732.481 1 1 1zm1-6h4v-4h3v4h4v4h-4v4h-3v-4h-4v-4z"/>
    </g>
    <path fill="#FFF" d="M622 345h24v49h-24v-49z"/>
    <g id="s1-conveyor-part-1">
        <path id="s1-test-tube-1" fill="#1692D0" d="M858.512 276.875h-5.994a1.02 1.02 0 0 0-1.018 1.023c0 .563.46.976 1.02.977v14a2.974 2.974 0 0 0 2.98 2.973c1.643 0 3-1.33 3-2.973v-14h.02c.562 0 1.019-.41 1.019-.977a1.032 1.032 0 0 0-1.027-1.023zm-1.992 16c0 .527-.439 1-1 1-.531 0-1.02-.464-1.02-1v-14.027h2.02v14.027z"/>
        <path id="s1-conveyor-detail-1" fill="#39393A" d="M856.52 276.875h-2V270.5l2 1"/>
    </g>
    <g id="s1-conveyor-part-2">
        <path id="s1-test-tube-2" fill="#1692D0" d="M867.482 280.875h-5.994c-.562 0-1.021.458-1.021 1.023 0 .563.474.976 1.03.977v14a2.965 2.965 0 0 0 2.97 2.973c1.646 0 3.021-1.33 3.021-2.973l-.006-14h.008c.57 0 1.01-.41 1.01-.977 0-.57-.45-1.023-1.01-1.023h-.008zm-1.982 16c0 .527-.456 1-1.01 1-.54 0-1-.464-1-1v-14.027h2.01v14.027z"/>
        <path id="s1-conveyor-detail-2" fill="#39393A" d="M865.5 280.875h-2V274.5l2 1"/>
    </g>
    <g id="s1-conveyor-part-3">
        <path id="s1-test-tube-3" fill="#1692D0" d="M876.5 284.848h-6c-.562 0-1 .438-1 1 0 .567.452 1 1.012 1l-.012 14.375a2.966 2.966 0 0 0 2.97 2.973c1.646 0 3.022-1.326 3.022-2.973l.008-14.375c.562 0 1-.436 1-1 0-.57-.438-1-1-1zm-2 16.375c0 .526-.456 1-1.01 1-.54 0-1-.465-1-1v-14.375h2.01v14.375z"/>
        <path id="s1-conveyor-detail-3" fill="#39393A" d="M874.5 284.848h-2v-6l2 1"/>
    </g>
    <path fill="#FFF" d="M868 383h121v34H868v-34zm74-74l-25-11v-12h25m-108-28h46v63h-46v-63z"/>
    <g id="s1-boxes">
        <path fill="#39393A" d="M836 383v34h34v-34h-34zm32 32h-30v-30h30v30z"/>
        <path fill="#39393A" d="M862 394l-18 3v9l18-3v-9zm-1.98 7.39l-14.045 2.271v-4.942l14.055-2.373v5.055h-.01v-.011zM874 383v34h34v-34h-34zm32 32h-30v-30h30v30z"/>
        <path fill="#39393A" d="M900 394l-18 3v9l18-3v-9zm-1.98 7.39l-14.045 2.271v-4.942l14.055-2.373v5.055h-.01v-.011zM912 383v34h34v-34h-34zm32 32h-30v-30h30v30z"/>
        <path fill="#39393A" d="M938 394l-18 3v9l18-3v-9zm-1.98 7.39l-14.045 2.271v-4.942l14.055-2.373v5.055h-.01v-.011z"/>
        <path fill="#1692D0" d="M962.01 376h-5.99c-.56 0-1.02.46-1.02 1.02 0 .57.46.98 1.02.98v5H958v-5h2.02v5H962v-5h.02c.562 0 1.019-.41 1.019-.98a1.029 1.029 0 0 0-1.029-1.02zm8.97 0h-5.99c-.562 0-1.021.46-1.021 1.02 0 .57.47.98 1.03.98v5h1.99v-5H969v5h1.98v-5h.01c.56 0 1.01-.41 1.01-.98 0-.57-.46-1.02-1.02-1.02zm9.03 0h-5.99c-.56 0-1.02.46-1.02 1.02 0 .57.46.98 1.02.98v5H976v-5h2.02v5H980v-5h.02c.562 0 1.019-.41 1.019-.98a1.029 1.029 0 0 0-1.029-1.02z"/>
        <path fill="#39393A" d="M951 383v34h34v-34h-34zm32 32h-30v-30h30v30z"/>
        <path fill="#39393A" d="M977 394l-18 3v9l18-3v-9zm-1.98 7.39l-14.045 2.271v-4.942l14.055-2.373v5.055h-.01v-.011z"/>
    </g>
    <path fill="#FFF" d="M820 359h50v58h-50v-58zm169 0h50v58h-50v-58z"/>
    <path fill="#39393A" d="M837 369.247c0-1.677-.814-3.186-2.111-4.234.073-.346.111-.701.111-1.064 0-1.326-.51-2.548-1.364-3.52C835.08 359.376 836 357.783 836 356a5.247 5.247 0 0 0-1.021-3.091 5.247 5.247 0 0 0 1.021-3.091c0-1.783-.92-3.376-2.364-4.429.854-.973 1.364-2.193 1.364-3.52 0-2.481-1.783-4.595-4.279-5.396a5.104 5.104 0 0 0 .279-1.668c0-2.389-1.652-4.437-4.002-5.302-.071-3.115-2.953-5.621-6.498-5.621-.441 0-.873.039-1.289.113-1.103-1.785-3.246-2.996-5.711-2.996-1.682 0-3.215.564-4.369 1.49a7.211 7.211 0 0 0-2.631-.49c-2.731 0-5.069 1.488-6.031 3.596a7.359 7.359 0 0 0-.969-.063c-3.59 0-6.5 2.57-6.5 5.74 0 .433.055.854.156 1.259-1.891 1.003-3.156 2.833-3.156 4.923 0 .709.146 1.387.411 2.014-2.031.971-3.411 2.869-3.411 5.052 0 1.677.814 3.185 2.111 4.234a5.158 5.158 0 0 0 .53 3.55c-1.021 1.014-1.641 2.35-1.641 3.812 0 1.113.359 2.152.98 3.032a5.232 5.232 0 0 0-.98 3.032c0 .861.215 1.678.6 2.411-.996 1.009-1.6 2.327-1.6 3.771 0 1.677.814 3.186 2.111 4.234a5.143 5.143 0 0 0 .53 3.551c-1.021 1.014-1.641 2.349-1.641 3.812 0 2.106 1.284 3.947 3.198 4.946.714 2.486 3.265 4.326 6.302 4.326.773 0 1.516-.119 2.205-.338.57.144 1.172.222 1.795.222a7.109 7.109 0 0 0 3.466-.884h.068a7.106 7.106 0 0 0 3.466.884 7.22 7.22 0 0 0 2.5-.446V417h2v-27.909a7.092 7.092 0 0 0 3.5.909c1.245 0 2.408-.31 3.396-.845a7.101 7.101 0 0 0 3.604.962c2.25 0 4.232-1.01 5.399-2.543 3.403-.183 6.101-2.678 6.101-5.73 0-.657-.125-1.288-.355-1.876 1.439-1.053 2.355-2.644 2.355-4.422a5.25 5.25 0 0 0-1.064-3.149c.672-.905 1.064-1.987 1.064-3.15zm-2.668 4.344c.437.587.668 1.263.668 1.955 0 1.07-.56 2.094-1.536 2.808l-1.244.91.562 1.435c.145.368.218.754.218 1.146 0 1.967-1.849 3.607-4.208 3.733l-.924.049-.561.736c-.836 1.099-2.259 1.754-3.808 1.754a5.102 5.102 0 0 1-2.589-.685l-.974-.574-.993.538a5.14 5.14 0 0 1-2.444.604c-1.262 0-2.433-.427-3.296-1.202l-.203-.183v-9.159l5.725-5.716a1 1 0 1 0-1.414-1.415l-4.293 4.287v-3.958l-.018-.017V368h-.009v-1.958c0-.275.214-.791.41-.986l5.323-5.315a1 1 0 1 0-1.414-1.415l-5.322 5.315c-.568.567-.997 1.599-.997 2.401v2.544l-4.463-4.557a1 1 0 0 0-1.43 1.399l5.893 6.017v.526c0 .016.008.028.009.043v14.469l-.076.041a5.146 5.146 0 0 1-2.424.593 5.12 5.12 0 0 1-2.491-.63l-.454-.253H804.445l-.454.253a5.112 5.112 0 0 1-2.491.63c-.442 0-.882-.054-1.307-.161l-.552-.139-.541.172a5.292 5.292 0 0 1-1.601.244c-2.059 0-3.9-1.21-4.38-2.878l-.236-.824-.76-.397c-1.33-.694-2.124-1.88-2.124-3.173 0-1.116.57-1.917 1.05-2.392l1.065-1.058-.719-1.318a3.176 3.176 0 0 1-.328-2.181l.254-1.199-.953-.771c-.883-.714-1.369-1.666-1.369-2.679 0-1.099.557-1.893 1.022-2.365l1.027-1.04-.679-1.294a3.161 3.161 0 0 1-.371-1.482c0-.66.213-1.31.614-1.879l.814-1.153-.814-1.153a3.257 3.257 0 0 1-.614-1.879c0-1.117.57-1.918 1.05-2.393l1.066-1.058-.72-1.319a3.163 3.163 0 0 1-.329-2.178l.255-1.199-.952-.771c-.884-.715-1.37-1.667-1.37-2.68 0-1.333.871-2.577 2.273-3.247l1.725-.825-.745-1.76a3.142 3.142 0 0 1-.253-1.233c0-1.281.782-2.461 2.094-3.156l1.383-.734-.38-1.519a3.177 3.177 0 0 1-.097-.772c0-2.062 2.019-3.74 4.5-3.74.237 0 .476.016.706.046l1.468.195.614-1.347c.662-1.451 2.355-2.426 4.212-2.426a5.18 5.18 0 0 1 1.901.353l1.077.422.903-.725c.845-.677 1.952-1.05 3.118-1.05 1.693 0 3.229.784 4.01 2.047l.714 1.157 1.339-.239c.306-.054.621-.082.938-.082 2.435 0 4.452 1.645 4.499 3.667l.03 1.36 1.277.471c1.637.603 2.693 1.947 2.693 3.425 0 .346-.058.688-.171 1.018l-.663 1.93 1.943.625c1.729.555 2.891 1.959 2.891 3.492 0 1.002-.472 1.75-.867 2.2l-1.445 1.646 1.771 1.291c.979.714 1.542 1.74 1.542 2.812 0 .675-.222 1.338-.642 1.917l-.85 1.173.85 1.173c.42.579.642 1.242.642 1.917 0 1.073-.562 2.098-1.542 2.812l-1.771 1.291 1.447 1.646c.396.449.866 1.195.866 2.199 0 .219-.022.438-.068.65l-.254 1.199.953.771c.883.714 1.369 1.666 1.369 2.679 0 .691-.231 1.367-.669 1.956l-.889 1.194.892 1.192z"/>
    <path id="s1-signal" fill="#1692D0" d="M690.062 342a1.73 1.73 0 0 1-.201.6l-1.799 2.4h-3.991l-1.805-2.443a1.848 1.848 0 0 1-.198-.557h7.994zm.997-2h-9.994c-.547 0-1.003.445-1.003.995v.948c0 .549.265 1.354.593 1.798l2.407 3.259h6l2.399-3.2c.334-.444.601-1.247.601-1.799v-1.002a.998.998 0 0 0-1.003-.999z"/>
    <path fill="#FFF" d="M761.07 396h-.311l-2.55-17.12c-.08-.55-.59-1.08-1.13-1.19l-17.04-3.43c-.55-.11-1.32-.49-1.73-.86l-19.97-17.51c-6.229-5.46-17.99-10.89-26.27-10.89H624.06c-.55 0-1.119.43-1.279.95l-5.44 19.44c-.149.52-.28 1.4-.28 1.95V396h-.01a1 1 0 0 0-.99 1v9c0 .55.45 1 1 1h17.011c-.011-.16-.011-.33-.011-.5a11.023 11.023 0 0 1 .002 0c0 6.352 5.149 11.5 11.5 11.5 6.329 0 11.463-5.115 11.497-11.437 0 .148 0 .297-.009.437h59.021c-.011-.16-.011-.33-.011-.5a11.023 11.023 0 0 1 .002 0c0 6.352 5.149 11.5 11.5 11.5 6.329 0 11.463-5.115 11.497-11.437 0 .148 0 .297-.009.437h21.01c.561 0 1.04-.45 1.091-1l.819-9c.049-.55-.351-1-.901-1zm-115.508 20c-5.238 0-9.5-4.262-9.5-9.5s4.262-9.5 9.5-9.5 9.5 4.262 9.5 9.5-4.262 9.5-9.5 9.5zm82 0c-5.238 0-9.5-4.262-9.5-9.5s4.262-9.5 9.5-9.5 9.5 4.262 9.5 9.5-4.262 9.5-9.5 9.5z"/>
    <path fill="#39393A" d="M645.562 402a4.5 4.5 0 1 0 0 9 4.5 4.5 0 0 0 0-9zm0 7c-1.379 0-2.5-1.122-2.5-2.5s1.121-2.5 2.5-2.5 2.5 1.122 2.5 2.5-1.122 2.5-2.5 2.5zm82-7a4.5 4.5 0 1 0 0 9 4.5 4.5 0 0 0 0-9zm0 7c-1.379 0-2.5-1.122-2.5-2.5s1.121-2.5 2.5-2.5 2.5 1.122 2.5 2.5-1.122 2.5-2.5 2.5z"/>
    <path fill="#39393A" d="M761.097 396h-.311l-2.55-17.12c-.08-.55-.59-1.08-1.13-1.19l-17.04-3.43c-.55-.11-1.32-.49-1.73-.86l-19.97-17.51c-6.229-5.46-17.99-10.89-26.27-10.89h-68.817c-.55 0-1.119.43-1.279.95l-4.66 19.44c-.149.52-.254 1.4-.254 1.95V396h-.01a1 1 0 0 0-.99 1v9c0 .55.45 1 1 1h17.011c-.011-.16-.011-.33-.011-.5a11.023 11.023 0 0 1 .002 0c0 6.352 5.149 11.5 11.5 11.5 6.329 0 11.463-5.115 11.497-11.437 0 .148 0 .297-.009.437h59.021c-.011-.16-.011-.33-.011-.5a11.023 11.023 0 0 1 .002 0c0 6.352 5.149 11.5 11.5 11.5 6.329 0 11.463-5.115 11.497-11.437 0 .148 0 .297-.009.437h21.01c.561 0 1.04-.45 1.091-1l.819-9c.05-.55-.35-1-.899-1zm-3.271-6.307c-2.088-.95-4.094-3.925-5.069-5.693h4.221l.848 5.693zm-138.53-23.773L624 347h68.097c7.83 0 19.229 5.38 24.96 10.4l19.96 17.51c.68.59 1.77 1.13 2.66 1.31l16.64 3.35.362 2.43h-4.592c-.627 0-1.148.274-1.431.752-.281.479-.269 1.068.015 1.578.361.73 3.444 6.722 7.483 7.564l.612 4.105h-26.49c.143.063.279.138.419.208a11.437 11.437 0 0 0-5.107-1.208c-1.876 0-3.642.458-5.207 1.256.171-.087.34-.178.516-.256h-72.62c.143.063.279.138.419.208a11.437 11.437 0 0 0-5.107-1.208c-1.876 0-3.642.458-5.207 1.256.171-.087.34-.178.516-.256h-17.809v-12.006c0-1.1-.895-1.994-1.998-1.994h-2.004v-14.66c-.001-.359.1-1.049.209-1.419zm1.792 30.08h-2v-12h2v12zm-3.002 9v-7h19.761c.065-.06.136-.112.202-.17a11.466 11.466 0 0 0-3.884 7.377c.009-.069.012-.139.021-.207h-16.1zm27.502 11c-5.238 0-9.5-4.262-9.5-9.5s4.262-9.5 9.5-9.5 9.5 4.262 9.5 9.5-4.262 9.5-9.5 9.5zm11.398-11c.007.048.009.098.015.146a11.453 11.453 0 0 0-3.838-7.282c.054.046.11.089.163.137h66.521c.065-.06.136-.112.202-.17a11.466 11.466 0 0 0-3.884 7.377c.009-.069.012-.139.021-.207h-59.2zm70.602 11c-5.238 0-9.5-4.262-9.5-9.5s4.262-9.5 9.5-9.5 9.5 4.262 9.5 9.5-4.262 9.5-9.5 9.5zm31.679-11h-20.28c.007.048.009.098.015.146a11.453 11.453 0 0 0-3.838-7.282c.054.046.11.089.163.137h24.57l-.63 6.999z"/>
    <path fill="#39393A" d="M643 375h6v6c0 .56.45 1 1 1h7c.561 0 1-.45 1-1v-6h6c.561 0 1-.45 1-1v-7c0-.55-.449-1-1-1h-6v-6c0-.56-.439-1-1-1h-7c-.55 0-1 .45-1 1v6h-6c-.56 0-1 .45-1 1v7c0 .55.45 1 1 1zm1-7h7v-7h5v7h7v5h-7v7h-5v-7h-7v-5zm52.06 12h29.271a.545.545 0 0 1-.03-.08c.33.64 1 1.08 1.771 1.08h1.92c1.11 0 2.01-.9 2.01-2v-6c0-.92-.619-1.93-1.439-2.34l-2.16-1.11c-.271-.13-.54-.2-.811-.2-.49 0-.899.21-1.18.57L713.5 358.4c-.79-.78-2.33-1.4-3.44-1.4h-14c-.54 0-1 .45-1 1v21c0 .56.45 1 1 1zm30.94-8l1.671.45c.149.07.329.38.329.55v6h-2v-7zm-30-13h13.06c.591 0 1.631.42 2.051.83l12.29 11.89.109.11.13.09.42.3V378H697v-19zm4.059 23h-4.994a.995.995 0 0 0-1.003 1 1 1 0 0 0 1.003 1h4.994a.995.995 0 0 0 1.003-1 1 1 0 0 0-1.003-1z"/>
    <path id="s1-line-1" fill="#1692D0" fill-rule="evenodd" d="M685.062 326.997a.996.996 0 0 1 1-.997c.552 0 1 .446 1 .997v7.006a.996.996 0 0 1-1 .997c-.552 0-1-.446-1-.997v-7.006z" clip-rule="evenodd"/>
    <path id="s1-line-2" fill="#1692D0" fill-rule="evenodd" d="M676.59 331.217a1.02 1.02 0 0 0-1.457-.134l.072-.061a1.069 1.069 0 0 0-.146 1.48l3.475 4.28a1.02 1.02 0 0 0 1.457.134l-.072.061a1.069 1.069 0 0 0 .146-1.48l-3.475-4.28z" clip-rule="evenodd"/>
    <path id="s1-line-3" fill="#1692D0" fill-rule="evenodd" d="M695.533 331.217a1.02 1.02 0 0 1 1.457-.134l-.072-.061c.443.372.503 1.042.146 1.48l-3.475 4.28a1.02 1.02 0 0 1-1.457.134l.072.061a1.069 1.069 0 0 1-.146-1.48l3.475-4.28z" clip-rule="evenodd"/>
    <path fill="#39393A" d="M868 322s-.18 96.58 0 96.77c.189.19.74.23 1 .23h44.08c-.061-.32-.08-.66-.08-1s.02-.68.08-1H870v-96h4c3.311 0 6-2.688 6-6.01v-32.01l65 29.037a2.998 2.998 0 0 0 3 2.98c1.66 0 3-1.34 3-3 0-1.3-.84-2.4-2-2.82V273h40v144h-62.08c.061.32.08.66.08 1s-.02.68-.08 1H1025v-66l-34-24.56V273h1.01c.551 0 .99-.45.99-1 0-.56-.45-1-1-1H865.99c-.551 0-.99.45-.99 1 0 .562.439 1 .99 1H868v48m10-6.01c0 2.21-1.79 4.01-4 4.01h-4v-46h8v41.99zm69-5.81c-.59.21-1.1.604-1.45 1.11L880 280.98V273h67v36.18zM896.98 271c0-.01.01-.02.01-.04M1023 417h-32v-86.09l32 23.105V417z"/>
    <g id="s1-plants">
        <g id="s1-plant-1_1_">
            <path id="s1-flower-2" fill="#1692D0" d="M361.605 398.932c.551 0 1 .449 1 1 0 .557-.449 1-1 1s-1-.443-1-1c0-.551.45-1 1-1m0-2a3 3 0 1 0 0 6 3 3 0 0 0 0-6z"/>
            <path fill="#39393A" d="M372.952 400.735c-.144-.184-.457-.479-1.039-.479-.08 0-.168.006-.223.013l-.031.013c-.041 0-.118.005-.229.012l-.229.015a13.33 13.33 0 0 0-1.125.161c-1.263.233-2.43.646-3.472 1.216-.612.337-1.189.739-1.722 1.197-.271.238-.531.488-.786.753a9.678 9.678 0 0 0-2.037 3.197c-.222.573-.368 1.104-.391 1.385l-.021.604h-.026l-.004-.104-.021-.161a2.25 2.25 0 0 0-.058-.26l-.001-.005c-.034-.357-.188-.896-.401-1.462-.444-1.164-1.13-2.241-2.043-3.207a8.875 8.875 0 0 0-.785-.742 9.207 9.207 0 0 0-1.713-1.2c-1.045-.575-2.213-.979-3.473-1.218-.41-.075-.788-.129-1.165-.165l-.191-.011c-.104-.009-.179-.01-.142-.009l-.071-.009c-.786-.104-1.13.257-1.287.451-.356.46-.271 1.021-.212 1.282.012.095.036.206.075.362.062.272.146.602.264.975a12.145 12.145 0 0 0 1.4 2.941 9.541 9.541 0 0 0 1.786 2.062c1.175 1.021 2.473 1.736 3.856 2.144.688.188 1.347.298 1.849.297l.146.007c.15.021.29.032.419.032.279 0 .526-.064.753-.156V418h2v-7.346c.232.096.483.158.771.158.118 0 .245-.01.381-.021l.174-.006c.495 0 1.146-.106 1.833-.302 1.385-.397 2.685-1.116 3.859-2.142a9.846 9.846 0 0 0 1.778-2.059 12.294 12.294 0 0 0 1.406-2.966c.107-.354.193-.684.253-.938.03-.121.05-.215.064-.31l.014-.085c.141-.49.076-.916-.183-1.248zm-13.678 8.056c-.115 0-.547-.021-1.273-.224-1.104-.317-2.147-.897-3.104-1.729a7.629 7.629 0 0 1-1.422-1.646 10.397 10.397 0 0 1-1.167-2.446c-.043-.146-.083-.279-.118-.41.188.023.376.056.579.093a9.535 9.535 0 0 1 2.874 1.005 7.3 7.3 0 0 1 1.363.956c.229.197.444.404.646.613a7.658 7.658 0 0 1 1.624 2.543c.205.53.271.854.289 1.016l.04.236-.331-.007zm11.633-6.062c-.289.89-.685 1.723-1.175 2.477a8.009 8.009 0 0 1-1.419 1.644c-.954.826-1.998 1.406-3.097 1.729-.737.208-1.17.226-1.285.226l-.088-.001-.216.011v-.157l.021-.153c.014-.08.072-.403.278-.938a7.665 7.665 0 0 1 1.617-2.531c.21-.223.43-.434.653-.631.41-.355.867-.68 1.361-.943a9.376 9.376 0 0 1 2.867-1.004c.208-.036.405-.067.583-.098a4.71 4.71 0 0 1-.1.369z"/>
        </g>
        <g id="s1-plant-2">
            <circle id="s1-flower-1" cx="448.451" cy="396.132" r="2" fill="#1692D0"/>
            <path fill="#39393A" d="M458.96 407.567a.474.474 0 0 0-.448-.444s-.116-.009-.324-.009c-.467 0-1.469.048-2.678.354 2.212-6.136 1.519-10.732 1.487-10.936a.482.482 0 0 0-.306-.373.482.482 0 0 0-.477.076c-.152.123-3.53 2.906-5.971 8.564-.72-1.037-1.39-1.631-1.45-1.684a.49.49 0 0 0-.635 0c-.06.053-.727.643-1.444 1.676-2.44-5.652-5.816-8.438-5.967-8.562a.466.466 0 0 0-.477-.076.479.479 0 0 0-.305.373c-.033.192-.725 4.798 1.486 10.933a11.002 11.002 0 0 0-2.669-.354c-.208 0-.324.01-.324.01a.482.482 0 0 0-.449.444c-.012.177-.266 4.36 2.92 7.526a9.534 9.534 0 0 0 2.863 1.949s1.689.851 4.408.851 4.979-.851 4.979-.851a9.632 9.632 0 0 0 2.861-1.949c3.188-3.151 2.933-7.342 2.92-7.518zm-10.494 8.514c-.016-.021-.033-.04-.049-.062l-.051-.062-.038-.047c-.788-.986-1.768-2.604-1.96-4.694a7.793 7.793 0 0 1-.037-.712 8.22 8.22 0 0 1 .691-3.236 9.267 9.267 0 0 1 .571-1.102c.312-.521.631-.939.887-1.246a9.965 9.965 0 0 1 1.187 1.778c.095.184.186.379.273.581a8.159 8.159 0 0 1 .686 3.232c0 .251-.016.494-.039.73-.193 2.025-1.132 3.61-1.955 4.669l-.167.165.001.006zm-3.986-7.045c-.058.39-.094.797-.109 1.3l-.006.108a27.979 27.979 0 0 1-.75-1.526 27.24 27.24 0 0 1-.564-1.344l-.039-.103c-1.359-3.551-1.678-6.608-1.7-8.599 1.222 1.396 2.896 3.688 4.228 6.911a10.5 10.5 0 0 0-1.06 3.253zm9.44-1.476l-.041.104a26.494 26.494 0 0 1-1.289 2.802l-.008-.205a10.063 10.063 0 0 0-.104-1.212 10.415 10.415 0 0 0-1.056-3.247c1.331-3.227 3.008-5.521 4.233-6.921-.023 1.983-.348 5.058-1.735 8.679zm3.545 1.047c-.12 1.305-.605 3.609-2.46 5.458-1.28 1.271-2.786 1.894-4 2.189 1.293-1.479 3.033-3.881 4.446-7.257a10.496 10.496 0 0 1 2.014-.39zm-11.542 7.674c-1.208-.313-2.705-.946-3.97-2.229-1.842-1.856-2.306-4.176-2.414-5.479a9.903 9.903 0 0 1 2.002.411c1.39 3.404 3.118 5.822 4.382 7.297z"/>
        </g>
        <g id="s1-plant-3">
            <circle id="s1-flower-3" cx="832.44" cy="403.839" r="1" fill="#1692D0"/>
            <circle id="s1-flower-4" cx="847.439" cy="403.839" r="1" fill="#1692D0"/>
            <path fill="#39393A" d="M848.318 408.966h-.039s-.24-.04-.65-.04c-.646 0-1.729.09-2.92.55.016-3.859-3.3-7.811-3.3-7.811-.313-.449-.76-.686-1.2-.686-.43 0-.863.22-1.193.659 0 0-3.48 3.938-3.557 7.82v.101a8.037 8.037 0 0 0-3.113-.641c-.41 0-.65.04-.65.04h-.04c-1.09 0-1.82.896-1.647 1.979 0 0 .054 3.069 2.713 5.312 1.841 1.561 3.404 1.8 4.211 1.8.354 0 .56-.05.56-.05h.19c.63 0 1.153-.21 1.56-.57.24.101.479.147.729.147.261 0 .511-.054.761-.157.39.354.938.58 1.58.58h.188s.2.05.562.05c.801 0 2.371-.239 4.211-1.8 2.66-2.24 2.709-5.312 2.709-5.312.146-1.072-.573-1.971-1.665-1.971zm-10.648 7.04h-.062l-.229.061-.329-.021c-.03 0-.07.01-.13.01-.41 0-1.517-.13-2.927-1.319-1.8-1.521-1.979-3.524-2-3.801.062 0 .187-.01.347-.01.75 0 2.146.146 3.479 1.13.5 1.771 1.41 3.2 1.95 3.938-.03.012-.069.012-.099.012zm2.59-.761l-.07.07-.061.09a.561.561 0 0 1-.146.149c0 .011-.01.011-.01.011-.011 0-.011-.011-.021-.021a.437.437 0 0 1-.09-.109l-.063-.101-.08-.096c-.021-.023-1.631-1.904-2.11-4.313a5.62 5.62 0 0 1-.149-1.437c.039-2.273 1.771-4.93 2.729-6.146.93 1.239 2.56 3.891 2.521 6.181-.011.42-.061.819-.141 1.22-.519 2.502-2.29 4.483-2.309 4.502zm5.709-.51c-1.41 1.189-2.51 1.319-2.92 1.319-.062 0-.104-.011-.129-.011l-.25-.016-.312-.024h-.06c-.021 0-.057 0-.08-.016.59-.771 1.579-2.234 2.103-4.063 1.271-.859 2.592-1 3.301-1 .16 0 .279.01.33.01-.013.341-.222 2.311-1.983 3.801z"/>
        </g>
        <g id="s1-plant-4">
            <circle id="s1-flower-1_1_" cx="1056.48" cy="396.245" r="2" fill="#1692D0"/>
            <path fill="#39393A" d="M1066.99 407.681a.476.476 0 0 0-.449-.444s-.115-.009-.324-.009c-.467 0-1.469.048-2.678.354 2.213-6.136 1.52-10.732 1.487-10.936a.482.482 0 0 0-.306-.373.482.482 0 0 0-.477.076c-.152.123-3.531 2.906-5.972 8.564-.72-1.037-1.39-1.631-1.45-1.684a.49.49 0 0 0-.635 0c-.061.053-.727.643-1.443 1.676-2.441-5.652-5.816-8.438-5.968-8.562a.467.467 0 0 0-.478-.076.48.48 0 0 0-.305.373c-.033.192-.725 4.798 1.486 10.933a11.002 11.002 0 0 0-2.669-.354c-.208 0-.324.01-.324.01a.48.48 0 0 0-.448.444c-.013.177-.267 4.36 2.92 7.526a9.518 9.518 0 0 0 2.862 1.949s1.688.851 4.408.851 4.979-.851 4.979-.851a9.641 9.641 0 0 0 2.86-1.949c3.192-3.152 2.936-7.343 2.924-7.518zm-10.494 8.513c-.017-.021-.033-.04-.049-.062l-.052-.062-.038-.047c-.788-.986-1.768-2.604-1.96-4.694a7.793 7.793 0 0 1-.037-.712 8.245 8.245 0 0 1 .69-3.236c.088-.196.18-.396.273-.573.098-.188.198-.362.299-.529.312-.521.631-.939.887-1.246a10.069 10.069 0 0 1 1.188 1.778c.094.184.186.379.272.581a8.157 8.157 0 0 1 .686 3.232c0 .251-.017.494-.039.73-.193 2.025-1.133 3.61-1.955 4.669l-.168.165.003.006zm-3.986-7.045c-.059.39-.094.797-.109 1.3l-.006.108a27.979 27.979 0 0 1-.75-1.526 27.24 27.24 0 0 1-.564-1.344l-.039-.103c-1.358-3.551-1.678-6.608-1.699-8.599 1.222 1.396 2.896 3.688 4.228 6.911a10.45 10.45 0 0 0-1.061 3.253zm9.439-1.476l-.041.104c-.17.437-.349.854-.531 1.261a25.273 25.273 0 0 1-.758 1.541l-.008-.205a10.063 10.063 0 0 0-.104-1.212 10.417 10.417 0 0 0-1.057-3.247c1.332-3.227 3.008-5.521 4.233-6.921-.021 1.984-.347 5.059-1.734 8.679zm3.545 1.048c-.119 1.305-.604 3.609-2.459 5.458-1.281 1.271-2.787 1.894-4 2.189 1.293-1.479 3.032-3.881 4.445-7.257a10.447 10.447 0 0 1 2.014-.39zm-11.541 7.674c-1.209-.313-2.705-.946-3.971-2.229-1.842-1.856-2.307-4.176-2.414-5.479a9.89 9.89 0 0 1 2.002.411c1.391 3.403 3.118 5.821 4.383 7.297z"/>
        </g>
    </g>
    <g>
        <rect width="2" height="11.404" x="893" y="259.751" fill="#39393A"/>
        <rect width="2" height="11.404" x="964" y="259.751" fill="#39393A"/>
        <path fill="#1692D0" d="M991.002 233H991l.002 25H867v-25h124.002m0-2H867c-1.112 0-2 .899-2 2v25c0 1.094.896 2 2 2h124.002a1.99 1.99 0 0 0 1.998-1.993v-25.014a2 2 0 0 0-1.998-1.993z"/>
        <g id="s1-lighttext" fill="#1692D0">
            <path d="M1096.971 241.2h-7.35l-.351 5.74a3.977 3.977 0 0 1-.231 1.057 3.126 3.126 0 0 1-.608 1.043h-.91v3.78h2.38l.141-1.82h5.459l.141 1.82h2.38v-3.78h-1.05v-7.84zm-2.52 7.84h-3.57c.131-.196.247-.415.35-.658a4.87 4.87 0 0 0 .42-1.722l.211-3.5h2.59v5.88z"/>
            <rect width="2.38" height="1.96" x="1037.881" y="238.4"/>
            <polygon points="1142.311,245.05 1138.811,245.05 1138.811,241.2 1136.291,241.2 1136.291,251 1138.811,251 1138.811,247.01 1142.311,247.01 1142.311,251 1144.83,251 1144.83,241.2 1142.311,241.2"/>
            <polygon points="1127.091,247.22 1127.091,241.2 1124.57,241.2 1124.57,251 1127.23,251 1130.591,244.98 1130.591,251 1133.111,251 1133.111,241.2 1130.451,241.2"/>
            <polygon points="1103.16,247.22 1103.16,241.2 1100.641,241.2 1100.641,251 1103.301,251 1106.66,244.98 1106.66,251 1109.181,251 1109.181,241.2 1106.521,241.2"/>
            <polygon points="1120.9,241.2 1118.381,241.2 1118.381,249.04 1114.881,249.04 1114.881,241.2 1112.361,241.2 1112.361,251 1119.431,251 1119.57,252.82 1121.951,252.82 1121.951,249.04 1120.9,249.04"/>
            <polygon points="1027.841,245.05 1024.341,245.05 1024.341,241.2 1021.82,241.2 1021.82,251 1024.341,251 1024.341,247.01 1027.841,247.01 1027.841,251 1030.361,251 1030.361,241.2 1027.841,241.2"/>
            <rect width="2.381" height="1.96" x="1034.66" y="238.4"/>
            <polygon points="1033.541,251 1041.311,251 1041.311,249.04 1036.061,249.04 1036.061,247.01 1040.19,247.01 1040.19,245.05 1036.061,245.05 1036.061,243.16 1041.311,243.16 1041.311,241.2 1033.541,241.2"/>
            <path d="M1018.15 241.2h-7.35l-.35 5.74c-.02.317-.096.669-.231 1.057s-.339.735-.608 1.043h-.91v3.78h2.379l.141-1.82h5.46l.14 1.82h2.381v-3.78h-1.051v-7.84zm-2.519 7.84h-3.57a3.89 3.89 0 0 0 .35-.658 4.87 4.87 0 0 0 .42-1.722l.211-3.5h2.59v5.88z"/>
            <polygon points="1049.391,246.38 1046.591,241.2 1043.931,241.2 1043.931,251 1046.451,251 1046.451,245.54 1048.41,249.04 1050.371,249.04 1052.33,245.54 1052.33,251 1054.851,251 1054.851,241.2 1052.19,241.2"/>
            <path d="M993.906 241.865c-.443.443-.666 1.154-.666 2.135v4.48c0 .914.215 1.586.645 2.016s1.102.644 2.016.644c1.372 0 3.1-.093 5.18-.279v-1.891c-.605.038-1.112.07-1.519.099-.405.027-.737.046-.994.056l-.763.028c-.252.009-.494.016-.729.021-.232.005-.447.007-.644.007s-.356-.062-.483-.188c-.125-.126-.188-.297-.188-.511V244c0-.56.28-.84.84-.84h4.479v-1.96h-5.039c-.98 0-1.691.222-2.135.665z"/>
            <polygon points="1069.19,246.38 1066.391,241.2 1063.73,241.2 1063.73,251 1066.25,251 1066.25,245.54 1068.211,249.04 1070.17,249.04 1072.131,245.54 1072.131,251 1074.65,251 1074.65,241.2 1071.99,241.2"/>
            <polygon points="1077.83,251 1085.601,251 1085.601,249.04 1080.351,249.04 1080.351,247.01 1084.48,247.01 1084.48,245.05 1080.351,245.05 1080.351,243.16 1085.601,243.16 1085.601,241.2 1077.83,241.2"/>
            <polygon points="1180.861,251 1183.381,251 1183.381,243.16 1188.49,243.16 1188.49,241.2 1180.861,241.2"/>
            <polygon points="1270.631,245.05 1267.131,245.05 1267.131,241.2 1264.611,241.2 1264.611,251 1267.131,251 1267.131,247.01 1270.631,247.01 1270.631,251 1273.15,251 1273.15,241.2 1270.631,241.2"/>
            <polygon points="1253.73,243.16 1256.67,243.16 1256.67,251 1259.19,251 1259.19,243.16 1262.131,243.16 1262.131,241.2 1253.73,241.2"/>
            <polygon points="1278.851,247.22 1278.851,241.2 1276.33,241.2 1276.33,251 1278.99,251 1282.351,244.98 1282.351,251 1284.871,251 1284.871,241.2 1282.211,241.2"/>
            <path d="M1295.261 243.51a.955.955 0 0 1 .252-.287.595.595 0 0 1 .378-.133h.561v-1.89c-.607-.094-1.027-.141-1.261-.141-.495 0-.894.124-1.196.371a3.026 3.026 0 0 0-.764.959l-1.4 2.66h-1.26v-3.85h-2.52v9.8h2.52v-3.99h1.26L1294 251h2.66l-2.729-4.97 1.33-2.52zm6.469-2.31l-3.71 9.8h2.729l.631-1.75h3.5l.63 1.75h2.729l-3.709-9.8h-2.8zm.281 6.23l1.12-3.29 1.119 3.29h-2.239zm-153.615-5.565c-.443.443-.665 1.154-.665 2.135v4.48c0 .914.215 1.586.645 2.016.429.43 1.102.644 2.016.644 1.372 0 3.099-.093 5.18-.279v-1.891c-.606.038-1.113.07-1.519.099-.406.027-.737.046-.994.056l-.763.028c-.252.009-.495.016-.729.021-.232.005-.447.007-.644.007s-.357-.062-.483-.188-.189-.297-.189-.511V244c0-.56.281-.84.841-.84h4.479v-1.96h-5.039c-.981 0-1.693.222-2.136.665zm100.334-.805h-3.5c-.98 0-1.691.222-2.135.665s-.665 1.155-.665 2.136v4.479c0 .98.222 1.691.665 2.135s1.154.665 2.135.665h3.5c.98 0 1.691-.222 2.135-.665s.666-1.154.666-2.135v-4.479c0-.98-.223-1.692-.666-2.136s-1.154-.665-2.135-.665zm.281 7.28c0 .561-.28.84-.841.84h-2.379c-.561 0-.84-.279-.84-.84v-4.479c0-.561.279-.841.84-.841h2.379c.561 0 .841.28.841.841v4.479zm-52.021-7.28h-3.5c-.979 0-1.691.222-2.135.665s-.665 1.155-.665 2.136v4.479c0 .98.222 1.691.665 2.135s1.155.665 2.135.665h3.5c.98 0 1.691-.222 2.135-.665s.666-1.154.666-2.135v-4.479c0-.98-.223-1.692-.666-2.136s-1.154-.665-2.135-.665zm.281 7.28c0 .561-.28.84-.84.84h-2.38c-.561 0-.84-.279-.84-.84v-4.479c0-.561.279-.841.84-.841h2.38c.56 0 .84.28.84.841v4.479zm-22.111-7.28h-3.5c-.979 0-1.691.222-2.135.665s-.664 1.155-.664 2.136v4.479c0 .98.221 1.691.664 2.135s1.155.665 2.135.665h3.5c.98 0 1.692-.222 2.135-.665.443-.443.666-1.154.666-2.135v-4.479c0-.98-.223-1.692-.666-2.136-.442-.444-1.154-.665-2.135-.665zm.28 7.28c0 .561-.28.84-.84.84h-2.38c-.561 0-.84-.279-.84-.84v-4.479c0-.561.279-.841.84-.841h2.38c.56 0 .84.28.84.841v4.479zm-10.04-4.83a.983.983 0 0 1 .252-.287.598.598 0 0 1 .379-.133h.56v-1.89c-.606-.094-1.026-.141-1.261-.141-.494 0-.893.124-1.196.371a3.024 3.024 0 0 0-.763.959l-1.4 2.66h-1.26v-3.85h-2.521v9.8h2.521v-3.99h1.26l2.17 3.99h2.66l-2.73-4.97 1.329-2.519zm57.161-2.31l-3.71 9.8h2.729l.631-1.75h3.5l.63 1.75h2.729l-3.709-9.8h-2.8zm.28 6.23l1.12-3.29 1.119 3.29h-2.239zm14.309-2.45h-3.359v-1.82h5.25v-1.96h-7.771v9.8h5.88c.98 0 1.691-.222 2.135-.665s.666-1.155.666-2.135v-.42c0-.98-.223-1.692-.666-2.136s-1.154-.664-2.135-.664zm.281 3.22c0 .56-.28.84-.84.84h-2.8v-2.1h2.8c.56 0 .84.279.84.84v.42zm-23.16-7h-5.88v9.8h2.52v-2.8h3.36c.979 0 1.692-.222 2.136-.665s.664-1.155.664-2.135V244c0-.98-.221-1.691-.664-2.135s-1.157-.665-2.136-.665zm.28 4.2c0 .56-.28.84-.84.84h-2.801v-3.08h2.801c.56 0 .84.28.84.84v1.4zm98.145 2.973c-.47 0-.827.115-1.073.345s-.369.553-.369.967c0 .41.128.73.383.96s.608.345 1.06.345c.446 0 .794-.115 1.042-.345.249-.23.373-.55.373-.96 0-.415-.119-.737-.359-.967-.239-.23-.592-.345-1.057-.345z"/>
            <polygon points="1313.831,247.293 1314.18,240.826 1311.227,240.826 1311.575,247.293"/>
        </g>
        <rect width="323" height="29" x="993" y="231" fill="#FFF" fill-rule="evenodd" clip-rule="evenodd"/>
        <rect width="323" height="29" x="542" y="231" fill="#FFF" fill-rule="evenodd" clip-rule="evenodd"/>
    </g>
</svg>