<svg xmlns="http://www.w3.org/2000/svg" viewBox="181.5 21.5 881.77 421.61">
		<path fill="#FFF" d="M211.104 303.5h138.572v136.605H211.104V303.5zm420.396 135H511.104V295.667l15.646-.292-.125-7.875s1.125-3.458 2.708-4.333S572 282.5 572 282.5s40-.458 42 .833 2.297 5.047 2.297 5.047l.453 6.62 14.75.5v143zm325.834-145l-19.834-9.833-40.833-.167v10H869v146h121.5v-146h-33.166z"/>
		<path id="s1-drop" fill="#1692D0" d="M244.5 358.105c-1.107 0-2-.988-2-2.215 0-1.213 2-4.187 2-4.187s2 2.979 2 4.188c0 1.228-.895 2.216-2 2.216v-.002z"/>
		<path fill="#FFF" d="M241.5 348.105h6v11h-6v-11z"/>
		<g id="s1-bottle-3" fill="#1692D0">
			<path id="s1-bottle-3-wave" d="M213.104 413.105c-1.174 0-2.516.012-2.604 0v-2c.053.007 6.043.56 9.2-1.683l1.155 1.63c-2.43 1.731-5.67 2.053-7.751 2.053z"/>
			<path id="s1-bottle-3-fig" d="M217.5 388.105v-3c0-.561-.443-1-1-1h-1.977a1.01 1.01 0 0 0-1.012 1v3h-.011l-4 3.59v18.41c0 .56.45 1.003 1.01 1.003l10-.003a1 1 0 0 0 1-1v-18l-4-4h-.01zm2 21l-8 .003v-16.521l2.766-2.481h2.43l2.805 2-.001 16.999z"/>
		</g>
		<g id="s1-bottle-2" fill="#1692D0">
			<path id="s1-bottle-2-wave" d="M242.104 413.105c-1.174 0-2.516.012-2.604 0v-2c.053.007 6.043.56 9.2-1.683l1.155 1.63c-2.43 1.731-5.67 2.053-7.751 2.053z"/>
			<path id="s1-bottle-2-fig" d="M246.5 388.105v-3c0-.561-.443-1-1-1h-1.977a1.01 1.01 0 0 0-1.012 1v3h-.011l-4 3.59v18.41c0 .56.45 1.003 1.01 1.003l10-.003c.55 0 .99-.445.99-1v-18l-3.99-4h-.01zm2 21l-8 .003v-16.521l2.766-2.481h2.43l2.805 2-.001 16.999z"/>
		</g>
		<g id="s1-bottle-1" fill="#1692D0">
			<path id="s1-bottle-1-wave" d="M271.104 394.105c-1.174 0-2.516.012-2.604 0v-2c.053.007 6.043.56 9.2-1.683l1.155 1.63c-2.43 1.731-5.67 2.053-7.751 2.053z"/>
			<path id="s1-bottle-1-fig" d="M275.5 388.105v-3c0-.561-.443-1-1-1h-1.977a1.01 1.01 0 0 0-1.012 1v3h-.011l-4 3.59v18.41c0 .56.45 1.003 1.01 1.003l10-.003c.55 0 .99-.445.99-1v-18l-3.99-4h-.01zm2 21l-8 .003v-16.521l2.766-2.481h2.43l2.805 2-.001 16.999z"/>
		</g>
		<path fill="#FFF" d="M309.5 414.105h25v29h-25v-29zm-119-38h32v39h-32v-39z"/>
		<path fill="#39393A" d="M341.354 305.305c-.468-.984-1.753-1.805-2.86-1.805H222.507c-1.11 0-2.39.81-2.862 1.805l-7.295 15.386c-.468.987.042 1.81 1.15 1.81h7v36.003h-13.13l-5.872-88.062a1.003 1.003 0 0 0-.998-.94h-12c-.525 0-.963.41-.998.93l-5.91 88.65a.959.959 0 0 0-.092.42v80c0 .55.448 1 1 1h40v-16h64.01c3.854 0 6.99-3.14 6.99-7s-3.13-7-6.99-7H222.5v-88h9v26c0 .54.385 1.22.86 1.49l6.917 4c.467.27 1.31.5 1.86.5h.363v3.008c0 .54.443.99.99.99h4.02c.54 0 .99-.44.99-.99v-3.021h.52c.55 0 1.388-.229 1.86-.513l6.76-3.988c.475-.279.86-.962.86-1.512v-26h81V377.5h-35v62.966h37v-118h6.996c1.104 0 1.62-.812 1.15-1.812l-7.292-15.389v.047-.007zM220.5 410.495V438.5h-37v-78.645a.933.933 0 0 0 .064-.296l5.872-88.064h10.13l5.87 88.064c.035.521.47.937.998.937H220.5v49.999zm118 28.005h-33v-59.004h33V438.5zm-52-26.004c2.757 0 5 2.242 5 5 0 2.757-2.243 5-5 5s-5-2.243-5-5c0-2.758 2.243-5 5-5zm-4.89 0a6.988 6.988 0 0 0 0 10.004h-34.22a6.982 6.982 0 0 0 0-10.004h34.22zm-39.11 0c2.757 0 5 2.242 5 5 0 2.757-2.243 5-5 5s-5-2.243-5-5c0-2.758 2.243-5 5-5zm-4.89 0a6.988 6.988 0 0 0 0 10.004H222.5v-10.004h15.11zm7.89-55.996h-2v-2.004h2v2.004zm10-8.146l-6.635 3.91c-.168.104-.65.236-.846.236h-6.89c-.2 0-.69-.145-.86-.244l-6.78-3.93v-25.83H255.5v25.858zM214.66 320.5l6.793-14.344c.14-.296.722-.66 1.055-.66h115.985c.333 0 .915.364 1.055.66l6.792 14.344H214.66z"/>
		<path fill="#39393A" d="M305.5 384.5h33v1.996h-33V384.5zm78.996 13.912c.117-16.312 2.978-26.035 16.004-26.891v2.061c-2.833.479-5 2.95-5 5.91 0 3.31 2.69 6 6 6s6-2.69 6-6c0-2.96-2.167-5.391-5-5.87v-4.14H400v.01c-11.07.68-14.86 7.3-16.5 15.99-1.685-8.53-6.55-15.271-17.5-15.99v-.03h-2.5v4.09c-2.833.48-5 2.94-5 5.91 0 3.313 2.69 6 6 6s6-2.687 6-6c0-2.97-2.167-5.43-5-5.91v-2.06c13.032.88 16.883 10.59 17 26.87v41.1h2m-16-59.998c0 2.2-1.794 4-4 4s-4-1.8-4-4 2.294-4 4.5-4 3.5 1.79 3.5 4zm33 4c-2.206 0-4-1.8-4-4s1.294-4 3.5-4 4.5 1.79 4.5 4-1.794 4-4 4z"/>
		<g id="s1-clouds" fill="#1692D0">
			<path id="s1-cloud-1" d="M194.904 267.562a9.938 9.938 0 0 1-2.428-7.258 9.95 9.95 0 0 1 3.416-6.86 9.843 9.843 0 0 1 7.258-2.438 9.925 9.925 0 0 1 6.85 3.398l-1.51 1.312a7.924 7.924 0 0 0-5.48-2.74 7.966 7.966 0 0 0-5.805 1.938 7.93 7.93 0 0 0-2.732 5.48c-.15 2.13.54 4.19 1.943 5.8l-1.51 1.312h-.002v.056z" style="opacity:0"/>
			<path id="s1-cloud-2" d="M211.104 271.105c-5.515 0-10-4.486-10-10h2c0 4.41 3.59 8 8 8s8-3.59 8-8h2c0 5.514-4.487 10-10 10z" style="opacity:0"/>
			<path id="s1-cloud-3" d="M232.963 261.293l-1.98-.274c.62-4.4-2.457-8.48-6.857-9.102-4.406-.61-8.482 2.46-9.102 6.86l-1.98-.27c.77-5.49 5.864-9.33 11.36-8.563 5.49.77 9.33 5.87 8.56 11.36l-.001-.011z" style="opacity:0"/>
			<path id="s1-cloud-4" d="M233.555 271.188a9.969 9.969 0 0 1-4.22-.942c-2.42-1.1-4.258-3.13-5.17-5.64l1.88-.68a7.977 7.977 0 0 0 4.135 4.521c1.936.91 4.11 1 6.115.28a7.968 7.968 0 0 0 4.516-4.13c.91-1.94 1-4.11.27-6.12l1.88-.68c.92 2.51.8 5.23-.33 7.65a9.922 9.922 0 0 1-5.64 5.17c-1.11.41-2.27.61-3.42.61l-.01-.01v-.022l-.006-.007z" style="opacity:0"/>
			<path id="s1-cloud-5" d="M213.68 250.268a9.951 9.951 0 0 1 1.658-7.473c1.532-2.19 3.825-3.65 6.456-4.142 5.43-.96 10.627 2.68 11.584 8.11l-1.97.35c-.766-4.35-4.926-7.26-9.268-6.49-4.345.762-7.256 4.922-6.49 9.27l-1.97.34v.037-.002z" style="opacity:0"/>
			<path id="s1-cloud-6" d="M247.604 261.06l-1-1.73c3.82-2.206 5.133-7.105 2.93-10.93-2.207-3.82-7.108-5.132-10.93-2.927l-1-1.732c4.775-2.754 10.903-1.11 13.66 3.66 2.756 4.774 1.114 10.903-3.66 13.659z" style="opacity:0"/>
		</g>
		<path fill="#1692D0" d="M309.5 414.5v24h25v-24h-25zm11.076 12.096l-9.076 9.074v-18.15l9.076 9.074v.002zm-7.662-10.096h18.15l-9.075 8.68-9.08-8.68h.005zm9.076 11.508l9.097 8.492h-18.193l9.096-8.492zm1.414-1.413l9.096-9.107v18.188l-9.096-9.107v.026z"/>
		<path fill="none" d="M182.566 360.105h-.066v80h39v-80h-15.066l-5.934-89h-12"/>
		<path fill="#39393A" d="M633.49 294.5H617.5V289c0-4.14-3.36-7.5-7.51-7.5h-76.98c-4.146 0-7.51 3.37-7.51 7.5v5.5h-14.99c-.56 0-1.01.44-1.01 1 0 .55.45 1 1.01 1h.17c-.104.32-.18.64-.18 1v143h2v-64h38v63.98h2V367.5h-40v-70c0-.56.45-1 1.01-1H629.5c.56 0 1.01.45 1.01 1l-.01 57h2v-57c0-.35-.06-.69-.18-1h1.17c.56 0 1.01-.44 1.01-1 0-.55-.45-1-1.01-1zm-82.99 75v5h-38v-5h38zm65-75h-88V289c0-3.03 2.47-5.5 5.51-5.5h76.98c3.04 0 5.51 2.47 5.51 5.5v5.5z"/>
		<g id="s1-loader">
			<circle cx="455.5" cy="429.605" r="8.5" fill="#FFF"/>
			<path fill="#FFF" d="M441.56 432.716c0 2.42-1.821 4.393-4.062 4.393s-4.062-1.973-4.062-4.393 1.82-4.392 4.07-4.392 4.07 1.97 4.07 4.392h-.016z"/>
			<path fill="#FFF" d="M446.37 429.325c0 1.34.25 2.62.72 3.78h-3.55c.01-.133.02-.25.02-.393 0-3.53-2.72-6.392-6.062-6.392-3.354 0-6.062 2.859-6.062 6.393 0 .13.021.26.021.393h-.44v-14.923l3.86-4.077 14.229.037 4.9 5.562c.09-.021.18-.021.26-.04-4.46.71-7.88 4.762-7.88 9.66h-.016z"/>
			<path fill="#39393A" d="M469 415.105v-5c0-9.66-7.86-17-17.51-17h-13.5c-2.2 0-3.99 1.777-3.99 4v15l-5 5.277v15.853c0 1.102.89 1.87 2 1.87h.87c.896 2.34 3.07 4 5.62 4 2.59 0 4.79-1.713 5.66-4.103l-.03.103h5.05c-.02-.021-.03-.053-.04-.07 1.68 2.46 4.42 4.07 7.521 4.07 3.59 0 6.696-2.16 8.25-5.312-.054.1-.094.21-.144.312h5.24v-10m-31.507 13c-2.24 0-4.062-1.973-4.062-4.393s1.82-4.392 4.062-4.392 4.062 1.972 4.062 4.393c.004 2.424-1.823 4.393-4.062 4.392zm9.6-4h-3.55c.01-.133.02-.25.02-.393 0-3.53-2.72-6.392-6.062-6.392-3.354 0-6.062 2.859-6.062 6.393 0 .13.021.26.021.393h-.44v-14.923l3.86-4.077 14.229.037 4.9 5.562c.09-.021.18-.021.26-.04-4.46.71-7.88 4.762-7.88 9.66 0 1.34.25 2.62.72 3.78h-.016zm8.56 4c-4.021 0-7.28-3.49-7.28-7.78s3.26-7.78 7.28-7.78c4.02 0 7.289 3.49 7.289 7.78s-3.269 7.78-7.289 7.78zm11.35-18.03l-8.75-8.88.22-.223c.5-.5.5-1.3 0-1.812-.5-.5-1.31-.487-1.81 0l-2.12 2.133c-.5.5-.51 1.312 0 1.812.5.5 1.31.5 1.8 0l.104-.103 10.56 11.103v9h-2.439a.485.485 0 0 1-.041.107c.272-.91.428-1.88.428-2.892 0-5.09-3.69-9.261-8.396-9.729l-6.55-7.45-5.53-.01-1.92-9.107c-.104-.54-.646-.98-1.21-.98h-.42c-.55 0-.91.44-.8.98l1.92 9.1-6.04-.02v-15c0-1.101.891-2 1.99-2h13.5c8.7 0 15.51 6.59 15.51 15l-.006 8.971zm2-3.97v-5c0-9.66-7.86-17-17.51-17h-13.5c-2.2 0-3.99 1.777-3.99 4v15l-5 5.277v15.853c0 1.102.89 1.87 2 1.87h.87c.896 2.34 3.069 4 5.62 4 2.59 0 4.79-1.713 5.66-4.103l-.03.103h5.05c-.02-.021-.03-.053-.04-.07 1.68 2.46 4.42 4.07 7.521 4.07 3.59 0 6.696-2.16 8.25-5.312-.054.1-.094.21-.144.312h5.24l.003-19zm-31.51 22c-2.24 0-4.062-1.973-4.062-4.393s1.82-4.392 4.062-4.392 4.062 1.972 4.062 4.393c.004 2.424-1.823 4.393-4.062 4.392zm9.6-4h-3.55c.01-.133.02-.25.02-.393 0-3.53-2.72-6.392-6.062-6.392-3.354 0-6.062 2.859-6.062 6.393 0 .13.021.26.021.393h-.44v-14.923l3.86-4.077 14.229.037 4.9 5.562c.09-.021.18-.021.26-.04-4.46.71-7.88 4.762-7.88 9.66 0 1.34.25 2.62.72 3.78h-.016zm8.56 4c-4.021 0-7.28-3.49-7.28-7.78s3.26-7.78 7.28-7.78c4.02 0 7.289 3.49 7.289 7.78s-3.269 7.78-7.289 7.78zm11.35-18.03l-8.75-8.88.22-.223c.5-.5.5-1.3 0-1.812-.5-.5-1.31-.487-1.81 0l-2.12 2.133c-.5.5-.51 1.312 0 1.812.5.5 1.31.5 1.8 0l.104-.103 10.56 11.103v9h-2.439a.485.485 0 0 1-.041.107c.272-.91.428-1.88.428-2.892 0-5.09-3.69-9.261-8.396-9.729l-6.55-7.45-5.53-.01-1.92-9.107c-.104-.54-.646-.98-1.21-.98h-.42c-.55 0-.91.44-.8.98l1.92 9.1-6.04-.02v-15c0-1.101.891-2 1.99-2h13.5c8.7 0 15.51 6.59 15.51 15l-.006 8.971z"/>
			<path id="s1-loader-claw" fill="#39393A" d="M473 428.105v-1h-4v2h4m-4-8h4.01v2H469v-2zm40 14h-31v-34.53c0-1.37-1.1-2.48-2.48-2.48a2.47 2.47 0 0 0-2.481 2.48l-.025 20.53h.015v4.02l-.021 11.98h36c.55 0 1 0 1-1s-.458-1-1.008-1zm-33 0h-1v-34c0-.271 0-1 .52-1.013.48.013.48.74.48 1.013v34z"/>
		</g>
		<g id="s1-gift-box">
			<rect width="25" height="50" x="480.5" y="385.5" fill="#FFF"/>
			<path fill="#1692D0" d="M480.5 385.5v50h25v-50h-25zm11.379 25.305l-9.379 20.816v-41.632l9.379 20.816zm-8.307-23.305h18.807l-9.403 20.87-9.404-20.87zm9.404 25.739l9.128 20.261h-18.256l9.128-20.261zm1.096-2.434l9.428-20.924v41.849l-9.428-20.925z"/>
		</g>
		<path fill="#FFF" d="M425.5 348.5h85v91h-85v-91z"/>
		<g id="s1-flags-on-rope-1" fill="#39393A">
			<path d="M424.57 327.37c-49.438 4.189-83.874-1.854-84.216-1.917l-.354 1.972c.256.046 19.484 3.427 49.767 3.427 10.45 0 22.218-.399 34.973-1.481 49.812-4.22 86.873-26.528 87.26-26.76l-1.01-1.721c-.383.23-37.05 22.311-86.42 26.49v-.01z"/>
			<path d="M349.156 328.688l3.978.419-.607 5.779-1.192-.739-.85-.521-.932.368-.994.392.59-5.682m-1.78-2.197l-1.15 10.938 4.05-1.58 3.9 2.42 1.15-10.93-7.96-.841.01-.007zm22.54 4.01l3.99.21-.31 5.803-1.23-.67-.88-.48-.91.42-.97.44.3-5.7m-1.9-2.104l-.58 10.99 3.96-1.8 4.02 2.21.57-10.99-7.99-.42v.021l.02-.011zm26.77 2.41v5.812l-1.26-.61-.9-.43-.89.46-.95.49v-5.71h4m2-2.004h-8v11l3.86-2 4.13 2v-11h.01zm18.85 1.28l.3 5.8-1.3-.54-.92-.39-.86.507-.92.54-.3-5.7 4-.21m1.89-2.1l-7.99.424.58 10.988 3.76-2.188 4.24 1.78-.57-10.979-.02-.011v-.014zm18.97.04l.7 5.77-1.33-.447-.939-.327-.83.562-.88.603-.7-5.67 3.97-.49m1.734-2.238l-7.94.971 1.34 10.92 3.595-2.46 4.34 1.479-1.355-10.92.02.01zm18.76-1.55l1.325 5.31-1.374-.282-.97-.202-.75.67-.801.71-1.354-5.43 3.94-.75m1.495-2.321l-7.866 1.525 2.655 10.67 3.271-2.87 4.5.938-2.55-10.25h-.011l.001-.013zm19.11-3.979l1.89 5.495-1.393-.17-.99-.12-.688.73-.733.78-1.855-5.4 3.775-1.3m1.238-2.54l-7.57 2.61 3.58 10.399 3.007-3.149 4.562.55-3.58-10.4.001-.01zm19.25-5.88l2.456 5.27-1.4-.02-1-.022-.605.79-.645.851-2.41-5.181 3.635-1.689m.965-2.661l-7.25 3.383 4.646 9.97 2.66-3.439 4.59.062-4.64-9.973-.006-.003z"/>
		</g>
		<path fill="#39393A" d="M764.5 393.5c-.553 0-.992.447-.998 1H718.94l-1.82-2.23c-.33-.42-1.07-.77-1.62-.77h-4.57a11.09 11.09 0 0 0-4.649-1c-1.061 0-2 .12-2.82.34l-.008.003c-.721-.762-1.964-1.343-2.954-1.343H694.5v-2.002c0-1.1-.896-1.998-2.003-1.998h-8.994a1.999 1.999 0 0 0-2.003 1.998v2.002h-8.998c-1.113 0-2.349.823-2.776 1.839l-6.384 15.161h-25.84c-.55 0-1.303.328-1.674.732l-8.494 9.268h-5.742l-3.907 5.633c-.805 1.311-.633 3.24.44 4.441l1.363 1.334c.444 7.569 12.137 9.909 17.815 11.043 2.025.405 8.978.549 26.564.549H721.5c.567 0 5.495-1.117 9.231-3.874 3.249-2.398 5.358-5.29 6.093-6.684l3.744-.023c1.144-.005 2.082-.47 2.572-1.273.49-.802.475-1.845-.041-2.861l-1.089-2.141a11.407 11.407 0 0 0-1.212-1.844l-.083-.1c-1.963-2.354-5.905-4.199-8.975-4.199h-1.574l-15.808-9.484c-.477-.287-1.307-.515-1.859-.516v-1.381c0-.457-.093-.998-.243-1.538l.003-.001c1.536-.856 2.612-2.288 3.036-4.08h4.204c.55 0 1-.45 1-1.01v-1.061a2.96 2.96 0 0 0-.182-.93h43.184a.998.998 0 1 0 1.998-.01v-1.98a.997.997 0 0 0-.999-1.01zm-80.997-6h8.994l.003-.002v2.002h-8.998l.001-2zm-11.935 4.615c.116-.276.631-.615.934-.615h27.996c.237 0 .562.105.864.259l-.002.001c.3.15.569.351.71.54l.699.95.003-.001 6.742 9.18-.005.001.165.217.027.037.01.016c.059.082.115.177.172.28.014.024.026.052.04.078.05.099.1.202.146.312.008.02.017.037.024.057.11.27.207.563.279.849.078.311.127.609.127.844v1.381h-44.988l6.057-14.386zM622.5 427c0-1.93 1.57-3.5 3.5-3.5s3.5 1.57 3.5 3.5-1.57 3.5-3.5 3.5-3.5-1.57-3.5-3.5zm1.522 5.126a5.456 5.456 0 0 0 1.978.374c3.033 0 5.5-2.468 5.5-5.5 0-1.852-.923-3.49-2.33-4.487.416.01.845.022 1.298.037.528.018 1.108-.001 1.711-.021.434-.015.878-.029 1.32-.029l3.362.002h.143A8.505 8.505 0 0 0 632.5 430a8.487 8.487 0 0 0 3.103 6.562c-3.694-.79-8.624-2.078-11.581-4.436zM634.5 430c0-3.584 2.916-6.5 6.5-6.5s6.5 2.916 6.5 6.5-2.916 6.5-6.5 6.5-6.5-2.916-6.5-6.5zm10.694 7.384c2.567-1.465 4.306-4.223 4.306-7.384a8.508 8.508 0 0 0-4.461-7.477c3.046.008 6.697.018 10.876.027A8.505 8.505 0 0 0 651.5 430c0 3.234 1.817 6.051 4.483 7.488a704.235 704.235 0 0 1-10.789-.104zM660 436.5c-3.584 0-6.5-2.916-6.5-6.5s2.916-6.5 6.5-6.5 6.5 2.916 6.5 6.5-2.916 6.5-6.5 6.5zm3.991 1c2.68-1.432 4.509-4.255 4.509-7.5a8.502 8.502 0 0 0-4.387-7.433l10.742.019c-2.595 1.457-4.355 4.232-4.355 7.414 0 3.245 1.829 6.068 4.509 7.5h-11.018zm8.509-7.5c0-3.584 2.916-6.5 6.5-6.5s6.5 2.916 6.5 6.5-2.916 6.5-6.5 6.5-6.5-2.916-6.5-6.5zm10.491 7.5c2.68-1.432 4.509-4.255 4.509-7.5 0-3.174-1.752-5.943-4.337-7.403 3.423.004 6.981.008 10.657.01-2.575 1.462-4.32 4.226-4.32 7.393 0 3.245 1.829 6.068 4.509 7.5h-11.018zm8.509-7.5c0-3.584 2.916-6.5 6.5-6.5s6.5 2.916 6.5 6.5-2.916 6.5-6.5 6.5-6.5-2.916-6.5-6.5zm10.491 7.5c2.68-1.432 4.509-4.255 4.509-7.5 0-3.164-1.741-5.925-4.313-7.388l7.561.001c1.08 0 2.102-.003 3.076-.007-2.577 1.461-4.323 4.226-4.323 7.394 0 3.245 1.829 6.068 4.509 7.5h-11.019zm8.509-7.5c0-3.584 2.916-6.5 6.5-6.5s6.5 2.916 6.5 6.5-2.916 6.5-6.5 6.5-6.5-2.916-6.5-6.5zm19.044 4.017c-3.263 2.408-7.458 3.394-8.092 3.483h-.461c2.68-1.432 4.509-4.255 4.509-7.5a8.51 8.51 0 0 0-4.45-7.472c1.392-.016 2.633-.027 3.748-.027l.485.002c1.744.014 3.178.063 4.385.174a3.988 3.988 0 0 0-1.168 2.822c0 2.206 1.794 4 4 4 .72 0 1.387-.206 1.971-.541-.883 1.29-2.551 3.304-4.927 5.059zm2.956-6.517c-1.103 0-2-.897-2-2s.897-2 2-2 2 .897 2 2-.897 2-2 2zm6.678-5.522l.082.098c.31.373.752 1.045.967 1.471l1.09 2.143c.191.378.235.719.117.913-.119.196-.446.314-.876.316l-2.891.018c.001-1.589-.314-4.815-4.123-5.722-2.505-.597-5.104-.713-8.746-.713l-.266.001-.791-.002c-1.258 0-2.664.009-4.271.02-1.993.014-4.259.029-6.848.029l-75.761-.047-1.362-.002c-.391 0-.949-.035-1.622-.076-1.074-.065-2.412-.146-3.848-.146-1.487 0-2.792.103-3.956.289-2.11.151-3.835.648-5.011 2.138-.104.1-.22.193-.313.299a5.079 5.079 0 0 0-1.146 2.223l-.032-.032c-.439-.494-.526-1.454-.213-1.968l3.28-4.727H731.74c2.46-.001 5.867 1.593 7.438 3.477zm-26.68-13.478c.193 0 .667.131.832.23l12.949 7.77h-96.232l7.23-7.888c.064-.045.201-.104.225-.112h74.996zm.941-9.942c-.011.075-.024.149-.037.224-.046.248-.101.49-.183.719h.001c-.325.957-.926 1.725-1.75 2.239-.052-.082-.104-.167-.157-.24l-6.529-8.89c.459-.069.968-.109 1.496-.109 1.193 0 2.274.213 3.22.565v.005c.369.131.716.29 1.041.468.033.018.062.037.095.056.276.156.535.328.777.51 1.238.938 1.979 2.175 2.069 3.396h-.002c.02.08.02.17.02.25 0 .281-.024.547-.061.807zm5.061-1.058h-3.016c-.065-1.492-.704-2.868-1.751-4h1.707c.05.01.13.05.17.08l2.699 3.32c.08.109.181.409.19.529v.071z"/>
		<path fill="#FFF" d="M622.5 366.5h24v49h-24v-49z"/>
		<rect width="25" height="50" x="621.5" y="366.5" fill="#FFF"/>
		<path fill="#1692D0" d="M621.5 366.5v50h25v-50h-25zm11.379 25.305l-9.379 20.816v-41.632l9.379 20.816zm-8.307-23.305h18.807l-9.403 20.87-9.404-20.87zm9.404 25.739l9.128 20.261h-18.256l9.128-20.261zm1.096-2.434l9.428-20.924v41.849l-9.428-20.925z"/>
		<g id="s1-conveyor-part-1">
			<path id="s1-test-tube-1" fill="#1692D0" d="M859.012 298.375h-5.994a1.02 1.02 0 0 0-1.018 1.023c0 .563.46.976 1.02.977v14a2.974 2.974 0 0 0 2.98 2.973c1.643 0 3-1.33 3-2.973v-14h.02c.562 0 1.019-.41 1.019-.977a1.032 1.032 0 0 0-1.027-1.023zm-1.992 16c0 .527-.439 1-1 1-.531 0-1.02-.464-1.02-1v-14.027h2.02v14.027z"/>
			<path id="s1-conveyor-detail-1" fill="#39393A" d="M857.02 298.375h-2V292l2 1"/>
		</g>
		<g id="s1-conveyor-part-2">
			<path id="s1-test-tube-2" fill="#1692D0" d="M867.982 302.375h-5.994c-.562 0-1.021.458-1.021 1.023 0 .563.474.976 1.03.977v14a2.965 2.965 0 0 0 2.97 2.973c1.646 0 3.021-1.33 3.021-2.973l-.006-14h.008c.57 0 1.01-.41 1.01-.977 0-.57-.45-1.023-1.01-1.023h-.008zm-1.982 16c0 .527-.456 1-1.01 1-.54 0-1-.464-1-1v-14.027H866v14.027z"/>
			<path id="s1-conveyor-detail-2" fill="#39393A" d="M866 302.375h-2V296l2 1"/>
		</g>
		<g id="s1-conveyor-part-3">
			<path id="s1-test-tube-3" fill="#1692D0" d="M877 306.348h-6c-.562 0-1 .438-1 1 0 .567.452 1 1.012 1L871 322.723a2.966 2.966 0 0 0 2.97 2.973c1.646 0 3.022-1.326 3.022-2.973l.008-14.375c.562 0 1-.436 1-1 0-.57-.438-1-1-1zm-2 16.375c0 .526-.456 1-1.01 1-.54 0-1-.465-1-1v-14.375H875v14.375z"/>
			<path id="s1-conveyor-detail-3" fill="#39393A" d="M875 306.348h-2v-6l2 1"/>
		</g>
		<path fill="#FFF" d="M868.5 404.5h121v34h-121v-34zm74-74l-25-11v-12h25m-108-28h46v63h-46v-63z"/>
		<g id="s1-boxes">
			<path fill="#39393A" d="M836.5 404.5v34h34v-34h-34zm32 32h-30v-30h30v30z"/>
			<path fill="#39393A" d="M862.5 415.5l-18 3v9l18-3v-9zm-1.98 7.39l-14.045 2.271v-4.942l14.055-2.373v5.055h-.01v-.011zm13.98-18.39v34h34v-34h-34zm32 32h-30v-30h30v30z"/>
			<path fill="#39393A" d="M900.5 415.5l-18 3v9l18-3v-9zm-1.98 7.39l-14.045 2.271v-4.942l14.055-2.373v5.055h-.01v-.011zm13.98-18.39v34h34v-34h-34zm32 32h-30v-30h30v30z"/>
			<path fill="#39393A" d="M938.5 415.5l-18 3v9l18-3v-9zm-1.98 7.39l-14.045 2.271v-4.942l14.055-2.373v5.055h-.01v-.011z"/>
			<path fill="#1692D0" d="M962.51 397.5h-5.99c-.56 0-1.02.46-1.02 1.02 0 .57.46.98 1.02.98v5h1.98v-5h2.02v5h1.98v-5h.02c.562 0 1.019-.41 1.019-.98a1.029 1.029 0 0 0-1.029-1.02zm8.97 0h-5.99c-.562 0-1.021.46-1.021 1.02 0 .57.47.98 1.03.98v5h1.99v-5h2.01v5h1.98v-5h.01c.56 0 1.01-.41 1.01-.98a1.016 1.016 0 0 0-1.019-1.02zm9.03 0h-5.99c-.56 0-1.02.46-1.02 1.02 0 .57.46.98 1.02.98v5h1.98v-5h2.02v5h1.98v-5h.02c.562 0 1.019-.41 1.019-.98a1.029 1.029 0 0 0-1.029-1.02z"/>
			<path fill="#39393A" d="M951.5 404.5v34h34v-34h-34zm32 32h-30v-30h30v30z"/>
			<path fill="#39393A" d="M977.5 415.5l-18 3v9l18-3v-9zm-1.98 7.39l-14.045 2.271v-4.942l14.055-2.373v5.055h-.01v-.011z"/>
		</g>
		<path fill="#FFF" d="M820.5 380.5h50v58h-50v-58zm169 0h50v58h-50v-58z"/>
		<path fill="#39393A" d="M868.5 343.5s-.18 96.58 0 96.77c.189.19.74.23 1 .23h44.08c-.061-.32-.08-.66-.08-1s.02-.68.08-1H870.5v-96h4c3.311 0 6-2.688 6-6.01v-32.01l65 29.037a2.998 2.998 0 0 0 3 2.98c1.66 0 3-1.34 3-3 0-1.3-.84-2.4-2-2.82V294.5h40v144h-62.08c.061.32.08.66.08 1s-.02.68-.08 1h98.08v-66l-34-24.56V294.5h1.01c.551 0 .99-.45.99-1 0-.56-.45-1-1-1h-35c-.36 0-1-.21-1.37-.44l-14.1-7.408c-.03-.022-3.511-2.152-4.53-2.152h-40.01c-1.11 0-1.99.9-1.99 2v8h-29.01c-.551 0-.99.45-.99 1 0 .562.439 1 .99 1h2.01v48m10-6.01c0 2.21-1.79 4.01-4 4.01h-4v-46h8v41.99zm69-5.81c-.59.21-1.1.604-1.45 1.11l-65.55-29.31v-7.98h67v36.18zm-50.02-38.18c0-.01.01-.02.01-.04v-7.96h39.938c.562.16 2.82 1.4 3.61 1.89l11.63 6.11H897.48zm126.02 146h-32v-86.09l32 23.105V438.5z"/>
		<g id="s1-flags-on-rope-2" fill="#39393A">
			<path d="M869.43 300.083c-.604.18-61.434 18.092-119.285 18.325l-1.149.002c-57.49 0-117.53-17.148-118.13-17.323l-.562 1.922c.604.17 60.9 17.4 118.685 17.4.38 0 .77 0 1.155-.03 58.135-.24 119.23-18.229 119.844-18.41l-.57-1.92.021.01v.011l-.009.013z"/>
			<path d="M647.632 307.64l3.897.9-1.32 5.66-1.1-.878-.78-.627-.97.248-1.03.264 1.28-5.566m-1.5-2.4l-2.48 10.72 4.21-1.08 3.58 2.88 2.47-10.72-7.8-1.8h.02zm22.37 6.65l3.924.772-1.11 5.7-1.13-.84-.8-.603-.96.28-1.03.3 1.09-5.61m-1.595-2.349l-2.105 10.8 4.185-1.228 3.67 2.75 2.1-10.803-7.856-1.527v.01h.006v-.002zm22.42 5.91l3.96.56-.811 5.763-1.175-.78-.84-.561-.95.33-1.01.351.79-5.66m-1.695-2.261l-1.526 10.89 4.105-1.44 3.82 2.561 1.53-10.891-7.92-1.109-.015-.021.003.011h.003zm22.58 4.98l3.974.49-.71 5.77-1.185-.76-.84-.54-.94.351-1 .369.7-5.67m-1.75-2.23l-1.34 10.92 4.08-1.51 3.86 2.486 1.34-10.92-7.94-.97v-.01.004zm22.61 3.948l3.99.277-.404 5.802-1.22-.699-.87-.5-.92.396-.98.424.4-5.697m-1.86-2.139l-.77 10.973 3.989-1.73 3.971 2.28.76-10.98-7.98-.56.021.02.009-.003zm26.545 2.724l.11 5.81-1.28-.59-.908-.42-.88.477-.939.521-.104-5.71 4-.07m1.96-2.031l-8 .143.19 11 3.83-2.062 4.17 1.933-.19-11v-.014zm18.73.795l.409 5.803-1.305-.521-.93-.37-.86.521-.907.56-.399-5.7 3.99-.277m1.85-2.137l-7.979.56.77 10.97 3.71-2.27 4.265 1.7-.77-10.98h.01l-.005.01v.01h-.001zm19.01-.041l.714 5.771-1.33-.46-.949-.33-.83.562-.88.609-.7-5.67 3.97-.49m1.735-2.229l-7.94.978 1.344 10.92 3.591-2.447 4.34 1.479-1.34-10.91.005-.02zm17.425-.7l1.01 5.72-1.35-.38-.96-.27-.797.606-.854.65-.986-5.63 3.938-.7m1.622-2.317l-7.877 1.391 1.91 10.83 3.46-2.641 4.42 1.25-1.91-10.83h-.003zm16.99-1.163l1.21 5.683-1.36-.337-.97-.24-.771.63-.819.67-1.19-5.59 3.91-.83m1.547-2.38l-7.816 1.66 2.29 10.76 3.366-2.76 4.46 1.09-2.275-10.76-.025.01zm17.45-2.142l1.302 5.667-1.357-.311-.98-.22-.77.646-.82.69-1.28-5.56 3.896-.9m1.493-2.394l-7.8 1.801 2.471 10.722 3.31-2.812 4.479 1.021-2.479-10.72h.02v-.012z"/>
		</g>
		<g id="s1-flag-2">
			<path id="s1-flag-2-substrate" fill="#1692D0" d="M804.232 263.638c-10.262 0-19.615 2.497-19.615 2.497-1.07.277-2.117 1.391-2.117 2.496v25.699c0 .911.705 1.494 1.551 1.494.176 0 .358-.025.542-.078 0 0 7.433-2.422 19.269-2.422 11.835 0 21.774 2.551 21.774 2.551.148.034.294.051.433.051.869 0 1.432-.643 1.432-1.596V266.637c-.001.001-13.007-2.999-23.269-2.999zm21.356 30.167c-2.273-.538-11.207-2.48-21.727-2.48-10.375 0-17.427 1.803-19.361 2.361v-6.991c3.248-.812 10.608-2.37 19.361-2.37 8.91 0 17.852 1.7 21.727 2.541v6.939zm-41.088-16.6c3.385-.787 11.992-2.567 19.732-2.567 7.877 0 17.623 1.845 21.355 2.616v7.562c-4.155-.888-12.895-2.492-21.727-2.492-8.432 0-15.736 1.393-19.361 2.263v-7.382zm19.732-4.567c-7.713 0-16.062 1.695-19.734 2.537v-6.518c.031-.165.351-.517.635-.59.092-.024 9.215-2.43 19.1-2.43 7.877 0 17.623 1.845 21.355 2.616v6.957c-4.053-.827-13.525-2.572-21.356-2.572z"/>
			<path fill="#FFF" d="M832.748 291.214c-10.596 0-18.931-2.458-19.014-2.482-.673-.161-1.234-.881-1.234-1.525v-27.698c0-.216.062-.579.484-.579.067 0 .141.01.218.029.28.089 8.271 2.542 19.132 2.542 8.739 0 17.891-1.953 21.166-2.725v29.666c-2.606.653-11.732 2.772-20.752 2.772z"/>
			<path fill="#39393A" d="M852.5 260.036v27.621c-3.279.788-11.556 2.557-19.752 2.557-10.433 0-18.646-2.416-18.727-2.44l-.056-.017-.057-.013c-.158-.038-.409-.337-.409-.538v-27.119c2.167.603 9.457 2.413 18.834 2.413 8.012 0 16.169-1.57 20.167-2.464m2-2.536s-11.334 3-22.166 3c-10.833 0-18.889-2.512-18.889-2.512a1.887 1.887 0 0 0-.461-.059c-.852 0-1.484.633-1.484 1.579v27.698c0 1.109.873 2.229 1.947 2.483 0 0 8.418 2.524 19.301 2.524 10.884 0 21.752-3 21.752-3V257.5z"/>
			<path fill="#FFF" d="M832.748 281.214c-8.987 0-17.727-2.104-20.248-2.765v-9.634c3.062.807 11.125 2.685 19.834 2.685 8.739 0 17.891-1.953 21.166-2.725v9.666c-2.606.654-11.732 2.773-20.752 2.773z"/>
			<path fill="#39393A" d="M852.5 270.036v7.621c-3.279.788-11.556 2.557-19.752 2.557-8.134 0-16.075-1.75-19.248-2.542V270.1c3.729.91 11.026 2.4 18.834 2.4 8.011 0 16.168-1.57 20.166-2.464m2-2.536s-11.334 3-22.166 3c-10.833 0-20.834-3-20.834-3v11.714s10.365 3 21.248 3c10.884 0 21.752-3 21.752-3V267.5z"/>
			<path fill="#FFF" d="M848.01 439l1.98-180h3.02l1.98 180"/>
			<path fill="#39393A" d="M852.5 259.5l2 179h-6l2-179h1.52m2.48-2h-6l-2 183h10l-2-183z"/>
		</g>
		<g id="s1-flag-1">
			<path id="s1-flag-1-substrate" fill="#1692D0" d="M444.233 263.638c-10.262 0-19.616 2.497-19.616 2.497-1.07.277-2.117 1.391-2.117 2.496v25.699c0 .911.706 1.494 1.551 1.494.176 0 .358-.025.542-.078 0 0 7.433-2.422 19.268-2.422s21.775 2.551 21.775 2.551c.148.034.293.051.433.051.87 0 1.432-.643 1.432-1.596V266.637c-.001.001-13.006-2.999-23.268-2.999zm21.355 30.167c-2.273-.538-11.208-2.48-21.727-2.48-10.375 0-17.426 1.803-19.361 2.361v-6.991c3.248-.812 10.608-2.37 19.361-2.37 8.911 0 17.852 1.7 21.727 2.541v6.939zm-41.088-16.6c3.384-.787 11.993-2.567 19.733-2.567 7.876 0 17.622 1.845 21.355 2.616v7.562c-4.155-.888-12.894-2.492-21.727-2.492-8.432 0-15.736 1.393-19.361 2.263v-7.382zm19.733-4.567c-7.714 0-16.063 1.695-19.734 2.537v-6.518c.032-.165.351-.517.635-.59.091-.024 9.215-2.43 19.1-2.43 7.876 0 17.622 1.845 21.355 2.616v6.957c-4.053-.827-13.526-2.572-21.356-2.572z"/>
			<path fill="#FFF" d="M472.749 291.214c-10.614 0-18.932-2.458-19.015-2.482-.672-.161-1.234-.881-1.234-1.525v-27.698c0-.216.063-.579.483-.579.068 0 .142.01.218.029.28.089 8.272 2.542 19.132 2.542 8.74 0 17.891-1.953 21.167-2.725v29.666c-2.606.653-11.732 2.772-20.751 2.772z"/>
			<path fill="#39393A" d="M492.5 260.036v27.621c-3.283.788-11.57 2.558-19.751 2.558-10.433 0-18.646-2.416-18.727-2.44l-.056-.017-.057-.013c-.158-.038-.409-.337-.409-.538v-27.119c2.168.603 9.458 2.413 18.833 2.413 8.012-.001 16.168-1.571 20.167-2.465m2-2.536s-11.334 3-22.167 3-18.889-2.512-18.889-2.512a1.887 1.887 0 0 0-.461-.059c-.852 0-1.483.633-1.483 1.579v27.698c0 1.109.873 2.229 1.947 2.483 0 0 8.418 2.524 19.302 2.524s21.751-3 21.751-3V257.5z"/>
			<path fill="#FFF" d="M472.749 281.214c-8.997 0-17.729-2.104-20.249-2.765v-9.634c3.062.807 11.125 2.685 19.833 2.685 8.74 0 17.891-1.953 21.167-2.725v9.666c-2.606.654-11.732 2.773-20.751 2.773z"/>
			<path fill="#39393A" d="M492.5 270.036v7.621c-3.283.788-11.57 2.558-19.751 2.558-8.135 0-16.076-1.75-19.249-2.542V270.1c3.729.91 11.026 2.4 18.833 2.4 8.012 0 16.168-1.57 20.167-2.464m2-2.536s-11.334 3-22.167 3-20.833-3-20.833-3v11.714s10.365 3 21.249 3 21.751-3 21.751-3V267.5z"/>
			<path fill="#FFF" d="M488.01 439l1.98-180h3.02l1.98 180"/>
			<path fill="#39393A" d="M492.5 259.5l2 179h-6l2-179h1.52m2.48-2h-6l-2 183h10l-2-183z"/>
		</g>
		
		<g id="s1-plants">
			<g id="s1-plant-1">
				<circle id="s1-flower-1" cx="361.951" cy="417.632" r="2" fill="#1692D0"/>
				<path fill="#39393A" d="M372.46 429.067a.474.474 0 0 0-.448-.444s-.116-.009-.324-.009c-.467 0-1.469.048-2.678.354 2.212-6.136 1.519-10.732 1.487-10.936a.482.482 0 0 0-.306-.373.482.482 0 0 0-.477.076c-.152.123-3.53 2.906-5.971 8.564-.72-1.037-1.39-1.631-1.45-1.684a.49.49 0 0 0-.635 0c-.06.053-.727.643-1.444 1.676-2.44-5.652-5.816-8.438-5.967-8.562a.466.466 0 0 0-.477-.076.479.479 0 0 0-.305.373c-.033.192-.725 4.798 1.486 10.933a11.002 11.002 0 0 0-2.669-.354c-.208 0-.324.01-.324.01a.482.482 0 0 0-.449.444c-.012.177-.266 4.36 2.92 7.526a9.534 9.534 0 0 0 2.863 1.949s1.689.851 4.408.851 4.979-.851 4.979-.851a9.632 9.632 0 0 0 2.861-1.949c3.188-3.151 2.933-7.342 2.92-7.518zm-10.494 8.514c-.016-.021-.033-.04-.049-.062l-.051-.062-.038-.047c-.788-.986-1.768-2.604-1.96-4.694a7.793 7.793 0 0 1-.037-.712 8.22 8.22 0 0 1 .691-3.236 9.267 9.267 0 0 1 .571-1.102c.312-.521.631-.939.887-1.246a9.965 9.965 0 0 1 1.187 1.778c.095.184.186.379.273.581a8.159 8.159 0 0 1 .686 3.232c0 .251-.016.494-.039.73-.193 2.025-1.132 3.61-1.955 4.669l-.167.165.001.006zm-3.986-7.045c-.058.39-.094.797-.109 1.3l-.006.108a27.979 27.979 0 0 1-.75-1.526 27.24 27.24 0 0 1-.564-1.344l-.039-.103c-1.359-3.551-1.678-6.608-1.7-8.599 1.222 1.396 2.896 3.688 4.228 6.911a10.5 10.5 0 0 0-1.06 3.253zm9.44-1.476l-.041.104a26.494 26.494 0 0 1-1.289 2.802l-.008-.205a10.063 10.063 0 0 0-.104-1.212 10.415 10.415 0 0 0-1.056-3.247c1.331-3.227 3.008-5.521 4.233-6.921-.023 1.983-.348 5.058-1.735 8.679zm3.545 1.047c-.12 1.305-.605 3.609-2.46 5.458-1.28 1.271-2.786 1.894-4 2.189 1.293-1.479 3.033-3.881 4.446-7.257a10.496 10.496 0 0 1 2.014-.39zm-11.542 7.674c-1.208-.313-2.705-.946-3.97-2.229-1.842-1.856-2.306-4.176-2.414-5.479a9.903 9.903 0 0 1 2.002.411c1.39 3.404 3.118 5.822 4.382 7.297z"/>
			</g>
			<g id="s1-plant-2">
				<path id="s1-flower-2" fill="#1692D0" d="M411.504 420.432c.551 0 1 .449 1 1 0 .557-.449 1-1 1s-1-.443-1-1c0-.551.449-1 1-1m0-2a3 3 0 1 0 0 6 3 3 0 0 0 0-6z"/>
				<path fill="#39393A" d="M422.851 422.235c-.144-.184-.457-.479-1.039-.479-.08 0-.168.006-.223.013l-.031.013c-.041 0-.118.005-.229.012l-.229.015a13.33 13.33 0 0 0-1.125.161c-1.263.233-2.43.646-3.472 1.216-.612.337-1.189.739-1.722 1.197-.271.238-.531.488-.786.753a9.678 9.678 0 0 0-2.037 3.197c-.222.573-.368 1.104-.391 1.385l-.021.604h-.026l-.004-.104-.021-.161a2.25 2.25 0 0 0-.058-.26l-.001-.005c-.034-.357-.188-.896-.401-1.462-.444-1.164-1.13-2.241-2.043-3.207a8.875 8.875 0 0 0-.785-.742 9.207 9.207 0 0 0-1.713-1.2c-1.045-.575-2.213-.979-3.473-1.218-.41-.075-.788-.129-1.165-.165l-.191-.011c-.104-.009-.179-.01-.142-.009l-.071-.009c-.786-.104-1.13.257-1.287.451-.356.46-.271 1.021-.212 1.282.012.095.036.206.075.362.062.272.146.602.264.975a12.145 12.145 0 0 0 1.4 2.941 9.541 9.541 0 0 0 1.786 2.062c1.175 1.021 2.473 1.736 3.856 2.144.688.188 1.347.298 1.849.297l.146.007c.15.021.29.032.419.032.279 0 .526-.064.753-.156v7.334h2v-7.346c.232.096.483.158.771.158.118 0 .245-.01.381-.021l.174-.006c.495 0 1.146-.106 1.833-.302 1.385-.397 2.685-1.116 3.859-2.142a9.846 9.846 0 0 0 1.778-2.059 12.294 12.294 0 0 0 1.406-2.966c.107-.354.193-.684.253-.938.03-.121.05-.215.064-.31l.014-.085c.141-.49.075-.916-.183-1.248zm-13.678 8.056c-.115 0-.547-.021-1.273-.224-1.104-.317-2.147-.897-3.104-1.729a7.629 7.629 0 0 1-1.422-1.646 10.397 10.397 0 0 1-1.167-2.446c-.043-.146-.083-.279-.118-.41.188.023.376.056.579.093a9.535 9.535 0 0 1 2.874 1.005 7.3 7.3 0 0 1 1.363.956c.229.197.444.404.646.613a7.658 7.658 0 0 1 1.624 2.543c.205.53.271.854.289 1.016l.04.236-.331-.007zm11.633-6.062c-.289.89-.685 1.723-1.175 2.477a8.009 8.009 0 0 1-1.419 1.644c-.954.826-1.998 1.406-3.097 1.729-.737.208-1.17.226-1.285.226l-.088-.001-.216.011v-.157l.021-.153c.014-.08.072-.403.278-.938a7.665 7.665 0 0 1 1.617-2.531c.21-.223.43-.434.653-.631.41-.355.867-.68 1.361-.943a9.376 9.376 0 0 1 2.867-1.004c.208-.036.405-.067.583-.098a4.71 4.71 0 0 1-.1.369z"/>
			</g>
			<g id="s1-plant-3">
				<circle id="s1-flower-3" cx="453.441" cy="425.339" r="1" fill="#1692D0"/>
				<circle id="s1-flower-4" cx="468.441" cy="425.339" r="1" fill="#1692D0"/>
				<path fill="#39393A" d="M469.32 430.466h-.04s-.24-.04-.65-.04c-.646 0-1.729.09-2.92.55.017-3.859-3.3-7.811-3.3-7.811-.313-.449-.76-.686-1.2-.686-.43 0-.863.22-1.193.659 0 0-3.48 3.938-3.557 7.82v.101a8.037 8.037 0 0 0-3.113-.641c-.41 0-.65.04-.65.04h-.04c-1.09 0-1.82.896-1.647 1.979 0 0 .054 3.069 2.713 5.312 1.841 1.561 3.404 1.8 4.211 1.8.354 0 .56-.05.56-.05h.19c.63 0 1.153-.21 1.56-.57.24.101.479.147.729.147.261 0 .511-.054.761-.157.39.354.938.58 1.58.58h.188s.2.05.562.05c.8 0 2.37-.239 4.21-1.8 2.66-2.24 2.71-5.312 2.71-5.312.146-1.072-.573-1.971-1.664-1.971zm-10.649 7.04h-.062l-.229.061-.329-.021c-.03 0-.07.01-.13.01-.41 0-1.517-.13-2.927-1.319-1.8-1.521-1.979-3.524-2-3.801.062 0 .187-.01.347-.01.75 0 2.146.146 3.479 1.13.5 1.771 1.41 3.2 1.95 3.938-.03.012-.069.012-.099.012zm2.59-.761l-.07.07-.061.09a.561.561 0 0 1-.146.149c0 .011-.01.011-.01.011-.011 0-.011-.011-.021-.021a.437.437 0 0 1-.09-.109l-.063-.101-.08-.096c-.021-.023-1.631-1.904-2.11-4.313a5.62 5.62 0 0 1-.149-1.437c.039-2.273 1.771-4.93 2.729-6.146.93 1.239 2.56 3.891 2.521 6.181-.011.42-.061.819-.141 1.22-.519 2.502-2.29 4.483-2.309 4.502zm5.71-.51c-1.41 1.189-2.511 1.319-2.92 1.319-.062 0-.104-.011-.13-.011l-.25-.016-.312-.024h-.06c-.021 0-.057 0-.08-.016.59-.771 1.58-2.234 2.104-4.063 1.271-.859 2.591-1 3.3-1 .16 0 .28.01.33.01-.012.341-.222 2.311-1.982 3.801z"/>
			</g>
			<g id="s1-plant-4">
				<path id="s1-flower-5" fill="#1692D0" d="M825.504 420.432c.551 0 1 .449 1 1 0 .557-.449 1-1 1s-1-.443-1-1c0-.551.449-1 1-1m0-2a3 3 0 1 0 0 6 3 3 0 0 0 0-6z"/>
				<path fill="#39393A" d="M836.851 422.235c-.144-.184-.457-.479-1.039-.479-.08 0-.168.006-.223.013l-.031.013c-.041 0-.118.005-.229.012l-.229.015a13.33 13.33 0 0 0-1.125.161c-1.263.233-2.43.646-3.472 1.216-.612.337-1.189.739-1.722 1.197-.271.238-.531.488-.786.753a9.678 9.678 0 0 0-2.037 3.197c-.222.573-.368 1.104-.391 1.385l-.021.604h-.026l-.004-.104-.021-.161a2.25 2.25 0 0 0-.058-.26l-.001-.005c-.034-.357-.188-.896-.401-1.462-.444-1.164-1.13-2.241-2.043-3.207a8.875 8.875 0 0 0-.785-.742 9.207 9.207 0 0 0-1.713-1.2c-1.045-.575-2.213-.979-3.473-1.218-.41-.075-.788-.129-1.165-.165l-.191-.011c-.104-.009-.179-.01-.142-.009l-.071-.009c-.786-.104-1.13.257-1.287.451-.356.46-.271 1.021-.212 1.282.012.095.036.206.075.362.062.272.146.602.264.975a12.145 12.145 0 0 0 1.4 2.941 9.541 9.541 0 0 0 1.786 2.062c1.175 1.021 2.473 1.736 3.856 2.144.688.188 1.347.298 1.849.297l.146.007c.15.021.29.032.419.032.279 0 .526-.064.753-.156v7.334h2v-7.346c.232.096.483.158.771.158.118 0 .245-.01.381-.021l.174-.006c.495 0 1.146-.106 1.833-.302 1.385-.397 2.685-1.116 3.859-2.142a9.846 9.846 0 0 0 1.778-2.059 12.294 12.294 0 0 0 1.406-2.966c.107-.354.193-.684.253-.938.03-.121.05-.215.064-.31l.014-.085c.141-.49.075-.916-.183-1.248zm-13.678 8.056c-.115 0-.547-.021-1.273-.224-1.104-.317-2.147-.897-3.104-1.729a7.629 7.629 0 0 1-1.422-1.646 10.397 10.397 0 0 1-1.167-2.446c-.043-.146-.083-.279-.118-.41.188.023.376.056.579.093a9.535 9.535 0 0 1 2.874 1.005 7.3 7.3 0 0 1 1.363.956c.229.197.444.404.646.613a7.658 7.658 0 0 1 1.624 2.543c.205.53.271.854.289 1.016l.04.236-.331-.007zm11.633-6.062c-.289.89-.685 1.723-1.175 2.477a8.009 8.009 0 0 1-1.419 1.644c-.954.826-1.998 1.406-3.097 1.729-.737.208-1.17.226-1.285.226l-.088-.001-.216.011v-.157l.021-.153c.014-.08.072-.403.278-.938a7.665 7.665 0 0 1 1.617-2.531c.21-.223.43-.434.653-.631.41-.355.867-.68 1.361-.943a9.376 9.376 0 0 1 2.867-1.004c.208-.036.405-.067.583-.098a4.71 4.71 0 0 1-.1.369z"/>
			</g>
			<g id="s1-plant-5">
				<circle id="s1-flower-6" cx="1052.751" cy="417.745" r="2" fill="#1692D0"/>
				<path fill="#39393A" d="M1063.261 429.181a.476.476 0 0 0-.449-.444s-.115-.009-.324-.009c-.467 0-1.469.048-2.678.354 2.213-6.136 1.52-10.732 1.487-10.936a.482.482 0 0 0-.306-.373.482.482 0 0 0-.477.076c-.152.123-3.531 2.906-5.972 8.564-.72-1.037-1.39-1.631-1.45-1.684a.49.49 0 0 0-.635 0c-.061.053-.727.643-1.443 1.676-2.441-5.652-5.816-8.438-5.968-8.562a.467.467 0 0 0-.478-.076.48.48 0 0 0-.305.373c-.033.192-.725 4.798 1.486 10.933a11.002 11.002 0 0 0-2.669-.354c-.208 0-.324.01-.324.01a.48.48 0 0 0-.448.444c-.013.177-.267 4.36 2.92 7.526a9.518 9.518 0 0 0 2.862 1.949s1.688.851 4.408.851 4.979-.851 4.979-.851a9.641 9.641 0 0 0 2.86-1.949c3.191-3.152 2.935-7.343 2.924-7.518zm-10.494 8.513c-.017-.021-.033-.04-.049-.062l-.052-.062-.038-.047c-.788-.986-1.768-2.604-1.96-4.694a7.793 7.793 0 0 1-.037-.712 8.245 8.245 0 0 1 .69-3.236c.088-.196.18-.396.273-.573.098-.188.198-.362.299-.529.312-.521.631-.939.887-1.246a10.069 10.069 0 0 1 1.188 1.778c.094.184.186.379.272.581a8.157 8.157 0 0 1 .686 3.232c0 .251-.017.494-.039.73-.193 2.025-1.133 3.61-1.955 4.669l-.168.165.003.006zm-3.987-7.045c-.059.39-.094.797-.109 1.3l-.006.108a27.979 27.979 0 0 1-.75-1.526 27.24 27.24 0 0 1-.564-1.344l-.039-.103c-1.358-3.551-1.678-6.608-1.699-8.599 1.222 1.396 2.896 3.688 4.228 6.911a10.476 10.476 0 0 0-1.061 3.253zm9.44-1.476l-.041.104c-.17.437-.349.854-.531 1.261a25.273 25.273 0 0 1-.758 1.541l-.008-.205a10.063 10.063 0 0 0-.104-1.212 10.417 10.417 0 0 0-1.057-3.247c1.332-3.227 3.008-5.521 4.233-6.921-.021 1.984-.348 5.059-1.734 8.679zm3.545 1.048c-.119 1.305-.604 3.609-2.459 5.458-1.281 1.271-2.787 1.894-4 2.189 1.293-1.479 3.032-3.881 4.445-7.257a10.419 10.419 0 0 1 2.014-.39zm-11.541 7.674c-1.209-.313-2.705-.946-3.971-2.229-1.842-1.856-2.307-4.176-2.414-5.479a9.89 9.89 0 0 1 2.002.411c1.39 3.403 3.118 5.821 4.383 7.297z"/>
			</g>
		</g>
		<polygon id="s1-fireworks-1" fill="#1692D0" points="241.498,144.243 241.34,142.249 218.704,144.045 235.961,129.287 234.662,127.767 217.403,142.524 222.691,120.442 220.746,119.976 215.458,142.059 206.756,121.085 204.908,121.852 213.61,142.825 194.242,130.972 193.198,132.678 212.566,144.531 189.93,146.326 190.088,148.32 212.724,146.525 195.466,161.282 196.766,162.803 214.024,148.046 208.737,170.128 210.682,170.594 215.97,148.512 224.672,169.485 226.52,168.718 217.817,147.745 237.186,159.598 238.229,157.892 218.861,146.039"/>
		<circle id="s1-fireworks-white-1" cx="215.714" cy="145.232" r="27" fill="#FFF" fill-rule="evenodd" clip-rule="evenodd"/>
		<polygon id="s1-fireworks-2" fill="#1692D0" points="326.284,216.797 324.284,216.797 324.284,184.774 301.641,207.418 300.227,206.004 322.87,183.36 290.847,183.36 290.892,181.36 322.87,181.36 300.227,158.717 301.641,157.303 324.284,179.946 324.284,147.923 326.284,147.923 326.284,179.946 348.928,157.303 350.342,158.717 327.698,181.36 359.721,181.36 359.677,183.36 327.698,183.36 350.342,206.004 348.928,207.418 326.284,184.774"/>
		<circle id="s1-fireworks-white-2" cx="325.284" cy="182.36" r="36" fill="#FFF" fill-rule="evenodd" clip-rule="evenodd"/>
		<polygon id="s1-fireworks-3" fill="#1692D0" points="298.456,94.198 298.158,93.226 295.015,82.943 289.498,93.32 289.497,93.319 289.489,93.335 287.723,92.396 293.249,82.004 281.993,85.444 281.409,83.532 292.664,80.091 282.271,74.565 283.21,72.8 283.226,72.808 283.226,72.808 293.603,78.325 290.162,67.069 292.075,66.484 295.516,77.74 301.033,67.363 301.034,67.363 301.042,67.349 302.808,68.287 297.282,78.68 308.538,75.238 309.122,77.151 297.867,80.592 308.259,86.117 307.32,87.884 307.305,87.875 307.305,87.876 296.928,82.358 300.369,93.614"/>
		<circle id="s1-fireworks-white-3" cx="295.266" cy="80.342" r="16" fill="#FFF" fill-rule="evenodd" clip-rule="evenodd"/>
		<polygon id="s1-fireworks-4" fill="#1692D0" points="442.194,113.812 441.576,111.909 421.882,118.309 434.054,101.556 432.436,100.38 420.264,117.133 420.264,96.426 418.264,96.426 418.264,117.133 406.093,100.38 404.475,101.556 416.646,118.309 396.952,111.909 396.334,113.812 416.027,120.211 396.334,126.61 396.952,128.512 416.646,122.113 404.475,138.865 406.093,140.041 418.264,123.289 418.264,143.996 420.264,143.996 420.264,123.289 432.436,140.041 434.054,138.865 421.882,122.113 441.576,128.512 442.194,126.61 422.5,120.211"/>
		<circle id="s1-fireworks-white-4" cx="419.264" cy="120.211" r="25" fill="#FFF" fill-rule="evenodd" clip-rule="evenodd"/>
		<g>
			<polygon id="s1-fireworks-5" fill="#1692D0" points="466.713,83.833 464.75,83.452 464.948,82.431 470.148,55.679 446.693,71.5 445.575,69.842 445.607,69.82 445.607,69.819 469.029,54.021 441.258,48.623 441.639,46.659 469.411,52.058 453.591,28.603 455.249,27.484 455.83,28.346 471.069,50.939 476.468,23.167 478.431,23.548 478.233,24.569 473.033,51.32 496.488,35.5 497.606,37.158 496.745,37.74 474.152,52.979 501.923,58.377 501.542,60.341 473.77,54.942 489.59,78.397 487.932,79.516 487.351,78.654 472.112,56.061"/>
			<circle id="s1-fireworks-white-5" cx="471.59" cy="53.5" r="32" fill="#FFF" fill-rule="evenodd" clip-rule="evenodd"/>
		</g>
		<g>
			<polygon id="s1-fireworks-6" fill="#1692D0" points="533.381,219.449 526.934,198.361 516.582,217.831 514.815,216.892 525.167,197.422 504.081,203.87 503.496,201.957 504.481,201.655 524.583,195.51 505.113,185.158 506.052,183.392 525.522,193.744 519.075,172.656 520.988,172.072 527.435,193.159 537.787,173.689 539.553,174.628 529.201,194.098 550.288,187.651 550.873,189.563 529.785,196.011 549.255,206.363 548.316,208.129 528.847,197.777 535.293,218.864"/>
			<circle id="s1-fireworks-white-6" cx="527.184" cy="195.76" r="26" fill="#FFF" fill-rule="evenodd" clip-rule="evenodd"/>
		</g>
		<g fill-rule="evenodd" clip-rule="evenodd">
			<path id="s1-fireworks-7" fill="#1692D0" d="M721.844 102.5l-.576-1.778-49.619 15.945 30.564-42.088-1.621-1.172-30.42 42.099V63.5l-2.854.078.182 51.922-30.748-42.093-1.621 1.172 30.564 42.088-49.619-15.945-.576 1.778 49.183 15.934-49.146 16.589.593 1.772 49.93-16.721-30.446 42.696 1.52 1.089 30.802-42.977.239 52.622 1.869-.008-.112-51.888 30.282 42.251 1.52-1.089-30.446-42.696 49.93 16.721.593-1.772-49.146-16.589 49.179-15.934zm-53.587 16h.824l-.819.004-.005-.004z"/>
			<circle id="s1-fireworks-white-7" cx="669.068" cy="118.847" r="57" fill="#FFF"/>
		</g>
		<g>
			<polygon id="s1-fireworks-8" fill="#1692D0" points="837.48,86.457 837.322,84.462 816.661,86.102 832.414,72.631 831.115,71.111 815.361,84.582 820.188,64.425 818.242,63.959 813.416,84.115 805.474,64.972 803.626,65.738 811.568,84.882 793.89,74.062 792.845,75.768 810.524,86.588 789.863,88.226 790.021,90.22 810.683,88.582 794.93,102.051 796.229,103.572 811.982,90.102 807.157,110.258 809.103,110.724 813.928,90.568 821.87,109.711 823.718,108.945 815.775,89.802 833.454,100.621 834.499,98.915 816.819,88.096"/>
			<circle id="s1-fireworks-white-8" cx="813.672" cy="87.342" r="25" fill="#FFF" fill-rule="evenodd" clip-rule="evenodd"/>
		</g>
		<g>
			<polygon id="s1-fireworks-9" fill="#1692D0" points="855.284,215.206 853.284,215.206 853.284,177.774 826.815,204.242 825.401,202.828 851.868,176.36 814.438,176.36 814.438,174.36 851.87,174.36 825.401,147.892 826.815,146.478 853.284,172.945 853.284,135.515 855.284,135.515 855.284,172.945 881.751,146.478 883.165,147.892 882.423,148.636 856.698,174.36 894.13,174.36 894.13,176.36 856.698,176.36 883.165,202.828 881.751,204.242 855.284,177.774"/>
			<circle id="s1-fireworks-white-9" cx="854.284" cy="175.36" r="41" fill="#FFF" fill-rule="evenodd" clip-rule="evenodd"/>
		</g>
		<g>
			<polygon id="s1-fireworks-10" fill="#1692D0" points="988.777,96.701 972.008,95.541 986.256,86.624 985.195,84.928 970.949,93.846 977.232,78.258 975.377,77.51 969.092,93.098 965.014,76.792 963.074,77.277 967.152,93.583 954.27,82.789 952.984,84.322 965.867,95.116 949.102,93.956 948.963,95.951 965.73,97.111 951.482,106.028 952.543,107.724 966.791,98.807 960.506,114.394 962.361,115.142 968.646,99.554 972.727,115.859 974.666,115.374 970.586,99.07 983.469,109.864 984.754,108.331 971.871,97.536 988.639,98.696"/>
			<circle id="s1-fireworks-white-10" cx="968.869" cy="96.326" r="21" fill="#FFF" fill-rule="evenodd" clip-rule="evenodd"/>
		</g>
	</svg>