<svg xmlns="http://www.w3.org/2000/svg" xmlns:xlink="http://www.w3.org/1999/xlink" version="1.1" id="Layer_1" x="0px" y="0px" enable-background="new 0 0 1200 1208" xml:space="preserve" viewBox="0 0 1061.48 484.61">
  <rect x="210.604" y="271" fill="#FFFFFF" width="138.572" height="136.605"/>
  <path fill="#FFFFFF" d="M631.396,407H511V290v-25.833l15.646-0.292L526.521,256c0,0,1.125-3.458,2.704-4.333 c1.584-0.875,42.671-0.667,42.671-0.667s40-0.458,42,0.833s2.297,5.047,2.297,5.047l0.453,6.62l14.75,0.5v25.833V407z"/>
  <polygon fill="#FFFFFF" points="956.834,261 937,251.167 896.167,251 896.167,261 868.5,261 868.5,407 990,407 990,261 "/>
  <path id="s1-drop" fill="#1692D0" d="M244,325.605c-1.107,0-2-0.988-2-2.219c0-1.214,2-4.188,2-4.188s2,2.979,2,4.188 C246,324.617,245.105,325.605,244,325.605z"/>
  <path fill="#FFFFFF" d="M241,315.605h6v11h-6V315.605z"/>
  <g id="s1-bottle-3">
    <path id="s1-bottle-3-wave" fill="#1692D0" d="M212.604,380.605c-1.174,0-2.516,0.012-2.604,0v-2c0.053,0.007,6.043,0.56,9.2-1.687 l1.155,1.63C217.925,380.283,214.685,380.605,212.604,380.605L212.604,380.605z"/>
    <path id="s1-bottle-3-fig" fill="#1692D0" d="M217,355.605v-3c0-0.562-0.443-1-1-1h-1.977c-0.55,0-1.012,0.44-1.012,1v3h-0.01 l-4,3.59v18.41c0,0.56,0.45,1.003,1.01,1.003l10-0.003c0.55,0,1-0.445,1-1v-18l-4-4H217L217,355.605z M219,376.605l-8,0.003 v-16.521l2.766-2.479h2.43l2.805,2L219,376.605L219,376.605z"/>
  </g>
  <g id="s1-bottle-2">
    <path id="s1-bottle-2-wave" fill="#1692D0" d="M241.604,380.605c-1.174,0-2.516,0.012-2.604,0v-2c0.053,0.007,6.043,0.56,9.2-1.687 l1.155,1.63C246.925,380.283,243.685,380.605,241.604,380.605L241.604,380.605z"/>
    <path id="s1-bottle-2-fig" fill="#1692D0" d="M246,355.605v-3c0-0.562-0.443-1-1-1h-1.977c-0.55,0-1.012,0.44-1.012,1v3h-0.01 l-4,3.59v18.41c0,0.56,0.45,1.003,1.01,1.003l10-0.003c0.55,0,0.989-0.445,0.989-1v-18l-3.989-4H246L246,355.605z M248,376.605 l-8,0.003v-16.521l2.766-2.479h2.43l2.805,2L248,376.605L248,376.605z"/>
  </g>
  <g id="s1-bottle-1">
    <path id="s1-bottle-1-wave" fill="#1692D0" d="M270.604,361.605c-1.174,0-2.516,0.012-2.604,0v-2c0.053,0.007,6.043,0.56,9.2-1.687 l1.155,1.63C275.925,361.282,272.685,361.605,270.604,361.605L270.604,361.605z"/>
    <path id="s1-bottle-1-fig" fill="#1692D0" d="M275,355.605v-3c0-0.562-0.443-1-1-1h-1.977c-0.55,0-1.012,0.44-1.012,1v3h-0.01 l-4,3.59v18.41c0,0.56,0.45,1.003,1.01,1.003l10-0.003c0.55,0,0.989-0.445,0.989-1v-18l-3.989-4H275L275,355.605z M277,376.605 l-8,0.003v-16.521l2.766-2.479h2.43l2.805,2L277,376.605L277,376.605z"/>
  </g>
  <path fill="#FFFFFF" d="M309,381.605h25v29h-25V381.605z M190,343.605h32v39h-32V343.605z"/>
  <g>
    <path fill="#39393A" d="M340.854,272.805c-0.468-0.985-1.753-1.805-2.86-1.805H222.007c-1.11,0-2.39,0.81-2.862,1.805 l-7.295,15.385c-0.468,0.988,0.042,1.81,1.15,1.81h7v36.003h-13.13l-5.872-88.062c-0.035-0.53-0.473-0.94-0.998-0.94h-12 c-0.525,0-0.963,0.41-0.998,0.93l-5.91,88.65c-0.06,0.119-0.092,0.27-0.092,0.42v80c0,0.55,0.448,0.999,1,0.999h40v-16h64.01 c3.854,0,6.99-3.14,6.99-6.999c0-3.86-3.13-7-6.99-7H222V290h9v26.001c0,0.54,0.385,1.22,0.86,1.489l6.917,4 c0.467,0.271,1.31,0.5,1.86,0.5H241v3.008c0,0.54,0.443,0.989,0.99,0.989h4.02c0.54,0,0.99-0.439,0.99-0.989v-3.021h0.52 c0.55,0,1.388-0.229,1.86-0.512l6.76-3.988c0.475-0.274,0.86-0.962,0.86-1.512v-26h81V345h-35v62.966h37v-118h6.996 c1.104,0,1.62-0.812,1.15-1.812l-7.292-15.388v0.046V272.805z M220,377.996V406h-37v-78.645c0.036-0.102,0.06-0.189,0.064-0.3 l5.872-88.062h10.13l5.87,88.062c0.035,0.521,0.47,0.938,0.998,0.938H220V377.996z M338,406h-33v-59.004h33V406z M286,379.996 c2.757,0,5,2.242,5,5c0,2.757-2.243,5-5,5s-5-2.243-5-5C281,382.238,283.243,379.996,286,379.996z M281.11,379.996 c-1.3,1.27-2.11,3.042-2.11,5s0.81,3.729,2.11,5.004h-34.22c1.3-1.271,2.11-3.046,2.11-5.004s-0.812-3.73-2.11-5H281.11z M242,379.996c2.757,0,5,2.242,5,5c0,2.757-2.243,5-5,5s-5-2.243-5-5C237,382.238,239.243,379.996,242,379.996z M237.11,379.996 c-1.3,1.27-2.11,3.042-2.11,5s0.81,3.729,2.11,5.004H222v-10.004H237.11z M245,324h-2v-2.004h2V324z M255,315.854l-6.635,3.91 c-0.168,0.104-0.65,0.236-0.846,0.236h-6.89c-0.2,0-0.69-0.145-0.86-0.244l-6.78-3.931v-25.829H255v25.85h-0.001L255,315.854 L255,315.854z M214.16,288l6.793-14.344c0.14-0.296,0.722-0.66,1.055-0.66h115.985c0.333,0,0.915,0.364,1.055,0.66L345.84,288 H214.16z"/>
  </g>
  <g id="s1-clouds">
    <path style="opacity: 0;" id="s1-cloud-1" fill="#1692D0" d="M194.404,235.062c-1.752-2.016-2.614-4.594-2.428-7.258 c0.188-2.67,1.4-5.11,3.416-6.86c2.015-1.77,4.594-2.63,7.258-2.438c2.664,0.18,5.097,1.39,6.85,3.398l-1.51,1.312 c-1.402-1.62-3.348-2.592-5.48-2.74c-2.125-0.15-4.19,0.54-5.805,1.938c-1.613,1.4-2.583,3.342-2.732,5.48 c-0.15,2.13,0.54,4.19,1.943,5.8l-1.51,1.312h-0.002v0.05L194.404,235.062z"/>
    <path style="opacity: 0;" id="s1-cloud-2" fill="#1692D0" d="M210.604,238.605c-5.515,0-10-4.486-10-10h2c0,4.41,3.59,8,8,8 s8-3.59,8-8h2C220.604,234.119,216.117,238.605,210.604,238.605z"/>
    <path style="opacity: 0;" id="s1-cloud-3" fill="#1692D0" d="M232.463,228.793l-1.98-0.274c0.62-4.4-2.457-8.48-6.857-9.101 c-4.406-0.609-8.482,2.459-9.102,6.859l-1.98-0.27c0.77-5.49,5.864-9.33,11.36-8.562c5.49,0.771,9.33,5.87,8.56,11.36 L232.463,228.793L232.463,228.793z"/>
    <path style="opacity: 0;" id="s1-cloud-4" fill="#1692D0" d="M233.055,238.688c-1.44,0-2.875-0.315-4.22-0.942 c-2.42-1.1-4.258-3.13-5.17-5.64l1.88-0.68c0.728,2.01,2.2,3.608,4.135,4.521c1.936,0.91,4.11,1,6.115,0.28 c2.008-0.73,3.61-2.2,4.516-4.13c0.91-1.94,1-4.11,0.27-6.12l1.88-0.68c0.92,2.51,0.8,5.229-0.33,7.648 c-1.13,2.42-3.13,4.26-5.64,5.17c-1.11,0.41-2.27,0.61-3.42,0.61l-0.01-0.01v-0.021L233.055,238.688z"/>
    <path style="opacity: 0;" id="s1-cloud-5" fill="#1692D0" d="M213.18,217.768c-0.462-2.63,0.127-5.284,1.658-7.473 c1.532-2.19,3.825-3.65,6.456-4.142c5.43-0.96,10.627,2.681,11.584,8.11l-1.97,0.35c-0.766-4.35-4.926-7.26-9.268-6.49 c-4.345,0.762-7.256,4.922-6.49,9.271l-1.97,0.34v0.021V217.768z"/>
    <path style="opacity: 0;" id="s1-cloud-6" fill="#1692D0" d="M247.104,228.561l-1-1.732c3.82-2.205,5.133-7.104,2.93-10.928 c-2.207-3.82-7.108-5.133-10.93-2.928l-1-1.732c4.775-2.755,10.903-1.11,13.66,3.66 C253.52,219.674,251.878,225.803,247.104,228.561z"/>
  </g>
  <path fill="#1692D0" d="M309,382v24h25v-24H309z M320.076,394.096L311,403.17v-18.15l9.076,9.074V394.096L320.076,394.096z M312.414,384h18.15l-9.075,8.68l-9.08-8.68H312.414z M321.49,395.508l9.097,8.492h-18.193L321.49,395.508z M322.904,394.095 L332,384.99v18.188l-9.096-9.104V394.095L322.904,394.095z"/>
  <path fill="none" d="M182.066,327.605H182v80h39v-80h-15.066l-5.934-89h-12"/>
  <path fill="#39393A" d="M632.99,262H617v-5.5c0-4.14-3.36-7.5-7.51-7.5h-76.98c-4.146,0-7.51,3.37-7.51,7.5v5.5h-14.99 c-0.56,0-1.01,0.44-1.01,1c0,0.55,0.45,1,1.01,1h0.17c-0.104,0.32-0.18,0.64-0.18,1v143h2v-64h38v63.98h2V335h-40v-70 c0-0.56,0.45-1,1.01-1H629c0.56,0,1.01,0.45,1.01,1L630,322h2v-57c0-0.35-0.06-0.69-0.18-1h1.17c0.56,0,1.01-0.44,1.01-1 C634,262.45,633.55,262,632.99,262z M550,337v5h-38v-5H550z M615,262h-88v-5.5c0-3.03,2.47-5.5,5.51-5.5h76.98 c3.04,0,5.51,2.47,5.51,5.5V262z"/>
  <g id="s1-loader">
    <circle fill="#FFFFFF" cx="455" cy="397.105" r="8.5"/>
    <path fill="#FFFFFF" d="M441.06,400.216c0,2.42-1.817,4.396-4.062,4.396s-4.062-1.977-4.062-4.396c0-2.421,1.82-4.392,4.07-4.392 s4.07,1.971,4.07,4.392H441.06z"/>
    <path fill="#FFFFFF" d="M445.87,396.825c0,1.34,0.25,2.62,0.72,3.78h-3.55c0.01-0.137,0.02-0.25,0.02-0.396 c0-3.53-2.72-6.392-6.062-6.392c-3.354,0-6.062,2.854-6.062,6.392c0,0.13,0.021,0.26,0.021,0.396h-0.44V385.68l3.86-4.073 l14.229,0.033l4.899,5.562c0.09-0.021,0.18-0.021,0.26-0.04c-4.46,0.71-7.88,4.762-7.88,9.66L445.87,396.825L445.87,396.825z"/>
    <path fill="#39393A" d="M468.5,382.605v-5c0-9.66-7.86-17-17.51-17h-13.5c-2.2,0-3.99,1.773-3.99,4v15l-5,5.273v15.854 c0,1.102,0.89,1.868,2,1.868h0.87c0.896,2.342,3.07,4,5.62,4c2.59,0,4.79-1.715,5.66-4.104l-0.03,0.104h5.05 c-0.02-0.021-0.03-0.055-0.04-0.068c1.68,2.46,4.42,4.068,7.521,4.068c3.59,0,6.691-2.158,8.25-5.312 c-0.059,0.1-0.099,0.21-0.146,0.312h5.24v-10 M436.99,404.605c-2.24,0-4.062-1.977-4.062-4.396c0-2.421,1.82-4.392,4.062-4.392 s4.062,1.971,4.062,4.392C441.056,402.636,439.229,404.605,436.99,404.605z M446.59,400.605h-3.55c0.01-0.137,0.02-0.25,0.02-0.396 c0-3.53-2.72-6.392-6.062-6.392c-3.354,0-6.062,2.854-6.062,6.392c0,0.13,0.021,0.26,0.021,0.396h-0.44V385.68l3.86-4.073 l14.229,0.033l4.899,5.562c0.09-0.021,0.18-0.021,0.26-0.04c-4.46,0.71-7.88,4.762-7.88,9.66c0,1.34,0.25,2.62,0.721,3.776h-0.016 V400.605z M455.15,404.605c-4.021,0-7.28-3.49-7.28-7.78s3.26-7.78,7.28-7.78c4.02,0,7.29,3.49,7.29,7.78 S459.17,404.605,455.15,404.605z M466.5,386.575l-8.75-8.88l0.22-0.227c0.5-0.5,0.5-1.3,0-1.812c-0.5-0.5-1.31-0.488-1.81,0 l-2.12,2.132c-0.5,0.5-0.51,1.312,0,1.812c0.5,0.5,1.31,0.5,1.8,0l0.104-0.103l10.559,11.103v9h-2.438 c-0.016,0.037-0.023,0.077-0.039,0.107c0.271-0.91,0.426-1.88,0.426-2.892c0-5.094-3.69-9.267-8.396-9.729l-6.55-7.45l-5.53-0.01 l-1.92-9.104c-0.104-0.54-0.646-0.979-1.21-0.979h-0.42c-0.55,0-0.91,0.438-0.8,0.979l1.92,9.1l-6.04-0.021v-15 c0-1.1,0.891-2,1.99-2h13.5c8.7,0,15.51,6.597,15.51,15L466.5,386.575L466.5,386.575z M468.5,382.605v-5c0-9.66-7.86-17-17.51-17 h-13.5c-2.2,0-3.99,1.773-3.99,4v15l-5,5.273v15.854c0,1.102,0.89,1.868,2,1.868h0.87c0.896,2.342,3.07,4,5.62,4 c2.59,0,4.79-1.715,5.66-4.104l-0.03,0.104h5.05c-0.02-0.021-0.03-0.055-0.04-0.068c1.68,2.46,4.42,4.068,7.521,4.068 c3.59,0,6.691-2.158,8.25-5.312c-0.059,0.1-0.099,0.21-0.146,0.312h5.24L468.5,382.605L468.5,382.605z M436.99,404.605 c-2.24,0-4.062-1.977-4.062-4.396c0-2.421,1.82-4.392,4.062-4.392s4.062,1.971,4.062,4.392 C441.056,402.636,439.229,404.605,436.99,404.605z M446.59,400.605h-3.55c0.01-0.137,0.02-0.25,0.02-0.396 c0-3.53-2.72-6.392-6.062-6.392c-3.354,0-6.062,2.854-6.062,6.392c0,0.13,0.021,0.26,0.021,0.396h-0.44V385.68l3.86-4.073 l14.229,0.033l4.899,5.562c0.09-0.021,0.18-0.021,0.26-0.04c-4.46,0.71-7.88,4.762-7.88,9.66c0,1.34,0.25,2.62,0.721,3.776h-0.016 V400.605z M455.15,404.605c-4.021,0-7.28-3.49-7.28-7.78s3.26-7.78,7.28-7.78c4.02,0,7.29,3.49,7.29,7.78 S459.17,404.605,455.15,404.605z M466.5,386.575l-8.75-8.88l0.22-0.227c0.5-0.5,0.5-1.3,0-1.812c-0.5-0.5-1.31-0.488-1.81,0 l-2.12,2.132c-0.5,0.5-0.51,1.312,0,1.812c0.5,0.5,1.31,0.5,1.8,0l0.104-0.103l10.559,11.103v9h-2.438 c-0.016,0.037-0.023,0.077-0.039,0.107c0.271-0.91,0.426-1.88,0.426-2.892c0-5.094-3.69-9.267-8.396-9.729l-6.55-7.45l-5.53-0.01 l-1.92-9.104c-0.104-0.54-0.646-0.979-1.21-0.979h-0.42c-0.55,0-0.91,0.438-0.8,0.979l1.92,9.1l-6.04-0.021v-15 c0-1.1,0.891-2,1.99-2h13.5c8.7,0,15.51,6.597,15.51,15L466.5,386.575L466.5,386.575z"/>
    <g id="s1-loader-claw">
      <path fill="#39393A" d="M472.5,395.605v-1h-4v2h4 M468.5,388.605h4.01v2h-4.01V388.605z"/>
      <path fill="#39393A" d="M508.5,402.605h-31v-34.53c0-1.37-1.1-2.479-2.48-2.479c-1.38,0-2.479,1.104-2.479,2.479l-0.025,20.53 h0.019v4.021l-0.021,11.979h36c0.552,0,1,0,1-1S509.05,402.605,508.5,402.605z M475.5,402.605h-1v-34c0-0.271,0-1,0.52-1.017 c0.48,0.017,0.48,0.74,0.48,1.017V402.605z"/>
    </g>
  </g>
  <g id="s1-apparatus">
    <path fill="#FFFFFF" d="M481,352.605h24v49h-24V352.605z"/>
    <path fill="#1692D0" d="M504,351.615l-6-0.01l5.672-3.427c0.45-0.312,0.54-0.896,0.19-1.323l-3.729-4.467 c-0.151-0.188-0.354-0.283-0.55-0.283c-0.22,0-0.438,0.13-0.59,0.396l-3.5,6.118h-5.42l-3.51-6.118 c-0.147-0.271-0.36-0.396-0.598-0.396c-0.188,0-0.389,0.1-0.559,0.283l-3.71,4.467c-0.36,0.43-0.271,1.02,0.188,1.323l5.881,3.427 H482c-1.11,0-2,1.39-2,2.483v48.517h26v-49C506.002,352.506,505.1,351.615,504,351.615z M484.042,347.195l1.729-2.07l2.311,4.03 v0.733L484.042,347.195L484.042,347.195z M488,400.605h-6v-20h6V400.605z M488,378.605h-6v-5h6V378.605z M488,371.605h-6v-18h6 V371.605z M496,400.605h-6v-20h6V400.605z M496,378.605h-6v-5h6V378.605z M496,371.605h-6v-18h6V371.605z M496,351.625h-6v-1h6 V351.625z M497.502,349.155l2.311-4.03l1.729,2.07l-4.04,2.693V349.155L497.502,349.155z M504,400.605h-6v-20h6V400.605z M504,378.605h-6v-5h6V378.605z M504,371.605h-6v-18h6V371.605z"/>
  </g>
  <path fill="#FFFFFF" d="M425,315.605h85v91h-85V315.605z"/>
  <g id="s1-confetti-group1">
    <g id="s1-confetti4" opacity="0">
      <path fill="#1692D0" d="M469.98,202.682c-0.322,0-0.603-0.227-0.654-0.549c-0.194-1.094,0.101-2.129,0.828-2.92 c0.942-1.031,2.511-1.543,4.312-1.414l0,0c1.276,0.117,1.89-0.162,2.024-0.436c0.137-0.274-0.017-0.934-0.887-1.881l-1.945-2.109 c-1.508-1.639-1.438-2.648-1.112-3.205c0.321-0.553,1.159-1.111,3.327-0.615l6.291,1.445c1.371,0.312,1.836,0.092,1.873,0.018 c0.041-0.072,0.004-0.586-0.955-1.613l-1.776-1.9c-1.508-1.613-1.444-2.682-1.129-3.295c0.321-0.611,1.16-1.281,3.351-0.982 l3.854,0.531c1.271,0.172,1.894-0.066,2.058-0.35c0.151-0.27,0.053-0.939-0.734-1.945c-0.379-0.367-1.823-1.867-1.69-3.186 c0.121-1.209,1.037-2.912,1.14-3.104c0.18-0.32,0.58-0.439,0.899-0.262c0.322,0.174,0.442,0.578,0.265,0.9 c-0.242,0.453-0.9,1.799-0.979,2.598c-0.054,0.535,0.76,1.584,1.323,2.127l0.062,0.066c1.367,1.729,1.226,2.838,0.871,3.463 c-0.358,0.621-1.233,1.297-3.392,1.004l-3.86-0.525c-1.176-0.16-1.854,0.029-1.981,0.277c-0.127,0.242,0.104,0.904,0.918,1.775 l1.771,1.898c1.522,1.627,1.461,2.627,1.14,3.188c-0.316,0.553-1.148,1.107-3.316,0.611l-6.291-1.445 c-1.37-0.314-1.84-0.086-1.883-0.01s-0.01,0.596,0.943,1.635l1.94,2.109c1.565,1.703,1.36,2.842,1.103,3.369 c-0.253,0.518-1.007,1.34-3.189,1.182v0.002c-1.424-0.123-2.686,0.234-3.364,0.977c-0.446,0.486-0.617,1.104-0.496,1.791 c0.063,0.359-0.179,0.705-0.537,0.768C470.052,202.678,470.015,202.682,469.98,202.682z"/>
      <path fill="#1692D0" d="M503.289,193.173c1.082-0.193,1.81-1.227,1.613-2.311c-0.188-1.084-1.224-1.809-2.31-1.615 c-1.082,0.191-1.81,1.225-1.612,2.309C501.169,192.639,502.203,193.363,503.289,193.173z"/>
      <path fill="#1692D0" d="M480.425,212.717c0.724-0.127,1.209-0.816,1.075-1.539c-0.127-0.723-0.815-1.205-1.534-1.076 c-0.724,0.127-1.207,0.816-1.08,1.539C479.013,212.363,479.703,212.846,480.425,212.717z"/>
      <path fill="#1692D0" d="M474.429,154.023c0.321,0,0.597,0.232,0.653,0.551c0.062,0.361-0.18,0.707-0.538,0.77 c-0.041,0.008-0.078,0.012-0.121,0.012c-0.315,0-0.597-0.232-0.647-0.549c-0.062-0.361,0.18-0.707,0.539-0.771 C474.351,154.027,474.392,154.023,474.429,154.023 M474.429,152.695c-0.11,0-0.228,0.012-0.349,0.029 c-1.082,0.195-1.809,1.227-1.612,2.312c0.168,0.965,1.006,1.643,1.955,1.643c0.116,0,0.237-0.006,0.351-0.027 c1.086-0.191,1.81-1.225,1.616-2.309C476.222,153.376,475.378,152.695,474.429,152.695L474.429,152.695z"/>
      <path fill="#1692D0" d="M496.132,157.413c0.321,0,0.597,0.234,0.653,0.551c0.062,0.359-0.18,0.707-0.537,0.771 c-0.036,0.004-0.079,0.01-0.116,0.01c-0.319,0-0.597-0.232-0.653-0.551c-0.062-0.361,0.18-0.705,0.538-0.77 C496.054,157.417,496.095,157.413,496.132,157.413 M496.132,156.085c-0.108,0-0.228,0.01-0.349,0.031 c-1.08,0.188-1.803,1.223-1.612,2.307c0.168,0.967,1.012,1.646,1.961,1.646c0.11,0,0.231-0.01,0.349-0.029 c1.082-0.191,1.805-1.225,1.614-2.309C497.925,156.768,497.083,156.085,496.132,156.085L496.132,156.085z"/>
    </g>
    <g id="s1-confetti3" opacity="0">
      <path fill="#1692D0" d="M480.86,191.731c-0.187,0-0.369-0.076-0.502-0.227c-0.242-0.273-0.216-0.695,0.06-0.936 c0.385-0.34,1.467-1.383,1.812-2.104c0.396-0.83,0.35-1.867,0.35-1.877l-0.007-0.053l0.007-0.049 c0.157-1.668,0.868-2.895,2.014-3.455c1.135-0.555,2.521-0.371,3.908,0.514l0.797,0.508c0.953,0.611,1.797,0.779,2.319,0.465 c0.521-0.316,0.761-1.146,0.658-2.281l-0.269-2.979c-0.211-2.305,0.647-3.088,1.17-3.348c0.527-0.262,1.672-0.465,3.369,1.1 l3.037,2.787c0.881,0.812,1.551,1.035,1.812,0.895c0.266-0.137,0.473-0.809,0.322-1.998l-0.315-2.441 c-0.205-1.662,0.218-2.957,1.19-3.652c0.986-0.691,2.348-0.66,3.844,0.094c0.961,0.484,1.886,0.547,2.67,0.186 c0.932-0.428,1.625-1.402,1.951-2.744l1.082-4.377c0.09-0.354,0.453-0.572,0.801-0.486c0.359,0.088,0.58,0.451,0.486,0.805 l-1.076,4.375c-0.434,1.744-1.387,3.033-2.684,3.635c-1.179,0.535-2.496,0.467-3.83-0.207c-1.019-0.514-1.92-0.584-2.476-0.193 c-0.548,0.389-0.785,1.268-0.638,2.4l0.306,2.441c0.284,2.182-0.399,3.023-1.026,3.346c-0.617,0.32-1.703,0.391-3.322-1.098 l-3.033-2.787c-0.947-0.873-1.605-1.023-1.883-0.889c-0.271,0.135-0.553,0.752-0.438,2.039l0.27,2.979 c0.148,1.678-0.311,2.936-1.293,3.531c-0.983,0.6-2.309,0.428-3.727-0.477l-0.798-0.51c-0.979-0.627-1.909-0.781-2.61-0.439 c-0.701,0.346-1.148,1.174-1.267,2.34c0.007,0.275,0.017,1.447-0.479,2.475c-0.527,1.096-1.967,2.383-2.131,2.525 C481.171,191.676,481.013,191.731,480.86,191.731z"/>
      <path fill="#1692D0" d="M517.917,204.258c1.086,0.193,2.119-0.531,2.309-1.613c0.189-1.084-0.53-2.119-1.612-2.309 c-1.086-0.191-2.118,0.531-2.312,1.615C516.112,203.035,516.835,204.07,517.917,204.258z"/>
      <path fill="#1692D0" d="M486.823,201.961c0.724,0.127,1.407-0.352,1.541-1.076c0.127-0.721-0.358-1.41-1.082-1.541 c-0.718-0.125-1.407,0.355-1.532,1.08C485.616,201.147,486.102,201.836,486.823,201.961z"/>
      <path fill="#1692D0" d="M457.266,183.967c0.111,0,0.229,0.008,0.349,0.029c1.082,0.191,1.806,1.225,1.612,2.309 c-0.168,0.969-1.006,1.646-1.961,1.646c-0.11,0-0.229-0.008-0.348-0.029c-1.082-0.191-1.806-1.227-1.613-2.312 C455.473,184.646,456.317,183.967,457.266,183.967 M457.266,182.637c-1.612,0-2.989,1.154-3.27,2.744 c-0.322,1.803,0.891,3.529,2.694,3.848c0.188,0.033,0.386,0.053,0.573,0.053c1.613,0,2.99-1.154,3.271-2.746 c0.314-1.803-0.895-3.529-2.697-3.848C457.651,182.652,457.462,182.637,457.266,182.637L457.266,182.637z"/>
      <path fill="#1692D0" d="M480.854,162.471c0.037,0,0.074,0.004,0.115,0.01c0.359,0.064,0.603,0.41,0.539,0.771 c-0.053,0.318-0.332,0.549-0.654,0.549c-0.036,0-0.073-0.002-0.114-0.01c-0.358-0.064-0.603-0.41-0.539-0.768 C480.253,162.701,480.528,162.471,480.854,162.471 M480.854,161.144c-0.948,0-1.793,0.68-1.961,1.646 c-0.194,1.084,0.527,2.119,1.613,2.311c0.115,0.021,0.236,0.029,0.348,0.029c0.949,0,1.793-0.682,1.962-1.646 c0.19-1.084-0.531-2.117-1.613-2.309C481.082,161.152,480.966,161.144,480.854,161.144L480.854,161.144z"/>
    </g>
    <g id="s1-confetti2" opacity="0">
      <path fill="#1692D0" d="M470.559,194.667c-0.151,0-0.308-0.053-0.433-0.156c-0.278-0.238-0.312-0.658-0.074-0.938 c0.695-0.822,2.591-3.119,2.953-3.882c0.422-0.877,0.506-1.28,0.506-1.282c0.182-1.822,0.973-3.188,2.216-3.789 c1.123-0.543,2.487-0.404,3.882,0.387l0.006-0.012c1.86,1.19,2.604,1.146,2.698,1.069c0.007,0,0.228-0.312-0.228-1.618 c-0.807-2.312-0.289-3.33,0.291-3.779c0.574-0.447,1.688-0.697,3.724,0.641l1.377,0.91c1.321,0.869,1.998,0.846,2.173,0.709 c0.168-0.135,0.357-0.785-0.168-2.272l-0.902-2.533c-0.851-2.398-0.164-3.459,0.322-3.879c0.489-0.418,1.645-0.945,3.896,0.258 l0.55,0.297c1.267,0.67,2.53,0.82,3.399,0.397c0.56-0.272,0.918-0.774,1.039-1.45c0.062-0.361,0.406-0.603,0.766-0.537 c0.363,0.061,0.605,0.406,0.537,0.768c-0.188,1.097-0.814,1.953-1.762,2.414c-1.271,0.615-2.941,0.461-4.604-0.422l-0.553-0.297 c-1.313-0.699-2.104-0.678-2.399-0.42c-0.296,0.254-0.438,1.026,0.063,2.428l0.896,2.533c0.815,2.301,0.312,3.315-0.265,3.764 c-0.569,0.449-1.678,0.697-3.719-0.646l-1.377-0.906c-1.322-0.873-2.004-0.844-2.183-0.707c-0.177,0.139-0.375,0.797,0.146,2.293 c0.201,0.568,0.807,2.309-0.199,3.102c-0.76,0.604-2.041,0.349-3.9-0.782h-0.008c-1.105-0.707-2.141-0.89-2.916-0.515 c-0.816,0.396-1.346,1.386-1.486,2.783c-0.021,0.135-0.121,0.637-0.621,1.674c-0.506,1.054-2.869,3.853-3.14,4.164 C470.934,194.586,470.744,194.667,470.559,194.667z"/>
      <path fill="#1692D0" d="M500.328,189.715c1.086,0.191,2.119-0.531,2.309-1.619c0.189-1.08-0.525-2.113-1.611-2.307 c-1.086-0.191-2.119,0.535-2.312,1.617C498.524,188.492,499.246,189.524,500.328,189.715z"/>
      <circle fill="#1692D0" cx="481.976" cy="201.995" r="1.33"/>
      <path fill="#1692D0" d="M489.625,154.731c0.041,0,0.078,0.007,0.121,0.011c0.236,0.043,0.369,0.188,0.426,0.272 c0.061,0.084,0.148,0.26,0.111,0.498c-0.061,0.316-0.332,0.547-0.654,0.547c-0.037,0-0.074-0.004-0.114-0.01 c-0.237-0.043-0.368-0.188-0.429-0.273c-0.059-0.081-0.151-0.26-0.11-0.495C489.034,154.963,489.302,154.731,489.625,154.731 M489.625,153.404c-0.949,0-1.789,0.68-1.957,1.646c-0.188,1.084,0.533,2.117,1.613,2.309c0.115,0.021,0.238,0.031,0.348,0.031 c0.949,0,1.793-0.68,1.963-1.646c0.195-1.086-0.532-2.119-1.613-2.312C489.855,153.412,489.741,153.404,489.625,153.404 L489.625,153.404z"/>
    </g>
    <g id="s1-confetti1" opacity="0">
      <path fill="#1692D0" d="M473.531,195.241c-0.365,0-0.664-0.299-0.664-0.664c0-1.08,0.465-2.115,1.303-2.914 c1.041-0.988,2.547-1.549,4.195-1.572v-0.018h0.01c0.656,0.031,1.188-0.162,1.496-0.553c0.301-0.392,0.361-0.955,0.166-1.593 l-0.283-0.91c-0.332-1.088-0.188-2.034,0.412-2.672c0.59-0.633,1.531-0.838,2.639-0.573l1.597,0.383 c0.606,0.146,1.102,0.076,1.346-0.189c0.246-0.262,0.275-0.756,0.084-1.352l-0.584-1.822c-0.475-1.477,0.029-2.26,0.373-2.592 c0.342-0.332,1.133-0.812,2.6-0.299l0.771,0.27c1.149,0.402,2.32,0.326,3.293-0.225c0.957-0.545,1.625-1.486,1.883-2.662 c0.02-0.26,0.121-0.613,0.266-1.133c0.33-1.168,1.525-2.688,1.662-2.855c0.229-0.285,0.646-0.33,0.935-0.104 c0.284,0.229,0.334,0.643,0.104,0.934c-0.322,0.4-1.205,1.613-1.424,2.387c-0.047,0.181-0.088,0.324-0.117,0.439l-0.108,0.527 c-0.322,1.59-1.229,2.877-2.546,3.62c-1.311,0.742-2.868,0.857-4.387,0.324l-0.768-0.271c-0.562-0.193-1.037-0.195-1.234,0 c-0.201,0.194-0.213,0.67-0.037,1.233l0.586,1.822c0.349,1.08,0.215,2.025-0.375,2.66c-0.59,0.633-1.522,0.844-2.631,0.576 l-1.594-0.381c-0.617-0.146-1.111-0.076-1.363,0.19c-0.25,0.271-0.289,0.771-0.102,1.371l0.272,0.912 c0.33,1.061,0.189,2.057-0.391,2.797c-0.484,0.629-1.223,0.994-2.104,1.06l-0.006,0.03c-1.457-0.076-2.848,0.371-3.717,1.199 c-0.584,0.555-0.891,1.227-0.891,1.951C474.197,194.943,473.896,195.241,473.531,195.241z"/>
      <path fill="#1692D0" d="M503.881,188.329c1.105,0,1.996-0.896,1.996-1.996c0-1.098-0.891-1.99-1.996-1.99 c-1.1,0-1.99,0.894-1.99,1.99C501.892,187.434,502.783,188.329,503.881,188.329z"/>
      <circle fill="#1692D0" cx="489.27" cy="197.628" r="1.329"/>
      <path fill="#1692D0" d="M468.679,181.021c-1.104,0-1.996,0.893-1.996,1.991c0,1.1,0.894,1.994,1.996,1.994 c1.101,0,1.988-0.895,1.988-1.994C470.667,181.914,469.779,181.021,468.679,181.021L468.679,181.021z"/>
      <path fill="#1692D0" d="M487.942,157.771c-1.103,0-1.996,0.895-1.996,1.991c0,1.101,0.895,1.992,1.996,1.992 c1.1,0,1.991-0.893,1.991-1.992C489.935,158.665,489.042,157.771,487.942,157.771L487.942,157.771z"/>
    </g>
  </g>
  <g id="s1-conveyor-part-1">
    <path id="s1-test-tube-1" fill="#1692D0" d="M858.512,265.875h-5.994c-0.562,0-1.018,0.458-1.018,1.023 c0,0.564,0.46,0.976,1.02,0.977v14c0,1.645,1.334,2.973,2.98,2.973c1.643,0,3-1.33,3-2.973v-14h0.02 c0.562,0,1.021-0.41,1.021-0.977C859.528,266.328,859.074,265.875,858.512,265.875z M856.52,281.875c0,0.527-0.438,1-1,1 c-0.527,0-1.02-0.464-1.02-1v-14.027h2.02V281.875z"/>
    <path id="s1-conveyor-detail-1" fill="#39393A" d="M856.52,265.875h-2V259.5l2,1"/>
  </g>
  <g id="s1-conveyor-part-2">
    <path id="s1-test-tube-2" fill="#1692D0" d="M867.482,269.875h-5.994c-0.562,0-1.021,0.458-1.021,1.023 c0,0.564,0.475,0.976,1.03,0.977v14c0,1.645,1.323,2.973,2.97,2.973c1.647,0,3.021-1.33,3.021-2.973l-0.006-14h0.008 c0.57,0,1.01-0.41,1.01-0.977c0-0.57-0.45-1.023-1.01-1.023H867.482z M865.5,285.875c0,0.527-0.456,1-1.01,1c-0.54,0-1-0.464-1-1 v-14.027h2.01V285.875z"/>
    <path id="s1-conveyor-detail-2" fill="#39393A" d="M865.5,269.875h-2V263.5l2,1"/>
  </g>
  <g id="s1-conveyor-part-3">
    <path id="s1-test-tube-3" fill="#1692D0" d="M876.5,273.848h-6c-0.562,0-1,0.438-1,1c0,0.567,0.452,1,1.012,1l-0.012,14.375 c0,1.646,1.325,2.972,2.97,2.972c1.646,0,3.022-1.326,3.022-2.972l0.008-14.375c0.562,0,1-0.436,1-1 C877.5,274.278,877.062,273.848,876.5,273.848z M874.5,290.223c0,0.526-0.456,1-1.01,1c-0.54,0-1-0.465-1-1v-14.375h2.01V290.223z"/>
    <path id="s1-conveyor-detail-3" fill="#39393A" d="M874.5,273.848h-2v-6l2,1"/>
  </g>
  <path fill="#FFFFFF" d="M868,372h121v34H868V372z"/>
  <path fill="#FFFFFF" d="M942,298l-25-11v-12h25 M834,247h46v63h-46V247z"/>
  <g id="s1-boxes">
    <g>
      <path fill="#39393A" d="M836,372v34h34v-34H836z M868,404h-30v-30h30V404z"/>
      <path fill="#39393A" d="M862,383l-18,3v9l18-3V383z M860.02,390.39l-14.045,2.271v-4.943l14.059-2.373v5.059h-0.014V390.39z"/>
    </g>
    <g>
      <path fill="#39393A" d="M874,372v34h34v-34H874z M906,404h-30v-30h30V404z"/>
      <path fill="#39393A" d="M900,383l-18,3v9l18-3V383z M898.02,390.39l-14.045,2.271v-4.943l14.059-2.373v5.059h-0.014V390.39z"/>
    </g>
    <g>
      <path fill="#39393A" d="M912,372v34h34v-34H912z M944,404h-30v-30h30V404z"/>
      <path fill="#39393A" d="M938,383l-18,3v9l18-3V383z M936.02,390.39l-14.045,2.271v-4.943l14.059-2.373v5.059h-0.014V390.39z"/>
    </g>
    <path fill="#1692D0" d="M962.01,365h-5.99c-0.56,0-1.02,0.46-1.02,1.02c0,0.57,0.46,0.98,1.02,0.98v5H958v-5h2.02v5H962v-5h0.02 c0.562,0,1.021-0.41,1.021-0.98C963.034,365.45,962.57,365,962.01,365z M970.98,365h-5.99c-0.562,0-1.021,0.46-1.021,1.02 c0,0.57,0.471,0.98,1.03,0.98v5h1.99v-5H969v5h1.98v-5h0.01c0.56,0,1.01-0.41,1.01-0.98C972,365.45,971.54,365,970.98,365z M980.01,365h-5.99c-0.56,0-1.02,0.46-1.02,1.02c0,0.57,0.46,0.98,1.02,0.98v5H976v-5h2.02v5H980v-5h0.02 c0.562,0,1.021-0.41,1.021-0.98C981.034,365.45,980.57,365,980.01,365z"/>
    <path fill="#39393A" d="M951,372v34h34v-34H951z M983,404h-30v-30h30V404z"/>
    <path fill="#39393A" d="M977,383l-18,3v9l18-3V383z M975.02,390.39l-14.045,2.271v-4.943l14.059-2.373v5.059h-0.014V390.39z"/>
  </g>
  <path fill="#FFFFFF" d="M820,348h50v58h-50V348z M989,348h50v58h-50V348z"/>
  <g id="s1-confetti-group2">
    <g id="s1-confetti8" opacity="0">
      <path fill="#1692D0" d="M822.98,192.682c-0.322,0-0.603-0.227-0.654-0.549c-0.195-1.094,0.1-2.129,0.828-2.92 c0.942-1.031,2.51-1.543,4.312-1.414l0,0c1.275,0.117,1.89-0.162,2.023-0.436c0.137-0.274-0.017-0.934-0.888-1.881l-1.944-2.109 c-1.508-1.639-1.438-2.648-1.111-3.205c0.32-0.553,1.158-1.111,3.326-0.615l6.291,1.445c1.371,0.312,1.836,0.092,1.873,0.018 c0.041-0.072,0.004-0.586-0.955-1.613l-1.775-1.9c-1.508-1.613-1.444-2.682-1.129-3.295c0.32-0.611,1.16-1.281,3.351-0.982 l3.854,0.531c1.271,0.172,1.893-0.066,2.057-0.35c0.152-0.27,0.054-0.939-0.733-1.945c-0.379-0.367-1.824-1.867-1.691-3.186 c0.121-1.209,1.037-2.912,1.139-3.104c0.181-0.32,0.58-0.439,0.9-0.262c0.322,0.174,0.443,0.578,0.264,0.9 c-0.241,0.453-0.899,1.799-0.979,2.598c-0.055,0.535,0.76,1.584,1.322,2.127l0.062,0.066c1.367,1.729,1.226,2.838,0.871,3.463 c-0.359,0.621-1.234,1.297-3.391,1.004l-3.861-0.525c-1.176-0.16-1.854,0.029-1.982,0.277c-0.127,0.242,0.105,0.904,0.919,1.775 l1.771,1.898c1.523,1.627,1.461,2.627,1.139,3.188c-0.315,0.553-1.147,1.107-3.315,0.611l-6.291-1.445 c-1.369-0.314-1.84-0.086-1.883-0.01s-0.011,0.596,0.942,1.635l1.941,2.109c1.565,1.703,1.36,2.842,1.102,3.369 c-0.252,0.518-1.006,1.34-3.188,1.182v0.002c-1.425-0.123-2.687,0.234-3.363,0.977c-0.447,0.486-0.617,1.104-0.496,1.791 c0.062,0.359-0.18,0.705-0.537,0.768C823.053,192.678,823.016,192.682,822.98,192.682z"/>
      <path fill="#1692D0" d="M856.289,183.173c1.082-0.193,1.809-1.227,1.613-2.311c-0.189-1.084-1.224-1.809-2.31-1.615 c-1.082,0.191-1.811,1.225-1.612,2.309C854.17,182.639,855.203,183.363,856.289,183.173z"/>
      <path fill="#1692D0" d="M833.426,202.717c0.724-0.127,1.209-0.816,1.074-1.539c-0.127-0.723-0.814-1.205-1.533-1.076 c-0.725,0.127-1.207,0.816-1.08,1.539C832.014,202.363,832.703,202.846,833.426,202.717z"/>
      <path fill="#1692D0" d="M827.43,144.023c0.32,0,0.597,0.232,0.652,0.551c0.062,0.361-0.18,0.707-0.537,0.77 c-0.041,0.008-0.078,0.012-0.121,0.012c-0.315,0-0.598-0.232-0.647-0.549c-0.062-0.361,0.18-0.707,0.539-0.771 C827.352,144.027,827.393,144.023,827.43,144.023 M827.43,142.695c-0.11,0-0.229,0.012-0.35,0.029 c-1.082,0.195-1.809,1.227-1.611,2.312c0.168,0.965,1.006,1.643,1.955,1.643c0.115,0,0.236-0.006,0.351-0.027 c1.086-0.191,1.809-1.225,1.616-2.309C829.223,143.376,828.379,142.695,827.43,142.695L827.43,142.695z"/>
      <path fill="#1692D0" d="M849.133,147.413c0.32,0,0.596,0.234,0.652,0.551c0.062,0.359-0.18,0.707-0.537,0.771 c-0.035,0.004-0.078,0.01-0.115,0.01c-0.32,0-0.598-0.232-0.654-0.551c-0.062-0.361,0.181-0.705,0.539-0.77 C849.055,147.417,849.096,147.413,849.133,147.413 M849.133,146.085c-0.109,0-0.229,0.01-0.35,0.031 c-1.08,0.188-1.803,1.223-1.611,2.307c0.168,0.967,1.012,1.646,1.961,1.646c0.109,0,0.23-0.01,0.348-0.029 c1.082-0.191,1.806-1.225,1.615-2.309C850.926,146.768,850.082,146.085,849.133,146.085L849.133,146.085z"/>
    </g>
    <g id="s1-confetti7" opacity="0">
      <path fill="#1692D0" d="M833.859,181.731c-0.187,0-0.369-0.076-0.502-0.227c-0.242-0.273-0.216-0.695,0.061-0.936 c0.385-0.34,1.467-1.383,1.812-2.104c0.396-0.83,0.35-1.867,0.35-1.877l-0.008-0.053l0.008-0.049 c0.156-1.668,0.867-2.895,2.014-3.455c1.135-0.555,2.521-0.371,3.908,0.514l0.797,0.508c0.953,0.611,1.797,0.779,2.318,0.465 c0.521-0.316,0.762-1.146,0.658-2.281l-0.269-2.979c-0.211-2.305,0.648-3.088,1.17-3.348c0.527-0.262,1.672-0.465,3.369,1.1 l3.037,2.787c0.881,0.812,1.551,1.035,1.813,0.895c0.265-0.137,0.472-0.809,0.322-1.998l-0.315-2.441 c-0.205-1.662,0.217-2.957,1.19-3.652c0.986-0.691,2.349-0.66,3.844,0.094c0.961,0.484,1.886,0.547,2.67,0.186 c0.931-0.428,1.625-1.402,1.951-2.744l1.082-4.377c0.09-0.354,0.453-0.572,0.801-0.486c0.359,0.088,0.58,0.451,0.486,0.805 l-1.076,4.375c-0.434,1.744-1.387,3.033-2.684,3.635c-1.18,0.535-2.496,0.467-3.83-0.207c-1.02-0.514-1.92-0.584-2.477-0.193 c-0.547,0.389-0.785,1.268-0.638,2.4l0.306,2.441c0.285,2.182-0.398,3.023-1.025,3.346c-0.617,0.32-1.703,0.391-3.322-1.098 l-3.033-2.787c-0.948-0.873-1.606-1.023-1.883-0.889c-0.272,0.135-0.553,0.752-0.438,2.039l0.27,2.979 c0.148,1.678-0.311,2.936-1.293,3.531c-0.983,0.6-2.309,0.428-3.727-0.477l-0.799-0.51c-0.979-0.627-1.908-0.781-2.609-0.439 c-0.701,0.346-1.148,1.174-1.268,2.34c0.008,0.275,0.018,1.447-0.479,2.475c-0.527,1.096-1.967,2.383-2.131,2.525 C834.172,181.676,834.014,181.731,833.859,181.731z"/>
      <path fill="#1692D0" d="M870.918,194.258c1.086,0.193,2.119-0.531,2.309-1.613c0.189-1.084-0.53-2.119-1.612-2.309 c-1.086-0.191-2.119,0.531-2.312,1.615C869.111,193.035,869.836,194.07,870.918,194.258z"/>
      <path fill="#1692D0" d="M839.822,191.961c0.725,0.127,1.408-0.352,1.541-1.076c0.127-0.721-0.357-1.41-1.082-1.541 c-0.717-0.125-1.406,0.355-1.531,1.08C838.615,191.147,839.102,191.836,839.822,191.961z"/>
      <path fill="#1692D0" d="M810.266,173.967c0.111,0,0.23,0.008,0.349,0.029c1.082,0.191,1.807,1.225,1.612,2.309 c-0.168,0.969-1.006,1.646-1.961,1.646c-0.11,0-0.229-0.008-0.348-0.029c-1.082-0.191-1.805-1.227-1.613-2.312 C808.473,174.646,809.316,173.967,810.266,173.967 M810.266,172.637c-1.612,0-2.989,1.154-3.27,2.744 c-0.322,1.803,0.891,3.529,2.695,3.848c0.188,0.033,0.385,0.053,0.573,0.053c1.613,0,2.99-1.154,3.271-2.746 c0.313-1.803-0.896-3.529-2.697-3.848C810.65,172.652,810.463,172.637,810.266,172.637L810.266,172.637z"/>
      <path fill="#1692D0" d="M833.854,152.471c0.037,0,0.074,0.004,0.115,0.01c0.359,0.064,0.603,0.41,0.539,0.771 c-0.053,0.318-0.332,0.549-0.654,0.549c-0.036,0-0.073-0.002-0.114-0.01c-0.357-0.064-0.603-0.41-0.539-0.768 C833.254,152.701,833.527,152.471,833.854,152.471 M833.854,151.144c-0.948,0-1.793,0.68-1.961,1.646 c-0.194,1.084,0.527,2.119,1.613,2.311c0.115,0.021,0.236,0.029,0.348,0.029c0.949,0,1.794-0.682,1.962-1.646 c0.19-1.084-0.531-2.117-1.613-2.309C834.082,151.152,833.967,151.144,833.854,151.144L833.854,151.144z"/>
    </g>
    <g id="s1-confetti6" opacity="0">
      <path fill="#1692D0" d="M823.559,184.667c-0.151,0-0.307-0.053-0.432-0.156c-0.279-0.238-0.312-0.658-0.074-0.938 c0.695-0.822,2.59-3.119,2.953-3.882c0.422-0.877,0.506-1.28,0.506-1.282c0.181-1.822,0.972-3.188,2.215-3.789 c1.123-0.543,2.488-0.404,3.882,0.387l0.006-0.012c1.86,1.19,2.604,1.146,2.698,1.069c0.007,0,0.228-0.312-0.227-1.618 c-0.807-2.312-0.289-3.33,0.291-3.779c0.574-0.447,1.688-0.697,3.723,0.641l1.377,0.91c1.322,0.869,1.998,0.846,2.173,0.709 c0.168-0.135,0.358-0.785-0.168-2.272l-0.902-2.533c-0.85-2.398-0.164-3.459,0.322-3.879c0.489-0.418,1.645-0.945,3.896,0.258 l0.549,0.297c1.267,0.67,2.531,0.82,3.4,0.397c0.559-0.272,0.918-0.774,1.039-1.45c0.062-0.361,0.406-0.603,0.766-0.537 c0.363,0.061,0.605,0.406,0.537,0.768c-0.188,1.097-0.815,1.953-1.762,2.414c-1.271,0.615-2.941,0.461-4.605-0.422l-0.553-0.297 c-1.312-0.699-2.104-0.678-2.397-0.42c-0.298,0.254-0.439,1.026,0.062,2.428l0.896,2.533c0.815,2.301,0.311,3.315-0.265,3.764 c-0.569,0.449-1.678,0.697-3.719-0.646l-1.377-0.906c-1.322-0.873-2.004-0.844-2.182-0.707c-0.179,0.139-0.375,0.797,0.145,2.293 c0.201,0.568,0.807,2.309-0.199,3.102c-0.76,0.604-2.041,0.349-3.899-0.782h-0.008c-1.105-0.707-2.142-0.89-2.916-0.515 c-0.816,0.396-1.347,1.386-1.486,2.783c-0.021,0.135-0.121,0.637-0.621,1.674c-0.506,1.054-2.869,3.853-3.139,4.164 C823.934,184.586,823.744,184.667,823.559,184.667z"/>
      <path fill="#1692D0" d="M853.328,179.715c1.086,0.191,2.119-0.531,2.309-1.619c0.189-1.08-0.526-2.113-1.612-2.307 c-1.087-0.191-2.119,0.535-2.312,1.617C851.523,178.492,852.246,179.524,853.328,179.715z"/>
      <path fill="#1692D0" d="M834.977,190.665c0.734,0,1.328,0.596,1.328,1.33c0,0.734-0.594,1.33-1.328,1.33 c-0.735,0-1.33-0.596-1.33-1.33C833.646,191.261,834.24,190.665,834.977,190.665z"/>
      <path fill="#1692D0" d="M842.625,144.731c0.041,0,0.078,0.007,0.121,0.011c0.236,0.043,0.369,0.188,0.426,0.272 c0.06,0.084,0.148,0.26,0.111,0.498c-0.062,0.316-0.332,0.547-0.654,0.547c-0.037,0-0.074-0.004-0.115-0.01 c-0.237-0.043-0.369-0.188-0.428-0.273c-0.059-0.081-0.152-0.26-0.111-0.495C842.033,144.963,842.303,144.731,842.625,144.731 M842.625,143.404c-0.949,0-1.789,0.68-1.957,1.646c-0.189,1.084,0.533,2.117,1.613,2.309c0.115,0.021,0.237,0.031,0.348,0.031 c0.949,0,1.793-0.68,1.963-1.646c0.195-1.086-0.533-2.119-1.615-2.312C842.855,143.412,842.74,143.404,842.625,143.404 L842.625,143.404z"/>
    </g>
    <g id="s1-confetti5" opacity="0">
      <path fill="#1692D0" d="M826.531,185.241c-0.365,0-0.664-0.299-0.664-0.664c0-1.08,0.465-2.115,1.303-2.914 c1.041-0.988,2.547-1.549,4.195-1.572v-0.018h0.01c0.656,0.031,1.188-0.162,1.496-0.553c0.301-0.392,0.359-0.955,0.166-1.593 l-0.283-0.91c-0.332-1.088-0.188-2.034,0.412-2.672c0.59-0.633,1.531-0.838,2.639-0.573l1.597,0.383 c0.606,0.146,1.102,0.076,1.346-0.189c0.246-0.262,0.274-0.756,0.084-1.352l-0.584-1.822c-0.476-1.477,0.029-2.26,0.373-2.592 c0.342-0.332,1.133-0.812,2.601-0.299l0.771,0.27c1.148,0.402,2.318,0.326,3.293-0.225c0.957-0.545,1.625-1.486,1.883-2.662 c0.02-0.26,0.121-0.613,0.266-1.133c0.33-1.168,1.525-2.688,1.662-2.855c0.229-0.285,0.646-0.33,0.935-0.104 c0.284,0.229,0.334,0.643,0.104,0.934c-0.322,0.4-1.205,1.613-1.424,2.387c-0.047,0.181-0.088,0.324-0.117,0.439l-0.109,0.527 c-0.321,1.59-1.229,2.877-2.545,3.62c-1.311,0.742-2.868,0.857-4.387,0.324l-0.768-0.271c-0.562-0.193-1.037-0.195-1.234,0 c-0.201,0.194-0.213,0.67-0.037,1.233l0.586,1.822c0.349,1.08,0.215,2.025-0.375,2.66c-0.59,0.633-1.522,0.844-2.631,0.576 l-1.594-0.381c-0.617-0.146-1.111-0.076-1.363,0.19c-0.25,0.271-0.289,0.771-0.102,1.371l0.271,0.912 c0.329,1.061,0.188,2.057-0.392,2.797c-0.483,0.629-1.224,0.994-2.104,1.06l-0.006,0.03c-1.457-0.076-2.848,0.371-3.717,1.199 c-0.584,0.555-0.891,1.227-0.891,1.951C827.197,184.943,826.896,185.241,826.531,185.241z"/>
      <path fill="#1692D0" d="M856.881,178.329c1.105,0,1.996-0.896,1.996-1.996c0-1.098-0.891-1.99-1.996-1.99 c-1.1,0-1.989,0.894-1.989,1.99C854.893,177.434,855.783,178.329,856.881,178.329z"/>
      <circle fill="#1692D0" cx="842.269" cy="187.628" r="1.329"/>
      <path fill="#1692D0" d="M821.679,171.021c-1.104,0-1.996,0.893-1.996,1.991c0,1.1,0.895,1.994,1.996,1.994 s1.987-0.895,1.987-1.994C823.666,171.914,822.779,171.021,821.679,171.021L821.679,171.021z"/>
      <path fill="#1692D0" d="M840.942,147.771c-1.104,0-1.995,0.895-1.995,1.991c0,1.101,0.895,1.992,1.995,1.992 c1.1,0,1.991-0.893,1.991-1.992C842.935,148.665,842.041,147.771,840.942,147.771L840.942,147.771z"/>
    </g>
  </g>
  <path fill="#39393A" d="M868,311c0,0-0.18,96.58,0,96.77c0.189,0.19,0.74,0.23,1,0.23h44.08c-0.061-0.32-0.08-0.66-0.08-1 s0.02-0.68,0.08-1H870v-96h4c3.311,0,6-2.688,6-6.01v-32.01l65,29.038c0.01,1.65,1.35,2.98,3,2.98c1.66,0,3-1.34,3-3 c0-1.3-0.84-2.4-2-2.82V262h40v144h-62.08c0.061,0.32,0.08,0.66,0.08,1s-0.02,0.68-0.08,1H1025v-66l-34-24.56V262h1.01 c0.551,0,0.99-0.45,0.99-1c0-0.56-0.45-1-1-1h-35c-0.36,0-1-0.21-1.37-0.44l-14.1-7.408C941.5,252.13,938.02,250,937,250h-40.01 c-1.11,0-1.99,0.9-1.99,2v8h-29.01c-0.551,0-0.99,0.45-0.99,1c0,0.562,0.439,1,0.99,1H868v48 M878,303.99c0,2.21-1.79,4.01-4,4.01 h-4v-46h8V303.99z M947,298.18c-0.59,0.21-1.1,0.604-1.45,1.11L880,269.98V262h67V298.18z M896.98,260c0-0.01,0.01-0.02,0.01-0.04 V252h39.938c0.562,0.16,2.82,1.4,3.61,1.89l11.63,6.11H896.98z M1023,406h-32v-86.09l32,23.104V406z"/>

  <g id="s1-dot-1">
    <path fill="#1692D0" d="M280,400.605c-3.866,0-7,3.134-7,7c0,3.859,3.134,7,7,7s7-3.141,7-7 C287,403.739,283.866,400.605,280,400.605z M280,412.605c-2.757,0-5-2.243-5-5c0-2.764,2.243-5,5-5s5,2.236,5,5 C285,410.362,282.757,412.605,280,412.605z"/>
    <circle fill="#1692D0" cx="280" cy="407.605" r="2"/>
  </g>
  <g id="s1-dot-2">
    <path fill="#1692D0" d="M600,400c-3.866,0-7,3.134-7,7s3.134,7,7,7s7-3.134,7-7S603.866,400,600,400z M600,412 c-2.757,0-5-2.243-5-5s2.243-5,5-5s5,2.243,5,5S602.757,412,600,412z"/>
    <circle fill="#1692D0" cx="600" cy="407" r="2"/>
  </g>
  <g id="s1-dot-3">
    <path fill="#1692D0" d="M920,400c-3.87,0-7,3.13-7,7s3.13,7,7,7s7-3.13,7-7S923.87,400,920,400z M920,412c-2.76,0-5-2.24-5-5 s2.24-5,5-5s5,2.24,5,5S922.76,412,920,412z"/>
    <path fill="#FFFFFF" d="M920,402c-2.76,0-5,2.24-5,5s2.24,5,5,5s5-2.24,5-5S922.76,402,920,402z M920,409c-1.1,0-2-0.9-2-2 s0.9-2,2-2s2,0.9,2,2S921.1,409,920,409z"/>
    <path fill="#1692D0" d="M922,407c0,1.1-0.9,2-2,2s-2-0.9-2-2s0.9-2,2-2S922,405.9,922,407z"/>
  </g>
  <g class="link link_svg" fill="#1692D0" font-family="Open Sans" font-weight="700" font-size="12" data-target="1">
    <text transform="matrix(1 0 0 1 188 446.6055)">ПРОИЗВОДСТВО И ПОСТАВКА</text>
    <text transform="matrix(1 0 0 1 209.4658 463.6055)">ДЕЗИНФИЦИРУЮЩИХ</text>
    <text transform="matrix(1 0 0 1 212.8818 480.6055)">И МОЮЩИХ СРЕДСТВ</text>
  </g>
  <g class="link link_svg" fill="#1692D0" font-family="Open Sans" font-weight="700" font-size="12" data-target="2">
    <text transform="matrix(1 0 0 1 512 446)">ПОСТАВКА МЕДИЦИНСКОГО</text>
    <text transform="matrix(1 0 0 1 547.856 463)">ОБОРУДОВАНИЯ</text>
  </g>
  <g class="link link_svg" fill="#1692D0" font-family="Open Sans" font-weight="700" font-size="12" data-target="3">
    <text transform="matrix(1 0 0 1 831 446)">ПОСТАВКА ЛАБОРАТОРНОГО</text>
    <text transform="matrix(1 0 0 1 867.9766 463)">ОБОРУДОВАНИЯ</text>
    <text transform="matrix(1 0 0 1 831.4219 480)">И ХИМИЧЕСКИХ РЕАКТИВОВ</text>
  </g>
  <g id="s1-num8">
    <path fill="#FFFFFF" stroke="#1692D0" stroke-width="2" stroke-miterlimit="10" d="M807.395,248.667 c2.445,0,12.056-5.068,13.734-14.614c1.688-9.546-2.582-15.371-8.271-16.374c-2.487-0.438-12.104,2.004-13.887,12.115 C797.294,239.34,804.948,248.667,807.395,248.667z"/>
    <path fill="#FFFFFF" stroke="#1692D0" stroke-width="2" stroke-miterlimit="10" d="M776.81,252.771 c3.521-0.621,13.187-12.196,12.054-22.131c-1.14-9.933-13.021-10.252-16.39-2.889c-6.12-4.668-16.293-1.208-13.854,8.222 C761.049,245.404,773.288,253.392,776.81,252.771z"/>
    <path fill="#FFFFFF" stroke="#1692D0" stroke-width="2" stroke-miterlimit="10" d="M770.615,271.642 c6.774-3.378,8.492-15.624,5.399-24.108c-3.088-8.484-11.527-8.457-16.588-6.617c-5.057,1.841-10.807,10.068-7.719,18.554 C754.801,267.953,763.836,275.021,770.615,271.642z"/>
    <path fill="#1692D0" d="M812.224,284.737c-2.131,3.181-6.549,8.857-12.193,11.144c-0.64,0.257-1.396,0.518-2.207,0.795 c-1.707,0.585-3.625,1.243-5.217,2.132c0.688-0.771,1.452-1.5,2.258-2.25c2.312-2.167,4.938-4.624,6.271-8.977 c1.871-6.094,3.748-7.508,3.771-7.522l-1.108-1.665c-0.247,0.16-2.471,1.757-4.568,8.601c-1.183,3.844-3.491,6.009-5.729,8.104 c-0.148,0.141-0.293,0.279-0.439,0.418c0.196-0.503,0.399-1.009,0.605-1.522c1.977-4.923,4.216-10.502,3.448-16.898 c-0.123-1.022-0.236-1.997-0.344-2.917l-1.984,0.229c0.104,0.923,0.219,1.898,0.342,2.928c0.707,5.888-1.339,10.985-3.317,15.914 c-0.358,0.903-0.711,1.784-1.043,2.658c-0.653-3.804-1.888-8.149-3.909-12.32l-1.802,0.873c2.086,4.296,3.567,9.612,4.103,14.375 c-1.812-1.738-4.229-2.796-6.756-3.877c-2.306-0.984-4.685-2.001-6.906-3.626c-0.629-0.458-1.232-0.963-1.796-1.501l-1.383,1.445 c0.628,0.6,1.301,1.161,1.997,1.671c2.407,1.758,5.011,2.868,7.303,3.849c3.417,1.461,6.377,2.73,7.722,5.638v4.438l-0.013,4.799h2 v-1.055h0.039v-0.482v-1.227h0.02V302.6c0.737-1.853,4.397-3.104,7.094-4.027c0.843-0.288,1.636-0.562,2.312-0.833 c6.146-2.486,10.852-8.514,13.107-11.885L812.224,284.737z"/>
    <path fill="#FFFFFF" stroke="#1692D0" stroke-width="2" stroke-miterlimit="10" d="M793.269,267.426h4l0.722,5.014 c0.151,1.098-0.615,1.986-1.719,1.986h-2.005c-1.104,0-1.87-0.887-1.715-1.986L793.269,267.426z"/>
    <path id="ball-1" fill="#FFFFFF" stroke="#1692D0" stroke-width="2" stroke-miterlimit="10" d="M794.76,267.596 c3.576,0,15.104-9.722,15.709-19.699c0.608-9.979-7.733-11.412-15.709-7.753c-6.19-3.659-15.76-1.957-15.001,7.753 C780.518,257.604,791.186,267.596,794.76,267.596z"/>
    <path fill="#1692D0" d="M804.167,273.135l-2.388,4.466c-0.524,0.98-0.106,2.076,0.931,2.453l1.884,0.687 c0.215,0.078,0.435,0.115,0.643,0.115c0.788,0,1.472-0.538,1.647-1.396l1.042-4.955L804.167,273.135L804.167,273.135z"/>
    <polygon fill="#FFFFFF" points="805.61,275.79 804.99,278.75 803.68,278.28 805.11,275.61  "/>
    <path fill="#FFFFFF" stroke="#1692D0" stroke-width="2" stroke-miterlimit="10" d="M805.02,274.602 c3.664,1.366,15.287-1.072,19.562-9.496c4.275-8.425,1.255-19.287-7.188-22.01c-8.439-2.722-15.896,0.14-19.312,9.319 C794.661,261.594,801.354,273.235,805.02,274.602z"/>
    <path fill="#FFFFFF" stroke="#1692D0" stroke-width="2" stroke-miterlimit="10" d="M783.289,278.327 c4.229-1.54,12.027-8.117,8.17-18.715c-3.857-10.598-12.402-12.562-18.717-10.265c-6.315,2.299-11.498,9.574-7.646,20.171 C768.959,280.117,779.059,279.866,783.289,278.327z"/>
    <path fill="#FFFFFF" stroke="#1692D0" stroke-width="2" stroke-miterlimit="10" d="M781.564,278.906l3.759-1.368l2.388,4.466 c0.522,0.979,0.104,2.077-0.931,2.454l-1.884,0.686c-1.037,0.378-2.062-0.192-2.29-1.28L781.564,278.906z"/>
    <path fill="#FFFFFF" stroke="#1692D0" stroke-width="2" stroke-miterlimit="10" d="M766.786,285.186l4.122-2.38l3.965,5.051 c0.681,0.866,0.448,2.021-0.508,2.573l-2.706,1.562c-0.96,0.555-2.074,0.168-2.482-0.849L766.786,285.186z"/>
    <path id="ball-2" fill="#FFFFFF" stroke="#1692D0" stroke-width="2" stroke-miterlimit="10" d="M769.041,284.057 c2.907-1.679,7.717-15,3.525-23.402c-4.192-8.402-14.786-4.865-15.394,2.714c-6.897-2.154-14.769,4.168-9.592,11.709 C752.763,282.617,766.133,285.735,769.041,284.057z"/>
    <path fill="#1692D0" d="M815.696,278.185l-4.556,4.53c-0.776,0.776-0.688,1.952,0.189,2.616l2.496,1.879 c0.337,0.254,0.713,0.376,1.079,0.376c0.594,0,1.159-0.321,1.482-0.913l3.104-5.624L815.696,278.185L815.696,278.185z"/>
    <polygon fill="#FFFFFF" points="816.91,281.6 814.8,285.43 812.78,283.91 815.88,280.83  "/>
    <path id="ball-3" fill="#FFFFFF" stroke="#1692D0" stroke-width="2" stroke-miterlimit="10" d="M816.52,280.921 c-2.387-1.8-5.188-14.092-0.571-21.062c4.612-6.971,13.594-2.695,13.305,4.066c6.333-1.154,12.598,5.286,7.205,11.389 C831.061,281.416,818.908,282.72,816.52,280.921z"/>
    <path fill="#FFFFFF" d="M810.05,321.46c-2.84-3.8-7.49-6.38-13.96-7.76c-2.35-0.49-4.57-0.74-6.67-0.74 c-3.86,0-7.29,0.85-10.27,2.56c-4.58,2.641-7.36,6.221-8.32,10.761c-0.73,3.439-0.61,6.62,0.35,9.55 c0.96,2.92,3.69,7.01,8.19,12.25c-5.42,1.22-9.48,2.979-12.17,5.26c-2.7,2.29-4.44,5.25-5.21,8.891 c-1.021,4.77-0.04,9.199,2.92,13.279c2.97,4.08,7.8,6.84,14.51,8.26c2.4,0.521,4.68,0.771,6.84,0.771c4.182,0,7.9-0.96,11.15-2.88 c4.92-2.91,7.96-7.101,9.13-12.58c0.83-3.9,0.64-7.561-0.57-10.97c-1.21-3.42-3.83-7.38-7.85-11.9c4.39-1.13,7.79-2.71,10.188-4.77 c2.4-2.051,3.95-4.681,4.632-7.881C813.84,329.28,812.88,325.25,810.05,321.46z M791.73,372.58c-0.66,3.1-2.012,5.37-4.062,6.8 c-1.5,1.05-3.11,1.57-4.82,1.57c-0.618,0-1.25-0.07-1.898-0.2c-1.57-0.33-2.99-1.12-4.28-2.37s-2.1-3.02-2.45-5.31 c-0.35-2.29-0.188-5,0.48-8.15c0.51-2.43,1.27-4.71,2.29-6.83c1-2.12,1.97-3.7,2.88-4.729c0.6-0.67,1.51-1.36,2.75-2.08 C790.07,359,793.11,366.1,791.73,372.58z M801.15,331.21c-0.53,2.47-1.312,4.67-2.352,6.61c-1.04,1.939-2.35,3.62-3.938,5.02 c-4.45-4.46-7.28-8.2-8.472-11.189c-1.188-2.99-1.528-5.7-1.01-8.141c0.5-2.399,1.72-4.25,3.63-5.53 c1.392-0.939,2.88-1.409,4.44-1.409c0.59,0,1.17,0.06,1.77,0.189c2.472,0.53,4.222,1.82,5.24,3.891 C801.84,323.35,802.07,326.87,801.15,331.21z"/>
    <path fill="#39393A" d="M811.65,320.26c-3.12-4.18-8.222-7.04-15.15-8.51c-2.47-0.53-4.85-0.79-7.08-0.79 c-4.2,0-7.99,0.95-11.26,2.83c-5.08,2.91-8.2,6.97-9.28,12.07c-0.81,3.77-0.67,7.34,0.4,10.59c0.89,2.71,3.04,6.16,6.528,10.479 c-4.21,1.23-7.528,2.87-9.908,4.88c-3.03,2.57-5.012,5.94-5.87,10c-1.13,5.32-0.03,10.33,3.27,14.87 c3.25,4.48,8.53,7.521,15.7,9.04c2.53,0.54,4.98,0.82,7.26,0.82c4.53,0,8.62-1.07,12.17-3.16c5.4-3.2,8.78-7.87,10.062-13.89 c0.91-4.25,0.688-8.311-0.642-12.061c-1.09-3.06-3.13-6.42-6.21-10.189c3.262-1.11,5.932-2.55,7.96-4.28 c2.74-2.34,4.521-5.36,5.29-8.99C815.92,329.13,814.83,324.52,811.65,320.26z M812.94,333.56c-0.682,3.2-2.23,5.83-4.632,7.881 c-2.398,2.06-5.8,3.64-10.188,4.77c4.02,4.521,6.64,8.48,7.85,11.9c1.21,3.409,1.4,7.069,0.57,10.97 c-1.17,5.479-4.21,9.67-9.13,12.58c-3.25,1.92-6.97,2.88-11.15,2.88c-2.16,0-4.438-0.25-6.84-0.771 c-6.71-1.42-11.54-4.18-14.51-8.26c-2.96-4.08-3.94-8.51-2.92-13.279c0.77-3.641,2.51-6.601,5.21-8.891 c2.688-2.28,6.75-4.04,12.17-5.26c-4.5-5.24-7.23-9.33-8.19-12.25c-0.96-2.93-1.08-6.11-0.35-9.55c0.96-4.54,3.74-8.12,8.32-10.761 c2.979-1.71,6.408-2.56,10.27-2.56c2.1,0,4.32,0.25,6.67,0.74c6.47,1.38,11.12,3.96,13.96,7.76 C812.88,325.25,813.84,329.28,812.94,333.56z M795.22,316.76c-0.6-0.13-1.18-0.189-1.77-0.189c-1.562,0-3.05,0.47-4.44,1.41 c-1.91,1.279-3.13,3.13-3.63,5.529c-0.52,2.44-0.18,5.15,1.01,8.141c1.19,2.989,4.021,6.729,8.472,11.189 c1.59-1.399,2.898-3.08,3.938-5.02c1.04-1.94,1.82-4.141,2.352-6.61c0.92-4.34,0.688-7.86-0.69-10.56 C799.44,318.58,797.69,317.29,795.22,316.76z M799.19,330.79c-0.48,2.27-1.2,4.32-2.15,6.09c-0.61,1.14-1.33,2.18-2.16,3.12 c-3.438-3.62-5.67-6.67-6.63-9.09c-1.04-2.601-1.35-4.95-0.92-6.98c0.41-1.89,1.32-3.3,2.8-4.29c1.07-0.72,2.15-1.06,3.33-1.06 c0.43,0,0.89,0.04,1.35,0.14c1.882,0.4,3.11,1.3,3.86,2.82C799.84,323.83,800.01,326.93,799.19,330.79z M779.87,353.36 c-0.91,1.029-1.88,2.609-2.88,4.729c-1.021,2.12-1.78,4.4-2.29,6.83c-0.67,3.15-0.83,5.86-0.48,8.15 c0.352,2.29,1.16,4.06,2.45,5.31s2.71,2.04,4.28,2.37c0.648,0.13,1.28,0.2,1.898,0.2c1.71,0,3.32-0.521,4.82-1.57 c2.05-1.43,3.4-3.7,4.062-6.8c1.38-6.48-1.66-13.58-9.11-21.3C781.38,352,780.47,352.69,779.87,353.36z M789.78,372.16 c-0.562,2.609-1.62,4.43-3.25,5.57c-1.182,0.819-2.38,1.22-3.682,1.22c-0.479,0-0.979-0.05-1.479-0.16 c-1.2-0.25-2.28-0.86-3.3-1.85c-0.96-0.94-1.59-2.341-1.87-4.181c-0.312-2.04-0.16-4.54,0.45-7.42 c0.479-2.27,1.198-4.42,2.14-6.399c0.92-1.94,1.79-3.37,2.58-4.25c0.18-0.2,0.47-0.48,0.93-0.83 C788.42,360.58,790.93,366.72,789.78,372.16z M782.62,351.28c-1.24,0.72-2.15,1.41-2.75,2.08c-0.91,1.029-1.88,2.609-2.88,4.729 c-1.021,2.12-1.78,4.4-2.29,6.83c-0.67,3.15-0.83,5.86-0.48,8.15c0.352,2.29,1.16,4.06,2.45,5.31s2.71,2.04,4.28,2.37 c0.648,0.13,1.28,0.2,1.898,0.2c1.71,0,3.32-0.521,4.82-1.57c2.05-1.43,3.4-3.7,4.062-6.8C793.11,366.1,790.07,359,782.62,351.28z M789.78,372.16c-0.562,2.609-1.62,4.43-3.25,5.57c-1.182,0.819-2.38,1.22-3.682,1.22c-0.479,0-0.979-0.05-1.479-0.16 c-1.2-0.25-2.28-0.86-3.3-1.85c-0.96-0.94-1.59-2.341-1.87-4.181c-0.312-2.04-0.16-4.54,0.45-7.42 c0.479-2.27,1.198-4.42,2.14-6.399c0.92-1.94,1.79-3.37,2.58-4.25c0.18-0.2,0.47-0.48,0.93-0.83 C788.42,360.58,790.93,366.72,789.78,372.16z M800.46,320.65c-1.02-2.07-2.77-3.36-5.24-3.891c-0.6-0.13-1.18-0.189-1.77-0.189 c-1.562,0-3.05,0.47-4.44,1.41c-1.91,1.279-3.13,3.13-3.63,5.529c-0.52,2.44-0.18,5.15,1.01,8.141 c1.19,2.989,4.021,6.729,8.472,11.189c1.59-1.399,2.898-3.08,3.938-5.02c1.04-1.94,1.82-4.141,2.352-6.61 C802.07,326.87,801.84,323.35,800.46,320.65z M799.19,330.79c-0.48,2.27-1.2,4.32-2.15,6.09c-0.61,1.14-1.33,2.18-2.16,3.12 c-3.438-3.62-5.67-6.67-6.63-9.09c-1.04-2.601-1.35-4.95-0.92-6.98c0.41-1.89,1.32-3.3,2.8-4.29c1.07-0.72,2.15-1.06,3.33-1.06 c0.43,0,0.89,0.04,1.35,0.14c1.882,0.4,3.11,1.3,3.86,2.82C799.84,323.83,800.01,326.93,799.19,330.79z M800.46,320.65 c-1.02-2.07-2.77-3.36-5.24-3.891c-0.6-0.13-1.18-0.189-1.77-0.189c-1.562,0-3.05,0.47-4.44,1.41c-1.91,1.279-3.13,3.13-3.63,5.529 c-0.52,2.44-0.18,5.15,1.01,8.141c1.19,2.989,4.021,6.729,8.472,11.189c1.59-1.399,2.898-3.08,3.938-5.02 c1.04-1.94,1.82-4.141,2.352-6.61C802.07,326.87,801.84,323.35,800.46,320.65z M799.19,330.79c-0.48,2.27-1.2,4.32-2.15,6.09 c-0.61,1.14-1.33,2.18-2.16,3.12c-3.438-3.62-5.67-6.67-6.63-9.09c-1.04-2.601-1.35-4.95-0.92-6.98c0.41-1.89,1.32-3.3,2.8-4.29 c1.07-0.72,2.15-1.06,3.33-1.06c0.43,0,0.89,0.04,1.35,0.14c1.882,0.4,3.11,1.3,3.86,2.82 C799.84,323.83,800.01,326.93,799.19,330.79z M779.87,353.36c-0.91,1.029-1.88,2.609-2.88,4.729c-1.021,2.12-1.78,4.4-2.29,6.83 c-0.67,3.15-0.83,5.86-0.48,8.15c0.352,2.29,1.16,4.06,2.45,5.31s2.71,2.04,4.28,2.37c0.648,0.13,1.28,0.2,1.898,0.2 c1.71,0,3.32-0.521,4.82-1.57c2.05-1.43,3.4-3.7,4.062-6.8c1.38-6.48-1.66-13.58-9.11-21.3C781.38,352,780.47,352.69,779.87,353.36 z M789.78,372.16c-0.562,2.609-1.62,4.43-3.25,5.57c-1.182,0.819-2.38,1.22-3.682,1.22c-0.479,0-0.979-0.05-1.479-0.16 c-1.2-0.25-2.28-0.86-3.3-1.85c-0.96-0.94-1.59-2.341-1.87-4.181c-0.312-2.04-0.16-4.54,0.45-7.42 c0.479-2.27,1.198-4.42,2.14-6.399c0.92-1.94,1.79-3.37,2.58-4.25c0.18-0.2,0.47-0.48,0.93-0.83 C788.42,360.58,790.93,366.72,789.78,372.16z"/>
    <g>
      <path fill="#1692D0" d="M798.158,311.069c-0.508-0.22-1.095,0.018-1.313,0.521l-2.272,5.297l-2.57-5.762l0.702,0.035 c0.561,0.027,1.042-0.396,1.104-0.947c0.019-0.559-0.4-1.02-0.967-1.049l-1.848-0.092c-0.025-0.021-0.062-0.031-0.084-0.058 c-0.049-0.032-0.104-0.063-0.155-0.096c-0.062-0.033-0.13-0.053-0.2-0.07c-0.032-0.01-0.062-0.024-0.098-0.03 c-0.025-0.004-0.048,0.006-0.073,0.004c-0.063-0.004-0.132,0.002-0.199,0.012c-0.064,0.01-0.135,0.021-0.195,0.045 c-0.023,0.01-0.053,0.006-0.071,0.021c-0.032,0.015-0.054,0.04-0.085,0.06c-0.034,0.021-0.075,0.029-0.107,0.055l-1.771-0.09 c-0.562-0.024-1.043,0.396-1.107,0.947c-0.013,0.559,0.406,1.02,0.969,1.049l1.342,0.066l-0.982,7.062l-3.873-6.856 c-0.271-0.479-0.881-0.646-1.36-0.382c-0.479,0.271-0.647,0.886-0.381,1.361l5.215,9.234c0.062,0.297,0.248,0.545,0.521,0.684 c0.164,0.109,0.354,0.172,0.55,0.172c0.166,0,0.336-0.041,0.49-0.129c0.41-0.229,0.574-0.705,0.451-1.141l1.057-7.582l2.823,6.336 c0.093,0.244,0.275,0.451,0.536,0.562c0.129,0.06,0.263,0.08,0.395,0.08c0.39,0,0.756-0.227,0.919-0.604l3.186-7.398 C798.899,311.875,798.665,311.288,798.158,311.069z"/>
      <path fill="#1692D0" d="M793.821,310.168c-0.002,0.016-0.017,0.029-0.019,0.045c0,0.021,0.012,0.031,0.012,0.049L793.821,310.168z "/>
      <path fill="#1692D0" d="M786.827,309.913c0-0.016,0.01-0.029,0.012-0.045c0.001-0.021-0.007-0.031-0.006-0.049L786.827,309.913z"/>
    </g>
  </g>
  <g id="s1-plants">
    <g id="s1-plant-1">
      <circle id="s1-flower-1" fill="#1692D0" cx="374.481" cy="384.132" r="2"/>
      <path fill="#39393A" d="M384.99,395.567c-0.016-0.238-0.208-0.434-0.448-0.444c0,0-0.116-0.009-0.324-0.009 c-0.467,0-1.469,0.048-2.678,0.354c2.212-6.136,1.519-10.733,1.487-10.936c-0.028-0.17-0.144-0.312-0.306-0.373 c-0.16-0.062-0.344-0.033-0.477,0.076c-0.152,0.123-3.53,2.907-5.971,8.565c-0.72-1.037-1.39-1.631-1.45-1.684 c-0.182-0.155-0.452-0.157-0.635,0c-0.06,0.053-0.727,0.643-1.444,1.676c-2.44-5.652-5.816-8.438-5.967-8.562 c-0.134-0.109-0.318-0.144-0.477-0.076c-0.162,0.061-0.278,0.203-0.305,0.373c-0.033,0.193-0.725,4.798,1.486,10.933 c-1.204-0.31-2.203-0.354-2.669-0.354c-0.208,0-0.324,0.01-0.324,0.01c-0.24,0.017-0.432,0.206-0.449,0.445 c-0.012,0.176-0.266,4.36,2.92,7.526c0.905,0.899,1.9,1.521,2.863,1.949c0,0,1.689,0.851,4.408,0.851s4.979-0.851,4.979-0.851 c0.962-0.432,1.956-1.05,2.861-1.949C385.258,399.934,385.003,395.743,384.99,395.567z M374.496,404.081 c-0.016-0.021-0.033-0.04-0.049-0.062l-0.051-0.062l-0.038-0.047c-0.788-0.986-1.768-2.604-1.96-4.694 c-0.021-0.229-0.037-0.468-0.037-0.712c0-0.208,0.01-0.412,0.026-0.613c0.07-0.883,0.293-1.765,0.665-2.623 c0.087-0.197,0.179-0.396,0.273-0.574c0.098-0.188,0.198-0.362,0.298-0.529c0.312-0.521,0.631-0.939,0.887-1.246 c0.257,0.307,0.577,0.729,0.89,1.249c0.101,0.168,0.201,0.343,0.297,0.529c0.095,0.184,0.186,0.379,0.273,0.581 c0.371,0.854,0.593,1.737,0.662,2.628c0.015,0.192,0.024,0.396,0.024,0.604c0,0.251-0.016,0.494-0.039,0.73 c-0.193,2.026-1.132,3.611-1.955,4.669l-0.167,0.165L374.496,404.081z M370.51,397.036c-0.058,0.39-0.094,0.797-0.109,1.3 c-0.002,0.036-0.004,0.073-0.006,0.108c-0.266-0.498-0.516-1.014-0.75-1.526c-0.183-0.403-0.36-0.824-0.564-1.344l-0.039-0.102 c-1.359-3.551-1.678-6.609-1.7-8.599c1.222,1.396,2.896,3.688,4.228,6.911C371.034,394.825,370.678,395.916,370.51,397.036z M379.95,395.56l-0.041,0.104c-0.171,0.437-0.349,0.854-0.531,1.261c-0.236,0.521-0.489,1.037-0.758,1.541l-0.008-0.205 c-0.011-0.415-0.046-0.823-0.104-1.212c-0.167-1.12-0.521-2.21-1.056-3.247c1.331-3.227,3.008-5.521,4.233-6.921 C381.662,388.864,381.337,391.939,379.95,395.56z M383.495,396.607c-0.12,1.305-0.605,3.61-2.46,5.458 c-1.28,1.271-2.786,1.894-4,2.19c1.293-1.479,3.033-3.881,4.446-7.257C382.266,396.763,382.974,396.655,383.495,396.607z M371.953,404.281c-1.208-0.313-2.705-0.946-3.97-2.229c-1.842-1.857-2.306-4.176-2.414-5.479 c0.518,0.051,1.222,0.164,2.002,0.411C368.961,400.388,370.689,402.806,371.953,404.281z"/>
    </g>
    <g id="s1-plant-2">
      <path id="s1-flower-2" fill="#1692D0" d="M441.634,386.595c0.551,0,1,0.449,1,1c0,0.556-0.449,1-1,1s-1-0.444-1-1 C440.634,387.044,441.083,386.595,441.634,386.595 M441.634,384.595c-1.657,0-3,1.343-3,3s1.343,3,3,3s3-1.343,3-3 S443.291,384.595,441.634,384.595L441.634,384.595z"/>
      <path fill="#39393A" d="M452.98,388.398c-0.143-0.183-0.457-0.479-1.039-0.479c-0.08,0-0.168,0.006-0.222,0.013l-0.032,0.012 c-0.041,0-0.118,0.005-0.229,0.012l-0.229,0.015c-0.334,0.032-0.718,0.086-1.125,0.161c-1.263,0.233-2.43,0.646-3.472,1.216 c-0.612,0.337-1.19,0.739-1.722,1.197c-0.271,0.238-0.531,0.488-0.786,0.753c-0.908,0.96-1.594,2.037-2.037,3.197 c-0.222,0.573-0.368,1.104-0.391,1.385l-0.021,0.604h-0.027l-0.003-0.103l-0.021-0.161c-0.015-0.086-0.032-0.173-0.058-0.26 l-0.001-0.005c-0.034-0.357-0.187-0.896-0.401-1.462c-0.444-1.164-1.13-2.241-2.043-3.207c-0.253-0.269-0.52-0.521-0.785-0.742 c-0.509-0.454-1.087-0.858-1.713-1.2c-1.045-0.575-2.213-0.979-3.473-1.218c-0.41-0.075-0.788-0.129-1.165-0.165l-0.191-0.011 c-0.104-0.009-0.179-0.01-0.142-0.009l-0.071-0.008c-0.786-0.104-1.13,0.256-1.287,0.451c-0.356,0.46-0.271,1.021-0.212,1.282 c0.012,0.095,0.036,0.206,0.075,0.362c0.062,0.273,0.146,0.602,0.264,0.975c0.354,1.083,0.826,2.076,1.4,2.941 c0.495,0.771,1.096,1.465,1.786,2.062c1.175,1.021,2.473,1.736,3.857,2.143c0.688,0.188,1.346,0.298,1.848,0.297l0.146,0.007 c0.15,0.021,0.29,0.032,0.419,0.032c0.279,0,0.526-0.064,0.753-0.156v7.334h2v-7.346c0.232,0.096,0.483,0.159,0.771,0.159 c0.118,0,0.245-0.01,0.381-0.022l0.174-0.006c0.495,0,1.146-0.106,1.833-0.302c1.385-0.397,2.685-1.116,3.859-2.141 c0.662-0.575,1.262-1.268,1.779-2.059c0.59-0.904,1.062-1.896,1.406-2.966c0.107-0.354,0.193-0.683,0.253-0.938 c0.03-0.121,0.05-0.215,0.064-0.31l0.014-0.085C453.305,389.156,453.239,388.73,452.98,388.398z M439.303,396.454 c-0.115,0-0.547-0.021-1.274-0.224c-1.104-0.317-2.147-0.897-3.104-1.729c-0.546-0.475-1.021-1.021-1.422-1.646 c-0.479-0.729-0.876-1.561-1.167-2.446c-0.043-0.146-0.083-0.279-0.118-0.41c0.188,0.023,0.376,0.056,0.579,0.093 c1.047,0.194,2.013,0.531,2.874,1.005c0.496,0.271,0.947,0.586,1.363,0.956c0.229,0.197,0.445,0.404,0.646,0.613 c0.729,0.768,1.272,1.622,1.624,2.543c0.205,0.53,0.271,0.854,0.289,1.016l0.04,0.236L439.303,396.454z M450.936,390.393 c-0.289,0.889-0.685,1.722-1.175,2.476c-0.418,0.636-0.896,1.188-1.419,1.644c-0.954,0.826-1.998,1.406-3.097,1.728 c-0.737,0.208-1.17,0.226-1.285,0.226l-0.088-0.001l-0.216,0.011v-0.158l0.021-0.153c0.013-0.08,0.072-0.403,0.278-0.938 c0.352-0.917,0.896-1.771,1.617-2.531c0.21-0.222,0.43-0.433,0.654-0.631c0.41-0.355,0.867-0.679,1.361-0.943 c0.858-0.477,1.824-0.812,2.867-1.004c0.208-0.036,0.405-0.067,0.583-0.098C451.014,390.129,450.976,390.259,450.936,390.393z"/>
    </g>
    <g id="s1-plant-3">
      <circle id="s1-flower-3" fill="#1692D0" cx="474.917" cy="392.113" r="1"/>
      <circle id="s1-flower-4" fill="#1692D0" cx="489.917" cy="392.113" r="1"/>
      <path fill="#39393A" d="M490.796,397.24h-0.04c0,0-0.24-0.04-0.65-0.04c-0.646,0-1.729,0.09-2.92,0.55 c0.016-3.859-3.3-7.811-3.3-7.811c-0.314-0.449-0.76-0.685-1.2-0.685c-0.43,0-0.864,0.22-1.194,0.659c0,0-3.48,3.938-3.556,7.82 v0.101c-1.26-0.54-2.43-0.641-3.114-0.641c-0.41,0-0.65,0.04-0.65,0.04h-0.04c-1.09,0-1.82,0.896-1.648,1.979 c0,0,0.054,3.069,2.713,5.312c1.841,1.561,3.405,1.8,4.211,1.8c0.354,0,0.56-0.05,0.56-0.05h0.19c0.63,0,1.154-0.21,1.56-0.57 c0.24,0.101,0.479,0.148,0.729,0.148c0.261,0,0.511-0.054,0.761-0.158c0.39,0.354,0.938,0.58,1.58,0.58h0.188 c0,0,0.2,0.05,0.562,0.05c0.8,0,2.37-0.239,4.21-1.8c2.66-2.24,2.71-5.312,2.71-5.312 C492.605,398.14,491.887,397.24,490.796,397.24z M480.146,404.28h-0.062l-0.229,0.061l-0.329-0.021c-0.03,0-0.07,0.01-0.13,0.01 c-0.41,0-1.516-0.13-2.926-1.319c-1.8-1.521-1.979-3.525-2-3.801c0.062,0,0.186-0.01,0.346-0.01c0.75,0,2.146,0.146,3.479,1.13 c0.5,1.771,1.41,3.2,1.95,3.938C480.216,404.28,480.177,404.28,480.146,404.28z M482.736,403.52l-0.07,0.07l-0.061,0.09 c-0.062,0.08-0.109,0.13-0.145,0.149c0,0.011-0.01,0.011-0.01,0.011c-0.01,0-0.01-0.011-0.021-0.021 c-0.024-0.021-0.06-0.055-0.09-0.109l-0.064-0.101l-0.08-0.095c-0.021-0.024-1.631-1.905-2.11-4.314 c-0.11-0.46-0.16-0.939-0.149-1.436c0.039-2.274,1.771-4.93,2.729-6.146c0.93,1.239,2.56,3.891,2.521,6.181 c-0.011,0.42-0.061,0.819-0.141,1.22C484.526,401.52,482.756,403.5,482.736,403.52z M488.446,403.01 c-1.41,1.189-2.511,1.319-2.92,1.319c-0.062,0-0.104-0.011-0.13-0.011l-0.25-0.015l-0.312-0.025h-0.06 c-0.021,0-0.056,0-0.08-0.015c0.59-0.771,1.58-2.235,2.104-4.064c1.271-0.859,2.591-1,3.3-1c0.16,0,0.28,0.01,0.33,0.01 C490.417,399.55,490.207,401.52,488.446,403.01z"/>
    </g>
    <g id="s1-plant-4">
      <circle id="s1-flower-5" fill="#1692D0" cx="841.45" cy="384.132" r="2"/>
      <path fill="#39393A" d="M851.959,395.567c-0.016-0.238-0.208-0.434-0.447-0.444c0,0-0.115-0.009-0.324-0.009 c-0.467,0-1.469,0.048-2.678,0.354c2.213-6.136,1.521-10.733,1.488-10.936c-0.029-0.17-0.145-0.312-0.307-0.373 c-0.16-0.062-0.35-0.033-0.479,0.076c-0.149,0.123-3.528,2.907-5.971,8.565c-0.727-1.037-1.396-1.631-1.45-1.684 c-0.183-0.155-0.452-0.157-0.635,0c-0.062,0.053-0.729,0.643-1.444,1.676c-2.438-5.652-5.812-8.438-5.967-8.562 c-0.135-0.109-0.318-0.144-0.479-0.076c-0.155,0.061-0.272,0.203-0.306,0.373c-0.032,0.193-0.725,4.798,1.486,10.933 c-1.204-0.31-2.203-0.354-2.67-0.354c-0.207,0-0.323,0.01-0.323,0.01c-0.239,0.017-0.437,0.206-0.448,0.445 c-0.013,0.176-0.266,4.36,2.92,7.526c0.905,0.899,1.9,1.521,2.863,1.949c0,0,1.688,0.851,4.407,0.851 c2.719,0,4.979-0.851,4.979-0.851c0.961-0.432,1.955-1.05,2.86-1.949C852.227,399.934,851.973,395.743,851.959,395.567z M841.465,404.081c-0.016-0.021-0.033-0.04-0.049-0.062l-0.052-0.062l-0.038-0.047c-0.787-0.986-1.771-2.604-1.959-4.694 c-0.021-0.229-0.037-0.468-0.037-0.712c0-0.208,0.01-0.412,0.026-0.613c0.063-0.883,0.294-1.765,0.665-2.623 c0.087-0.197,0.178-0.396,0.271-0.574c0.098-0.188,0.198-0.362,0.298-0.529c0.312-0.521,0.631-0.939,0.887-1.246 c0.264,0.307,0.577,0.729,0.896,1.249c0.101,0.168,0.2,0.343,0.297,0.529c0.095,0.184,0.188,0.379,0.273,0.581 c0.364,0.854,0.593,1.737,0.655,2.628c0.021,0.192,0.024,0.396,0.024,0.604c0,0.251-0.016,0.494-0.039,0.73 c-0.192,2.026-1.132,3.611-1.955,4.669l-0.167,0.165L841.465,404.081z M837.479,397.036c-0.058,0.39-0.094,0.797-0.104,1.3 c-0.002,0.036-0.004,0.073-0.006,0.108c-0.271-0.498-0.521-1.014-0.75-1.526c-0.188-0.403-0.359-0.824-0.564-1.344l-0.039-0.102 c-1.354-3.551-1.678-6.609-1.693-8.599c1.222,1.396,2.896,3.688,4.228,6.911C838.004,394.825,837.646,395.916,837.479,397.036z M846.919,395.56l-0.041,0.104c-0.171,0.437-0.349,0.854-0.531,1.261c-0.23,0.521-0.489,1.037-0.759,1.541l-0.008-0.205 c-0.011-0.415-0.046-0.823-0.104-1.212c-0.173-1.12-0.521-2.21-1.062-3.247c1.331-3.227,3.009-5.521,4.234-6.921 C848.631,388.864,848.307,391.939,846.919,395.56z M850.465,396.607c-0.12,1.305-0.604,3.61-2.461,5.458 c-1.279,1.271-2.785,1.894-4,2.19c1.293-1.479,3.033-3.881,4.445-7.257C849.235,396.763,849.943,396.655,850.465,396.607z M838.922,404.281c-1.207-0.313-2.704-0.946-3.97-2.229c-1.842-1.857-2.306-4.176-2.413-5.479 c0.518,0.051,1.222,0.164,2.002,0.411C835.931,400.388,837.658,402.806,838.922,404.281z"/>
    </g>
    <g id="s1-plant-5">
      <circle id="s1-flower-6" fill="#1692D0" cx="1043.917" cy="392.113" r="1"/>
      <circle id="s1-flower-7" fill="#1692D0" cx="1058.917" cy="392.113" r="1"/>
      <path fill="#39393A" d="M1059.797,397.24h-0.041c0,0-0.239-0.04-0.646-0.04c-0.649,0-1.729,0.09-2.923,0.55 c0.013-3.859-3.303-7.811-3.303-7.811c-0.315-0.449-0.76-0.685-1.197-0.685c-0.434,0-0.868,0.22-1.197,0.659 c0,0-3.48,3.938-3.553,7.82v0.101c-1.263-0.54-2.434-0.641-3.118-0.641c-0.409,0-0.649,0.04-0.649,0.04h-0.039 c-1.09,0-1.818,0.896-1.646,1.979c0,0,0.052,3.069,2.711,5.312c1.84,1.561,3.406,1.8,4.209,1.8c0.355,0,0.562-0.05,0.562-0.05 h0.188c0.631,0,1.16-0.21,1.562-0.57c0.239,0.101,0.479,0.148,0.729,0.148c0.262,0,0.512-0.054,0.762-0.158 c0.39,0.354,0.938,0.58,1.579,0.58h0.188c0,0,0.199,0.05,0.562,0.05c0.801,0,2.37-0.239,4.211-1.8 c2.659-2.24,2.709-5.312,2.709-5.312C1061.605,398.14,1060.887,397.24,1059.797,397.24z M1049.146,404.28h-0.062l-0.229,0.061 l-0.329-0.021c-0.03,0-0.069,0.01-0.13,0.01c-0.41,0-1.516-0.13-2.926-1.319c-1.8-1.521-1.979-3.525-2-3.801 c0.062,0,0.186-0.01,0.346-0.01c0.75,0,2.146,0.146,3.479,1.13c0.5,1.771,1.41,3.2,1.949,3.938 C1049.217,404.28,1049.177,404.28,1049.146,404.28z M1051.736,403.52l-0.07,0.07l-0.061,0.09c-0.062,0.08-0.109,0.13-0.145,0.149 c0,0.011-0.01,0.011-0.01,0.011c-0.012,0-0.012-0.011-0.021-0.021c-0.024-0.021-0.06-0.055-0.09-0.109l-0.064-0.101l-0.08-0.095 c-0.021-0.024-1.63-1.905-2.11-4.314c-0.108-0.46-0.159-0.939-0.149-1.436c0.041-2.274,1.771-4.93,2.729-6.146 c0.931,1.239,2.562,3.891,2.521,6.181c-0.01,0.42-0.06,0.819-0.14,1.22C1053.526,401.52,1051.756,403.5,1051.736,403.52z M1057.446,403.01c-1.409,1.189-2.511,1.319-2.92,1.319c-0.062,0-0.104-0.011-0.13-0.011l-0.25-0.015l-0.312-0.025h-0.061 c-0.021,0-0.055,0-0.079-0.015c0.591-0.771,1.579-2.235,2.104-4.064c1.271-0.859,2.59-1,3.303-1c0.157,0,0.277,0.01,0.327,0.01 C1059.416,399.55,1059.207,401.52,1057.446,403.01z"/>
    </g>
    <g id="s1-plant-6">
      <path fill="#FFFFFF" d="M450,326.46c0,6.46-4.65,11.8-10.81,12.44l-0.65,0.06l-0.2,0.61c-1.67,5.029-6.229,8.41-11.34,8.41 c-1.26,0-2.49-0.2-3.67-0.601l-0.47-0.149l-0.4,0.27c-2.77,1.85-5.83,3.15-9.09,3.86c-1.75,0.38-3.54,0.59-5.34,0.619v-10.89 l14.989-7.06c0.49-0.24,0.891-0.86,0.91-1.4c-0.02-0.53-0.41-0.78-0.91-0.55l-14.989,6.99v-8.87l10.09-4.21 c0.5-0.21,0.9-0.82,0.92-1.36c-0.02-0.53-0.42-0.8-0.92-0.59l-10.09,4.14v-9.43c0-0.54-0.45-1-1-1h-0.05c-0.54,0-1,0.45-1,1v9.39 l-10-4.1c-0.5-0.21-0.9,0.06-0.91,0.59c0.01,0.54,0.41,1.15,0.91,1.36l10,4.17v8.92l-15-7c-0.51-0.23-0.9,0.02-0.91,0.55 c0.01,0.54,0.41,1.17,0.91,1.4l15,7.069v10.841c-2.17-0.12-4.33-0.48-6.4-1.11l-0.36-0.11l-0.35,0.16 c-1.54,0.71-3.18,1.07-4.87,1.07c-4.38,0-8.41-2.48-10.52-6.48l-0.27-0.51l-0.59-0.02c-6.52-0.2-11.62-5.69-11.62-12.48 c0-1.69,0.31-3.33,0.94-4.87l0.25-0.609l-0.47-0.471c-2.4-2.38-3.72-5.59-3.72-9.04c0-6.109,4.37-11.42,10.16-12.35l0.82-0.13 l0.02-0.83c0.16-6.71,5.54-12.18,12-12.18c2.63,0,5.12,0.87,7.22,2.52l1.08,0.85l0.47-1.3c1.76-4.82,6.27-8.06,11.23-8.06 c4.71,0,9,2.89,10.94,7.36l0.529,1.23l1.03-0.86c2.14-1.79,4.74-2.73,7.49-2.73c6.62,0,12,5.6,12,12.49 c0,3.399-1.29,6.579-3.641,8.96L438,313.81l1.91,0.32C445.75,315.1,450,320.29,450,326.46z"/>
      <path fill="#39393A" d="M441.92,312.55c2-2.56,3.08-5.72,3.08-9.06c0-7.99-6.28-14.49-14-14.49c-2.77,0-5.48,0.85-7.77,2.44 c-2.46-4.56-7.13-7.44-12.23-7.44c-5.37,0-10.29,3.24-12.6,8.18c-2.22-1.44-4.75-2.19-7.4-2.19c-7.4,0-13.38,5.79-13.96,13.31 c-6.44,1.431-11.04,7.26-11.04,14.17c0,3.771,1.36,7.29,3.86,9.99c-0.57,1.6-0.86,3.28-0.86,5c0,7.69,5.66,13.92,12.99,14.46 c2.53,4.35,7.08,7.03,12.01,7.03c1.86,0,3.67-0.37,5.36-1.101c2.15,0.62,4.37,0.98,6.62,1.101l0.01,52.18h2.04v-52.14 c1.95-0.04,3.88-0.25,5.77-0.67c3.35-0.73,6.49-2.04,9.37-3.891c1.24,0.37,2.53,0.561,3.83,0.561c5.77,0,10.93-3.66,13.03-9.19 c6.87-1.02,11.97-7.07,11.97-14.34C452,319.92,447.85,314.32,441.92,312.55z M439.19,338.9l-0.65,0.06l-0.2,0.61 c-1.67,5.029-6.229,8.41-11.34,8.41c-1.26,0-2.49-0.2-3.67-0.601l-0.47-0.149l-0.4,0.27c-2.77,1.85-5.83,3.15-9.09,3.86 c-1.75,0.38-3.54,0.59-5.34,0.619v-10.89l14.989-7.06c0.49-0.24,0.891-0.86,0.91-1.4c-0.02-0.53-0.41-0.78-0.91-0.55l-14.989,6.99 v-8.87l10.09-4.21c0.5-0.21,0.9-0.82,0.92-1.36c-0.02-0.53-0.42-0.8-0.92-0.59l-10.09,4.14v-9.43c0-0.54-0.45-1-1-1h-0.05 c-0.54,0-1,0.45-1,1v9.39l-10-4.1c-0.5-0.21-0.9,0.06-0.91,0.59c0.01,0.54,0.41,1.15,0.91,1.36l10,4.17v8.92l-15-7 c-0.51-0.23-0.9,0.02-0.91,0.55c0.01,0.54,0.41,1.17,0.91,1.4l15,7.069v10.841c-2.17-0.12-4.33-0.48-6.4-1.11l-0.36-0.11 l-0.35,0.16c-1.54,0.71-3.18,1.07-4.87,1.07c-4.38,0-8.41-2.48-10.52-6.48l-0.27-0.51l-0.59-0.02 c-6.52-0.2-11.62-5.69-11.62-12.48c0-1.69,0.31-3.33,0.94-4.87l0.25-0.609l-0.47-0.471c-2.4-2.38-3.72-5.59-3.72-9.04 c0-6.109,4.37-11.42,10.16-12.35l0.82-0.13l0.02-0.83c0.16-6.71,5.54-12.18,12-12.18c2.63,0,5.12,0.87,7.22,2.52l1.08,0.85 l0.47-1.3c1.76-4.82,6.27-8.06,11.23-8.06c4.71,0,9,2.89,10.94,7.36l0.529,1.23l1.03-0.86c2.14-1.79,4.74-2.73,7.49-2.73 c6.62,0,12,5.6,12,12.49c0,3.399-1.29,6.579-3.641,8.96L438,313.81l1.91,0.32c5.84,0.97,10.09,6.16,10.09,12.33 C450,332.92,445.35,338.26,439.19,338.9z"/>
    </g>
  </g>
  <g id="s1-truck">
    <g>
      <path fill="#FFFFFF" d="M642.5,322h-23.503v74.79h11.351c0.154,4.559,3.89,8.21,8.485,8.21s8.331-3.651,8.485-8.21h4.028 c0.154,4.559,3.89,8.21,8.485,8.21s8.331-3.651,8.485-8.21h27.679V327l-53.497-0.219L642.5,322L642.5,322z"/>
      <path fill="#FFFFFF" d="M724.31,357H702v39l13.32,0.04c0.238-5.04,4.39-9.04,9.488-9.04c5.11,0,8.98,3.94,9.19,9h1v-18L724.31,357 z M729.68,377.16c-0.33,0.52-0.88,0.82-1.5,0.82L706.87,378c-0.98,0-1.78-0.78-1.78-1.78L705,362c0-0.98,1.02-2,2-2l13.99,0.08 c0.68,0,1.3,0.4,1.6,1l7.19,14.55C730.06,376.18,730,376.63,729.68,377.16z"/>
      <circle fill="#FFFFFF" cx="724.833" cy="396.5" r="8.5"/>
    </g>
    <path fill="#39393A" d="M736.83,377.22l-10.87-21.2c-0.3-0.6-0.93-1-1.6-1L702,355c-0.97,0-2,1.02-2,2v39c0,0.98,1.02,2,2,2h14 c0.66,4.62,4.02,8,8.81,8s8.74-3.54,9.4-8.16c0,0.061-0.01,0.11-0.02,0.16l0.85-0.29c0.979,0,1.96-0.729,1.96-1.71v-18 C737,377.75,736.93,377.47,736.83,377.22z M724.81,404c-4.14,0-7.5-3.36-7.5-7.5s3.36-7.5,7.5-7.5c4.142,0,7.5,3.36,7.5,7.5 S728.95,404,724.81,404z M735,396h-1c-0.21-5.06-4.08-9-9.19-9c-5.1,0-9.25,4-9.488,9.04L702,396v-39h22.31L735,378V396z"/>
    <path fill="#39393A" d="M729.78,375.63l-7.19-14.55c-0.3-0.6-0.92-1-1.6-1L707,360c-0.98,0-2,1.02-2,2l0.09,14.22 c0,1,0.8,1.78,1.78,1.78l21.31-0.02c0.62,0,1.17-0.301,1.5-0.82C730,376.63,730.06,376.18,729.78,375.63z M707,376v-14h14 l7.01,14.02L707,376z"/>
    <path fill="#39393A" d="M695.004,326H620c-0.979,0-2,1.02-2,2v68c0,0.979,1.031,2,2,2h9.43c-0.01-0.05,0,0.061,0,0 c0.66,4.62,4.589,8,9.379,8s8.74-3.54,9.4-8.16c0,0.062-0.01,0.11-0.02,0.16h2.234c-0.01-0.05-0.02-0.1-0.02-0.16 c0.66,4.62,4.604,8.16,9.396,8.16s8.74-3.54,9.4-8.16c0,0.062-0.01,0.11-0.021,0.16l26.035-0.24c1,0,1.778-0.776,1.778-1.76v-68 C697.004,327.02,696.004,326,695.004,326z M638.81,404c-4.14,0-7.5-3.36-7.5-7.5s3.36-7.5,7.5-7.5c4.146,0,7.5,3.36,7.5,7.5 S642.95,404,638.81,404z M659.81,404c-4.14,0-7.5-3.36-7.5-7.5s3.36-7.5,7.5-7.5c4.146,0,7.5,3.36,7.5,7.5S663.95,404,659.81,404z M695,396.03h-25.7c-0.25-5.03-4.396-9.03-9.49-9.03c-5.09,0-9.234,4-9.484,9.03H648.3c-0.25-5.03-4.396-9.03-9.49-9.03 c-5.09,0-9.234,4-9.484,9.03H620V382h75V396.03z M695,380h-75v-52.04h75V380L695,380z"/>
  </g>
  <g id="s1-balloon">
    <path fill="#FFFFFF" d="M48.996,162c-4.961,0-8.996-4.038-8.996-9.002v-7.006c0-2.201,1.793-3.992,3.997-3.992h16.005 c2.204,0,3.998,1.791,3.998,3.992v7.006c0,4.964-4.036,9.002-8.997,9.002H48.996z"/>
    <path fill="#1692D0" d="M104,50c0-28.719-23.281-50-52-50S0,21.281,0,50c0,12.094,4.129,26.592,11.053,39.324l-0.14,0.074 l28.733,54.184C39.247,144.3,39,145.113,39,145.992v7.006C39,158.521,43.476,163,48.996,163h6.007C60.53,163,65,158.521,65,152.998 v-7.006c0-0.971-0.288-1.868-0.767-2.634l27.595-52.04C99.423,78.123,104,62.73,104,50z M75.731,13.034 C82.449,20.85,86,31.903,86,45c0,14.09-4.157,32.926-10.591,47.984C68.346,109.518,59.813,119,52,119s-16.346-9.482-23.409-26.016 C22.157,77.926,18,59.091,18,45c0-13.097,3.551-24.15,10.268-31.966C34.384,5.918,42.812,2,52,2S69.616,5.918,75.731,13.034z M63,145.992V148H41v-2.008c0-1.65,1.345-2.992,2.997-2.992h16.005C61.655,143,63,144.342,63,145.992z M58.313,141H46.011 l-6.518-22.677C43.5,120.041,47.688,121,52,121c4.444,0,8.758-1.015,12.876-2.833L58.313,141z M2,50 c0-13.212,5.188-25.399,14.605-34.317c5.231-4.953,11.487-8.655,18.357-10.952C23.823,11.496,16,25.328,16,45 c0,23.956,11.601,60.822,26.667,72.393c-7.323-2.474-16.621-8.463-25.771-22.23C7.708,81.336,2,64.031,2,50z M37.087,117.189 l6.846,23.816c-1.077,0.015-2.065,0.375-2.876,0.968L20.7,103.584C25.567,109.359,31.101,114.115,37.087,117.189z M55.003,161 h-6.007c-4.409,0-7.996-3.59-7.996-8.002V150h22v2.998C63,157.41,59.412,161,55.003,161z M62.774,141.84 c-0.692-0.463-1.513-0.734-2.392-0.802l6.86-23.868l-0.187-0.054c5.677-2.944,10.941-7.399,15.615-12.799L62.774,141.84z M91.08,88.461l-0.955,1.801c-0.961,1.672-1.965,3.312-3.021,4.9c-9.149,13.769-18.447,19.758-25.771,22.23 C76.399,105.822,88,68.956,88,45c0-19.672-7.824-33.506-18.965-40.27c6.871,2.296,13.128,5.999,18.359,10.952 C96.813,24.601,102,36.788,102,50c0,11.85-4.083,26.028-10.884,38.48L91.08,88.461z"/>
  </g>
</svg>