<svg xmlns="http://www.w3.org/2000/svg" viewBox="0.5 -123 1200 2047"><path id="s2-fire" fill="#1692D0" d="M1006.225 846.12l-1.76 1.57c-.68-1.5-1.9-3.854-3.29-4.962-1.53-1.238-1.93-1.908-1.93-1.908l-1.105-2.33-.76 2.46c-.35 1.14-1.03 2.34-1.39 2.47-.562.2-1.21-.2-1.21-.2l-1.394-1.09-.47 3.7c-.729.438-2.01 1.41-2.58 3.06-.397 1.15-.46 2.45-.42 3.434l-1.92-.521-.01 1.3c0 .13.025 3.21 2.35 5.53 1.66 1.67 4.03 2.51 7.04 2.51 2.27 0 4.17-.777 5.65-2.31 3.5-3.65 3.276-10.313 3.27-10.59l-.071-2.123zm-4.64 11.33c-1.1 1.14-2.47 1.688-4.2 1.688-5.2 0-6.74-2.87-7.188-4.67l2.13.58-.271-1.56c-.01-.021-.396-2.28.184-3.94.51-1.479 2.01-2.16 2.02-2.16l.521-.229.22-1.73c.512.104 1.13.07 1.67-.13.88-.31 1.53-1.25 1.98-2.14.33.33.75.7 1.276 1.13 1.34 1.08 2.79 4.29 3.24 5.44l.52 1.35.522-.46c-.225 2.051-.855 4.991-2.624 6.831z"/><circle id="s2-regularot" cx="1167.375" cy="768" r="3" fill="#1692D0"/><path id="s2-wave-1" fill="#1692D0" d="M943.375 799c-13.05 0-24.887-4.87-25.385-5.077-.051-.014-11.938-3.923-24.615-3.923-14.73 0-24.527 3.888-24.625 3.927-.488.203-12.325 5.073-25.375 5.073s-24.887-4.87-25.385-5.077l.77-1.846c.118.05 11.979 4.923 24.615 4.923s24.497-4.874 24.615-4.923c.42-.17 10.236-4.077 25.385-4.077 13.012 0 25.194 4.01 25.316 4.05.187.076 12.046 4.95 24.684 4.95s24.497-4.874 24.615-4.923c.42-.17 10.236-4.077 25.385-4.077 13.012 0 25.194 4.01 25.316 4.05l-.634 1.898c-.118-.04-12.006-3.95-24.684-3.95-14.729 0-24.528 3.89-24.626 3.928-.486.204-12.323 5.074-25.372 5.074z"/><path fill="#FFF" d="M1220.5 804h-139.855l-.207-6h-7.062l-.02 6H1021.5l-2.286-8-1.715-6-9-7-4.5-2.625-9.125-1.25-7.375 1.25-6 2.625-9 10-3 11h-154v-25h405"/><path id="s2-drop-1" fill="#1692D0" d="M1076.875 770c-1.25 0-2.5-.683-2.5-2.333 0-1.667 2.5-4.667 2.5-4.667s2.5 3 2.5 4.667c0 1.65-1.25 2.333-2.5 2.333z"/><path fill="#FFF" d="M1071.375 760h10v10h-10v-10zm-17 62h45v39h-45v-39z"/><path id="s2-bubble-1" fill="#1692D0" d="M993.875 755c-2.48 0-4.5-2.02-4.5-4.5s2.02-4.5 4.5-4.5 4.5 2.02 4.5 4.5-2.02 4.5-4.5 4.5zm0-7c-1.38 0-2.5 1.122-2.5 2.5s1.12 2.5 2.5 2.5 2.5-1.122 2.5-2.5-1.12-2.5-2.5-2.5z"/><path id="s2-bubble-2" fill="#1692D0" d="M999.375 755c-1.654 0-3-1.346-3-3s1.346-3 3-3 3 1.346 3 3-1.346 3-3 3zm0-4c-.552 0-1 .45-1 1s.448 1 1 1a1.001 1.001 0 0 0 0-2z"/><path id="s2-bubble-3" fill="#1692D0" d="M992.875 755c-1.38 0-2.5-1.122-2.5-2.5s1.12-2.5 2.5-2.5 2.5 1.122 2.5 2.5-1.12 2.5-2.5 2.5zm0-3a.5.5 0 1 0 .002 1.002.5.5 0 0 0-.002-1.002z"/><path id="s2-drop-2" fill="#1692D0" d="M909.375 1028c-2 0-3-1.47-3-3 0-2 3-6 3-6s3 4 3 6c0 1.53-1 3-3 3z"/><path fill="#FFF" d="M983.375 744h24v22h-24v-22zm-83 193h19v92h-19v-92z"/><path id="s2-wave-2" fill="#1692D0" d="M854.375 1117c-13.05 0-24.887-4.87-25.385-5.077-.05-.014-11.938-3.923-24.615-3.923-14.73 0-24.527 3.888-24.625 3.927-.488.204-12.325 5.073-25.375 5.073s-24.887-4.87-25.385-5.077l.77-1.846c.118.05 11.979 4.923 24.615 4.923s24.497-4.874 24.615-4.923c.42-.17 10.236-4.077 25.385-4.077 13.012 0 25.194 4.01 25.316 4.052.187.074 12.046 4.948 24.684 4.948s24.497-4.874 24.615-4.923c.42-.17 10.236-4.077 25.385-4.077 13.012 0 25.194 4.01 25.316 4.052l-.634 1.897c-.118-.04-12.006-3.95-24.684-3.95-14.73 0-24.528 3.888-24.626 3.927-.486.204-12.323 5.073-25.372 5.074z"/><path fill="#39393A" d="M261 1924v-717c0-22.612 17.333-41.998 39.938-42h569.437c21.5-.002 37.997-17.492 38-39v-2h2v2c-.003 22.608-17.396 40.998-40 41l-569.437-.004c-21.5.002-37.938 18.495-37.938 40.004v717h-2zm937.375-2047v779c-.05 10.337-9.03 19-19.5 19h-209c-17.092 0-31.5 13.91-31.5 31v126c0 17.09 14.41 31 31.5 31h207c11.39 0 20.689 9.234 20.99 20.558-.301 11.324-9.604 20.442-20.99 20.442H939.577c-17.097 0-31.2 13.907-31.202 31v82s-.168-.008 0 0l.165.008c-1.101 0-2.282.854-2.632 1.9l-2.732 8.198c-.352 1.058.594 1.894 1.7 1.894h9c1.106 0 2.383-.844 2.033-1.894l-2.732-8.197c-.353-1.061-1.524-1.902-2.63-1.902l-.17-.008v-82c.003-15.994 13.208-29 29.202-29h237.296c12.203 0 22.217-9.558 22.953-21.584.027-.092.044-.19.044-.292v-1.13c0-.104-.017-.2-.044-.293-.736-12.025-10.75-21.7-22.953-21.7h-207c-15.99 0-29.5-13.012-29.5-29V706c0-15.987 13.512-29 29.5-29h209c11.748 0 21.443-9.383 21.5-21v-779h-2zM911.278 1019.542l2.484 7.466h-8.445l2.484-7.467c.076-.229.496-.532.734-.532h2.005c.249 0 .661.3.738.533z"/><path fill="#1692D0" d="M1098.854 856.396L1081.295 816v-17c.547-.003 1.5-.45 1.5-1a.998.998 0 0 0-1-1h-9.999c-.545.002-1 .447-1 1 0 .554 1.027.997 1.58 1v17l-17.635 40.395c-1.072 2.538.295 4.604 3.057 4.604h37.998c2.767 0 4.13-2.062 3.058-4.604v.001zM1074.295 816v-17h5.08v17l-.08.405.158.373.843 2.295c-.596.189-.462.596-.87.938-.742.626-1.51 1.273-3.006 1.273-2.225 0-2.83-.913-3.316-1.647-.136-.204.354-.39.193-.562l.846-2.702.155-.372-.003-.001zm22.802 42.546c-.188.284-.675.454-1.302.454h-37.998c-.624 0-1.109-.17-1.3-.456-.188-.285-.156-.797.086-1.37l15.184-35.96c.666.9 1.875 2.072 4.652 2.072 2.229 0 3.473-1.05 4.295-1.744.66-.557.811-.635 1.015-.56l15.28 36.189c.242.578.275 1.091.088 1.375z"/><path fill="#1692D0" d="M1168.378 737.08V734c0-3.86-3.14-6.99-7-7h-55c-1.86 0-3.66.69-4.979 2-1.316 1.33-2.026 3.14-2.021 5.01V743c.01 1.33-.479 2.57-1.42 3.51-.94.95-2.25 1.49-3.58 1.49h-9.003v-8c1.723-.443 3-2.138 3-4 0-2.206-1.798-4-4-4h-15.003a4.001 4.001 0 0 0-.994 7.874V748h-9a5.004 5.004 0 0 1-5.003-5v-21c0-1.88-.837-3.09-2.167-4.4-1.32-1.3-3.01-1.606-4.86-1.6h-21c-3.85.06-6.97 3.15-6.97 7v39c0 1.33-.52 2.59-1.46 3.53-.95.95-2.2 1.47-3.54 1.47h-13.003v-21h1.003c.56 0 1-.45 1-1 0-.56-.45-1-1-1h-14c-.56 0-1 .45-1 1 0 .56.45 1 1 1h1.05v32.67c-12.05 2.71-21.05 13.46-21.05 26.33 0 14.91 12.09 27 27 27s27-12.09 27-27c0-12.87-9.01-23.63-21.06-26.34V769h13.06c1.87 0 3.63-.73 4.95-2.05a6.99 6.99 0 0 0 2.047-4.95v-39c0-2.76 2.243-4.96 5.003-5h21c1.3-.03 2.49.1 3.43 1.03s1.57 1.63 1.57 2.97v21c0 3.86 3.14 7 7 7h9v11.003a5.004 5.004 0 0 0 4 4.896v2.104c0 1.1.896 1.99 1.99 1.99l5.017-.005c1.101 0 1.99-.895 1.99-1.99v-2.106a5 5 0 0 0 4-4.895v-11h9.003c1.87 0 3.681-.75 5-2.07 1.311-1.33 2.007-3.067 1.997-4.939V734c-.01-1.33.503-2.64 1.442-3.58.938-.939 2.22-1.42 3.55-1.42h55.01c2.75.01 5 2.24 5 5v3.08c-3.385.487-6 3.396-6 6.922V771c0 3.527 2.61 6.435 6 6.92V787c0 2.771-2.271 4.953-5.034 5h-6.965c-3.85.07-7.033 3.16-7 7.02v6.011l-7.01.017a5.009 5.009 0 0 0-4.99 5v6.957h-3.005c-.54 0-.995.448-.995 1 0 .557.445 1 .995 1h.005v32.005a3.993 3.993 0 0 0 4 3.994 3.998 3.998 0 0 0 3.997-3.995v-32.006h.01c.537 0 .993-.448.993-1 0-.556-.444-1-.994-1h-3.009v-6.957c0-1.649 1.354-3.043 3.003-3.046h16c.792 0 1.561.317 2.123.878.568.568.882 1.324.882 2.13l-.004 6.996h-3.006c-.54 0-.995.448-.995 1 0 .556.445 1 .995 1h.005v32.005a3.993 3.993 0 0 0 4 3.994 3.998 3.998 0 0 0 3.997-3.995v-32.006h.008c.54 0 .995-.448.995-1 0-.556-.444-1-.995-1h-3.008v-7a4.96 4.96 0 0 0-1.462-3.542 4.942 4.942 0 0 0-3.512-1.454h-.015l-7.013.021v-6.021c-.022-2.766 2.278-4.957 5.034-5.006h6.965c3.844-.067 7-3.14 7-6.995v-9.08c3.385-.483 6-3.396 6-6.922v-26.997a6.99 6.99 0 0 0-5.997-6.928l.003.002zM991.375 746h8l.003 32-2.74.03a25.225 25.225 0 0 0-2.51 0l-2.753-.03v-32zm-16.146 44.31l-.791 1.054c4.265-6.514 11.461-10.92 19.7-11.33h2.5c8.04.396 15.091 4.618 19.38 10.878l1.554 2.59a24.866 24.866 0 0 1 2.808 11.5c0 13.79-11.21 25-25 25s-25-11.21-25-25c0-4.78 1.35-9.25 3.69-13.06l1.159-1.632zM1083.375 750v11c0 1.652-1.343 3-3 3h-1v4l-4.997.01-.007-4.01h-1a3 3 0 0 1-2.996-2.997v-18.251c1.486.537 4.006 1.255 6.722 1.255 1.271 0 4.442-.374 6.278-1.007v7zm1-12h-1v3c-5.125 1.745-11.71.016-12.997-.393V739l-.006-1h-1c-1.101 0-1.994-.896-1.994-2s.896-2 1.994-2h15.003a2 2 0 0 1 0 4zm54.003 113.005a2.002 2.002 0 0 1-4.003 0v-23.718a6.769 6.769 0 0 0 4.001-.505l.002 24.223zm0-32.005v5.49c-1.623 1.1-3.182.96-4.003.76V819h4.003zm24 32.005a2.002 2.002 0 0 1-4.003 0v-23.718a6.769 6.769 0 0 0 4.001-.505l.002 24.223zm-1-32.005h1v5.49c-1.623 1.1-3.182.96-4.003.76V819h3.003zm11-48c0 2.757-2.243 5-5 5s-5.003-2.244-5.003-5v-27c0-2.758 2.246-5 5.003-5s5 2.243 5 5v27z"/><path fill="#FFF" d="M913.375 1051h-191v73h409v-73h-218zm-9 52.167V1060h15l9.5 7.375-.5 4.625v31.167h-24z"/><path fill="#39393A" d="M1070.265 1105h-301.18a9.55 9.55 0 0 0-5.47 1.717c-2.685 1.62-4.48 4.553-4.48 7.904 0 3.958 2.506 7.332 6.015 8.646.087.034.177.062.263.099.088.03.173.062.263.093.995.346 2.07.542 3.204.542h301c5.311 0 10-4.062 10-9.38-.003-5.314-4.321-9.62-9.615-9.621zm-304.128 16.504c-.069-.02-.144-.053-.215-.078-2.656-1.097-4.447-3.664-4.447-6.805 0-2.598 1.311-4.891 3.29-6.271a7.284 7.284 0 0 1 3.628-.979c4.006 0 7.263 3.252 7.263 7.247s-3.259 7.246-7.263 7.246a7.279 7.279 0 0 1-2.256-.358v-.002zm11.514-6.883c0-3.16-1.601-5.952-4.027-7.62h49.818a9.225 9.225 0 0 0-4.027 7.62c0 3.017 1.46 5.689 3.704 7.38h-49.17c2.242-1.689 3.702-4.363 3.702-7.38zm58.283 0c0 3.996-3.257 7.247-7.26 7.247-4.004 0-7.26-3.25-7.26-7.246s3.256-7.245 7.26-7.245c4.003 0 7.26 3.25 7.26 7.246v-.002zm2 0c0-3.16-1.6-5.952-4.025-7.62h49.255a9.225 9.225 0 0 0-4.027 7.62c0 3.017 1.46 5.689 3.702 7.38h-48.603c2.239-1.689 3.699-4.363 3.698-7.38zm57.716 0c0 3.996-3.259 7.247-7.261 7.247-4.005 0-7.26-3.25-7.26-7.246s3.255-7.245 7.26-7.245 7.261 3.25 7.261 7.246v-.002zm2 0c0-3.16-1.601-5.952-4.027-7.62h50.254c-2.43 1.668-4.027 4.46-4.027 7.62 0 3.017 1.461 5.689 3.703 7.38h-49.604c2.24-1.689 3.7-4.363 3.701-7.38zm58.718 0c0 3.996-3.256 7.247-7.26 7.247-4.005 0-7.261-3.25-7.261-7.246s3.258-7.245 7.261-7.245c4.002 0 7.26 3.25 7.26 7.246v-.002zm2 0c0-3.16-1.599-5.952-4.027-7.62h50.104a9.225 9.225 0 0 0-4.026 7.62c0 3.017 1.46 5.689 3.703 7.38h-49.453c2.24-1.689 3.7-4.363 3.699-7.38zm58.566 0c0 3.996-3.258 7.247-7.261 7.247-4.004 0-7.26-3.25-7.26-7.246s3.256-7.245 7.26-7.245c4.003 0 7.261 3.25 7.261 7.246v-.002zm2 0c0-3.16-1.601-5.952-4.026-7.62h50.102a9.23 9.23 0 0 0-4.024 7.62c0 3.017 1.46 5.689 3.703 7.38h-49.452c2.239-1.688 3.7-4.363 3.7-7.38h-.003zm58.562 0c0 3.996-3.256 7.247-7.26 7.247s-7.258-3.25-7.258-7.246 3.256-7.245 7.26-7.245 7.258 3.25 7.258 7.246v-.002z"/><path id="s2-bottle-4" fill="#39393A" fill-opacity="0" d="M1168.352 1066.288l-10.452-9.012c-.728-.625-2.484-1.146-3.523-1.276v-3.03c0-1.12-.895-1.97-2-1.97h-6c-1.11 0-2 .862-2 1.97v2.994a2 2 0 0 0-2 1.997v45.007c0 1.104 1.4 1.997 2.51 1.997h22.985c1.11 0 2.506-.896 2.506-2.01v-33.345c-.002-1.122-1.182-2.596-2.022-3.32l-.004-.002zm-21.977-13.324h6.5l-.5.006v3.03h-6v-3.036zm22 50.036h-24v-45.036h10.008c.62 0 1.733.417 2.21.827l10.454 9.013c.402.351 1.328 1.667 1.328 2.197V1103z"/><path id="s2-bottle-3" fill="#39393A" d="M1048.352 1066.288l-10.453-9.012c-.727-.625-2.483-1.146-3.522-1.276v-3.03c0-1.12-.896-1.97-2-1.97h-6c-1.11 0-2 .862-2 1.97v2.994a2 2 0 0 0-2 1.997v45.007c0 1.104 1.4 1.997 2.51 1.997h22.985c1.109 0 2.506-.896 2.506-2.01v-33.345c-.002-1.122-1.182-2.596-2.023-3.32l-.003-.002zm-21.977-13.324h6.5l-.5.006v3.03h-6v-3.036zm22 50.036h-24v-45.036h10.008c.62 0 1.733.417 2.21.827l10.454 9.013c.402.351 1.328 1.667 1.328 2.197V1103z"/><path id="s2-bottle-2" fill="#39393A" d="M928.352 1066.288l-10.453-9.012c-.727-.625-2.483-1.146-3.522-1.276v-3.03c0-1.12-.896-1.97-2-1.97h-6c-1.11 0-2 .862-2 1.97v2.994a2 2 0 0 0-2 1.997v45.007c0 1.104 1.4 1.997 2.51 1.997h22.985c1.109 0 2.506-.896 2.506-2.01v-33.345c-.002-1.122-1.182-2.596-2.023-3.32l-.003-.002zm-21.977-13.324h6.5l-.5.006v3.03h-6v-3.036zm22 50.036h-24v-45.036h10.008c.62 0 1.733.417 2.21.827l10.454 9.013c.402.351 1.328 1.667 1.328 2.197V1103z"/><path id="s2-bottle-1" fill="#1692D0" d="M808.352 1066.288l-10.452-9.012c-.728-.625-2.484-1.146-3.523-1.276v-3.03c0-1.12-.896-1.97-2-1.97h-6c-1.11 0-2 .862-2 1.97v2.994a2 2 0 0 0-2 1.997v45.007c0 1.104 1.4 1.997 2.51 1.997h22.985c1.109 0 2.506-.896 2.506-2.01v-33.345c-.002-1.122-1.182-2.596-2.023-3.32l-.003-.002zm-21.977-13.324h6.5l-.5.006v3.03h-6v-3.036zm22 50.036h-24v-45.036h10.008c.62 0 1.733.417 2.21.827l10.454 9.013c.402.351 1.328 1.667 1.328 2.197V1103z"/><path fill="#39393A" d="M1019.875 863h2l-5.822-33h4.822v-2h-47v2h3.823l-5.823 33h2l5.823-33h34.354m157.323 1h-48v32h2v-30h22v30h2v-30h22v30h2v-32"/><path fill="#1692D0" d="M1168.375 770a1 1 0 1 1-2 0v-25a1 1 0 1 1 2 0v25z"/></svg>