<svg xmlns="http://www.w3.org/2000/svg" x="0px" y="0px" viewBox="0 0 1200 290"><path id="s1-drop" fill="#1692D0" d="M244 201c-1.108 0-2-.988-2-2.212 0-1.214 2-4.188 2-4.188s2 2.977 2 4.188c0 1.224-.894 2.212-2 2.212z"/><path fill="#FFF" d="M241 191h6v10.999h-6V191z"/>
	<g id="s1-bottle-3" fill="#1692D0"><path id="s1-bottle-3-wave" d="M212.603 256c-1.174 0-2.515.012-2.603 0v-2c.053.007 6.043.56 9.2-1.68l1.156 1.63c-2.43 1.727-5.67 2.05-7.753 2.05z"/><path id="s1-bottle-3-fig" d="M217 231v-3c0-.557-.444-1-1-1h-1.976c-.55 0-1.012.447-1.012 1v3H213l-4 3.59V253a1 1 0 0 0 1.005 1.003L220 254c.547 0 1-.446 1-1v-18l-4-4zm2 21l-8 .003v-16.52l2.766-2.483h2.43l2.804 2v17z"/></g>
	<g id="s1-bottle-2" fill="#1692D0"><path id="s1-bottle-2-wave" d="M241.603 256c-1.174 0-2.515.012-2.603 0v-2c.053.007 6.043.56 9.2-1.68l1.156 1.63c-2.43 1.727-5.67 2.05-7.753 2.05z"/><path id="s1-bottle-2-fig" d="M246 231v-3c0-.557-.444-1-1-1h-1.976c-.55 0-1.012.447-1.012 1v3H242l-4 3.59V253a1 1 0 0 0 1.005 1.003L249 254c.547 0 1-.446 1-1v-18l-4-4zm2 21l-8 .003v-16.52l2.766-2.483h2.43l2.804 2v17z"/></g>
	<g id="s1-bottle-1" fill="#1692D0"><path id="s1-bottle-1-wave" d="M270.603 237c-1.174 0-2.515.012-2.603 0v-2c.053.007 6.043.56 9.2-1.68l1.156 1.63c-2.43 1.727-5.67 2.05-7.753 2.05z"/><path id="s1-bottle-1-fig" d="M275 231v-3c0-.557-.444-1-1-1h-1.976c-.55 0-1.012.447-1.012 1v3H271l-4 3.59V253a1 1 0 0 0 1.005 1.003L278 254c.547 0 1-.446 1-1v-18l-4-4zm2 21l-8 .003v-16.52l2.766-2.483h2.43l2.804 2v17z"/></g><path fill="#FFF" d="M309 257h25v29h-25v-29zm-119-38h32v39.5h-32V219z"/><path fill="#39393A" d="M181 284h41v-16h64.01c3.853 0 6.99-3.134 6.99-7 0-3.858-3.13-7-6.99-7H222v-88h9v26.002c0 .542.385 1.22.86 1.496l6.918 4.005c.466.27 1.31.498 1.86.498H241v3.009c0 .54.443.99.99.99h4.02c.54 0 .99-.442.99-.99V198h.52c.55 0 1.387-.227 1.86-.507l6.76-3.986c.474-.28.86-.954.86-1.505V166h81v55h-35v63h37V166h6.996c1.104 0 1.62-.808 1.15-1.805l-7.292-15.39c-.468-.988-1.753-1.805-2.861-1.805H222.007c-1.11 0-2.39.808-2.862 1.805l-7.29 15.39c-.468.99.042 1.805 1.15 1.805H220v36.001h-13.13l-5.872-88.065a1 1 0 0 0-.998-.935h-12a1 1 0 0 0-.998.934l-5.91 88.645a.982.982 0 0 0-.092.42m39 51v28h-37v-78.64a.953.953 0 0 0 .064-.294L188.936 115h10.13l5.87 88.066a1 1 0 0 0 .998.934H220v50zm118 28h-33v-59h33v59zm-52-26c2.757 0 5 2.243 5 5s-2.243 5-5 5-5-2.243-5-5 2.243-5 5-5zm-4.89 0c-1.3 1.27-2.11 3.042-2.11 5s.81 3.73 2.11 5h-34.22c1.3-1.27 2.11-3.042 2.11-5s-.81-3.73-2.11-5h34.22zM242 256c2.757 0 5 2.243 5 5s-2.243 5-5 5-5-2.243-5-5 2.243-5 5-5zm-4.89 0c-1.3 1.27-2.11 3.042-2.11 5s.81 3.73 2.11 5H222v-10h15.11zm7.89-56h-2v-2h2v2zm10-8.143l-6.635 3.913c-.168.1-.65.23-.846.23h-6.88c-.197 0-.687-.13-.86-.23l-6.78-3.924V166H255v25.857zM340 164H214.16l6.793-14.34c.14-.296.722-.66 1.055-.66h115.985c.333 0 .915.364 1.055.66L345.84 164H340zm12 116h5v4h2v-4h12v4h2v-4h5v-46h-26v46zm2-44h22v42h-22v-42z"/><path fill="#39393A" d="M358 240h14v2h-14v-2zm0 4h14v2h-14v-2zm-53-16h33v2h-33v-2z"/>
	<g id="s1-clouds" fill="#1692D0"><path id="s1-cloud-1" d="M194.405 110.457a9.934 9.934 0 0 1-2.428-7.258c.187-2.664 1.4-5.098 3.415-6.85s4.594-2.617 7.258-2.43a9.942 9.942 0 0 1 6.85 3.415l-1.51 1.312a7.947 7.947 0 0 0-5.48-2.732 7.967 7.967 0 0 0-5.805 1.943 7.947 7.947 0 0 0-2.732 5.48 7.938 7.938 0 0 0 1.943 5.805l-1.51 1.314-.001.001z" style="opacity:0"/><path id="s1-cloud-2" d="M210.603 114c-5.514 0-10-4.486-10-10h2c0 4.41 3.59 8 8 8s8-3.59 8-8h2c0 5.514-4.486 10-10 10z" style="opacity:0"/><path id="s1-cloud-3" d="M232.463 104.187l-1.98-.278c.618-4.4-2.458-8.484-6.858-9.103-4.406-.617-8.483 2.458-9.102 6.858l-1.98-.278c.772-5.492 5.864-9.334 11.36-8.56 5.492.772 9.332 5.868 8.56 11.361z" style="opacity:0"/><path id="s1-cloud-4" d="M233.054 114.083a9.969 9.969 0 0 1-4.22-.942 9.93 9.93 0 0 1-5.17-5.642l1.88-.684a7.95 7.95 0 0 0 4.135 4.514 7.95 7.95 0 0 0 6.116.267 7.952 7.952 0 0 0 4.515-4.137c.904-1.937 1-4.11.268-6.117l1.88-.684a9.94 9.94 0 0 1-.334 7.646 9.938 9.938 0 0 1-5.643 5.17 9.887 9.887 0 0 1-3.427.609z" style="opacity:0"/><path id="s1-cloud-5" d="M213.18 93.162a9.944 9.944 0 0 1 1.658-7.472 9.936 9.936 0 0 1 6.456-4.112c5.43-.958 10.627 2.68 11.584 8.11l-1.97.35c-.766-4.345-4.925-7.257-9.268-6.49-4.344.766-7.255 4.923-6.49 9.268l-1.97.346z" style="opacity:0"/><path id="s1-cloud-6" d="M247.103 103.955l-1-1.732c3.82-2.206 5.134-7.108 2.93-10.928-2.207-3.82-7.108-5.133-10.93-2.928l-1-1.732c4.776-2.755 10.904-1.114 13.66 3.66 2.757 4.774 1.115 10.902-3.66 13.66z" style="opacity:0"/></g><path fill="#1692D0" d="M309 257v25h25v-25h-25zm11.076 12.49L311 278.564v-18.15l9.076 9.074v.002zM312.414 259h18.15l-9.075 9.075-9.075-9.075zm9.076 11.903l9.097 9.097h-18.193l9.096-9.097zm1.414-1.414l9.096-9.097v18.192l-9.096-9.096v.001z"/><path fill="none" d="M182.067 203H182v80h39v-80h-15.067L200 114h-12"/>
	<g><path fill="#39393A" d="M632.99 137H617v-5.5c0-4.14-3.36-7.5-7.51-7.5h-76.98c-4.148 0-7.51 3.37-7.51 7.5v5.5h-14.99c-.56 0-1.01.44-1.01 1 0 .55.45 1 1.01 1h.17c-.108.32-.18.64-.18 1v143h2v-64h38v63.98h2V210h-40v-70c0-.56.45-1 1.01-1H629c.56 0 1.01.45 1.01 1l-.01 57h2v-57c0-.35-.06-.69-.18-1h1.17c.56 0 1.01-.44 1.01-1 0-.55-.45-1-1.01-1zM550 212v5h-38v-5h38zm65-75h-88v-5.5c0-3.03 2.47-5.5 5.51-5.5h76.98c3.04 0 5.51 2.47 5.51 5.5v5.5z"/>
		<g id="s1-loader"><circle cx="455" cy="271.5" r="8.5" fill="#FFF"/><path fill="#FFF" d="M441.06 274.61c0 2.42-1.829 4.39-4.068 4.39-2.24 0-4.062-1.97-4.062-4.39s1.82-4.39 4.062-4.39 4.068 1.97 4.068 4.39z"/><path fill="#FFF" d="M445.87 271.22c0 1.34.25 2.62.72 3.78h-3.55c.01-.13.02-.25.02-.39 0-3.53-2.72-6.39-6.068-6.39-3.352 0-6.062 2.86-6.062 6.39 0 .13.012.26.012.39h-.44v-14.92l3.86-4.08 14.229.04 4.9 5.56c.09-.02.18-.02.26-.04-4.461.71-7.881 4.76-7.881 9.66z"/><path fill="#39393A" d="M468.5 257v-5c0-9.66-7.86-17-17.51-17h-13.5a3.99 3.99 0 0 0-3.99 4v15l-5 5.28v15.85c0 1.1.89 1.87 2 1.87h.87c.898 2.34 3.07 4 5.62 4 2.59 0 4.79-1.71 5.66-4.1l-.03.1h5.05c-.02-.02-.03-.05-.04-.07 1.68 2.46 4.42 4.07 7.521 4.07 3.59 0 6.698-2.16 8.25-5.31-.052.1-.092.21-.142.31h5.24v-10m-31.509 13c-2.24 0-4.062-1.97-4.062-4.39s1.82-4.39 4.062-4.39c2.24 0 4.068 1.97 4.068 4.39S439.23 279 436.99 279zm9.6-4h-3.55c.01-.13.02-.25.02-.39 0-3.53-2.72-6.39-6.068-6.39-3.352 0-6.062 2.86-6.062 6.39 0 .13.012.26.012.39h-.44v-14.92l3.86-4.08 14.229.04 4.9 5.56c.09-.02.18-.02.26-.04-4.46.71-7.88 4.76-7.88 9.66-.001 1.34.249 2.62.719 3.78zm8.56 4c-4.021 0-7.28-3.49-7.28-7.78s3.26-7.78 7.28-7.78c4.02 0 7.289 3.49 7.289 7.78S459.17 279 455.15 279zm11.35-18.03l-8.75-8.88.22-.22c.5-.5.5-1.3 0-1.81-.5-.5-1.31-.49-1.81 0l-2.12 2.13c-.5.5-.51 1.31 0 1.81.5.5 1.31.5 1.8 0l.101-.1L466.5 265v9h-2.44c-.01.04-.028.08-.04.11.271-.91.422-1.88.422-2.89 0-5.09-3.69-9.26-8.392-9.73l-6.55-7.45-5.53-.01-1.92-9.11c-.108-.54-.648-.98-1.21-.98h-.42c-.55 0-.91.44-.8.98l1.92 9.1-6.04-.02v-15c0-1.1.89-2 1.99-2h13.5c8.7 0 15.51 6.59 15.51 15v8.97zm2-3.97v-5c0-9.66-7.86-17-17.51-17h-13.5a3.99 3.99 0 0 0-3.99 4v15l-5 5.28v15.85c0 1.1.89 1.87 2 1.87h.87c.898 2.34 3.07 4 5.62 4 2.59 0 4.79-1.71 5.66-4.1l-.03.1h5.05c-.02-.02-.03-.05-.04-.07 1.68 2.46 4.42 4.07 7.521 4.07 3.59 0 6.698-2.16 8.25-5.31-.052.1-.092.21-.142.31h5.24v-19zm-31.51 22c-2.24 0-4.062-1.97-4.062-4.39s1.82-4.39 4.062-4.39c2.24 0 4.068 1.97 4.068 4.39S439.23 279 436.99 279zm9.6-4h-3.55c.01-.13.02-.25.02-.39 0-3.53-2.72-6.39-6.068-6.39-3.352 0-6.062 2.86-6.062 6.39 0 .13.012.26.012.39h-.44v-14.92l3.86-4.08 14.229.04 4.9 5.56c.09-.02.18-.02.26-.04-4.46.71-7.88 4.76-7.88 9.66-.001 1.34.249 2.62.719 3.78zm8.56 4c-4.021 0-7.28-3.49-7.28-7.78s3.26-7.78 7.28-7.78c4.02 0 7.289 3.49 7.289 7.78S459.17 279 455.15 279zm11.35-18.03l-8.75-8.88.22-.22c.5-.5.5-1.3 0-1.81-.5-.5-1.31-.49-1.81 0l-2.12 2.13c-.5.5-.51 1.31 0 1.81.5.5 1.31.5 1.8 0l.101-.1L466.5 265v9h-2.44c-.01.04-.028.08-.04.11.271-.91.422-1.88.422-2.89 0-5.09-3.69-9.26-8.392-9.73l-6.55-7.45-5.53-.01-1.92-9.11c-.108-.54-.648-.98-1.21-.98h-.42c-.55 0-.91.44-.8.98l1.92 9.1-6.04-.02v-15c0-1.1.89-2 1.99-2h13.5c8.7 0 15.51 6.59 15.51 15v8.97z"/>
			<g id="s1-loader-claw" fill="#39393A"><path d="M472.5 270v-1h-4v2h4m-4-8h4.01v2h-4.01v-2z"/><path d="M508.5 277h-31v-34.53c0-1.37-1.1-2.48-2.48-2.48s-2.488 1.1-2.488 2.48L472.51 263h.003l-.002 2v2.023L472.5 279h36c.55 0 1 0 1-1s-.45-1-1-1zm-33 0h-1v-34c0-.27 0-1 .52-1.01.48.01.48.74.48 1.01v34z"/></g>
		</g>
		<g id="s1-apparatus"><path fill="#FFF" d="M481.5 218v6h23v-6h-23zm15 4h-13v-2h13v2zm4 1c-1.1 0-2-.9-2-2s.9-2 2-2 2 .9 2 2-.9 2-2 2zm-19 3v47h23v-47h-23zm6 22c-2.21 0-4-1.79-4-4s1.79-4 4-4 4 1.79 4 4-1.79 4-4 4zm15 11h-7v-7h7v7zm-4-11c-2.21 0-4-1.79-4-4s1.79-4 4-4 4 1.79 4 4-1.79 4-4 4zm4-12h-19v-2h19v2zm0-5h-19v-2h19v2z"/><path fill="#1692D0" d="M506.5 274v-56c0-1.104-.898-2-2.007-2h-22.986a2 2 0 0 0-2.007 2v6h-.995a2.006 2.006 0 0 0-2.005 2.006v9.988c0 1.108.895 2.006 2.005 2.006h.995v36h-1v2h29v-2h-1zm-25-56h23v6h-23v-6zm0 20v-12h23v47h-23v-35zm-3-2v-10h1v10h-1z"/><path fill="#1692D0" d="M498.5 240c-2.206 0-4 1.794-4 4s1.794 4 4 4 4-1.794 4-4-1.794-4-4-4zm0 6a2 2 0 0 1-2-2c0-.178.03-.347.074-.512l2.438 2.438a2.017 2.017 0 0 1-.512.074zm1.926-1.488l-2.438-2.438c.165-.043.334-.074.512-.074a2 2 0 0 1 2 2c0 .178-.03.347-.074.512zM487.5 240c-2.206 0-4 1.794-4 4s1.794 4 4 4 4-1.794 4-4-1.794-4-4-4zm-2 4a2 2 0 0 1 2-2c.178 0 .347.03.512.074l-2.438 2.438a2.017 2.017 0 0 1-.074-.512zm2 2c-.178 0-.347-.03-.512-.074l2.438-2.438c.043.165.074.334.074.512a2 2 0 0 1-2 2zm8 13h7v-7h-7v7zm2-5h3v3h-3v-3zm-14-25h19v2h-19v-2zm0 5h19v2h-19v-2z"/><circle cx="500.5" cy="221" r="2" fill="#1692D0"/><path fill="#1692D0" d="M483.5 220h13v2h-13v-2z"/></g><path fill="#FFF" d="M619.97 202.96H673V271h-53.03v-68.04zM427 190h83v92h-83v-92z"/><path fill="#39393A" d="M725.65 232.02c-.302-.6-.932-1-1.602-1h-22.28c-.97 0-1.75.8-1.75 1.78v39.49c0 .98 1 1.71 1.98 1.71 0 0 13.014.103 13.001 0 .588 4.683 4.656 8 9.498 8s8.828-3.625 9.416-8.308c-.013.103-.021.206-.037.308H735c.98 0 1.96-.73 1.96-1.71v-18.2c0-.25-.07-.53-.17-.78l-11.14-21.29zM724.5 280c-4.136 0-7.5-3.364-7.5-7.5s3.364-7.5 7.5-7.5 7.5 3.364 7.5 7.5-3.364 7.5-7.5 7.5zm10.51-7.91h-1.02c.01.14.01.27.01.41 0-5.247-4.253-9.5-9.5-9.5a9.5 9.5 0 0 0-9.49 9.04L702 272v-39h22l11.01 21.09v18z"/><path fill="#39393A" d="M720.99 236.082L707 236c-.977 0-2 1.022-2 2l.092 14.217a1.77 1.77 0 0 0 1.778 1.78l21.308-.013c.623 0 1.178-.3 1.502-.827.325-.527.376-.974.102-1.525l-7.187-14.55c-.3-.6-.926-1-1.605-1zM707 252v-14h14l7.01 14.022L707 252zm-12-50h-75c-.98 0-2 1.02-2 2l.03 52H618v2h.04v14.24c0 .98.989 1.76 1.96 1.76h9c-.019-.102.013.103 0 0 .588 4.683 4.658 8 9.5 8s8.913-3.317 9.5-8c-.013.103 2 0 2 0-.019-.102.013.103 0 0 .588 4.683 4.658 8 9.5 8s8.83-3.317 9.417-8c-.013.103.1-.102.083 0h26c1 0 2-.78 2-1.76V204c0-.98-1-2-2-2zm-56.5 78c-4.136 0-7.5-3.364-7.5-7.5s3.364-7.5 7.5-7.5 7.5 3.364 7.5 7.5-3.364 7.5-7.5 7.5zm21 0c-4.136 0-7.5-3.364-7.5-7.5s3.364-7.5 7.5-7.5 7.5 3.364 7.5 7.5-3.364 7.5-7.5 7.5zm35.54-7.97h-26.05c.01.16.01.31.01.47 0-5.247-4.253-9.5-9.5-9.5s-9.5 4.253-9.5 9.5c0-.16 0-.31.01-.47h-2.02c.01.16.01.31.01.47 0-5.247-4.253-9.5-9.5-9.5s-9.5 4.253-9.5 9.5c0-.16 0-.31.01-.47h-9.04V258h75.07v14.03zm0-16.03h-75.07v-52.04h75.07V256zM497 216.09V212h-.062v-.046a31.6 31.6 0 0 0-1.711.046H495v.018c-11.07.684-15.385 7.303-17.025 15.995-1.685-8.524-6.026-15.262-16.975-15.987V212h-.307c-.55-.03-1.112-.046-1.693-.046v4.136c-2.833.48-5 2.942-5 5.91 0 3.31 2.69 6 6 6s6-2.69 6-6c0-2.967-2.167-5.43-5-5.91v-2.063c13.032.88 15.887 10.593 16.004 26.87V241H477v41h2v-40.018h.01c0-.355-.002-.71-.004-1.067.117-16.31 2.968-26.035 15.994-26.89v2.066c-2.833.48-5 2.943-5 5.91 0 3.31 2.69 6 6 6s6-2.69 6-6c0-2.967-2.167-5.43-5-5.911zM464 222c0 2.206-1.794 4-4 4s-4-1.794-4-4 1.794-4 4-4 4 1.794 4 4zm32 4c-2.206 0-4-1.794-4-4s1.794-4 4-4 4 1.794 4 4-1.794 4-4 4z"/></g>
	<g>
		<g id="s1-conveyor-part-1"><path id="s1-test-tube-1" fill="#1692D0" d="M858.512 140.875h-5.994a1.02 1.02 0 0 0-1.018 1.024c0 .568.46.975 1.02.976v14a2.974 2.974 0 0 0 2.98 2.972c1.643 0 3-1.33 3-2.972v-14h.02c.562 0 1.012-.41 1.012-.976a1.023 1.023 0 0 0-1.02-1.024zm-1.992 16c0 .527-.445 1-1 1-.539 0-1.02-.464-1.02-1v-14.028h2.02v14.028z"/><path id="s1-conveyor-detail-1" fill="#39393A" d="M856.52 140.875h-2V134.5l2 1"/></g>
		<g id="s1-conveyor-part-2"><path id="s1-test-tube-2" fill="#1692D0" d="M867.482 144.875h-5.994c-.562 0-1.019.458-1.019 1.024 0 .568.472.975 1.03.976v14a2.966 2.966 0 0 0 2.97 2.972c1.645 0 3.021-1.33 3.021-2.972l-.006-14h.007c.562 0 1.01-.41 1.01-.976 0-.57-.455-1.024-1.017-1.024h-.002zm-1.982 16c0 .527-.456 1-1.01 1-.54 0-1-.464-1-1v-14.028h2.01v14.028z"/><path id="s1-conveyor-detail-2" fill="#39393A" d="M865.5 144.875h-2V138.5l2 1"/></g>
		<g id="s1-conveyor-part-3"><path id="s1-test-tube-3" fill="#1692D0" d="M876.5 148.847h-6c-.562 0-1 .435-1 1 0 .568.452 1 1.012 1l-.012 14.375a2.966 2.966 0 0 0 2.97 2.972c1.646 0 3.022-1.33 3.022-2.972l.008-14.375c.562 0 1-.435 1-1 0-.57-.438-1-1-1zm-2 16.375c0 .527-.456 1-1.01 1-.54 0-1-.464-1-1v-14.375h2.01v14.375z"/><path id="s1-conveyor-detail-3" fill="#39393A" d="M874.5 148.847h-2v-6l2 1"/></g><path fill="#FFF" d="M942 173l-25-11v-12h25m-108-28h46v63h-46v-63zm34 125h121v34H868v-34z"/>
		<g id="s1-boxes"><path fill="#39393A" d="M836 248v34h34v-34h-34zm32 32h-30v-30h30v30z"/><path fill="#39393A" d="M862 259l-18 3v9l18-3v-9zm-1.98 7.39l-14.045 2.267v-4.943l14.047-2.373v5.05l-.002-.001zM874 248v34h34v-34h-34zm32 32h-30v-30h30v30z"/><path fill="#39393A" d="M900 259l-18 3v9l18-3v-9zm-1.98 7.39l-14.045 2.267v-4.943l14.047-2.373v5.05l-.002-.001z"/>
			<g fill="#39393A"><path d="M912 248v34h34v-34h-34zm32 32h-30v-30h30v30z"/><path d="M938 259l-18 3v9l18-3v-9zm-1.98 7.39l-14.045 2.267v-4.943l14.047-2.373v5.05l-.002-.001z"/></g>
			<g><path fill="#1692D0" d="M962.01 241h-5.99c-.56 0-1.02.46-1.02 1.02 0 .57.46.98 1.02.98v5H958v-5h2.02v5H962v-5h.02c.562 0 1.012-.41 1.012-.98s-.462-1.02-1.022-1.02zm8.97 0h-5.99c-.562 0-1.021.46-1.021 1.02 0 .57.471.98 1.03.98v5h1.99v-5H969v5h1.98v-5h.01c.56 0 1.01-.41 1.01-.98s-.46-1.02-1.02-1.02zm9.03 0h-5.99c-.56 0-1.02.46-1.02 1.02 0 .57.46.98 1.02.98v5H976v-5h2.02v5H980v-5h.02c.562 0 1.012-.41 1.012-.98s-.462-1.02-1.022-1.02z"/><path fill="#39393A" d="M951 248v34h34v-34h-34zm32 32h-30v-30h30v30z"/><path fill="#39393A" d="M977 259l-18 3v9l18-3v-9zm-1.98 7.39l-14.045 2.267v-4.943l14.047-2.373v5.05l-.002-.001z"/></g>
		</g><path fill="#FFF" d="M820 224h50v58h-50v-58zm169-1h50v58h-50v-58z"/><path fill="#39393A" d="M835 210c-13.785 0-25 11.664-25 26 0 13.988 10.678 25.425 24 25.974V283h2v-21.026c13.322-.548 24-11.986 24-25.974 0-14.336-11.215-26-25-26zm1 49.974V249.6l8.077-3.23c.51-.205.923-.814.923-1.37 0-.552-.417-.833-.923-.63L836 247.6v-6l8.077-3.23c.51-.205.923-.814.923-1.37 0-.552-.417-.833-.923-.63L836 239.6V234c0-.552-.444-1-.998-1a.998.998 0 0 0-1.002 1v5.6l-8.077-3.23c-.506-.203-.923.078-.923.63 0 .556.413 1.166.923 1.37L834 241.6v6l-8.077-3.23c-.506-.203-.923.078-.923.63 0 .556.413 1.166.923 1.37L834 249.6v10.374c-12.22-.55-22-11.09-22-23.974 0-13.233 10.317-24 23-24s23 10.767 23 24c0 12.883-9.78 23.425-22 23.974zM868 284h45.08c-.061-.32-.08-1.66-.08-2s.02.32.08 0H870v-97h4c3.311 0 6-2.68 6-6v-32.02l65 29.04a2.998 2.998 0 0 0 3 2.98c1.66 0 3-1.34 3-3 0-1.3-.84-2.4-2-2.82V137h40v145h-62.08c.061.32.08-.34.08 0s-.02 1.68-.08 2H1025v-67l-34-24.56V137h1.01c.551 0 .99-.45.99-1 0-.56-.45-1-1-1h-35c-.36 0-1-.21-1.37-.44l-14.1-7.41c-.03-.02-3.511-2.15-4.53-2.15h-40.01c-1.11 0-1.99.9-1.99 2v8h-29.01c-.551 0-.99.45-.99 1 0 .56.439 1 .99 1H868v147zm10-105.01c0 2.21-1.79 4.01-4 4.01h-4v-46h8v41.99zm69-5.81c-.59.21-1.1.6-1.45 1.11L880 144.98V137h67v36.18zM896.98 135c0-.01.01-.02.01-.04V127h39.938c.562.16 2.82 1.4 3.61 1.89l11.63 6.11H896.98zM1023 282h-32v-87.09l32 23.11V282z"/></g>
		<!-- <line x1="16%" y1="2" x2="84%" y2="2" stroke-width="2" stroke="#39393A"></line>
	<g><path fill="#39393A" d="M273.08 282c-.06.32-.08.66-.08 1s.02.68.08 1H182c-.56 0-1-.45-1-1s.44-1 1-1h91.08zm320 0c-.061.32-.08.66-.08 1s.02.68.08 1H287c.06-.32.08-.66.08-1s-.02-.68-.08-1h306.08zm320 0c-.061.32-.08.66-.08 1s.02.68.08 1H606.92c.061-.32.08-.66.08-1s-.02-.68-.08-1h306.16zM1198"/></g>
	<g fill="#1692D0"><path d="M280 276a7 7 0 1 0 0 14 7 7 0 0 0 0-14zm0 12c-2.757 0-5-2.243-5-5s2.243-5 5-5 5 2.243 5 5-2.243 5-5 5z"/><circle cx="280" cy="283" r="2"/></g>
	<g fill="#1692D0"><path d="M600 276a7 7 0 1 0 0 14 7 7 0 0 0 0-14zm0 12c-2.757 0-5-2.243-5-5s2.243-5 5-5 5 2.243 5 5-2.243 5-5 5z"/><circle cx="600" cy="283" r="2"/></g>
	<g><path fill="#1692D0" d="M920 276c-3.87 0-7 3.13-7 7s3.13 7 7 7 7-3.13 7-7-3.13-7-7-7zm0 12c-2.76 0-5-2.24-5-5s2.24-5 5-5 5 2.24 5 5-2.24 5-5 5z"/><path fill="#FFF" d="M920 278c-2.76 0-5 2.24-5 5s2.24 5 5 5 5-2.24 5-5-2.24-5-5-5zm0 7c-1.1 0-2-.9-2-2s.9-2 2-2 2 .9 2 2-.9 2-2 2z"/><path fill="#1692D0" d="M922 283c0 1.1-.9 2-2 2s-2-.9-2-2 .9-2 2-2 2 .899 2 2z"/></g>
	<g fill="#1692D0" class="link link_svg" data-target="1" font-family="Open Sans" font-size="12" font-weight="700">
		<text transform="matrix(1 0 0 1 188 320.9995)">ПРОИЗВОДСТВО И ПОСТАВКА</text>
		<text transform="matrix(1 0 0 1 209.4658 337.9995)">ДЕЗИНФИЦИРУЮЩИХ</text>
		<text transform="matrix(1 0 0 1 212.8818 354.9995)">И МОЮЩИХ СРЕДСТВ</text>
	</g>
	<g fill="#1692D0" class="link link_svg" data-target="2" font-family="Open Sans" font-size="12" font-weight="700">
		<text transform="matrix(1 0 0 1 512 320.9995)">ПОСТАВКА МЕДИЦИНСКОГО</text>
		<text transform="matrix(1 0 0 1 547.856 337.9995)">ОБОРУДОВАНИЯ</text>
	</g>
	<g fill="#1692D0" class="link link_svg" data-target="3" font-family="Open Sans" font-size="12" font-weight="700">
		<text transform="matrix(1 0 0 1 831 320.9995)">ПОСТАВКА ЛАБОРАТОРНОГО</text>
		<text transform="matrix(1 0 0 1 867.9766 337.9995)">ОБОРУДОВАНИЯ</text>
		<text transform="matrix(1 0 0 1 831.4219 354.9995)">И ХИМИЧЕСКИХ РЕАКТИВОВ</text>
	</g>  -->
</svg>