<svg width="1009" height="463" viewBox="0 0 1009 463" fill="none" xmlns="http://www.w3.org/2000/svg">
<path d="M727.5 41H762.564C766.123 41 769.618 41.95 772.688 43.7518L788.78 53.1971C796.454 57.7018 805.192 60.0767 814.09 60.0767H869.118C882.377 60.0767 895.094 54.81 904.47 45.435L939.604 10.3071C945.565 4.34781 953.648 1 962.076 1H980.292C987.785 1 993.859 7.07415 993.859 14.567V14.567C993.859 18.1656 992.43 21.6167 989.885 24.1611L977.701 36.3428C968.322 45.7198 963.053 58.4388 963.053 71.7011V134.29C963.053 147.552 968.322 160.271 977.701 169.648L999.109 191.053C1004.8 196.745 1008 204.464 1008 212.514V232.862C1008 238.384 1003.52 242.861 998.001 242.861V242.861C995.349 242.861 992.806 241.808 990.931 239.933L937.534 186.545C931.239 180.251 927.702 171.714 927.702 162.812V145.16C927.702 136.374 920.58 129.252 911.794 129.252V129.252C903.009 129.252 895.886 136.374 895.886 145.16V177.197C895.886 183.902 890.45 189.338 883.745 189.338V189.338C880.525 189.338 877.437 190.617 875.16 192.894L845.387 222.662C836.009 232.039 830.74 244.758 830.74 258.02V300.925C830.74 309.014 837.297 315.571 845.385 315.571H851.952C856.413 315.571 860.03 311.954 860.03 307.492V307.492C860.03 303.03 863.647 299.413 868.109 299.413H877.958C887.86 299.413 895.886 307.44 895.886 317.341V333.787C895.886 340.875 898.702 347.672 903.714 352.683V352.683C908.726 357.694 911.542 364.491 911.542 371.578V430.967C911.542 439.198 908.272 447.092 902.451 452.912L899.611 455.751C895.609 459.752 890.182 462 884.524 462V462C878.865 462 873.438 459.752 869.436 455.751L862.436 448.752C860.896 447.212 860.03 445.124 860.03 442.945V442.562C860.03 438.238 863.535 434.734 867.858 434.734V434.734C872.181 434.734 875.686 431.229 875.686 426.906V400.866C875.686 394.752 870.729 389.795 864.615 389.795V389.795C861.68 389.795 858.864 390.961 856.788 393.037L853.465 396.359C849.262 400.562 843.561 402.923 837.616 402.923H829.224C817.907 402.923 807.053 398.428 799.049 390.426L780.541 371.92C776.79 368.17 771.703 366.064 766.4 366.064H753.675C748.371 366.064 743.285 368.17 739.534 371.92L731.424 380.029C728.727 382.726 727.211 386.384 727.211 390.198V397.938C727.211 413.519 714.581 426.15 699 426.15V426.15C691.518 426.15 684.343 429.122 679.052 434.411L677.215 436.249C670.748 442.715 661.977 446.347 652.832 446.347H593.035C589.377 446.347 585.869 444.894 583.283 442.308L582.903 441.928C580.559 439.585 579.242 436.406 579.242 433.092V433.092C579.242 426.19 573.647 420.596 566.746 420.596H565.477C558.576 420.596 552.981 426.19 552.981 433.092V433.092C552.981 436.406 551.664 439.585 549.321 441.928L548.941 442.308C546.354 444.894 542.846 446.347 539.189 446.347H529.883C524.624 446.347 519.581 444.259 515.863 440.541V440.541C512.144 436.823 507.101 434.734 501.842 434.734H493.522C488.263 434.734 483.22 436.823 479.502 440.541V440.541C475.783 444.259 470.74 446.347 465.481 446.347H456.271C445.115 446.347 434.416 441.916 426.527 434.028L379.382 386.891C377.038 384.548 375.721 381.369 375.721 378.055V378.055C375.721 371.153 370.126 365.559 363.225 365.559H358.937C354.486 365.559 350.217 363.791 347.069 360.644L337.764 351.34C333.612 347.189 331.28 341.558 331.28 335.687V335.687C331.28 323.461 321.369 313.551 309.144 313.551H266.635C257.99 313.551 250.982 320.559 250.982 329.204V329.204C250.982 337.849 243.974 344.857 235.329 344.857H233.127C228.392 344.857 223.85 342.976 220.502 339.628L190.898 310.029C183.129 302.262 172.594 297.898 161.608 297.898H140.38C129.226 297.898 120.183 306.941 120.183 318.095V323.651C120.183 331.737 113.628 338.292 105.542 338.292V338.292C101.659 338.292 97.9352 339.835 95.1894 342.58L79.7165 358.05C77.1717 360.595 75.742 364.046 75.742 367.644V371.111C75.742 376.689 71.2199 381.211 65.6417 381.211V381.211C60.0635 381.211 55.5414 376.689 55.5414 371.111V350.864C55.5414 342.815 52.3434 335.095 46.6511 329.404L31.5543 314.309C26.865 309.621 24.2305 303.261 24.2305 296.63V287.13C24.2305 273.836 35.0081 263.058 48.3029 263.058H74.312C86.5372 263.058 96.4476 253.148 96.4476 240.922V240.922C96.4476 235.051 94.115 229.42 89.9629 225.269L80.1363 215.444C77.3227 212.631 75.742 208.815 75.742 204.836V176.87C75.742 172.891 77.3227 169.076 80.1363 166.263L99.376 147.026C104.291 142.112 107.053 135.445 107.053 128.495V128.495C107.053 121.544 109.814 114.877 114.73 109.963L138.061 86.6354C141.812 82.8854 146.899 80.7788 152.202 80.7788H183.175C189.029 80.7788 194.589 78.2142 198.389 73.7614L234.012 32.0174C237.812 27.5645 243.371 25 249.225 25H252C263.046 25 272 33.9543 272 45V52.8579C272 55.51 273.054 58.0536 274.929 59.9289L285.071 70.0711C286.946 71.9464 289.49 73 292.142 73H296" stroke="#1C1B17" stroke-width="2"/>
<path d="M15.9135 216.575L5.3067 227.736C2.54174 230.646 1 234.506 1 238.52C1 242.82 2.76832 246.93 5.89 249.887L20.6436 263.859C21.812 264.966 23.36 265.583 24.9691 265.583C27.6454 265.583 30.0287 263.889 30.9093 261.362L34.2274 251.839C34.9646 249.724 35.341 247.499 35.341 245.259V224.333C35.341 218.113 30.2984 213.07 24.078 213.07C20.9913 213.07 18.0398 214.337 15.9135 216.575Z" stroke="#1C1B17" stroke-width="2"/>
<ellipse cx="16.1512" cy="241.346" rx="3.03009" ry="3.02957" fill="#2E9DDC"/>
<ellipse cx="46.452" cy="282.75" rx="3.03009" ry="3.02957" fill="#2E9DDC"/>
<ellipse cx="55.5418" cy="303.957" rx="3.03009" ry="3.02957" fill="#2E9DDC"/>
<ellipse cx="72.7117" cy="314.056" rx="3.03009" ry="3.02959" fill="#2E9DDC"/>
<ellipse cx="69.6824" cy="331.223" rx="3.03009" ry="3.02957" fill="#2E9DDC"/>
<ellipse cx="80.7918" cy="349.401" rx="3.03009" ry="3.02959" fill="#2E9DDC"/>
<ellipse cx="107.054" cy="300.928" rx="3.03009" ry="3.02957" fill="#2E9DDC"/>
<ellipse cx="114.124" cy="314.056" rx="3.03009" ry="3.02959" fill="#2E9DDC"/>
<ellipse cx="84.8328" cy="267.602" rx="3.03009" ry="3.02956" fill="#2E9DDC"/>
<ellipse cx="124.223" cy="267.602" rx="3.03009" ry="3.02956" fill="#2E9DDC"/>
<ellipse cx="96.952" cy="219.129" rx="3.03009" ry="3.02957" fill="#2E9DDC"/>
<ellipse cx="90.8934" cy="197.922" rx="3.03009" ry="3.02958" fill="#2E9DDC"/>
<ellipse cx="96.952" cy="176.715" rx="3.03009" ry="3.02958" fill="#2E9DDC"/>
<ellipse cx="107.054" cy="188.834" rx="3.03009" ry="3.02957" fill="#2E9DDC"/>
<ellipse cx="120.184" cy="183.784" rx="3.03009" ry="3.02956" fill="#2E9DDC"/>
<ellipse cx="115.134" cy="219.129" rx="3.03009" ry="3.02957" fill="#2E9DDC"/>
<ellipse cx="137.354" cy="227.208" rx="3.03009" ry="3.02957" fill="#2E9DDC"/>
<ellipse cx="144.425" cy="199.942" rx="3.03009" ry="3.02957" fill="#2E9DDC"/>
<ellipse cx="141.393" cy="171.666" rx="3.03008" ry="3.02956" fill="#2E9DDC"/>
<ellipse cx="121.194" cy="173.686" rx="3.03009" ry="3.02958" fill="#2E9DDC"/>
<ellipse cx="125.233" cy="112.084" rx="3.03009" ry="3.02958" fill="#2E9DDC"/>
<ellipse cx="146.444" cy="106.025" rx="3.03008" ry="3.02957" fill="#2E9DDC"/>
<ellipse cx="153.514" cy="123.193" rx="3.03008" ry="3.02957" fill="#2E9DDC"/>
<ellipse cx="150.485" cy="148.439" rx="3.03009" ry="3.02957" fill="#2E9DDC"/>
<ellipse cx="161.595" cy="160.557" rx="3.0301" ry="3.02957" fill="#2E9DDC"/>
<ellipse cx="159.575" cy="179.745" rx="3.03009" ry="3.02957" fill="#2E9DDC"/>
<ellipse cx="171.694" cy="173.686" rx="3.0301" ry="3.02958" fill="#2E9DDC"/>
<ellipse cx="187.856" cy="160.557" rx="3.03009" ry="3.02957" fill="#2E9DDC"/>
<ellipse cx="183.815" cy="134.301" rx="3.03011" ry="3.02957" fill="#2E9DDC"/>
<ellipse cx="254.518" cy="137.331" rx="3.03008" ry="3.02958" fill="#2E9DDC"/>
<ellipse cx="228.257" cy="192.873" rx="3.03009" ry="3.02958" fill="#2E9DDC"/>
<ellipse cx="187.856" cy="191.863" rx="3.03009" ry="3.02957" fill="#2E9DDC"/>
<ellipse cx="170.684" cy="219.129" rx="3.03009" ry="3.02957" fill="#2E9DDC"/>
<ellipse cx="162.604" cy="229.228" rx="3.03008" ry="3.02958" fill="#2E9DDC"/>
<ellipse cx="162.604" cy="252.455" rx="3.03008" ry="3.02957" fill="#2E9DDC"/>
<ellipse cx="182.805" cy="266.593" rx="3.03009" ry="3.02957" fill="#2E9DDC"/>
<ellipse cx="205.026" cy="301.938" rx="3.0301" ry="3.02959" fill="#2E9DDC"/>
<ellipse cx="191.895" cy="236.297" rx="3.0301" ry="3.02956" fill="#2E9DDC"/>
<ellipse cx="197.956" cy="210.041" rx="3.0301" ry="3.02956" fill="#2E9DDC"/>
<ellipse cx="209.065" cy="204.991" rx="3.03009" ry="3.02958" fill="#2E9DDC"/>
<ellipse cx="209.065" cy="224.179" rx="3.03009" ry="3.02957" fill="#2E9DDC"/>
<ellipse cx="224.218" cy="237.307" rx="3.03008" ry="3.02957" fill="#2E9DDC"/>
<ellipse cx="250.477" cy="230.238" rx="3.0301" ry="3.02958" fill="#2E9DDC"/>
<ellipse cx="228.257" cy="266.593" rx="3.03009" ry="3.02957" fill="#2E9DDC"/>
<ellipse cx="270.679" cy="260.533" rx="3.03011" ry="3.02957" fill="#2E9DDC"/>
<ellipse cx="264.618" cy="286.79" rx="3.03011" ry="3.02956" fill="#2E9DDC"/>
<ellipse cx="297.948" cy="292.849" rx="3.03006" ry="3.02957" fill="#2E9DDC"/>
<ellipse cx="338.35" cy="256.494" rx="3.03006" ry="3.02959" fill="#2E9DDC"/>
<ellipse cx="357.54" cy="322.135" rx="3.03009" ry="3.02957" fill="#2E9DDC"/>
<ellipse cx="415.112" cy="372.628" rx="3.03009" ry="3.02959" fill="#2E9DDC"/>
<ellipse cx="436.323" cy="348.391" rx="3.03011" ry="3.02957" fill="#2E9DDC"/>
<ellipse cx="447.432" cy="372.628" rx="3.03009" ry="3.02959" fill="#2E9DDC"/>
<ellipse cx="433.292" cy="412.012" rx="3.03012" ry="3.02957" fill="#2E9DDC"/>
<ellipse cx="490.864" cy="366.568" rx="3.03009" ry="3.02956" fill="#2E9DDC"/>
<ellipse cx="507.024" cy="418.071" rx="3.03012" ry="3.02957" fill="#2E9DDC"/>
<ellipse cx="576.718" cy="378.687" rx="3.03009" ry="3.0296" fill="#2E9DDC"/>
<ellipse cx="614.089" cy="392.825" rx="3.03012" ry="3.02956" fill="#2E9DDC"/>
<ellipse cx="673.68" cy="368.588" rx="3.03006" ry="3.02956" fill="#2E9DDC"/>
<ellipse cx="779.733" cy="345.361" rx="3.03012" ry="3.02957" fill="#2E9DDC"/>
<ellipse cx="840.335" cy="328.194" rx="3.03009" ry="3.02957" fill="#2E9DDC"/>
<ellipse cx="851.446" cy="384.746" rx="3.03009" ry="3.02957" fill="#2E9DDC"/>
<ellipse cx="729.231" cy="219.129" rx="3.03006" ry="3.02957" fill="#2E9DDC"/>
<ellipse cx="870.636" cy="153.488" rx="3.03012" ry="3.02957" fill="#2E9DDC"/>
<ellipse cx="115.134" cy="151.469" rx="3.03009" ry="3.02958" fill="#2E9DDC"/>
</svg>
