<svg id="order-1" viewBox="0 0 384 96" fill="none" xmlns="http://www.w3.org/2000/svg">
<path fill-rule="evenodd" clip-rule="evenodd" d="M296.49 66.9348C294.532 67.2146 292.542 66.7092 290.954 65.5285C289.367 64.3478 288.31 62.5876 288.014 60.6312C287.718 58.6749 288.208 56.681 289.375 55.0837C290.543 53.4865 292.295 52.4155 294.248 52.1038C293.705 49.7792 294.107 47.3338 295.366 45.3056C296.625 43.2774 298.639 41.8325 300.963 41.2888C303.288 40.7451 305.733 41.1471 307.762 42.4065C309.79 43.6658 311.235 45.6792 311.778 48.0038C313.504 47.9472 315.189 48.5302 316.511 49.6407C317.833 50.7513 318.697 52.3111 318.939 54.0204C319.181 55.7297 318.782 57.468 317.82 58.9014C316.858 60.3347 315.4 61.362 313.726 61.7858C314.315 64.0426 314.005 66.4398 312.862 68.4724C311.718 70.505 309.829 72.0142 307.595 72.682C305.36 73.3497 302.953 73.1238 300.882 72.0519C298.81 70.98 297.236 69.1458 296.49 66.9358V66.9348Z" fill="white" stroke="#39393A" stroke-width="2" stroke-linecap="round" stroke-linejoin="round"/>
<path d="M298 60L304.628 66.775M304.66 92.053V59.4529V92.053ZM310.237 58.2729L305 63.775L310.237 58.2729Z" stroke="#39393A" stroke-width="2" stroke-linecap="round" stroke-linejoin="round"/>
<path d="M26.0918 77.4189V93.0639H47.0358V80.1139H55.0598V93.0079H76.1748V77.4729" stroke="#39393A" stroke-width="2" stroke-linecap="round" stroke-linejoin="round"/>
<path d="M42 79H31C29.8954 79 29 79.8954 29 81V87C29 88.1046 29.8954 89 31 89H42C43.1046 89 44 88.1046 44 87V81C44 79.8954 43.1046 79 42 79Z" fill="white"/>
<path d="M41 80H32C30.8954 80 30 80.8954 30 82V86C30 87.1046 30.8954 88 32 88H41C42.1046 88 43 87.1046 43 86V82C43 80.8954 42.1046 80 41 80Z" stroke="#39393A" stroke-width="2"/>
<path d="M71 79H60C58.8954 79 58 79.8954 58 81V87C58 88.1046 58.8954 89 60 89H71C72.1046 89 73 88.1046 73 87V81C73 79.8954 72.1046 79 71 79Z" fill="white"/>
<path d="M70 80H61C59.8954 80 59 80.8954 59 82V86C59 87.1046 59.8954 88 61 88H70C71.1046 88 72 87.1046 72 86V82C72 80.8954 71.1046 80 70 80Z" stroke="#39393A" stroke-width="2"/>
<path fill-rule="evenodd" clip-rule="evenodd" d="M31 70C31 71.0609 30.5786 72.0783 29.8284 72.8284C29.0783 73.5786 28.0609 74 27 74C25.9391 74 24.9217 73.5786 24.1716 72.8284C23.4214 72.0783 23 71.0609 23 70H31ZM39 70C39 71.0609 38.5786 72.0783 37.8284 72.8284C37.0783 73.5786 36.0609 74 35 74C33.9391 74 32.9217 73.5786 32.1716 72.8284C31.4214 72.0783 31 71.0609 31 70H39ZM47 70C47 71.0609 46.5786 72.0783 45.8284 72.8284C45.0783 73.5786 44.0609 74 43 74C41.9391 74 40.9217 73.5786 40.1716 72.8284C39.4214 72.0783 39 71.0609 39 70H47ZM55 70C55 71.0609 54.5786 72.0783 53.8284 72.8284C53.0783 73.5786 52.0609 74 51 74C49.9391 74 48.9217 73.5786 48.1716 72.8284C47.4214 72.0783 47 71.0609 47 70H55ZM63 70C63 71.0609 62.5786 72.0783 61.8284 72.8284C61.0783 73.5786 60.0609 74 59 74C57.9391 74 56.9217 73.5786 56.1716 72.8284C55.4214 72.0783 55 71.0609 55 70H63ZM71 70C71 71.0609 70.5786 72.0783 69.8284 72.8284C69.0783 73.5786 68.0609 74 67 74C65.9391 74 64.9217 73.5786 64.1716 72.8284C63.4214 72.0783 63 71.0609 63 70H71ZM79 70C79 71.0609 78.5786 72.0783 77.8284 72.8284C77.0783 73.5786 76.0609 74 75 74C73.9391 74 72.9217 73.5786 72.1716 72.8284C71.4214 72.0783 71 71.0609 71 70" fill="white"/>
<path d="M79 70C79 71.0609 78.5786 72.0783 77.8284 72.8284C77.0783 73.5786 76.0609 74 75 74C73.9391 74 72.9217 73.5786 72.1716 72.8284C71.4214 72.0783 71 71.0609 71 70M31 70C31 71.0609 30.5786 72.0783 29.8284 72.8284C29.0783 73.5786 28.0609 74 27 74C25.9391 74 24.9217 73.5786 24.1716 72.8284C23.4214 72.0783 23 71.0609 23 70H31ZM39 70C39 71.0609 38.5786 72.0783 37.8284 72.8284C37.0783 73.5786 36.0609 74 35 74C33.9391 74 32.9217 73.5786 32.1716 72.8284C31.4214 72.0783 31 71.0609 31 70H39ZM47 70C47 71.0609 46.5786 72.0783 45.8284 72.8284C45.0783 73.5786 44.0609 74 43 74C41.9391 74 40.9217 73.5786 40.1716 72.8284C39.4214 72.0783 39 71.0609 39 70H47ZM55 70C55 71.0609 54.5786 72.0783 53.8284 72.8284C53.0783 73.5786 52.0609 74 51 74C49.9391 74 48.9217 73.5786 48.1716 72.8284C47.4214 72.0783 47 71.0609 47 70H55ZM63 70C63 71.0609 62.5786 72.0783 61.8284 72.8284C61.0783 73.5786 60.0609 74 59 74C57.9391 74 56.9217 73.5786 56.1716 72.8284C55.4214 72.0783 55 71.0609 55 70H63ZM71 70C71 71.0609 70.5786 72.0783 69.8284 72.8284C69.0783 73.5786 68.0609 74 67 74C65.9391 74 64.9217 73.5786 64.1716 72.8284C63.4214 72.0783 63 71.0609 63 70H71Z" stroke="#39393A" stroke-width="2"/>
<path d="M79 70.031V65.95L74.47 51H51M23 70.031V65.95L27.479 51H50.949L23 70.031Z" stroke="#39393A" stroke-width="2" stroke-linecap="round" stroke-linejoin="round"/>
<path d="M47 70.038V66.009L48.02 51M39 70.958V65.908L40.9 51L39 70.958ZM71.001 70.958V65.908L67 51L71.001 70.958ZM60 51L63 66.739V70.938L60 51ZM55.02 70.038V66.009L54 51L55.02 70.038ZM34.153 51L31 65.74V70.939L34.153 51Z" stroke="#39393A" stroke-width="2" stroke-linecap="round" stroke-linejoin="round"/>
<path d="M153 50H208M136 25H144.908L159.455 72H202.547L212 37.438H148.754L136 25ZM171 85.501C171 86.2233 170.857 86.9384 170.581 87.6057C170.304 88.2729 169.899 88.8792 169.388 89.3898C168.878 89.9004 168.271 90.3054 167.604 90.5817C166.936 90.858 166.221 91.0001 165.499 91C164.777 90.9999 164.062 90.8575 163.394 90.581C162.727 90.3044 162.121 89.8992 161.61 89.3884C161.1 88.8776 160.695 88.2712 160.418 87.6038C160.142 86.9365 160 86.2213 160 85.499C160 84.0403 160.58 82.6415 161.612 81.6102C162.643 80.5789 164.042 79.9997 165.501 80C166.96 80.0003 168.359 80.58 169.39 81.6116C170.421 82.6433 171 84.0423 171 85.501V85.501ZM159 86C158.081 86 157.17 85.8189 156.321 85.467C155.471 85.1151 154.7 84.5993 154.05 83.949C153.4 83.2988 152.884 82.5269 152.532 81.6774C152.181 80.8279 152 79.9174 152 78.998C152 78.0788 152.181 77.1686 152.533 76.3194C152.884 75.4701 153.4 74.6985 154.05 74.0487C154.7 73.3988 155.472 72.8834 156.321 72.5319C157.171 72.1803 158.081 71.9996 159 72V86ZM200 85.501C200.01 86.2294 199.874 86.9525 199.602 87.6283C199.33 88.304 198.926 88.9189 198.414 89.4373C197.902 89.9558 197.293 90.3673 196.62 90.6481C195.948 90.9289 195.227 91.0734 194.498 91.0731C193.77 91.0729 193.049 90.9279 192.377 90.6466C191.705 90.3653 191.095 89.9533 190.584 89.4345C190.072 88.9157 189.669 88.3005 189.397 87.6246C189.126 86.9486 188.991 86.2254 189.001 85.497C189.021 84.0513 189.61 82.6716 190.639 81.6565C191.669 80.6414 193.057 80.0726 194.502 80.0731C195.948 80.0737 197.336 80.6435 198.365 81.6593C199.394 82.6752 199.981 84.0553 200 85.501V85.501ZM159 86H159.584H159ZM171.306 86H189H171.306ZM200 86H204H200ZM171 37.84L173 71L171 37.84ZM191 37.836L189 71L191 37.836ZM157 62H205.233H157Z" stroke="#39393A" stroke-width="2" stroke-linecap="round" stroke-linejoin="round"/>
<path fill-rule="evenodd" clip-rule="evenodd" d="M231.745 21.071C231.745 32.156 222.846 41.143 211.871 41.143C200.897 41.143 192 32.156 192 21.071C192 9.987 200.897 1 211.87 1C222.846 1 231.745 9.987 231.745 21.071Z" fill="white" stroke="#1692D0" stroke-width="2" stroke-linecap="round" stroke-linejoin="round"/>
<path d="M202 20.173L208.893 27.066L220.959 15" stroke="#39393A" stroke-width="2" stroke-linecap="round" stroke-linejoin="round"/>
<path d="M1 93H383" stroke="#2E9DDC" stroke-width="2" stroke-linecap="round" stroke-linejoin="round"/>
<path d="M325.021 84.4268H327.021V93.1168H325.021V84.4268Z" fill="#D8D8D8"/>
<path fill-rule="evenodd" clip-rule="evenodd" d="M326.021 85.4268H327.021V92.1168H326.021V85.4268Z" stroke="#39393A" stroke-width="2"/>
<path d="M326 78C327.657 78 329 76.6569 329 75C329 73.3431 327.657 72 326 72C324.343 72 323 73.3431 323 75C323 76.6569 324.343 78 326 78Z" fill="white"/>
<path d="M326 77C327.105 77 328 76.1046 328 75C328 73.8954 327.105 73 326 73C324.895 73 324 73.8954 324 75C324 76.1046 324.895 77 326 77Z" stroke="#39393A" stroke-width="2"/>
<path d="M323.252 77.9349C326.188 80.4869 326.483 83.3529 326.483 83.3529C326.931 84.9509 325.963 86.1169 324.323 85.8519C324.323 85.8519 321.452 85.9639 318.523 83.4179C315.592 80.8719 315 77.0639 315 77.0639C314.728 75.9969 315.406 75.2039 316.5 75.3449C316.5 75.3449 320.316 75.3829 323.251 77.9349H323.252Z" fill="white"/>
<path fill-rule="evenodd" clip-rule="evenodd" d="M322.595 78.6898C322.122 78.2806 321.607 77.9236 321.059 77.6248C320.067 77.0903 318.997 76.7147 317.889 76.5118C317.509 76.4398 317.159 76.3928 316.847 76.3658C316.728 76.3545 316.609 76.3472 316.49 76.3438L316.372 76.3358C315.988 76.2858 315.869 76.4238 315.988 76.9088C315.995 76.9538 316.014 77.0578 316.049 77.2108C316.109 77.4768 316.19 77.7758 316.295 78.0988C316.593 79.0258 317.015 79.9528 317.578 80.8118C318.035 81.5088 318.566 82.1308 319.178 82.6618C320.299 83.6368 321.482 84.2548 322.66 84.5898C323.38 84.7948 323.95 84.8578 324.289 84.8508H324.284L324.483 84.8638C325.376 85.0088 325.777 84.5388 325.519 83.6218L325.488 83.4538C325.466 83.2458 325.372 82.8218 325.154 82.2538C324.781 81.2808 324.186 80.3018 323.319 79.3818C323.094 79.1438 322.853 78.9118 322.595 78.6878V78.6898Z" stroke="#39393A" stroke-width="2"/>
<path d="M329.84 77.9349C326.905 80.4869 326.61 83.3529 326.61 83.3529C326.161 84.9509 327.13 86.1169 328.769 85.8519C328.769 85.8519 331.641 85.9639 334.57 83.4179C337.5 80.8719 338.092 77.0639 338.092 77.0639C338.364 75.9969 337.685 75.2039 336.592 75.3449C336.592 75.3449 332.776 75.3829 329.84 77.9349Z" fill="white"/>
<path fill-rule="evenodd" clip-rule="evenodd" d="M330.497 78.69C330.239 78.914 329.998 79.145 329.774 79.383C328.906 80.303 328.312 81.283 327.938 82.256C327.721 82.823 327.626 83.247 327.605 83.456L327.573 83.623C327.316 84.54 327.716 85.01 328.61 84.865L328.809 84.853C328.807 84.853 328.805 84.853 328.804 84.853C329.144 84.859 329.712 84.796 330.432 84.591C331.61 84.256 332.793 83.638 333.915 82.663C334.531 82.1229 335.069 81.5004 335.515 80.813C336.303 79.597 336.85 78.2402 337.124 76.817C337.224 76.425 337.104 76.287 336.72 76.337L336.602 76.345C336.548 76.345 336.426 76.351 336.246 76.367C335.934 76.394 335.583 76.441 335.203 76.513C334.094 76.7159 333.025 77.0915 332.033 77.626C331.484 77.9241 330.969 78.2805 330.497 78.689V78.69Z" stroke="#39393A" stroke-width="2"/>
</svg>
