<svg id="order-2" viewBox="0 0 384 95" fill="none" xmlns="http://www.w3.org/2000/svg">
<path fill-rule="evenodd" clip-rule="evenodd" d="M157.606 81.397H220.357V24.665H157.606V81.397ZM157.486 83.038C157.292 83.0397 157.1 83.0032 156.92 82.9305C156.741 82.8578 156.577 82.7504 156.439 82.6144C156.301 82.4784 156.191 82.3165 156.116 82.1379C156.041 81.9594 156.001 81.7678 156 81.574V24.483C156 23.668 156.67 23 157.486 23H220.514C221.351 23 222 23.668 222 24.483V81.573C222 82.391 221.351 83.038 220.514 83.038H157.486ZM225.95 81.089H259.01V63.089L248.047 42.039H225.95V81.089ZM225.772 83.052C225.541 83.0532 225.312 83.0085 225.099 82.9206C224.886 82.8327 224.692 82.7032 224.529 82.5398C224.366 82.3763 224.237 82.1821 224.149 81.9684C224.062 81.7547 224.018 81.5258 224.02 81.295V41.795C224.02 40.818 224.796 40.016 225.772 40.016H248.047C248.723 40.016 249.349 40.417 249.649 41.019L260.788 62.311C260.888 62.561 260.963 62.837 260.963 63.088V81.295C260.963 82.275 260.162 83.052 259.186 83.052H225.772Z" fill="#39393A"/>
<path fill-rule="evenodd" clip-rule="evenodd" d="M231.02 61.022H252.011L244.991 47.012H231.02V61.022ZM230.87 62.997C230.636 62.9981 230.404 62.9528 230.188 62.8637C229.971 62.7746 229.775 62.6435 229.61 62.4779C229.444 62.3124 229.313 62.1157 229.224 61.8993C229.136 61.6829 229.091 61.451 229.092 61.217V46.875C229.092 45.897 229.893 45.095 230.87 45.095L244.99 45.082C245.669 45.082 246.295 45.483 246.595 46.082L253.78 60.632C254.055 61.183 254.005 61.631 253.68 62.157C253.523 62.4132 253.302 62.6242 253.038 62.7692C252.775 62.9142 252.478 62.9882 252.178 62.984L230.87 62.997Z" fill="#39393A"/>
<path fill-rule="evenodd" clip-rule="evenodd" d="M222 65H157V67H222V65Z" fill="#39393A"/>
<path d="M197.5 91C192.253 91 188 86.7467 188 81.5C188 76.2533 192.253 72 197.5 72C202.747 72 207 76.2533 207 81.5C207 86.7467 202.747 91 197.5 91Z" fill="white"/>
<path d="M197.5 90C192.806 90 189 86.1944 189 81.5C189 76.8056 192.806 73 197.5 73C202.194 73 206 76.8056 206 81.5C206 86.1944 202.194 90 197.5 90Z" stroke="#39393A" stroke-width="2"/>
<path d="M248.5 91C243.253 91 239 86.7467 239 81.5C239 76.2533 243.253 72 248.5 72C253.747 72 258 76.2533 258 81.5C258 86.7467 253.747 91 248.5 91Z" fill="white"/>
<path d="M248.5 90C243.806 90 240 86.1944 240 81.5C240 76.8056 243.806 73 248.5 73C253.194 73 257 76.8056 257 81.5C257 86.1944 253.194 90 248.5 90Z" stroke="#39393A" stroke-width="2"/>
<path d="M176.5 91C171.253 91 167 86.7467 167 81.5C167 76.2533 171.253 72 176.5 72C181.747 72 186 76.2533 186 81.5C186 86.7467 181.747 91 176.5 91Z" fill="white"/>
<path d="M176.5 90C171.806 90 168 86.1944 168 81.5C168 76.8056 171.806 73 176.5 73C181.194 73 185 76.8056 185 81.5C185 86.1944 181.194 90 176.5 90Z" stroke="#39393A" stroke-width="2"/>
<path fill-rule="evenodd" clip-rule="evenodd" d="M183.746 21.6628C183.746 32.7468 174.848 41.7338 163.872 41.7338C152.899 41.7338 144.002 32.7468 144.002 21.6628C144.002 10.5778 152.899 1.59082 163.872 1.59082C174.848 1.59082 183.746 10.5778 183.746 21.6628Z" fill="white" stroke="#1692D0" stroke-width="2" stroke-linecap="round" stroke-linejoin="round"/>
<path d="M163.873 8.65576V21.6628L173.073 16.6188" stroke="#39393A" stroke-width="2" stroke-linecap="round" stroke-linejoin="round"/>
<path fill-rule="evenodd" clip-rule="evenodd" d="M79 39C65.876 39 64 48.88 64 62L79 39ZM49 39C62.073 39 64 48.872 64 62L49 39ZM64 62H65V92H64V62Z" stroke="#39393A" stroke-width="2"/>
<path fill-rule="evenodd" clip-rule="evenodd" d="M77 38H79V42H77V38ZM49 38H51V42H49V38Z" fill="#39393A"/>
<path d="M78 50C80.2091 50 82 48.2091 82 46C82 43.7909 80.2091 42 78 42C75.7909 42 74 43.7909 74 46C74 48.2091 75.7909 50 78 50Z" stroke="#39393A" stroke-width="2"/>
<path d="M50 50C52.2091 50 54 48.2091 54 46C54 43.7909 52.2091 42 50 42C47.7909 42 46 43.7909 46 46C46 48.2091 47.7909 50 50 50Z" stroke="#39393A" stroke-width="2"/>
<path d="M1 92L383 92" stroke="#2E9DDC" stroke-width="2" stroke-linecap="round" stroke-linejoin="round"/>
<path d="M83.0215 83.4268H85.0215V92.1168H83.0215V83.4268Z" fill="#D8D8D8"/>
<path fill-rule="evenodd" clip-rule="evenodd" d="M84.0215 84.4268H85.0215V91.1168H84.0215V84.4268Z" stroke="#39393A" stroke-width="2"/>
<path d="M84 77C85.6569 77 87 75.6569 87 74C87 72.3431 85.6569 71 84 71C82.3431 71 81 72.3431 81 74C81 75.6569 82.3431 77 84 77Z" fill="white"/>
<path d="M84 76C85.1046 76 86 75.1046 86 74C86 72.8954 85.1046 72 84 72C82.8954 72 82 72.8954 82 74C82 75.1046 82.8954 76 84 76Z" stroke="#39393A" stroke-width="2"/>
<path d="M80.7037 76.9378C83.6397 79.4898 83.9347 82.3558 83.9347 82.3558C84.3827 83.9528 83.4147 85.1198 81.7747 84.8548C81.7747 84.8548 78.9037 84.9668 75.9747 82.4208C73.0447 79.8748 72.4527 76.0668 72.4527 76.0668C72.1807 74.9998 72.8587 74.2068 73.9527 74.3478C73.9527 74.3478 77.7687 74.3858 80.7037 76.9378Z" fill="white"/>
<path fill-rule="evenodd" clip-rule="evenodd" d="M80.0477 77.6917C79.5753 77.2836 79.0603 76.9275 78.5117 76.6297C77.5197 76.0952 76.4501 75.7196 75.3417 75.5167C74.9617 75.4447 74.6117 75.3977 74.2997 75.3707C74.181 75.3594 74.0619 75.352 73.9427 75.3487L73.8247 75.3407C73.4407 75.2907 73.3217 75.4287 73.4407 75.9137C73.4477 75.9587 73.4667 76.0627 73.5017 76.2157C73.5617 76.4817 73.6437 76.7807 73.7477 77.1037C74.0457 78.0307 74.4677 78.9577 75.0307 79.8167C75.4877 80.5127 76.0187 81.1357 76.6307 81.6667C77.7517 82.6417 78.9347 83.2597 80.1127 83.5947C80.8327 83.7997 81.4027 83.8627 81.7417 83.8557H81.7367L81.9357 83.8687C82.8287 84.0127 83.2297 83.5437 82.9727 82.6267L82.9407 82.4587C82.9187 82.2507 82.8247 81.8267 82.6067 81.2587C82.2337 80.2857 81.6387 79.3067 80.7717 78.3867C80.5467 78.1487 80.3057 77.9167 80.0477 77.6927V77.6917Z" stroke="#39393A" stroke-width="2"/>
<path d="M86.8398 76.9349C83.9048 79.4869 83.6098 82.3529 83.6098 82.3529C83.1608 83.9509 84.1298 85.1169 85.7688 84.8519C85.7688 84.8519 88.6408 84.9639 91.5698 82.4179C94.4998 79.8719 95.0918 76.0639 95.0918 76.0639C95.3638 74.9969 94.6848 74.2039 93.5918 74.3449C93.5918 74.3449 89.7758 74.3829 86.8398 76.9349Z" fill="white"/>
<path fill-rule="evenodd" clip-rule="evenodd" d="M87.4968 77.69C87.2388 77.914 86.9978 78.145 86.7738 78.383C85.9058 79.303 85.3118 80.283 84.9378 81.256C84.7208 81.823 84.6258 82.247 84.6048 82.456L84.5728 82.623C84.3158 83.54 84.7158 84.01 85.6098 83.865L85.8088 83.853C85.8071 83.853 85.8054 83.853 85.8038 83.853C86.1438 83.859 86.7118 83.796 87.4318 83.591C88.6098 83.256 89.7928 82.638 90.9148 81.663C91.5307 81.1229 92.0691 80.5004 92.5148 79.813C93.3034 78.597 93.8498 77.2402 94.1238 75.817C94.2238 75.425 94.1038 75.287 93.7198 75.337L93.6018 75.345C93.5478 75.345 93.4258 75.351 93.2458 75.367C92.9338 75.394 92.5828 75.441 92.2028 75.513C91.0944 75.7159 90.0247 76.0915 89.0328 76.626C88.4841 76.9241 87.9691 77.2805 87.4968 77.689V77.69Z" stroke="#39393A" stroke-width="2"/>
<path d="M319.021 83.4268H321.021V92.1168H319.021V83.4268Z" fill="#D8D8D8"/>
<path fill-rule="evenodd" clip-rule="evenodd" d="M320.021 84.4268H321.021V91.1168H320.021V84.4268Z" stroke="#39393A" stroke-width="2"/>
<path d="M320 77C321.657 77 323 75.6569 323 74C323 72.3431 321.657 71 320 71C318.343 71 317 72.3431 317 74C317 75.6569 318.343 77 320 77Z" fill="white"/>
<path d="M320 76C321.105 76 322 75.1046 322 74C322 72.8954 321.105 72 320 72C318.895 72 318 72.8954 318 74C318 75.1046 318.895 76 320 76Z" stroke="#39393A" stroke-width="2"/>
<path d="M317.252 76.9349C320.188 79.4869 320.483 82.3529 320.483 82.3529C320.931 83.9509 319.963 85.1169 318.323 84.8519C318.323 84.8519 315.452 84.9639 312.523 82.4179C309.592 79.8719 309 76.0639 309 76.0639C308.728 74.9969 309.406 74.2039 310.5 74.3449C310.5 74.3449 314.316 74.3829 317.251 76.9349H317.252Z" fill="white"/>
<path fill-rule="evenodd" clip-rule="evenodd" d="M316.595 77.6898C316.122 77.2806 315.607 76.9236 315.059 76.6248C314.067 76.0903 312.997 75.7147 311.889 75.5118C311.509 75.4398 311.159 75.3928 310.847 75.3658C310.728 75.3545 310.609 75.3472 310.49 75.3438L310.372 75.3358C309.988 75.2858 309.869 75.4238 309.988 75.9088C309.995 75.9538 310.014 76.0578 310.049 76.2108C310.109 76.4768 310.19 76.7758 310.295 77.0988C310.593 78.0258 311.015 78.9528 311.578 79.8118C312.035 80.5088 312.566 81.1308 313.178 81.6618C314.299 82.6368 315.482 83.2548 316.66 83.5898C317.38 83.7948 317.95 83.8578 318.289 83.8508H318.284L318.483 83.8638C319.376 84.0088 319.777 83.5388 319.519 82.6218L319.488 82.4538C319.466 82.2458 319.372 81.8218 319.154 81.2538C318.781 80.2808 318.186 79.3018 317.319 78.3818C317.094 78.1438 316.853 77.9118 316.595 77.6878V77.6898Z" stroke="#39393A" stroke-width="2"/>
<path d="M322.84 76.9349C319.905 79.4869 319.61 82.3529 319.61 82.3529C319.161 83.9509 320.13 85.1169 321.769 84.8519C321.769 84.8519 324.641 84.9639 327.57 82.4179C330.5 79.8719 331.092 76.0639 331.092 76.0639C331.364 74.9969 330.685 74.2039 329.592 74.3449C329.592 74.3449 325.776 74.3829 322.84 76.9349Z" fill="white"/>
<path fill-rule="evenodd" clip-rule="evenodd" d="M323.497 77.69C323.239 77.914 322.998 78.145 322.774 78.383C321.906 79.303 321.312 80.283 320.938 81.256C320.721 81.823 320.626 82.247 320.605 82.456L320.573 82.623C320.316 83.54 320.716 84.01 321.61 83.865L321.809 83.853C321.807 83.853 321.805 83.853 321.804 83.853C322.144 83.859 322.712 83.796 323.432 83.591C324.61 83.256 325.793 82.638 326.915 81.663C327.531 81.1229 328.069 80.5004 328.515 79.813C329.303 78.597 329.85 77.2402 330.124 75.817C330.224 75.425 330.104 75.287 329.72 75.337L329.602 75.345C329.548 75.345 329.426 75.351 329.246 75.367C328.934 75.394 328.583 75.441 328.203 75.513C327.094 75.7159 326.025 76.0915 325.033 76.626C324.484 76.9241 323.969 77.2805 323.497 77.689V77.69Z" stroke="#39393A" stroke-width="2"/>
<path d="M339 53.632L333.368 48M355.286 60.812C354.428 63.396 352.066 65.252 349.286 65.252C348.607 65.252 347.953 65.142 347.34 64.937C345.941 65.8686 344.381 66.5316 342.739 66.892C341.783 67.102 340.789 67.214 339.768 67.214C338.373 67.214 337.028 67.006 335.763 66.622C334.973 66.988 334.099 67.192 333.179 67.192C330.779 67.192 328.692 65.809 327.613 63.769C324.2 63.661 321.464 60.754 321.464 57.183C321.464 56.276 321.641 55.411 321.96 54.624C321.335 53.999 320.84 53.2564 320.504 52.439C320.167 51.6217 319.996 50.7458 320 49.862C320 46.567 322.33 43.836 325.371 43.35C325.456 39.788 328.264 36.927 331.714 36.927C333.151 36.927 334.476 37.423 335.539 38.259C336.446 35.769 338.762 34 341.476 34C344.054 34 346.273 35.597 347.266 37.89C348.378 36.9543 349.785 36.4408 351.238 36.44C354.742 36.44 357.583 39.39 357.583 43.028C357.583 44.879 356.849 46.552 355.666 47.748C358.69 48.251 361 50.973 361 54.255C361 57.672 358.494 60.482 355.286 60.812V60.812ZM339 91.95V53.553V91.95ZM339 63.177L347.586 55L339 63.177ZM339 55.632L344.632 50L339 55.632ZM339 61.177L330.414 53L339 61.177Z" stroke="#39393A" stroke-width="2" stroke-linecap="round" stroke-linejoin="round"/>
</svg>
