<svg viewBox="0 0 168 202" xmlns="http://www.w3.org/2000/svg" xmlns:xlink="http://www.w3.org/1999/xlink"><defs><path d="M17.103 36.5a9 9 0 0 0 0-18" id="a"/><mask id="r" x="0" y="0" width="9" height="18" fill="#fff"><use xlink:href="#a"/></mask><path d="M41.1 36.307a9 9 0 1 0 0-18" id="b"/><mask id="s" x="0" y="0" width="9" height="18" fill="#fff"><use xlink:href="#b"/></mask><path d="M5.5 28.5a9 9 0 0 0 0-18" id="c"/><mask id="t" x="0" y="0" width="9" height="18" fill="#fff"><use xlink:href="#c"/></mask><path d="M28.748 14.994a9 9 0 0 0 0-18" id="d"/><mask id="u" x="0" y="0" width="9" height="18" fill="#fff"><use xlink:href="#d"/></mask><path d="M29.603 26.36a9.059 9.059 0 1 0 0-18.117" id="e"/><mask id="v" x="0" y="0" width="9.059" height="18.117" fill="#fff"><use xlink:href="#e"/></mask><path d="M52.5 21.044a9 9 0 1 0 0-18" id="f"/><mask id="w" x="0" y="0" width="9" height="18" fill="#fff"><use xlink:href="#f"/></mask><path id="g" d="M0 0h25v25H0z"/><mask id="x" x="0" y="0" width="25" height="25" fill="#fff"><use xlink:href="#g"/></mask><path id="h" d="M121 140h37v63h-37z"/><mask id="y" x="0" y="0" width="37" height="63" fill="#fff"><use xlink:href="#h"/></mask><path id="i" d="M38.353 202.972L38 66h120.01v136.141"/><mask id="z" x="0" y="0" width="120.01" height="136.972" fill="#fff"><use xlink:href="#i"/></mask><path d="M59 114h6v5.01c0 .546-.451.99-.99.99h-4.02a.996.996 0 0 1-.99-.99V114z" id="j"/><mask id="A" x="0" y="0" width="6" height="6" fill="#fff"><use xlink:href="#j"/></mask><path d="M4.04 1.002C4.04.449 4.498 0 5.046 0h1.975c.556 0 1.006.445 1.006 1.002V5.01H4.04V1.002z" id="k"/><mask id="B" x="0" y="0" width="3.987" height="5.01" fill="#fff"><use xlink:href="#k"/></mask><path d="M4.075 3.682h3.912l3.591 3.906v18.41c0 .553-.457 1.002-1.004 1.002H1.267a.999.999 0 0 1-1.004-1.003V7.587l3.812-3.905z" id="l"/><mask id="C" x="0" y="0" width="11.315" height="23.318" fill="#fff"><use xlink:href="#l"/></mask><path d="M32.667.993c0-.548.45-.993 1.002-.993h1.662c.554 0 1.002.453 1.002.993V4.91h-3.666V.993z" id="m"/><mask id="D" x="0" y="0" width="3.667" height="4.909" fill="#fff"><use xlink:href="#m"/></mask><path d="M32.812 3.682h3.597L40 7.588v18.41A.999.999 0 0 1 39.004 27h-9.008A.995.995 0 0 1 29 25.997V7.587l3.812-3.905z" id="n"/><mask id="E" x="0" y="0" width="11" height="23.318" fill="#fff"><use xlink:href="#n"/></mask><path d="M37.145 66.805c.472-.997 1.752-1.805 2.863-1.805h115.984c1.11 0 2.395.816 2.863 1.805l7.29 15.39c.472.997-.044 1.805-1.149 1.805H31.004c-1.107 0-1.617-.816-1.15-1.805l7.291-15.39z" id="o"/><mask id="F" x="0" y="0" width="136.639" height="19" fill="#fff"><use xlink:href="#o"/></mask><path d="M49 82h26v28.002c0 .551-.386 1.226-.86 1.505l-6.759 3.986c-.475.28-1.312.507-1.861.507h-6.88c-.553 0-1.395-.228-1.862-.498l-6.918-4.004c-.475-.275-.86-.954-.86-1.496V82z" id="p"/><mask id="G" x="0" y="0" width="26" height="34" fill="#fff"><use xlink:href="#p"/></mask><rect id="q" width="102" height="14" rx="7"/><mask id="H" x="0" y="0" width="102" height="14" fill="#fff"><use xlink:href="#q"/></mask></defs><g transform="translate(1 -1)" fill="none" fill-rule="evenodd"><g transform="translate(7)" stroke="#1692D0" stroke-width="4"><use mask="url(#r)" transform="rotate(90 21.603 27.5)" xlink:href="#a"/><use mask="url(#s)" transform="rotate(70 45.6 27.307)" xlink:href="#b"/><use mask="url(#t)" transform="rotate(-131 10 19.5)" xlink:href="#c"/><use mask="url(#u)" transform="rotate(-100 33.248 5.994)" xlink:href="#d"/><use mask="url(#v)" transform="rotate(-82 34.133 17.302)" xlink:href="#e"/><use mask="url(#w)" transform="rotate(-30 57 12.044)" xlink:href="#f"/></g><g transform="translate(127 176)" stroke="#1692D0"><use mask="url(#x)" stroke-width="4" xlink:href="#g"/><g stroke-width="2" stroke-linecap="square"><path d="M2.617 2.617l19.745 19.745M22.362 2.617L2.617 22.362"/></g></g><use stroke="#39393A" mask="url(#y)" stroke-width="4" xlink:href="#h"/><use stroke="#39393A" mask="url(#z)" stroke-width="4" xlink:href="#i"/><use stroke="#39393A" mask="url(#A)" stroke-width="4" xlink:href="#j"/><g transform="translate(56 146)" stroke="#1692D0" stroke-width="4"><use mask="url(#B)" xlink:href="#k"/><use mask="url(#C)" xlink:href="#l"/></g><g transform="translate(57 146)" stroke="#1692D0"><use mask="url(#D)" stroke-width="4" xlink:href="#m"/><use mask="url(#E)" stroke-width="4" xlink:href="#n"/><path d="M29.665 8.758s5.587.744 9.112-1.759M.665 8.758S6.252 9.502 9.777 7" stroke-width="2"/></g><path d="M121 147h37v2h-37z" fill="#39393A"/><use stroke="#39393A" mask="url(#F)" stroke-width="4" fill="#FFF" xlink:href="#o"/><path d="M50 95.702s4.572 4.441 10.298 3.236C66.025 97.734 67.244 95 73.303 95" stroke="#1692D0" stroke-width="2"/><use stroke="#39393A" mask="url(#G)" stroke-width="4" xlink:href="#p"/><g transform="translate(9 173)" stroke="#39393A"><use mask="url(#H)" stroke-width="4" fill="#FFF" xlink:href="#q"/><circle stroke-width="2" cx="7" cy="7" r="6"/><circle stroke-width="2" cx="95" cy="7" r="6"/><circle stroke-width="2" cx="51" cy="7" r="6"/></g><path d="M.067 122H0v80h39v-80H23.933L18 33H6L.067 122z" stroke="#39393A" stroke-width="2" stroke-linecap="round" stroke-linejoin="round" fill="#FFF"/></g></svg>