<svg viewBox="0 0 236 159" xmlns="http://www.w3.org/2000/svg" xmlns:xlink="http://www.w3.org/1999/xlink"><defs><path d="M1.99 66.014V14.997c0-1.103.897-1.997 2.008-1.997h115.994A2 2 0 0 1 122 14.997V158.14" id="a"/><mask id="t" x="0" y="0" width="120.01" height="145.141" fill="#fff"><use xlink:href="#a"/></mask><path id="b" d="M35.507 27h7.971v9.931h-7.97z"/><mask id="u" x="0" y="0" width="7.971" height="9.931" fill="#fff"><use xlink:href="#b"/></mask><path d="M32.023 2.507A2.478 2.478 0 0 1 34.507.022a2.48 2.48 0 0 1 2.485 2.485v36.526h-4.969V2.507z" id="c"/><mask id="v" x="0" y="0" width="4.969" height="39.011" fill="#fff"><use xlink:href="#c"/></mask><path d="M41.03 18.492C41.03 8.832 48.855 1 58.514 1h13.491a3.999 3.999 0 0 1 3.995 4.01v37.026H41.029V18.492z" id="d"/><mask id="w" x="0" y="0" width="34.971" height="41.036" fill="#fff"><use xlink:href="#d"/></mask><path id="e" d="M39.345 23.1h15.833v2.555H39.345z"/><mask id="x" x="0" y="0" width="15.833" height="2.556" fill="#fff"><use xlink:href="#e"/></mask><path d="M67.449 10.925c.114-.542.652-.98 1.208-.98h.424c.553 0 .909.436.794.98l-2.22 10.52H65.23l2.219-10.52z" id="f"/><mask id="y" x="0" y="0" width="4.667" height="11.5" fill="#fff"><use xlink:href="#f"/></mask><path d="M53.098 27.833l7.36-7.74h16L81 25.279v15.849a2 2 0 0 1-2.007 1.995H53.098V27.833z" id="g"/><mask id="z" x="0" y="0" width="27.902" height="23.028" fill="#fff"><use xlink:href="#g"/></mask><path d="M54.349 46.996c5.127 0 9.284-4.378 9.284-9.779 0-5.4-4.157-9.778-9.284-9.778-5.128 0-9.284 4.378-9.284 9.778 0 5.401 4.156 9.78 9.284 9.78z" id="h"/><mask id="A" x="0" y="0" width="18.568" height="19.558" fill="#fff"><use xlink:href="#h"/></mask><ellipse id="i" cx="72.508" cy="40.611" rx="6.066" ry="6.389"/><mask id="B" x="0" y="0" width="12.131" height="12.778" fill="#fff"><use xlink:href="#i"/></mask><path id="j" d="M5 36h7v7H5z"/><mask id="C" x="0" y="0" width="7" height="7" fill="#fff"><use xlink:href="#j"/></mask><path d="M1 2c0-1.105.898-2 2.007-2h22.986C27.1 0 28 .887 28 2v8H1V2z" id="k"/><mask id="D" x="0" y="0" width="27" height="10" fill="#fff"><use xlink:href="#k"/></mask><path id="l" d="M1 8h27v51H1z"/><mask id="E" x="0" y="0" width="27" height="51" fill="#fff"><use xlink:href="#l"/></mask><circle id="m" cx="9" cy="28" r="2"/><mask id="F" x="-2" y="-2" width="8" height="8"><path fill="#fff" d="M5 24h8v8H5z"/><use xlink:href="#m"/></mask><circle id="n" cx="20" cy="28" r="2"/><mask id="G" x="-2" y="-2" width="8" height="8"><path fill="#fff" d="M16 24h8v8h-8z"/><use xlink:href="#n"/></mask><path d="M26 8h2.995C30.102 8 31 8.897 31 10.006v9.988A2.003 2.003 0 0 1 28.995 22H26V8z" id="o"/><mask id="H" x="0" y="0" width="5" height="14" fill="#fff"><use xlink:href="#o"/></mask><circle id="p" cx="77.5" cy="76.5" r="9.5"/><mask id="I" x="0" y="0" width="19" height="19" fill="#fff"><use xlink:href="#p"/></mask><circle id="q" cx="12.5" cy="76.5" r="9.5"/><mask id="J" x="0" y="0" width="19" height="19" fill="#fff"><use xlink:href="#q"/></mask><circle id="r" cx="98.5" cy="76.5" r="9.5"/><mask id="K" x="0" y="0" width="19" height="19" fill="#fff"><use xlink:href="#r"/></mask><path d="M16 7.5A7.5 7.5 0 0 1 23.51 0h76.98c4.148 0 7.51 3.366 7.51 7.5V15H16V7.5z" id="s"/><mask id="L" x="0" y="0" width="92" height="15" fill="#fff"><use xlink:href="#s"/></mask></defs><g fill="none" fill-rule="evenodd"><use stroke="#39393A" mask="url(#t)" stroke-width="4" transform="matrix(-1 0 0 1 123.99 0)" xlink:href="#a"/><g stroke-width="2" stroke="#39393A"><path d="M1.996 86.997h40.003v71.983M1.996 93.997h40.003M1.996 100.997h40.003"/></g><g transform="matrix(-1 0 0 1 101 110)"><path d="M.065 38.01a.94.94 0 0 1 .943-1.012h31.467v2.023H1.133a1.087 1.087 0 0 1-1.068-1.012z" fill="#39393A"/><use stroke="#39393A" mask="url(#u)" stroke-width="4" xlink:href="#b"/><use stroke="#39393A" mask="url(#v)" stroke-width="4" xlink:href="#c"/><use stroke="#39393A" mask="url(#w)" stroke-width="4" fill="#FFF" xlink:href="#d"/><use stroke="#39393A" mask="url(#x)" stroke-width="4" transform="rotate(-45 47.262 24.377)" xlink:href="#e"/><path d="M51.53 16.064a1.279 1.279 0 0 1 1.806-.001l2.129 2.129a1.279 1.279 0 0 1-1.807 1.807l-2.13-2.13a1.274 1.274 0 0 1 .002-1.805z" fill="#39393A"/><use stroke="#39393A" mask="url(#y)" stroke-width="4" xlink:href="#f"/><use stroke="#39393A" mask="url(#z)" stroke-width="4" fill="#FFF" xlink:href="#g"/><use stroke="#39393A" mask="url(#A)" stroke-width="4" fill="#FFF" xlink:href="#h"/><use stroke="#39393A" mask="url(#B)" stroke-width="4" fill="#FFF" xlink:href="#i"/></g><g transform="matrix(-1 0 0 1 99 87)"><path fill="#1692D0" d="M11 4h13v2H11zM5 13h19v2H5zM5 18h19v2H5z"/><circle fill="#1692D0" cx="7" cy="5" r="2"/><use stroke="#1692D0" mask="url(#C)" stroke-width="4" xlink:href="#j"/><use stroke="#1692D0" mask="url(#D)" stroke-width="4" xlink:href="#k"/><use stroke="#1692D0" mask="url(#E)" stroke-width="4" xlink:href="#l"/><path fill="#1692D0" d="M0 58h29v2H0z"/><use stroke="#1692D0" mask="url(#F)" stroke-width="4" xlink:href="#m"/><use stroke="#1692D0" mask="url(#G)" stroke-width="4" xlink:href="#n"/><path d="M7.5 29.5l3-3M21.5 29.5l-3-3" stroke="#1692D0" stroke-width="2" stroke-linecap="square"/><use stroke="#1692D0" mask="url(#H)" stroke-width="4" xlink:href="#o"/></g><g transform="matrix(-1 0 0 1 236 71)"><g fill="#39393A"><path d="M117.079 76.068H42.01V1.998h75.069v74.07zm.144 1.97c.976 0 1.777-.777 1.777-1.757V1.78C119 .802 118.199 0 117.223 0h-75.4a1.77 1.77 0 0 0-1.778 1.78V76.28c0 .98.776 1.757 1.777 1.757h75.4zM35.05 76.089H1.99v-18l10.963-21.05H35.05v39.05zm.178 1.963c.976 0 1.752-.777 1.752-1.757v-39.5c0-.977-.776-1.779-1.752-1.779H12.953c-.676 0-1.302.401-1.602 1.003L.212 57.31c-.1.25-.175.526-.175.777v18.207c0 .98.801 1.757 1.777 1.757h33.414z"/><path d="M29.98 56.022H8.99l7.02-14.01H29.98v14.01zm.15 1.975a1.77 1.77 0 0 0 1.778-1.78V41.875c0-.978-.801-1.78-1.778-1.78l-14.12-.013c-.679 0-1.305.401-1.605 1L7.22 55.632c-.275.551-.225.999.1 1.525.326.526.879.827 1.502.827l21.308.013z"/></g><path fill="#39393A" d="M40 60h79v2H40z"/><use stroke="#39393A" mask="url(#I)" stroke-width="4" fill="#FFF" xlink:href="#p"/><use stroke="#39393A" mask="url(#J)" stroke-width="4" fill="#FFF" xlink:href="#q"/><use stroke="#39393A" mask="url(#K)" stroke-width="4" fill="#FFF" xlink:href="#r"/></g><use stroke="#39393A" mask="url(#L)" stroke-width="4" transform="matrix(-1 0 0 1 124 0)" xlink:href="#s"/><path fill="#39393A" d="M125 13H0v2h125z"/></g></svg>