<svg viewBox="0 0 160 159" xmlns="http://www.w3.org/2000/svg" xmlns:xlink="http://www.w3.org/1999/xlink"><defs><path id="a" d="M124 65l36 26v66h-36z"/><mask id="v" x="0" y="0" width="36" height="92" fill="#fff"><use xlink:href="#a"/></mask><path id="b" d="M0 0h34v34H0z"/><mask id="w" x="0" y="0" width="34" height="34" fill="#fff"><use xlink:href="#b"/></mask><path id="c" d="M7.975 14.023l18.046-3.05v9.12L7.975 23.005z"/><mask id="x" x="0" y="0" width="18.046" height="12.031" fill="#fff"><use xlink:href="#c"/></mask><path d="M.322.002H6.28V15.92a2.978 2.978 0 0 1-2.98 2.972 2.974 2.974 0 0 1-2.98-2.972V.002z" id="d"/><mask id="y" x="0" y="0" width="5.959" height="18.89" fill="#fff"><use xlink:href="#d"/></mask><path d="M.322.002H6.28V15.92a2.978 2.978 0 0 1-2.98 2.972 2.974 2.974 0 0 1-2.98-2.972V.002z" id="e"/><mask id="z" x="0" y="0" width="5.959" height="18.89" fill="#fff"><use xlink:href="#e"/></mask><path d="M.322.002H6.28V15.92a2.978 2.978 0 0 1-2.98 2.972 2.974 2.974 0 0 1-2.98-2.972V.002z" id="f"/><mask id="A" x="0" y="0" width="5.959" height="18.89" fill="#fff"><use xlink:href="#f"/></mask><path id="g" d="M0 0h34v34H0z"/><mask id="B" x="0" y="0" width="34" height="34" fill="#fff"><use xlink:href="#g"/></mask><path id="h" d="M7.975 14.023l18.046-3.05v9.12L7.975 23.005z"/><mask id="C" x="0" y="0" width="18.046" height="12.031" fill="#fff"><use xlink:href="#h"/></mask><path d="M.322.002H6.28V15.92a2.978 2.978 0 0 1-2.98 2.972 2.974 2.974 0 0 1-2.98-2.972V.002z" id="i"/><mask id="D" x="0" y="0" width="5.959" height="18.89" fill="#fff"><use xlink:href="#i"/></mask><path d="M.322.002H6.28V15.92a2.978 2.978 0 0 1-2.98 2.972 2.974 2.974 0 0 1-2.98-2.972V.002z" id="j"/><mask id="E" x="0" y="0" width="5.959" height="18.89" fill="#fff"><use xlink:href="#j"/></mask><path d="M.322.002H6.28V15.92a2.978 2.978 0 0 1-2.98 2.972 2.974 2.974 0 0 1-2.98-2.972V.002z" id="k"/><mask id="F" x="0" y="0" width="5.959" height="18.89" fill="#fff"><use xlink:href="#k"/></mask><path id="l" d="M0 0h34v34H0z"/><mask id="G" x="0" y="0" width="34" height="34" fill="#fff"><use xlink:href="#l"/></mask><path id="m" d="M7.975 14.023l18.046-3.05v9.12L7.975 23.005z"/><mask id="H" x="0" y="0" width="18.046" height="12.031" fill="#fff"><use xlink:href="#m"/></mask><path d="M.322.002H6.28V15.92a2.978 2.978 0 0 1-2.98 2.972 2.974 2.974 0 0 1-2.98-2.972V.002z" id="n"/><mask id="I" x="0" y="0" width="5.959" height="18.89" fill="#fff"><use xlink:href="#n"/></mask><path d="M.322.002H6.28V15.92a2.978 2.978 0 0 1-2.98 2.972 2.974 2.974 0 0 1-2.98-2.972V.002z" id="o"/><mask id="J" x="0" y="0" width="5.959" height="18.89" fill="#fff"><use xlink:href="#o"/></mask><path d="M.322.002H6.28V15.92a2.978 2.978 0 0 1-2.98 2.972 2.974 2.974 0 0 1-2.98-2.972V.002z" id="p"/><mask id="K" x="0" y="0" width="5.959" height="18.89" fill="#fff"><use xlink:href="#p"/></mask><path id="q" d="M38 32h2v6h-2z"/><mask id="L" x="0" y="0" width="2" height="6" fill="#fff"><use xlink:href="#q"/></mask><path id="r" d="M50 38h2v6h-2z"/><mask id="M" x="0" y="0" width="2" height="6" fill="#fff"><use xlink:href="#r"/></mask><path id="s" d="M62 44h2v6h-2z"/><mask id="N" x="0" y="0" width="2" height="6" fill="#fff"><use xlink:href="#s"/></mask><path d="M3 9h12v43.994A6.007 6.007 0 0 1 9 59H3V9z" id="t"/><mask id="O" x="0" y="0" width="12" height="50" fill="#fff"><use xlink:href="#t"/></mask><circle id="u" cx="77" cy="50" r="3"/><mask id="P" x="0" y="0" width="6" height="6" fill="#fff"><use xlink:href="#u"/></mask></defs><g transform="translate(0 1)" fill="none" fill-rule="evenodd"><path d="M4 156.014V11.196c0-.557.455-1.013.998-1.017l26.993-.215a1.01 1.01 0 0 0 .997-1V.992c0-.547.45-.991 1.002-.991h42.004c.553 0 1.382.237 1.852.53L92.17 9.447c.47.292 1.302.53 1.843.53h30.004c.549 0 .993.444.993.99V155.95L4 156.014z" stroke="#39393A" stroke-width="2" stroke-linecap="round" stroke-linejoin="round"/><use stroke="#39393A" mask="url(#v)" stroke-width="4" xlink:href="#a"/><path fill="#39393A" d="M0 9h128v2H0z"/><g transform="translate(9 121)" stroke="#39393A" stroke-width="4"><use mask="url(#w)" xlink:href="#b"/><use mask="url(#x)" xlink:href="#c"/></g><g transform="translate(89 117)"><use mask="url(#y)" xlink:href="#d" transform="translate(1.724)" stroke="#1692D0" stroke-width="4" fill="#FFF"/><rect fill="#1692D0" x=".981" width="8.028" height="2.048" rx="1.024"/></g><g transform="translate(98 117)"><use mask="url(#z)" xlink:href="#e" transform="translate(1.724)" stroke="#1692D0" stroke-width="4" fill="#FFF"/><rect fill="#1692D0" x=".981" width="8.028" height="2.048" rx="1.024"/></g><g transform="translate(107 117)"><use mask="url(#A)" xlink:href="#f" transform="translate(1.724)" stroke="#1692D0" stroke-width="4" fill="#FFF"/><rect fill="#1692D0" x=".981" width="8.028" height="2.048" rx="1.024"/></g><g transform="translate(86 121)" stroke="#39393A" stroke-width="4"><use mask="url(#B)" fill="#FFF" xlink:href="#g"/><use mask="url(#C)" xlink:href="#h"/></g><g transform="translate(50 113)"><use mask="url(#D)" xlink:href="#i" transform="translate(1.724)" stroke="#1692D0" stroke-width="4" fill="#FFF"/><rect fill="#1692D0" x=".981" width="8.028" height="2.048" rx="1.024"/></g><g transform="translate(59 113)"><use mask="url(#E)" xlink:href="#j" transform="translate(1.724)" stroke="#1692D0" stroke-width="4" fill="#FFF"/><rect fill="#1692D0" x=".981" width="8.028" height="2.048" rx="1.024"/></g><g transform="translate(68 113)"><use mask="url(#F)" xlink:href="#k" transform="translate(1.724)" stroke="#1692D0" stroke-width="4" fill="#FFF"/><rect fill="#1692D0" x=".981" width="8.028" height="2.048" rx="1.024"/></g><g transform="translate(47 121)" stroke="#39393A" stroke-width="4"><use mask="url(#G)" fill="#FFF" xlink:href="#l"/><use mask="url(#H)" xlink:href="#m"/></g><g transform="translate(58 50)"><use mask="url(#I)" xlink:href="#n" transform="translate(1.724)" stroke="#1692D0" stroke-width="4" fill="#FFF"/><rect fill="#1692D0" x=".981" width="8.028" height="2.048" rx="1.024"/></g><g transform="translate(46 44)"><use mask="url(#J)" xlink:href="#o" transform="translate(1.724)" stroke="#1692D0" stroke-width="4" fill="#FFF"/><rect fill="#1692D0" x=".981" width="8.028" height="2.048" rx="1.024"/></g><g transform="translate(34 38)"><use mask="url(#K)" xlink:href="#p" transform="translate(1.724)" stroke="#1692D0" stroke-width="4" fill="#FFF"/><rect fill="#1692D0" x=".981" width="8.028" height="2.048" rx="1.024"/></g><use stroke="#39393A" mask="url(#L)" stroke-width="2" fill="#D8D8D8" xlink:href="#q"/><use stroke="#39393A" mask="url(#M)" stroke-width="2" fill="#D8D8D8" xlink:href="#r"/><use stroke="#39393A" mask="url(#N)" stroke-width="2" fill="#D8D8D8" xlink:href="#s"/><path fill="#39393A" d="M76 10h2v41h-2z"/><use stroke="#39393A" mask="url(#O)" stroke-width="4" xlink:href="#t"/><path fill="#39393A" d="M13 18l63 31v2L13 20z"/><use stroke="#39393A" mask="url(#P)" stroke-width="4" fill="#FFF" xlink:href="#u"/></g></svg>