<svg xmlns="http://www.w3.org/2000/svg" xmlns:xlink="http://www.w3.org/1999/xlink" viewBox="0 0 269 181"><defs><path id="path-1" d="M37.145 33.805c.472-.997 1.752-1.805 2.863-1.805h115.984c1.11 0 2.395.816 2.863 1.805l7.29 15.39c.472.997-.044 1.805-1.149 1.805H31.004c-1.107 0-1.617-.816-1.15-1.805l7.291-15.39z"/><rect id="path-2" width="102" height="14" rx="7"/><rect id="path-3" width="2" height="8.68965517" x="11.020874" y="12.4265137"/><circle id="path-4" cx="12" cy="3" r="3"/><path id="path-5" d="M11.997 11.625a3.12 3.12 0 0 0-.063-.27s-.295-2.865-3.23-5.417c-2.936-2.552-6.752-2.59-6.752-2.59C.858 3.208.18 4 .452 5.067c0 0 .592 3.808 3.522 6.354 2.929 2.546 5.8 2.434 5.8 2.434 1.188.192 2.023-.367 2.223-1.297.2.93 1.036 1.49 2.223 1.297 0 0 2.872.112 5.801-2.434 2.93-2.546 3.522-6.354 3.522-6.354.272-1.067-.406-1.86-1.5-1.719 0 0-3.816.038-6.752 2.59-2.935 2.552-3.23 5.418-3.23 5.418a3.12 3.12 0 0 0-.064.269z"/><circle id="path-6" cx="11" cy="2" r="2"/></defs><g id="Medical-day" fill="none" fill-rule="evenodd"><g id="medical_day_mobile" transform="translate(-21.000000, -475.000000)"><g id="1_illustration" transform="translate(-1.000000, 475.000000)"><g id="Group-20" transform="translate(23.000000, 11.000000)"><g id="Group-8" stroke="#1692D0" stroke-width="2" transform="translate(127.000000, 143.000000)"><rect id="Rectangle-37" width="23" height="23" x="1" y="1"/><g id="Group-7" stroke-linecap="square" transform="translate(2.000000, 2.000000)"><path id="Line" d="M.617.617l19.745 19.745"/><path id="Line-Copy-2" d="M.617.617l19.745 19.745" transform="translate(10.489509, 10.489509) scale(-1, 1) translate(-10.489509, -10.489509)"/></g></g><path id="Rectangle-38" stroke="#39393A" stroke-width="2" d="M122 108h35v61h-35v-61z"/><path id="Path-3-Copy-2" stroke="#39393A" stroke-width="2" d="M39.35 168.965L39.003 34H157.01v134.148l-117.66.817z"/><path id="Rectangle-30" stroke="#39393A" stroke-width="2" d="M60 82h4v4h-4v-4z"/><g id="Group-11-Copy" stroke="#1692D0" stroke-width="2" transform="translate(56.000000, 113.000000)"><path id="Rectangle-46" d="M7.027 4.01H5.04V1.002c0 .003.005-.002.006-.002h1.975c.006 0 .006 0 .006.002V4.01z"/><path id="Rectangle-45" d="M4.497 4.682h3.051l3.03 3.296v18.02c0-.004-.005.002-.004.002H1.267c-.006 0-.004.002-.004-.003V7.995l3.234-3.313z"/></g><g id="Group-11-Copy-2" stroke="#1692D0" stroke-width="2" transform="translate(57.000000, 113.000000)"><path id="Rectangle-46" d="M33.667.999V.993 1zm0 0l.002.001h1.662s.002.003.002-.007V3.91h-1.666V1z"/><path id="Rectangle-45" d="M39.001 26h.003-.003zM30 26h-.004s.003.003.004 0zm3.234-21.318h2.736L39 7.978v18.02l.001.002H30V7.995l3.234-3.313z"/><path id="Path-9" d="M29.665 8.758s5.587.744 9.112-1.759"/><path id="Path-9-Copy" d="M.665 8.758S6.252 9.502 9.777 7"/></g><g id="Group-16" fill="#39393A" transform="translate(121.000000, 114.000000)"><rect id="Rectangle-3" width="37" height="2"/></g><g id="Rectangle-5"><use fill="#FFF" xlink:href="#path-1"/><path stroke="#39393A" stroke-width="2" d="M38.049 34.233c.307-.648 1.234-1.233 1.959-1.233h115.984c.72 0 1.655.591 1.96 1.233l7.29 15.39c.156.331.127.377-.246.377H31.004c-.37 0-.4-.049-.245-.377l7.29-15.39z"/></g><path id="Path-11" stroke="#1692D0" stroke-width="2" d="M50 62.702s4.572 4.441 10.298 3.236C66.025 64.734 67.244 62 73.303 62"/><path id="Rectangle-52" stroke="#39393A" stroke-width="2" d="M50 50h24v27.002c0 .196-.199.544-.368.644l-6.759 3.986c-.32.188-.981.368-1.353.368h-6.88c-.374 0-1.044-.18-1.36-.363l-6.92-4.005c-.162-.094-.36-.44-.36-.63V50z"/><g id="Group-5" transform="translate(9.000000, 140.000000)"><g id="Rectangle-36"><use fill="#FFF" xlink:href="#path-2"/><rect width="100" height="12" x="1" y="1" stroke="#39393A" stroke-width="2" rx="6"/></g><circle id="Oval-8" cx="7" cy="7" r="6" stroke="#39393A" stroke-width="2"/><circle id="Oval-8-Copy" cx="95" cy="7" r="6" stroke="#39393A" stroke-width="2"/><circle id="Oval-8-Copy-3" cx="51" cy="7" r="6" stroke="#39393A" stroke-width="2"/></g><path id="Combined-Shape" fill="#FFF" stroke="#39393A" stroke-linecap="round" stroke-linejoin="round" stroke-width="2" d="M.067 89H0v80h39V89H23.933L18 0H6L.067 89z"/></g><g id="Group-25-Copy-2" transform="translate(197.000000, 158.000000)"><g id="Rectangle-7"><use fill="#D8D8D8" xlink:href="#path-3"/><rect width="1" height="6.68965517" x="12.020874" y="13.4265137" stroke="#39393A" stroke-width="2"/></g><g id="Oval-10"><use fill="#FFF" xlink:href="#path-4"/><circle cx="12" cy="3" r="2" stroke="#1692D0" stroke-width="2"/></g><g id="Combined-Shape"><use fill="#FFF" xlink:href="#path-5"/><path stroke="#39393A" stroke-width="2" d="M11.968 11.346l-.034.01.063-.007.03-.003.902-.093a3.296 3.296 0 0 0-.01-.087c-.049-.376-.182-.936-.445-1.623a10.142 10.142 0 0 0-.477-1.057c-.182.35-.34.704-.476 1.057-.263.687-.396 1.247-.445 1.623-.004.03-.008.06-.01.087l.902.093.03.003.062.007-.034-.01-.029-.008-.9-.252a4.266 4.266 0 0 0-.083.355l.983.184.983-.184a4.078 4.078 0 0 0-.083-.355l-.9.252-.029.008zm.956.765l.056-.303c.011-.06.026-.12.043-.182l.032-.168c.021-.208.116-.632.334-1.2.373-.973.967-1.952 1.835-2.872.224-.238.466-.47.723-.694.47-.407.983-.76 1.537-1.063a10.773 10.773 0 0 1 3.17-1.113c.379-.072.73-.119 1.042-.146.18-.016.302-.021.356-.022l.118-.008c.385-.05.504.088.404.48a9.772 9.772 0 0 1-.326 1.283c-.299.927-.72 1.854-1.284 2.713a8.897 8.897 0 0 1-1.599 1.85c-1.122.975-2.305 1.593-3.483 1.928-.72.205-1.289.268-1.628.261h.005l-.2.013c-.648.105-.995-.105-1.084-.52l-.051-.237zm-1.853 0l-.051.237c-.09.415-.436.625-1.085.52l-.2-.012h.006c-.34.006-.908-.057-1.629-.262-1.178-.335-2.36-.953-3.482-1.928a8.897 8.897 0 0 1-1.6-1.85 11.253 11.253 0 0 1-1.59-3.903c-.119-.485 0-.622.384-.573l.118.008c.054 0 .176.006.357.022.312.027.663.074 1.042.146 1.084.204 2.167.564 3.17 1.113a8.694 8.694 0 0 1 1.536 1.063c.258.225.5.456.724.694.867.92 1.462 1.899 1.835 2.873.218.567.312.991.334 1.2l.032.167c.017.062.031.123.042.182l.057.303z"/></g></g><g id="Group-30" transform="translate(249.000000, 0.000000)"><rect id="Rectangle-59" width="2" height="151" x="34" y="7" fill="#39393A"/><circle id="Oval-4" cx="35" cy="4" r="3" stroke="#39393A" stroke-width="2"/><g id="Group-6" fill="#39393A" transform="translate(30.000000, 15.000000)"><rect id="Rectangle-47" width="6" height="2"/><rect id="Rectangle-47-Copy" width="6" height="2" y="10"/><rect id="Rectangle-47-Copy-2" width="6" height="2" y="20"/></g><g id="Group-11" stroke="#1692D0" stroke-width="2" transform="translate(0.000000, 10.000000)"><rect id="Rectangle-32" width="30" height="30" x="1" y="1" rx="1"/><path id="Combined-Shape" d="M23 19h-4v4c0-.003-.003 0 .003 0H13v-4H9c.003 0 0-.003 0 .003V13h4V9c0 .003.003 0-.003 0H19v4h4c-.003 0 0 .003 0-.003V19z"/></g><path id="Rectangle-61" stroke="#39393A" stroke-width="2" d="M40.873 180H29.127l2.628-21.898c.071-.596.641-1.102 1.243-1.102h4.004c.596 0 1.172.51 1.243 1.102L40.873 180z"/></g><g id="Group-10" transform="translate(240.000000, 158.000000)"><path id="Fill-43" fill="#39393A" d="M15.729 21.917a9.576 9.576 0 0 0 2.86-1.95c3.188-3.166 2.933-7.355 2.92-7.531a.482.482 0 0 0-.448-.446s-.116-.008-.323-.008c-.468 0-1.47.048-2.678.359 2.212-6.136 1.52-10.738 1.487-10.936a.483.483 0 0 0-.783-.297c-.152.124-3.53 2.912-5.97 8.572-.72-1.038-1.39-1.63-1.45-1.684a.488.488 0 0 0-.635 0c-.06.053-.726.643-1.444 1.676-2.44-5.655-5.817-8.44-5.968-8.564a.483.483 0 0 0-.782.297c-.033.198-.725 4.798 1.486 10.933a11.083 11.083 0 0 0-2.67-.358c-.207 0-.323.01-.323.01a.483.483 0 0 0-.449.446c-.012.176-.266 4.365 2.92 7.532.906.9 1.9 1.518 2.863 1.949h9.387z"/><path id="Fill-1" fill="#FFF" stroke="#39393A" d="M1.522 12.944a10.29 10.29 0 0 1 2.912.52c1.781 4.352 4.144 7.098 5.368 8.323l.066.082c.005 0 .01 0 .016.002l-.016-.002c-1.38-.136-3.773-.659-5.706-2.58-2.297-2.282-2.609-5.24-2.64-6.345"/><path id="Fill-3" fill="#FFF" stroke="#39393A" d="M3.384 2.506c1.162 1.165 3.529 3.896 5.255 8.18a9.984 9.984 0 0 0-1.116 3.292 9.517 9.517 0 0 0-.1 1.15c-.001.082-.01.162-.01.246 0 .795.103 1.534.268 2.218a26.33 26.33 0 0 1-2.514-4.884c-.025-.061-.05-.12-.074-.183C3.357 7.99 3.294 4.198 3.384 2.505"/><path id="Fill-5" fill="#FFF" stroke="#39393A" d="M9.4 11.328a10.492 10.492 0 0 1 1.627-2.295 10.098 10.098 0 0 1 1.92 2.912 8.716 8.716 0 0 1 .728 3.43c0 .266-.017.524-.041.778-.21 2.214-1.265 3.927-2.05 4.916l-.046.059v.012l.017-.017-.017.017v-.012a2.003 2.003 0 0 1-.063.075 10.09 10.09 0 0 1-.387.445l-.062.067-.054-.058a9.12 9.12 0 0 1-.026.26l.026-.261a9.06 9.06 0 0 1-.38-.434c-.005.051-.008.095-.011.143v-.002l.01-.141-.02-.026c0 .03.003.055.004.081l-.005-.081c-.016-.02-.032-.037-.048-.058l-.036-.044v-.001c-.79-.987-1.862-2.714-2.068-4.96a8.319 8.319 0 0 1-.038-.759 8.71 8.71 0 0 1 .732-3.435c.092-.212.188-.417.288-.611"/><path id="Fill-8" fill="#FFF" stroke="#39393A" d="M18.678 2.504c.091 1.688.032 5.473-1.71 10.021-.024.064-.05.124-.075.187a26.415 26.415 0 0 1-2.525 4.897 9.44 9.44 0 0 0 .272-2.235c0-.08-.008-.156-.01-.234a9.416 9.416 0 0 0-.1-1.151 9.96 9.96 0 0 0-1.111-3.293c1.726-4.292 4.098-7.026 5.26-8.192"/><path id="Fill-10" fill="#FFF" stroke="#39393A" d="M20.547 12.944c-.032 1.106-.344 4.063-2.64 6.345-1.943 1.93-4.347 2.45-5.723 2.583l-.04.045.04-.045h-.01v.001a10.716 10.716 0 0 1-.653.042v-.001a7.813 7.813 0 0 0 .653-.041l.01-.001c.01-.015.024-.032.037-.047 1.213-1.206 3.607-3.965 5.405-8.358a10.334 10.334 0 0 1 2.921-.523"/><g id="Oval-10"><use fill="#FFF" xlink:href="#path-6"/><circle cx="11" cy="2" r="1" stroke="#1692D0" stroke-width="2"/></g></g></g></g></g></svg>