<svg xmlns="http://www.w3.org/2000/svg" xmlns:xlink="http://www.w3.org/1999/xlink" viewBox="0 0 280 187"><defs><rect id="path-1" width="280" height="28" rx="2"/><circle id="path-2" cx="20" cy="2" r="2"/><path id="path-3" d="M.322.002H6.28V15.92a2.978 2.978 0 0 1-2.98 2.972 2.974 2.974 0 0 1-2.98-2.972V.002z"/><path id="path-4" d="M.322.002H6.28V15.92a2.978 2.978 0 0 1-2.98 2.972 2.974 2.974 0 0 1-2.98-2.972V.002z"/><path id="path-5" d="M.322.002H6.28V15.92a2.978 2.978 0 0 1-2.98 2.972 2.974 2.974 0 0 1-2.98-2.972V.002z"/><rect id="path-6" width="34" height="34"/><path id="path-7" d="M.322.002H6.28V15.92a2.978 2.978 0 0 1-2.98 2.972 2.974 2.974 0 0 1-2.98-2.972V.002z"/><path id="path-8" d="M.322.002H6.28V15.92a2.978 2.978 0 0 1-2.98 2.972 2.974 2.974 0 0 1-2.98-2.972V.002z"/><path id="path-9" d="M.322.002H6.28V15.92a2.978 2.978 0 0 1-2.98 2.972 2.974 2.974 0 0 1-2.98-2.972V.002z"/><rect id="path-10" width="34" height="34"/><path id="path-11" d="M.322.002H6.28V15.92a2.978 2.978 0 0 1-2.98 2.972 2.974 2.974 0 0 1-2.98-2.972V.002z"/><path id="path-12" d="M.322.002H6.28V15.92a2.978 2.978 0 0 1-2.98 2.972 2.974 2.974 0 0 1-2.98-2.972V.002z"/><path id="path-13" d="M.322.002H6.28V15.92a2.978 2.978 0 0 1-2.98 2.972 2.974 2.974 0 0 1-2.98-2.972V.002z"/><rect id="path-14" width="2" height="6" x="118" y="61"/><rect id="path-15" width="2" height="6" x="130" y="67"/><rect id="path-16" width="2" height="6" x="142" y="73"/><circle id="path-17" cx="157" cy="79" r="3"/><path id="path-18" d="M3.072 10.938C.408 13.188.588 15.31.588 15.31c-.308 1.623.781 2.966 2.444 2.855 0 0 2.108.505 4.77-1.744 2.66-2.249 2.708-5.317 2.708-5.317.169-1.088-.579-2.005-1.69-1.981 0 0-3.084-.437-5.748 1.815z"/><path id="path-19" d="M13.088 10.938c-2.664 2.25-2.484 4.372-2.484 4.372-.308 1.623.781 2.966 2.444 2.855 0 0 2.108.505 4.77-1.744 2.661-2.249 2.708-5.317 2.708-5.317.169-1.088-.579-2.005-1.69-1.981 0 0-3.084-.437-5.748 1.815z"/><path id="path-20" d="M7.505 6.105c-2.936 2.552-3.48 6.8-3.48 6.8-.378 1.612.65 2.843 2.294 2.67 0 0 4.272.091 7.201-2.455 2.93-2.546 3.714-7.741 3.714-7.741.234-1.08-.462-1.914-1.563-1.826 0 0-5.23 0-8.166 2.552z"/></defs><g id="Medical-day" fill="none" fill-rule="evenodd"><g id="medical_day_mobile" transform="translate(-20.000000, -1712.000000)"><g id="3_illustration" transform="translate(-1.000000, 1712.000000)"><g id="three_direction" transform="translate(21.000000, 0.000000)"><polygon id="Rectangle-14" fill="#FFF" points="84 38.9705756 113.038574 38.9705756 113.038574 28.6977539 156.646484 28.6977539 172.344238 38.7412109 205 39.2568359 205 109 84 109"/><path id="Path-3" stroke="#39393A" stroke-linecap="round" stroke-linejoin="round" stroke-width="2" d="M84 185.014V40.196c0-.557.455-1.013.998-1.017l26.993-.215a1.01 1.01 0 0 0 .997-1v-7.973c0-.547.45-.991 1.002-.991h42.004c.553 0 1.382.237 1.852.53l14.324 8.918c.47.292 1.302.53 1.843.53h30.004c.549 0 .993.444.993.99V184.95L84 185.014z"/><g id="Group-24"><rect id="Rectangle-56" width="76" height="15" x="99" y="23" fill="#FFF"/><path id="Path-25" stroke="#39393A" stroke-width="2" d="M109 21.751v17.404"/><path id="Path-25-Copy-3" stroke="#39393A" stroke-width="2" d="M180 21.751v17.404"/><g id="Rectangle-59"><use fill="#FFF" xlink:href="#path-1"/><rect width="278" height="26" x="1" y="1" stroke="#1692D0" stroke-width="2" rx="2"/></g><path id="Combined-Shape" fill="#1692D0" d="M17.343 18.081c-1.684.151-3.08.227-4.19.227-.74 0-1.285-.174-1.632-.521-.347-.348-.521-.891-.521-1.631V12.53c0-.793.18-1.369.538-1.727.359-.36.935-.539 1.727-.539h4.078v1.586H13.72c-.454 0-.68.227-.68.68v3.625c0 .173.05.311.153.413a.53.53 0 0 0 .39.153 26.207 26.207 0 0 0 1.11-.023l.618-.022c.208-.008.476-.023.804-.046.329-.022.738-.049 1.23-.079v1.53zm7.865-7.816h5.946v6.344h.85v3.058h-1.926l-.113-1.472h-4.418l-.113 1.472H23.51V16.61h.736c.219-.25.383-.53.493-.844a3.19 3.19 0 0 0 .186-.855l.284-4.645zm3.908 6.344V11.85H27.02l-.17 2.832c-.023.46-.136.925-.34 1.393a3.217 3.217 0 0 1-.283.533h2.889zm11.918 1.586h-2.04v-3.229h-2.831v3.229h-2.04v-7.93h2.04v3.115h2.832v-3.115h2.039v7.93zm8.86 0h-6.288v-7.93h6.287v1.586h-4.248v1.53h3.342v1.585h-3.342v1.643h4.248v1.586zM44.512 8h1.925v1.586h-1.925V8zm2.605 0h1.926v1.586h-1.926V8zm11.691 5.777l-1.586 2.832h-1.585l-1.586-2.832v4.418h-2.04v-7.93h2.153l2.266 4.192 2.265-4.192h2.152v7.93H58.81v-4.418zm16.02 0l-1.585 2.832h-1.586l-1.586-2.832v4.418h-2.04v-7.93h2.153l2.266 4.192 2.265-4.192h2.152v7.93H74.83v-4.418zm10.899 4.418H79.44v-7.93h6.287v1.586H81.48v1.53h3.342v1.585H81.48v1.643h4.248v1.586zm3.252-7.93h5.947v6.344h.85v3.058H93.85l-.113-1.472H89.32l-.113 1.472H87.28V16.61h.737c.219-.25.383-.53.492-.844a3.19 3.19 0 0 0 .187-.855l.283-4.645zm3.908 6.344V11.85h-2.095l-.17 2.832c-.023.46-.136.925-.34 1.393a3.217 3.217 0 0 1-.283.533h2.888zm11.918 1.586h-2.039v-4.871l-2.718 4.87h-2.152v-7.929h2.038v4.871l2.719-4.87h2.152v7.929zm2.573 0v-7.93h2.039v6.344h2.832v-6.344h2.039v6.344h.85v3.058h-1.926l-.114-1.472h-5.72zm16.789 0h-2.04v-4.871l-2.718 4.87h-2.152v-7.929h2.04v4.871l2.718-4.87h2.152v7.929zm9.482 0h-2.039v-3.229h-2.831v3.229h-2.04v-7.93h2.04v3.115h2.831v-3.115h2.04v7.93zm8.69-.114c-1.684.151-3.081.227-4.191.227-.74 0-1.284-.174-1.631-.521-.348-.348-.521-.891-.521-1.631V12.53c0-.793.18-1.369.538-1.727.358-.36.934-.539 1.727-.539h4.078v1.586h-3.625c-.453 0-.68.227-.68.68v3.625c0 .173.052.311.154.413a.53.53 0 0 0 .39.153 26.207 26.207 0 0 0 1.11-.023l.618-.022c.207-.008.476-.023.804-.046.329-.022.738-.049 1.229-.079v1.53zm7.897-7.929c.189 0 .528.038 1.02.113v1.53h-.454a.48.48 0 0 0-.306.107.772.772 0 0 0-.204.232l-1.076 2.04 2.21 4.02h-2.153l-1.756-3.228h-1.02v3.229h-2.038v-7.93h2.039v3.115h1.02l1.132-2.152c.166-.317.372-.576.617-.776.246-.2.569-.3.969-.3zm8.18 2.266c0-.453-.227-.68-.68-.68h-1.926c-.453 0-.68.227-.68.68v3.624c0 .453.227.68.68.68h1.926c.453 0 .68-.227.68-.68v-3.624zm2.039 3.624c0 .793-.18 1.37-.538 1.728-.36.358-.935.538-1.728.538h-2.832c-.793 0-1.368-.18-1.727-.538-.359-.359-.538-.935-.538-1.728v-3.624c0-.793.18-1.37.538-1.728.359-.358.934-.538 1.727-.538h2.832c.793 0 1.369.18 1.728.538.358.359.538.935.538 1.728v3.624zm4.385 2.153h-2.039v-7.93h6.173v1.586h-4.134v6.344zm11.238-5.777c0-.453-.226-.68-.68-.68h-1.925c-.453 0-.68.227-.68.68v3.624c0 .453.227.68.68.68h1.926c.453 0 .68-.227.68-.68v-3.624zm2.04 3.624c0 .793-.18 1.37-.539 1.728-.359.358-.934.538-1.727.538h-2.832c-.793 0-1.369-.18-1.728-.538-.358-.359-.538-.935-.538-1.728v-3.624c0-.793.18-1.37.538-1.728.36-.358.935-.538 1.728-.538h2.832c.793 0 1.368.18 1.727.538.359.359.538.935.538 1.728v3.624zm6.957-5.777h4.758c.793 0 1.368.18 1.727.539.359.358.538.934.538 1.727v1.133c0 .793-.18 1.368-.538 1.727-.359.359-.934.538-1.727.538h-2.719v2.266h-2.039v-7.93zm4.984 2.266c0-.453-.226-.68-.68-.68h-2.265v2.492h2.266c.453 0 .68-.226.68-.68v-1.132zm5.688 5.664h-2.209l3.002-7.93h2.266l3.001 7.93H199.6l-.51-1.416h-2.832l-.51 1.416zm1.02-2.889h1.812l-.906-2.662-.906 2.662zm8.86-1.982h2.718c.793 0 1.369.18 1.727.538.359.359.538.934.538 1.727v.34c0 .793-.18 1.369-.538 1.728-.358.358-.934.538-1.727.538h-4.758v-7.93h6.287v1.586h-4.248v1.473zm2.944 2.265c0-.453-.226-.68-.68-.68h-2.265v1.7h2.266c.453 0 .68-.227.68-.68v-.34zm9.37-3.171c0-.453-.227-.68-.68-.68h-1.926c-.453 0-.68.227-.68.68v3.624c0 .453.227.68.68.68h1.926c.453 0 .68-.227.68-.68v-3.624zm2.039 3.624c0 .793-.18 1.37-.538 1.728-.36.358-.935.538-1.728.538h-2.832c-.793 0-1.368-.18-1.727-.538-.359-.359-.538-.935-.538-1.728v-3.624c0-.793.18-1.37.538-1.728.359-.358.934-.538 1.727-.538h2.832c.793 0 1.369.18 1.728.538.358.359.538.935.538 1.728v3.624zm6.197 2.153h-2.039V11.85h-2.378v-1.586h6.796v1.586h-2.379v6.344zm11.295 0h-2.039v-3.229h-2.832v3.229h-2.039v-7.93h2.04v3.115h2.831v-3.115h2.04v7.93zm9.483 0h-2.04v-4.871l-2.718 4.87h-2.152v-7.929h2.039v4.871l2.719-4.87h2.152v7.929zm8.35-8.043c.188 0 .528.038 1.019.113v1.53h-.453a.48.48 0 0 0-.306.107.772.772 0 0 0-.204.232l-1.076 2.04 2.209 4.02h-2.152l-1.756-3.228h-1.02v3.229h-2.038v-7.93h2.039v3.115h1.019l1.133-2.152c.166-.317.372-.576.617-.776.245-.2.568-.3.969-.3zm4.498 8.043h-2.209l3.002-7.93h2.265l3.002 7.93h-2.209l-.51-1.416h-2.831l-.51 1.416zm1.02-2.889l.906-2.662.906 2.662h-1.812zm8.874-.304h-1.956l-.302-5.606H270l-.302 5.606zm-2.234 2.074c0-.36.106-.639.32-.838.213-.2.523-.3.93-.3.403 0 .708.1.916.3.207.2.31.479.31.838 0 .356-.107.633-.322.833-.216.2-.517.3-.904.3-.391 0-.697-.1-.918-.3-.222-.2-.332-.477-.332-.833z"/></g><path id="Rectangle-13" stroke="#39393A" stroke-width="2" d="M205 95.956l34 24.555V185h-34V95.956z"/><g id="Group-25-Copy" transform="translate(249.000000, 163.000000)"><g id="Group-27" transform="translate(0.000000, 1.000000)"><path id="Fill-43" fill="#39393A" d="M44.724 20.917H24.729a9.576 9.576 0 0 0 2.86-1.95c3.188-3.166 2.933-7.355 2.92-7.531a.482.482 0 0 0-.448-.446s-.115-.008-.323-.008c-.467 0-1.47.048-2.678.359C29.272 5.205 28.58.603 28.547.405a.483.483 0 0 0-.783-.297c-.152.124-3.53 2.912-5.97 8.572-.72-1.038-1.39-1.63-1.45-1.684a.488.488 0 0 0-.635 0c-.06.053-.726.643-1.444 1.676-2.44-5.655-5.817-8.44-5.968-8.564a.483.483 0 0 0-.782.297c-.032.198-.725 4.798 1.486 10.933a11.083 11.083 0 0 0-2.67-.358c-.207 0-.323.01-.323.01a.483.483 0 0 0-.449.446c-.012.176-.266 4.365 2.92 7.532.906.9 1.9 1.518 2.863 1.949H0"/><g id="Group-26" fill="#FFF" stroke="#39393A" transform="translate(10.227273, 1.354839)"><path id="Fill-1" d="M.295 10.589a10.29 10.29 0 0 1 2.912.52c1.781 4.352 4.144 7.099 5.368 8.323l.066.082.015.002-.015-.002c-1.38-.136-3.773-.659-5.706-2.58C.638 14.652.326 11.694.295 10.59"/><path id="Fill-3" d="M2.157.15c1.161 1.166 3.529 3.897 5.255 8.182a9.984 9.984 0 0 0-1.116 3.292 9.517 9.517 0 0 0-.1 1.149c-.002.082-.01.162-.01.246 0 .795.103 1.534.268 2.218a26.33 26.33 0 0 1-2.514-4.884c-.025-.061-.05-.12-.074-.182C2.129 5.634 2.067 1.843 2.157.15"/><path id="Fill-5" d="M8.173 8.973A10.492 10.492 0 0 1 9.8 6.678a10.098 10.098 0 0 1 1.92 2.912 8.716 8.716 0 0 1 .727 3.43c0 .266-.017.524-.04.778-.21 2.214-1.265 3.927-2.05 4.916l-.046.059v.013l.017-.017-.017.017v-.013l-.046.055c-.005.007-.01.014-.017.02a10.09 10.09 0 0 1-.387.445l-.062.067-.054-.058a9.12 9.12 0 0 1-.026.26l.026-.26a9.06 9.06 0 0 1-.38-.435l-.012.143v-.002l.011-.141-.02-.026c0 .03.003.055.004.081l-.006-.08-.047-.058-.036-.045c-.79-.988-1.862-2.715-2.068-4.962a8.319 8.319 0 0 1-.039-.758 8.71 8.71 0 0 1 .732-3.435c.093-.212.189-.417.29-.61"/><path id="Fill-8" d="M17.451.15c.091 1.688.032 5.472-1.71 10.02-.024.064-.05.125-.075.188a26.415 26.415 0 0 1-2.525 4.897 9.44 9.44 0 0 0 .272-2.236c0-.08-.008-.156-.01-.234a9.416 9.416 0 0 0-.1-1.151 9.96 9.96 0 0 0-1.111-3.293c1.726-4.292 4.098-7.026 5.26-8.191"/><path id="Fill-10" d="M19.32 10.589c-.032 1.106-.344 4.063-2.64 6.345-1.943 1.93-4.347 2.45-5.723 2.583l-.04.045.04-.045h-.01v.001a10.716 10.716 0 0 1-.653.042 7.813 7.813 0 0 0 .653-.042h.01a2.25 2.25 0 0 1 .037-.048c1.213-1.206 3.606-3.965 5.405-8.358a10.334 10.334 0 0 1 2.92-.523"/></g></g><g id="Oval-10"><use fill="#FFF" xlink:href="#path-2"/><circle cx="20" cy="2" r="1" stroke="#1692D0" stroke-width="2"/></g></g><rect id="Rectangle-29-Copy" width="128" height="2" x="80" y="38" fill="#39393A"/><g id="Group-17-Copy-4" stroke="#39393A" stroke-width="2" transform="translate(89.000000, 150.000000)"><rect id="Rectangle-68" width="32" height="32" x="1" y="1"/><path id="Rectangle-69" d="M8.975 14.868l16.046-2.711v7.084l-16.046 2.59v-6.963z"/></g><g id="Group-12-Copy" transform="translate(169.000000, 146.000000)"><g id="Group-4-Copy-5"><g id="Group-17-Copy-3" transform="translate(1.724138, 0.000000)"><g id="Rectangle-11"><use fill="#FFF" xlink:href="#path-3"/><path stroke="#1692D0" stroke-width="2" d="M1.322 1.002H5.28V15.92a1.978 1.978 0 0 1-1.98 1.972 1.974 1.974 0 0 1-1.98-1.972V1.002z"/></g></g><rect id="Rectangle-9" width="8.0279541" height="2.04772949" x="0.980712891" fill="#1692D0" rx="1.02386475"/></g><g id="Group-4-Copy-6" transform="translate(9.000000, 0.000000)"><g id="Group-17-Copy-3" transform="translate(1.724138, 0.000000)"><g id="Rectangle-11"><use fill="#FFF" xlink:href="#path-4"/><path stroke="#1692D0" stroke-width="2" d="M1.322 1.002H5.28V15.92a1.978 1.978 0 0 1-1.98 1.972 1.974 1.974 0 0 1-1.98-1.972V1.002z"/></g></g><rect id="Rectangle-9" width="8.0279541" height="2.04772949" x="0.980712891" fill="#1692D0" rx="1.02386475"/></g><g id="Group-4-Copy-7" transform="translate(18.000000, 0.000000)"><g id="Group-17-Copy-3" transform="translate(1.724138, 0.000000)"><g id="Rectangle-11"><use fill="#FFF" xlink:href="#path-5"/><path stroke="#1692D0" stroke-width="2" d="M1.322 1.002H5.28V15.92a1.978 1.978 0 0 1-1.98 1.972 1.974 1.974 0 0 1-1.98-1.972V1.002z"/></g></g><rect id="Rectangle-9" width="8.0279541" height="2.04772949" x="0.980712891" fill="#1692D0" rx="1.02386475"/></g></g><g id="Group-17-Copy-5" transform="translate(166.000000, 150.000000)"><g id="Rectangle-68"><use fill="#FFF" xlink:href="#path-6"/><rect width="32" height="32" x="1" y="1" stroke="#39393A" stroke-width="2"/></g><path id="Rectangle-69" stroke="#39393A" stroke-width="2" d="M8.975 14.868l16.046-2.711v7.084l-16.046 2.59v-6.963z"/></g><g id="Group-12" transform="translate(130.000000, 142.000000)"><g id="Group-4-Copy-5"><g id="Group-17-Copy-3" transform="translate(1.724138, 0.000000)"><g id="Rectangle-11"><use fill="#FFF" xlink:href="#path-7"/><path stroke="#1692D0" stroke-width="2" d="M1.322 1.002H5.28V15.92a1.978 1.978 0 0 1-1.98 1.972 1.974 1.974 0 0 1-1.98-1.972V1.002z"/></g></g><rect id="Rectangle-9" width="8.0279541" height="2.04772949" x="0.980712891" fill="#1692D0" rx="1.02386475"/></g><g id="Group-4-Copy-6" transform="translate(9.000000, 0.000000)"><g id="Group-17-Copy-3" transform="translate(1.724138, 0.000000)"><g id="Rectangle-11"><use fill="#FFF" xlink:href="#path-8"/><path stroke="#1692D0" stroke-width="2" d="M1.322 1.002H5.28V15.92a1.978 1.978 0 0 1-1.98 1.972 1.974 1.974 0 0 1-1.98-1.972V1.002z"/></g></g><rect id="Rectangle-9" width="8.0279541" height="2.04772949" x="0.980712891" fill="#1692D0" rx="1.02386475"/></g><g id="Group-4-Copy-7" transform="translate(18.000000, 0.000000)"><g id="Group-17-Copy-3" transform="translate(1.724138, 0.000000)"><g id="Rectangle-11"><use fill="#FFF" xlink:href="#path-9"/><path stroke="#1692D0" stroke-width="2" d="M1.322 1.002H5.28V15.92a1.978 1.978 0 0 1-1.98 1.972 1.974 1.974 0 0 1-1.98-1.972V1.002z"/></g></g><rect id="Rectangle-9" width="8.0279541" height="2.04772949" x="0.980712891" fill="#1692D0" rx="1.02386475"/></g></g><g id="Group-17-Copy-7" transform="translate(127.000000, 150.000000)"><g id="Rectangle-68"><use fill="#FFF" xlink:href="#path-10"/><rect width="32" height="32" x="1" y="1" stroke="#39393A" stroke-width="2"/></g><path id="Rectangle-69" stroke="#39393A" stroke-width="2" d="M8.975 14.868l16.046-2.711v7.084l-16.046 2.59v-6.963z"/></g><g id="Group-4" transform="translate(138.000000, 79.000000)"><g id="Group-17-Copy-3" transform="translate(1.724138, 0.000000)"><g id="Rectangle-11"><use fill="#FFF" xlink:href="#path-11"/><path stroke="#1692D0" stroke-width="2" d="M1.322 1.002H5.28V15.92a1.978 1.978 0 0 1-1.98 1.972 1.974 1.974 0 0 1-1.98-1.972V1.002z"/></g></g><rect id="Rectangle-9" width="8.0279541" height="2.04772949" x="0.980712891" fill="#1692D0" rx="1.02386475"/></g><g id="Group-4-Copy-3" transform="translate(126.000000, 73.000000)"><g id="Group-17-Copy-3" transform="translate(1.724138, 0.000000)"><g id="Rectangle-11"><use fill="#FFF" xlink:href="#path-12"/><path stroke="#1692D0" stroke-width="2" d="M1.322 1.002H5.28V15.92a1.978 1.978 0 0 1-1.98 1.972 1.974 1.974 0 0 1-1.98-1.972V1.002z"/></g></g><rect id="Rectangle-9" width="8.0279541" height="2.04772949" x="0.980712891" fill="#1692D0" rx="1.02386475"/></g><g id="Group-4-Copy-4" transform="translate(114.000000, 67.000000)"><g id="Group-17-Copy-3" transform="translate(1.724138, 0.000000)"><g id="Rectangle-11"><use fill="#FFF" xlink:href="#path-13"/><path stroke="#1692D0" stroke-width="2" d="M1.322 1.002H5.28V15.92a1.978 1.978 0 0 1-1.98 1.972 1.974 1.974 0 0 1-1.98-1.972V1.002z"/></g></g><rect id="Rectangle-9" width="8.0279541" height="2.04772949" x="0.980712891" fill="#1692D0" rx="1.02386475"/></g><g id="Rectangle-71"><use fill="#D8D8D8" xlink:href="#path-14"/><rect width="1" height="5" x="118.5" y="61.5" stroke="#39393A"/></g><g id="Rectangle-71-Copy"><use fill="#D8D8D8" xlink:href="#path-15"/><rect width="1" height="5" x="130.5" y="67.5" stroke="#39393A"/></g><g id="Rectangle-71-Copy-2"><use fill="#D8D8D8" xlink:href="#path-16"/><rect width="1" height="5" x="142.5" y="73.5" stroke="#39393A"/></g><polygon id="Rectangle-12" fill="#39393A" points="156 39 158 39 158 80 156 80"/><path id="Rectangle-53" stroke="#39393A" stroke-width="2" d="M84 39h10v42.994A5.007 5.007 0 0 1 89 87h-5V39z"/><polygon id="Rectangle-70" fill="#39393A" points="93 47 156 78 156 80 93 49"/><g id="Oval-18"><use fill="#FFF" xlink:href="#path-17"/><circle cx="157" cy="79" r="2" stroke="#39393A" stroke-width="2"/></g></g><g id="Group-17" transform="translate(21.000000, 88.000000)"><rect id="Rectangle-75" width="2" height="49" x="24" y="47" fill="#39393A"/><path id="Combined-Shape" stroke="#39393A" stroke-width="2" d="M46.046 25.197C47.283 26.1 48 27.413 48 28.818c0 .896-.29 1.756-.831 2.504l-.426.587.426.587c.542.748.831 1.608.831 2.504 0 1.405-.717 2.72-1.954 3.62l-.885.647.724.822c.722.821 1.115 1.815 1.115 2.86 0 .29-.03.575-.09.856l-.127.6.477.385c1.108.896 1.74 2.137 1.74 3.457 0 .916-.302 1.793-.867 2.552l-.444.597.444.597c.565.759.867 1.637.867 2.552 0 1.402-.714 2.714-1.946 3.616l-.621.454.28.717c.19.483.287.991.287 1.512 0 2.48-2.242 4.575-5.154 4.731l-.462.025-.28.368c-1.009 1.326-2.72 2.149-4.604 2.149-1.123 0-2.19-.29-3.096-.824l-.487-.287-.497.27A6.12 6.12 0 0 1 29.5 68c-1.52 0-2.935-.534-3.964-1.457l-.522-.469-.618.332a6.125 6.125 0 0 1-2.896.71 6.112 6.112 0 0 1-2.979-.756l-.227-.126H17.706l-.227.126c-.88.491-1.905.757-2.979.757a6.31 6.31 0 0 1-1.55-.191l-.277-.07-.272.086a6.264 6.264 0 0 1-1.901.292c-2.56 0-4.743-1.52-5.34-3.603l-.119-.412-.38-.199C3.013 62.16 2 60.627 2 58.961c0-1.151.479-2.242 1.345-3.102l.532-.53-.359-.658a4.17 4.17 0 0 1-.428-2.865l.127-.6-.477-.385C1.632 49.924 1 48.684 1 47.364c0-1.136.466-2.213 1.31-3.069l.514-.52-.34-.647A4.164 4.164 0 0 1 2 41.182c0-.877.277-1.72.797-2.456l.407-.577-.407-.576A4.231 4.231 0 0 1 2 35.117c0-1.151.479-2.242 1.345-3.103l.532-.529-.359-.659a4.17 4.17 0 0 1-.428-2.864l.127-.6-.477-.386C1.632 26.08 1 24.84 1 23.52c0-1.729 1.092-3.313 2.842-4.15l.863-.411-.373-.88A4.137 4.137 0 0 1 4 16.454c0-1.654.997-3.177 2.625-4.04l.694-.369-.193-.76A4.117 4.117 0 0 1 7 10.272c0-2.589 2.437-4.74 5.5-4.74.283 0 .563.018.838.054l.733.097.308-.673C15.195 3.22 17.206 2 19.5 2c.794 0 1.562.145 2.267.421l.539.21.451-.361C23.767 1.46 25.089 1 26.5 1c2.065 0 3.914.99 4.86 2.521l.357.579.669-.12a6.367 6.367 0 0 1 1.114-.097c3.021 0 5.44 2.096 5.499 4.644l.016.68.638.236C41.68 10.188 43 11.905 43 13.805c0 .46-.076.912-.225 1.344l-.331.965.971.312c2.152.69 3.585 2.466 3.585 4.444 0 1.044-.393 2.038-1.115 2.859l-.724.823.885.645zm-28.012 42.16L18 67.295l-.034-.061v1h.068v-1l-.034.061-.034.062-.419.75c.148.083.3.16.453.233.154-.072.305-.15.453-.233l-.419-.75z"/><polyline id="Path-26" stroke="#39393A" stroke-linecap="round" stroke-width="2" points="24.9910889 50.0330811 31.0174561 56.0505371 31.0174561 60.9708862" transform="translate(28.004272, 55.501984) scale(-1, 1) translate(-28.004272, -55.501984)"/><path id="Path-26-Copy-2" stroke="#39393A" stroke-linecap="round" stroke-width="2" d="M31.017 38.033l-5.323 5.315c-.388.388-.703 1.157-.703 1.694v5.929"/><polyline id="Path-26-Copy" stroke="#39393A" stroke-linecap="round" stroke-width="2" points="18.8134766 43.7282715 25.0174561 50.0632324 25.0174561 54.982287"/></g><g id="Group-19-Copy" transform="translate(66.000000, 167.000000)"><g id="Group-18"><g id="Group-28"><g id="Rectangle-8-Copy-10" transform="translate(5.534601, 13.651157) scale(-1, 1) translate(-5.534601, -13.651157)"><use fill="#FFF" xlink:href="#path-18"/><path stroke="#39393A" stroke-width="2" d="M1.585 15.239a1.75 1.75 0 0 1 .023-.287c.033-.23.1-.488.21-.769.317-.814.92-1.654 1.9-2.482.27-.228.551-.43.844-.608a6.89 6.89 0 0 1 2.48-.91 6.527 6.527 0 0 1 1.638-.07l.161.01c.468-.01.757.333.68.827l-.011.138c-.003.17-.041.516-.152.976a6.835 6.835 0 0 1-1.02 2.294 6.63 6.63 0 0 1-1.182 1.3c-.892.753-1.755 1.204-2.569 1.418-.532.14-.968.162-1.284.121-.034-.004-.048-.006-.039-.004l-.148-.036-.151.01c-.977.066-1.587-.659-1.395-1.67l.026-.135-.01-.123z"/></g><g id="Rectangle-8-Copy-9"><use fill="#FFF" xlink:href="#path-19"/><path stroke="#39393A" stroke-width="2" d="M11.601 15.239a1.75 1.75 0 0 1 .023-.287c.033-.23.1-.488.21-.769.317-.814.92-1.654 1.9-2.482.27-.228.551-.43.844-.608a6.89 6.89 0 0 1 2.48-.91 6.527 6.527 0 0 1 1.638-.07l.162.01c.467-.01.757.333.68.827l-.012.138c-.002.17-.041.516-.152.976a6.835 6.835 0 0 1-1.02 2.294 6.63 6.63 0 0 1-1.182 1.3c-.892.753-1.755 1.204-2.569 1.418-.532.14-.968.162-1.283.121-.035-.004-.049-.006-.04-.004l-.147-.036-.152.01c-.977.066-1.587-.659-1.395-1.67l.026-.135-.01-.123z"/></g><g id="Rectangle-8-Copy-8" transform="translate(10.613117, 9.569048) scale(-1, 1) rotate(-50.000000) translate(-10.613117, -9.569048)"><use fill="#FFF" xlink:href="#path-20"/><path stroke="#39393A" stroke-width="2" d="M8.16 6.86c.72-.626 1.662-1.125 2.778-1.503 1.031-.35 2.147-.577 3.266-.703.392-.045.756-.073 1.08-.089.191-.01.33-.012.387-.012.499-.037.68.177.586.614a17.147 17.147 0 0 1-.298 1.385 16.665 16.665 0 0 1-1.056 2.955c-.568 1.195-1.25 2.172-2.039 2.858-.58.504-1.253.92-2.005 1.253-1.645.729-3.338.97-4.515.958H6.34l-.125.005c-.942.099-1.441-.488-1.216-1.447l.018-.102c.006-.048.023-.155.053-.313.052-.271.122-.576.212-.905.259-.943.627-1.884 1.12-2.755.488-.86 1.072-1.603 1.759-2.2z"/></g><circle id="Oval-10-Copy-5" cx="3" cy="4" r="1" fill="#1692D0"/><circle id="Oval-10-Copy-4" cx="18" cy="4" r="1" fill="#1692D0"/></g></g></g></g></g></g></svg>