<svg xmlns="http://www.w3.org/2000/svg" xmlns:xlink="http://www.w3.org/1999/xlink" viewBox="0 0 263 159"><defs><path id="path-1" d="M41.03 18.492C41.03 8.832 48.855 1 58.514 1h13.491a3.999 3.999 0 0 1 3.995 4.01v37.026H41.029V18.492z"/><path id="path-2" d="M53.098 27.833l7.36-7.74h16L81 25.279v15.849a2 2 0 0 1-2.007 1.995H53.098V27.833z"/><path id="path-3" d="M54.5 47c5.247 0 9.5-4.477 9.5-10s-4.253-10-9.5-10S45 31.477 45 37s4.253 10 9.5 10z"/><ellipse id="path-4" cx="72" cy="40.5" rx="6" ry="6.5"/><rect id="path-5" width="21" height="9" x="2" y="24"/><rect id="path-6" width="9" height="40" x="8.02441406" y="9"/><circle id="path-7" cx="29.5" cy="65.5" r="11.5"/><circle id="path-8" cx="29.5" cy="65.5" r="4.5"/><path id="path-9" d="M111.5 77c6.351 0 11.5-5.149 11.5-11.5S117.851 54 111.5 54 100 59.149 100 65.5 105.149 77 111.5 77z"/><path id="path-10" d="M111.5 70a4.5 4.5 0 1 0 0-9 4.5 4.5 0 0 0 0 9z"/></defs><g id="Medical-day" fill="none" fill-rule="evenodd"><g id="medical_day_mobile" transform="translate(-28.000000, -1099.000000)"><g id="2_illustration" transform="translate(-9.000000, 1099.000000)"><g id="Group-14" transform="translate(37.000000, 0.000000)"><path id="Path-3-Copy" stroke="#39393A" stroke-width="2" d="M121 65.525V14.997c0-.55-.449-.997-1.008-.997H3.998c-.557 0-1.008.448-1.008.996V157.1L121 65.525z"/><g id="Group-3" stroke="#39393A" stroke-width="2" transform="translate(21.500000, 122.500000) scale(-1, 1) translate(-21.500000, -122.500000) translate(1.000000, 86.000000)"><polyline id="Path-2" points="40.0043945 0.996582031 0.000793457031 0.996582031 0.000793457031 72.9802856"/><path id="Path-2-Copy" d="M40.004 7.997H.001"/><path id="Path-2-Copy-2" d="M40.004 14.997H.001"/></g><g id="Group" transform="translate(60.500000, 133.500000) scale(-1, 1) translate(-60.500000, -133.500000) translate(20.000000, 110.000000)"><path id="Rectangle-26" fill="#39393A" d="M.065 38.01a.94.94 0 0 1 .943-1.012h31.467v2.023H1.133a1.087 1.087 0 0 1-1.068-1.012z"/><path id="Rectangle-25" stroke="#39393A" stroke-width="2" d="M36.507 28h5.971v7.931h-5.97V28z"/><path id="Rectangle-24" stroke="#39393A" stroke-width="2" d="M35.992 38.033h-2.969V2.507c0-.824.659-1.485 1.484-1.485.823 0 1.485.66 1.485 1.485v35.526z"/><g id="Rectangle-20"><use fill="#FFF" xlink:href="#path-1"/><path stroke="#39393A" stroke-width="2" d="M75 41.036H42.03V18.492C42.03 9.383 49.408 2 58.514 2h13.491a2.999 2.999 0 0 1 2.995 3.01v36.026z"/></g><path id="Rectangle-22" stroke="#39393A" stroke-width="2" d="M42.175 29.071l9.781-9.781.393.393-9.782 9.781-.392-.393z"/><path id="Rectangle-23" fill="#39393A" d="M50.715 18.03c0-.705.575-1.277 1.277-1.277h3.01a1.279 1.279 0 0 1 0 2.556h-3.01a1.274 1.274 0 0 1-1.277-1.278z" transform="translate(53.496780, 18.030768) rotate(45.000000) translate(-53.496780, -18.030768)"/><path id="Rectangle-21" stroke="#39393A" stroke-width="2" d="M68.849 10.944l-2.004 9.5h-.383l1.965-9.313c.017-.08.148-.187.23-.187h.192z"/><g id="Rectangle-19"><use fill="#FFF" xlink:href="#path-2"/><path stroke="#39393A" stroke-width="2" d="M54.098 28.233l6.788-7.14h15.12L80 25.654v15.474a1 1 0 0 1-1.007.995H54.098v-13.89z"/></g><g id="Oval-6"><use fill="#FFF" xlink:href="#path-3"/><path stroke="#39393A" stroke-width="2" d="M54.5 46c-4.683 0-8.5-4.018-8.5-9s3.817-9 8.5-9 8.5 4.018 8.5 9-3.817 9-8.5 9z"/></g><g id="Oval-6-Copy-32"><use fill="#FFF" xlink:href="#path-4"/><ellipse cx="72" cy="40.5" stroke="#39393A" stroke-width="2" rx="5" ry="5.5"/></g></g><g id="Group-20-Copy" transform="translate(72.000000, 98.000000)"><path id="Rectangle-16" stroke="#1692D0" stroke-width="2" d="M22 48H3V10.997c0-.547.451-.997.995-.997h17.01c.55 0 .995.445.995.997V48z"/><g id="Rectangle-16-Copy-2"><use fill="#FFF" xlink:href="#path-5"/><rect width="19" height="7" x="3" y="25" stroke="#1692D0" stroke-width="2"/></g><g id="Combined-Shape"><use fill="#FFF" xlink:href="#path-6"/><rect width="7" height="38" x="9.02441406" y="10" stroke="#1692D0" stroke-width="2"/></g><rect id="Rectangle-31" width="7" height="3" x="9.02441406" y="7" stroke="#1692D0" stroke-width="2"/><path id="Rectangle-31-Copy" stroke="#1692D0" stroke-width="2" d="M16.024 6.37l3.163-3.69c1.01-1.179 2.55-1.189 3.568-.039.94 1.197.636 2.656-.72 3.396l-6.01 3.278V6.37z"/><path id="Rectangle-31-Copy-2" stroke="#1692D0" stroke-width="2" d="M8.6 6.37L5.438 2.68c-1.01-1.179-2.551-1.189-3.569-.039-.939 1.197-.636 2.656.72 3.396L8.6 9.315V6.37z"/></g><path id="Rectangle" stroke="#39393A" stroke-width="2" d="M17 14h90V7.5a6.5 6.5 0 0 0-6.51-6.5H23.51C19.916 1 17 3.916 17 7.5V14z"/><rect id="Rectangle-29" width="125" height="2" y="13" fill="#39393A" transform="translate(62.500000, 14.000000) scale(-1, 1) translate(-62.500000, -14.000000)"/></g><g id="Group-13" transform="translate(154.000000, 67.000000)"><g id="Group-22" transform="translate(0.000000, 14.000000)"><path id="Rectangle-54" stroke="#1692D0" stroke-width="2" d="M75 1V.999zm0 0V2c0 .337-.197.928-.4 1.199L72.5 6h-4.995l-2.108-2.853c-.2-.271-.397-.869-.397-1.203v-.95c0 .009.003.006.002.006H75z"/><path id="Rectangle-34" stroke="#39393A" stroke-width="2" d="M1 56h143.905l-.81 8.914c-.004.037-.057.086-.098.086H1.003L1 65.001V56z"/><path id="Rectangle-34-Copy" stroke="#39393A" stroke-width="2" d="M1.996 56H2h-.004zm141.844 0H2V26.34c0-.458.112-1.235.24-1.671L7.678 6.237c.029-.1.215-.237.324-.237h68.005c8.037 0 19.568 4.342 25.616 9.645l19.966 17.509c.548.48 1.477.94 2.195 1.085l17.037 3.43c.132.027.318.223.339.363L143.84 56z"/><path id="Combined-Shape" stroke="#39393A" stroke-width="2" d="M48 25.998zM48 33v.002c0 .003.003 0 0-.002zm-6.998 7zM34 40h-.002c-.003 0 0 .003.002 0zm-7-6.998zM27 26v-.002c0-.003-.003 0 0 .002zm6.998-7zM41 19h.002c.003 0 0-.003-.002 0zm7 6.998V33h-7v6.997c0 .003 0 .003.002.003H34v-7h-6.997C27 33 27 33 27 33.002V26h7v-6.997C34 19 34 19 33.998 19H41v7h6.997C48 26 48 26 48 25.998z"/><path id="Path-6" stroke="#39393A" stroke-width="2" d="M141 42h-5.001c-.552 0-.79.397-.52.887 0 0 3.521 7.113 7.521 7.113"/><path id="Rectangle-49-Copy-2" stroke="#39393A" stroke-width="2" d="M114 38H80c-.004 0 0 .004 0-.003V17.003c0 .001.004-.003 0-.003h14c.846 0 2.136.523 2.748 1.115l12.288 11.89.12.099 4.445 3.133c.187.132.399.538.399.754V38z"/><path id="Rectangle-50" fill="#FFF" stroke="#39393A" stroke-width="2" d="M110 29.995c0-.55.398-.796.888-.551l2.224 1.112c.49.245.888.897.888 1.441v6.006c0 .55-.443.997-1.01.997h-1.98c-.558 0-1.01-.456-1.01-.995v-8.01z"/><g id="Oval-11"><use fill="#FFF" xlink:href="#path-7"/><circle cx="29.5" cy="65.5" r="10.5" stroke="#39393A" stroke-width="2"/></g><g id="Oval-11-Copy-4"><use fill="#FFF" xlink:href="#path-8"/><circle cx="29.5" cy="65.5" r="3.5" stroke="#39393A" stroke-width="2"/></g><g id="Oval-11-Copy-3"><use fill="#FFF" xlink:href="#path-9"/><path stroke="#39393A" stroke-width="2" d="M111.5 76c-5.799 0-10.5-4.701-10.5-10.5S105.701 55 111.5 55 122 59.701 122 65.5 117.299 76 111.5 76z"/></g><g id="Oval-11-Copy-5"><use fill="#FFF" xlink:href="#path-10"/><path stroke="#39393A" stroke-width="2" d="M111.5 69a3.5 3.5 0 1 1 0-7 3.5 3.5 0 0 1 0 7z"/></g><rect id="Rectangle-56-Copy" width="7" height="2" x="79" y="41" fill="#39393A" rx="1"/><path id="Rectangle-58" stroke="#39393A" stroke-width="2" d="M2 42h3.002c.55 0 .998.446.998.994V56H2V42z"/></g><rect id="Rectangle-77" width="2" height="9" x="69" fill="#1692D0" rx="1"/><path id="Rectangle-77-Copy" fill="#1692D0" d="M77.455 5.244a1.02 1.02 0 0 1 1.03-1.04h-.093a1.07 1.07 0 0 1 1.063 1.04l.09 5.512a1.02 1.02 0 0 1-1.03 1.04h.093a1.07 1.07 0 0 1-1.063-1.04l-.09-5.512z" transform="translate(78.500000, 8.000000) rotate(40.000000) translate(-78.500000, -8.000000)"/><path id="Rectangle-77-Copy-2" fill="#1692D0" d="M60.455 5.244a1.02 1.02 0 0 1 1.03-1.04h-.093a1.07 1.07 0 0 1 1.063 1.04l.09 5.512a1.02 1.02 0 0 1-1.03 1.04h.093a1.07 1.07 0 0 1-1.063-1.04l-.09-5.512z" transform="translate(61.500000, 8.000000) scale(-1, 1) rotate(40.000000) translate(-61.500000, -8.000000)"/></g></g></g></g></svg>