<svg xmlns="http://www.w3.org/2000/svg" width="768" height="182" viewBox="0 0 768 182" xmlns:xlink="http://www.w3.org/1999/xlink"><defs><path id="a" d="M293.992 20.65h8v11l-4.134-2-3.866 2z"/><mask id="J" width="8" height="11" x="0" y="0" fill="#fff"><use xlink:href="#a"/></mask><path id="b" d="M749.072 3.674h8v11l-4.133-2-3.868 2z"/><mask id="K" width="8" height="11" x="0" y="0" fill="#fff"><use xlink:href="#b"/></mask><path id="c" d="M139.04 34.525h8v11l-4.134-2-3.866 2z"/><mask id="L" width="8" height="11" x="0" y="0" fill="#fff"><use xlink:href="#c"/></mask><path id="d" d="M107.93 32.844h8v11l-4.132-2-3.867 2z"/><mask id="M" width="8" height="11" x="0" y="0" fill="#fff"><use xlink:href="#d"/></mask><path id="e" d="M76.987 30.288h8v11l-4.134-2-3.866 2z"/><mask id="N" width="8" height="11" x="0" y="0" fill="#fff"><use xlink:href="#e"/></mask><path id="f" d="M46.987 26.288h8v11l-4.134-2-3.866 2z"/><mask id="O" width="8" height="11" x="0" y="0" fill="#fff"><use xlink:href="#f"/></mask><path id="g" d="M16.938 21.693h8v11l-4.134-2-3.866 2z"/><mask id="P" width="8" height="11" x="0" y="0" fill="#fff"><use xlink:href="#g"/></mask><path id="h" d="M170.005 35.076h8v11l-4.134-2-3.865 2z"/><mask id="Q" width="8" height="11" x="0" y="0" fill="#fff"><use xlink:href="#h"/></mask><path id="i" d="M201.05 33.85h8v11l-4.134-2-3.866 2z"/><mask id="R" width="8" height="11" x="0" y="0" fill="#fff"><use xlink:href="#i"/></mask><path id="j" d="M232.042 30.775h8v11l-4.134-2-3.866 2z"/><mask id="S" width="8" height="11" x="0" y="0" fill="#fff"><use xlink:href="#j"/></mask><path id="k" d="M263.08 25.792h8v11l-4.134-2-3.866 2z"/><mask id="T" width="8" height="11" x="0" y="0" fill="#fff"><use xlink:href="#k"/></mask><path id="l" d="M507.12 23.506h8v11l-4.133-2-3.866 2z"/><mask id="U" width="8" height="11" x="0" y="0" fill="#fff"><use xlink:href="#l"/></mask><path id="m" d="M476.416 20.794h8v11l-4.134-2-3.866 2z"/><mask id="V" width="8" height="11" x="0" y="0" fill="#fff"><use xlink:href="#m"/></mask><path id="n" d="M445.02 16.89h8v11l-4.135-2-3.866 2z"/><mask id="W" width="8" height="11" x="0" y="0" fill="#fff"><use xlink:href="#n"/></mask><path id="o" d="M538.036 25.24h8v11l-4.134-2-3.866 2z"/><mask id="X" width="8" height="11" x="0" y="0" fill="#fff"><use xlink:href="#o"/></mask><path id="p" d="M569 26.18h8v11l-4.134-2-3.866 2z"/><mask id="Y" width="8" height="11" x="0" y="0" fill="#fff"><use xlink:href="#p"/></mask><path id="q" d="M599.965 25.515h8v11l-4.134-2-3.865 2z"/><mask id="Z" width="8" height="11" x="0" y="0" fill="#fff"><use xlink:href="#q"/></mask><path id="r" d="M630.79 23.756h8v11l-4.134-2-3.866 2z"/><mask id="aa" width="8" height="11" x="0" y="0" fill="#fff"><use xlink:href="#r"/></mask><path id="s" d="M661.907 20.464h8v11l-4.134-2-3.866 2z"/><mask id="ab" width="8" height="11" x="0" y="0" fill="#fff"><use xlink:href="#s"/></mask><path id="t" d="M691.04 16.112h8v11l-4.135-2-3.866 2z"/><mask id="ac" width="8" height="11" x="0" y="0" fill="#fff"><use xlink:href="#t"/></mask><path id="u" d="M720.065 10.475h8v11l-4.134-2-3.865 2z"/><mask id="ad" width="8" height="11" x="0" y="0" fill="#fff"><use xlink:href="#u"/></mask><path id="v" d="M0 0h25v25H0z"/><mask id="ae" width="25" height="25" x="0" y="0" fill="#fff"><use xlink:href="#v"/></mask><path id="w" d="M121 107h37v63h-37z"/><mask id="af" width="37" height="63" x="0" y="0" fill="#fff"><use xlink:href="#w"/></mask><path id="x" d="M38.353 169.972L38 33h120.01v136.14"/><mask id="ag" width="120.01" height="136.972" x="0" y="0" fill="#fff"><use xlink:href="#x"/></mask><path id="y" d="M59 81h6v5.01c0 .546-.45.99-.99.99h-4.02c-.546 0-.99-.45-.99-.99V81z"/><mask id="ah" width="6" height="6" x="0" y="0" fill="#fff"><use xlink:href="#y"/></mask><path id="z" d="M4.04 1.002C4.04.45 4.498 0 5.046 0H7.02c.557 0 1.007.445 1.007 1.002V5.01H4.04V1.002z"/><mask id="ai" width="3.987" height="5.01" x="0" y="0" fill="#fff"><use xlink:href="#z"/></mask><path id="A" d="M4.075 3.682h3.912l3.59 3.906v18.41c0 .553-.456 1.002-1.003 1.002H1.267c-.554 0-1.004-.442-1.004-1.003V7.587l3.812-3.905z"/><mask id="aj" width="11.315" height="23.318" x="0" y="0" fill="#fff"><use xlink:href="#A"/></mask><path id="B" d="M32.667.993c0-.548.45-.993 1.002-.993h1.66c.555 0 1.003.453 1.003.993V4.91h-3.666V.992z"/><mask id="ak" width="3.667" height="4.909" x="0" y="0" fill="#fff"><use xlink:href="#B"/></mask><path id="C" d="M32.812 3.682h3.597L40 7.588v18.41c0 .553-.445 1.002-.996 1.002h-9.008c-.55 0-.996-.442-.996-1.003V7.587l3.812-3.905z"/><mask id="al" width="11" height="23.318" x="0" y="0" fill="#fff"><use xlink:href="#C"/></mask><path id="D" d="M37.145 33.805c.472-.997 1.752-1.805 2.863-1.805h115.984c1.11 0 2.395.816 2.863 1.805l7.29 15.39c.472.997-.044 1.805-1.15 1.805H31.006c-1.108 0-1.618-.816-1.15-1.805l7.29-15.39z"/><mask id="am" width="136.639" height="19" x="0" y="0" fill="#fff"><use xlink:href="#D"/></mask><path id="E" d="M49 49h26v28.002c0 .55-.386 1.226-.86 1.505l-6.76 3.986c-.474.28-1.31.507-1.86.507h-6.88c-.553 0-1.395-.228-1.862-.498l-6.918-4.004c-.475-.275-.86-.954-.86-1.496V49z"/><mask id="an" width="26" height="34" x="0" y="0" fill="#fff"><use xlink:href="#E"/></mask><rect id="F" width="102" height="14" rx="7"/><mask id="ao" width="102" height="14" x="0" y="0" fill="#fff"><use xlink:href="#F"/></mask><path id="G" d="M18 5h34v25H18z"/><mask id="ap" width="34" height="25" x="0" y="0" fill="#fff"><use xlink:href="#G"/></mask><path id="H" d="M2 0h34v26H2z"/><mask id="aq" width="34" height="26" x="0" y="0" fill="#fff"><use xlink:href="#H"/></mask><path id="I" d="M2 0h5l2 182H0z"/><mask id="ar" width="9" height="182" x="0" y="0" fill="#fff"><use xlink:href="#I"/></mask></defs><g fill="none" fill-rule="evenodd"><g stroke="#39393A" transform="translate(0 52)"><use fill="#FFF" stroke-width="4" mask="url(#J)" transform="rotate(-25 297.992 26.15)" xlink:href="#a"/><use fill="#FFF" stroke-width="4" mask="url(#K)" transform="rotate(-16 753.072 9.174)" xlink:href="#b"/><path stroke-width="2" d="M0 18.832s83.758 17.156 170.113 17.156C256.47 35.988 315.12 14 315.12 14M768 .172s-73.62 23.486-165.435 26.41C510.75 29.51 433 15.225 433 15.225"/><use fill="#FFF" stroke-width="4" mask="url(#L)" transform="rotate(3 143.04 40.025)" xlink:href="#c"/><use fill="#FFF" stroke-width="4" mask="url(#M)" transform="rotate(3 111.93 38.344)" xlink:href="#d"/><use fill="#FFF" stroke-width="4" mask="url(#N)" transform="rotate(6 80.987 35.788)" xlink:href="#e"/><use fill="#FFF" stroke-width="4" mask="url(#O)" transform="rotate(9 50.987 31.788)" xlink:href="#f"/><use fill="#FFF" stroke-width="4" mask="url(#P)" transform="rotate(9 20.938 27.193)" xlink:href="#g"/><use fill="#FFF" stroke-width="4" mask="url(#Q)" xlink:href="#h"/><use fill="#FFF" stroke-width="4" mask="url(#R)" transform="rotate(-4 205.05 39.35)" xlink:href="#i"/><use fill="#FFF" stroke-width="4" mask="url(#S)" transform="rotate(-8 236.042 36.275)" xlink:href="#j"/><use fill="#FFF" stroke-width="4" mask="url(#T)" transform="rotate(-12 267.08 31.292)" xlink:href="#k"/><use fill="#FFF" stroke-width="4" mask="url(#U)" transform="rotate(4 511.12 29.006)" xlink:href="#l"/><use fill="#FFF" stroke-width="4" mask="url(#V)" transform="rotate(6 480.416 26.294)" xlink:href="#m"/><use fill="#FFF" stroke-width="4" mask="url(#W)" transform="rotate(8 449.02 22.39)" xlink:href="#n"/><use fill="#FFF" stroke-width="4" mask="url(#X)" transform="rotate(2 542.036 30.74)" xlink:href="#o"/><use fill="#FFF" stroke-width="4" mask="url(#Y)" xlink:href="#p"/><use fill="#FFF" stroke-width="4" mask="url(#Z)" transform="rotate(-2 603.965 31.015)" xlink:href="#q"/><use fill="#FFF" stroke-width="4" mask="url(#aa)" transform="rotate(-4 634.79 29.256)" xlink:href="#r"/><use fill="#FFF" stroke-width="4" mask="url(#ab)" transform="rotate(-7 665.907 25.964)" xlink:href="#s"/><use fill="#FFF" stroke-width="4" mask="url(#ac)" transform="rotate(-10 695.04 21.612)" xlink:href="#t"/><use fill="#FFF" stroke-width="4" mask="url(#ad)" transform="rotate(-12 724.065 15.975)" xlink:href="#u"/></g><g transform="translate(277 12)"><g stroke="#1692D0" transform="translate(127 143)"><use stroke-width="4" mask="url(#ae)" xlink:href="#v"/><g stroke-width="2" stroke-linecap="square"><path d="M2.617 2.617l19.745 19.745M22.362 2.617L2.617 22.362"/></g></g><use stroke="#39393A" stroke-width="4" mask="url(#af)" xlink:href="#w"/><use stroke="#39393A" stroke-width="4" mask="url(#ag)" xlink:href="#x"/><use stroke="#39393A" stroke-width="4" mask="url(#ah)" xlink:href="#y"/><g stroke="#1692D0" stroke-width="4" transform="translate(56 113)"><use mask="url(#ai)" xlink:href="#z"/><use mask="url(#aj)" xlink:href="#A"/></g><g stroke="#1692D0" transform="translate(57 113)"><use stroke-width="4" mask="url(#ak)" xlink:href="#B"/><use stroke-width="4" mask="url(#al)" xlink:href="#C"/><path stroke-width="2" d="M29.665 8.758s5.587.744 9.112-1.76M.665 8.758s5.587.744 9.112-1.76"/></g><path fill="#39393A" d="M121 114h37v2h-37z"/><use fill="#FFF" stroke="#39393A" stroke-width="4" mask="url(#am)" xlink:href="#D"/><path stroke="#1692D0" stroke-width="2" d="M50 62.702s4.572 4.44 10.298 3.236C66.025 64.734 67.244 62 73.303 62"/><use stroke="#39393A" stroke-width="4" mask="url(#an)" xlink:href="#E"/><g stroke="#39393A" transform="translate(9 140)"><use fill="#FFF" stroke-width="4" mask="url(#ao)" xlink:href="#F"/><circle cx="7" cy="7" r="6" stroke-width="2"/><circle cx="95" cy="7" r="6" stroke-width="2"/><circle cx="51" cy="7" r="6" stroke-width="2"/></g><path fill="#FFF" stroke="#39393A" stroke-width="2" d="M.067 89H0v80h39V89H23.933L18 0H6L.067 89z" stroke-linecap="round" stroke-linejoin="round"/></g><g stroke-width="4" transform="translate(465)"><use stroke="#1692D0" mask="url(#ap)" xlink:href="#G"/><use fill="#FFF" stroke="#39393A" mask="url(#aq)" xlink:href="#H"/><use fill="#FFF" stroke="#39393A" mask="url(#ar)" xlink:href="#I"/></g></g></svg>