<svg xmlns="http://www.w3.org/2000/svg" width="768" height="184" viewBox="0 0 768 184" xmlns:xlink="http://www.w3.org/1999/xlink"><defs><path id="a" d="M319.992 16.65h8v11l-4.134-2-3.866 2z"/><mask id="T" width="8" height="11" x="0" y="0" fill="#fff"><use xlink:href="#a"/></mask><path id="b" d="M165.04 32.525h8v11l-4.134-2-3.866 2z"/><mask id="U" width="8" height="11" x="0" y="0" fill="#fff"><use xlink:href="#b"/></mask><path id="c" d="M133.93 30.844h8v11l-4.132-2-3.867 2z"/><mask id="V" width="8" height="11" x="0" y="0" fill="#fff"><use xlink:href="#c"/></mask><path id="d" d="M102.987 28.288h8v11l-4.134-2-3.866 2z"/><mask id="W" width="8" height="11" x="0" y="0" fill="#fff"><use xlink:href="#d"/></mask><path id="e" d="M73.012 24.634h8v11l-4.134-2-3.866 2z"/><mask id="X" width="8" height="11" x="0" y="0" fill="#fff"><use xlink:href="#e"/></mask><path id="f" d="M41.938 20.693h8v11l-4.134-2-3.866 2z"/><mask id="Y" width="8" height="11" x="0" y="0" fill="#fff"><use xlink:href="#f"/></mask><path id="g" d="M13.938 16.693h8v11l-4.134-2-3.866 2z"/><mask id="Z" width="8" height="11" x="0" y="0" fill="#fff"><use xlink:href="#g"/></mask><path id="h" d="M196.005 33.076h8v11l-4.134-2-3.865 2z"/><mask id="aa" width="8" height="11" x="0" y="0" fill="#fff"><use xlink:href="#h"/></mask><path id="i" d="M227.05 31.85h8v11l-4.134-2-3.866 2z"/><mask id="ab" width="8" height="11" x="0" y="0" fill="#fff"><use xlink:href="#i"/></mask><path id="j" d="M258.042 28.775h8v11l-4.134-2-3.866 2z"/><mask id="ac" width="8" height="11" x="0" y="0" fill="#fff"><use xlink:href="#j"/></mask><path id="k" d="M289.08 23.792h8v11l-4.134-2-3.866 2z"/><mask id="ad" width="8" height="11" x="0" y="0" fill="#fff"><use xlink:href="#k"/></mask><path id="l" d="M535.12 21.506h8v11l-4.133-2-3.866 2z"/><mask id="ae" width="8" height="11" x="0" y="0" fill="#fff"><use xlink:href="#l"/></mask><path id="m" d="M504.416 18.794h8v11l-4.134-2-3.866 2z"/><mask id="af" width="8" height="11" x="0" y="0" fill="#fff"><use xlink:href="#m"/></mask><path id="n" d="M473.02 14.89h8v11l-4.135-2-3.866 2z"/><mask id="ag" width="8" height="11" x="0" y="0" fill="#fff"><use xlink:href="#n"/></mask><path id="o" d="M566.036 23.24h8v11l-4.134-2-3.866 2z"/><mask id="ah" width="8" height="11" x="0" y="0" fill="#fff"><use xlink:href="#o"/></mask><path id="p" d="M597 24.18h8v11l-4.134-2-3.866 2z"/><mask id="ai" width="8" height="11" x="0" y="0" fill="#fff"><use xlink:href="#p"/></mask><path id="q" d="M627.965 23.515h8v11l-4.134-2-3.865 2z"/><mask id="aj" width="8" height="11" x="0" y="0" fill="#fff"><use xlink:href="#q"/></mask><path id="r" d="M658.79 21.756h8v11l-4.134-2-3.866 2z"/><mask id="ak" width="8" height="11" x="0" y="0" fill="#fff"><use xlink:href="#r"/></mask><path id="s" d="M689.907 18.464h8v11l-4.134-2-3.866 2z"/><mask id="al" width="8" height="11" x="0" y="0" fill="#fff"><use xlink:href="#s"/></mask><path id="t" d="M719.04 14.112h8v11l-4.135-2-3.866 2z"/><mask id="am" width="8" height="11" x="0" y="0" fill="#fff"><use xlink:href="#t"/></mask><path id="u" d="M748.065 8.475h8v11l-4.134-2-3.865 2z"/><mask id="an" width="8" height="11" x="0" y="0" fill="#fff"><use xlink:href="#u"/></mask><path id="v" d="M124 65l36 26v66h-36z"/><mask id="ao" width="36" height="92" x="0" y="0" fill="#fff"><use xlink:href="#v"/></mask><path id="w" d="M0 0h34v34H0z"/><mask id="ap" width="34" height="34" x="0" y="0" fill="#fff"><use xlink:href="#w"/></mask><path id="x" d="M7.975 14.023l18.046-3.05v9.12L7.976 23.005z"/><mask id="aq" width="18.046" height="12.031" x="0" y="0" fill="#fff"><use xlink:href="#x"/></mask><path id="y" d="M.322.002h5.96V15.92c0 1.642-1.338 2.972-2.98 2.972-1.646 0-2.98-1.328-2.98-2.972V.002z"/><mask id="ar" width="5.959" height="18.89" x="0" y="0" fill="#fff"><use xlink:href="#y"/></mask><path id="z" d="M.322.002h5.96V15.92c0 1.642-1.338 2.972-2.98 2.972-1.646 0-2.98-1.328-2.98-2.972V.002z"/><mask id="as" width="5.959" height="18.89" x="0" y="0" fill="#fff"><use xlink:href="#z"/></mask><path id="A" d="M.322.002h5.96V15.92c0 1.642-1.338 2.972-2.98 2.972-1.646 0-2.98-1.328-2.98-2.972V.002z"/><mask id="at" width="5.959" height="18.89" x="0" y="0" fill="#fff"><use xlink:href="#A"/></mask><path id="B" d="M0 0h34v34H0z"/><mask id="au" width="34" height="34" x="0" y="0" fill="#fff"><use xlink:href="#B"/></mask><path id="C" d="M7.975 14.023l18.046-3.05v9.12L7.976 23.005z"/><mask id="av" width="18.046" height="12.031" x="0" y="0" fill="#fff"><use xlink:href="#C"/></mask><path id="D" d="M.322.002h5.96V15.92c0 1.642-1.338 2.972-2.98 2.972-1.646 0-2.98-1.328-2.98-2.972V.002z"/><mask id="aw" width="5.959" height="18.89" x="0" y="0" fill="#fff"><use xlink:href="#D"/></mask><path id="E" d="M.322.002h5.96V15.92c0 1.642-1.338 2.972-2.98 2.972-1.646 0-2.98-1.328-2.98-2.972V.002z"/><mask id="ax" width="5.959" height="18.89" x="0" y="0" fill="#fff"><use xlink:href="#E"/></mask><path id="F" d="M.322.002h5.96V15.92c0 1.642-1.338 2.972-2.98 2.972-1.646 0-2.98-1.328-2.98-2.972V.002z"/><mask id="ay" width="5.959" height="18.89" x="0" y="0" fill="#fff"><use xlink:href="#F"/></mask><path id="G" d="M0 0h34v34H0z"/><mask id="az" width="34" height="34" x="0" y="0" fill="#fff"><use xlink:href="#G"/></mask><path id="H" d="M7.975 14.023l18.046-3.05v9.12L7.976 23.005z"/><mask id="aA" width="18.046" height="12.031" x="0" y="0" fill="#fff"><use xlink:href="#H"/></mask><path id="I" d="M.322.002h5.96V15.92c0 1.642-1.338 2.972-2.98 2.972-1.646 0-2.98-1.328-2.98-2.972V.002z"/><mask id="aB" width="5.959" height="18.89" x="0" y="0" fill="#fff"><use xlink:href="#I"/></mask><path id="J" d="M.322.002h5.96V15.92c0 1.642-1.338 2.972-2.98 2.972-1.646 0-2.98-1.328-2.98-2.972V.002z"/><mask id="aC" width="5.959" height="18.89" x="0" y="0" fill="#fff"><use xlink:href="#J"/></mask><path id="K" d="M.322.002h5.96V15.92c0 1.642-1.338 2.972-2.98 2.972-1.646 0-2.98-1.328-2.98-2.972V.002z"/><mask id="aD" width="5.959" height="18.89" x="0" y="0" fill="#fff"><use xlink:href="#K"/></mask><path id="L" d="M38 32h2v6h-2z"/><mask id="aE" width="2" height="6" x="0" y="0" fill="#fff"><use xlink:href="#L"/></mask><path id="M" d="M50 38h2v6h-2z"/><mask id="aF" width="2" height="6" x="0" y="0" fill="#fff"><use xlink:href="#M"/></mask><path id="N" d="M62 44h2v6h-2z"/><mask id="aG" width="2" height="6" x="0" y="0" fill="#fff"><use xlink:href="#N"/></mask><path id="O" d="M3 9h12v43.994C15 56.31 12.307 59 9 59H3V9z"/><mask id="aH" width="12" height="50" x="0" y="0" fill="#fff"><use xlink:href="#O"/></mask><circle id="P" cx="77" cy="50" r="3"/><mask id="aI" width="6" height="6" x="0" y="0" fill="#fff"><use xlink:href="#P"/></mask><path id="Q" d="M18 5h34v25H18z"/><mask id="aJ" width="34" height="25" x="0" y="0" fill="#fff"><use xlink:href="#Q"/></mask><path id="R" d="M2 0h34v26H2z"/><mask id="aK" width="34" height="26" x="0" y="0" fill="#fff"><use xlink:href="#R"/></mask><path id="S" d="M2 0h5l2 182H0z"/><mask id="aL" width="9" height="182" x="0" y="0" fill="#fff"><use xlink:href="#S"/></mask></defs><g fill="none" fill-rule="evenodd"><g stroke="#39393A" transform="translate(-1 29)"><use fill="#FFF" stroke-width="4" mask="url(#T)" transform="rotate(-16 323.992 22.15)" xlink:href="#a"/><path stroke-width="2" d="M0 14.832s109.758 19.156 196.113 19.156C282.47 33.988 341.12 12 341.12 12M769.11 5.456c-29.462 7.16-80.348 17.273-138.545 19.127C538.75 27.508 461 13.223 461 13.223"/><use fill="#FFF" stroke-width="4" mask="url(#U)" transform="rotate(3 169.04 38.025)" xlink:href="#b"/><use fill="#FFF" stroke-width="4" mask="url(#V)" transform="rotate(3 137.93 36.344)" xlink:href="#c"/><use fill="#FFF" stroke-width="4" mask="url(#W)" transform="rotate(6 106.987 33.788)" xlink:href="#d"/><use fill="#FFF" stroke-width="4" mask="url(#X)" transform="rotate(7 77.012 30.134)" xlink:href="#e"/><use fill="#FFF" stroke-width="4" mask="url(#Y)" transform="rotate(9 45.938 26.193)" xlink:href="#f"/><use fill="#FFF" stroke-width="4" mask="url(#Z)" transform="rotate(9 17.938 22.193)" xlink:href="#g"/><use fill="#FFF" stroke-width="4" mask="url(#aa)" xlink:href="#h"/><use fill="#FFF" stroke-width="4" mask="url(#ab)" transform="rotate(-4 231.05 37.35)" xlink:href="#i"/><use fill="#FFF" stroke-width="4" mask="url(#ac)" transform="rotate(-8 262.042 34.275)" xlink:href="#j"/><use fill="#FFF" stroke-width="4" mask="url(#ad)" transform="rotate(-12 293.08 29.292)" xlink:href="#k"/><use fill="#FFF" stroke-width="4" mask="url(#ae)" transform="rotate(4 539.12 27.006)" xlink:href="#l"/><use fill="#FFF" stroke-width="4" mask="url(#af)" transform="rotate(6 508.416 24.294)" xlink:href="#m"/><use fill="#FFF" stroke-width="4" mask="url(#ag)" transform="rotate(8 477.02 20.39)" xlink:href="#n"/><use fill="#FFF" stroke-width="4" mask="url(#ah)" transform="rotate(2 570.036 28.74)" xlink:href="#o"/><use fill="#FFF" stroke-width="4" mask="url(#ai)" xlink:href="#p"/><use fill="#FFF" stroke-width="4" mask="url(#aj)" transform="rotate(-2 631.965 29.015)" xlink:href="#q"/><use fill="#FFF" stroke-width="4" mask="url(#ak)" transform="rotate(-4 662.79 27.256)" xlink:href="#r"/><use fill="#FFF" stroke-width="4" mask="url(#al)" transform="rotate(-7 693.907 23.964)" xlink:href="#s"/><use fill="#FFF" stroke-width="4" mask="url(#am)" transform="rotate(-10 723.04 19.612)" xlink:href="#t"/><use fill="#FFF" stroke-width="4" mask="url(#an)" transform="rotate(-12 752.065 13.975)" xlink:href="#u"/></g><g transform="translate(336 26)"><path stroke="#39393A" stroke-width="2" d="M4 156.014V11.196c0-.557.455-1.013.998-1.017l26.993-.216c.552-.005.998-.462.998-1V.992c0-.546.45-.99 1.002-.99h42.004c.553 0 1.382.237 1.852.53L92.17 9.447c.47.292 1.302.53 1.843.53h30.004c.55 0 .993.444.993.99V155.95L4 156.014z" stroke-linecap="round" stroke-linejoin="round"/><use stroke="#39393A" stroke-width="4" mask="url(#ao)" xlink:href="#v"/><path fill="#39393A" d="M0 9h128v2H0z"/><g stroke="#39393A" stroke-width="4" transform="translate(9 121)"><use mask="url(#ap)" xlink:href="#w"/><use mask="url(#aq)" xlink:href="#x"/></g><g transform="translate(89 117)"><use fill="#FFF" stroke="#1692D0" stroke-width="4" mask="url(#ar)" xlink:href="#y" transform="translate(1.724)"/><rect width="8.028" height="2.048" x=".981" fill="#1692D0" rx="1.024"/></g><g transform="translate(98 117)"><use fill="#FFF" stroke="#1692D0" stroke-width="4" mask="url(#as)" xlink:href="#z" transform="translate(1.724)"/><rect width="8.028" height="2.048" x=".981" fill="#1692D0" rx="1.024"/></g><g transform="translate(107 117)"><use fill="#FFF" stroke="#1692D0" stroke-width="4" mask="url(#at)" xlink:href="#A" transform="translate(1.724)"/><rect width="8.028" height="2.048" x=".981" fill="#1692D0" rx="1.024"/></g><g stroke="#39393A" stroke-width="4" transform="translate(86 121)"><use fill="#FFF" mask="url(#au)" xlink:href="#B"/><use mask="url(#av)" xlink:href="#C"/></g><g transform="translate(50 113)"><use fill="#FFF" stroke="#1692D0" stroke-width="4" mask="url(#aw)" xlink:href="#D" transform="translate(1.724)"/><rect width="8.028" height="2.048" x=".981" fill="#1692D0" rx="1.024"/></g><g transform="translate(59 113)"><use fill="#FFF" stroke="#1692D0" stroke-width="4" mask="url(#ax)" xlink:href="#E" transform="translate(1.724)"/><rect width="8.028" height="2.048" x=".981" fill="#1692D0" rx="1.024"/></g><g transform="translate(68 113)"><use fill="#FFF" stroke="#1692D0" stroke-width="4" mask="url(#ay)" xlink:href="#F" transform="translate(1.724)"/><rect width="8.028" height="2.048" x=".981" fill="#1692D0" rx="1.024"/></g><g stroke="#39393A" stroke-width="4" transform="translate(47 121)"><use fill="#FFF" mask="url(#az)" xlink:href="#G"/><use mask="url(#aA)" xlink:href="#H"/></g><g transform="translate(58 50)"><use fill="#FFF" stroke="#1692D0" stroke-width="4" mask="url(#aB)" xlink:href="#I" transform="translate(1.724)"/><rect width="8.028" height="2.048" x=".981" fill="#1692D0" rx="1.024"/></g><g transform="translate(46 44)"><use fill="#FFF" stroke="#1692D0" stroke-width="4" mask="url(#aC)" xlink:href="#J" transform="translate(1.724)"/><rect width="8.028" height="2.048" x=".981" fill="#1692D0" rx="1.024"/></g><g transform="translate(34 38)"><use fill="#FFF" stroke="#1692D0" stroke-width="4" mask="url(#aD)" xlink:href="#K" transform="translate(1.724)"/><rect width="8.028" height="2.048" x=".981" fill="#1692D0" rx="1.024"/></g><use fill="#D8D8D8" stroke="#39393A" stroke-width="2" mask="url(#aE)" xlink:href="#L"/><use fill="#D8D8D8" stroke="#39393A" stroke-width="2" mask="url(#aF)" xlink:href="#M"/><use fill="#D8D8D8" stroke="#39393A" stroke-width="2" mask="url(#aG)" xlink:href="#N"/><path fill="#39393A" d="M76 10h2v41h-2"/><use stroke="#39393A" stroke-width="4" mask="url(#aH)" xlink:href="#O"/><path fill="#39393A" d="M13 18l63 31v2L13 20"/><use fill="#FFF" stroke="#39393A" stroke-width="4" mask="url(#aI)" xlink:href="#P"/></g><g stroke-width="4" transform="matrix(-1 0 0 1 310 0)"><use stroke="#1692D0" mask="url(#aJ)" xlink:href="#Q"/><use fill="#FFF" stroke="#39393A" mask="url(#aK)" xlink:href="#R"/><use fill="#FFF" stroke="#39393A" mask="url(#aL)" xlink:href="#S"/></g></g></svg>