<svg xmlns="http://www.w3.org/2000/svg"  width="768" height="159" viewBox="0 0 768 159" xmlns:xlink="http://www.w3.org/1999/xlink"><defs><path id="a" d="M1.99 66.014V14.997c0-1.103.897-1.997 2.008-1.997h115.994c1.11 0 2.008.89 2.008 1.997V158.14"/><mask id="ae" width="120.01" height="145.141" x="0" y="0" fill="#fff"><use xlink:href="#a"/></mask><path id="b" d="M35.507 27h7.97v9.93h-7.97z"/><mask id="af" width="7.971" height="9.931" x="0" y="0" fill="#fff"><use xlink:href="#b"/></mask><path id="c" d="M32.023 2.507c0-1.372 1.103-2.485 2.484-2.485 1.372 0 2.485 1.105 2.485 2.485v36.526h-4.97V2.507z"/><mask id="ag" width="4.969" height="39.011" x="0" y="0" fill="#fff"><use xlink:href="#c"/></mask><path id="d" d="M41.03 18.492C41.03 8.832 48.855 1 58.514 1h13.49c2.207 0 3.996 1.79 3.996 4.01v37.026H41.03V18.492z"/><mask id="ah" width="34.971" height="41.036" x="0" y="0" fill="#fff"><use xlink:href="#d"/></mask><path id="e" d="M39.345 23.1h15.833v2.555H39.345z"/><mask id="ai" width="15.833" height="2.556" x="0" y="0" fill="#fff"><use xlink:href="#e"/></mask><path id="f" d="M67.45 10.925c.113-.542.65-.98 1.207-.98h.424c.554 0 .91.436.795.98l-2.22 10.52H65.23l2.22-10.52z"/><mask id="aj" width="4.667" height="11.5" x="0" y="0" fill="#fff"><use xlink:href="#f"/></mask><path id="g" d="M53.098 27.833l7.36-7.74h16L81 25.28v15.85c0 1.1-.897 1.994-2.007 1.994H53.098v-15.29z"/><mask id="ak" width="27.902" height="23.028" x="0" y="0" fill="#fff"><use xlink:href="#g"/></mask><path id="h" d="M54.5 47c5.247 0 9.5-4.477 9.5-10s-4.253-10-9.5-10S45 31.477 45 37s4.253 10 9.5 10z"/><mask id="al" width="19" height="20" x="0" y="0" fill="#fff"><use xlink:href="#h"/></mask><ellipse id="i" cx="72" cy="40.5" rx="6" ry="6.5"/><mask id="am" width="12" height="13" x="0" y="0" fill="#fff"><use xlink:href="#i"/></mask><path id="j" d="M.024 11.99c0-1.1.89-1.99 2.004-1.99H23.02c1.107 0 2.004.89 2.004 1.99V60h-25V11.99z"/><mask id="an" width="25" height="50" x="0" y="0" fill="#fff"><use xlink:href="#j"/></mask><path id="k" d="M.024 30h25v9h-25z"/><mask id="ao" width="25" height="9" x="0" y="0" fill="#fff"><use xlink:href="#k"/></mask><path id="l" d="M8.024 10h9v50h-9z"/><mask id="ap" width="9" height="50" x="0" y="0" fill="#fff"><use xlink:href="#l"/></mask><path id="m" d="M8.024 7h9v5h-9z"/><mask id="aq" width="9" height="5" x="0" y="0" fill="#fff"><use xlink:href="#m"/></mask><path id="n" d="M15.024 7L18.526.872c.275-.48.782-.532 1.142-.1l3.713 4.456c.356.426.27 1.022-.186 1.326L15.024 12V7z"/><mask id="ar" width="8.576" height="11.523" x="0" y="0" fill="#fff"><use xlink:href="#n"/></mask><path id="o" d="M1.024 7L4.526.872c.275-.48.782-.532 1.142-.1L9.38 5.228c.356.426.27 1.022-.186 1.326L1.024 12V7z"/><mask id="as" width="8.576" height="11.523" x="0" y="0" fill="#fff"><use xlink:href="#o"/></mask><path id="p" d="M16 7.5C16 3.358 19.356 0 23.51 0h76.98C104.64 0 108 3.366 108 7.5V15H16V7.5z"/><mask id="at" width="92" height="15" x="0" y="0" fill="#fff"><use xlink:href="#p"/></mask><path id="q" d="M0 2h59v2H0z"/><mask id="au" width="59" height="2" x="0" y="0" fill="#fff"><use xlink:href="#q"/></mask><path id="r" d="M0 59h125v6H0z"/><mask id="av" width="125" height="6" x="0" y="0" fill="#fff"><use xlink:href="#r"/></mask><path id="s" d="M10.117 54.876C11.412 53.84 13.81 53 15.46 53h92c1.658 0 4.053.84 5.346 1.876l5.31 4.248c1.296 1.036 1 1.876-.66 1.876H5.466c-1.66 0-1.953-.84-.66-1.876l5.31-4.248z"/><mask id="aw" width="114.923" height="8" x="0" y="0" fill="#fff"><use xlink:href="#s"/></mask><path id="t" d="M3 10.99C3 9.89 3.89 9 5.004 9h20.992C27.103 9 28 9.89 28 10.99V59H3V10.99z"/><mask id="ax" width="25" height="50" x="0" y="0" fill="#fff"><use xlink:href="#t"/></mask><path id="u" d="M3 28h25v9H3z"/><mask id="ay" width="25" height="9" x="0" y="0" fill="#fff"><use xlink:href="#u"/></mask><path id="v" d="M11 9h9v50h-9z"/><mask id="az" width="9" height="50" x="0" y="0" fill="#fff"><use xlink:href="#v"/></mask><path id="w" d="M11 6h9v5h-9z"/><mask id="aA" width="9" height="5" x="0" y="0" fill="#fff"><use xlink:href="#w"/></mask><path id="x" d="M18 6.523L21.5.395c.277-.482.783-.532 1.143-.1l3.714 4.456c.355.427.268 1.023-.188 1.327L18 11.523v-5z"/><mask id="aB" width="8.576" height="11.523" x="0" y="0" fill="#fff"><use xlink:href="#x"/></mask><path id="y" d="M4 6.523L7.5.395c.277-.482.783-.532 1.143-.1l3.714 4.456c.355.427.268 1.023-.188 1.327L4 11.523v-5z"/><mask id="aC" width="8.576" height="11.523" x="0" y="0" fill="#fff"><use xlink:href="#y"/></mask><circle id="z" cx="17.5" cy="72.5" r="7.5"/><mask id="aD" width="15" height="15" x="0" y="0" fill="#fff"><use xlink:href="#z"/></mask><circle id="A" cx="107.5" cy="72.5" r="7.5"/><mask id="aE" width="15" height="15" x="0" y="0" fill="#fff"><use xlink:href="#A"/></mask><circle id="B" cx="92.5" cy="72.5" r="7.5"/><mask id="aF" width="15" height="15" x="0" y="0" fill="#fff"><use xlink:href="#B"/></mask><circle id="C" cx="77.5" cy="72.5" r="7.5"/><mask id="aG" width="15" height="15" x="0" y="0" fill="#fff"><use xlink:href="#C"/></mask><circle id="D" cx="62.5" cy="72.5" r="7.5"/><mask id="aH" width="15" height="15" x="0" y="0" fill="#fff"><use xlink:href="#D"/></mask><circle id="E" cx="47.5" cy="72.5" r="7.5"/><mask id="aI" width="15" height="15" x="0" y="0" fill="#fff"><use xlink:href="#E"/></mask><circle id="F" cx="32.5" cy="72.5" r="7.5"/><mask id="aJ" width="15" height="15" x="0" y="0" fill="#fff"><use xlink:href="#F"/></mask><path id="G" d="M36.853 27.645c.633-.91 2.042-1.645 3.154-1.645h30.105c1.11 0 2.738.525 3.628 1.165l17.64 12.67c.894.644 1.62 2.062 1.62 3.17V55H33V35.165c0-1.102.516-2.735 1.147-3.64l2.706-3.88z"/><mask id="aK" width="60" height="29" x="0" y="0" fill="#fff"><use xlink:href="#G"/></mask><path id="H" d="M2.528 68.42C1.11 65.425 2.644 63 5.968 63h112.985c3.318 0 4.962 2.484 3.683 5.52l-2.183 5.188c-1.93 4.58-7.53 8.292-12.49 8.292H17.96c-4.97 0-10.724-3.64-12.855-8.14l-2.577-5.44z" fill="none" stroke-width="3" stroke="#39393A"/><mask id="aL" width="121.07" height="19" x="0" y="0" fill="#fff"><use xlink:href="#H"/></mask><path id="I" d="M293.992 18.65h8v11l-4.134-2-3.866 2z"/><mask id="aM" width="8" height="11" x="0" y="0" fill="#fff"><use xlink:href="#I"/></mask><path id="J" d="M749.336 10.207h8v11l-4.133-2-3.867 2z"/><mask id="aN" width="8" height="11" x="0" y="0" fill="#fff"><use xlink:href="#J"/></mask><path id="K" d="M777.79 6.046h8v11l-4.133-2-3.866 2z"/><mask id="aO" width="8" height="11" x="0" y="0" fill="#fff"><use xlink:href="#K"/></mask><path id="L" d="M804.127 1.512h8v11l-4.134-2-3.866 2z"/><mask id="aP" width="8" height="11" x="0" y="0" fill="#fff"><use xlink:href="#L"/></mask><path id="M" d="M139.04 34.525h8v11l-4.134-2-3.866 2z"/><mask id="aQ" width="8" height="11" x="0" y="0" fill="#fff"><use xlink:href="#M"/></mask><path id="N" d="M107.93 32.844h8v11l-4.132-2-3.867 2z"/><mask id="aR" width="8" height="11" x="0" y="0" fill="#fff"><use xlink:href="#N"/></mask><path id="O" d="M76.987 30.288h8v11l-4.134-2-3.866 2z"/><mask id="aS" width="8" height="11" x="0" y="0" fill="#fff"><use xlink:href="#O"/></mask><path id="P" d="M46.987 26.288h8v11l-4.134-2-3.866 2z"/><mask id="aT" width="8" height="11" x="0" y="0" fill="#fff"><use xlink:href="#P"/></mask><path id="Q" d="M170.005 35.076h8v11l-4.134-2-3.865 2z"/><mask id="aU" width="8" height="11" x="0" y="0" fill="#fff"><use xlink:href="#Q"/></mask><path id="R" d="M201.05 33.85h8v11l-4.134-2-3.866 2z"/><mask id="aV" width="8" height="11" x="0" y="0" fill="#fff"><use xlink:href="#R"/></mask><path id="S" d="M232.042 30.775h8v11l-4.134-2-3.866 2z"/><mask id="aW" width="8" height="11" x="0" y="0" fill="#fff"><use xlink:href="#S"/></mask><path id="T" d="M263.08 25.792h8v11l-4.134-2-3.866 2z"/><mask id="aX" width="8" height="11" x="0" y="0" fill="#fff"><use xlink:href="#T"/></mask><path id="U" d="M507.12 23.506h8v11l-4.133-2-3.866 2z"/><mask id="aY" width="8" height="11" x="0" y="0" fill="#fff"><use xlink:href="#U"/></mask><path id="V" d="M476.416 20.794h8v11l-4.134-2-3.866 2z"/><mask id="aZ" width="8" height="11" x="0" y="0" fill="#fff"><use xlink:href="#V"/></mask><path id="W" d="M445.02 16.89h8v11l-4.135-2-3.866 2z"/><mask id="ba" width="8" height="11" x="0" y="0" fill="#fff"><use xlink:href="#W"/></mask><path id="X" d="M538.036 25.24h8v11l-4.134-2-3.866 2z"/><mask id="bb" width="8" height="11" x="0" y="0" fill="#fff"><use xlink:href="#X"/></mask><path id="Y" d="M569 26.18h8v11l-4.134-2-3.866 2z"/><mask id="bc" width="8" height="11" x="0" y="0" fill="#fff"><use xlink:href="#Y"/></mask><path id="Z" d="M599.965 25.515h8v11l-4.134-2-3.865 2z"/><mask id="bd" width="8" height="11" x="0" y="0" fill="#fff"><use xlink:href="#Z"/></mask><path id="aa" d="M630.79 23.756h8v11l-4.134-2-3.866 2z"/><mask id="be" width="8" height="11" x="0" y="0" fill="#fff"><use xlink:href="#aa"/></mask><path id="ab" d="M661.907 21.464h8v11l-4.134-2-3.866 2z"/><mask id="bf" width="8" height="11" x="0" y="0" fill="#fff"><use xlink:href="#ab"/></mask><path id="ac" d="M691.04 18.112h8v11l-4.135-2-3.866 2z"/><mask id="bg" width="8" height="11" x="0" y="0" fill="#fff"><use xlink:href="#ac"/></mask><path id="ad" d="M720.118 14.725h8v11l-4.133-2-3.867 2z"/><mask id="bh" width="8" height="11" x="0" y="0" fill="#fff"><use xlink:href="#ad"/></mask></defs><g fill="none" fill-rule="evenodd"><g transform="translate(260)"><use stroke="#39393A" stroke-width="4" mask="url(#ae)" transform="matrix(-1 0 0 1 123.99 0)" xlink:href="#a"/><g stroke="#39393A" stroke-width="2"><path d="M1.996 86.997H42v71.983M1.996 93.997H42M1.996 100.997H42"/></g><g transform="matrix(-1 0 0 1 101 110)"><path fill="#39393A" d="M.065 38.01c-.036-.56.394-1.012.943-1.012h31.467v2.023H1.133C.58 39.02.1 38.573.065 38.01z"/><use stroke="#39393A" stroke-width="4" mask="url(#af)" xlink:href="#b"/><use stroke="#39393A" stroke-width="4" mask="url(#ag)" xlink:href="#c"/><use fill="#FFF" stroke="#39393A" stroke-width="4" mask="url(#ah)" xlink:href="#d"/><use stroke="#39393A" stroke-width="4" mask="url(#ai)" transform="rotate(-45 47.262 24.377)" xlink:href="#e"/><path fill="#39393A" d="M51.53 16.064c.5-.5 1.31-.497 1.806 0l2.13 2.128c.497.498.5 1.303-.002 1.806-.5.5-1.31.497-1.806 0l-2.13-2.128c-.498-.5-.5-1.304.002-1.806z"/><use stroke="#39393A" stroke-width="4" mask="url(#aj)" xlink:href="#f"/><use fill="#FFF" stroke="#39393A" stroke-width="4" mask="url(#ak)" xlink:href="#g"/><use fill="#FFF" stroke="#39393A" stroke-width="4" mask="url(#al)" xlink:href="#h"/><use fill="#FFF" stroke="#39393A" stroke-width="4" mask="url(#am)" xlink:href="#i"/></g><g stroke="#1692D0" stroke-width="4" transform="translate(72 87)"><use mask="url(#an)" xlink:href="#j"/><use fill="#FFF" mask="url(#ao)" xlink:href="#k"/><use fill="#FFF" mask="url(#ap)" xlink:href="#l"/><use mask="url(#aq)" xlink:href="#m"/><use mask="url(#ar)" xlink:href="#n"/><use mask="url(#as)" transform="matrix(-1 0 0 1 10.624 0)" xlink:href="#o"/></g><use stroke="#39393A" stroke-width="4" mask="url(#at)" transform="matrix(-1 0 0 1 124 0)" xlink:href="#p"/><path fill="#39393A" d="M125 13H0v2h125z"/></g><g transform="translate(377 75)"><path fill="#39393A" d="M75.258 31.234c-.142-.532.18-1.035.73-1.125l7.943-1.3c.546-.09 1.105.274 1.245.795l1.04 3.882c.14.528-.137 1.15-.637 1.398l-7.355 3.637c-.494.244-1.01.01-1.152-.522l-1.812-6.766z"/><g transform="rotate(-15 156.26 -270.206)"><use fill="#D8D8D8" stroke="#39393A" stroke-width="4" mask="url(#au)" xlink:href="#q"/><rect width="15" height="6" x="44" fill="#39393A" rx="1"/></g><use stroke="#39393A" stroke-width="4" mask="url(#av)" xlink:href="#r"/><use stroke="#39393A" stroke-width="4" mask="url(#aw)" xlink:href="#s"/><use fill="#FFF" stroke="#1692D0" stroke-width="4" mask="url(#ax)" xlink:href="#t"/><use fill="#FFF" stroke="#1692D0" stroke-width="4" mask="url(#ay)" xlink:href="#u"/><use fill="#FFF" stroke="#1692D0" stroke-width="4" mask="url(#az)" xlink:href="#v"/><use stroke="#1692D0" stroke-width="4" mask="url(#aA)" xlink:href="#w"/><use stroke="#1692D0" stroke-width="4" mask="url(#aB)" xlink:href="#x"/><use stroke="#1692D0" stroke-width="4" mask="url(#aC)" transform="matrix(-1 0 0 1 16.576 0)" xlink:href="#y"/><use fill="#FFF" stroke="#39393A" stroke-width="4" mask="url(#aD)" xlink:href="#z"/><use fill="#FFF" stroke="#39393A" stroke-width="4" mask="url(#aE)" xlink:href="#A"/><use fill="#FFF" stroke="#39393A" stroke-width="4" mask="url(#aF)" xlink:href="#B"/><use fill="#FFF" stroke="#39393A" stroke-width="4" mask="url(#aG)" xlink:href="#C"/><use fill="#FFF" stroke="#39393A" stroke-width="4" mask="url(#aH)" xlink:href="#D"/><use fill="#FFF" stroke="#39393A" stroke-width="4" mask="url(#aI)" xlink:href="#E"/><use fill="#FFF" stroke="#39393A" stroke-width="4" mask="url(#aJ)" xlink:href="#F"/><use fill="#FFF" stroke="#39393A" stroke-width="4" mask="url(#aK)" xlink:href="#G"/><use stroke="#39393A" stroke-width="4" mask="url(#aL)" xlink:href="#H"/></g><g stroke="#39393A" transform="translate(-52 7)"><use fill="#FFF" stroke-width="4" mask="url(#aM)" transform="rotate(-15 297.992 24.15)" xlink:href="#I"/><use fill="#FFF" stroke-width="4" mask="url(#aN)" transform="rotate(-9 753.336 15.707)" xlink:href="#J"/><use fill="#FFF" stroke-width="4" mask="url(#aO)" transform="rotate(-11 781.79 11.546)" xlink:href="#K"/><use fill="#FFF" stroke-width="4" mask="url(#aP)" transform="rotate(-11 808.127 7.012)" xlink:href="#L"/><path stroke-width="2" d="M0 18.832s83.758 17.156 170.113 17.156C256.47 35.988 315.12 14 315.12 14M821 .172s-126.62 23.486-218.435 26.41C510.75 29.51 433 15.225 433 15.225"/><use fill="#FFF" stroke-width="4" mask="url(#aQ)" transform="rotate(3 143.04 40.025)" xlink:href="#M"/><use fill="#FFF" stroke-width="4" mask="url(#aR)" transform="rotate(3 111.93 38.344)" xlink:href="#N"/><use fill="#FFF" stroke-width="4" mask="url(#aS)" transform="rotate(6 80.987 35.788)" xlink:href="#O"/><use fill="#FFF" stroke-width="4" mask="url(#aT)" transform="rotate(9 50.987 31.788)" xlink:href="#P"/><use fill="#FFF" stroke-width="4" mask="url(#aU)" xlink:href="#Q"/><use fill="#FFF" stroke-width="4" mask="url(#aV)" transform="rotate(-4 205.05 39.35)" xlink:href="#R"/><use fill="#FFF" stroke-width="4" mask="url(#aW)" transform="rotate(-8 236.042 36.275)" xlink:href="#S"/><use fill="#FFF" stroke-width="4" mask="url(#aX)" transform="rotate(-12 267.08 31.292)" xlink:href="#T"/><use fill="#FFF" stroke-width="4" mask="url(#aY)" transform="rotate(4 511.12 29.006)" xlink:href="#U"/><use fill="#FFF" stroke-width="4" mask="url(#aZ)" transform="rotate(6 480.416 26.294)" xlink:href="#V"/><use fill="#FFF" stroke-width="4" mask="url(#ba)" transform="rotate(8 449.02 22.39)" xlink:href="#W"/><use fill="#FFF" stroke-width="4" mask="url(#bb)" transform="rotate(2 542.036 30.74)" xlink:href="#X"/><use fill="#FFF" stroke-width="4" mask="url(#bc)" xlink:href="#Y"/><use fill="#FFF" stroke-width="4" mask="url(#bd)" transform="rotate(-2 603.965 31.015)" xlink:href="#Z"/><use fill="#FFF" stroke-width="4" mask="url(#be)" transform="rotate(-4 634.79 29.256)" xlink:href="#aa"/><use fill="#FFF" stroke-width="4" mask="url(#bf)" transform="rotate(-7 665.907 26.964)" xlink:href="#ab"/><use fill="#FFF" stroke-width="4" mask="url(#bg)" transform="rotate(-10 695.04 23.612)" xlink:href="#ac"/><use fill="#FFF" stroke-width="4" mask="url(#bh)" transform="rotate(-11 724.118 20.225)" xlink:href="#ad"/></g></g></svg>