<svg xmlns="http://www.w3.org/2000/svg" xmlns:xlink="http://www.w3.org/1999/xlink" width="991" height="187" viewBox="0 0 991 187"><defs><path id="path-1" d="M40.947 18.448C40.947 8.812 48.757 1 58.397 1h13.447a4.003 4.003 0 0 1 4.004 4.01v37.026H40.947V18.448z"/><path id="path-2" d="M52.991 27.833l7.344-7.74h15.97l4.532 5.185v15.849a1.998 1.998 0 0 1-2.003 1.995H52.991V27.833z"/><path id="path-3" d="M54.39 47c5.236 0 9.481-4.477 9.481-10s-4.245-10-9.48-10c-5.237 0-9.482 4.477-9.482 10s4.245 10 9.481 10z"/><ellipse id="path-4" cx="71.8549849" cy="40.5" rx="5.98791541" ry="6.5"/><rect id="path-5" width="24.9496475" height="9" x="0.0243648902" y="30"/><rect id="path-6" width="8.98187311" height="50" x="8.0082521" y="10"/><path id="path-7" d="M17.294 49.733c.37-.405 1.121-.733 1.67-.733h74.845c.552 0 1.38.229 1.857.516l18.245 10.968c.473.285.4.516-.14.516H7.983c-.551 0-.693-.333-.328-.733l9.638-10.534z"/><path id="path-8" d="M90.817 34h5.985c.552 0 1.288.354 1.633.78l2.727 3.36c.35.431.633 1.235.633 1.789v1.063A1 1 0 0 1 100.8 42h-9.984v-8z"/><polygon id="path-9" points="99.7985901 37 145.705942 37 145.705942 39 100.796576 39"/><path id="path-10" d="M51.122 33.84c.427-1.017 1.66-1.84 2.771-1.84h27.94c1.103 0 2.527.722 3.182 1.615L92.627 44c.654.892 1.184 2.504 1.184 3.62V51h-49.9l7.211-17.16z"/><path id="path-11" d="M62.873 29.998c0-1.104.892-1.998 1.999-1.998h8.976a2 2 0 0 1 1.999 1.998V34H62.873v-4.002z"/><path id="path-12" d="M0 10.99C0 9.892.888 9 2 9h20.95c1.104 0 2 .89 2 1.99V59H0V10.99z"/><rect id="path-13" width="24.9496475" height="9" y="28"/><rect id="path-14" width="8.98187311" height="50" x="7.98388721" y="9"/><polygon id="path-15" points="346.292774 2.6491649 354.276662 2.6491649 354.276662 13.6491649 350.151198 11.6491649 346.292774 13.6491649"/><polygon id="path-16" points="807.706311 24.2069495 815.690198 24.2069495 815.690198 35.2069495 811.564735 33.2069495 807.706311 35.2069495"/><polygon id="path-17" points="838.099501 22.0464372 846.083388 22.0464372 846.083388 33.0464372 841.957925 31.0464372 838.099501 33.0464372"/><polygon id="path-18" points="870.549624 18.5601034 878.533512 18.5601034 878.533512 29.5601034 874.408048 27.5601034 870.549624 29.5601034"/><polygon id="path-19" points="905.479131 14.5601034 913.463018 14.5601034 913.463018 25.5601034 909.337555 23.5601034 905.479131 25.5601034"/><polygon id="path-20" points="936.416694 10.5601034 944.400581 10.5601034 944.400581 21.5601034 940.275118 19.5601034 936.416694 21.5601034"/><polygon id="path-21" points="968.253815 6.73407886 976.237702 6.73407886 976.237702 17.7340789 972.112239 15.7340789 968.253815 17.7340789"/><polygon id="path-22" points="191.681555 20.7139915 199.665442 20.7139915 199.665442 31.7139915 195.539979 29.7139915 191.681555 31.7139915"/><polygon id="path-23" points="160.607248 20.8436655 168.591135 20.8436655 168.591135 31.8436655 164.465672 29.8436655 160.607248 31.8436655"/><polygon id="path-24" points="129.724993 20.2876425 137.70888 20.2876425 137.70888 31.2876425 133.583417 29.2876425 129.724993 31.2876425"/><polygon id="path-25" points="98.8957319 19.0193247 106.879619 19.0193247 106.879619 30.0193247 102.754156 28.0193247 98.8957319 30.0193247"/><polygon id="path-26" points="68.8147185 17.1837727 76.7986057 17.1837727 76.7986057 28.1837727 72.6731425 26.1837727 68.8147185 28.1837727"/><polygon id="path-27" points="37.9369628 14.7100377 45.92085 14.7100377 45.92085 25.7100377 41.7953868 23.7100377 37.9369628 25.7100377"/><polygon id="path-28" points="6.99939982 11.7100377 14.983287 11.7100377 14.983287 22.7100377 10.8578238 20.7100377 6.99939982 22.7100377"/><polygon id="path-29" points="222.555973 19.0756836 230.53986 19.0756836 230.53986 30.0756836 226.414397 28.0756836 222.555973 30.0756836"/><polygon id="path-30" points="253.537973 16.8498567 261.521861 16.8498567 261.521861 27.8498567 257.396397 25.8498567 253.537973 27.8498567"/><polygon id="path-31" points="284.202092 12.9365935 292.185979 12.9365935 292.185979 23.9365935 288.060516 21.9365935 284.202092 23.9365935"/><polygon id="path-32" points="315.443224 8.79229764 323.427111 8.79229764 323.427111 19.7922976 319.301648 17.7922976 315.443224 19.7922976"/><polygon id="path-33" points="558.993061 14.5061604 566.976948 14.5061604 566.976948 25.5061604 562.851485 23.5061604 558.993061 25.5061604"/><polygon id="path-34" points="528.804971 9.45602603 536.788859 9.45602603 536.788859 20.456026 532.663395 18.456026 528.804971 20.456026"/><polygon id="path-35" points="496.86375 3.14508887 504.847638 3.14508887 504.847638 14.1450889 500.722174 12.1450889 496.86375 14.1450889"/><polygon id="path-36" points="590.007982 18.8469226 597.99187 18.8469226 597.99187 29.8469226 593.866406 27.8469226 590.007982 29.8469226"/><polygon id="path-37" points="620.747231 22.1806641 628.731118 22.1806641 628.731118 33.1806641 624.605655 31.1806641 620.747231 33.1806641"/><polygon id="path-38" points="651.538709 24.9256967 659.522596 24.9256967 659.522596 35.9256967 655.397133 33.9256967 651.538709 35.9256967"/><polygon id="path-39" points="682.683349 26.3356027 690.667236 26.3356027 690.667236 37.3356027 686.541773 35.3356027 682.683349 37.3356027"/><polygon id="path-40" points="713.559512 26.9862375 721.543399 26.9862375 721.543399 37.9862375 717.417936 35.9862375 713.559512 37.9862375"/><polygon id="path-41" points="743.63014 26.6967944 751.614027 26.6967944 751.614027 37.6967944 747.488564 35.6967944 743.63014 37.6967944"/><polygon id="path-42" points="775.553109 25.7251738 783.536996 25.7251738 783.536996 36.7251738 779.411533 34.7251738 775.553109 36.7251738"/></defs><g id="--9-may" fill="none" fill-rule="evenodd"><g id="-9-mobile_version" transform="translate(0.000000, -1071.000000)"><g id="иллюстрация_2" transform="translate(0.000000, 1066.000000)"><path id="Rectangle-34-Copy-3" fill="#1692D0" d="M423.494 5.236h1.614v8.087h-1.614V5.236zm14.441 3.86l1.306.948-4.9 6.745-1.306-.949 4.9-6.745zm9.4 10.946l.499 1.535-8.454 2.747-.5-1.535 8.455-2.747zm.499 14.492l-.499 1.535-8.454-2.747.499-1.535 8.454 2.747zM439.24 46.59l-1.306.949-4.9-6.745 1.305-.949 4.901 6.745zm-14.133 4.742h-1.614v-8.087h1.614v8.087zm-13.063-3.793l-1.306-.949 4.9-6.745 1.307.949-4.901 6.745zm-8.74-11.469l-.499-1.535 8.454-2.747.5 1.535-8.455 2.747zm-.499-14.492l.499-1.535 8.454 2.747-.499 1.535-8.454-2.747zm7.933-11.533l1.306-.949 4.9 6.745-1.305.949-4.9-6.745z" transform="translate(425.319999, 28.283382) rotate(13.000000) translate(-425.319999, -28.283382)"/><rect id="Rectangle-4" width="67.8630413" height="26" x="387.21853" y="35" fill="#FFF"/><g id="Group-15" transform="translate(364.264854, 33.000000)"><g id="Group-14"><path id="Path-3-Copy" stroke="#39393A" stroke-width="2" d="M121 65.472V14.996a.98.98 0 0 0-.991-.98l-116.236.918a1.013 1.013 0 0 0-1.007 1.01v140.968L121 65.472z"/><g id="Group-3" stroke="#39393A" stroke-width="2" transform="translate(21.456697, 122.500000) scale(-1, 1) translate(-21.456697, -122.500000) translate(0.997986, 86.000000)"><polyline id="Path-2" points="39.9238217 0.996582031 0.00079185893 0.996582031 0.00079185893 72.9802856"/><path id="Path-2-Copy" d="M39.924 7.997H0"/><path id="Path-2-Copy-2" d="M39.924 14.997H0"/></g><g id="Group" transform="translate(60.378147, 133.500000) scale(-1, 1) translate(-60.378147, -133.500000) translate(19.959718, 110.000000)"><path id="Rectangle-26" fill="#39393A" d="M.065 38.01a.939.939 0 0 1 .94-1.012H32.41v2.023H1.131c-.553 0-1.03-.45-1.066-1.012z"/><path id="Rectangle-25" stroke="#39393A" stroke-width="2" d="M36.436 28h5.955v7.931h-5.955V28z"/><path id="Rectangle-24" stroke="#39393A" stroke-width="2" d="M35.917 38.033H32.96V2.493c0-.816.655-1.47 1.479-1.47.818 0 1.48.658 1.48 1.47v35.54z"/><g id="Rectangle-20"><use fill="#FFF" xlink:href="#path-1"/><path stroke="#39393A" stroke-width="2" d="M74.848 41.036H41.947V18.448C41.947 9.363 49.31 2 58.397 2h13.447a3.003 3.003 0 0 1 3.004 3.01v36.026z"/></g><path id="Rectangle-22" stroke="#39393A" stroke-width="2" d="M42.09 29.06l9.76-9.759.393.393-9.76 9.759-.392-.393z"/><path id="Rectangle-23" fill="#39393A" d="M50.613 18.03a1.28 1.28 0 0 1 1.288-1.277h2.976a1.28 1.28 0 0 1 1.288 1.278 1.28 1.28 0 0 1-1.288 1.278h-2.976a1.28 1.28 0 0 1-1.288-1.278z" transform="translate(53.389033, 18.030768) rotate(45.000000) translate(-53.389033, -18.030768)"/><path id="Rectangle-21" stroke="#39393A" stroke-width="2" d="M68.708 10.944l-2 9.5h-.377l1.96-9.313c.018-.08.147-.187.227-.187h.19z"/><g id="Rectangle-19"><use fill="#FFF" xlink:href="#path-2"/><path stroke="#39393A" stroke-width="2" d="M53.991 28.232l6.774-7.138h15.086l3.986 4.56v15.473c0 .55-.447.995-1.003.995H53.991v-13.89z"/></g><g id="Oval-6"><use fill="#FFF" xlink:href="#path-3"/><path stroke="#39393A" stroke-width="2" d="M54.39 46c-4.671 0-8.48-4.018-8.48-9s3.809-9 8.48-9c4.672 0 8.481 4.018 8.481 9s-3.81 9-8.48 9z"/></g><g id="Oval-6-Copy-32"><use fill="#FFF" xlink:href="#path-4"/><ellipse cx="71.8549849" cy="40.5" stroke="#39393A" stroke-width="2" rx="4.98791541" ry="5.5"/></g></g><g id="Group-20" transform="translate(71.854985, 87.000000)"><path id="Rectangle-16" stroke="#1692D0" stroke-width="2" d="M23.974 59H1.024V11.99a.99.99 0 0 1 1-.99h20.95c.554 0 1 .443 1 .99V59z"/><g id="Rectangle-16-Copy-2"><use fill="#FFF" xlink:href="#path-5"/><rect width="22.9496475" height="7" x="1.02436489" y="31" stroke="#1692D0" stroke-width="2"/></g><g id="Combined-Shape"><use fill="#FFF" xlink:href="#path-6"/><rect width="6.98187311" height="48" x="9.0082521" y="11" stroke="#1692D0" stroke-width="2"/></g><rect id="Rectangle-31" width="6.98187311" height="3" x="9.0082521" y="8" stroke="#1692D0" stroke-width="2"/><path id="Rectangle-31-Copy" stroke="#1692D0" stroke-width="2" d="M15.994 7.265L19.14 1.75l3.357 4.036-6.503 4.344V7.265z"/><path id="Rectangle-31-Copy-2" stroke="#1692D0" stroke-width="2" d="M8.58 7.265L5.436 1.75 2.078 5.785 8.58 10.13V7.265z"/></g><path id="Rectangle" stroke="#39393A" stroke-width="2" d="M16.968 14h89.814V7.5c0-3.592-2.903-6.5-6.494-6.5H23.462c-3.583 0-6.494 2.915-6.494 6.5V14z"/><rect id="Rectangle-29" width="124.748238" height="2" y="13" fill="#39393A" transform="translate(62.374119, 14.000000) scale(-1, 1) translate(-62.374119, -14.000000)"/></g><g id="Group-13" transform="translate(116.764350, 75.000000)"><g id="Rectangle-14"><use fill="#FFF" xlink:href="#path-7"/><path stroke="#39393A" stroke-width="2" d="M111.164 60H9.256l8.775-9.592c.18-.196.663-.408.932-.408H93.81c.372 0 1.022.18 1.342.373L111.164 60z"/></g><path id="Combined-Shape" fill="#FFF" stroke="#39393A" stroke-width="2" d="M116.827 70.443l4.862-.024c1.663-.008 2.4-1.216 1.648-2.698l-1.078-2.128c-.253-.499-.741-1.238-1.098-1.667l-.071-.086c-1.759-2.116-5.43-3.84-8.19-3.84H3.742l-3.24 5.292c-.583.951-.455 2.385.279 3.213l1.674 1.887c3.452-5.375 11.786-3.528 14.836-3.528 3.683 0 29.48.771 69.393.771 14.355 0 21.268-.77 25.779 0 2.756.71 3.939 1.767 4.365 2.808z"/><g id="Rectangle-41"><use fill="#FFF" xlink:href="#path-8"/><path stroke="#39393A" stroke-width="2" d="M91.817 35h4.985c.248 0 .7.216.857.41l2.726 3.36c.204.252.41.833.41 1.159v1.063c0 .008 0 .008.006.008h-8.984v-6z"/></g><g id="Rectangle-42"><use fill="#FFF" xlink:href="#path-9"/><path stroke="#39393A" stroke-width="2" d="M99.799 38h45.907l-1-1v2l1-1h-44.91l.895.554-.998-2L99.8 38z"/></g><rect id="Rectangle-28" width="1.9959718" height="4" x="143.70997" y="36" fill="#39393A" rx="0.997985901"/><path id="Oval" fill="#FFF" stroke="#39393A" stroke-width="2" d="M89.9 46c3.733 0 5.907-2.502 5.907-5.754 0-3.251-3.46-6.246-8.209-6.246-4.75 0-6.761 2.636-6.761 5.887 0 3.251 5.328 6.113 9.062 6.113z"/><g id="Rectangle-15"><use fill="#FFF" xlink:href="#path-10"/><path stroke="#39393A" stroke-width="2" d="M92.81 50H45.417l6.628-15.774C52.316 33.58 53.188 33 53.893 33h27.94c.785 0 1.91.57 2.375 1.206L91.82 44.59c.53.723.99 2.129.99 3.03V50z"/></g><g id="Rectangle-43"><use fill="#FFF" xlink:href="#path-11"/><path stroke="#39393A" stroke-width="2" d="M74.847 33H63.873v-3.002c0-.552.445-.998.999-.998h8.976a1 1 0 0 1 .999.998V33z"/></g><g id="Group-10" transform="translate(2.993958, 0.000000)"><g id="Rectangle-16"><use fill="#FFF" xlink:href="#path-12"/><path stroke="#1692D0" stroke-width="2" d="M23.95 58H1V10.99A.99.99 0 0 1 2 10h20.95c.554 0 1 .443 1 .99V58z"/></g><g id="Rectangle-16-Copy-2"><use fill="#FFF" xlink:href="#path-13"/><rect width="22.9496475" height="7" x="1" y="29" stroke="#1692D0" stroke-width="2"/></g><g id="Combined-Shape"><use fill="#FFF" xlink:href="#path-14"/><rect width="6.98187311" height="48" x="8.98388721" y="10" stroke="#1692D0" stroke-width="2"/></g><rect id="Rectangle-31" width="6.98187311" height="3" x="8.98388721" y="7" stroke="#1692D0" stroke-width="2"/><path id="Rectangle-31-Copy" stroke="#1692D0" stroke-width="2" d="M15.97 6.788l3.146-5.516 3.357 4.036-6.503 4.344V6.788z"/><path id="Rectangle-31-Copy-2" stroke="#1692D0" stroke-width="2" d="M8.556 6.788L5.411 1.272 2.054 5.308l6.502 4.344V6.788z"/></g><g id="Group-6" fill="#FFF" stroke="#39393A" stroke-width="2" transform="translate(2.993958, 65.000000)"><path id="Path-4" d="M11.567.147C4.497.147.843-1.293.008 6.132c0 5.46 9.294 9.041 16.2 10.424 6.906 1.383 84.68 0 84.68 0s4.096-1.808 7.412-4.748c3.317-2.94 5.112-6.332 5.21-6.666.133-.452 1.57-3.478-3.115-4.685-3.165-.541-8.356-.31-18.427-.31h-80.4z"/><ellipse id="Oval-10" cx="19.4607251" cy="8.5" rx="7.48489426" ry="7.5"/><ellipse id="Oval-10-Copy-5" cx="4.49093656" cy="5.5" rx="4.49093656" ry="4.5"/><ellipse id="Oval-10-Copy-6" cx="110.776435" cy="4" rx="2.9939577" ry="3"/><ellipse id="Oval-10-Copy" cx="38.4224572" cy="8.5" rx="7.48489426" ry="7.5"/><ellipse id="Oval-10-Copy-2" cx="57.3841893" cy="8.5" rx="7.48489426" ry="7.5"/><ellipse id="Oval-10-Copy-3" cx="76.3459215" cy="8.5" rx="7.48489426" ry="7.5"/><ellipse id="Oval-10-Copy-4" cx="95.3076536" cy="8.5" rx="7.48489426" ry="7.5"/></g></g></g><g id="Group-24-Copy" transform="translate(0.000000, 54.000000)"><g id="Rectangle-44-Copy-7" transform="translate(350.284718, 8.149165) rotate(-12.000000) translate(-350.284718, -8.149165)"><use fill="#FFF" xlink:href="#path-15"/><path stroke="#39393A" stroke-width="2" d="M347.293 3.65h5.984v8.403l-2.69-1.304-.45-.218-.446.23-2.398 1.243V3.65z"/></g><g id="Rectangle-44-Copy-18" transform="translate(811.698254, 29.706950) rotate(-4.000000) translate(-811.698254, -29.706950)"><use fill="#FFF" xlink:href="#path-16"/><path stroke="#39393A" stroke-width="2" d="M808.706 25.207h5.984v8.404l-2.689-1.304-.451-.219-.445.231-2.399 1.243v-8.355z"/></g><g id="Rectangle-44-Copy-21" transform="translate(842.091444, 27.546437) rotate(-5.000000) translate(-842.091444, -27.546437)"><use fill="#FFF" xlink:href="#path-17"/><path stroke="#39393A" stroke-width="2" d="M839.1 23.046h5.983v8.404l-2.689-1.303-.451-.22-.445.232-2.398 1.243v-8.356z"/></g><g id="Rectangle-44-Copy-22" transform="translate(874.541568, 24.060103) rotate(-6.000000) translate(-874.541568, -24.060103)"><use fill="#FFF" xlink:href="#path-18"/><path stroke="#39393A" stroke-width="2" d="M871.55 19.56h5.984v8.404l-2.69-1.304-.45-.218-.446.23-2.398 1.243V19.56z"/></g><g id="Rectangle-44-Copy-27" transform="translate(909.471074, 20.060103) rotate(-6.000000) translate(-909.471074, -20.060103)"><use fill="#FFF" xlink:href="#path-19"/><path stroke="#39393A" stroke-width="2" d="M906.48 15.56h5.983v8.404l-2.69-1.304-.45-.218-.446.23-2.398 1.243V15.56z"/></g><g id="Rectangle-44-Copy-28" transform="translate(940.408637, 16.060103) rotate(-6.000000) translate(-940.408637, -16.060103)"><use fill="#FFF" xlink:href="#path-20"/><path stroke="#39393A" stroke-width="2" d="M937.417 11.56h5.984v8.404l-2.69-1.304-.45-.218-.446.23-2.398 1.243V11.56z"/></g><g id="Rectangle-44-Copy-29" transform="translate(972.245758, 12.234079) rotate(-7.000000) translate(-972.245758, -12.234079)"><use fill="#FFF" xlink:href="#path-21"/><path stroke="#39393A" stroke-width="2" d="M969.254 7.734h5.984v8.404l-2.69-1.304-.45-.219-.446.231-2.398 1.243V7.734z"/></g><path id="Path-10" stroke="#39393A" stroke-width="2" d="M.991 11.227C33.771 16.107 116.355 22 174.648 22c99.502 0 192.73-22 192.73-22"/><path id="Path-10-Copy" stroke="#39393A" stroke-width="2" d="M990.023 4.948C935.613 12.89 819.243 28 721.543 28 589.02 28 485.022.198 485.022.198"/><g id="Rectangle-44" transform="translate(195.673498, 26.213991) rotate(-1.000000) translate(-195.673498, -26.213991)"><use fill="#FFF" xlink:href="#path-22"/><path stroke="#39393A" stroke-width="2" d="M192.682 21.714h5.983v8.404l-2.689-1.304-.451-.219-.445.231-2.398 1.243v-8.355z"/></g><g id="Rectangle-44-Copy" transform="translate(164.599191, 26.343665) rotate(1.000000) translate(-164.599191, -26.343665)"><use fill="#FFF" xlink:href="#path-23"/><path stroke="#39393A" stroke-width="2" d="M161.607 21.844h5.984v8.404l-2.69-1.304-.45-.219-.446.23-2.398 1.244v-8.355z"/></g><g id="Rectangle-44-Copy-2" transform="translate(133.716937, 25.787642) rotate(3.000000) translate(-133.716937, -25.787642)"><use fill="#FFF" xlink:href="#path-24"/><path stroke="#39393A" stroke-width="2" d="M130.725 21.288h5.984v8.404l-2.69-1.304-.45-.219-.446.23-2.398 1.244v-8.355z"/></g><g id="Rectangle-44-Copy-19" transform="translate(102.887676, 24.519325) rotate(3.000000) translate(-102.887676, -24.519325)"><use fill="#FFF" xlink:href="#path-25"/><path stroke="#39393A" stroke-width="2" d="M99.896 20.02h5.984v8.403l-2.69-1.304-.45-.218-.446.23-2.398 1.244v-8.356z"/></g><g id="Rectangle-44-Copy-20" transform="translate(72.806662, 22.683773) rotate(4.000000) translate(-72.806662, -22.683773)"><use fill="#FFF" xlink:href="#path-26"/><path stroke="#39393A" stroke-width="2" d="M69.815 18.184h5.984v8.404l-2.69-1.304-.45-.219-.446.231-2.398 1.243v-8.355z"/></g><g id="Rectangle-44-Copy-24" transform="translate(41.928906, 20.210038) rotate(5.000000) translate(-41.928906, -20.210038)"><use fill="#FFF" xlink:href="#path-27"/><path stroke="#39393A" stroke-width="2" d="M38.937 15.71h5.984v8.404l-2.69-1.304-.45-.219-.446.231-2.398 1.243V15.71z"/></g><g id="Rectangle-44-Copy-30" transform="translate(10.991343, 17.210038) rotate(7.000000) translate(-10.991343, -17.210038)"><use fill="#FFF" xlink:href="#path-28"/><path stroke="#39393A" stroke-width="2" d="M8 12.71h5.983v8.404l-2.689-1.304-.451-.219-.445.231-2.399 1.243V12.71z"/></g><g id="Rectangle-44-Copy-3" transform="translate(226.547916, 24.575684) rotate(-4.000000) translate(-226.547916, -24.575684)"><use fill="#FFF" xlink:href="#path-29"/><path stroke="#39393A" stroke-width="2" d="M223.556 20.076h5.984v8.404l-2.69-1.304-.45-.219-.446.23-2.398 1.244v-8.355z"/></g><g id="Rectangle-44-Copy-4" transform="translate(257.529917, 22.349857) rotate(-4.000000) translate(-257.529917, -22.349857)"><use fill="#FFF" xlink:href="#path-30"/><path stroke="#39393A" stroke-width="2" d="M254.538 17.85h5.984v8.404l-2.69-1.304-.45-.219-.446.231-2.398 1.243V17.85z"/></g><g id="Rectangle-44-Copy-5" transform="translate(288.194036, 18.436594) rotate(-7.000000) translate(-288.194036, -18.436594)"><use fill="#FFF" xlink:href="#path-31"/><path stroke="#39393A" stroke-width="2" d="M285.202 13.937h5.984v8.403l-2.69-1.303-.45-.219-.446.23-2.398 1.244v-8.355z"/></g><g id="Rectangle-44-Copy-6" transform="translate(319.435167, 14.292298) rotate(-11.000000) translate(-319.435167, -14.292298)"><use fill="#FFF" xlink:href="#path-32"/><path stroke="#39393A" stroke-width="2" d="M316.443 9.792h5.984v8.404l-2.69-1.304-.45-.218-.446.23-2.398 1.244V9.792z"/></g><g id="Rectangle-44-Copy-15" transform="translate(562.985005, 20.006160) rotate(9.000000) translate(-562.985005, -20.006160)"><use fill="#FFF" xlink:href="#path-33"/><path stroke="#39393A" stroke-width="2" d="M559.993 15.506h5.984v8.404l-2.69-1.304-.45-.218-.446.23-2.398 1.243v-8.355z"/></g><g id="Rectangle-44-Copy-14" transform="translate(532.796915, 14.956026) rotate(11.000000) translate(-532.796915, -14.956026)"><use fill="#FFF" xlink:href="#path-34"/><path stroke="#39393A" stroke-width="2" d="M529.805 10.456h5.984v8.404l-2.69-1.304-.45-.219-.446.231-2.398 1.243v-8.355z"/></g><g id="Rectangle-44-Copy-13" transform="translate(500.855694, 8.645089) rotate(12.000000) translate(-500.855694, -8.645089)"><use fill="#FFF" xlink:href="#path-35"/><path stroke="#39393A" stroke-width="2" d="M497.864 4.145h5.984v8.404l-2.69-1.304-.45-.218-.446.23-2.398 1.243V4.145z"/></g><g id="Rectangle-44-Copy-12" transform="translate(593.999926, 24.346923) rotate(6.000000) translate(-593.999926, -24.346923)"><use fill="#FFF" xlink:href="#path-36"/><path stroke="#39393A" stroke-width="2" d="M591.008 19.847h5.984v8.404l-2.69-1.304-.45-.219-.446.231-2.398 1.243v-8.355z"/></g><g id="Rectangle-44-Copy-11" transform="translate(624.739174, 27.680664) rotate(5.000000) translate(-624.739174, -27.680664)"><use fill="#FFF" xlink:href="#path-37"/><path stroke="#39393A" stroke-width="2" d="M621.747 23.18h5.984v8.405l-2.69-1.304-.45-.219-.446.23-2.398 1.244v-8.355z"/></g><g id="Rectangle-44-Copy-10" transform="translate(655.530652, 30.425697) rotate(3.000000) translate(-655.530652, -30.425697)"><use fill="#FFF" xlink:href="#path-38"/><path stroke="#39393A" stroke-width="2" d="M652.539 25.926h5.984v8.404l-2.69-1.304-.45-.219-.446.23-2.398 1.244v-8.355z"/></g><g id="Rectangle-44-Copy-9" transform="translate(686.675292, 31.835603) rotate(1.000000) translate(-686.675292, -31.835603)"><use fill="#FFF" xlink:href="#path-39"/><path stroke="#39393A" stroke-width="2" d="M683.683 27.336h5.984v8.403l-2.689-1.303-.451-.219-.445.23-2.399 1.244v-8.355z"/></g><g id="Rectangle-44-Copy-8" transform="translate(717.551456, 32.486237) rotate(1.000000) translate(-717.551456, -32.486237)"><use fill="#FFF" xlink:href="#path-40"/><path stroke="#39393A" stroke-width="2" d="M714.56 27.986h5.983v8.404l-2.689-1.304-.451-.218-.445.23-2.398 1.244v-8.356z"/></g><g id="Rectangle-44-Copy-16" transform="translate(747.622084, 32.196794) rotate(-2.000000) translate(-747.622084, -32.196794)"><use fill="#FFF" xlink:href="#path-41"/><path stroke="#39393A" stroke-width="2" d="M744.63 27.697h5.984V36.1l-2.69-1.304-.45-.219-.446.231-2.398 1.243v-8.355z"/></g><g id="Rectangle-44-Copy-17" transform="translate(779.545053, 31.225174) rotate(-3.000000) translate(-779.545053, -31.225174)"><use fill="#FFF" xlink:href="#path-42"/><path stroke="#39393A" stroke-width="2" d="M776.553 26.725h5.984v8.404l-2.69-1.304-.45-.218-.446.23-2.398 1.243v-8.355z"/></g></g><path id="Line-Copy-8" stroke="#1692D0" stroke-linecap="square" stroke-width="2" d="M548.598 51.5h77.484m-66.144-27.377l54.79 54.79m-27.413-66.13v77.485m27.376-66.145l-54.79 54.79m66.13-27.413h-77.484m66.144 27.377l-54.79-54.79m27.414 66.13V12.732m-27.377 66.145l54.79-54.79"/></g></g></g></svg>