<svg xmlns="http://www.w3.org/2000/svg" xmlns:xlink="http://www.w3.org/1999/xlink" width="991" height="204" viewBox="0 0 991 204"><defs><polygon id="path-1" points="398.99165 2.6491649 406.99165 2.6491649 406.99165 13.6491649 402.857861 11.6491649 398.99165 13.6491649"/><polygon id="path-2" points="858.336394 24.2069495 866.336394 24.2069495 866.336394 35.2069495 862.202605 33.2069495 858.336394 35.2069495"/><polygon id="path-3" points="887.790922 22.0464372 895.790922 22.0464372 895.790922 33.0464372 891.657133 31.0464372 887.790922 33.0464372"/><polygon id="path-4" points="916.306536 19.5601034 924.306536 19.5601034 924.306536 30.5601034 920.172747 28.5601034 916.306536 30.5601034"/><polygon id="path-5" points="946.306536 16.5601034 954.306536 16.5601034 954.306536 27.5601034 950.172747 25.5601034 946.306536 27.5601034"/><polygon id="path-6" points="974.306536 13.5601034 982.306536 13.5601034 982.306536 24.5601034 978.172747 22.5601034 974.306536 24.5601034"/><polygon id="path-7" points="244.068399 20.7139915 252.068399 20.7139915 252.068399 31.7139915 247.93461 29.7139915 244.068399 31.7139915"/><polygon id="path-8" points="212.931379 20.8436655 220.931379 20.8436655 220.931379 31.8436655 216.79759 29.8436655 212.931379 31.8436655"/><polygon id="path-9" points="181.986799 20.2876425 189.986799 20.2876425 189.986799 31.2876425 185.85301 29.2876425 181.986799 31.2876425"/><polygon id="path-10" points="151.649297 18.6703121 159.649297 18.6703121 159.649297 29.6703121 155.515508 27.6703121 151.649297 29.6703121"/><polygon id="path-11" points="120.222339 16.5580237 128.222339 16.5580237 128.222339 27.5580237 124.08855 25.5580237 120.222339 27.5580237"/><polygon id="path-12" points="90.8260326 14.1804647 98.8260326 14.1804647 98.8260326 25.1804647 94.6922435 23.1804647 90.8260326 25.1804647"/><polygon id="path-13" points="59.0240418 11.1357135 67.0240418 11.1357135 67.0240418 22.1357135 62.8902527 20.1357135 59.0240418 22.1357135"/><polygon id="path-14" points="28.9983959 7.90837002 36.9983959 7.90837002 36.9983959 18.90837 32.8646068 16.90837 28.9983959 18.90837"/><polygon id="path-15" points="1.04672939 4.82367847 9.04672939 4.82367847 9.04672939 15.8236785 4.91294033 13.8236785 1.04672939 15.8236785"/><polygon id="path-16" points="275.005127 19.0756836 283.005127 19.0756836 283.005127 30.0756836 278.871338 28.0756836 275.005127 30.0756836"/><polygon id="path-17" points="306.049654 16.8498567 314.049654 16.8498567 314.049654 27.8498567 309.915865 25.8498567 306.049654 27.8498567"/><polygon id="path-18" points="336.775658 12.9365935 344.775658 12.9365935 344.775658 23.9365935 340.641869 21.9365935 336.775658 23.9365935"/><polygon id="path-19" points="368.07984 8.79229764 376.07984 8.79229764 376.07984 19.7922976 371.946051 17.7922976 368.07984 19.7922976"/><polygon id="path-20" points="615.1212 14.5061604 623.1212 14.5061604 623.1212 25.5061604 618.987411 23.5061604 615.1212 25.5061604"/><polygon id="path-21" points="584.872186 9.45602603 592.872186 9.45602603 592.872186 20.456026 588.738397 18.456026 584.872186 20.456026"/><polygon id="path-22" points="552.866503 3.14508887 560.866503 3.14508887 560.866503 14.1450889 556.732714 12.1450889 552.866503 14.1450889"/><polygon id="path-23" points="646.198715 18.8469226 654.198715 18.8469226 654.198715 29.8469226 650.064926 27.8469226 646.198715 29.8469226"/><polygon id="path-24" points="677 22.1806641 685 22.1806641 685 33.1806641 680.866211 31.1806641 677 33.1806641"/><polygon id="path-25" points="707.85362 24.9256967 715.85362 24.9256967 715.85362 35.9256967 711.719831 33.9256967 707.85362 35.9256967"/><polygon id="path-26" points="739.061115 26.3356027 747.061115 26.3356027 747.061115 37.3356027 742.927326 35.3356027 739.061115 37.3356027"/><polygon id="path-27" points="769.999592 26.9862375 777.999592 26.9862375 777.999592 37.9862375 773.865803 35.9862375 769.999592 37.9862375"/><polygon id="path-28" points="800.130907 26.6967944 808.130907 26.6967944 808.130907 37.6967944 803.997118 35.6967944 800.130907 37.6967944"/><polygon id="path-29" points="829.118302 25.7251738 837.118302 25.7251738 837.118302 36.7251738 832.984513 34.7251738 829.118302 36.7251738"/><path id="path-30" d="M.322.002H6.28V15.92a2.978 2.978 0 0 1-2.98 2.972 2.974 2.974 0 0 1-2.98-2.972V.002z"/><path id="path-31" d="M.322.002H6.28V15.92a2.978 2.978 0 0 1-2.98 2.972 2.974 2.974 0 0 1-2.98-2.972V.002z"/><path id="path-32" d="M.322.002H6.28V15.92a2.978 2.978 0 0 1-2.98 2.972 2.974 2.974 0 0 1-2.98-2.972V.002z"/><rect id="path-33" width="34" height="34"/><path id="path-34" d="M.322.002H6.28V15.92a2.978 2.978 0 0 1-2.98 2.972 2.974 2.974 0 0 1-2.98-2.972V.002z"/><path id="path-35" d="M.322.002H6.28V15.92a2.978 2.978 0 0 1-2.98 2.972 2.974 2.974 0 0 1-2.98-2.972V.002z"/><path id="path-36" d="M.322.002H6.28V15.92a2.978 2.978 0 0 1-2.98 2.972 2.974 2.974 0 0 1-2.98-2.972V.002z"/><rect id="path-37" width="34" height="34"/><path id="path-38" d="M.322.002H6.28V15.92a2.978 2.978 0 0 1-2.98 2.972 2.974 2.974 0 0 1-2.98-2.972V.002z"/><path id="path-39" d="M.322.002H6.28V15.92a2.978 2.978 0 0 1-2.98 2.972 2.974 2.974 0 0 1-2.98-2.972V.002z"/><path id="path-40" d="M.322.002H6.28V15.92a2.978 2.978 0 0 1-2.98 2.972 2.974 2.974 0 0 1-2.98-2.972V.002z"/><rect id="path-41" width="2" height="6" x="77" y="83"/><rect id="path-42" width="2" height="6" x="89" y="89"/><rect id="path-43" width="2" height="6" x="101" y="95"/><circle id="path-44" cx="116" cy="101" r="3"/><path id="path-45" d="M0 0s9.009 2 17.341 2c8.333 0 14.7-1.58 14.7-1.58C33.123.187 34 .894 34 1.996v22.006c0 1.103-.877 2.2-1.946 2.426 0 0-6.045 1.571-14.713 1.571-8.667 0-15.376-1.595-15.376-1.595C.88 26.18 0 25.105 0 24.003V0z"/><path id="path-46" d="M0 8s8.995 2 17.341 2C25.688 10 34 8 34 8v10s-8.005 2-16.659 2C8.688 20 0 18 0 18V8z"/><polygon id="path-47" points="2 0 7 0 9 182 0 182"/><rect id="path-48" width="2" height="8.68965517" x="11.020874" y="12.4265137"/><circle id="path-49" cx="12" cy="3" r="3"/><path id="path-50" d="M11.997 11.625a3.12 3.12 0 0 0-.063-.27s-.295-2.865-3.23-5.417c-2.936-2.552-6.752-2.59-6.752-2.59C.858 3.208.18 4 .452 5.067c0 0 .592 3.808 3.522 6.354 2.929 2.546 5.8 2.434 5.8 2.434 1.188.192 2.023-.367 2.223-1.297.2.93 1.036 1.49 2.223 1.297 0 0 2.872.112 5.801-2.434 2.93-2.546 3.522-6.354 3.522-6.354.272-1.067-.406-1.86-1.5-1.719 0 0-3.816.038-6.752 2.59-2.935 2.552-3.23 5.418-3.23 5.418a3.12 3.12 0 0 0-.064.269z"/><path id="path-51" d="M3.072 10.938C.408 13.188.588 15.31.588 15.31c-.308 1.623.781 2.966 2.444 2.855 0 0 2.108.505 4.77-1.744 2.66-2.249 2.708-5.317 2.708-5.317.169-1.088-.579-2.005-1.69-1.981 0 0-3.084-.437-5.748 1.815z"/><path id="path-52" d="M13.088 10.938c-2.664 2.25-2.484 4.372-2.484 4.372-.308 1.623.781 2.966 2.444 2.855 0 0 2.108.505 4.77-1.744 2.661-2.249 2.708-5.317 2.708-5.317.169-1.088-.579-2.005-1.69-1.981 0 0-3.084-.437-5.748 1.815z"/><path id="path-53" d="M7.505 6.105c-2.936 2.552-3.48 6.8-3.48 6.8-.378 1.612.65 2.843 2.294 2.67 0 0 4.272.091 7.201-2.455 2.93-2.546 3.714-7.741 3.714-7.741.234-1.08-.462-1.914-1.563-1.826 0 0-5.23 0-8.166 2.552z"/></defs><g id="--9-may" fill="none" fill-rule="evenodd"><g id="-9-mobile_version" transform="translate(0.000000, -1694.000000)"><g id="иллюстрация_3" transform="translate(0.000000, 1689.000000)"><g id="Group-24-Copy" transform="translate(495.500000, 85.500000) scale(-1, 1) translate(-495.500000, -85.500000) translate(0.000000, 66.000000)"><g id="Rectangle-44-Copy-7" transform="translate(402.991650, 8.149165) rotate(-12.000000) translate(-402.991650, -8.149165)"><use fill="#FFF" xlink:href="#path-1"/><path stroke="#39393A" stroke-width="2" d="M399.992 3.65h6v8.404l-2.699-1.305-.45-.218-.445.23-2.406 1.245V3.649z"/></g><g id="Rectangle-44-Copy-18" transform="translate(862.336394, 29.706950) rotate(-4.000000) translate(-862.336394, -29.706950)"><use fill="#FFF" xlink:href="#path-2"/><path stroke="#39393A" stroke-width="2" d="M859.336 25.207h6v8.405l-2.698-1.305-.45-.218-.445.23-2.407 1.245v-8.357z"/></g><g id="Rectangle-44-Copy-21" transform="translate(891.790922, 27.546437) rotate(-5.000000) translate(-891.790922, -27.546437)"><use fill="#FFF" xlink:href="#path-3"/><path stroke="#39393A" stroke-width="2" d="M888.79 23.046h6v8.406l-2.697-1.306-.45-.218-.445.23-2.407 1.245v-8.357z"/></g><g id="Rectangle-44-Copy-22" transform="translate(920.306536, 25.060103) rotate(-6.000000) translate(-920.306536, -25.060103)"><use fill="#FFF" xlink:href="#path-4"/><path stroke="#39393A" stroke-width="2" d="M917.307 20.56h6v8.405l-2.699-1.305-.45-.218-.445.23-2.406 1.245V20.56z"/></g><g id="Rectangle-44-Copy-26" transform="translate(950.306536, 22.060103) rotate(-6.000000) translate(-950.306536, -22.060103)"><use fill="#FFF" xlink:href="#path-5"/><path stroke="#39393A" stroke-width="2" d="M947.307 17.56h6v8.405l-2.699-1.305-.45-.218-.445.23-2.406 1.245V17.56z"/></g><g id="Rectangle-44-Copy-27" transform="translate(978.306536, 19.060103) rotate(-6.000000) translate(-978.306536, -19.060103)"><use fill="#FFF" xlink:href="#path-6"/><path stroke="#39393A" stroke-width="2" d="M975.307 14.56h6v8.405l-2.699-1.305-.45-.218-.445.23-2.406 1.245V14.56z"/></g><path id="Path-10" stroke="#39393A" stroke-width="2" d="M0 4.832S127.297 22 227 22 420.12 0 420.12 0"/><path id="Path-10-Copy" stroke="#39393A" stroke-width="2" d="M990.994 12.495C931.009 19.937 849.514 28 778 28 645.209 28 541 .198 541 .198"/><g id="Rectangle-44" transform="translate(248.068399, 26.213991) rotate(-1.000000) translate(-248.068399, -26.213991)"><use fill="#FFF" xlink:href="#path-7"/><path stroke="#39393A" stroke-width="2" d="M245.068 21.714h6v8.405l-2.698-1.305-.45-.218-.445.23-2.407 1.245v-8.357z"/></g><g id="Rectangle-44-Copy" transform="translate(216.931379, 26.343665) rotate(1.000000) translate(-216.931379, -26.343665)"><use fill="#FFF" xlink:href="#path-8"/><path stroke="#39393A" stroke-width="2" d="M213.931 21.844h6v8.405l-2.698-1.306-.45-.217-.445.23-2.407 1.244v-8.356z"/></g><g id="Rectangle-44-Copy-2" transform="translate(185.986799, 25.787642) rotate(3.000000) translate(-185.986799, -25.787642)"><use fill="#FFF" xlink:href="#path-9"/><path stroke="#39393A" stroke-width="2" d="M182.987 21.288h6v8.405l-2.698-1.306-.451-.217-.444.23-2.407 1.244v-8.356z"/></g><g id="Rectangle-44-Copy-19" transform="translate(155.649297, 24.170312) rotate(3.000000) translate(-155.649297, -24.170312)"><use fill="#FFF" xlink:href="#path-10"/><path stroke="#39393A" stroke-width="2" d="M152.65 19.67h6v8.406l-2.699-1.306-.45-.218-.445.23-2.407 1.245V19.67z"/></g><g id="Rectangle-44-Copy-20" transform="translate(124.222339, 22.058024) rotate(3.000000) translate(-124.222339, -22.058024)"><use fill="#FFF" xlink:href="#path-11"/><path stroke="#39393A" stroke-width="2" d="M121.222 17.558h6v8.405l-2.698-1.305-.45-.218-.445.23-2.407 1.245v-8.357z"/></g><g id="Rectangle-44-Copy-24" transform="translate(94.826033, 19.680465) rotate(6.000000) translate(-94.826033, -19.680465)"><use fill="#FFF" xlink:href="#path-12"/><path stroke="#39393A" stroke-width="2" d="M91.826 15.18h6v8.406l-2.698-1.306-.45-.218-.445.23-2.407 1.245V15.18z"/></g><g id="Rectangle-44-Copy-25" transform="translate(63.024042, 16.635714) rotate(5.000000) translate(-63.024042, -16.635714)"><use fill="#FFF" xlink:href="#path-13"/><path stroke="#39393A" stroke-width="2" d="M60.024 12.136h6v8.405l-2.698-1.305-.45-.218-.445.23-2.407 1.245v-8.357z"/></g><g id="Rectangle-44-Copy-33" transform="translate(32.998396, 13.408370) rotate(6.000000) translate(-32.998396, -13.408370)"><use fill="#FFF" xlink:href="#path-14"/><path stroke="#39393A" stroke-width="2" d="M29.998 8.908h6v8.406L33.3 16.008l-.45-.218-.445.23-2.407 1.245V8.908z"/></g><g id="Rectangle-44-Copy-34" transform="translate(5.046729, 10.323678) rotate(7.000000) translate(-5.046729, -10.323678)"><use fill="#FFF" xlink:href="#path-15"/><path stroke="#39393A" stroke-width="2" d="M2.047 5.824h6v8.405l-2.699-1.305-.45-.218-.445.23-2.406 1.244V5.824z"/></g><g id="Rectangle-44-Copy-3" transform="translate(279.005127, 24.575684) rotate(-4.000000) translate(-279.005127, -24.575684)"><use fill="#FFF" xlink:href="#path-16"/><path stroke="#39393A" stroke-width="2" d="M276.005 20.076h6v8.405l-2.698-1.305-.45-.218-.445.23-2.407 1.245v-8.357z"/></g><g id="Rectangle-44-Copy-4" transform="translate(310.049654, 22.349857) rotate(-4.000000) translate(-310.049654, -22.349857)"><use fill="#FFF" xlink:href="#path-17"/><path stroke="#39393A" stroke-width="2" d="M307.05 17.85h6v8.405l-2.699-1.305-.45-.218-.445.23-2.406 1.245V17.85z"/></g><g id="Rectangle-44-Copy-5" transform="translate(340.775658, 18.436594) rotate(-7.000000) translate(-340.775658, -18.436594)"><use fill="#FFF" xlink:href="#path-18"/><path stroke="#39393A" stroke-width="2" d="M337.776 13.937h6v8.405l-2.699-1.306-.45-.218-.445.23-2.406 1.245v-8.356z"/></g><g id="Rectangle-44-Copy-6" transform="translate(372.079840, 14.292298) rotate(-11.000000) translate(-372.079840, -14.292298)"><use fill="#FFF" xlink:href="#path-19"/><path stroke="#39393A" stroke-width="2" d="M369.08 9.792h6v8.406l-2.698-1.306-.45-.218-.445.23-2.407 1.245V9.792z"/></g><g id="Rectangle-44-Copy-15" transform="translate(619.121200, 20.006160) rotate(9.000000) translate(-619.121200, -20.006160)"><use fill="#FFF" xlink:href="#path-20"/><path stroke="#39393A" stroke-width="2" d="M616.121 15.506h6v8.405l-2.698-1.305-.45-.218-.445.23-2.407 1.245v-8.357z"/></g><g id="Rectangle-44-Copy-14" transform="translate(588.872186, 14.956026) rotate(11.000000) translate(-588.872186, -14.956026)"><use fill="#FFF" xlink:href="#path-21"/><path stroke="#39393A" stroke-width="2" d="M585.872 10.456h6v8.405l-2.698-1.305-.45-.218-.445.23-2.407 1.245v-8.357z"/></g><g id="Rectangle-44-Copy-13" transform="translate(556.866503, 8.645089) rotate(12.000000) translate(-556.866503, -8.645089)"><use fill="#FFF" xlink:href="#path-22"/><path stroke="#39393A" stroke-width="2" d="M553.867 4.145h6v8.405l-2.699-1.305-.45-.218-.445.23-2.406 1.245V4.145z"/></g><g id="Rectangle-44-Copy-12" transform="translate(650.198715, 24.346923) rotate(6.000000) translate(-650.198715, -24.346923)"><use fill="#FFF" xlink:href="#path-23"/><path stroke="#39393A" stroke-width="2" d="M647.199 19.847h6v8.405l-2.699-1.305-.45-.218-.445.23-2.406 1.245v-8.357z"/></g><g id="Rectangle-44-Copy-11" transform="translate(681.000000, 27.680664) rotate(5.000000) translate(-681.000000, -27.680664)"><use fill="#FFF" xlink:href="#path-24"/><path stroke="#39393A" stroke-width="2" d="M678 23.18h6v8.406l-2.698-1.306-.45-.217-.445.23L678 31.536v-8.356z"/></g><g id="Rectangle-44-Copy-10" transform="translate(711.853620, 30.425697) rotate(3.000000) translate(-711.853620, -30.425697)"><use fill="#FFF" xlink:href="#path-25"/><path stroke="#39393A" stroke-width="2" d="M708.854 25.926h6v8.405l-2.699-1.305-.45-.218-.445.23-2.406 1.245v-8.357z"/></g><g id="Rectangle-44-Copy-9" transform="translate(743.061115, 31.835603) rotate(1.000000) translate(-743.061115, -31.835603)"><use fill="#FFF" xlink:href="#path-26"/><path stroke="#39393A" stroke-width="2" d="M740.061 27.336h6v8.405l-2.698-1.306-.45-.218-.445.23-2.407 1.245v-8.356z"/></g><g id="Rectangle-44-Copy-8" transform="translate(773.999592, 32.486237) rotate(1.000000) translate(-773.999592, -32.486237)"><use fill="#FFF" xlink:href="#path-27"/><path stroke="#39393A" stroke-width="2" d="M771 27.986h6v8.406l-2.699-1.306-.45-.218-.445.23L771 36.343v-8.357z"/></g><g id="Rectangle-44-Copy-16" transform="translate(804.130907, 32.196794) rotate(-2.000000) translate(-804.130907, -32.196794)"><use fill="#FFF" xlink:href="#path-28"/><path stroke="#39393A" stroke-width="2" d="M801.13 27.697h6v8.405l-2.697-1.305-.45-.218-.445.23-2.407 1.245v-8.357z"/></g><g id="Rectangle-44-Copy-17" transform="translate(833.118302, 31.225174) rotate(-3.000000) translate(-833.118302, -31.225174)"><use fill="#FFF" xlink:href="#path-29"/><path stroke="#39393A" stroke-width="2" d="M830.118 26.725h6v8.405l-2.698-1.305-.45-.218-.445.23-2.407 1.245v-8.357z"/></g></g><g id="21" transform="translate(337.000000, 0.000000)"><g id="three_direction" transform="translate(70.000000, 0.000000)"><path id="Path-3" stroke="#39393A" stroke-linecap="round" stroke-linejoin="round" stroke-width="2" d="M43 207.014V62.196c0-.557.455-1.013.998-1.017l26.993-.215a1.01 1.01 0 0 0 .997-1v-7.973c0-.547.45-.991 1.002-.991h42.004c.553 0 1.382.237 1.852.53l14.324 8.918c.47.292 1.302.53 1.843.53h30.004c.549 0 .993.444.993.99V206.95L43 207.014z"/><path id="Rectangle-34-Copy-4" fill="#1692D0" d="M25.328 15.482h1.617v8.087h-1.617v-8.087zm14.465 3.858l1.309.95-4.901 6.746-1.309-.95 4.901-6.746zm9.415 10.947l.5 1.538-8.454 2.747-.5-1.538 8.454-2.747zm.5 14.492l-.5 1.538-8.454-2.747.5-1.538 8.454 2.747zm-8.606 12.055l-1.309.95-4.9-6.744 1.308-.95 4.9 6.744zm-14.157 4.743h-1.617V53.49h1.617v8.087zM13.86 57.785l-1.308-.95 4.9-6.746 1.31.95-4.902 6.746zM5.106 46.317l-.5-1.538 8.455-2.747.5 1.538-8.455 2.747zm-.5-14.492l.5-1.538 8.455 2.747-.5 1.538-8.454-2.747zm7.946-11.534l1.308-.95 4.901 6.744-1.308.951-4.901-6.745z" transform="translate(27.157350, 38.529413) rotate(13.000000) translate(-27.157350, -38.529413)"/><path id="Line-Copy-7" stroke="#1692D0" stroke-linecap="square" stroke-width="2" d="M150.449 6.89l13.712 44.85m4.14-43.13l-22.017 41.409m33.426-27.57L134.86 36.16m43.131 4.14l-41.41-22.017m27.57 33.426L150.44 6.86m-4.141 43.131l22.017-41.41m-33.426 27.57l44.85-13.711m-43.13-4.141l41.409 22.017"/><path id="Rectangle-13" stroke="#39393A" stroke-width="2" d="M164 117.956l34 24.555V207h-34v-89.044z"/><rect id="Rectangle-29-Copy" width="128" height="2" x="39" y="60" fill="#39393A"/><g id="Group-17-Copy-4" stroke="#39393A" stroke-width="2" transform="translate(48.000000, 172.000000)"><rect id="Rectangle-68" width="32" height="32" x="1" y="1"/><path id="Rectangle-69" d="M8.975 14.868l16.046-2.711v7.084l-16.046 2.59v-6.963z"/></g><g id="Group-12-Copy" transform="translate(128.000000, 168.000000)"><g id="Group-4-Copy-5"><g id="Group-17-Copy-3" transform="translate(1.724138, 0.000000)"><g id="Rectangle-11"><use fill="#FFF" xlink:href="#path-30"/><path stroke="#1692D0" stroke-width="2" d="M1.322 1.002H5.28V15.92a1.978 1.978 0 0 1-1.98 1.972 1.974 1.974 0 0 1-1.98-1.972V1.002z"/></g></g><rect id="Rectangle-9" width="8.0279541" height="2.04772949" x="0.980712891" fill="#1692D0" rx="1.02386475"/></g><g id="Group-4-Copy-6" transform="translate(9.000000, 0.000000)"><g id="Group-17-Copy-3" transform="translate(1.724138, 0.000000)"><g id="Rectangle-11"><use fill="#FFF" xlink:href="#path-31"/><path stroke="#1692D0" stroke-width="2" d="M1.322 1.002H5.28V15.92a1.978 1.978 0 0 1-1.98 1.972 1.974 1.974 0 0 1-1.98-1.972V1.002z"/></g></g><rect id="Rectangle-9" width="8.0279541" height="2.04772949" x="0.980712891" fill="#1692D0" rx="1.02386475"/></g><g id="Group-4-Copy-7" transform="translate(18.000000, 0.000000)"><g id="Group-17-Copy-3" transform="translate(1.724138, 0.000000)"><g id="Rectangle-11"><use fill="#FFF" xlink:href="#path-32"/><path stroke="#1692D0" stroke-width="2" d="M1.322 1.002H5.28V15.92a1.978 1.978 0 0 1-1.98 1.972 1.974 1.974 0 0 1-1.98-1.972V1.002z"/></g></g><rect id="Rectangle-9" width="8.0279541" height="2.04772949" x="0.980712891" fill="#1692D0" rx="1.02386475"/></g></g><g id="Group-17-Copy-5" transform="translate(125.000000, 172.000000)"><g id="Rectangle-68"><use fill="#FFF" xlink:href="#path-33"/><rect width="32" height="32" x="1" y="1" stroke="#39393A" stroke-width="2"/></g><path id="Rectangle-69" stroke="#39393A" stroke-width="2" d="M8.975 14.868l16.046-2.711v7.084l-16.046 2.59v-6.963z"/></g><g id="Group-12" transform="translate(89.000000, 164.000000)"><g id="Group-4-Copy-5"><g id="Group-17-Copy-3" transform="translate(1.724138, 0.000000)"><g id="Rectangle-11"><use fill="#FFF" xlink:href="#path-34"/><path stroke="#1692D0" stroke-width="2" d="M1.322 1.002H5.28V15.92a1.978 1.978 0 0 1-1.98 1.972 1.974 1.974 0 0 1-1.98-1.972V1.002z"/></g></g><rect id="Rectangle-9" width="8.0279541" height="2.04772949" x="0.980712891" fill="#1692D0" rx="1.02386475"/></g><g id="Group-4-Copy-6" transform="translate(9.000000, 0.000000)"><g id="Group-17-Copy-3" transform="translate(1.724138, 0.000000)"><g id="Rectangle-11"><use fill="#FFF" xlink:href="#path-35"/><path stroke="#1692D0" stroke-width="2" d="M1.322 1.002H5.28V15.92a1.978 1.978 0 0 1-1.98 1.972 1.974 1.974 0 0 1-1.98-1.972V1.002z"/></g></g><rect id="Rectangle-9" width="8.0279541" height="2.04772949" x="0.980712891" fill="#1692D0" rx="1.02386475"/></g><g id="Group-4-Copy-7" transform="translate(18.000000, 0.000000)"><g id="Group-17-Copy-3" transform="translate(1.724138, 0.000000)"><g id="Rectangle-11"><use fill="#FFF" xlink:href="#path-36"/><path stroke="#1692D0" stroke-width="2" d="M1.322 1.002H5.28V15.92a1.978 1.978 0 0 1-1.98 1.972 1.974 1.974 0 0 1-1.98-1.972V1.002z"/></g></g><rect id="Rectangle-9" width="8.0279541" height="2.04772949" x="0.980712891" fill="#1692D0" rx="1.02386475"/></g></g><g id="Group-17-Copy-7" transform="translate(86.000000, 172.000000)"><g id="Rectangle-68"><use fill="#FFF" xlink:href="#path-37"/><rect width="32" height="32" x="1" y="1" stroke="#39393A" stroke-width="2"/></g><path id="Rectangle-69" stroke="#39393A" stroke-width="2" d="M8.975 14.868l16.046-2.711v7.084l-16.046 2.59v-6.963z"/></g><g id="Group-4" transform="translate(97.000000, 101.000000)"><g id="Group-17-Copy-3" transform="translate(1.724138, 0.000000)"><g id="Rectangle-11"><use fill="#FFF" xlink:href="#path-38"/><path stroke="#1692D0" stroke-width="2" d="M1.322 1.002H5.28V15.92a1.978 1.978 0 0 1-1.98 1.972 1.974 1.974 0 0 1-1.98-1.972V1.002z"/></g></g><rect id="Rectangle-9" width="8.0279541" height="2.04772949" x="0.980712891" fill="#1692D0" rx="1.02386475"/></g><g id="Group-4-Copy-3" transform="translate(85.000000, 95.000000)"><g id="Group-17-Copy-3" transform="translate(1.724138, 0.000000)"><g id="Rectangle-11"><use fill="#FFF" xlink:href="#path-39"/><path stroke="#1692D0" stroke-width="2" d="M1.322 1.002H5.28V15.92a1.978 1.978 0 0 1-1.98 1.972 1.974 1.974 0 0 1-1.98-1.972V1.002z"/></g></g><rect id="Rectangle-9" width="8.0279541" height="2.04772949" x="0.980712891" fill="#1692D0" rx="1.02386475"/></g><g id="Group-4-Copy-4" transform="translate(73.000000, 89.000000)"><g id="Group-17-Copy-3" transform="translate(1.724138, 0.000000)"><g id="Rectangle-11"><use fill="#FFF" xlink:href="#path-40"/><path stroke="#1692D0" stroke-width="2" d="M1.322 1.002H5.28V15.92a1.978 1.978 0 0 1-1.98 1.972 1.974 1.974 0 0 1-1.98-1.972V1.002z"/></g></g><rect id="Rectangle-9" width="8.0279541" height="2.04772949" x="0.980712891" fill="#1692D0" rx="1.02386475"/></g><g id="Rectangle-71"><use fill="#D8D8D8" xlink:href="#path-41"/><rect width="1" height="5" x="77.5" y="83.5" stroke="#39393A"/></g><g id="Rectangle-71-Copy"><use fill="#D8D8D8" xlink:href="#path-42"/><rect width="1" height="5" x="89.5" y="89.5" stroke="#39393A"/></g><g id="Rectangle-71-Copy-2"><use fill="#D8D8D8" xlink:href="#path-43"/><rect width="1" height="5" x="101.5" y="95.5" stroke="#39393A"/></g><polygon id="Rectangle-12" fill="#39393A" points="115 61 117 61 117 102 115 102"/><path id="Rectangle-53" stroke="#39393A" stroke-width="2" d="M43 61h10v42.994A5.007 5.007 0 0 1 48 109h-5V61z"/><polygon id="Rectangle-70" fill="#39393A" points="52 69 115 100 115 102 52 71"/><g id="Oval-18"><use fill="#FFF" xlink:href="#path-44"/><circle cx="116" cy="101" r="2" stroke="#39393A" stroke-width="2"/></g></g></g><g id="Group-17-Copy" transform="translate(381.000000, 116.000000) scale(-1, 1) translate(-381.000000, -116.000000) translate(355.000000, 25.000000)"><g id="Group-11" transform="translate(2.000000, 0.000000)"><path id="Rectangle-41-Copy-21" stroke="#1692D0" stroke-width="2" d="M17 6.772a57.478 57.478 0 0 1 3.78-.787A65.425 65.425 0 0 1 31.97 5c3.89 0 7.7.298 11.27.795 1.249.174 2.377.36 3.365.546a46.112 46.112 0 0 1 1.206.244c.646.128 1.189.787 1.189 1.412v22.006c0 .48-.308.735-.79.648a68.462 68.462 0 0 0-1.37-.256 96.257 96.257 0 0 0-3.647-.568C39.414 29.31 35.622 29 32.055 29c-3.57 0-7.018.298-10.216.795-1.12.174-2.13.36-3.015.548a36.38 36.38 0 0 0-1.116.255c-.426.094-.708-.131-.708-.595V6.772z"/><path id="Rectangle-41-Copy-22" stroke="#1692D0" stroke-width="2" d="M17 14.774l.473-.113c.986-.23 2.11-.46 3.354-.676A65.926 65.926 0 0 1 32.02 13h.284c3.781.019 7.843.387 11.913.99a101.248 101.248 0 0 1 4.784.824v7.978l-.491-.089a130.088 130.088 0 0 0-4.306-.693c-2.854-.41-5.656-.719-8.287-.882A62.473 62.473 0 0 0 32.062 21c-3.595 0-7.417.38-11.224 1.014a81.139 81.139 0 0 0-3.838.731v-7.97z"/><g id="Rectangle-41-Copy-18"><use fill="#FFF" xlink:href="#path-45"/><path stroke="#39393A" stroke-width="2" d="M1 1.227l.349.067c1.23.237 2.592.474 4.047.695 3.48.528 6.93.882 10.163.983.606.018 1.2.028 1.782.028 3.699 0 7.285-.3 10.623-.801a61.779 61.779 0 0 0 3.152-.553 39.798 39.798 0 0 0 1.166-.256c.428-.091.718.142.718.607v22.006c0 .634-.55 1.32-1.153 1.448-.218.055-.567.138-1.078.245-.86.18-1.854.36-2.97.53A70.147 70.147 0 0 1 17.34 27c-3.74 0-7.39-.295-10.795-.787a65.774 65.774 0 0 1-3.206-.54 41.817 41.817 0 0 1-1.144-.241C1.546 25.297 1 24.63 1 24.003V1.227z"/></g><g id="Rectangle-41-Copy-19"><use fill="#FFF" xlink:href="#path-46"/><path stroke="#39393A" stroke-width="2" d="M1 9.227l.347.067c1.23.237 2.59.474 4.044.695 3.502.532 6.976.887 10.23.985a57.56 57.56 0 0 0 1.72.026c3.711 0 7.668-.38 11.618-1.013A87.707 87.707 0 0 0 33 9.245v7.96l-.593.13a78.066 78.066 0 0 1-3.651.678C24.95 18.63 21.068 19 17.34 19h-.1c-3.702-.007-7.68-.376-11.664-.988A93.567 93.567 0 0 1 1 17.192V9.228z"/></g></g><g id="Rectangle-41-Copy-15"><use fill="#FFF" xlink:href="#path-47"/><path stroke="#39393A" stroke-width="2" d="M2.99 1h3.02L7.99 181H1.011L2.989 1z"/></g></g><g id="Group-21-Copy" transform="translate(356.000000, 186.000000)"><g id="Group-25-Copy-2"><g id="Rectangle-7"><use fill="#D8D8D8" xlink:href="#path-48"/><rect width="1" height="6.68965517" x="12.020874" y="13.4265137" stroke="#39393A" stroke-width="2"/></g><g id="Oval-10"><use fill="#FFF" xlink:href="#path-49"/><circle cx="12" cy="3" r="2" stroke="#1692D0" stroke-width="2"/></g><g id="Combined-Shape"><use fill="#FFF" xlink:href="#path-50"/><path stroke="#39393A" stroke-width="2" d="M11.968 11.346l-.034.01.063-.007.03-.003.902-.093a3.296 3.296 0 0 0-.01-.087c-.049-.376-.182-.936-.445-1.623a10.142 10.142 0 0 0-.477-1.057c-.182.35-.34.704-.476 1.057-.263.687-.396 1.247-.445 1.623-.004.03-.008.06-.01.087l.902.093.03.003.062.007-.034-.01-.029-.008-.9-.252a4.266 4.266 0 0 0-.083.355l.983.184.983-.184a4.078 4.078 0 0 0-.083-.355l-.9.252-.029.008zm.956.765l.056-.303c.011-.06.026-.12.043-.182l.032-.168c.021-.208.116-.632.334-1.2.373-.973.967-1.952 1.835-2.872.224-.238.466-.47.723-.694.47-.407.983-.76 1.537-1.063a10.773 10.773 0 0 1 3.17-1.113c.379-.072.73-.119 1.042-.146.18-.016.302-.021.356-.022l.118-.008c.385-.05.504.088.404.48a9.772 9.772 0 0 1-.326 1.283c-.299.927-.72 1.854-1.284 2.713a8.897 8.897 0 0 1-1.599 1.85c-1.122.975-2.305 1.593-3.483 1.928-.72.205-1.289.268-1.628.261h.005l-.2.013c-.648.105-.995-.105-1.084-.52l-.051-.237zm-1.853 0l-.051.237c-.09.415-.436.625-1.085.52l-.2-.012h.006c-.34.006-.908-.057-1.629-.262-1.178-.335-2.36-.953-3.482-1.928a8.897 8.897 0 0 1-1.6-1.85 11.253 11.253 0 0 1-1.59-3.903c-.119-.485 0-.622.384-.573l.118.008c.054 0 .176.006.357.022.312.027.663.074 1.042.146 1.084.204 2.167.564 3.17 1.113a8.694 8.694 0 0 1 1.536 1.063c.258.225.5.456.724.694.867.92 1.462 1.899 1.835 2.873.218.567.312.991.334 1.2l.032.167c.017.062.031.123.042.182l.057.303z"/></g></g></g><g id="Group-19" transform="translate(420.000000, 189.000000)"><g id="Group-18"><g id="Group-28"><g id="Rectangle-8-Copy-10" transform="translate(5.534601, 13.651157) scale(-1, 1) translate(-5.534601, -13.651157)"><use fill="#FFF" xlink:href="#path-51"/><path stroke="#39393A" stroke-width="2" d="M1.585 15.239a1.75 1.75 0 0 1 .023-.287c.033-.23.1-.488.21-.769.317-.814.92-1.654 1.9-2.482.27-.228.551-.43.844-.608a6.89 6.89 0 0 1 2.48-.91 6.527 6.527 0 0 1 1.638-.07l.161.01c.468-.01.757.333.68.827l-.011.138c-.003.17-.041.516-.152.976a6.835 6.835 0 0 1-1.02 2.294 6.63 6.63 0 0 1-1.182 1.3c-.892.753-1.755 1.204-2.569 1.418-.532.14-.968.162-1.284.121-.034-.004-.048-.006-.039-.004l-.148-.036-.151.01c-.977.066-1.587-.659-1.395-1.67l.026-.135-.01-.123z"/></g><g id="Rectangle-8-Copy-9"><use fill="#FFF" xlink:href="#path-52"/><path stroke="#39393A" stroke-width="2" d="M11.601 15.239a1.75 1.75 0 0 1 .023-.287c.033-.23.1-.488.21-.769.317-.814.92-1.654 1.9-2.482.27-.228.551-.43.844-.608a6.89 6.89 0 0 1 2.48-.91 6.527 6.527 0 0 1 1.638-.07l.162.01c.467-.01.757.333.68.827l-.012.138c-.002.17-.041.516-.152.976a6.835 6.835 0 0 1-1.02 2.294 6.63 6.63 0 0 1-1.182 1.3c-.892.753-1.755 1.204-2.569 1.418-.532.14-.968.162-1.283.121-.035-.004-.049-.006-.04-.004l-.147-.036-.152.01c-.977.066-1.587-.659-1.395-1.67l.026-.135-.01-.123z"/></g><g id="Rectangle-8-Copy-8" transform="translate(10.613117, 9.569048) scale(-1, 1) rotate(-50.000000) translate(-10.613117, -9.569048)"><use fill="#FFF" xlink:href="#path-53"/><path stroke="#39393A" stroke-width="2" d="M8.16 6.86c.72-.626 1.662-1.125 2.778-1.503 1.031-.35 2.147-.577 3.266-.703.392-.045.756-.073 1.08-.089.191-.01.33-.012.387-.012.499-.037.68.177.586.614a17.147 17.147 0 0 1-.298 1.385 16.665 16.665 0 0 1-1.056 2.955c-.568 1.195-1.25 2.172-2.039 2.858-.58.504-1.253.92-2.005 1.253-1.645.729-3.338.97-4.515.958H6.34l-.125.005c-.942.099-1.441-.488-1.216-1.447l.018-.102c.006-.048.023-.155.053-.313.052-.271.122-.576.212-.905.259-.943.627-1.884 1.12-2.755.488-.86 1.072-1.603 1.759-2.2z"/></g><circle id="Oval-10-Copy-5" cx="3" cy="4" r="1" fill="#1692D0"/><circle id="Oval-10-Copy-4" cx="18" cy="4" r="1" fill="#1692D0"/></g></g></g></g></g></g></svg>