<svg xmlns="http://www.w3.org/2000/svg" xmlns:xlink="http://www.w3.org/1999/xlink" width="991" height="200" viewBox="0 0 991 200"><defs><polygon id="path-1" points="405.582384 2.6491649 413.574319 2.6491649 413.574319 13.6491649 409.444698 11.6491649 405.582384 13.6491649"/><polygon id="path-2" points="861.467103 20.2069495 869.459039 20.2069495 869.459039 31.2069495 865.329417 29.2069495 861.467103 31.2069495"/><polygon id="path-3" points="890.89194 18.0464372 898.883875 18.0464372 898.883875 29.0464372 894.754253 27.0464372 890.89194 29.0464372"/><polygon id="path-4" points="919.378807 15.5601034 927.370743 15.5601034 927.370743 26.5601034 923.241121 24.5601034 919.378807 26.5601034"/><polygon id="path-5" points="949.348565 13.5601034 957.340501 13.5601034 957.340501 24.5601034 953.210879 22.5601034 949.348565 24.5601034"/><polygon id="path-6" points="977.32034 10.5601034 985.312275 10.5601034 985.312275 21.5601034 981.182653 19.5601034 977.32034 21.5601034"/><polygon id="path-7" points="250.815306 20.7139915 258.807242 20.7139915 258.807242 31.7139915 254.67762 29.7139915 250.815306 31.7139915"/><polygon id="path-8" points="219.709674 20.8436655 227.70161 20.8436655 227.70161 31.8436655 223.571988 29.8436655 219.709674 31.8436655"/><polygon id="path-9" points="188.796288 20.2876425 196.788224 20.2876425 196.788224 31.2876425 192.658602 29.2876425 188.796288 31.2876425"/><polygon id="path-10" points="158.82653 19.2876425 166.818466 19.2876425 166.818466 30.2876425 162.688844 28.2876425 158.82653 30.2876425"/><polygon id="path-11" points="127.809294 16.6927894 135.80123 16.6927894 135.80123 27.6927894 131.671608 25.6927894 127.809294 27.6927894"/><polygon id="path-12" points="97.8395361 14.6927894 105.831472 14.6927894 105.831472 25.6927894 101.70185 23.6927894 97.8395361 25.6927894"/><polygon id="path-13" points="67.0689556 11.7029718 75.060891 11.7029718 75.060891 22.7029718 70.9312691 20.7029718 67.0689556 22.7029718"/><polygon id="path-14" points="35.1012136 8.70297177 43.0931491 8.70297177 43.0931491 19.7029718 38.9635272 17.7029718 35.1012136 19.7029718"/><polygon id="path-15" points="5.14762205 5.09387083 13.1395575 5.09387083 13.1395575 16.0938708 9.00993559 14.0938708 5.14762205 16.0938708"/><polygon id="path-16" points="281.720848 19.0756836 289.712783 19.0756836 289.712783 30.0756836 285.583161 28.0756836 281.720848 30.0756836"/><polygon id="path-17" points="312.73408 16.8498567 320.726016 16.8498567 320.726016 27.8498567 316.596394 25.8498567 312.73408 27.8498567"/><polygon id="path-18" points="343.42911 12.9365935 351.421046 12.9365935 351.421046 23.9365935 347.291424 21.9365935 343.42911 23.9365935"/><polygon id="path-19" points="374.701735 8.79229764 382.69367 8.79229764 382.69367 19.7922976 378.564048 17.7922976 374.701735 19.7922976"/><polygon id="path-20" points="618.497086 12.5061604 626.489022 12.5061604 626.489022 23.5061604 622.3594 21.5061604 618.497086 23.5061604"/><polygon id="path-21" points="588.278565 8.45602603 596.270501 8.45602603 596.270501 19.456026 592.140879 17.456026 588.278565 19.456026"/><polygon id="path-22" points="556.305145 3.14508887 564.297081 3.14508887 564.297081 14.1450889 560.167459 12.1450889 556.305145 14.1450889"/><polygon id="path-23" points="649.543273 15.8469226 657.535208 15.8469226 657.535208 26.8469226 653.405586 24.8469226 649.543273 26.8469226"/><polygon id="path-24" points="680.313508 18.1806641 688.305444 18.1806641 688.305444 29.1806641 684.175822 27.1806641 680.313508 29.1806641"/><polygon id="path-25" points="711.136026 20.9256967 719.127962 20.9256967 719.127962 31.9256967 714.99834 29.9256967 711.136026 31.9256967"/><polygon id="path-26" points="742.312062 21.3356027 750.303997 21.3356027 750.303997 32.3356027 746.174375 30.3356027 742.312062 32.3356027"/><polygon id="path-27" points="773.21935 21.9862375 781.211286 21.9862375 781.211286 32.9862375 777.081664 30.9862375 773.21935 32.9862375"/><polygon id="path-28" points="803.320292 21.6967944 811.312227 21.6967944 811.312227 32.6967944 807.182605 30.6967944 803.320292 32.6967944"/><polygon id="path-29" points="832.278465 20.7251738 840.270401 20.7251738 840.270401 31.7251738 836.140779 29.7251738 832.278465 31.7251738"/><path id="path-30" d="M37.108 56.805c.471-.997 1.75-1.805 2.86-1.805h115.867c1.108 0 2.392.816 2.86 1.805l7.283 15.39c.471.997-.045 1.805-1.148 1.805H30.973c-1.106 0-1.616-.816-1.148-1.805l7.283-15.39z"/><rect id="path-31" width="101.897177" height="14" rx="7"/><path id="path-32" d="M1.998 0s9 2 17.324 2C27.646 2 34.007.42 34.007.42c1.08-.232 1.957.475 1.957 1.577v22.006c0 1.103-.876 2.2-1.944 2.426 0 0-6.04 1.571-14.698 1.571-8.659 0-17.324-2-17.324-2V0z"/><path id="path-33" d="M1.998 8s8.986 2 17.324 2c8.338 0 16.642-2 16.642-2v10s-7.997 2-16.642 2-17.324-2-17.324-2V8z"/><polygon id="path-34" points="1.99798387 0 6.99294355 0 8.99092742 182 0 182"/><ellipse id="path-35" cx="19.9798387" cy="2" rx="1.99798387" ry="2"/></defs><g id="--9-may" fill="none" fill-rule="evenodd"><g id="-9-mobile_version" transform="translate(0.000000, -456.000000)"><g id="иллюстрация_1" transform="translate(0.000000, 454.000000)"><g id="Group-24-Copy" transform="translate(0.000000, 88.000000)"><g id="Rectangle-44-Copy-7" transform="translate(409.578352, 8.149165) rotate(-12.000000) translate(-409.578352, -8.149165)"><use fill="#FFF" xlink:href="#path-1"/><path stroke="#39393A" stroke-width="2" d="M406.582 3.65h5.992v8.404l-2.693-1.305-.451-.218-.445.23-2.403 1.244V3.65z"/></g><g id="Rectangle-44-Copy-18" transform="translate(865.463071, 25.706950) rotate(-4.000000) translate(-865.463071, -25.706950)"><use fill="#FFF" xlink:href="#path-2"/><path stroke="#39393A" stroke-width="2" d="M862.467 21.207h5.992v8.405l-2.694-1.305-.45-.218-.445.23-2.403 1.244v-8.356z"/></g><g id="Rectangle-44-Copy-21" transform="translate(894.887907, 23.546437) rotate(-5.000000) translate(-894.887907, -23.546437)"><use fill="#FFF" xlink:href="#path-3"/><path stroke="#39393A" stroke-width="2" d="M891.892 19.046h5.992v8.405l-2.694-1.305-.45-.218-.446.23-2.402 1.244v-8.356z"/></g><g id="Rectangle-44-Copy-22" transform="translate(923.374775, 21.060103) rotate(-6.000000) translate(-923.374775, -21.060103)"><use fill="#FFF" xlink:href="#path-4"/><path stroke="#39393A" stroke-width="2" d="M920.379 16.56h5.992v8.405l-2.694-1.305-.45-.218-.446.23-2.402 1.244V16.56z"/></g><g id="Rectangle-44-Copy-26" transform="translate(953.344533, 19.060103) rotate(-6.000000) translate(-953.344533, -19.060103)"><use fill="#FFF" xlink:href="#path-5"/><path stroke="#39393A" stroke-width="2" d="M950.349 14.56h5.992v8.405l-2.694-1.305-.451-.218-.445.23-2.402 1.244V14.56z"/></g><g id="Rectangle-44-Copy-27" transform="translate(981.316307, 16.060103) rotate(-6.000000) translate(-981.316307, -16.060103)"><use fill="#FFF" xlink:href="#path-6"/><path stroke="#39393A" stroke-width="2" d="M978.32 11.56h5.992v8.405l-2.693-1.305-.451-.218-.445.23-2.403 1.244V11.56z"/></g><path id="Path-10" stroke="#39393A" stroke-width="2" d="M0 4.832S134.161 22 233.764 22C333.367 22 426.69 0 426.69 0"/><path id="Path-10-Copy" stroke="#39393A" stroke-width="2" d="M990.993 10.39c-59.624 6.017-139.525 12.412-209.781 12.412C648.555 22.802 544.45 0 544.45 0"/><g id="Rectangle-44" transform="translate(254.811274, 26.213991) rotate(-1.000000) translate(-254.811274, -26.213991)"><use fill="#FFF" xlink:href="#path-7"/><path stroke="#39393A" stroke-width="2" d="M251.815 21.714h5.992v8.405l-2.694-1.305-.45-.218-.445.23-2.403 1.244v-8.356z"/></g><g id="Rectangle-44-Copy" transform="translate(223.705642, 26.343665) rotate(1.000000) translate(-223.705642, -26.343665)"><use fill="#FFF" xlink:href="#path-8"/><path stroke="#39393A" stroke-width="2" d="M220.71 21.844h5.992v8.404l-2.694-1.304-.451-.219-.445.23-2.402 1.245v-8.356z"/></g><g id="Rectangle-44-Copy-2" transform="translate(192.792256, 25.787642) rotate(3.000000) translate(-192.792256, -25.787642)"><use fill="#FFF" xlink:href="#path-9"/><path stroke="#39393A" stroke-width="2" d="M189.796 21.288h5.992v8.404l-2.694-1.304-.45-.219-.445.23-2.403 1.245v-8.356z"/></g><g id="Rectangle-44-Copy-19" transform="translate(162.822498, 24.787642) rotate(5.000000) translate(-162.822498, -24.787642)"><use fill="#FFF" xlink:href="#path-10"/><path stroke="#39393A" stroke-width="2" d="M159.827 20.288h5.991v8.404l-2.693-1.304-.451-.219-.445.23-2.402 1.245v-8.356z"/></g><g id="Rectangle-44-Copy-20" transform="translate(131.805262, 22.192789) rotate(5.000000) translate(-131.805262, -22.192789)"><use fill="#FFF" xlink:href="#path-11"/><path stroke="#39393A" stroke-width="2" d="M128.81 17.693h5.991v8.404l-2.694-1.304-.45-.219-.445.23-2.403 1.245v-8.356z"/></g><g id="Rectangle-44-Copy-24" transform="translate(101.835504, 20.192789) rotate(8.000000) translate(-101.835504, -20.192789)"><use fill="#FFF" xlink:href="#path-12"/><path stroke="#39393A" stroke-width="2" d="M98.84 15.693h5.991v8.404l-2.693-1.304-.451-.219-.445.23-2.402 1.245v-8.356z"/></g><g id="Rectangle-44-Copy-25" transform="translate(71.064923, 17.202972) rotate(7.000000) translate(-71.064923, -17.202972)"><use fill="#FFF" xlink:href="#path-13"/><path stroke="#39393A" stroke-width="2" d="M68.069 12.703h5.992v8.405l-2.694-1.305-.45-.218-.446.23-2.402 1.244v-8.356z"/></g><g id="Rectangle-44-Copy-31" transform="translate(39.097181, 14.202972) rotate(7.000000) translate(-39.097181, -14.202972)"><use fill="#FFF" xlink:href="#path-14"/><path stroke="#39393A" stroke-width="2" d="M36.101 9.703h5.992v8.405L39.4 16.803l-.45-.218-.445.23-2.403 1.244V9.703z"/></g><g id="Rectangle-44-Copy-32" transform="translate(9.143590, 10.593871) rotate(6.000000) translate(-9.143590, -10.593871)"><use fill="#FFF" xlink:href="#path-15"/><path stroke="#39393A" stroke-width="2" d="M6.148 6.094h5.992v8.404l-2.694-1.304-.451-.218-.445.23-2.402 1.244V6.094z"/></g><g id="Rectangle-44-Copy-3" transform="translate(285.716815, 24.575684) rotate(-4.000000) translate(-285.716815, -24.575684)"><use fill="#FFF" xlink:href="#path-16"/><path stroke="#39393A" stroke-width="2" d="M282.72 20.076h5.993v8.404l-2.694-1.304-.45-.219-.446.23-2.402 1.245v-8.356z"/></g><g id="Rectangle-44-Copy-4" transform="translate(316.730048, 22.349857) rotate(-4.000000) translate(-316.730048, -22.349857)"><use fill="#FFF" xlink:href="#path-17"/><path stroke="#39393A" stroke-width="2" d="M313.734 17.85h5.992v8.404l-2.694-1.304-.45-.219-.445.23-2.403 1.245V17.85z"/></g><g id="Rectangle-44-Copy-5" transform="translate(347.425078, 18.436594) rotate(-7.000000) translate(-347.425078, -18.436594)"><use fill="#FFF" xlink:href="#path-18"/><path stroke="#39393A" stroke-width="2" d="M344.43 13.937h5.991v8.404l-2.694-1.304-.45-.219-.445.23-2.403 1.245v-8.356z"/></g><g id="Rectangle-44-Copy-6" transform="translate(378.697703, 14.292298) rotate(-11.000000) translate(-378.697703, -14.292298)"><use fill="#FFF" xlink:href="#path-19"/><path stroke="#39393A" stroke-width="2" d="M375.702 9.792h5.992v8.405L379 16.892l-.45-.218-.446.23-2.402 1.244V9.792z"/></g><g id="Rectangle-44-Copy-15" transform="translate(622.493054, 18.006160) rotate(9.000000) translate(-622.493054, -18.006160)"><use fill="#FFF" xlink:href="#path-20"/><path stroke="#39393A" stroke-width="2" d="M619.497 13.506h5.992v8.405l-2.694-1.305-.45-.218-.445.23-2.403 1.244v-8.356z"/></g><g id="Rectangle-44-Copy-14" transform="translate(592.274533, 13.956026) rotate(11.000000) translate(-592.274533, -13.956026)"><use fill="#FFF" xlink:href="#path-21"/><path stroke="#39393A" stroke-width="2" d="M589.279 9.456h5.992v8.405l-2.694-1.305-.451-.218-.445.23-2.402 1.244V9.456z"/></g><g id="Rectangle-44-Copy-13" transform="translate(560.301113, 8.645089) rotate(12.000000) translate(-560.301113, -8.645089)"><use fill="#FFF" xlink:href="#path-22"/><path stroke="#39393A" stroke-width="2" d="M557.305 4.145h5.992v8.405l-2.694-1.305-.45-.218-.445.23-2.403 1.244V4.145z"/></g><g id="Rectangle-44-Copy-12" transform="translate(653.539240, 21.346923) rotate(6.000000) translate(-653.539240, -21.346923)"><use fill="#FFF" xlink:href="#path-23"/><path stroke="#39393A" stroke-width="2" d="M650.543 16.847h5.992v8.405l-2.694-1.305-.45-.218-.445.23-2.403 1.244v-8.356z"/></g><g id="Rectangle-44-Copy-11" transform="translate(684.309476, 23.680664) rotate(5.000000) translate(-684.309476, -23.680664)"><use fill="#FFF" xlink:href="#path-24"/><path stroke="#39393A" stroke-width="2" d="M681.314 19.18h5.991v8.405l-2.693-1.304-.451-.219-.445.23-2.402 1.245V19.18z"/></g><g id="Rectangle-44-Copy-10" transform="translate(715.131994, 26.425697) rotate(3.000000) translate(-715.131994, -26.425697)"><use fill="#FFF" xlink:href="#path-25"/><path stroke="#39393A" stroke-width="2" d="M712.136 21.926h5.992v8.404l-2.694-1.304-.45-.219-.445.23-2.403 1.245v-8.356z"/></g><g id="Rectangle-44-Copy-9" transform="translate(746.308029, 26.835603) rotate(1.000000) translate(-746.308029, -26.835603)"><use fill="#FFF" xlink:href="#path-26"/><path stroke="#39393A" stroke-width="2" d="M743.312 22.336h5.992v8.404l-2.694-1.304-.45-.219-.445.23-2.403 1.245v-8.356z"/></g><g id="Rectangle-44-Copy-8" transform="translate(777.215318, 27.486237) rotate(1.000000) translate(-777.215318, -27.486237)"><use fill="#FFF" xlink:href="#path-27"/><path stroke="#39393A" stroke-width="2" d="M774.22 22.986h5.991v8.405l-2.693-1.305-.451-.218-.445.23-2.403 1.244v-8.356z"/></g><g id="Rectangle-44-Copy-16" transform="translate(807.316259, 27.196794) rotate(-2.000000) translate(-807.316259, -27.196794)"><use fill="#FFF" xlink:href="#path-28"/><path stroke="#39393A" stroke-width="2" d="M804.32 22.697h5.992V31.1l-2.694-1.304-.45-.219-.445.23-2.403 1.245v-8.356z"/></g><g id="Rectangle-44-Copy-17" transform="translate(836.274433, 26.225174) rotate(-3.000000) translate(-836.274433, -26.225174)"><use fill="#FFF" xlink:href="#path-29"/><path stroke="#39393A" stroke-width="2" d="M833.278 21.725h5.992v8.405l-2.693-1.305-.451-.218-.445.23-2.403 1.244v-8.356z"/></g></g><g id="1_illustration" transform="translate(329.667339, 0.000000)"><g id="Group-20" transform="translate(57.941532, 9.000000)"><rect id="Rectangle-32" width="117.881048" height="63" x="37.9616935" y="73" fill="#FFF"/><g id="Group-8" stroke="#1692D0" stroke-width="2" transform="translate(126.871976, 166.000000)"><rect id="Rectangle-37" width="22.9747984" height="23" x="1" y="1"/><g id="Group-7" stroke-linecap="square" transform="translate(1.997984, 2.000000)"><path id="Line" d="M.616.617l19.725 19.745"/><path id="Line-Copy-2" d="M.616.617l19.725 19.745" transform="translate(10.478934, 10.489509) scale(-1, 1) translate(-10.478934, -10.489509)"/></g></g><path id="Rectangle-38" stroke="#39393A" stroke-width="2" d="M121.878 131h34.963v61h-34.963v-61z"/><path id="Rectangle-32" fill="#1692D0" d="M122.828.656h2.23v22.327h-2.23V.656zm32.995 10.005l1.804 1.31-13.123 18.064-1.805-1.311 13.124-18.063zm20.818 27.503l.689 2.122-21.234 6.899-.69-2.121 21.235-6.9zm.689 34.497l-.69 2.121-21.233-6.9.689-2.12 21.234 6.899zm-19.703 28.314l-1.804 1.31-13.124-18.062 1.805-1.311 13.123 18.063zm-32.569 11.315h-2.23V89.963h2.23v22.327zm-32.995-10.004l-1.804-1.311 13.123-18.063 1.805 1.31-13.124 18.064zM71.245 74.782l-.689-2.121 21.234-6.9.69 2.122-21.235 6.9zm-.689-34.496l.69-2.122 21.233 6.9-.689 2.12-21.234-6.898zM90.26 11.972l1.804-1.311 13.124 18.063-1.805 1.31L90.26 11.973z"/><path id="Path-3-Copy-2" stroke="#39393A" stroke-width="2" d="M39.311 191.965L38.964 57h117.887v134.148l-117.54.817z"/><path id="Rectangle-30" stroke="#39393A" stroke-width="2" d="M59.94 105h3.994v4.003c0-.003 0-.003-.003-.003h-3.987c-.001 0-.003-.002-.003.01V105z"/><g id="Group-11-Copy" stroke="#1692D0" stroke-width="2" transform="translate(55.943548, 136.000000)"><path id="Rectangle-46" d="M7.02 4.01H5.035V1.002c0 .003.005-.002.005-.002h1.973c.006 0 .005 0 .005.002V4.01z"/><path id="Rectangle-45" d="M4.493 4.682H7.54l3.027 3.295v18.02c0-.002-.006.003-.004.003H1.266c-.005 0-.003.002-.003-.003V7.995l3.23-3.313z"/></g><g id="Group-11-Copy-2" stroke="#1692D0" stroke-width="2" transform="translate(56.942540, 136.000000)"><path id="Rectangle-46" d="M33.634 1V.993 1zm0 0h1.662V.993 3.91h-1.662V1z"/><path id="Rectangle-45" d="M29.97 26h-.005c.001 0 .004.003.005 0zM33.2 4.682h2.733l3.027 3.295V26h-8.99V7.995l3.23-3.313z"/><path id="Path-9" d="M29.636 8.758s5.58.744 9.102-1.759"/><path id="Path-9-Copy" d="M.665 8.758S6.245 9.502 9.768 7"/></g><g id="Group-16" fill="#39393A" transform="translate(120.878024, 137.000000)"><rect id="Rectangle-3" width="36.9627016" height="2"/></g><g id="Rectangle-5"><use fill="#FFF" xlink:href="#path-30"/><path stroke="#39393A" stroke-width="2" d="M38.012 57.232c.306-.647 1.232-1.232 1.955-1.232h115.868c.718 0 1.652.59 1.956 1.232l7.283 15.391c.157.331.127.377-.244.377H30.973c-.369 0-.4-.049-.244-.377l7.283-15.39z"/></g><path id="Path-11" stroke="#1692D0" stroke-width="2" d="M49.95 85.702s4.567 4.441 10.288 3.236C65.958 87.734 67.176 85 73.23 85"/><path id="Rectangle-52" stroke="#39393A" stroke-width="2" d="M49.95 73h23.974v27.002c0 .197-.198.544-.367.644l-6.752 3.986c-.319.188-.98.368-1.351.368H58.58c-.373 0-1.042-.18-1.359-.363l-6.911-4.005c-.162-.093-.36-.44-.36-.63V73z"/><g id="Group-5" transform="translate(8.990927, 163.000000)"><g id="Rectangle-36"><use fill="#FFF" xlink:href="#path-31"/><rect width="99.8971774" height="12" x="1" y="1" stroke="#39393A" stroke-width="2" rx="6"/></g><ellipse id="Oval-8" cx="6.99294355" cy="7" stroke="#39393A" stroke-width="2" rx="5.99395161" ry="6"/><ellipse id="Oval-8-Copy" cx="94.9042339" cy="7" stroke="#39393A" stroke-width="2" rx="5.99395161" ry="6"/><ellipse id="Oval-8-Copy-3" cx="50.9485887" cy="7" stroke="#39393A" stroke-width="2" rx="5.99395161" ry="6"/></g><path id="Combined-Shape" fill="#FFF" stroke="#39393A" stroke-linecap="round" stroke-linejoin="round" stroke-width="2" d="M.067 112H0v80h38.96v-80H23.91l-5.928-89H5.994L.067 112z"/></g><path id="Line-Copy-9" stroke="#1692D0" stroke-linecap="square" stroke-width="2" d="M94.518 3.884l7.697 25.174m2.324-24.209L92.18 28.092m18.763-15.475l-25.175 7.697m24.21 2.324L86.734 10.28m15.475 18.762L94.513 3.867m-2.325 24.21l12.36-23.243M85.784 20.309l25.174-7.697m-24.21-2.324l23.244 12.358"/></g><g id="Group-17" transform="translate(575.419355, 20.000000)"><path id="Rectangle-41-Copy-21" stroke="#1692D0" stroke-width="2" d="M18.982 6.772a57.367 57.367 0 0 1 3.775-.786A65.293 65.293 0 0 1 33.935 5c3.886 0 7.693.298 11.26.795 1.247.174 2.374.36 3.36.546a46.023 46.023 0 0 1 1.206.244c.644.128 1.187.787 1.187 1.412v22.006c0 .48-.308.735-.79.648a68.335 68.335 0 0 0-1.369-.256 96.072 96.072 0 0 0-3.641-.568C41.373 29.31 37.584 29 34.02 29c-3.568 0-7.011.298-10.206.795-1.12.174-2.129.36-3.013.548a36.315 36.315 0 0 0-1.114.255c-.425.093-.706-.131-.706-.595V6.772z"/><path id="Rectangle-41-Copy-22" stroke="#1692D0" stroke-width="2" d="M18.982 14.774a59.418 59.418 0 0 1 3.823-.789A65.793 65.793 0 0 1 33.985 13h.284c3.777.019 7.835.387 11.9.99a101.05 101.05 0 0 1 4.779.824v7.978a129.838 129.838 0 0 0-4.791-.781c-2.852-.412-5.651-.72-8.279-.883a62.349 62.349 0 0 0-3.85-.128c-3.592 0-7.41.38-11.214 1.014a80.986 80.986 0 0 0-3.832.73v-7.97z"/><g id="Rectangle-41-Copy-18"><use fill="#FFF" xlink:href="#path-32"/><path stroke="#39393A" stroke-width="2" d="M2.998 1.227l.347.067c1.23.237 2.59.474 4.043.695 3.477.528 6.924.882 10.154.983a57.46 57.46 0 0 0 1.78.028c3.695 0 7.277-.3 10.612-.801a61.662 61.662 0 0 0 3.149-.553 39.725 39.725 0 0 0 1.165-.256c.427-.091.716.142.716.607v22.006c0 .634-.55 1.32-1.151 1.448-.218.055-.567.138-1.077.245-.86.18-1.853.36-2.968.53-3.193.484-6.71.774-10.446.774h-.02c-3.726-.001-7.73-.372-11.737-.988a93.012 93.012 0 0 1-4.567-.819V1.227z"/></g><g id="Rectangle-41-Copy-19"><use fill="#FFF" xlink:href="#path-33"/><path stroke="#39393A" stroke-width="2" d="M2.998 9.227c.111.022.226.045.345.067 1.228.237 2.587.474 4.04.695 3.5.532 6.97.887 10.22.985.585.017 1.157.026 1.719.026 3.707 0 7.66-.38 11.606-1.013a87.541 87.541 0 0 0 4.036-.742v7.96c-.184.042-.381.084-.592.13-1.091.23-2.317.462-3.648.678-3.8.617-7.68.987-11.402.987h-.1c-3.698-.007-7.673-.376-11.652-.988a93.385 93.385 0 0 1-4.572-.82V9.228z"/></g><g id="Rectangle-41-Copy-15"><use fill="#FFF" xlink:href="#path-34"/><path stroke="#39393A" stroke-width="2" d="M2.987 1h3.017L7.98 181H1.01L2.987 1z"/></g></g><g id="Group-25" transform="translate(603.391129, 179.000000)"><g id="Group-27" transform="translate(0.000000, 1.000000)"><path id="Fill-43" fill="#39393A" d="M44.679 20.917H24.704a9.566 9.566 0 0 0 2.858-1.95c3.184-3.166 2.93-7.355 2.917-7.531a.482.482 0 0 0-.448-.446s-.116-.008-.323-.008c-.467 0-1.468.048-2.675.359C29.243 5.205 28.55.603 28.518.405a.483.483 0 0 0-.782-.297c-.151.124-3.526 2.912-5.964 8.572-.72-1.038-1.388-1.63-1.449-1.684a.487.487 0 0 0-.634 0c-.06.053-.725.643-1.443 1.676-2.437-5.655-5.81-8.44-5.961-8.564a.483.483 0 0 0-.781.297c-.033.198-.725 4.798 1.484 10.933-1.203-.31-2.2-.358-2.667-.358-.207 0-.323.01-.323.01a.482.482 0 0 0-.448.446c-.013.176-.266 4.365 2.917 7.532a9.574 9.574 0 0 0 2.86 1.949H0"/><g id="Group-26" fill="#FFF" stroke="#39393A" transform="translate(10.216963, 1.354839)"><path id="Fill-1" d="M.294 10.589a10.27 10.27 0 0 1 2.91.52c1.78 4.352 4.14 7.099 5.363 8.323l.065.082.016.002-.016-.002c-1.38-.136-3.769-.659-5.7-2.58C.638 14.652.326 11.694.294 10.59"/><path id="Fill-3" d="M2.155.15c1.16 1.166 3.525 3.897 5.25 8.182a9.99 9.99 0 0 0-1.115 3.292 9.527 9.527 0 0 0-.1 1.149c-.002.082-.01.162-.01.246 0 .795.103 1.534.268 2.218a26.338 26.338 0 0 1-2.512-4.884c-.025-.061-.05-.12-.074-.182C2.127 5.634 2.065 1.843 2.155.15"/><path id="Fill-5" d="M8.165 8.973A10.495 10.495 0 0 1 9.79 6.678 10.097 10.097 0 0 1 11.71 9.59a8.723 8.723 0 0 1 .726 3.43c0 .266-.017.524-.04.778-.21 2.214-1.264 3.927-2.048 4.916l-.047.059v.013l.017-.017-.016.017v-.013a2.003 2.003 0 0 1-.063.076c-.144.174-.275.323-.387.444l-.062.067-.054-.058a9.13 9.13 0 0 1-.026.26l.026-.26a9.057 9.057 0 0 1-.38-.435c-.005.051-.008.095-.011.143v-.002l.01-.141-.02-.026.005.081c-.003-.026-.004-.052-.006-.08l-.048-.058-.036-.045c-.788-.988-1.86-2.715-2.065-4.962a8.327 8.327 0 0 1-.039-.758 8.716 8.716 0 0 1 .732-3.435c.092-.212.188-.417.288-.61"/><path id="Fill-8" d="M17.434.15c.09 1.688.031 5.472-1.709 10.02-.024.064-.05.125-.075.188a26.423 26.423 0 0 1-2.522 4.897 9.448 9.448 0 0 0 .271-2.236c0-.08-.008-.156-.01-.234a9.426 9.426 0 0 0-.099-1.151 9.967 9.967 0 0 0-1.11-3.293c1.724-4.292 4.094-7.026 5.254-8.191"/><path id="Fill-10" d="M19.3 10.589c-.032 1.106-.343 4.063-2.638 6.345-1.94 1.93-4.341 2.45-5.716 2.583l-.04.045.039-.045h-.01v.001a10.694 10.694 0 0 1-.651.042 7.797 7.797 0 0 0 .652-.042h.009a2.25 2.25 0 0 1 .037-.048c1.213-1.206 3.604-3.965 5.4-8.358a10.314 10.314 0 0 1 2.918-.523"/></g></g><g id="Oval-10"><use fill="#FFF" xlink:href="#path-35"/><ellipse cx="19.9798387" cy="2" stroke="#1692D0" stroke-width="2" rx="1" ry="1"/></g></g><rect id="Rectangle-48" width="73.9254032" height="48" x="469.52621" y="83" fill="#FFF"/></g></g></g></svg>