<svg xmlns="http://www.w3.org/2000/svg" xmlns:xlink="http://www.w3.org/1999/xlink" width="361" height="93" viewBox="0 0 361 93">
    <defs>
        <circle id="a" cx="63.5" cy="58.5" r="9.5"/>
        <circle id="b" cx="12.5" cy="58.5" r="9.5"/>
        <circle id="c" cx="84.5" cy="58.5" r="9.5"/>
        <path id="d" d="M11.021 12.427h2v8.69h-2z"/>
        <circle id="e" cx="12" cy="3" r="3"/>
        <path id="f" d="M11.997 11.625a3.12 3.12 0 0 0-.063-.27s-.295-2.865-3.23-5.417c-2.936-2.552-6.752-2.59-6.752-2.59C.858 3.208.18 4 .452 5.067c0 0 .592 3.808 3.522 6.354 2.929 2.546 5.8 2.434 5.8 2.434 1.188.192 2.023-.367 2.223-1.297.2.93 1.036 1.49 2.223 1.297 0 0 2.872.112 5.801-2.434 2.93-2.546 3.522-6.354 3.522-6.354.272-1.067-.406-1.86-1.5-1.719 0 0-3.816.038-6.752 2.59-2.935 2.552-3.23 5.418-3.23 5.418a3.12 3.12 0 0 0-.064.269z"/>
        <path id="g" d="M11.021 12.427h2v8.69h-2z"/>
        <circle id="h" cx="12" cy="3" r="3"/>
        <path id="i" d="M11.997 11.625a3.12 3.12 0 0 0-.063-.27s-.295-2.865-3.23-5.417c-2.936-2.552-6.752-2.59-6.752-2.59C.858 3.208.18 4 .452 5.067c0 0 .592 3.808 3.522 6.354 2.929 2.546 5.8 2.434 5.8 2.434 1.188.192 2.023-.367 2.223-1.297.2.93 1.036 1.49 2.223 1.297 0 0 2.872.112 5.801-2.434 2.93-2.546 3.522-6.354 3.522-6.354.272-1.067-.406-1.86-1.5-1.719 0 0-3.816.038-6.752 2.59-2.935 2.552-3.23 5.418-3.23 5.418a3.12 3.12 0 0 0-.064.269z"/>
    </defs>
    <g fill="none" fill-rule="evenodd">
        <g fill="#39393A">
            <path d="M134.606 81.397h62.751V24.665h-62.751v56.732zm-.12 1.641A1.473 1.473 0 0 1 133 81.574V24.483c0-.815.67-1.483 1.486-1.483h63.028c.837 0 1.486.668 1.486 1.483v57.09c0 .818-.649 1.465-1.486 1.465h-63.028zM202.95 81.089h33.06v-18l-10.963-21.05H202.95v39.05zm-.178 1.963a1.743 1.743 0 0 1-1.752-1.757v-39.5c0-.977.776-1.779 1.752-1.779h22.275c.676 0 1.302.401 1.602 1.003l11.139 21.292c.1.25.175.526.175.777v18.207c0 .98-.801 1.757-1.777 1.757h-33.414z"/>
            <path d="M208.02 61.022h20.991l-7.02-14.01H208.02v14.01zm-.15 1.975a1.77 1.77 0 0 1-1.778-1.78V46.875c0-.978.801-1.78 1.778-1.78l14.12-.013c.679 0 1.305.401 1.605 1l7.185 14.55c.275.551.225.999-.1 1.525a1.734 1.734 0 0 1-1.502.827l-21.308.013z"/>
        </g>
        <path fill="#39393A" d="M199 65h-65v2h65z"/>
        <g transform="matrix(-1 0 0 1 238 23)">
            <use fill="#FFF" xlink:href="#a"/>
            <circle cx="63.5" cy="58.5" r="8.5" stroke="#39393A" stroke-width="2"/>
        </g>
        <g transform="matrix(-1 0 0 1 238 23)">
            <use fill="#FFF" xlink:href="#b"/>
            <circle cx="12.5" cy="58.5" r="8.5" stroke="#39393A" stroke-width="2"/>
        </g>
        <g transform="matrix(-1 0 0 1 238 23)">
            <use fill="#FFF" xlink:href="#c"/>
            <circle cx="84.5" cy="58.5" r="8.5" stroke="#39393A" stroke-width="2"/>
        </g>
        <g stroke-linecap="round" stroke-linejoin="round" stroke-width="2">
            <path fill="#FFF" stroke="#1692D0" d="M160.745 21.663c0 11.084-8.898 20.071-19.874 20.071-10.973 0-19.87-8.987-19.87-20.071 0-11.085 8.897-20.072 19.87-20.072 10.976 0 19.874 8.987 19.874 20.072z"/>
            <path stroke="#39393A" d="M140.872 8.656v13.007l9.2-5.044"/>
        </g>
        <g transform="translate(23 38)">
            <path stroke="#39393A" stroke-width="2" d="M33 1c-13.124 0-15 9.88-15 23M3 1c13.073 0 15 9.872 15 23M18 24h1v30h-1z"/>
            <path fill="#39393A" d="M31 0h2v4h-2zM3 0h2v4H3z"/>
            <circle cx="32" cy="8" r="4" stroke="#39393A" stroke-width="2"/>
            <circle cx="4" cy="8" r="4" stroke="#39393A" stroke-width="2"/>
        </g>
        <path stroke="#39393A" stroke-linecap="round" stroke-linejoin="round" stroke-width="2" d="M1 92h359"/>
        <g>
            <g transform="translate(49 71)">
                <use fill="#D8D8D8" xlink:href="#d"/>
                <path stroke="#39393A" stroke-width="2" d="M12.021 13.427h1v6.69h-1z"/>
            </g>
            <g transform="translate(49 71)">
                <use fill="#FFF" xlink:href="#e"/>
                <circle cx="12" cy="3" r="2" stroke="#39393A" stroke-width="2"/>
            </g>
            <use fill="#FFF" transform="translate(49 71)" xlink:href="#f"/>
        </g>
        <g>
            <g transform="translate(285 71)">
                <use fill="#D8D8D8" xlink:href="#g"/>
                <path stroke="#39393A" stroke-width="2" d="M12.021 13.427h1v6.69h-1z"/>
            </g>
            <g transform="translate(285 71)">
                <use fill="#FFF" xlink:href="#h"/>
                <circle cx="12" cy="3" r="2" stroke="#39393A" stroke-width="2"/>
            </g>
            <use fill="#FFF" transform="translate(285 71)" xlink:href="#i"/>
        </g>
        <g stroke="#39393A" stroke-linecap="round" stroke-linejoin="round" stroke-width="2">
            <path d="M332.286 60.812c-.858 2.584-3.22 4.44-6 4.44-.679 0-1.333-.11-1.946-.315a13.54 13.54 0 0 1-4.601 1.955c-.956.21-1.95.322-2.971.322-1.395 0-2.74-.208-4.005-.592-.79.366-1.664.57-2.584.57-2.4 0-4.487-1.383-5.566-3.423-3.413-.108-6.149-3.015-6.149-6.586 0-.907.177-1.772.496-2.559a6.693 6.693 0 0 1-1.96-4.762c0-3.295 2.33-6.026 5.371-6.512.085-3.562 2.893-6.423 6.343-6.423 1.437 0 2.762.496 3.825 1.332.907-2.49 3.223-4.259 5.937-4.259 2.578 0 4.797 1.597 5.79 3.89a6.175 6.175 0 0 1 3.972-1.45c3.504 0 6.345 2.95 6.345 6.588 0 1.851-.734 3.524-1.917 4.72 3.024.503 5.334 3.225 5.334 6.507 0 3.417-2.506 6.227-5.714 6.557zM316 91.95V53.553M316 63.177L324.586 55M316 55.632L321.632 50M316 61.177L307.414 53M316 53.632L310.368 48"/>
        </g>
    </g>
</svg>
