<svg xmlns="http://www.w3.org/2000/svg" viewBox="0 0 112 68"><g fill="none" fill-rule="nonzero"><path fill="#39393A" d="M44.2692111,64 L68,64 L68,51 L38.151564,51 L44.2692111,64 Z M2,64 L2,21.4990368 C2,20.2187717 2.4830309,18.3823538 3.11664726,17.2613403 L7.64222707,9.25454522 C8.36538646,7.97510936 10.0262933,7 11.4919715,7 L21.0080285,7 C22.6601143,7 24,8.34563135 24,9.99791312 L24,14 L22,14 L22,9.99791312 C22,9.44828963 21.5536245,9 21.0080285,9 L11.4919715,9 C10.7494403,9 9.75271553,9.58517173 9.38335274,10.2386597 L4.85777293,18.2454548 C4.39386061,19.0662227 4,20.5636273 4,21.4990368 L4,64 L5.00922203,64 C5.55641359,64 6,64.4438648 6,65 C6,65.5522847 5.54902482,66 5.00922203,66 L0.990777969,66 C0.443586406,66 0,65.5561352 0,65 C0,64.4477153 0.45097518,64 0.990777969,64 L2,64 Z M68,49 L70,49 L70,66 L43,66 L35.9411765,51 L68,51 L68,49 Z M52,15.9258696 C52,13.7183672 53.6756628,11.2832072 55.7261212,10.4931743 L69.9831543,5 L97.9792704,5 C100.19079,5 101.983582,6.79257854 101.983582,9.00238037 L101.983582,66 L68.0168457,66 L68.0168457,30.0124401 C68.0168457,27.8040488 66.226132,26.0058373 64.0164356,25.9960191 L56.0004101,25.9604018 C53.7910446,25.950585 52,24.1535361 52,21.9455904 L52,15.9258696 Z M79.0198367,7 L70.3551226,7 L56.4451854,12.3594398 C55.1638665,12.8531265 54,14.5483318 54,15.9258696 L54,21.9455904 C54,23.0518681 54.9004539,23.9554947 56.0092966,23.9604216 L64.025322,23.9960388 C67.3358188,24.0107482 70.0168457,26.7026586 70.0168457,30.0124401 L70.0168457,64 L99.9835815,64 L99.9835815,9.00238037 C99.9835815,7.89708853 99.0861612,7 97.9792704,7 L92.02393,7 L92.02393,5 L79.0198367,5 L79.0198367,7 Z"/><path fill="#1692D0" d="M90.9993703,64 L90.9993703,4.99255897 C90.9993703,3.8950175 90.1005153,3 88.9891143,3 L81.9701406,3 C80.8514734,3 79.9598846,3.88924538 79.9598846,4.99255897 L79.9598846,64 L90.9993703,64 Z M88.9891143,1 C91.2042653,1 93,2.78927099 93,4.99255897 L93,66 L77.9592549,66 L77.9592549,4.99255897 C77.9592549,2.78752954 79.7436899,1 81.9701406,1 L88.9891143,1 Z M68,42 L24.4456486,42 C21.9636154,42 19.9409925,44.0147186 19.9409925,46.5 C19.9409925,48.9802243 21.9577958,51 24.4456486,51 L68,51 L68,49 L24.4456486,49 C23.0644854,49 21.9416223,47.8774267 21.9416223,46.5 C21.9416223,45.1220163 23.0658018,44 24.4456486,44 L68,44 L68,42 Z M19.17847,17.6788185 L27.05281,16.290797 C27.6004233,16.1942684 27.9635494,15.6761618 27.8675263,15.1317591 C27.7720027,14.5901884 27.2502958,14.2251326 26.7054043,14.3211815 L18.8310643,15.709203 C18.283451,15.8057316 17.9203249,16.3238382 18.0163479,16.8682409 C18.1118715,17.4098116 18.6335784,17.7748674 19.17847,17.6788185 Z M16.0461123,17.2155372 C15.758312,15.5838543 16.8474051,14.0280123 18.4836586,13.7395875 L26.3579986,12.351566 C27.9920185,12.0635349 29.5505473,13.1561 29.837762,14.7844628 C30.1255623,16.4161457 29.0364692,17.9719877 27.4002157,18.2604125 L19.5258757,19.648434 C17.8918557,19.9364651 16.333327,18.8439 16.0461123,17.2155372 Z"/></g></svg>