<svg xmlns="http://www.w3.org/2000/svg" viewBox="0 0 220 119"><g fill="none" fill-rule="nonzero" transform="translate(-848.000000, -223.000000) translate(848.000000, 223.000000)"><path fill="#39393A" d="M108.455008,117 L162,117 L162,87 L98.7491257,87 L108.455008,117 Z M177,6 L174.158068,6 L133.280052,13.2052521 C132.06674,13.4191132 131,14.6939505 131,15.93753 L131,30.93393 C131,32.0507118 131.895305,32.9488631 133.003352,32.9512514 L158.022116,33.0051788 C161.327124,33.0123026 164.016846,35.7008784 164.016846,39.0081223 L164.016846,60 L178.018799,60 L178.018799,75 L164.016846,75 L164.016846,117 L216.983582,117 L216.983582,75 L203.029053,75 L203.029053,60 L216.983582,60 L216.983582,7.99506127 C216.983582,6.89661719 216.088276,6 214.990094,6 L205,6 L205,4 L214.990094,4 C217.195636,4 218.983582,5.79484062 218.983582,7.99506127 L218.983582,60 L219.018799,60 L219.018799,75 L218.983582,75 L218.983582,119 L163.008423,119 L107,119 L96,85 L162.016846,85 L162.016846,39.0081223 C162.016846,36.8021157 160.21827,35.0099172 158.017805,35.0051741 L132.999041,34.9512468 C130.790431,34.9464862 129,33.1559231 129,30.93393 L129,15.93753 C129,13.7235878 130.763393,11.6180134 132.932879,11.2356148 L173.983154,4 L177,4 L177,6 Z M17.9215686,104 L18.0046954,104 C19.1090523,104 20.6759664,104.60449 21.4906135,105.337673 L28.5180074,111.662327 C28.7983719,111.914655 28.9558676,112.150666 28.9981398,112.352069 C29.6216108,113.057464 30,113.984543 30,115 C30,117.209139 28.209139,119 26,119 C23.790861,119 22,117.209139 22,115 C22,114.271426 22.1947886,113.588347 22.5351288,113 L7.46487448,113 C7.80521118,113.588346 8,114.271425 8,115 C8,117.209139 6.209139,119 4,119 C1.790861,119 0,117.209139 0,115 C0,113.977735 0.383480141,113.045036 1.01443378,112.337911 C1.0609415,112.139079 1.21772924,111.907923 1.49061345,111.662327 L8.51800737,105.337673 C9.33886987,104.598896 10.8917437,104 12.0039254,104 L12.0784314,104 L13.9960937,55.0996094 L13.9960937,45.0151309 C13.9960937,43.240908 14.4901695,40.5274137 15.1175606,38.8586099 L25.0378338,12.4715766 C25.740703,10.6020078 27.8025891,8.81927385 29.7503797,8.3951805 L46.8510447,4.67184469 C48.9141249,4.22264927 51.2868897,5.3558031 52.2295549,7.23771581 L55.8896466,14.5446297 L54.1014422,15.4403556 L50.4413505,8.13344175 C49.908209,7.06909166 48.4469246,6.37123067 47.2765369,6.62605973 L30.1758718,10.3493955 C28.8912847,10.6290893 27.3739903,11.9409621 26.9099052,13.1753867 L16.989632,39.5624199 C16.446761,41.006408 15.9960937,43.4815001 15.9960937,45.0151309 L15.9960937,55 L16,55 L17.9215686,104 Z M164.029053,62 L164.029053,73 L176.018799,73 L176.018799,62 L164.029053,62 Z M205.029053,62 L205.029053,73 L217.018799,73 L217.018799,62 L205.029053,62 Z M4,117 C5.1045695,117 6,116.104569 6,115 C6,113.895431 5.1045695,113 4,113 C2.8954305,113 2,113.895431 2,115 C2,116.104569 2.8954305,117 4,117 Z M26,117 C27.1045695,117 28,116.104569 28,115 C28,113.895431 27.1045695,113 26,113 C24.8954305,113 24,113.895431 24,115 C24,116.104569 24.8954305,117 26,117 Z M20.152684,106.824261 C19.702847,106.419408 18.6116941,106 18.0046954,106 L12.0039254,106 C11.3889003,106 10.3118388,106.413949 9.85593683,106.824261 L5.21622686,111 L24.792394,111 L20.152684,106.824261 Z M15,55 L14,104 L16,104 L15,55 Z"/><path fill="#1692D0" d="M162,87 L76.0000652,87 C74.343175,87 73,85.6526091 73,84.0031303 L73,80 L46.9962474,80 C45.3414656,80 44,78.6526091 44,77.0031303 L44,73.9968697 C44,72.3417443 45.3476562,71 46.9962474,71 L162,71 L162,80 L75,80 L75,84.0031303 C75,84.5500949 75.4497994,85 76.0000652,85 L162,85 L162,87 Z M162,73 L46.9962474,73 C46.4495425,73 46,73.4489951 46,73.9968697 L46,77.0031303 C46,77.5506645 46.4486583,78 46.9962474,78 L162,78 L162,73 Z M201.029163,0 C203.242084,0 205.036011,1.79799489 205.036011,3.99337048 L205.036011,119 L176,119 L176,3.99337048 C176,1.78789286 177.79442,0 180.006848,0 L201.029163,0 Z M203.036011,117 L203.036011,3.99337048 C203.036011,2.89980291 202.134746,2 201.029163,2 L180.006848,2 C178.897276,2 178,2.89418164 178,3.99337048 L178,117 L203.036011,117 Z M43.104293,22.9718892 C42.401916,21.465637 43.0564941,19.6738332 44.5482697,18.9782068 L64.4934024,9.67763868 C65.9932657,8.97824096 67.7795405,9.63448388 68.480911,11.1385778 L68.895707,12.0281108 C69.598084,13.534363 68.9435059,15.3261668 67.4517303,16.0217932 L47.5065976,25.3223613 C46.0067343,26.021759 44.2204595,25.3655161 43.519089,23.8614222 L43.104293,22.9718892 Z M44.9169085,22.1266526 L45.3317046,23.0161856 C45.5675167,23.5218863 46.1652712,23.7410763 46.661361,23.5097457 L66.6064938,14.2091776 C67.0990907,13.9794759 67.3177667,13.37661 67.0830915,12.8733474 L66.6682954,11.9838144 C66.4324833,11.4781137 65.8347288,11.2589237 65.338639,11.4902543 L45.3935062,20.7908224 C44.9009093,21.0205241 44.6822333,21.62339 44.9169085,22.1266526 Z"/></g></svg>