<svg xmlns="http://www.w3.org/2000/svg" viewBox="0 0 112 68"><g fill="none" fill-rule="nonzero" transform="translate(0.000000, 4.000000)"><path fill="#1692D0" d="M65.0043259,6.0222168 C65.0384205,6.20295146 65.2559218,7.46446945 65,9 C64.723309,10.660146 64.4063632,11.0969744 64.4063632,11.0969744 C64.181935,11.5957017 63.5561352,12 63,12 C62.4477153,12 62.1786893,11.5936613 62.3852294,11.0832324 C62.3852294,11.0832324 62.776691,10.339854 63,9 C63.2081894,7.75086348 63.0281918,6.22333863 63.0028632,6.0222168 L61.9991455,6.0222168 L61.036377,5.01062012 L57.9977563,5.01062012 C57.4467107,5.01062012 57,4.5654945 57,4.01790295 L57,1.98734608 C57,1.43908352 57.4473851,0.994628906 57.9977563,0.994628906 L61.036377,0.994628906 L61.9956055,0 L73.072338,0 C73.6299762,0 74.4720249,0.217087072 74.9515555,0.484014216 L77.1304757,1.69689399 C77.6107007,1.96420766 78,2.63037279 78,3.17542699 L78,10.0054812 C78,10.5547388 77.5443967,11 76.9978734,11 L75,11 L75,14 L69,14 L69,11 L67.006277,11 C66.4528177,11 66.0041504,10.5582549 66.0041504,9.99267129 L66.0041504,7.0295455 C66.0041504,6.47321322 65.5602425,6.0222168 65.0141489,6.0222168 L65.0043259,6.0222168 Z M63.421193,17.1800319 L65.3571273,16.6778783 C65.4153365,16.9022901 65.6285281,17.3222839 66.0663948,17.7583853 C66.8414148,18.5302807 68.0247746,19.0048828 69.7680664,19.0048828 C71.5557793,19.0048828 72.4161002,18.8061373 73.349513,18.3409079 C73.4292238,18.3011787 73.7055187,18.1599047 73.7303087,18.1473716 C74.6827547,17.6658419 75.4169544,17.4669189 76.6582031,17.4669189 L76.6582031,19.4669189 C75.7537563,19.4669189 75.3212876,19.5840914 74.6326827,19.9322305 C74.6160875,19.9406205 74.3324189,20.0856648 74.2416735,20.1308938 C73.0285468,20.7355375 71.8626167,21.0048828 69.7680664,21.0048828 C67.5029354,21.0048828 65.8102575,20.326012 64.6550407,19.1754526 C63.9347654,18.4580811 63.5624467,17.7246019 63.421193,17.1800319 Z M36.1794488,26.5266952 L37.8737738,25.4640274 C37.9654095,25.610132 38.2158749,25.8900811 38.6376223,26.1850795 C39.3749106,26.7007884 40.3243855,27.0136719 41.5317383,27.0136719 C42.6397138,27.0136719 43.0971908,26.8209817 43.8048112,26.2345552 C43.8798343,26.1721647 43.8798343,26.1721647 43.9587891,26.1063711 C44.9013973,25.3227916 45.621689,24.9953613 46.9111328,24.9953613 L46.9111328,26.9953613 C46.1556598,26.9953613 45.8519147,27.1334378 45.2373011,27.6443591 C45.1616524,27.7074013 45.1616524,27.7074013 45.080992,27.774478 C44.0383427,28.6385532 43.1477516,29.0136719 41.5317383,29.0136719 C39.9047405,29.0136719 38.5574319,28.5696889 37.491284,27.8239537 C36.8309696,27.3620856 36.4042804,26.8851683 36.1794488,26.5266952 Z M39,13.9973917 C39,12.8942627 39.8982606,12 40.9979131,12 L43.0020869,12 C44.1055038,12 45,12.8958578 45,13.9973917 L45,21 L39,21 L39,13.9973917 Z M40.9979131,14 C41.0002176,13.9997926 41,19 41,19 L43,19 L43,14 L40.9979131,14 Z M0.173156495,11.583942 L1.85711694,10.5049252 C1.89412638,10.5626837 1.99297381,10.6954376 2.15458146,10.8784519 C2.43712165,11.1984176 2.78503653,11.5215033 3.19897078,11.8241807 C4.56176255,12.8206827 6.28044586,13.357282 8.41289571,13.1881878 C10.2450431,13.0429062 11.190395,12.6942959 12.7867887,11.774297 C12.8747618,11.7235583 12.8747618,11.7235583 12.9636429,11.672277 C15.0260419,10.4830693 16.380075,10.0444336 19.0107422,10.0444336 L19.0107422,12.0444336 C16.7722964,12.0444336 15.7447996,12.3772886 13.9626858,13.4048801 C13.8746475,13.4556751 13.8746475,13.4556751 13.7854211,13.5071367 C11.9533288,14.5629682 10.7415967,15.0098096 8.570991,15.1819294 C5.94131569,15.3904516 3.75366798,14.7074343 2.01846222,13.4386155 C1.09508667,12.7634239 0.489451796,12.0775662 0.173156495,11.583942 Z M2,2.00591905 C2,0.898080551 2.88743329,0 3.99961498,0 L10.000385,0 C11.1047419,0 12,0.886554837 12,2.00591905 L12,7 L2,7 L2,2.00591905 Z M10,5 L10,2.00591905 C10,1.99547638 3.99961498,2 3.99961498,2 C3.9973348,2 4,5 4,5 L10,5 Z M71,12 L73,12 L73,11 L71,11 L71,12 Z M61.893923,3.01062012 L62.8566916,4.0222168 L65.0141489,4.0222168 C66.6726721,4.0222168 68.0041504,5.37636668 68.0041504,7.0295455 L68.0041504,9 L76,9 L76,3.35659746 L73.9788184,2.23152174 C73.7976147,2.13065603 73.2904842,2 73.072338,2 L62.8453376,2 L61.8861091,2.99462891 L59,2.99462891 L61.893923,3.01062012 Z"/><path fill="#39393A" d="M76.0092049,58 C76.004201,58 76.0018987,57.9997933 76.0008479,58 L76.0092049,58 Z M76,14 L68.1370223,14 C68.1615132,14 67.9894156,14.0791304 68.0127356,14.0517971 L65.2139089,17.3322925 L65.6355692,18.3599776 C66.0495612,19.3689731 66.0343692,20.7585392 65.6002616,21.7623607 L65.1360778,22.8357297 C65.1252527,22.8607615 65.121905,23.1265352 65.1292698,23.1447682 L66.3962486,26.28145 C66.9031872,27.5364867 66.5878682,29.1089323 65.6442993,30.0729187 L60.1304979,35.7060311 C60.108823,35.7281751 60,35.993358 60,36.0169816 L60,58 L76,58 L76,14 Z M38,20.5358866 L38,19.9989566 C38,19.4472481 38.4530363,19 38.9970301,19 L45.0029699,19 C45.5536144,19 46,19.4426603 46,19.9989566 L46,20.5341844 C47.195506,21.2257825 48,22.5194283 48,24.0002124 L48,59.0008579 C48,59.5526688 47.544239,60 46.9975267,60 L37.0024733,60 C36.4488226,60 36,59.5450757 36,59.0008579 L36,24.0002124 C36,22.5200894 36.8063726,21.2277214 38,20.5358866 Z M63.2796804,17.8869424 C63.0702044,17.3764004 63.1914028,16.62143 63.5434269,16.2088238 L66.4912411,12.7537006 C66.8463802,12.3374433 67.5736842,12 68.1370223,12 L76.9972551,12 C77.5510558,12 78,12.4432618 78,12.9967825 L78,58.0025078 C78,59.1056923 77.1017876,60 76.0092049,60 L59.9907951,60 C58.8913093,60 58,59.1101736 58,58.005042 L58,36.0169816 C58,35.4682623 58.3151493,34.7014688 58.7012292,34.3070347 L64.2150306,28.6739223 C64.6023088,28.278264 64.7512927,27.5491078 64.5418146,27.0304991 L63.2748358,23.8938173 C63.0680354,23.3818381 63.0761667,22.560336 63.3003788,22.0418725 L63.7645626,20.9685035 C63.98547,20.4576818 63.9940605,19.6280544 63.7852611,19.1191611 L63.2796804,17.8869424 Z M46,58 L46,24.0002124 C46,22.8956559 45.1054923,22 44.0041738,22 L39.9958262,22 C38.8983993,22 38,22.8982165 38,24.0002124 L38,58 L46,58 Z M0,6.9968516 C0,5.89402091 0.885772705,5 1.99197149,5 L11.5080285,5 C12.608164,5 14.1787188,5.5849924 15.0223794,6.31214919 L25.4776206,15.323593 C26.3184075,16.048273 27,17.522505 27,18.644607 L27,57.9911352 C27,59.1006006 26.1016617,60 24.9926701,60 L2.00732994,60 C0.898712226,60 0,59.1076847 0,58.0031484 L0,6.9968516 Z M2,7 L2,58.0031484 C2,57.9999103 24.9926701,58 24.9926701,58 C24.996563,58 25,18.644607 25,18.644607 C25,18.1096153 24.5758022,17.1866757 24.1718823,16.8385344 L13.7166411,7.82709058 C13.2362771,7.41306163 12.1291487,7 11.5080285,7 L2,7 Z"/></g></svg>