<svg xmlns="http://www.w3.org/2000/svg" viewBox="0 0 165 115"><g fill="none"><path fill="#1692D0" d="M160 23v4h-13v-4h-6.5c-.553 0-1-.455-1.001-.994l-.006-7.995a.999.999 0 0 0-.671-.939l.006.035c.247 1.264.247 2.943-.129 5.06a18.213 18.213 0 0 1-.657 2.64c-.438 1.295-.932 2.153-1.389 2.655-.682.858-1.871 1.463-3.009 1.531-.036.003-.18.007-.215.007h.215c-.036 0-.18-.004-.215-.007-2.141-.131-3.149-2.22-1.853-3.863l.136-.156c.166-.17.484-.582.817-1.193a7.42 7.42 0 0 0 .797-2.255c.237-1.333.237-2.602.096-3.686a6.056 6.056 0 0 0-.077-.483l-.078-.34h-2.164l-2.202-2.943h-4.877a3.023 3.023 0 0 1-3.018-2.997L121 6.004a2.984 2.984 0 0 1 2.988-2.998h5.065l1.49-2.184C130.852.368 131.549 0 132.11 0h23.676c.556 0 1.403.22 1.885.488l6.45 3.584c.486.27.879.944.879 1.48v16.457a.992.992 0 0 1-1 .991h-4zm-26 13.657l1.882-.657c.063.158.22.474.487.895a10.147 10.147 0 0 0 1.807 2.112c2.168 1.938 5.16 3.104 9.16 3.104 3.992 0 6.325-.478 9.19-1.583.203-.078 1.11-.435 1.358-.53 2.183-.838 3.787-1.194 6.116-1.194v1.89c-2.039 0-3.398.301-5.358 1.053-.237.091-1.142.447-1.354.53C154.19 43.47 151.603 44 147.336 44c-4.525 0-8.008-1.357-10.543-3.623-1.534-1.372-2.412-2.754-2.793-3.72zM76 55.582l1.536-1.25c.088.097.288.29.596.547.528.441 1.16.885 1.893 1.3 2.102 1.192 4.58 1.907 7.428 1.907 2.666 0 3.893-.488 5.602-1.823l.332-.26C95.224 54.561 96.535 54 99 54v1.914c-1.924 0-2.812.38-4.317 1.56l-.334.263C92.3 59.338 90.634 60 87.453 60c-3.236 0-6.069-.817-8.472-2.18-1.452-.823-2.449-1.655-2.981-2.238zM0 23.665L1.586 22.4c.028.038.096.123.204.249.186.218.411.464.675.73.76.768 1.67 1.54 2.726 2.26 3.448 2.353 7.582 3.618 12.4 3.225 4.087-.334 6.352-1.151 10.227-3.258l.382-.207C32.804 22.896 35.63 22 41 22v2.065c-4.998 0-7.524.801-11.863 3.16l-.382.208c-4.096 2.226-6.6 3.13-11.005 3.49-5.293.431-9.864-.968-13.667-3.563a20.568 20.568 0 0 1-3.023-2.507C.543 24.33.19 23.917 0 23.665zM83 27c0-1.105.9-2 1.992-2h7.016c1.1 0 1.992.89 1.992 2v15H83V27zm9 13V27.004c0-.002-7-.004-7-.004.007 0 .003 13 .003 13h6.996zM4 2.003C4 .897 4.902 0 5.995 0h17.01C24.107 0 25 .894 25 2.003V13H4V2.003zM23 11V2.003C23 2 6 2 6 2c.01 0 .005 9 .005 9H23zm126 14h9v-2h-9v2zm6.786-22.949H132.11c.06-.008.066-.024.085-.051l-2.085 3.05h-6.122a.983.983 0 0 0-.988.983l.006 1.07a1.022 1.022 0 0 0 1.019 1.006h5.877l2.202 2.936h6.393a2.995 2.995 0 0 1 2.995 2.984l.006 6.971H163V5.778l-6.3-3.49c-.186-.104-.699-.237-.914-.237zm-22.609 20.197c-.324.392-.193.712.307.752.565-.042 1.242-.382 1.55-.796 0 0 1.054-.968 1.685-4.354.632-3.385 0-4.85 0-4.85h-1.33s.51 2.118 0 4.85c-.509 2.733-2.212 4.398-2.212 4.398z"/><path fill="#39393A" d="M142.79 27c.037 0-6.428 7.512-6.428 7.512-.592.7-.828 2.187-.482 3.038l.388.954c.83 2.037.804 5.068-.06 7.082l-.296.688c-.442 1.03-.466 2.961-.05 4l2.013 5.019c.901 2.25.325 5.303-1.342 7.07l-10.018 10.619c-.78.826-1.51 2.661-1.51 3.803v36.213L163 113c-.007 0-.006-86-.006-86h-20.203zM80 45v-3.997c0-.554.455-1.003 1-1.003h15c.552 0 1 .46 1 1.003V45c2.21.002 4 1.784 4 3.99v65.02c0 .547-.455.99-.995.99h-23.01a.995.995 0 0 1-.995-.99V48.99c0-2.203 1.796-3.988 4-3.99zm54.023-6.696c-.627-1.54-.265-3.816.808-5.083l6.322-7.465c.354-.417 1.083-.756 1.638-.756h21.212c.55 0 .997.442.997.995v86.999a2.003 2.003 0 0 1-1.997 2.006h-38.006c-1.103 0-1.997-.9-1.997-2.002V76.785c0-1.655.927-3.98 2.054-5.174l10.02-10.62c1.134-1.201 1.551-3.43.94-4.955l-2.012-5.018c-.615-1.535-.582-4.017.068-5.532l.295-.688c.653-1.52.676-3.997.047-5.541l-.389-.953zM82 45h13v-3H82v3zM0 13.008C0 11.898.9 11 2.004 11h24.492c1.107 0 2.68.586 3.516 1.31l25.476 22.076c.835.724 1.512 2.2 1.512 3.31V113c0 1.105-.895 2-1.995 2H1.995C.893 115 0 114.1 0 112.992V13.008zm55 24.688c0-.527-.424-1.453-.822-1.799L28.705 13.822c-.472-.409-1.58-.822-2.207-.822H2.008l-.003 99.992C2.005 113 55 113 55 113V37.696zM99 113V48.99c0-1.1-.894-1.99-2.003-1.99H80.003A2 2 0 0 0 78 48.99V113h21z"/></g></svg>