<svg xmlns="http://www.w3.org/2000/svg" viewBox="0 0 112 68"><g fill="none" fill-rule="evenodd" transform="translate(0.000000, 5.000000)"><path fill="#1692D0" d="M20.5,53.0714286 C19.9871642,53.0714286 19.5714286,52.655693 19.5714286,52.1428571 C19.5714286,51.6300213 19.9871642,51.2142857 20.5,51.2142857 C21.0128358,51.2142857 21.4285714,51.6300213 21.4285714,52.1428571 C21.4285714,52.655693 21.0128358,53.0714286 20.5,53.0714286 Z M10.6785714,48.6557377 C9.90931767,48.6557377 9.28571429,48.0282024 9.28571429,47.2540984 C9.28571429,46.4799943 9.90931767,45.852459 10.6785714,45.852459 C11.4478252,45.852459 12.0714286,46.4799943 12.0714286,47.2540984 C12.0714286,48.0282024 11.4478252,48.6557377 10.6785714,48.6557377 Z M32.7857143,39.3114754 C32.2728784,39.3114754 31.8571429,38.8931185 31.8571429,38.3770492 C31.8571429,37.8609798 32.2728784,37.442623 32.7857143,37.442623 C33.2985501,37.442623 33.7142857,37.8609798 33.7142857,38.3770492 C33.7142857,38.8931185 33.2985501,39.3114754 32.7857143,39.3114754 Z M28.7857143,33.3114754 C28.2728784,33.3114754 27.8571429,32.8931185 27.8571429,32.3770492 C27.8571429,31.8609798 28.2728784,31.442623 28.7857143,31.442623 C29.2985501,31.442623 29.7142857,31.8609798 29.7142857,32.3770492 C29.7142857,32.8931185 29.2985501,33.3114754 28.7857143,33.3114754 Z M22.4285714,44.9836066 C21.4028998,44.9836066 20.5714286,44.1468928 20.5714286,43.1147541 C20.5714286,42.0826154 21.4028998,41.2459016 22.4285714,41.2459016 C23.4542431,41.2459016 24.2857143,42.0826154 24.2857143,43.1147541 C24.2857143,44.1468928 23.4542431,44.9836066 22.4285714,44.9836066 Z M16.4285714,39.9836066 C15.4028998,39.9836066 14.5714286,39.1468928 14.5714286,38.1147541 C14.5714286,37.0826154 15.4028998,36.2459016 16.4285714,36.2459016 C17.4542431,36.2459016 18.2857143,37.0826154 18.2857143,38.1147541 C18.2857143,39.1468928 17.4542431,39.9836066 16.4285714,39.9836066 Z M6.03571429,40.2459016 C5.26646053,40.2459016 4.64285714,39.6183663 4.64285714,38.8442623 C4.64285714,38.0701583 5.26646053,37.442623 6.03571429,37.442623 C6.80496804,37.442623 7.42857143,38.0701583 7.42857143,38.8442623 C7.42857143,39.6183663 6.80496804,40.2459016 6.03571429,40.2459016 Z M11.0357143,34.2459016 C10.2664605,34.2459016 9.64285714,33.6183663 9.64285714,32.8442623 C9.64285714,32.0701583 10.2664605,31.442623 11.0357143,31.442623 C11.804968,31.442623 12.4285714,32.0701583 12.4285714,32.8442623 C12.4285714,33.6183663 11.804968,34.2459016 11.0357143,34.2459016 Z M29.9285714,46.7868852 C29.4157356,46.7868852 29,46.3685284 29,45.852459 C29,45.3363897 29.4157356,44.9180328 29.9285714,44.9180328 C30.4414073,44.9180328 30.8571429,45.3363897 30.8571429,45.852459 C30.8571429,46.3685284 30.4414073,46.7868852 29.9285714,46.7868852 Z M53.8571429,51.5245902 C53.344307,51.5245902 52.9285714,51.1062333 52.9285714,50.5901639 C52.9285714,50.0740946 53.344307,49.6557377 53.8571429,49.6557377 C54.3699787,49.6557377 54.7857143,50.0740946 54.7857143,50.5901639 C54.7857143,51.1062333 54.3699787,51.5245902 53.8571429,51.5245902 Z M65.4642857,42.1147541 C64.695032,42.1147541 64.0714286,41.4872188 64.0714286,40.7131148 C64.0714286,39.9390107 64.695032,39.3114754 65.4642857,39.3114754 C66.2335395,39.3114754 66.8571429,39.9390107 66.8571429,40.7131148 C66.8571429,41.4872188 66.2335395,42.1147541 65.4642857,42.1147541 Z M60.8214286,47.7868852 C60.0521748,47.7868852 59.4285714,47.1593499 59.4285714,46.3852459 C59.4285714,45.6111419 60.0521748,44.9836066 60.8214286,44.9836066 C61.5906823,44.9836066 62.2142857,45.6111419 62.2142857,46.3852459 C62.2142857,47.1593499 61.5906823,47.7868852 60.8214286,47.7868852 Z M61.2857143,55 C60.7728784,55 60.3571429,54.5842644 60.3571429,54.0714286 C60.3571429,53.5585927 60.7728784,53.1428571 61.2857143,53.1428571 C61.7985501,53.1428571 62.2142857,53.5585927 62.2142857,54.0714286 C62.2142857,54.5842644 61.7985501,55 61.2857143,55 Z M58.5,38.3770492 C57.9871642,38.3770492 57.5714286,37.9586923 57.5714286,37.442623 C57.5714286,36.9265536 57.9871642,36.5081967 58.5,36.5081967 C59.0128358,36.5081967 59.4285714,36.9265536 59.4285714,37.442623 C59.4285714,37.9586923 59.0128358,38.3770492 58.5,38.3770492 Z M69.6428571,51.5245902 C69.1300213,51.5245902 68.7142857,51.1062333 68.7142857,50.5901639 C68.7142857,50.0740946 69.1300213,49.6557377 69.6428571,49.6557377 C70.155693,49.6557377 70.5714286,50.0740946 70.5714286,50.5901639 C70.5714286,51.1062333 70.155693,51.5245902 69.6428571,51.5245902 Z M56.6168958,30.4403936 L57.8215415,28.8438885 C57.9373137,28.9312446 58.0358822,29.0306606 58.1299605,29.1458678 C58.2147804,29.2497372 58.5954503,29.8224356 58.7146034,29.9610838 C59.1053475,30.4157587 59.6490962,30.6619161 60.6856516,30.6619161 C61.4331351,30.6619161 61.9191008,30.4579794 62.4917162,30.0010609 C62.5520378,29.9529272 62.6138886,29.9018558 62.6920921,29.8359472 C62.7943817,29.7493474 62.8582036,29.6952473 62.9007531,29.6595427 C63.0918062,29.4992242 63.2311468,29.3907497 63.3838682,29.2901022 C64.0731985,28.835815 64.8050132,28.7606922 65.5881175,29.1689594 L64.6635355,30.9424159 C64.5618764,30.8894165 64.5971146,30.8857992 64.4844204,30.9600677 C64.3664248,31.03783 63.7351188,31.5675782 63.7391514,31.5643604 C62.8386453,32.2829194 61.935525,32.6619161 60.6856516,32.6619161 C59.070003,32.6619161 57.9710399,32.1644107 57.1977773,31.2646322 C56.9762569,31.0068681 56.5768536,30.4059864 56.5808464,30.4108759 C56.5803692,30.4102915 56.5903708,30.4203792 56.6168958,30.4403936 Z M5.40011854,27.5997199 L6.60476428,26.0032148 C7.25353948,26.4927492 8.05789484,26.9437014 9.1777895,27.3213332 C10.8624139,27.8893934 12.8395672,28.1132865 15.135393,27.867265 C16.7076022,27.6987864 17.8086087,27.3278442 20.127064,26.3185464 L20.183916,26.2937957 C24.4314148,24.4446177 28.2833137,24.3227294 32.4391908,25.2581741 L32,27.2093562 C28.3401932,26.3855718 24.8762662,26.4322652 20.9822538,28.1275505 L20.9253634,28.152318 C18.4305095,29.2384077 17.1804553,29.6595659 15.3484937,29.8558796 C12.7627737,30.1329663 10.4950791,29.8761723 8.53873771,29.2164883 C7.19724674,28.7641336 6.20911382,28.2101487 5.40011854,27.5997199 Z M13,1 C13,0.44771525 13.4474894,0 13.9985023,0 L25.0014977,0 C25.5529553,0 26,0.443864822 26,1 C26,1.55228475 25.5525106,2 25.0014977,2 L13.9985023,2 C13.4470447,2 13,1.55613518 13,1 Z M56.0435791,9.09425779 C56.0435791,8.57581031 56.4689045,8.15552558 56.9748042,8.15552558 L65.0108351,8.15552558 C65.5251365,8.15552558 65.9420602,8.57219579 65.9420602,9.09425779 C65.9420602,9.61270528 65.5167348,10.03299 65.0108351,10.03299 L56.9748042,10.03299 C56.4605028,10.03299 56.0435791,9.6163198 56.0435791,9.09425779 Z"/><path fill="#39393A" fill-rule="nonzero" d="M22,20 L22,2 L24,2 L24,22 L15,22 L15,2 L17,2 L17,20 L22,20 Z M24,20.5320386 C32.6001,22.6020271 39,30.4618211 39,39.6823159 C39,50.4515764 30.328048,59 19.5584954,59 C8.78894279,59 0,50.4515764 0,39.6823159 C0,30.4618211 6.39990001,22.6020271 15,20.5320386 L15,2 L17,2 L17,20 L22,20 L22,2 L24,2 L24,20.5320386 Z M19.558859,57 C29.2519908,57 37,49.3201596 37,39.6834492 C37,29.9776115 29.1241959,22 19.5,22 C9.87580411,22 2,29.9776115 2,39.6834492 C2,49.2940036 9.83910187,57 19.558859,57 Z"/><path stroke="#39393A" stroke-width="2" d="M63.9829973,10.5336435 C63.9829973,10.9509298 63.9829973,11.5180396 63.9829973,13.4845256 C63.9829973,16.3806647 63.9829973,16.3806647 63.9829973,19.7579613 C63.9829973,24.3116833 63.9829973,24.3116833 63.9829973,27.6859561 L63.9829973,27.8993833 L64.0701306,28.0942139 L76.1301831,55.0605612 C77.0264918,56.917069 76.250475,58.1610157 74.224932,58.1610157 L48.1497154,58.1610157 C46.123537,58.1610157 45.3220168,56.8974069 46.1845872,55.0614587 L57.9187206,28.0848166 L58.001709,27.8940198 L58.001709,27.6859561 L58.001709,11.0169678 L63.9829973,11.0169678 L63.9829973,10.5336435 Z"/></g></svg>