<svg xmlns="http://www.w3.org/2000/svg" viewBox="0 0 204 115"><g fill="none" fill-rule="evenodd" transform="translate(-906.000000, -177.000000) translate(906.000000, 177.000000)"><path fill="#1692D0" d="M81.3928571,105.790816 C80.3305543,105.790816 79.4693878,104.92965 79.4693878,103.867347 C79.4693878,102.805044 80.3305543,101.943878 81.3928571,101.943878 C82.45516,101.943878 83.3163265,102.805044 83.3163265,103.867347 C83.3163265,104.92965 82.45516,105.790816 81.3928571,105.790816 Z M62.1196939,94.631007 C61.0786371,94.631007 60.2346939,93.7817426 60.2346939,92.7341218 C60.2346939,91.686501 61.0786371,90.8372365 62.1196939,90.8372365 C63.1607506,90.8372365 64.0046939,91.686501 64.0046939,92.7341218 C64.0046939,93.7817426 63.1607506,94.631007 62.1196939,94.631007 Z M100.627551,77.2880562 C99.5652482,77.2880562 98.7040816,76.4214598 98.7040816,75.352459 C98.7040816,74.2834582 99.5652482,73.4168618 100.627551,73.4168618 C101.689854,73.4168618 102.55102,74.2834582 102.55102,75.352459 C102.55102,76.4214598 101.689854,77.2880562 100.627551,77.2880562 Z M94.4132653,64.8594848 C93.3509625,64.8594848 92.4897959,63.9928884 92.4897959,62.9238876 C92.4897959,61.8548868 93.3509625,60.9882904 94.4132653,60.9882904 C95.4755681,60.9882904 96.3367347,61.8548868 96.3367347,62.9238876 C96.3367347,63.9928884 95.4755681,64.8594848 94.4132653,64.8594848 Z M81.3143878,82.9369195 C80.2954224,82.9369195 79.4693878,82.1056766 79.4693878,81.0802865 C79.4693878,80.0548963 80.2954224,79.2236534 81.3143878,79.2236534 C82.3333532,79.2236534 83.1593878,80.0548963 83.1593878,81.0802865 C83.1593878,82.1056766 82.3333532,82.9369195 81.3143878,82.9369195 Z M66.8143878,78.6512052 C65.7954224,78.6512052 64.9693878,77.8199623 64.9693878,76.7945722 C64.9693878,75.769182 65.7954224,74.9379391 66.8143878,74.9379391 C67.8333532,74.9379391 68.6593878,75.769182 68.6593878,76.7945722 C68.6593878,77.8199623 67.8333532,78.6512052 66.8143878,78.6512052 Z M52.5023469,77.2106323 C51.4612902,77.2106323 50.6173469,76.3613679 50.6173469,75.3137471 C50.6173469,74.2661263 51.4612902,73.4168618 52.5023469,73.4168618 C53.5434037,73.4168618 54.3873469,74.2661263 54.3873469,75.3137471 C54.3873469,76.3613679 53.5434037,77.2106323 52.5023469,77.2106323 Z M58.2166326,63.7757557 C57.4517183,63.7757557 56.8316327,63.1517603 56.8316327,62.382023 C56.8316327,61.6122858 57.4517183,60.9882904 58.2166326,60.9882904 C58.981547,60.9882904 59.6016326,61.6122858 59.6016326,62.382023 C59.6016326,63.1517603 58.981547,63.7757557 58.2166326,63.7757557 Z M96.7806122,92.7728337 C95.7183094,92.7728337 94.8571429,91.9062373 94.8571429,90.8372365 C94.8571429,89.7682357 95.7183094,88.9016393 96.7806122,88.9016393 C97.8429151,88.9016393 98.7040816,89.7682357 98.7040816,90.8372365 C98.7040816,91.9062373 97.8429151,92.7728337 96.7806122,92.7728337 Z M152.561224,100.515222 C151.498922,100.515222 150.637755,99.6486261 150.637755,98.5796253 C150.637755,97.5106245 151.498922,96.6440281 152.561224,96.6440281 C153.623527,96.6440281 154.484694,97.5106245 154.484694,98.5796253 C154.484694,99.6486261 153.623527,100.515222 152.561224,100.515222 Z M175.104388,80.0755215 C174.339473,80.0755215 173.719388,79.4515261 173.719388,78.6817889 C173.719388,77.9120516 174.339473,77.2880562 175.104388,77.2880562 C175.869302,77.2880562 176.489388,77.9120516 176.489388,78.6817889 C176.489388,79.4515261 175.869302,80.0755215 175.104388,80.0755215 Z M165.987041,90.7598126 C164.945984,90.7598126 164.102041,89.9105482 164.102041,88.8629274 C164.102041,87.8153066 164.945984,86.9660422 165.987041,86.9660422 C167.028098,86.9660422 167.872041,87.8153066 167.872041,88.8629274 C167.872041,89.9105482 167.028098,90.7598126 165.987041,90.7598126 Z M167.94898,105.642857 C166.886677,105.642857 166.02551,104.781691 166.02551,103.719388 C166.02551,102.657085 166.886677,101.795918 167.94898,101.795918 C169.011282,101.795918 169.872449,102.657085 169.872449,103.719388 C169.872449,104.781691 169.011282,105.642857 167.94898,105.642857 Z M162.178571,75.352459 C161.116269,75.352459 160.255102,74.4858626 160.255102,73.4168618 C160.255102,72.347861 161.116269,71.4812646 162.178571,71.4812646 C163.240874,71.4812646 164.102041,72.347861 164.102041,73.4168618 C164.102041,74.4858626 163.240874,75.352459 162.178571,75.352459 Z M185.260204,100.515222 C184.197901,100.515222 183.336735,99.6486261 183.336735,98.5796253 C183.336735,97.5106245 184.197901,96.6440281 185.260204,96.6440281 C186.322507,96.6440281 187.183673,97.5106245 187.183673,98.5796253 C187.183673,99.6486261 186.322507,100.515222 185.260204,100.515222 Z M13.2602041,106.515222 C12.1979013,106.515222 11.3367347,105.648626 11.3367347,104.579625 C11.3367347,103.510624 12.1979013,102.644028 13.2602041,102.644028 C14.3225069,102.644028 15.1836735,103.510624 15.1836735,104.579625 C15.1836735,105.648626 14.3225069,106.515222 13.2602041,106.515222 Z M9.26020408,94.5152225 C8.19790127,94.5152225 7.33673469,93.6486261 7.33673469,92.5796253 C7.33673469,91.5106245 8.19790127,90.6440281 9.26020408,90.6440281 C10.3225069,90.6440281 11.1836735,91.5106245 11.1836735,92.5796253 C11.1836735,93.6486261 10.3225069,94.5152225 9.26020408,94.5152225 Z M11.5867347,80.159791 C10.8963788,80.159791 10.3367347,79.5966183 10.3367347,78.9019096 C10.3367347,78.2072008 10.8963788,77.6440281 11.5867347,77.6440281 C12.2770906,77.6440281 12.8367347,78.2072008 12.8367347,78.9019096 C12.8367347,79.5966183 12.2770906,80.159791 11.5867347,80.159791 Z M10.0867347,66.1660962 C9.12023638,66.1660962 8.33673469,65.3776544 8.33673469,64.4050622 C8.33673469,63.4324699 9.12023638,62.6440281 10.0867347,62.6440281 C11.053233,62.6440281 11.8367347,63.4324699 11.8367347,64.4050622 C11.8367347,65.3776544 11.053233,66.1660962 10.0867347,66.1660962 Z M9.58673469,46.159791 C8.89637876,46.159791 8.33673469,45.5966183 8.33673469,44.9019096 C8.33673469,44.2072008 8.89637876,43.6440281 9.58673469,43.6440281 C10.2770906,43.6440281 10.8367347,44.2072008 10.8367347,44.9019096 C10.8367347,45.5966183 10.2770906,46.159791 9.58673469,46.159791 Z M13.1308813,58.6629436 C12.3024541,58.6629436 11.6308813,57.9871364 11.6308813,57.1534859 C11.6308813,56.3198354 12.3024541,55.6440281 13.1308813,55.6440281 C13.9593084,55.6440281 14.6308813,56.3198354 14.6308813,57.1534859 C14.6308813,57.9871364 13.9593084,58.6629436 13.1308813,58.6629436 Z M50.8313058,52.1727206 L52.0359515,50.5762155 C53.4656752,51.655016 55.2302921,52.6443274 57.6687862,53.4665947 C61.303928,54.692375 65.555107,55.1737791 70.4660466,54.647521 C73.3943328,54.3337247 76.0724339,53.5565681 80.0431643,52.0240149 C80.3797498,51.8941055 80.7312867,51.7569275 81.1544936,51.5906285 C81.4066627,51.4915387 82.3184084,51.1321837 82.2739342,51.1496976 C91.923143,47.349848 97.3298399,46.360213 105.636588,48.2299754 L105.197397,50.1811574 C97.3705735,48.4194211 92.3161341,49.3445793 83.0067573,53.0106034 C83.05211,52.9927435 82.1392485,53.3525384 81.8859475,53.4520729 C81.4592741,53.6197341 81.1041625,53.758307 80.7633116,53.8898627 C76.6432324,55.4800589 73.8187459,56.299695 70.6791473,56.6361356 C65.4783135,57.1934589 60.9365932,56.6791539 57.0297344,55.3617497 C54.369644,54.4647595 52.4212495,53.3724154 50.8313058,52.1727206 Z M4.08835017,28.3314696 C9.82266643,30.4706011 13.5864211,31.4135964 18.1067194,31.1875025 C19.0257623,31.1415343 18.4190928,31.475348 18.4324951,31.9943873 C18.4454147,32.4947295 19.1139025,33.1795054 18.1067194,33.2145864 C13.7559199,33.3661281 9.72129724,32.4890653 4.45046362,30.5940873 C3.44063576,30.2310325 3.4176536,28.0812727 4.08835017,28.3314696 Z M158.141574,57.8060651 L159.346219,56.2095599 C159.694361,56.4722507 160.93963,58.0622189 161.320992,58.4415206 C162.616713,59.7302383 164.249912,60.4425405 166.705993,60.4425405 C168.534066,60.4425405 169.832594,59.9018291 171.352244,58.7510892 C171.59202,58.569521 172.377552,57.9455269 172.41116,57.9193547 C172.844636,57.5817847 173.174135,57.3503567 173.513709,57.1587818 C174.620084,56.5346072 175.704103,56.4654602 176.872691,57.0746975 L175.948109,58.848154 C175.413726,58.569556 175.041274,58.5933138 174.49643,58.9006944 C174.260773,59.0336429 174.002118,59.2153131 173.639998,59.4973146 C173.622588,59.5108722 172.821483,60.1472376 172.559619,60.3455309 C170.721472,61.7374502 169.028184,62.4425405 166.705993,62.4425405 C163.706365,62.4425405 161.571453,61.5114215 159.910616,59.859561 C159.362435,59.314343 158.238322,57.8790665 158.141574,57.8060651 Z"/><path fill="#39393A" fill-rule="nonzero" d="M173.782301,55.0099127 L173.052598,52.9995006 L173.00354,25.0030518 L160.997559,25.0030518 L160.997559,52.9697266 L160.258038,54.9760559 L134.260827,110.339288 C133.710864,111.510522 134.032122,112.016602 135.328042,112.016602 L200.032084,112.016602 C201.316542,112.016602 201.599397,111.561746 201.032507,110.409095 L173.786428,55.009923 L173.782301,55.0099127 Z M175.00354,52.9528809 L202.827199,109.52644 C204.046822,112.006288 202.799573,114.016602 200.032084,114.016602 L135.328042,114.016602 C132.564719,114.016602 131.278604,111.984902 132.450471,109.489221 L158.997559,52.9528809 L158.997559,23.0030518 L175.00354,23.0030518 L175.00354,52.9528809 Z M89,38.2567469 C88.340084,38.0817995 87.6732493,37.9242779 87,37.7847141 L87,2 L72,2 L72,37.7124843 C71.3268861,37.8452212 70.6600531,37.9958825 70,38.163942 L70,0 L89,0 L89,38.2567469 Z M79.3214286,114.012695 C58.157088,114.012695 41,96.8434825 41,75.679716 C41,54.5159495 58.157088,37 79.3214286,37 C100.485769,37 117.642857,54.5159495 117.642857,75.679716 C117.642857,96.8434825 100.485769,114.012695 79.3214286,114.012695 Z M79.3214286,112.012695 C99.3786081,112.012695 115.642857,95.7415055 115.642857,75.679716 C115.642857,55.5462705 99.3077442,39 79.3214286,39 C59.335113,39 43,55.5462705 43,75.679716 C43,95.7415055 59.264249,112.012695 79.3214286,112.012695 Z M3,10 L19,10 L19,105.990481 C19,110.414016 15.4092877,114 11,114 C6.581722,114 3,110.420085 3,105.990481 L3,10 Z M5,105.990481 C5,109.313717 7.68449522,112 11,112 C14.3076382,112 17,109.306525 17,105.990481 L17,12 L5,12 L5,105.990481 Z"/><rect width="27" height="2" x="66" fill="#1692D0"/><rect width="22" height="2" y="10" fill="#1692D0"/><rect width="22" height="2" x="156" y="23" fill="#1692D0" rx="1"/></g></svg>