<svg xmlns="http://www.w3.org/2000/svg" viewBox="0 0 112 68"><g fill="none" fill-rule="nonzero"><path fill="#39393A" d="M85.3645301,44 C85.4649757,44 85.6139179,43.8684366 85.6255971,43.7744069 L85.6314266,43.7274734 C85.7261053,42.9652114 85.5531344,41.5757368 85.2732661,40.8559592 L83.2251575,35.5885446 C83.1224973,35.3245186 82.6490408,35 82.3732858,35 L62.8586708,35 C60.6241483,35 59.5288589,36.4833332 60.1882227,38.6262655 L61.8416794,44 L85.3645301,44 Z M4,61 L4,60.5 C4,59.1096621 5.11928813,58 6.5,58 L11,58 L11,47 L13,47 L13,58 L17.5,58 C18.8749111,58 20,59.1192881 20,60.5 L20,61 L18,61 L18,60.5 C18,60.2265755 17.7730614,60 17.5,60 L6.5,60 C6.21933359,60 6,60.2187502 6,60.5 L6,61 L4,61 Z M58.0757838,36.5942172 L62.5302734,33.8264974 C62.5302734,33.8264974 80.3779297,33.710612 80.7981771,33.7363281 C80.9705146,33.7468739 81.105791,32.952808 81.2054209,32.0122764 L100.212779,6.84181968 L100.303696,6.73733766 C100.412879,6.62815462 100.576004,6.49468929 100.792604,6.3647293 C101.706616,5.81632217 102.796895,5.81632217 103.71791,6.73733766 C104.638925,7.65835315 104.638925,8.74863203 104.090518,9.6626439 C103.988014,9.83348528 103.883328,9.97105873 103.790097,10.0751358 L88.8776493,31.4430204 C88.8103502,31.5600295 88.6857572,31.7900376 88.5230206,32.1137726 C88.2490594,32.6587689 87.9746208,33.2597509 87.718805,33.8969035 C87.1934455,35.2054006 86.8181083,36.4878788 86.6568533,37.6670007 C86.6087236,38.0189323 86.5805205,38.3569422 86.5729047,38.6795935 L87.1373149,40.1311682 C87.5375425,41.160491 87.7515884,42.8837785 87.6161754,43.9739942 L87.6103459,44.0209277 C87.4745856,45.1139392 86.4768005,46 85.3645301,46 L78.125,46 L79,60 L68,60 L68.875,46 L61.3676007,46 C60.8136201,46 60.231443,45.5674667 60.0704006,45.044079 L58.2766647,39.2144372 C57.9886084,38.2782543 57.932482,37.3904216 58.0757838,36.5942172 Z M60.7143338,29.4408193 L57.7756425,31.140625 L51.9975446,31.140625 C50.8948035,31.140625 50,30.2485068 50,29.1462837 L50,16 C50,15.4477153 50.4477153,15 51,15 C51.5522847,15 52,15.4477153 52,16 L52,29.140625 L60,29.140625 C60.2798373,29.140625 60.5328279,29.2555692 60.7143338,29.4408193 Z M74.0122082,28.9004101 L72.3406038,25 L67,25 C66.4477153,25 66,24.5522847 66,24 C66,23.4477153 66.4477153,23 67,23 L73.6593962,23 L76.2011707,28.9308073 L74.0122082,28.9004101 Z M85.8628122,33.1517253 C86.1407441,32.4594888 86.4381779,31.8081504 86.7360892,31.2155098 C86.9164761,30.8566627 87.058757,30.5940014 87.1906763,30.3722628 L102.190676,8.87226285 L102.303696,8.73733766 C102.305625,8.7354096 102.338826,8.69483019 102.375533,8.63365239 C102.493792,8.43655315 102.493792,8.34164685 102.303696,8.15155123 C102.113601,7.9614556 102.018695,7.9614556 101.821595,8.07971515 C101.790588,8.09831925 101.764873,8.11602291 101.746799,8.12921091 L82.8799711,33.1135713 C83.6517096,33.3256354 84.3706761,33.9365291 84.6550199,34.6706981 C84.7144135,34.8244048 84.8186205,35.0936528 84.9529149,35.4398991 C84.9786442,35.5062361 85.0043823,35.5725728 85.0301066,35.6388505 C85.2442738,34.8222165 85.5264185,33.9895708 85.8628122,33.1517253 Z M76.1210976,46 L70.8789024,46 L70.1289024,58 L76.8710976,58 L76.1210976,46 Z"/><path fill="#1692D0" d="M40.5093132,42.8707847 C40.0208705,43.1667663 39.8531777,43.819892 40.1421727,44.3218215 L40.5621022,45.0511595 C40.8318522,45.5196641 41.3893036,45.6629649 41.8493577,45.3818193 L62.1104167,33 L79.8180329,33 C80.363038,33 80.8111499,32.5492258 80.8111499,31.9907455 L80.8111499,31.0092545 C80.8111499,30.4543318 80.3565926,30 79.8049056,30 L61.749289,30 L40.5093132,42.8707847 Z M79.8180329,35 L62.6731506,35 L42.8922615,47.0883807 C41.4678793,47.9588408 39.6574312,47.4881642 38.8288651,46.049102 L38.4089356,45.319764 C37.5762977,43.8736297 38.0566883,42.0184554 39.4728233,41.1603203 L61.1906043,28 L79.8049056,28 C81.4586879,28 82.8111499,29.3472891 82.8111499,31.0092545 L82.8111499,31.9907455 C82.8111499,33.6503296 81.4710858,35 79.8180329,35 Z M87.2433896,15.4631246 L95.2405352,5.22724502 C96.4319348,3.7023231 98.6282357,3.42579189 100.156615,4.61989246 C101.681814,5.81150849 101.951099,8.00799937 100.75661,9.53687535 L92.7594648,19.772755 C91.5680652,21.2976769 89.3717643,21.5742081 87.8433852,20.3801075 C86.3181863,19.1884915 86.0489007,16.9920006 87.2433896,15.4631246 Z M89.0747082,18.804086 C89.7320689,19.3176725 90.6716306,19.1965225 91.1834433,18.541432 L99.1805889,8.3055524 C99.6965818,7.64511161 99.5781013,6.70594464 98.9252918,6.19591397 C98.2679311,5.68232747 97.3283694,5.80347751 96.8165567,6.45856798 L88.8194111,16.6944476 C88.3034182,17.3548884 88.4218987,18.2940554 89.0747082,18.804086 Z M40,4.00585866 C40,2.89805351 40.8896739,2 41.991155,2 L60.008845,2 C61.1085295,2 62,2.89706013 62,4.00585866 L62,13.9941413 C62,15.1019465 61.1103261,16 60.008845,16 L41.991155,16 C40.8914705,16 40,15.1029399 40,13.9941413 L40,4.00585866 Z M60.0021571,14 C60.0004783,13.999615 60,4.00585866 60,4.00585866 C60,4.00145221 41.9978429,4 41.9978429,4 C41.9995217,4.00038504 42,13.9941413 42,13.9941413 C42,13.9985478 60.0021571,14 60.0021571,14 Z M59.7834545,61.6021482 C60.7468833,59.6127367 63.3231286,58 65.5246877,58 L82.4934731,58 C84.7008399,58 87.0993878,59.6770622 87.8580153,61.7657442 L89.0512051,65.0508795 C89.2415936,65.5750643 88.9472153,66 88.3935249,66 L58.6560794,66 C58.1024642,66 57.8511201,65.5922804 58.0905623,65.0978492 L59.7834545,61.6021482 Z M86.5416814,64 L85.9781704,62.4485203 C85.5077939,61.153462 83.8626079,60 82.4934731,60 L65.5246877,60 C64.0878858,60 62.2119203,61.1761911 61.5834854,62.4738641 L60.8444109,64 L86.5416814,64 Z M24,43.5 C24,45.4290634 22.4318108,47 20.4973515,47 L3.50264853,47 C1.57470703,47 0,45.4329966 0,43.5 C0,41.5709366 1.56818916,40 3.50264853,40 L20.4973515,40 C22.425293,40 24,41.5670034 24,43.5 Z M22,43.5 C22,42.6747342 21.3238873,42 20.4973515,42 L3.50264853,42 C2.67412581,42 2,42.674139 2,43.5 C2,44.3252658 2.6761127,45 3.50264853,45 L20.4973515,45 C21.3258742,45 22,44.325861 22,43.5 Z M22,63 C22,64.6624925 20.6589257,66 19,66 C17.3375075,66 16,64.6589257 16,63 C16,61.3375075 17.3410743,60 19,60 C20.6624925,60 22,61.3410743 22,63 Z M8,63 C8,64.6624925 6.6589257,66 5,66 C3.3375075,66 2,64.6589257 2,63 C2,61.3375075 3.3410743,60 5,60 C6.6624925,60 8,61.3410743 8,63 Z M20,63 C20,62.4444532 19.5567289,62 19,62 C18.4444532,62 18,62.4432711 18,63 C18,63.5555468 18.4432711,64 19,64 C19.5555468,64 20,63.5567289 20,63 Z M6,63 C6,62.4444532 5.55672889,62 5,62 C4.4444532,62 4,62.4432711 4,63 C4,63.5555468 4.44327111,64 5,64 C5.5555468,64 6,63.5567289 6,63 Z"/></g></svg>