<svg xmlns="http://www.w3.org/2000/svg" viewBox="0 0 210 126"><g fill="none" fill-rule="nonzero" transform="translate(-901.000000, -206.000000) translate(901.000000, 206.000000)"><path fill="#39393A" d="M4,124 L64,124 L64,71 L4,71 L4,124 Z M129.044678,78.1137094 L129.044678,83.0031128 L131.551775,83.0031128 C131.676699,83.0031128 131.807329,83.0229267 131.937825,83.0591197 L131.353522,81.7806011 C129.444428,77.6032996 131.757522,74 136.349004,74 L173.774642,74 L182.593371,89.5126272 C182.464175,89.1148339 182.334251,88.7207753 182.203724,88.3311395 C181.581261,86.4730354 180.96852,84.7878327 180.37341,83.3171642 C180.333022,83.2173562 180.294054,83.1171876 180.256497,83.0166651 C178.867444,79.2987757 179.429767,75.372791 181.185587,71.606818 C181.55374,70.8171858 181.948276,70.0979151 182.343969,69.4614168 C182.58481,69.0740086 182.775921,68.7958762 182.90235,68.6266378 L206.981218,37.4449665 C207.325154,36.9995761 207.253447,36.3109408 206.821818,35.9444789 L206.440795,35.6209836 C206.025074,35.2680291 205.43459,35.3241316 205.097199,35.7446059 L182.465903,63.9416022 L174.890627,71.7284215 L173.457075,70.3338145 L180.969175,62.6184597 L203.537294,34.4929278 C204.579899,33.1935805 206.461347,33.0148223 207.735223,34.0963669 L208.116246,34.4198622 C209.363032,35.4784067 209.560713,37.3768619 208.564182,38.6673509 L184.495356,69.8357928 C184.411505,69.948189 184.252198,70.1800349 184.042502,70.5173462 C183.687298,71.0887139 183.330939,71.7383865 182.998255,72.4519432 C181.447889,75.7772456 180.959841,79.1846684 182.130008,82.3166963 C182.16128,82.4003978 182.193733,82.4838172 182.227373,82.5669524 C182.839276,84.0791179 183.465573,85.8016041 184.100141,87.6958417 C184.948653,90.228721 185.769892,92.9391191 186.533174,95.649057 C186.685314,96.1892113 186.828931,96.7074306 186.963303,97.1995754 L187.598713,98.3172966 C189.034195,100.842389 187.81145,103.478393 184.96181,104.002353 L183.968236,104.185041 L179.218535,105.862091 L156.53923,113.894291 L161.572118,119 L184.4977,119 C185.051255,119 185.74194,119.37635 186.042805,119.844364 L189.457195,125.155636 C189.756978,125.621966 189.558884,126 189.009586,126 L118.990414,126 C118.443424,126 118.24194,125.62365 118.542805,125.155636 L121.957195,119.844364 C122.256978,119.378034 122.95325,119 123.5023,119 L132,119 L132,111.003331 C132,107.687783 134.693348,105 138.007632,105 L141.764164,105 C142.140643,105 142.533326,105.024644 142.937076,105.071776 L142.86621,105.025688 L168.629645,95.0352783 L139.061668,95.0352783 C138.112442,95.0352783 137.118967,94.3960129 136.724479,93.5328316 L132.839678,85.0324707 L129.044678,85.0324707 L128.003752,85.0332642 C127.455193,85.0332642 127.010498,84.5778428 127.010498,84.0293934 L127.010498,79.2289013 C127.622433,78.8936393 128.396779,78.4690465 129.044678,78.1137094 Z M129.044678,71.0617629 L127.010498,72.1505412 L127.010498,39.0187988 L93.9984551,39.0187988 C92.8891095,39.0187988 91.9898071,38.1298338 91.9898071,37.0196483 L91.9898071,25.4701451 L93.9675063,25.4701451 L94.0395246,36.041774 C94.0433144,36.5980895 94.4874507,37.0490723 95.0509361,37.0490723 L127.010498,37.0490723 L127.010498,14 L127,14 L127,12 L127.010498,12 L127.010498,6.08503202 C127.010498,5.53749466 127.461948,5.09362793 128.003752,5.09362793 C128.599983,5.09362793 129.044678,5.54319549 129.044678,6.08989044 L129.044678,12 L146.008197,12 C146.555955,12 147,12.4438648 147,13 L147,13.5 L147,17.0415313 C147.000648,17.0412886 155.262182,17.0411377 155.262182,17.0411377 C156.0499,17.0411377 157.066654,17.4078068 157.667315,17.9100245 L161.64144,21.232827 L160.35856,22.767173 L156.384434,19.4443704 C156.14471,19.2439347 155.582364,19.0411377 155.262182,19.0411377 L147.002955,19.0411377 C145.891878,19.0411377 145,18.1505926 145,17.0451711 L145,14 L129.044678,14 L129.044678,71.0617629 Z M146.237426,105.863521 C148.455235,106.643206 150.609358,107.878618 151.97763,109.266688 L154.996437,112.293551 L178.321703,104.05774 L173.277002,95.3782558 L146.237426,105.863521 Z M2,70.0014031 C2,69.4483435 2.44286251,69 3.00528717,69 L64.9947128,69 C65.5499176,69 66,69.4422806 66,70.0014031 L66,126 L2,126 L2,70.0014031 Z M33,69 L35,69 L35,126 L33,126 L33,69 Z M136.349004,76 C133.214268,76 131.86865,78.0961823 133.172558,80.9492724 L138.543515,92.7015029 C138.612848,92.8532093 138.895799,93.0352783 139.061668,93.0352783 L174.228496,93.0352783 L179.955844,102.889268 L184.600135,102.035327 C186.094406,101.760577 186.616155,100.635786 185.860028,99.3057168 L172.611027,76 L136.349004,76 Z M150.553295,110.670708 C148.609033,108.698314 144.54514,107 141.764164,107 L138.007632,107 C135.796153,107 134,108.794116 134,111.003331 L134,119 L158.763789,119 L150.553295,110.670708 Z M184.360448,120.925879 C184.390452,120.972551 184.395945,120.992376 184.403883,121 C184.421172,121.006215 123.5023,121 123.5023,121 C123.604359,120.991799 123.610204,120.971531 123.639552,120.925879 L121.663331,124 L186.336669,124 L184.410402,121.003585 L184.360448,120.925879 Z M150,60 C149.447715,60 149,59.5522847 149,59 C149,58.4477153 149.447715,58 150,58 L164.860587,58 C165.802427,58 166.789783,58.6476461 167.168908,59.5060581 L171.039389,68.2695748 C171.262517,68.77478 171.033848,69.3652108 170.528643,69.5883389 C170.023438,69.811467 169.433007,69.5827984 169.209879,69.0775932 L165.339398,60.3140765 C165.279301,60.1780059 165.007926,60 164.860587,60 L150,60 Z M4,87 L4,89 L33,89 L33,87 L4,87 Z"/><path fill="#1692D0" d="M75.0410156,24.0598145 L112.980957,24.0598145 L112.980957,2.0456543 L75.0410156,2.0456543 L75.0410156,24.0598145 Z M73.0410156,2.04374657 C73.0410156,0.940230677 73.9363938,0.0456542969 75.0356515,0.0456542969 L112.986321,0.0456542969 C114.087928,0.0456542969 114.980957,0.941120573 114.980957,2.04374657 L114.980957,24.0617222 C114.980957,25.1652381 114.085579,26.0598145 112.986321,26.0598145 L75.0356515,26.0598145 C73.9340445,26.0598145 73.0410156,25.1643482 73.0410156,24.0617222 L73.0410156,2.04374657 Z M77.1063232,6.04004491 L77.1063232,20.1083926 C77.1063232,21.2154647 77.9988473,22.1118164 79.0998316,22.1118164 L109.003806,22.1118164 C110.108233,22.1118164 110.997314,21.214853 110.997314,20.1083926 L110.997314,6.04004491 C110.997314,4.93297284 110.10479,4.03662109 109.003806,4.03662109 L79.0998316,4.03662109 C77.9954047,4.03662109 77.1063232,4.93358449 77.1063232,6.04004491 Z M108.998034,20.1118164 C108.998034,20.1118164 79.1063232,20.1107568 79.1063232,20.1083926 C79.1063232,20.1083926 79.1060759,6.03714666 79.1056041,6.03662109 C79.1056041,6.03662109 108.997314,6.03768069 108.997314,6.04004491 C108.997314,6.04004491 108.997562,20.1112908 108.998034,20.1118164 Z M172.047937,75.9948349 L135.036249,75.9948349 L97.8117051,95.5294292 C95.8855498,96.5678312 93.4918522,95.8302456 92.4652317,93.8819856 C91.4386113,91.9337257 92.1678284,89.5125579 94.0939837,88.4741559 L133.061341,68 L172.047937,68 C174.230601,68 176,69.7897048 176,71.9974174 C176,74.2051301 174.230601,75.9948349 172.047937,75.9948349 Z M95.0430628,90.2346243 C94.085165,90.7510328 93.7181675,91.9695485 94.2346112,92.9496249 C94.7441908,93.9166753 95.9178179,94.2783126 96.8823465,93.7584711 L134.543345,73.9948349 L135.036249,73.9948349 L172.047937,73.9948349 C173.120891,73.9948349 174,73.1056369 174,71.9974174 C174,70.889198 173.120891,70 172.047937,70 L133.554775,70 L95.0430628,90.2346243 Z M197.442491,32.5126666 C198.701322,30.7334022 201.201176,30.2840626 203.026071,31.5090386 C204.850967,32.7340145 205.309853,35.1694325 204.051022,36.9486969 C203.133402,38.2456856 199.524945,42.7718141 193.864978,49.7706631 C193.793798,49.8586787 193.793798,49.8586787 193.722615,49.9466879 C191.455069,52.7501681 189.026317,55.742263 186.597778,58.7269692 C185.747849,59.7715423 184.958627,60.7406153 184.250313,61.6096573 C183.855619,62.0938499 183.855619,62.0938499 183.592386,62.4166244 C183.399934,62.6525557 183.399934,62.6525557 183.359149,62.7025313 C181.978708,64.3940454 179.453365,64.6761256 177.718637,63.3325751 C175.983908,61.9890246 175.696701,59.5286186 177.077142,57.8371045 C177.117229,57.7879849 177.117229,57.7879849 177.30892,57.552986 C177.571359,57.2311861 177.571359,57.2311861 177.965182,56.7480616 C178.672159,55.8806599 179.460004,54.9132772 180.308492,53.8704747 C182.732571,50.8912509 185.156706,47.9048434 187.418895,45.1079869 C187.48988,45.0202221 187.48988,45.0202221 187.56086,44.932454 C193.006881,38.1981604 196.676644,33.5951342 197.442491,32.5126666 Z M189.115959,46.190097 L189.044947,46.2779041 L188.97391,46.3657339 C186.798499,49.0553024 184.396871,52.0146985 181.859838,55.1327447 C181.044067,56.1353382 180.255443,57.1037459 179.515391,58.0117279 C179.231789,58.3596371 179.231789,58.3596371 179.089867,58.5337092 C178.995265,58.6497239 178.995265,58.6497239 178.858709,58.8171674 C178.686465,59.0283253 178.686465,59.0283253 178.645089,59.0790351 C177.95866,59.9201476 178.0958,61.0949829 178.943288,61.7513638 C179.822124,62.4320239 181.116409,62.2874525 181.809652,61.4379918 C181.86991,61.3641434 181.86991,61.3641434 182.042462,61.1526087 C182.179325,60.984788 182.179325,60.984788 182.273976,60.8687138 C182.415972,60.6945523 182.415972,60.6945523 182.700023,60.3460908 C183.440665,59.4373857 184.229959,58.4681549 185.046432,57.4646992 C187.585984,54.3435571 189.989758,51.3815143 192.167583,48.6889615 L192.23873,48.6009957 L192.309862,48.5130411 C198.206454,41.2215923 201.576789,36.9830268 202.418332,35.7935677 C203.025838,34.9349028 202.806421,33.7704032 201.911398,33.1696118 C200.984718,32.5475703 199.704998,32.7775952 199.075181,33.6677959 C198.292736,34.7737235 194.784916,39.1801306 189.115959,46.190097 Z M149,57 C149,56.4477153 149.454709,56 149.99996,56 L165.00004,56 C165.552303,56 166,56.4438648 166,57 C166,57.5522847 165.545291,58 165.00004,58 L149.99996,58 C149.447697,58 149,57.5561352 149,57 Z M154.809974,29.5041408 C153.606838,28.0702989 153.788224,25.9373363 155.235906,24.7225871 L163.873504,17.4747819 C165.311876,16.2678446 167.455689,16.4547049 168.656377,17.8856293 L170.115388,19.6244104 C170.512735,20.0979501 170.450065,20.8047016 169.968694,21.2086197 L157.8546,31.3735515 C157.376236,31.7749465 156.660966,31.7100674 156.268985,31.242922 L154.809974,29.5041408 Z M168.017184,20.2353161 L167.124288,19.1712045 C166.633444,18.5862385 165.751106,18.5101011 165.159079,19.0068708 L156.521481,26.254676 C155.92293,26.7569198 155.846431,27.6278938 156.342063,28.2185656 L157.234959,29.2826773 L168.017184,20.2353161 Z M1.13686838e-13,70 C1.13686838e-13,69.4477153 0.452212088,69 1.00071311,69 L66.9992869,69 C67.5519655,69 68,69.4438648 68,70 C68,70.5522847 67.5477879,71 66.9992869,71 L1.00071311,71 C0.448034522,71 1.13686838e-13,70.5561352 1.13686838e-13,70 Z M37,93 L39,93 L39,102 L37,102 L37,93 Z M28,94 L30,94 L30,101 L28,101 L28,94 Z"/></g></svg>