<svg xmlns="http://www.w3.org/2000/svg" viewBox="0 0 112 68"><g fill="none" fill-rule="nonzero"><path fill="#39393A" d="M35,25.4894389 L37,26.2568096 L37,66 L51,66 L51,31.6284048 L53,32.3957756 L53,39.0000067 C53.0017561,39.0000022 53.0035127,39 53.0052699,39 L89.9947301,39 C91.1022101,39 92,39.8919411 92,40.9999204 L92,66.0000796 C92,67.1046051 91.1055269,68 89.9947301,68 L52,68 L36,68 L0,68 L0,52.9907951 C0,51.8913093 0.896278629,51 2.00239962,51 L35,51 L35,25.4894389 Z M35,19.0105285 L35,2.99485885 C35,1.34084398 36.3529255,0 37.9925398,0 L50.0074602,0 C51.6601943,0 53,1.33647919 53,2.99485885 L53,25.8446497 L51,25.0853029 L51,2.99485885 C51,2.4426603 50.5572367,2 50.0074602,2 L37.9925398,2 C37.4519581,2 37,2.45094274 37,2.99485885 L37,19.7698753 L35,19.0105285 Z M89.9947301,66 C90.0004954,66 90,40.9999204 90,40.9999204 C90,40.9994375 53.0052699,41 53.0052699,41 C52.9995046,41 53,66 53,66 L89.9947301,66 Z M2,66 L35,66 L35,53 L2.00239962,53 C2.00107375,53 2,66 2,66 Z"/><path fill="#1692D0" d="M59.5794029,39 C59.3778803,38.0007661 59.2927649,36.9722837 59.3334877,35.9347776 L2.89472069,15.1711129 C0.823597614,14.4091526 -0.241331406,12.1043787 0.512701198,10.0326911 C1.26827124,7.95677952 3.56938308,6.89515235 5.63088184,7.65357198 L62.0891895,28.4244256 C65.4641908,24.1128726 71.3492782,22.2514784 76.7733634,24.225684 C82.8953617,26.4539091 86.3264775,32.8026299 85.074716,39 L83.0265085,39 C84.3166801,33.6336729 81.3991734,28.0376967 76.0893231,26.1050692 C70.3805662,24.0272516 64.0683003,26.9707095 61.9904827,32.6794665 C61.2240841,34.7851293 61.1408238,36.9728988 61.6274939,39 L59.5794029,39 Z M59.5774512,33.8934765 C59.7053443,33.2576873 59.8825095,32.6234665 60.1110975,31.9954262 C60.3477418,31.3452513 60.6308615,30.7254272 60.9553395,30.1383399 L4.94033695,9.53057698 C3.91438729,9.15313296 2.76762329,9.68495241 2.39208644,10.7167314 C2.01410625,11.7552234 2.5504615,12.9134064 3.58526558,13.294108 L59.5774512,33.8934765 Z M21,21.8319946 L21,26.2994457 C25.5920108,27.4210069 29,31.5625142 29,36.5 C29,42.2989899 24.2989899,47 18.5,47 C12.7010101,47 8,42.2989899 8,36.5 C8,31.5625142 11.4079892,27.4210069 16,26.2994457 L16,19.9925086 L18,20.728303 L18,26 L19,26 L19,21.1193848 L18.2778019,20.8305055 L21,21.8319946 Z M48,23.2410521 L46,22.5052577 L46,17 L42,17 L42,21.0336689 L40,20.2978745 L40,15 L48,15 L48,23.2410521 Z M48,31.7652191 L48,37 L40,37 L40,28.8220415 L42,29.5578359 L42,35 L46,35 L46,31.0294247 L48,31.7652191 Z M18.5,45 C23.1944204,45 27,41.1944204 27,36.5 C27,31.8055796 23.1944204,28 18.5,28 C13.8055796,28 10,31.8055796 10,36.5 C10,41.1944204 13.8055796,45 18.5,45 Z"/></g></svg>