<svg xmlns="http://www.w3.org/2000/svg" viewBox="0 0 156 115"><g fill="none" fill-rule="nonzero"><path fill="#39393A" d="M59,44.065618 L61,44.8217444 L61,113 L87,113 L87,54.651388 L89,55.4075145 L89,66 L151.009933,66 C153.765871,66 156,68.2327555 156,70.9907898 L156,110.00921 C156,112.765547 153.762974,115 151.009933,115 L88,115 L60,115 L4.00238037,115 C1.79192673,115 0,113.207805 0,110.998121 L0,90.0018785 C0,87.791702 1.79257854,86 4.00238037,86 L59,86 L59,44.065618 Z M59,32.1579645 L59,4.99681993 C59,2.23715248 61.2303666,0 64.0044356,0 L83.9955644,0 C86.7594379,0 89,2.24560429 89,4.99681993 L89,43.3336507 L87,42.588605 L87,4.99681993 C87,3.34741387 85.6521074,2 83.9955644,2 L64.0044356,2 C62.338406,2 61,3.3382525 61,4.99681993 L61,32.9030102 L59,32.1579645 Z M89,113 L151.009933,113 C152.65952,113 154,111.659863 154,110.00921 L154,70.9907898 C154,69.3379515 152.661928,68 151.009933,68 L89,68 L89,113 Z M59,88 L4.00238037,88 C2.89681643,88 2,88.8966031 2,90.0018785 L2,110.998121 C2,112.103388 2.89664833,113 4.00238037,113 L59,113 L59,88 Z"/><path fill="#1692D0" d="M31,78 C39.836556,78 47,70.836556 47,62 C47,53.163444 39.836556,46 31,46 C22.163444,46 15,53.163444 15,62 C15,70.836556 22.163444,78 31,78 Z M31,80 C21.0588745,80 13,71.9411255 13,62 C13,52.0588745 21.0588745,44 31,44 C40.9411255,44 49,52.0588745 49,62 C49,71.9411255 40.9411255,80 31,80 Z"/><path fill="#1692D0" d="M101.570669,66 C101.19736,64.3937038 101,62.7198999 101,61 C101,48.8497355 110.849736,39 123,39 C135.150264,39 145,48.8497355 145,61 C145,62.7198999 144.80264,64.3937038 144.429331,66 L142.369913,66 C142.781235,64.4019004 143,62.7264978 143,61 C143,49.954305 134.045695,41 123,41 C111.954305,41 103,49.954305 103,61 C103,62.7264978 103.218765,64.4019004 103.630087,66 L101.570669,66 Z M105.054256,48.2709848 C104.65881,48.8274889 104.288601,49.4031795 103.945298,49.9963875 L8.4833991,15.4021998 C6.25506498,14.5946796 3.78188907,15.6639229 2.82638018,17.794938 C2.15533482,20.0159911 3.32284784,22.3984209 5.53663595,23.2135643 L101.149743,58.4194618 C101.069867,59.1031146 101.021335,59.7963413 101.005622,60.4976668 L81,53.1313559 L81,62 L68,62 L68,48.3445993 L35,36.1936019 L35,44.4460328 C43.0159548,46.2649495 49,53.4336504 49,62 C49,71.9411255 40.9411255,80 31,80 C21.0588745,80 13,71.9411255 13,62 C13,53.4336504 18.9840452,46.2649495 27,44.4460328 L27,33.2479055 L4.84557063,25.0903778 C1.68352296,23.9260738 -0.00949827082,20.5529701 0.867061828,17.3712638 L1.06896293,16.8306381 C2.49477249,13.8482257 5.99686945,12.3738379 9.16481058,13.5218598 L68,34.84299 L68,26 L81,26 L81,39.554026 L105.054256,48.2709848 Z M29,44.1098576 C20.0000991,45.1047461 13,52.7348927 13,62 C13,71.9411255 21.0588745,80 31,80 C40.9411255,80 49,71.9411255 49,62 C49,52.7348927 41.9999009,45.1047461 33,44.1098576 L33,35.4571778 L29,33.9843296 L29,44.1098576 Z M79,38.8292512 L79,28 L70,28 L70,35.5677648 L79,38.8292512 Z M79,52.3949318 L70,49.0810234 L70,60 L79,60 L79,52.3949318 Z"/></g></svg>