<svg id="Layer_1" xmlns="http://www.w3.org/2000/svg" viewBox="0 0 112 68">
  <style>
    .st0{fill:#1692D0;} .st1{fill:#3C3C3C;}
  </style>
  <path class="st0" d="M102 23v27c0 .6.4 1 1 1s1-.4 1-1V23h-2zm-10 0v27c0 .6.4 1 1 1s1-.4 1-1l.2-27H92zM57.2 62c8.9 0 15.9-7 15.9-15.8 0-8.9-7.2-16.2-16-16.2s-16 7.3-16 16.2C41.2 55 48.3 62 57.2 62zm0 2c-9.9 0-18.1-7.9-18.1-17.8S47.2 28 57.2 28s18 8.2 18 18.2S67.1 64 57.2 64zM61 8v20.5c-1.1-.3-2.1-.4-3.2-.4L59 28V8h-4v20l1.6.1c-1.2 0-2.5.2-3.6.4V8h-1c-.6 0-1-.4-1-1s.5-1 1-1h10c.6 0 1 .4 1 1s-.5 1-1 1h-1zm35 15v27c0 1.7-1.3 3-3 3s-3-1.3-3-3l.2-27c-.6 0-1-.4-1-1s.5-1 1-1h6c.6 0 1 .4 1 1s-.5 1-1 1H96zm10 0v27c0 1.7-1.3 3-3 3s-3-1.3-3-3V23c-.6 0-1-.4-1-1s.5-1 1-1h6c.6 0 1 .4 1 1s-.5 1-1 1z"/>
  <path class="st1" d="M21 35.2V35 18c.5 0 1-.4 1-1s-.4-1-1-1h-8c-.5 0-1 .4-1 1s.4 1 1 1v17L1.1 59.5C-.1 62 1.2 64 3.9 64H30c2.8 0 4-2 2.8-4.5L21 35.2zm10.2 26.4c-.1.2-.5.4-1.2.4H3.9c-.7 0-1.1-.2-1.2-.4-.1-.2-.1-.6.2-1.3l11.9-24.8.2-.4V18h4c0 3.2.1 13.1.1 16.8v.7l.2.4L31 60.4c.3.6.3 1.1.2 1.2zM110.2 34H106v2h4.2v28h1.8V34zM84 34v30h2V36h4.1v-2h-3.9zM96 34h4v2h-4z"/>
</svg>