<svg xmlns="http://www.w3.org/2000/svg" viewBox="0 0 230 115"><g fill="none" fill-rule="evenodd"><path fill="#1692D0" fill-rule="nonzero" d="M111.892857,42 L124.321429,42 L124.321429,2 L111.892857,2 L111.892857,42 Z M126,43.9291027 L126,44 L110,44 L110,43.9791035 C94.5767095,47.6358325 83.1071429,61.4959796 83.1071429,78.0357143 C83.1071429,97.3699307 98.7771766,113.035714 118.107143,113.035714 C137.441359,113.035714 153.107143,97.3656805 153.107143,78.0357143 C153.107143,61.4162894 141.528737,47.5074268 126,43.9291027 Z M110.235107,41.9111528 L110.235107,1.13686838e-13 L125.892857,1.13686838e-13 L125.892857,41.892629 C142.569017,45.4668996 155.071429,60.2878686 155.071429,78.0357143 C155.071429,98.4505256 138.526443,115 118.107143,115 C97.6923316,115 81.1428571,98.4550142 81.1428571,78.0357143 C81.1428571,60.3219232 93.5994335,45.5183107 110.235107,41.9111528 Z M207,31 L219,31 L219,86.998845 C219,90.3131914 216.306966,93 213,93 C209.686292,93 207,90.3160373 207,86.998845 L207,31 Z M209,33 L209,86.998845 C209,89.2104244 210.789817,91 213,91 C215.204986,91 217,89.2060332 217,86.998845 L217,33 L209,33 Z M186,31 L198,31 L198,86.998845 C198,90.3131914 195.306966,93 192,93 C188.686292,93 186,90.3160373 186,86.998845 L186,31 Z M188,33 L188,86.998845 C188,89.2104244 189.789817,91 192,91 C194.204986,91 196,89.2060332 196,86.998845 L196,33 L188,33 Z"/><path fill="#1692D0" d="M106,1 C106,0.44771525 106.447469,0 107.000695,0 L128.999305,0 C129.551974,0 130,0.443864822 130,1 C130,1.55228475 129.552531,2 128.999305,2 L107.000695,2 C106.448026,2 106,1.55613518 106,1 Z M205,32 C205,31.4477153 205.444631,31 206.000872,31 L219.999128,31 C220.551894,31 221,31.4438648 221,32 C221,32.5522847 220.555369,33 219.999128,33 L206.000872,33 C205.448106,33 205,32.5561352 205,32 Z M184,32.0146484 C184,31.4623637 184.444631,31.0146484 185.000872,31.0146484 L198.999128,31.0146484 C199.551894,31.0146484 200,31.4585133 200,32.0146484 C200,32.5669332 199.555369,33.0146484 198.999128,33.0146484 L185.000872,33.0146484 C184.448106,33.0146484 184,32.5707836 184,32.0146484 Z"/><path fill="#39393A" fill-rule="nonzero" d="M207,61 L198,61 L198,59 L207,59 L207,61 Z M219,61 L228,61 L228,115 L230,115 L230,59 L219,59 L219,61 Z M186,61 L177,61 L177,115 L175,115 L175,59 L186,59 L186,61 Z M44.2137659,22 L44.0699463,56.0148926 L70.8017989,110.518117 C72.0158318,112.993392 70.7651663,115 68.0008377,115 L3.99916234,115 C1.23820122,115 -0.00941044221,112.986663 1.20514834,110.518117 L28.0214844,56.0148926 L27.7913114,22 L26.9918031,22 C26.4440454,22 26,21.5561352 26,21 C26,20.4477153 26.4553056,20 26.9918031,20 L45.0081969,20 C45.5559546,20 46,20.4438648 46,21 C46,21.5522847 45.5446944,22 45.0081969,22 L44.2137659,22 Z M30.0246359,56.4738616 L2.99969866,111.40106 C2.43781276,112.543073 2.72213408,113 3.99916234,113 L68.0008377,113 C69.2847728,113 69.5685639,112.545522 69.0061474,111.398818 L42.0679832,56.4749485 L42.2137481,22 L29.7913572,22 L30.0246359,56.4738616 Z"/></g></svg>