<svg xmlns="http://www.w3.org/2000/svg" viewBox="0 0 112 68"><g fill="none" fill-rule="evenodd"><path fill="#39393A" fill-rule="nonzero" d="M21,48 L8.0022998,48 C6.90065643,48 6,47.1043636 6,46.0001925 L6,41 L23.626481,41 L29.3722534,33.8177845 C29.7189483,33.384416 30.4523423,33.032452 31.0056643,33.0316578 L53.0590003,33.0000031 C54.7171132,32.9976231 56,34.3486445 56,36.0003297 L56,41 L67.719018,41 L86.3057994,29.6595615 L89.2436609,33.8149337 C89.8967586,34.7386886 89.6329914,35.9865679 88.6742025,36.5818994 L71.3808061,47.31972 C70.7495304,47.7116919 69.7386976,48 68.9977002,48 L54,48 L54,61 L61.9965944,61 C62.55076,61 63,61.4438648 63,62 L63,63 L16,63 L16,62 C16,61.4477153 16.4501036,61 17.0034056,61 L21,61 L21,48 Z M26.1877307,41 L54,41 L54.0612793,35.9960235 C54.0612793,35.4479205 53.6121867,34.9992112 53.061871,35.0000011 L31.008535,35.0316557 C31.0606613,35.0315809 30.9010761,35.1083183 30.933991,35.0671746 L26.1877307,41 Z M42.0034146,7.04798775 C41.4511331,7.04987359 41.0018917,6.60368972 41.0000058,6.05140819 C40.99812,5.49912666 41.4443039,5.04988525 41.9965854,5.04799941 L56.0431006,5.00003578 C59.3645599,4.98869423 62.0522766,7.66379515 62.0522766,10.9893403 L62.0522766,35.9947322 C62.0522766,36.5470169 61.6045614,36.9947322 61.0522766,36.9947322 C60.4999919,36.9947322 60.0522766,36.5470169 60.0522766,35.9947322 L60.0522766,10.9893403 C60.0522766,8.77161138 58.2647361,6.99246138 56.0499298,7.00002412 L42.0034146,7.04798775 Z M8,43 L8,46.0001925 C8,45.997284 68.9977002,46 68.9977002,46 C69.3658484,46 70.0112637,45.8159157 70.3257975,45.6206153 L87.5706029,34.9129658 L85.7518178,32.3404385 L68.280982,43 L8,43 Z M16,25 L18,25 L18,35 L16,35 L16,25 Z M23,48 L23,61 L52,61 L52,48 L23,48 Z"/><path fill="#1692D0" d="M55.8439336,35 L66.006468,35 L85.8134386,22.3242495 C86.7449007,21.7281472 88.0152976,21.9662568 88.6575162,22.865275 L91.3332064,26.6108747 C91.972485,27.5057771 91.7263997,28.697631 90.7888122,29.2697495 L87.4543463,31.3044501 L86.2926052,29.6704031 L89.6133782,27.6440579 L87.0301031,24.0278267 C87.0096965,23.9992602 66.5916459,37 66.5916459,37 L56.0011695,37 C55.9998697,36.4054863 55.9949324,35.7852553 55.9805085,35.6523036 C55.9512634,35.3827362 55.9086941,35.2436338 55.9086941,35.2436338 C55.8919969,35.1609594 55.8702863,35.0796521 55.8439336,35 Z M28.4635402,35 L1.99342543,35 C0.895531109,35 0,35.8945804 0,36.9981014 L0,41.0018986 C0,42.1132936 0.89844739,43 2.00673841,43 L6,43 L6,41.0008434 C3.48172777,41.0009223 2.00010583,41.0010028 2,41.0010828 L2,37 L26.8962556,37 L28.4635402,35 Z M48.006468,24 L44.0123267,24 C42.9045215,24 42.006468,23.1029399 42.006468,21.9941413 L42.006468,12.0058587 C42.006468,10.8980535 42.9035281,10 44.0123267,10 L45.006468,10 L45.006468,6 L47.006468,6 L47.006468,10 L51.006468,10 L51.006468,6 L53.006468,6 L53.006468,10 L54.0006093,10 C55.1084145,10 56.006468,10.8970601 56.006468,12.0058587 L56.006468,21.9941413 C56.006468,23.1019465 55.1094079,24 54.0006093,24 L50.006468,24 L50.006468,33 L48.006468,33 L48.006468,24 Z M44.006468,21.9941413 C44.006468,21.9978741 54.0006093,22 54.0006093,22 C54.0043421,22 54.006468,12.0058587 54.006468,12.0058587 C54.006468,12.0021259 44.0123267,12 44.0123267,12 C44.0085939,12 44.006468,21.9941413 44.006468,21.9941413 Z M61.006468,62 C61.006468,60.3431458 62.3529851,59 64.006468,59 C65.6633222,59 67.006468,60.3465171 67.006468,62 C67.006468,63.6568542 65.6599509,65 64.006468,65 C62.3496137,65 61.006468,63.6534829 61.006468,62 Z M63.006468,62 C63.006468,62.550425 63.4556943,63 64.006468,63 C64.556893,63 65.006468,62.5507737 65.006468,62 C65.006468,61.449575 64.5572417,61 64.006468,61 C63.456043,61 63.006468,61.4492263 63.006468,62 Z M7.00646799,13.0058587 C7.00646799,11.8980535 7.90468037,11 8.99726313,11 L25.0156729,11 C26.1151587,11 27.006468,11.8970601 27.006468,13.0058587 L27.006468,22.9941413 C27.006468,24.1019465 26.1082556,25 25.0156729,25 L8.99726313,25 C7.89777733,25 7.00646799,24.1029399 7.00646799,22.9941413 L7.00646799,13.0058587 Z M25.0156729,23 C25.0037598,23 25.006468,13.0058587 25.006468,13.0058587 C25.006468,13.001514 8.99726313,13 8.99726313,13 C9.00917616,13 9.00646799,22.9941413 9.00646799,22.9941413 C9.00646799,22.998486 25.0156729,23 25.0156729,23 Z M12.006468,62 C12.006468,60.3431458 13.3529851,59 15.006468,59 C16.6633222,59 18.006468,60.3465171 18.006468,62 C18.006468,63.6568542 16.6599509,65 15.006468,65 C13.3496137,65 12.006468,63.6534829 12.006468,62 Z M14.006468,62 C14.006468,62.550425 14.4556943,63 15.006468,63 C15.556893,63 16.006468,62.5507737 16.006468,62 C16.006468,61.449575 15.5572417,61 15.006468,61 C14.456043,61 14.006468,61.4492263 14.006468,62 Z"/></g></svg>