<svg xmlns="http://www.w3.org/2000/svg" viewBox="0 0 212 115"><g fill="none" fill-rule="evenodd" transform="translate(-898.000000, -177.000000) translate(898.000000, 177.000000)"><path fill="#1692D0" fill-rule="nonzero" d="M96,16.008788 C96,15.4465482 95.5560669,15 95.0038998,15 L68.9961002,15 C68.4471991,15 68,15.4489393 68,16.008788 L68,30.991212 C68,31.5534518 68.4439331,32 68.9961002,32 L95.0038998,32 C95.5528009,32 96,31.5510607 96,30.991212 L96,16.008788 Z M142,6 L148,6 L148,2 L150,2 L150,6 L152.998613,6 C154.656919,6 156,7.33915679 156,8.99109042 L156,27.0089096 C156,28.6582294 154.656233,30 152.998613,30 L137.001387,30 C135.343081,30 134,28.6608432 134,27.0089096 L134,8.99109042 C134,7.34177063 135.343767,6 137.001387,6 L140,6 L140,2 L142,2 L142,6 Z M98,16.008788 L98,30.991212 C98,32.6544098 96.6586002,34 95.0038998,34 L68.9961002,34 C67.3342595,34 66,32.6529197 66,30.991212 L66,16.008788 C66,14.3455902 67.3413998,13 68.9961002,13 L95.0038998,13 C96.6657405,13 98,14.3470803 98,16.008788 Z M202.455453,40.5963329 C204.328312,39.4325551 206.784506,40.015218 207.937096,41.8905555 L210.819258,46.5800167 C211.973827,48.4585738 211.37641,50.9090269 209.490102,52.0501037 L171.551758,75 L58.9951005,75 C56.7886674,75 55,73.2061808 55,70.9937776 L55,66.0071379 C55,63.7945624 56.7979225,62.0009155 59.0054451,62.0009155 L168.009216,62.0009155 L202.455453,40.5963329 Z M208.454919,50.3388482 C209.392803,49.7714977 209.687807,48.5586742 209.115348,47.6272467 L206.233186,42.9377856 C205.660136,42.0053973 204.441087,41.7171555 203.511038,42.2950791 L168.579997,64.0009155 L59.0054451,64.0009155 C57.9006252,64.0009155 57,64.9009978 57,66.0071379 L57,70.9937776 C57,72.1029268 57.8945562,73 58.9951005,73 L170.993896,73 L208.454919,50.3388482 Z M154,8.99109042 C154,8.44496093 153.553578,8 152.998613,8 L137.001387,8 C136.447975,8 136,8.44670777 136,8.99109042 L136,27.0089096 C136,27.5550391 136.446422,28 137.001387,28 L152.998613,28 C153.552025,28 154,27.5532922 154,27.0089096 L154,8.99109042 Z M146,30 L146,54 L144,54 L144,30 L146,30 Z M32.0206186,69.9970301 C32.0206186,69.4463856 32.4644834,69 33.0206186,69 C33.5729033,69 34.0206186,69.4530363 34.0206186,69.9970301 L34.0206186,76.0029699 C34.0206186,76.5536144 33.5767537,77 33.0206186,77 C32.4683338,77 32.0206186,76.5469637 32.0206186,76.0029699 L32.0206186,69.9970301 Z M77.3695581,31 L81.8329027,23.9988403 L96,23.9988403 L96,21.9880371 L80.7611419,21.9880371 L77.8554197,26.552127 L74.7517993,18 L67.9887078,24.2512142 L67.9993286,27.0296021 L73.9147828,21.4802543 L77.3695581,31 Z"/><path fill="#39393A" fill-rule="nonzero" d="M37.0204559,63.9999986 C37.0205707,56.3940007 37.0206186,51 37.0206186,51 L4.02061856,51 L4.02061856,64 L37.0204559,64 Z M37.0204249,66 L4.02061856,66 L4.02061856,113.000851 C4.02088436,113.000194 37.0182189,113 37.0182189,113 C37.0194766,113 37.0201333,84.3487272 37.0204249,65.9999996 Z M165,86 L165,93.9946814 L172.007293,93.9946814 C174.218153,93.9946814 176.009277,95.7829993 176.009277,97.9909339 L176.009277,102.059814 L174.009277,102.059814 L174.009277,97.9909339 C174.009277,96.8882715 173.114285,95.9946814 172.007293,95.9946814 L165,95.9946814 L165,96 L83,96 L83,95.9946814 L79.0570381,95.9946814 C77.9525577,95.9946814 77.0550537,96.8913101 77.0550537,97.9909339 L77.0550537,102.059814 L75.0550537,102.059814 L75.0550537,97.9909339 C75.0550537,95.7863034 76.8484249,93.9946814 79.0570381,93.9946814 L83,93.9946814 L83,86 L69.0096462,86 C66.7951798,86 65,84.2061808 65,81.9937776 L65,75.0035346 C65,73.8975186 65.9004677,73.0009155 66.9996908,73.0009155 L91.432204,73.0009155 L104.956122,56.0014623 C105.838098,54.8928256 107.576539,54.053791 108.988087,54.053791 L156.011524,54.053791 C157.676366,54.053791 159.011719,55.3974726 159.011719,57.0595771 L159.011719,73.0009155 L171.009216,73.0009155 L204.228501,53.0271342 C205.171954,52.4598637 206.353524,52.7899136 206.870865,53.770489 L209.199112,58.1834787 C210.746,61.1154699 209.681806,64.8663932 206.839328,66.5512287 L177.464194,83.9628962 C175.566109,85.0879576 172.237219,86 170.017761,86 L165,86 Z M157.011719,73.0009155 L157.011719,57.0595771 C157.011719,56.499268 156.569003,56.053791 156.011524,56.053791 L108.988087,56.053791 C108.186215,56.053791 107.023912,56.6147604 106.521251,57.2466011 L93.9879036,73.0009155 L157.011719,73.0009155 Z M163,94 L163,86 L85,86 L85,94 L163,94 Z M207.430205,59.1167354 L205.154786,54.8038758 L171.56419,75.0009155 C171.56419,75.0009155 67,75.0040197 67,75.0035346 L67,81.9937776 C67,83.1013015 67.8994398,84 69.0096462,84 L170.017761,84 C171.876906,84 174.853765,83.1852502 176.444408,82.2424206 L205.819542,64.830753 C207.747802,63.6878064 208.478117,61.1029613 207.430205,59.1167354 Z M81,38 L65.0065012,38 C63.3423094,38 62,36.6594143 62,35.0057181 L62,11.9942819 C62,10.3405687 63.3460564,9 65.0065012,9 L98.9934988,9 C100.657691,9 102,10.3405857 102,11.9942819 L102,35.0057181 C102,36.6594313 100.653944,38 98.9934988,38 L83,38 L83,62 L81,62 L81,38 Z M100,11.9942819 C100,11.4453055 99.5532622,11 98.9934988,11 L65.0065012,11 C64.4487991,11 64,11.4469733 64,11.9942819 L64,35.0057181 C64,35.5546945 64.4467378,36 65.0065012,36 L98.9934988,36 C99.5512009,36 100,35.5530267 100,35.0057181 L100,11.9942819 Z M2.02061856,49 L39.0206186,49 L39.0206186,113.00677 C39.0206186,114.104557 38.1241137,115 37.0182189,115 L4.02301818,115 C2.91689719,115 2.02061856,114.1076 2.02061856,113.00677 L2.02061856,49 Z M135,0 L157.00056,0 C160.311595,0 163,2.6885923 163,5.99502992 L163,62 L161,62 L161,5.99502992 C161,3.79313053 159.206995,2 157.00056,2 L135,2 C134.447715,2 134,1.55228475 134,1 C134,0.44771525 134.447715,0 135,0 Z"/><path fill="#1692D0" d="M175,115 C171.134007,115 168,111.865993 168,108 C168,104.134007 171.134007,101 175,101 C178.865993,101 182,104.134007 182,108 C182,111.865993 178.865993,115 175,115 Z M175,113 C177.761424,113 180,110.761424 180,108 C180,105.238576 177.761424,103 175,103 C172.238576,103 170,105.238576 170,108 C170,110.761424 172.238576,113 175,113 Z M76,115 C72.1340068,115 69,111.865993 69,108 C69,104.134007 72.1340068,101 76,101 C79.8659932,101 83,104.134007 83,108 C83,111.865993 79.8659932,115 76,115 Z M76,113 C78.7614237,113 81,110.761424 81,108 C81,105.238576 78.7614237,103 76,103 C73.2385763,103 71,105.238576 71,108 C71,110.761424 73.2385763,113 76,113 Z"/><rect width="41" height="2" x="0.0206185567" y="49" fill="#1692D0" rx="1"/></g></svg>