<svg xmlns="http://www.w3.org/2000/svg" viewBox="0 0 112 68"><g fill="none" fill-rule="evenodd" transform="translate(0.000000, 5.000000)"><path fill="#1692D0" fill-rule="nonzero" d="M23.9901123,57.0334825 L23.9901123,45.489502 C23.9901123,43.5441766 25.0262521,41.2871099 27.4021455,38.3498268 C28.2693103,37.2777633 29.1750125,35.5947292 30.087392,33.453935 C30.583176,32.2906345 31.0550784,31.0558428 31.5308994,29.711269 C31.7861933,28.9898602 32.366852,27.2796421 32.3905959,27.2124205 C32.3925912,27.2067714 32.5795287,26.6826918 32.6429407,26.5012915 C32.7542732,26.1828068 32.8518391,25.8919349 32.9442431,25.5991257 C33.1846877,24.8372068 33.3666671,24.1338966 33.4810084,23.48035 C33.7687473,21.8357062 33.5768373,20.8024123 32.971026,20.454339 C32.2943255,20.0655358 31.841353,20.2342782 31.3475062,20.8900004 C31.1200866,21.1919646 30.9644792,21.5028189 30.8825753,21.7192495 L28.4651592,27.4518129 C28.3857824,27.6400439 28.3041278,27.7963533 28.2089988,27.9284143 C27.9488091,28.2896173 27.6177235,28.5289576 27.0578944,28.3963584 C26.4966031,28.2634128 26.3081515,27.8993831 26.2387922,27.4587279 C26.2134444,27.2976875 26.211137,27.1209894 26.2252153,26.9180677 C26.2341551,26.786262 26.2511211,26.5397004 26.2752445,26.1947644 C26.3154287,25.6201783 26.3610316,24.9800007 26.411185,24.290606 C26.5544981,22.3206651 26.7055804,20.3506163 26.8575158,18.511184 C26.9610444,17.2577969 27.0614883,16.1082728 27.1576823,15.0849663 C27.2902448,13.6747722 27.4125738,12.5269957 27.523085,11.6788826 C28.065208,7.51838473 27.6849762,5.71094334 26.515877,5.54453147 C25.9141919,5.45888642 25.5060506,5.66591378 25.1691814,6.11603782 C24.9991809,6.34319213 24.8885814,6.57602592 24.8373453,6.72414302 L22.8895397,21.2903006 C22.8673393,21.4563207 22.8437016,21.591924 22.8159573,21.7030123 C22.7933656,21.7934699 22.7673738,21.8739928 22.7272371,21.9597559 C22.6777957,22.0622427 22.6777957,22.0622427 22.5474785,22.2298877 C22.3148345,22.4608445 22.3148345,22.4608445 21.7222705,22.5569332 C21.1613186,22.3762121 21.1613186,22.3762121 20.9708889,22.1269803 C20.8665582,21.9504704 20.8665582,21.9504704 20.8305463,21.8453544 C20.8013762,21.7567615 20.7850668,21.6744407 20.7731367,21.5826955 C20.7582751,21.4684072 20.7501839,21.3294559 20.7469538,21.1597965 C20.7453789,21.0781084 20.7453789,21.0781084 20.7382993,20.7071534 C20.7288605,20.2100869 20.7237481,19.9392993 20.7154894,19.4978392 C20.6918932,18.2365177 20.6682969,16.9452691 20.6462727,15.6981567 C20.6386509,15.2653561 20.6386509,15.2653561 20.6310805,14.8300985 C20.5770093,11.7106076 20.5454655,9.55710484 20.5454655,8.78461171 C20.5454655,8.51143722 20.5490501,8.41199922 20.5829028,7.60982098 C20.6189576,6.75545915 20.6289459,6.2332503 20.6087432,5.67809865 C20.5389661,3.76069655 20.1069546,2.82656694 19.2617924,2.73237188 C18.5226386,2.64999168 18.0537622,3.07781524 17.7169802,4.04623042 C17.5895966,4.41252158 17.501237,4.81630516 17.4473524,5.2218467 C17.415104,5.4645516 17.4019871,5.64807644 17.3986073,5.76649911 L16.6033081,20.8769431 C16.5947749,21.0390725 16.5840909,21.1700934 16.5701436,21.2737609 C16.5597126,21.3512928 16.547112,21.4194981 16.5269846,21.4910697 C16.5029381,21.5744119 16.5029381,21.5744119 16.4317659,21.7247604 C16.3102094,21.9619175 16.3102094,21.9619175 15.6734546,22.2404992 C14.8964182,22.081579 14.8964182,22.081579 14.7038199,21.7895982 C14.6080062,21.6148097 14.6080062,21.6148097 14.5788058,21.5227061 C14.5550765,21.4468117 14.540721,21.3762799 14.5287209,21.2956852 C14.5134623,21.1932063 14.5014916,21.0640998 14.4912542,20.9006705 C14.4846786,20.7902074 14.4718059,20.5809908 14.4529934,20.2860839 C14.4215976,19.7939223 14.3849744,19.2421631 14.3434822,18.6438809 C14.2249472,16.934707 14.0912184,15.1959128 13.9452159,13.5324727 C13.9148922,13.1869884 13.8882087,12.8391264 13.8490123,12.2938439 C13.7596608,11.0508238 13.7515929,10.9424818 13.7084033,10.4493741 C13.3735919,6.62673589 12.683167,4.92008403 11.382116,4.92008403 C10.4599794,4.92008403 10.0187107,5.34412796 9.80241121,6.21873115 C9.68155209,6.70742285 9.66192784,7.25356644 9.70409909,7.74108718 C9.7108707,7.81937047 9.71704443,7.87072049 9.72736903,7.9542154 L10.8572147,21.5189032 C10.8714794,21.6901628 10.8771898,21.8319078 10.8727659,21.951 C10.8691775,22.0475994 10.859585,22.1355416 10.836244,22.2313021 C10.8069609,22.3442249 10.8069609,22.3442249 10.7141727,22.5305396 C10.5431342,22.7856331 10.5431342,22.7856331 10.0496447,23.0037021 C9.49276862,22.9965839 9.49276862,22.9965839 9.21840477,22.8082062 C9.05524206,22.6567102 9.05524206,22.6567102 8.98615537,22.5555406 C8.92992091,22.4705598 8.8907583,22.3890235 8.85461595,22.2968619 C8.8109622,22.1855465 8.76969907,22.0495027 8.72506203,21.8753778 C8.68040091,21.6961433 8.59967722,21.3796859 8.49248408,20.9720503 C8.31386565,20.2927979 8.12782696,19.613805 7.9442183,18.9818386 C7.85694443,18.6814488 7.77219832,18.3986562 7.69066162,18.1365537 C7.55627561,17.7045653 7.43265199,17.335381 7.32305725,17.0414337 C7.1666438,16.6219127 6.5045247,13.9202417 6.30282737,13.2412298 C5.60013671,10.8756294 4.8269973,9.74592369 4.12990456,9.86691751 C3.36665047,9.9993949 2.97830426,10.3794073 2.78663943,11.0134968 C2.66071718,11.4300885 2.64061983,11.9025644 2.68617861,12.3238944 C2.6934697,12.3913228 3.31267078,16.3650545 3.31267078,16.3650545 L5.41246944,26.3194478 L6.18655168,34.3344968 C6.2881049,35.3946871 6.55088299,37.1330601 6.76803734,38.1801039 L7.94179367,43.8395545 L7.9626307,44.0426305 L7.9626307,57.0334825 L23.9901123,57.0334825 Z M29.0246092,20.9801362 C29.1528921,20.6374107 29.3885957,20.1665495 29.7499129,19.6867981 C30.7885949,18.3076524 32.2814556,17.7515282 33.9673911,18.7201947 C35.531918,19.6191049 35.8692054,21.4351492 35.4510844,23.8250249 C35.319661,24.576208 35.1165173,25.3613139 34.8515245,26.2010211 C34.7523713,26.5152167 34.648516,26.824839 34.5309108,27.1612679 C34.4649763,27.3498845 34.2764861,27.878317 34.2764128,27.8785245 C34.258166,27.9301831 33.677254,29.6411474 33.4163225,30.3784871 C32.9276099,31.7594897 32.4414299,33.0316406 31.9272665,34.2380663 C30.9483464,36.5349904 29.9661439,38.3601825 28.9571289,39.6076132 C26.8427838,42.2215478 25.9901123,44.0789579 25.9901123,45.489502 L25.9901123,59.0334825 L5.9626307,59.0334825 L5.9626307,44.1452376 L4.80971139,38.5862559 C4.57780032,37.4680603 4.30415015,35.6577644 4.19566431,34.5251994 L3.4439157,26.6771319 L1.34615968,16.7256305 L0.735982389,12.8124675 C0.724706072,12.7519736 0.710784625,12.6592688 0.69776935,12.5389028 C0.625829282,11.8735972 0.656706421,11.1476954 0.872185927,10.4348192 C1.27248161,9.1105111 2.23839914,8.16532184 3.78787992,7.89637973 C5.87472603,7.53416754 7.10957101,9.17476125 8.0758454,12.2031492 L7.74178845,8.1849258 C7.73309524,8.12671602 7.72201861,8.03458603 7.71153986,7.91344642 C7.6520585,7.22581216 7.67908107,6.47377295 7.86090429,5.73857399 C8.28098961,4.0399665 9.44636201,2.92008403 11.382116,2.92008403 C13.6246432,2.92008403 14.7299926,4.41063639 15.312379,7.35845861 L15.4003125,5.68852448 C15.4153965,5.09521065 15.527128,4.25430679 15.8279514,3.38929027 C16.4372622,1.63721971 17.6405392,0.539296668 19.4833248,0.744678902 C21.6658126,0.987921645 22.5054548,2.8034628 22.6074201,5.60536387 C22.6300364,6.22683489 22.6192519,6.79066781 22.5811242,7.69414766 C22.5495665,8.44194604 22.5455864,8.5503338 22.5454683,8.77374004 L22.8661789,6.37538981 C22.9959129,5.87985394 23.2051539,5.40244878 23.5679463,4.91768629 C24.3128839,3.92230207 25.4082097,3.36670429 26.79772,3.56448992 C29.6046375,3.96403208 30.1854829,6.72509471 29.5063194,11.9373029 C29.3994777,12.7572552 29.2794213,13.8837091 29.1489038,15.2721472 C29.0534807,16.2872533 28.9536759,17.4294629 28.8507279,18.6758215 C28.761667,19.7540523 28.6728595,20.8778744 28.5857316,22.0204794 L29.0246092,20.9801362 Z M74.9837646,59.0334825 L55.0232304,59.0334825 L55.0232304,45.4111753 C55.0232304,43.7983922 54.3367937,42.1022034 52.3189833,39.6076132 C51.3099684,38.3601825 50.3277658,36.5349904 49.3488457,34.2380663 C48.8346823,33.0316406 48.3485023,31.7594897 47.8597898,30.3784871 C47.5988582,29.6411474 47.0179462,27.9301831 46.9996995,27.8785245 C46.9996261,27.878317 46.811136,27.3498845 46.7452014,27.1612679 C46.6275962,26.824839 46.5237409,26.5152167 46.4245878,26.2010211 C46.159595,25.3613139 45.9564512,24.576208 45.8250278,23.8250249 C45.4069068,21.4351492 45.7441943,19.6191049 47.3087211,18.7201947 C48.9946566,17.7515282 50.4875174,18.3076524 51.5261993,19.6867981 C51.8875165,20.1665495 52.1232201,20.6374107 52.2363814,20.9421239 L52.6902168,22.0183307 C52.6031413,20.8764655 52.5143894,19.7533764 52.4253844,18.6758215 C52.3224363,17.4294629 52.2226315,16.2872533 52.1272084,15.2721472 C51.996691,13.8837091 51.8766346,12.7572552 51.7697928,11.9373029 C51.0906293,6.72509471 51.6714747,3.96403208 54.4783922,3.56448992 C55.8679025,3.36670429 56.9632283,3.92230207 57.7081659,4.91768629 C58.0709583,5.40244878 58.2801993,5.87985394 58.3809071,6.23541529 L58.730644,8.77374062 C58.7305234,8.53983556 58.7262468,8.43646104 58.6876358,7.6181649 C58.645607,6.72743244 58.6316999,6.16202515 58.64948,5.54517031 C58.7312428,2.70852524 59.5514713,0.875942862 61.7346928,0.632618355 C63.5800309,0.426951636 64.7887366,1.54518632 65.4181938,3.32920827 C65.7296336,4.21189781 65.8524451,5.07121892 65.8747405,5.66137978 L65.9639927,7.35714554 C66.546448,4.41019375 67.651802,2.92008403 69.8939963,2.92008403 C71.8297502,2.92008403 72.9951226,4.0399665 73.4152079,5.73857399 C73.5970312,6.47377295 73.6240537,7.22581216 73.5645724,7.91344642 C73.5540936,8.03458603 73.543017,8.12671602 73.5418413,8.12022683 L73.2022896,12.1968129 C74.1682646,9.17247307 75.4028421,7.53442024 77.4882323,7.89637973 C79.0377131,8.16532184 80.0036306,9.1105111 80.4039263,10.4348192 C80.6194058,11.1476954 80.6502829,11.8735972 80.5783429,12.5389028 C80.5653276,12.6592688 80.5514062,12.7519736 80.5451065,12.7833958 L79.9203769,16.7778542 L77.8321899,26.6772008 L77.0804479,34.5251994 C76.9706977,35.6709647 76.6604381,37.4807567 76.3824959,38.5949489 L74.9837646,44.2020695 L74.9837646,59.0334825 Z M72.9837646,43.9563778 L74.4419629,38.1108708 C74.695824,37.0932128 74.9892717,35.3814868 75.0895606,34.3344968 L75.8466668,26.4304964 L77.9538658,16.4172781 L78.5739964,12.4459718 C78.6354924,11.9025644 78.615395,11.4300885 78.4894728,11.0134968 C78.297808,10.3794073 77.9094618,9.9993949 77.1462077,9.86691751 C76.4491149,9.74592369 75.6759755,10.8756294 74.9732849,13.2412298 C74.7715875,13.9202417 74.1094684,16.6219127 73.953055,17.0414337 C73.8434602,17.335381 73.7198366,17.7045653 73.5854506,18.1365537 C73.5039139,18.3986562 73.4191678,18.6814488 73.3318939,18.9818386 C73.1482853,19.613805 72.9622466,20.2927979 72.7836281,20.9720503 C72.676435,21.3796859 72.5957113,21.6961433 72.5493652,21.8820423 C72.5064132,22.0495027 72.46515,22.1855465 72.4214963,22.2968619 C72.3853539,22.3890235 72.3461913,22.4705598 72.2899569,22.5555406 C72.2208702,22.6567102 72.2208702,22.6567102 72.0577075,22.8082062 C71.7833436,22.9965839 71.7833436,22.9965839 71.2264675,23.0037021 C70.7329781,22.7856331 70.7329781,22.7856331 70.5619395,22.5305396 C70.4691513,22.3442249 70.4691513,22.3442249 70.4398682,22.2313021 C70.4165272,22.1355416 70.4069347,22.0475994 70.4033463,21.951 C70.3989224,21.8319078 70.4046328,21.6901628 70.4188975,21.5189032 L71.5562608,7.88951643 C71.6141844,7.25356644 71.5945601,6.70742285 71.473701,6.21873115 C71.2574015,5.34412796 70.8161328,4.92008403 69.8939963,4.92008403 C68.5929452,4.92008403 67.9025203,6.62673589 67.5677089,10.4493741 C67.5245194,10.9424818 67.5164515,11.0508238 67.4270999,12.2938439 C67.3879036,12.8391264 67.36122,13.1869884 67.3308963,13.5324727 C67.1848938,15.1959128 67.051165,16.934707 66.93263,18.6438809 C66.8911378,19.2421631 66.8545146,19.7939223 66.8231189,20.2860839 C66.8043063,20.5809908 66.7914337,20.7902074 66.7846671,20.9037954 C66.7746207,21.0640998 66.7626499,21.1932063 66.7473914,21.2956852 C66.7353912,21.3762799 66.7210357,21.4468117 66.6973064,21.5227061 C66.6681061,21.6148097 66.6681061,21.6148097 66.5722923,21.7895982 C66.379694,22.081579 66.379694,22.081579 65.6026577,22.2404992 C64.9659028,21.9619175 64.9659028,21.9619175 64.8443463,21.7247604 C64.7731742,21.5744119 64.7731742,21.5744119 64.7491277,21.4910697 C64.7290002,21.4194981 64.7163996,21.3512928 64.7059686,21.2737609 C64.6920213,21.1700934 64.6813374,21.0390725 64.6728041,20.8769431 L63.8768424,5.75187232 C63.873213,5.65626085 63.8574103,5.46573363 63.8214573,5.2141676 C63.7613819,4.79381578 63.6663921,4.37514135 63.5321476,3.9946628 C63.1769936,2.98807722 62.6909606,2.53842356 61.9562252,2.62031133 C61.1283224,2.7125828 60.7046739,3.65911263 60.6486497,5.60279392 C60.632711,6.15576311 60.6456179,6.68050531 60.6854132,7.52390066 C60.7269394,8.40398043 60.7306467,8.4953398 60.7306467,8.78461171 C60.7306467,9.55710484 60.699103,11.7106076 60.6450317,14.8300985 C60.6374613,15.2653561 60.6374613,15.2653561 60.6298395,15.6981567 C60.6078153,16.9452691 60.584219,18.2365177 60.5606228,19.4978392 C60.5523642,19.9392993 60.5472517,20.2100869 60.5378129,20.7071534 C60.5307333,21.0781084 60.5307333,21.0781084 60.529163,21.1595562 C60.5259284,21.3294559 60.5178371,21.4684072 60.5029756,21.5826955 C60.4910455,21.6744407 60.474736,21.7567615 60.4455659,21.8453544 C60.4095541,21.9504704 60.4095541,21.9504704 60.3052233,22.1269803 C60.1147936,22.3762121 60.1147936,22.3762121 59.5538418,22.5569332 C58.9612777,22.4608445 58.9612777,22.4608445 58.7286337,22.2298877 C58.5983166,22.0622427 58.5983166,22.0622427 58.5488751,21.9597559 C58.5087384,21.8739928 58.4827467,21.7934699 58.4601549,21.7030123 C58.4324106,21.591924 58.4087729,21.4563207 58.3865725,21.2903006 L56.4387669,6.72414302 C56.3875308,6.57602592 56.2769313,6.34319213 56.1069309,6.11603782 C55.7700616,5.66591378 55.3619203,5.45888642 54.7602352,5.54453147 C53.5911361,5.71094334 53.2109042,7.51838473 53.7530272,11.6788826 C53.8635384,12.5269957 53.9858674,13.6747722 54.11843,15.0849663 C54.2146239,16.1082728 54.3150679,17.2577969 54.4185965,18.511184 C54.5705319,20.3506163 54.7216141,22.3206651 54.8649272,24.290606 C54.9150807,24.9800007 54.9606835,25.6201783 55.0008677,26.1947644 C55.0249912,26.5397004 55.0419571,26.786262 55.0507915,26.9165318 C55.0649752,27.1209894 55.0626678,27.2976875 55.03732,27.4587279 C54.9679608,27.8993831 54.7795092,28.2634128 54.2182178,28.3963584 C53.6583887,28.5289576 53.3273031,28.2896173 53.0671134,27.9284143 C52.9719844,27.7963533 52.8903299,27.6400439 52.8109531,27.4518129 L50.3784154,21.6812372 C50.311633,21.5028189 50.1560257,21.1919646 49.928606,20.8900004 C49.4347592,20.2342782 48.9817868,20.0655358 48.3050863,20.454339 C47.6992749,20.8024123 47.5073649,21.8357062 47.7951038,23.48035 C47.9094451,24.1338966 48.0914245,24.8372068 48.3318691,25.5991257 C48.4242731,25.8919349 48.521839,26.1828068 48.6331715,26.5012915 C48.6965835,26.6826918 48.883521,27.2067714 48.8855164,27.2124205 C48.9092602,27.2796421 49.4899189,28.9898602 49.7452128,29.711269 C50.2210338,31.0558428 50.6929362,32.2906345 51.1887202,33.453935 C52.1010997,35.5947292 53.0068019,37.2777633 53.8739667,38.3498268 C56.1627983,41.1794766 57.0232304,43.305609 57.0232304,45.4111753 L57.0232304,57.0334825 L72.9837646,57.0334825 L72.9837646,43.9563778 Z"/><path fill="#39393A" d="M4,58 C4,57.4477153 4.44746922,57 5.00069463,57 L26.9993054,57 C27.5519738,57 28,57.4438648 28,58 C28,58.5522847 27.5525308,59 26.9993054,59 L5.00069463,59 C4.44802625,59 4,58.5561352 4,58 Z M53,58 C53,57.4477153 53.4474692,57 54.0006946,57 L75.9993054,57 C76.5519738,57 77,57.4438648 77,58 C77,58.5522847 76.5525308,59 75.9993054,59 L54.0006946,59 C53.4480262,59 53,58.5561352 53,58 Z"/></g></svg>