<svg xmlns="http://www.w3.org/2000/svg" viewBox="0 0 164 114"><g fill="none" fill-rule="evenodd"><path fill="#1692D0" fill-rule="nonzero" d="M39.9066686,20.9754594 C39.9978357,9.030605 39.6103866,4.41957395 38.0619582,3.39860359 C35.0864744,2.16974061 33.4760295,3.30271962 32.5727383,6.24229676 C32.3228163,7.05561693 32.1599931,7.93874164 32.0693454,8.82372559 C32.0375078,9.13455244 32.017084,9.42256859 32.0058007,9.67960247 C31.9992016,9.82992941 31.9970789,9.93355006 31.9961819,10.0247496 C31.9896335,10.1792553 31.9896335,10.1792553 31.960042,10.874141 C31.9312346,11.5496984 31.899015,12.302453 31.8641661,13.1131084 C31.7645965,15.429297 31.663904,17.745499 31.5683491,19.907377 C31.5536644,20.239408 31.5536644,20.239408 31.5389614,20.5710001 C31.4593584,22.3650566 31.387597,23.9532543 31.3255835,25.2885783 C31.2655403,26.581477 31.2278761,28.0189931 31.1684603,30.9368983 C31.1576367,31.470088 31.1576367,31.470088 31.1466781,32.0085152 C31.1382197,32.4222992 31.1311177,32.7634392 31.1241036,33.0909011 C31.0501792,36.5421605 30.9763359,38.7324983 30.8553327,40.4917025 C30.6184979,43.9349248 30.464011,44.765625 29.1918945,44.765625 C27.8217564,44.765625 27.4504595,43.624864 27.0774945,40.3038908 C26.8009684,37.8416338 26.5577659,34.3659776 26.001876,25.3034116 C25.8077375,22.1384093 25.3762696,17.9075039 25.0024936,15.6113525 C23.7844981,8.12905828 22.9793558,7.11075555 19.6356232,7.55955309 C18.4462609,7.71918992 17.6052443,9.00937386 17.1486143,11.2174061 C16.8587623,12.6189837 16.7754254,14.1011615 16.8115781,15.4913821 C16.8106539,15.9745599 16.8627188,16.8185136 16.9234048,17.3574473 C16.9433292,17.532337 16.980622,17.8625541 17.0328027,18.3291965 C17.1197338,19.106605 17.2165904,19.9826204 17.3208926,20.938345 C17.6188982,23.668981 17.9169059,26.4915162 18.1950855,29.2549016 C18.2952192,30.2496115 18.3911453,31.2207301 18.4823107,32.164048 C19.1608932,39.1855637 19.526797,44.1165031 19.463289,46.1481742 C19.4441668,46.7599093 19.4149112,47.1661808 19.2892717,47.7110521 C19.2065366,47.9303133 19.0887973,48.1139831 18.8373606,48.2657056 C18.3875636,48.537123 17.8935102,48.4191314 17.5830918,48.114115 C17.4632428,47.9963517 17.3920601,47.8795419 17.3312498,47.7442458 C17.1727883,47.3916863 17.0393603,46.714657 16.784672,45.1582633 C16.7382447,44.8745477 16.2188758,41.6044429 16.0280938,40.45276 C15.6699328,38.2906698 15.3275392,36.3969129 14.9592708,34.5974301 C14.767358,33.6596799 14.5720569,32.7671091 14.3721171,31.9188282 C12.2461081,22.8988484 9.16498737,18.8023942 5.51414909,20.0693207 C4.06514546,20.5721589 3.26946268,21.7250156 2.97263651,23.4393402 C2.78711209,24.5108396 2.81917655,25.6842088 2.98739467,26.8036107 C3.03891504,27.1464513 3.0892678,27.3951398 3.12590212,27.54613 C3.16426164,27.7228466 3.2359332,28.0562604 3.33616094,28.5276846 C3.50306502,29.3127232 3.68900729,30.1983713 3.88923318,31.1659507 C4.4612978,33.9304181 5.03336802,36.7981547 5.5674409,39.6199911 C5.7867875,40.7789344 5.99555143,41.9085845 6.19218283,43.0028743 C7.08799088,47.9882102 7.69322837,52.0132446 7.92102664,54.750921 C8.16461263,57.678334 8.89942513,62.9182163 9.99391764,69.7897308 C10.1270276,70.6254304 10.264624,71.4798684 10.4063109,72.3510369 C10.9709857,75.8229652 11.5760855,79.4123452 12.1811937,82.9143703 C12.3929852,84.1401005 12.5896415,85.267311 12.7661134,86.2704238 C12.827865,86.6214358 12.8826779,86.9318371 12.9299213,87.1984312 C12.9777666,87.4680583 12.9777666,87.4680583 13.0033023,87.6999339 L12.9973915,113.249156 L10.9973916,113.248711 C10.9973916,113.248711 10.9839413,87.6789295 10.9606042,87.5474157 C10.9132179,87.2800148 10.8582604,86.9687951 10.7963624,86.6169508 C10.61955,85.6119028 10.4225467,84.4827028 10.2103971,83.2549004 C9.60424477,79.7468323 8.99808422,76.1511605 8.43224924,72.6720985 C8.29021948,71.7988221 8.15227666,70.9422328 8.0188149,70.1043245 C6.91644244,63.1833376 6.17703463,57.9106864 5.92791456,54.9167651 C5.70669624,52.2581664 5.10909867,48.28394 4.2237094,43.3565865 C4.02821012,42.2685972 3.82056271,41.1449888 3.60232737,39.9919169 C3.07055229,37.1822212 2.50064255,34.3253149 1.93072722,31.5712338 C1.73126012,30.6073212 1.54605891,29.7252028 1.3798855,28.943601 C1.28026674,28.475041 1.2091908,28.1443981 1.17739231,27.9962467 C1.13297166,27.8149593 1.07070293,27.5074189 1.00960182,27.1008235 C0.812209204,25.7872808 0.774605437,24.4112059 1.00195794,23.0981277 C1.41252163,20.7269101 2.6388331,18.9501199 4.8584609,18.179857 C10.1443119,16.3455428 13.9483839,21.4031852 16.3187752,31.4600009 C16.3683574,31.6703626 16.4176353,31.8832677 16.466629,32.0987344 C16.3832223,31.2392307 16.2959213,30.3569985 16.2051428,29.4552216 C15.9275739,26.6979025 15.6301367,23.8807718 15.3326975,21.155325 C15.228594,20.2014206 15.131931,19.3271571 15.0451907,18.5514545 C14.9931686,18.0862304 14.9560307,17.757385 14.9361121,17.582539 C14.8671929,16.970497 14.8105029,16.0515723 14.8067953,15.3600188 C14.7725172,14.0122435 14.8637043,12.3904479 15.1900575,10.8123686 C15.8002558,7.86175809 17.0899272,5.883303 19.369568,5.57732842 C24.0784834,4.94529533 25.6073153,6.87888358 26.9765103,15.2900147 C27.3622184,17.6594663 27.8001997,21.954242 27.998124,25.1809634 C28.4683741,32.8473584 28.7142322,36.5027865 28.9438718,38.9089997 C29.016227,37.4244218 29.0703501,35.57904 29.1245623,33.0480718 C29.1315605,32.7213501 29.1386497,32.3808256 29.1470958,31.9676407 C29.1580467,31.4295947 29.1580467,31.4295947 29.1688748,30.8961818 C29.2286667,27.959804 29.2665865,26.5125327 29.3277368,25.1957967 C29.3896784,23.8620217 29.4613805,22.2751341 29.5409272,20.4823466 C29.5556224,20.1509295 29.5556224,20.1509295 29.5702999,19.8190633 C29.6658151,17.6580846 29.766474,15.3426543 29.8660116,13.0272107 C29.9008502,12.2167948 29.9330599,11.464269 29.9618579,10.7889336 C29.9914374,10.0943297 29.9914374,10.0943297 29.9970789,9.98240474 C29.9970789,9.69825981 30.0179102,9.22371988 30.0797552,8.61993446 C30.182786,7.61405633 30.3685842,6.60631896 30.6609621,5.65483453 C31.8824002,1.67991319 34.6310978,-0.222663702 39.0354811,1.64886031 C41.6536828,3.21359235 42.0108611,7.33162989 41.9066103,20.9907236 C41.8990664,21.9791344 41.8956831,22.451166 41.8923772,23.0171767 C41.8875712,23.8400423 41.885144,24.5587649 41.8852539,25.2420267 C41.8855062,26.8110894 41.8664864,28.5363828 41.8292683,30.6540013 C41.8144499,31.4971268 41.7985269,32.3144326 41.772979,33.5696471 C41.72514,35.9200721 41.692977,37.6121953 41.6751461,38.916497 C41.8729008,37.6509481 42.0845822,36.208939 42.3072103,34.6111088 C42.5092103,33.1613297 42.7187541,31.5959042 42.9342749,29.9318045 C43.3694154,26.5719552 43.8085332,22.9711467 44.2295137,19.3702029 C44.3768692,18.1097665 44.5114262,16.9393938 44.6304271,15.8891451 C44.6720681,15.52164 44.708787,15.1954305 44.7402392,14.914273 C44.7720156,14.6295424 44.7720156,14.6295424 44.7875036,14.5076097 C44.8296034,14.2670415 44.9165507,13.8669174 45.0556525,13.3586899 C45.2869018,12.5137887 45.5852282,11.6678524 45.9608946,10.8704222 C47.2700289,8.09151106 49.2178349,6.49315292 51.8775726,7.00187556 C54.5631337,7.51553738 56.0070226,9.23872341 56.4830675,12.2589284 C56.8580126,14.6377184 56.7180226,17.5765726 56.0796037,23.7218891 C55.0840541,33.3048876 54.2140577,45.5160697 54.15857,50.90631 C54.3367911,50.4954823 54.5269207,50.0370791 54.7270826,49.5361326 C54.897759,49.1089797 55.0742415,48.6547003 55.2554939,48.1768645 C55.6976731,47.011148 56.1478747,45.7601459 56.5819531,44.5088687 C56.7339524,44.0707147 56.8730393,43.6639349 56.9962351,43.2990703 C57.0699751,43.0806771 57.1218989,42.9251903 57.1640512,42.8009236 C57.195768,42.7177185 57.254741,42.5687958 57.3395395,42.3634344 C57.4792538,42.02508 57.6418705,41.6490465 57.8260062,41.2445631 C58.3524353,40.0881784 58.9476659,38.9312143 59.6022922,37.8462021 C62.2187584,33.5095329 65.082287,31.3610807 68.1015671,33.169548 C70.8180663,34.7966578 71.6242124,37.7718633 70.9373782,41.9715325 C70.4196813,45.1370065 69.2174563,48.6384937 66.7785285,54.6259211 C65.1521711,58.6185349 63.485028,62.8210286 61.8683546,66.9727956 C61.302492,68.425983 60.7833829,69.7689642 60.3224162,70.9692025 C60.1611191,71.3891786 60.0186251,71.7612763 59.8963575,72.0814293 C59.772755,72.4054167 59.772755,72.4054167 59.7462952,72.4750404 C59.316855,73.5973279 58.342028,75.1870084 57.4793899,76.1705525 C57.4269618,76.2237629 57.3215434,76.3344555 57.1707393,76.4988557 C56.9152435,76.7773864 56.629446,77.102183 56.3209551,77.4694331 C55.4371578,78.5215702 54.5526462,79.6987799 53.7282043,80.9697214 C51.4509394,84.4803024 50.070594,88.0093171 50.0132761,91.2998869 C49.9727008,93.6292744 49.9530049,96.6591161 49.9509884,100.221029 C49.9492095,103.3632 49.9611325,105.73111 49.982103,109.085617 C49.988947,110.180412 49.9962798,111.19399 50.0036122,112.101259 C50.0061782,112.418759 50.0077668,112.606466 50.0133829,113.239466 C50.0133829,113.239466 48.0129805,113.206427 48.0107763,112.960314 C48.0078384,112.623399 48.0062475,112.435422 48.0036775,112.117422 C47.9963356,111.208974 47.988994,110.194183 47.9821421,109.09812 C47.9611453,105.739413 47.949207,103.367157 47.9509887,100.219897 C47.953011,96.6477135 47.972773,93.6077137 48.0135794,91.2650545 C48.0785375,87.5358695 49.5876195,83.6777246 52.0503103,79.881295 C52.9224098,78.5368857 53.8556213,77.2948605 54.789547,76.1830471 C55.1172591,75.7929145 55.4222216,75.4463378 55.696895,75.1469004 C55.8641925,74.9645199 55.9859895,74.8366292 56.0143755,74.8103271 C56.6846277,74.0440565 57.5353304,72.6567893 57.8775521,71.7624438 C57.9037554,71.6934887 57.9037554,71.6934887 58.0279739,71.3678869 C58.1506824,71.0465795 58.2936248,70.6733109 58.4553795,70.2521434 C58.917418,69.0491143 59.4376361,67.703264 60.0046634,66.2470853 C61.6248182,62.086378 63.2956379,57.8746164 64.9263012,53.8714319 C69.7338842,42.0690923 70.5666096,36.9773667 67.0738715,34.8853108 C65.4222322,33.8960234 63.4109409,35.4050579 61.314753,38.8793904 C60.7038756,39.8918909 60.1429056,40.9822617 59.6462647,42.073212 C59.472326,42.4552959 59.3190863,42.8096463 59.1881408,43.1267646 C59.1105434,43.3146868 59.058274,43.446681 59.0478957,43.4710899 C59.019491,43.556982 58.9662535,43.7164023 58.8911347,43.9388792 C58.7662324,44.308798 58.6253678,44.7207767 58.4714842,45.1643627 C58.0316114,46.4323427 57.5752009,47.7005979 57.1254833,48.8861881 C56.9402439,49.3745344 56.7595524,49.8396483 56.5843129,50.2782213 C55.9566805,51.849001 55.4195719,53.0316085 54.980002,53.7598242 C54.6347281,54.3318239 54.345594,54.6718163 53.9082548,54.8322089 C52.933873,55.18956 52.3976097,54.5021699 52.2628253,53.6282746 C51.8353016,50.8563582 52.8574864,35.382183 54.0903096,23.5152272 C55.244592,12.4042923 54.8021877,9.59751558 51.5018476,8.96626623 C49.9568688,8.67076127 48.7360078,9.67259266 47.7701778,11.7227686 C47.4485106,12.4055742 47.1875326,13.1456049 46.9847031,13.8866707 C46.8633576,14.3300233 46.7894766,14.6700172 46.7664724,14.7899277 C46.7597617,14.850599 46.7597617,14.850599 46.7278412,15.13662 C46.6962853,15.4187041 46.6594605,15.7458549 46.6177108,16.1143189 C46.4984526,17.1668391 46.3636266,18.3395516 46.2159846,19.6024379 C45.7941151,23.2109872 45.3540367,26.8196719 44.9177096,30.1886829 C44.7014041,31.8588422 44.4910184,33.4305566 44.2880752,34.8871057 C43.4799518,40.6871101 42.8429054,44.3361288 42.3615705,45.5086152 C42.1358949,46.0583398 41.9315154,46.3738733 41.4851849,46.5467493 C41.0190262,46.7273054 40.5444393,46.5730566 40.2474463,46.2304976 C40.1013573,46.061995 40.0141813,45.8766901 39.9468475,45.655924 C39.7968597,45.1641617 39.7216727,44.33098 39.6854489,43.0524295 C39.6318786,41.1616183 39.6546844,39.361333 39.7733932,33.5289488 C39.7989062,32.2754453 39.814799,31.4596914 39.8295771,30.6188558 C39.866605,28.5120603 39.885504,26.797723 39.8852539,25.2423483 C39.8851434,24.554673 39.8875836,23.8320821 39.8924114,23.0054957 C39.8957264,22.4379098 39.8991157,21.9650439 39.9066686,20.9754594 Z M147.533691,32.0954328 C147.582365,31.8832677 147.631643,31.6703626 147.681225,31.4600009 C150.051616,21.4031852 153.855688,16.3455428 159.141539,18.179857 C161.361167,18.9501199 162.587478,20.7269101 162.998042,23.0981277 C163.225395,24.4112059 163.187791,25.7872808 162.990398,27.1008235 C162.929297,27.5074189 162.867028,27.8149593 162.828582,27.9703859 C162.790809,28.1443981 162.719733,28.475041 162.620115,28.943601 C162.453941,29.7252028 162.26874,30.6073212 162.069273,31.5712338 C161.499357,34.3253149 160.929448,37.1822212 160.397673,39.9919169 C160.179437,41.1449888 159.97179,42.2685972 159.776291,43.3565865 C158.890901,48.28394 158.293304,52.2581664 158.072085,54.9167651 C157.822965,57.9106864 157.083558,63.1833376 155.981185,70.1043245 C155.847723,70.9422328 155.709781,71.7988221 155.567751,72.6720985 C155.001916,76.1511605 154.395755,79.7468323 153.789603,83.2549004 C153.577453,84.4827028 153.38045,85.6119028 153.203638,86.6169508 C153.14174,86.9687951 153.086782,87.2800148 153.039396,87.5474157 C153.016059,87.6789295 153.002608,113.248711 153.002608,113.248711 L151.002608,113.249156 L150.996698,87.6999339 C151.022233,87.4680583 151.022233,87.4680583 151.070079,87.1984312 C151.117322,86.9318371 151.172135,86.6214358 151.233887,86.2704238 C151.410359,85.267311 151.607015,84.1401005 151.818806,82.9143703 C152.423914,79.4123452 153.029014,75.8229652 153.593689,72.3510369 C153.735376,71.4798684 153.872972,70.6254304 154.006082,69.7897308 C155.100575,62.9182163 155.835387,57.678334 156.078973,54.750921 C156.306772,52.0132446 156.912009,47.9882102 157.807817,43.0028743 C158.004449,41.9085845 158.213212,40.7789344 158.432559,39.6199911 C158.966632,36.7981547 159.538702,33.9304181 160.110767,31.1659507 C160.310993,30.1983713 160.496935,29.3127232 160.663839,28.5276846 C160.764067,28.0562604 160.835738,27.7228466 160.880072,27.5202692 C160.910732,27.3951398 160.961085,27.1464513 161.012605,26.8036107 C161.180823,25.6842088 161.212888,24.5108396 161.027363,23.4393402 C160.730537,21.7250156 159.934855,20.5721589 158.485851,20.0693207 C154.835013,18.8023942 151.753892,22.8988484 149.627883,31.9188282 C149.427943,32.7671091 149.232642,33.6596799 149.040729,34.5974301 C148.672461,36.3969129 148.330067,38.2906698 147.971906,40.45276 C147.781124,41.6044429 147.261755,44.8745477 147.215328,45.1582633 C146.96064,46.714657 146.827212,47.3916863 146.66875,47.7442458 C146.60794,47.8795419 146.536757,47.9963517 146.416908,48.114115 C146.10649,48.4191314 145.612436,48.537123 145.162639,48.2657056 C144.911203,48.1139831 144.793463,47.9303133 144.710728,47.7110521 C144.585089,47.1661808 144.555833,46.7599093 144.536711,46.1481742 C144.473203,44.1165031 144.839107,39.1855637 145.517689,32.164048 C145.608855,31.2207301 145.704781,30.2496115 145.804915,29.2549016 C146.083094,26.4915162 146.381102,23.668981 146.679107,20.938345 C146.78341,19.9826204 146.880266,19.106605 146.967197,18.3291965 C147.019378,17.8625541 147.056671,17.532337 147.076449,17.3587427 C147.137281,16.8185136 147.189346,15.9745599 147.189518,15.4426226 C147.224575,14.1011615 147.141238,12.6189837 146.851386,11.2174061 C146.394756,9.00937386 145.553739,7.71918992 144.364377,7.55955309 C141.020644,7.11075555 140.215502,8.12905828 138.997506,15.6113525 C138.62373,17.9075039 138.192263,22.1384093 137.998124,25.3034116 C137.442234,34.3659776 137.199032,37.8416338 136.922506,40.3038908 C136.54954,43.624864 136.178244,44.765625 134.808105,44.765625 C133.535989,44.765625 133.381502,43.9349248 133.144667,40.4917025 C133.023664,38.7324983 132.949821,36.5421605 132.875896,33.0909011 C132.868882,32.7634392 132.86178,32.4222992 132.853322,32.0085152 C132.842363,31.470088 132.842363,31.470088 132.83154,30.9368983 C132.772124,28.0189931 132.73446,26.581477 132.674416,25.2885783 C132.612403,23.9532543 132.540642,22.3650566 132.461039,20.5710001 C132.446336,20.239408 132.446336,20.239408 132.431651,19.907377 C132.336096,17.745499 132.235403,15.429297 132.135834,13.1131084 C132.100985,12.302453 132.068765,11.5496984 132.039958,10.874141 C132.010366,10.1792553 132.010366,10.1792553 132.002921,9.98240474 C131.982916,9.42256859 131.962492,9.13455244 131.930655,8.82372559 C131.840007,7.93874164 131.677184,7.05561693 131.427262,6.24229676 C130.523971,3.30271962 128.913526,2.16974061 125.938042,3.39860359 C124.389613,4.41957395 124.002164,9.030605 124.093331,20.9754594 C124.100884,21.9650439 124.104274,22.4379098 124.107589,23.0054957 C124.112416,23.8320821 124.114857,24.554673 124.114746,25.2423483 C124.114496,26.797723 124.133395,28.5120603 124.170423,30.6188558 C124.185201,31.4596914 124.201094,32.2754453 124.226607,33.5289488 C124.345316,39.361333 124.368121,41.1616183 124.314551,43.0524295 C124.278327,44.33098 124.20314,45.1641617 124.053152,45.655924 C123.985819,45.8766901 123.898643,46.061995 123.752554,46.2304976 C123.455561,46.5730566 122.980974,46.7273054 122.514815,46.5467493 C122.068485,46.3738733 121.864105,46.0583398 121.638429,45.5086152 C121.157095,44.3361288 120.520048,40.6871101 119.711925,34.8871057 C119.508982,33.4305566 119.298596,31.8588422 119.08229,30.1886829 C118.645963,26.8196719 118.205885,23.2109872 117.784015,19.6024379 C117.636373,18.3395516 117.501547,17.1668391 117.382289,16.1143189 C117.340539,15.7458549 117.303715,15.4187041 117.272159,15.13662 C117.210523,14.6700172 117.136642,14.3300233 117.015297,13.8866707 C116.812467,13.1456049 116.551489,12.4055742 116.229822,11.7227686 C115.263992,9.67259266 114.043131,8.67076127 112.498152,8.96626623 C109.197812,9.59751558 108.755408,12.4042923 109.90969,23.5152272 C111.142514,35.382183 112.164698,50.8563582 111.737175,53.6282746 C111.60239,54.5021699 111.066127,55.18956 110.091745,54.8322089 C109.654406,54.6718163 109.365272,54.3318239 109.019998,53.7598242 C108.580428,53.0316085 108.043319,51.849001 107.415687,50.2782213 C107.240448,49.8396483 107.059756,49.3745344 106.874517,48.8861881 C106.424799,47.7005979 105.968389,46.4323427 105.528516,45.1643627 C105.374632,44.7207767 105.233768,44.308798 105.108865,43.9388792 C105.033746,43.7164023 104.980509,43.556982 104.96712,43.5132983 C104.941726,43.446681 104.889457,43.3146868 104.811859,43.1267646 C104.680914,42.8096463 104.527674,42.4552959 104.353735,42.073212 C103.857094,40.9822617 103.296124,39.8918909 102.685247,38.8793904 C100.589059,35.4050579 98.5777678,33.8960234 96.9261285,34.8853108 C93.4333904,36.9773667 94.2661158,42.0690923 99.0736988,53.8714319 C100.704362,57.8746164 102.375182,62.086378 103.995337,66.2470853 C104.562364,67.703264 105.082582,69.0491143 105.544621,70.2521434 C105.706375,70.6733109 105.849318,71.0465795 105.972026,71.3678869 C106.096245,71.6934887 106.096245,71.6934887 106.121625,71.7602858 C106.46467,72.6567893 107.315372,74.0440565 107.945257,74.7668499 C108.014011,74.8366292 108.135808,74.9645199 108.303105,75.1469004 C108.577778,75.4463378 108.882741,75.7929145 109.210453,76.1830471 C110.144379,77.2948605 111.07759,78.5368857 111.94969,79.881295 C114.41238,83.6777246 115.921463,87.5358695 115.986421,91.2650545 C116.027227,93.6077137 116.046989,96.6477135 116.049011,100.219897 C116.050793,103.367157 116.038855,105.739413 116.017858,109.09812 C116.011006,110.194183 116.003664,111.208974 115.996322,112.117422 C115.993752,112.435422 115.992162,112.623399 115.989224,112.960314 C115.98702,113.206427 113.986617,113.239466 113.986617,113.239466 C113.992233,112.606466 113.993822,112.418759 113.996388,112.101259 C114.00372,111.19399 114.011053,110.180412 114.017897,109.085617 C114.038868,105.73111 114.05079,103.3632 114.049012,100.221029 C114.046995,96.6591161 114.027299,93.6292744 113.986724,91.2998869 C113.929406,88.0093171 112.549061,84.4803024 110.271796,80.9697214 C109.447354,79.6987799 108.562842,78.5215702 107.679045,77.4694331 C107.370554,77.102183 107.084756,76.7773864 106.829261,76.4988557 C106.678457,76.3344555 106.573038,76.2237629 106.480243,76.1270753 C105.657972,75.1870084 104.683145,73.5973279 104.252882,72.4728824 C104.227245,72.4054167 104.227245,72.4054167 104.103642,72.0814293 C103.981375,71.7612763 103.838881,71.3891786 103.677584,70.9692025 C103.216617,69.7689642 102.697508,68.425983 102.131645,66.9727956 C100.514972,62.8210286 98.8478289,58.6185349 97.2214715,54.6259211 C94.7825437,48.6384937 93.5803187,45.1370065 93.0626218,41.9715325 C92.3757876,37.7718633 93.1819337,34.7966578 95.8984329,33.169548 C98.917713,31.3610807 101.781242,33.5095329 104.397708,37.8462021 C105.052334,38.9312143 105.647565,40.0881784 106.173994,41.2445631 C106.35813,41.6490465 106.520746,42.02508 106.660461,42.3634344 C106.745259,42.5687958 106.804232,42.7177185 106.850964,42.843132 C106.878101,42.9251903 106.930025,43.0806771 107.003765,43.2990703 C107.126961,43.6639349 107.266048,44.0707147 107.418047,44.5088687 C107.852125,45.7601459 108.302327,47.011148 108.744506,48.1768645 C108.925759,48.6547003 109.102241,49.1089797 109.272917,49.5361326 C109.473079,50.0370791 109.663209,50.4954823 109.84143,50.90631 C109.785942,45.5160697 108.915946,33.3048876 107.920396,23.7218891 C107.281977,17.5765726 107.141987,14.6377184 107.516932,12.2589284 C107.992977,9.23872341 109.436866,7.51553738 112.122427,7.00187556 C114.782165,6.49315292 116.729971,8.09151106 118.039105,10.8704222 C118.414772,11.6678524 118.713098,12.5137887 118.944348,13.3586899 C119.083449,13.8669174 119.170397,14.2670415 119.221405,14.5700555 C119.227984,14.6295424 119.227984,14.6295424 119.259761,14.914273 C119.291213,15.1954305 119.327932,15.52164 119.369573,15.8891451 C119.488574,16.9393938 119.623131,18.1097665 119.770486,19.3702029 C120.191467,22.9711467 120.630585,26.5719552 121.065725,29.9318045 C121.281246,31.5959042 121.49079,33.1613297 121.69279,34.6111088 C121.915418,36.208939 122.127099,37.6509481 122.324854,38.916497 C122.307023,37.6121953 122.27486,35.9200721 122.227021,33.5696471 C122.201473,32.3144326 122.18555,31.4971268 122.170732,30.6540013 C122.133514,28.5363828 122.114494,26.8110894 122.114746,25.2420267 C122.114856,24.5587649 122.112429,23.8400423 122.107623,23.0171767 C122.104317,22.451166 122.100934,21.9791344 122.09339,20.9907236 C121.989139,7.33162989 122.346317,3.21359235 124.964519,1.64886031 C129.368902,-0.222663702 132.1176,1.67991319 133.339038,5.65483453 C133.631416,6.60631896 133.817214,7.61405633 133.920245,8.61993446 C133.98209,9.22371988 134.002921,9.69825981 134.002024,9.9400599 C134.008563,10.0943297 134.008563,10.0943297 134.038142,10.7889336 C134.06694,11.464269 134.09915,12.2167948 134.133988,13.0272107 C134.233526,15.3426543 134.334185,17.6580846 134.4297,19.8190633 C134.444378,20.1509295 134.444378,20.1509295 134.459073,20.4823466 C134.538619,22.2751341 134.610322,23.8620217 134.672263,25.1957967 C134.733413,26.5125327 134.771333,27.959804 134.831125,30.8961818 C134.841953,31.4295947 134.841953,31.4295947 134.852904,31.9676407 C134.86135,32.3808256 134.86844,32.7213501 134.875438,33.0480718 C134.92965,35.57904 134.983773,37.4244218 135.056128,38.9089997 C135.285768,36.5027865 135.531626,32.8473584 136.001876,25.1809634 C136.1998,21.954242 136.637782,17.6594663 137.02349,15.2900147 C138.392685,6.87888358 139.921517,4.94529533 144.630432,5.57732842 C146.910073,5.883303 148.199744,7.86175809 148.809942,10.8123686 C149.136296,12.3904479 149.227483,14.0122435 149.193205,15.3600188 C149.189497,16.0515723 149.132807,16.970497 149.063741,17.5838344 C149.043969,17.757385 149.006831,18.0862304 148.954809,18.5514545 C148.868069,19.3271571 148.771406,20.2014206 148.667303,21.155325 C148.369863,23.8807718 148.072426,26.6979025 147.794857,29.4552216 C147.704195,30.3558439 147.617001,31.2369715 147.533691,32.0954328 Z"/><path fill="#39393A" d="M6,113 C6,112.447715 6.44453073,112 7.00254822,112 L52.9974518,112 C53.5511439,112 54,112.443865 54,113 C54,113.552285 53.5554693,114 52.9974518,114 L7.00254822,114 C6.44885613,114 6,113.556135 6,113 Z M158,113 C158,113.556135 157.551144,114 156.997452,114 L111.002548,114 C110.444531,114 110,113.552285 110,113 C110,112.443865 110.448856,112 111.002548,112 L156.997452,112 C157.555469,112 158,112.447715 158,113 Z"/></g></svg>