<svg viewBox="0 0 95 67" xmlns="http://www.w3.org/2000/svg" xmlns:xlink="http://www.w3.org/1999/xlink"><defs><path d="M71 63.368L80.57 54 71 44.632v18.736zM72.192 65h19.616L82 55.4 72.192 65zm19.616-22H72.192L82 52.6l9.808-9.6zM93 44.632L83.43 54 93 63.368V44.632zm-53.5 10.89a6.95 6.95 0 0 0-1.674-1.25l12.681-34.841a.999.999 0 0 0-.6-1.276.999.999 0 0 0-1.28.592l-12.68 34.841a6.95 6.95 0 0 0-2.086-.118l12.887-35.407a2.999 2.999 0 0 1 3.843-1.787 2.999 2.999 0 0 1 1.796 3.839L39.499 55.522zm-10.605.745a7.001 7.001 0 0 0-.956 1.78 6.968 6.968 0 0 0-.19 4.188L2.137 52.913a3.001 3.001 0 0 1-1.79-3.845 3.005 3.005 0 0 1 3.842-1.794l24.707 8.993zm3.227 10.752a7 7 0 1 1 4.789-13.156 7 7 0 0 1-4.789 13.156zM69 41h26v26H69V41z" id="a"/><mask id="b" x="0" y="0" width="94.836" height="51.349" fill="#fff"><use xlink:href="#a"/></mask></defs><g transform="translate(0 -1)" fill-rule="nonzero" fill="none"><use stroke="#39393A" mask="url(#b)" stroke-width="4" xlink:href="#a"/><path d="M8.633 46.764l19.734 7.182L44.1 10.72 24.366 3.538 8.633 46.764zM71 37.586L80.586 28 71 18.414v19.172zM72.414 39h19.172L82 29.414 72.414 39zm19.172-22H72.414L82 26.586 91.586 17zM93 18.414L83.414 28 93 37.586V18.414zM23.171.974l23.492 8.551-17.1 46.985L6.07 47.96 23.171.974zm-2.915 13.838l-.672 1.884 19.74 7.185.66-1.888-19.728-7.181zm13.59 12.386l-1.374 3.776a1 1 0 0 0 .6 1.273.993.993 0 0 0 1.279-.589l1.374-3.776a1 1 0 0 0-.6-1.273.993.993 0 0 0-1.28.589zM69 15h26v26H69V15z" fill="#1692D0"/></g></svg>