<svg viewBox="0 0 103 49" xmlns="http://www.w3.org/2000/svg" xmlns:xlink="http://www.w3.org/1999/xlink"><defs><path d="M91.002 0h-.991c-2.77 0-5.311 2.214-5.683 4.946l-.148 1.08c-.224 1.644-.241 4.303-.04 5.945l-.112-.913c.412 3.359 2.864 6.23 5.974 7.391V45.5a3.499 3.499 0 1 0 7 0V18.45c3.109-1.162 5.56-4.033 5.97-7.391l-.111.913c.201-1.646.183-4.304-.04-5.945l-.147-1.08C102.304 2.224 99.759 0 96.994 0h-.978v6.75l-2.507 2.368-2.507-2.368V0z" id="a"/><mask id="b" x="0" y="0" width="19.001" height="49" fill="#fff"><use xlink:href="#a"/></mask></defs><g fill="none" fill-rule="evenodd"><path d="M47 6V4c0-1.102-.896-2-1.997-2H24.997C23.897 2 23 2.897 23 4v2h24zM21 4c0-2.21 1.794-4 3.997-4h20.006A4.001 4.001 0 0 1 49 4v4H21V4zM10 16.993a1 1 0 0 1 .995-.993h8.01c.55 0 .995.457.995 1.006v2.981l-1 2.505V26c0 .552-.453 1-.997 1h-6.006a1 1 0 0 1-.997-.999v-3.878l-1-2.02v-3.11zm40 0a1 1 0 0 1 .995-.993h8.01c.55 0 .995.457.995 1.006v2.981l-1 2.505V26c0 .552-.453 1-.997 1h-6.006a1 1 0 0 1-.997-.999v-3.878l-1-2.02v-3.11zm-20 0a1 1 0 0 1 .995-.993h8.01c.55 0 .995.457.995 1.006v2.981l-1 2.505V26c0 .552-.453 1-.997 1h-6.006a1 1 0 0 1-.997-.999v-3.878l-1-2.02v-3.11zm22 2.642l1 2.02V25h4v-2.892l1-2.505V18h-6v1.635zm-20 0l1 2.02V25h4v-2.892l1-2.505V18h-6v1.635zm-20 0l1 2.02V25h4v-2.892l1-2.505V18h-6v1.635z" fill="#1692D0" fill-rule="nonzero"/><path d="M68 8v9.003A2.999 2.999 0 0 1 65 20h-3v2h3c2.76 0 5-2.237 5-4.997V7.994C70 6.894 69.105 6 68.002 6H1.998A1.997 1.997 0 0 0 0 7.994v9.01A5 5 0 0 0 4.997 22H8.02v-2H4.997A3 3 0 0 1 2 17.003V8h66z" fill="#39393A" fill-rule="nonzero"/><path fill="#39393A" fill-rule="nonzero" d="M7.93 22v-2H3v29h64V20h-5v2h3v25H5V22z"/><use stroke="#1692D0" mask="url(#b)" stroke-width="4" xlink:href="#a"/></g></svg>