<svg xmlns="http://www.w3.org/2000/svg" viewBox="0 0 169 116">
    <g fill="#FFF" fill-rule="evenodd">
        <path stroke="#39393A" stroke-linecap="round" stroke-linejoin="round" stroke-width="2" d="M160.33 93.023c4.629-5.081 7.354-11.31 7.354-18.041C167.684 57.87 150.07 44 128.342 44 106.614 44 89 57.871 89 74.982c0 17.11 17.614 30.982 39.342 30.982 3.083 0 6.083-.28 8.962-.808.547-.058 1.11-.133 1.691-.227 14.097-1.143 18.241 11.639 21.97 8.842 3.392-2.543-5.947-11.395-.635-20.748z"/>
        <circle cx="113.5" cy="76.5" r="4.5" stroke="#39393A" stroke-width="2"/>
        <path d="M48.726 96.163a77.73 77.73 0 0 0 13.539 1.177c33.965 0 61.5-21.683 61.5-48.43 0-26.749-27.535-48.432-61.5-48.432C28.299.478.765 22.16.765 48.909c0 10.436 4.191 20.1 11.32 28.008 4.687 11.61-5.98 24.557 1.805 29.453 9.562 6.015 6.228-14.775 32.356-10.545.85.138 1.677.25 2.48.338z"/>
        <path stroke="#1692D0" stroke-linecap="round" stroke-linejoin="round" stroke-width="2" d="M49.903 91.353c3.97.729 8.11 1.114 12.362 1.114 29.97 0 54.265-19.132 54.265-42.733C116.53 26.132 92.234 7 62.265 7 32.295 7 8 26.132 8 49.734c0 8.62 3.241 16.644 8.816 23.357 5.52 10.93-5.512 25.782-.447 28.444 5.437 2.857 8.148-14.228 31.201-10.495.802.13 1.58.234 2.333.313z"/>
        <circle cx="128.5" cy="76.5" r="4.5" stroke="#39393A" stroke-width="2"/>
        <circle cx="143.5" cy="76.5" r="4.5" stroke="#39393A" stroke-width="2"/>
        <path stroke="#1692D0" stroke-linecap="round" stroke-linejoin="round" stroke-width="2" d="M56.567 58.97v-2.074c0-1.794.383-3.354 1.15-4.68.765-1.327 2.166-2.737 4.203-4.232 1.962-1.402 3.256-2.541 3.882-3.42.626-.878.938-1.858.938-2.942 0-1.215-.448-2.14-1.345-2.775-.897-.635-2.148-.953-3.755-.953-2.803 0-5.998.916-9.585 2.747L49 34.503C53.167 32.168 57.585 31 62.256 31c3.85 0 6.909.925 9.179 2.775 2.27 1.85 3.405 4.316 3.405 7.398 0 2.056-.467 3.83-1.401 5.325-.935 1.495-2.71 3.177-5.325 5.045-1.794 1.327-2.929 2.336-3.405 3.027-.477.691-.715 1.597-.715 2.718v1.682h-7.427zm-.897 9.585c0-1.57.42-2.756 1.261-3.56.841-.803 2.065-1.205 3.672-1.205 1.55 0 2.751.412 3.601 1.234.85.822 1.275 1.999 1.275 3.53 0 1.477-.43 2.64-1.289 3.49-.86.85-2.055 1.275-3.587 1.275-1.57 0-2.784-.415-3.644-1.247-.86-.831-1.289-2.004-1.289-3.517z"/>
    </g>
</svg>
