<svg viewBox="0 0 105 63" xmlns="http://www.w3.org/2000/svg" xmlns:xlink="http://www.w3.org/1999/xlink"><defs><path d="M54.837 9.54V8.005c0-1.108.886-2.006 1.998-2.006h4.004c1.103 0 1.998.887 1.998 2.006v1.533c.429.119.85.256 1.264.41l.9-1.24a1.997 1.997 0 0 1 2.796-.448l3.24 2.353a1.995 1.995 0 0 1 .437 2.798l-.903 1.243c.275.345.536.703.78 1.073l1.46-.475a1.997 1.997 0 0 1 2.526 1.28l1.237 3.809a1.995 1.995 0 0 1-1.29 2.52l-1.462.475a15.257 15.257 0 0 1 0 1.326l1.462.475a1.997 1.997 0 0 1 1.29 2.52l-1.237 3.808a1.995 1.995 0 0 1-2.525 1.28l-1.46-.474c-.245.37-.506.728-.781 1.073l.903 1.243a1.997 1.997 0 0 1-.438 2.798l-3.239 2.353a1.995 1.995 0 0 1-2.795-.448l-.901-1.24c-.413.154-.835.291-1.264.41v1.533A1.997 1.997 0 0 1 60.839 42h-4.004a1.995 1.995 0 0 1-1.998-2.006v-1.533c-.43-.119-.851-.256-1.264-.41l-.901 1.24a1.997 1.997 0 0 1-2.796.448l-3.24-2.353a1.995 1.995 0 0 1-.437-2.798l.904-1.243a15.05 15.05 0 0 1-.781-1.073l-1.46.475a1.997 1.997 0 0 1-2.526-1.28L41.1 27.657a1.995 1.995 0 0 1 1.29-2.52l1.462-.475a15.257 15.257 0 0 1 0-1.326l-1.462-.475a1.997 1.997 0 0 1-1.29-2.52l1.237-3.808a1.995 1.995 0 0 1 2.525-1.28l1.46.474c.246-.37.506-.728.782-1.073l-.904-1.243a1.997 1.997 0 0 1 .438-2.798l3.24-2.353a1.995 1.995 0 0 1 2.795.448l.9 1.24c.414-.154.835-.291 1.265-.41z" id="a"/><mask id="g" x="0" y="0" width="35.673" height="36" fill="#fff"><use xlink:href="#a"/></mask><circle id="b" cx="59" cy="24" r="7"/><mask id="h" x="0" y="0" width="14" height="14" fill="#fff"><use xlink:href="#b"/></mask><path d="M18.98 2.734c-4.473 1.23-8 4.54-8 10.925 0 5.901 3.012 9.666 7 11.394v35.603a5.497 5.497 0 0 0 5.5 5.503c3.03 0 5.5-2.464 5.5-5.503V25.063c3.986-1.715 7-5.464 7-11.404 0-6.427-3.529-9.716-8-10.933v9.883l-4.5 2.43-4.5-2.43V2.734z" id="c"/><mask id="i" x="0" y="0" width="25" height="63.433" fill="#fff"><use xlink:href="#c"/></mask><path d="M92.684 30.12h6l-.802 4.013c-.11.545-.641.988-1.207.988h-1.982c-.557 0-1.098-.444-1.207-.988l-.802-4.012z" id="d"/><mask id="j" x="0" y="0" width="6" height="5" fill="#fff"><use xlink:href="#d"/></mask><path d="M99.625 3.002h1.979V25.63l.356.598c.582.978.887 2.668.676 3.797l-1.032 5.532h-1.99l-1.048-5.532c-.212-1.12.097-2.815.68-3.773l.38-.622V3z" id="e"/><mask id="k" x="0" y="0" width="4.203" height="32.557" fill="#fff"><use xlink:href="#e"/></mask><path d="M83.245 38.675c-.227-3.642 2.558-6.595 6.2-6.595h.779c3.65 0 6.443 2.95 6.235 6.615l-1.417 24.971a2.138 2.138 0 0 1-2.113 2h-6.001c-1.105 0-2.056-.898-2.125-2l-1.558-24.99z" id="f"/><mask id="l" x="0" y="0" width="13.237" height="33.587" fill="#fff"><use xlink:href="#f"/></mask></defs><g transform="translate(-3 -3)" fill="none" fill-rule="evenodd"><use stroke="#39393A" mask="url(#g)" stroke-width="4" xlink:href="#a"/><use stroke="#1692D0" mask="url(#h)" stroke-width="4" fill="#FFF" xlink:href="#b"/><use stroke="#1692D0" mask="url(#i)" stroke-width="4" fill="#FFF" transform="scale(-1 1) rotate(20 0 -98.714)" xlink:href="#c"/><circle fill="#39393A" transform="scale(-1 1) rotate(20 0 -124.775)" cx="32.393" cy="58.932" r="1.5"/><use stroke="#39393A" mask="url(#j)" stroke-width="4" fill="#D8D8D8" transform="scale(1 -1) rotate(-20 -89.317 0)" xlink:href="#d"/><use stroke="#39393A" mask="url(#k)" stroke-width="4" fill="#39393A" transform="scale(1 -1) rotate(-20 -8.742 0)" xlink:href="#e"/><path d="M86.144 59.01l7.524-20.673-7.524 20.673z" stroke="#39393A" stroke-width="2" stroke-linecap="round" stroke-linejoin="round"/><use stroke="#1692D0" mask="url(#l)" stroke-width="4" transform="scale(1 -1) rotate(-20 -187.322 0)" xlink:href="#f"/></g></svg>