<?xml version="1.0" encoding="utf-8"?>
<!-- Generator: Adobe Illustrator 16.0.3, SVG Export Plug-In . SVG Version: 6.00 Build 0)  -->
<!DOCTYPE svg PUBLIC "-//W3C//DTD SVG 1.1//EN" "http://www.w3.org/Graphics/SVG/1.1/DTD/svg11.dtd">
<svg version="1.1" id="Layer_1" xmlns="http://www.w3.org/2000/svg" xmlns:xlink="http://www.w3.org/1999/xlink" x="0px" y="0px"
	 width="400px" height="400px" viewBox="0 0 400 400" enable-background="new 0 0 400 400" xml:space="preserve">
<g>
	<path fill="#E6E6E6" stroke="#E6E6E6" stroke-width="0.602" d="M161.196,258.391h-35.954c-0.828,0-1.563-0.735-1.563-1.563v-61.242
		c0-0.828,0.735-1.563,1.563-1.563h35.954c0.827,0,1.563,0.736,1.563,1.563v61.242C162.759,257.655,162.023,258.391,161.196,258.391
		L161.196,258.391z M199.54,210.391h-14.805c-0.827,0-1.563-0.735-1.563-1.563v-16.46c0-0.828,0.736-1.563,1.563-1.563h14.805
		c0.827,0,1.563,0.735,1.563,1.563v16.46C201.104,209.655,200.367,210.391,199.54,210.391z M194.115,235.77h-9.287
		c-0.827,0-1.563-0.734-1.563-1.563v-11.77c0-0.828,0.736-1.564,1.563-1.564h9.287c0.828,0,1.563,0.736,1.563,1.564v11.77
		C195.678,235.035,194.943,235.77,194.115,235.77z M162.115,176.828h-6.345c-0.827,0-1.563-0.736-1.563-1.563v-8.644
		c0-0.828,0.735-1.563,1.563-1.563h6.345c0.828,0,1.563,0.735,1.563,1.563v8.644C163.678,176.092,163.034,176.828,162.115,176.828z
		 M163.678,124.965V144c0,0.828-0.735,1.563-1.563,1.563h-32.827c-0.827,0-1.563-0.736-1.563-1.563v-6.345
		c0-0.828,0.736-1.563,1.563-1.563h25.012v-11.126c0-0.827,0.735-1.563,1.563-1.563h6.345
		C163.034,123.402,163.678,124.138,163.678,124.965z"/>
	<path fill="#E6E6E6" stroke="#E6E6E6" stroke-width="0.689" d="M199.357,177.931h-22.438c-1.011,0-1.839-0.828-1.839-1.839v-31.724
		c0-1.011,0.828-1.839,1.839-1.839h22.438c1.011,0,1.839,0.828,1.839,1.839v31.724C201.104,177.104,200.276,177.931,199.357,177.931
		z"/>
	<path fill="#1692D0" stroke="#1692D0" stroke-width="0.689" d="M201.012,164.23h-26.023v-19.862c0-1.011,0.827-1.839,1.839-1.839
		h22.437c1.012,0,1.84,0.828,1.84,1.839v19.862H201.012L201.012,164.23z"/>
	<path fill="#E6E6E6" stroke="#E6E6E6" stroke-width="0.602" d="M229.333,132.23h-42.667c-0.827,0-1.563-0.736-1.563-1.563v-13.885
		c0-0.828,0.735-1.563,1.563-1.563h42.575c0.827,0,1.563,0.736,1.563,1.563v13.885C230.897,131.494,230.161,132.23,229.333,132.23z
		 M240.184,144.184v27.77c0,0.828-0.735,1.563-1.563,1.563H212.69c-0.827,0-1.563-0.735-1.563-1.563v-27.77
		c0-0.828,0.736-1.563,1.563-1.563h25.931C239.54,142.621,240.184,143.265,240.184,144.184z M240.184,195.494v13.334
		c0,0.827-0.735,1.563-1.563,1.563H212.69c-0.827,0-1.563-0.735-1.563-1.563v-25.84c0-0.827,0.736-1.563,1.563-1.563h25.931
		c0.828,0,1.563,0.736,1.563,1.563V195.494z M263.08,210.391h-12.414c-0.827,0-1.563-0.735-1.563-1.563v-16.46
		c0-0.828,0.735-1.563,1.563-1.563h12.414c0.828,0,1.563,0.735,1.563,1.563v16.46C264.644,209.655,263.908,210.391,263.08,210.391z"
		/>
	<path fill="#E6E6E6" stroke="#E6E6E6" stroke-width="0.787" d="M192.644,292.873h-20.138c-1.104,0-2.023-0.919-2.023-2.022v-21.978
		c0-1.104,0.92-2.022,2.023-2.022h20.138c1.104,0,2.022,0.919,2.022,2.022v21.978C194.759,291.954,193.839,292.873,192.644,292.873z
		"/>
	<path fill="#E6E6E6" stroke="#E6E6E6" stroke-width="0.602" d="M141.517,282.851v8.46c0,0.827-0.735,1.563-1.563,1.563H93.425
		c-0.827,0-1.563-0.735-1.563-1.563v-19.678c0-0.828,0.735-1.564,1.563-1.564h8.46c0.827,0,1.563,0.736,1.563,1.564v9.654h36.506
		C140.781,281.287,141.517,282.023,141.517,282.851z"/>
	<path fill="#E6E6E6" stroke="#E6E6E6" stroke-width="0.712" d="M238.989,271.816v19.219c0,1.011-0.827,1.838-1.839,1.838h-37.793
		c-1.012,0-1.84-0.827-1.84-1.838v-19.219c0-1.012,0.828-1.84,1.84-1.84h5.333c1.012,0,1.839,0.828,1.839,1.84v10.207
		c0,1.012,0.828,1.839,1.839,1.839h19.679c1.012,0,1.839-0.827,1.839-1.839v-10.207c0-1.012,0.827-1.84,1.839-1.84h5.334
		C238.161,269.885,238.989,270.713,238.989,271.816z"/>
	<path fill="#E6E6E6" stroke="#E6E6E6" stroke-width="0.725" d="M274.023,223.816v26.482c0,1.012-0.827,1.932-1.931,1.932h-1.472
		c-0.644,0-1.104,0.734-0.827,1.287c0.552,1.195,0.919,2.574,0.919,4.046c0,5.333-4.505,9.655-9.931,9.287
		c-4.598-0.276-8.368-3.954-8.735-8.552c-0.185-1.932,0.275-3.861,1.195-5.426c0.184-0.275,0-0.643-0.368-0.643H248
		c-1.012,0-1.932-0.828-1.932-1.932v-7.816c0-0.735,0.645-1.379,1.38-1.379h12.229c1.012,0,1.932-0.828,1.932-1.932v-4.229
		c0-1.011-0.828-1.931-1.932-1.931h-12.229c-0.735,0-1.38-0.645-1.38-1.379v-8.276c0-0.735,0.645-1.38,1.38-1.38h24.735
		C273.196,221.977,274.023,222.805,274.023,223.816z"/>
	<path fill="none" stroke="#1692D0" stroke-width="3.612" d="M160.552,302.161v-38.528h8.552V137.471h37.701v13.425h-3.679
		 M256.644,107.586V96.644 M206.805,137.471h30.068v-22.253h19.771v-4.046"/>
	<path opacity="0.3" fill="none" stroke="#AFDAEF" stroke-width="3.612" enable-background="new    " d="M244.23,302.161v-40.552
		h-3.77v-45.426h4.229v-38.712h-37.885V156.23h-3.771"/>
	<text transform="matrix(1 0 0 1 176.6775 172.4883)" fill="#39393A" font-family="'HelveticaNeueCyr-Roman'" font-size="4">Типография</text>
	<text transform="matrix(1 0 0 1 250.7795 249.0859)" fill="#39393A" font-family="'HelveticaNeueCyr-Roman'" font-size="5.5172">ИМСИТ</text>
	<text transform="matrix(1 0 0 1 118.6809 289.2393)" fill="#39393A" font-family="'HelveticaNeueCyr-Roman'" font-size="5.5172">ЗИП</text>
	<text transform="matrix(1 0 0 1 145.6599 205.9023)" fill="#39393A" font-family="'HelveticaNeueCyr-Roman'" font-size="5.5172">МФЦ</text>
	<g>
		<text transform="matrix(1 0 0 1 125.741 241.6113)" fill="#39393A" font-family="'HelveticaNeueCyr-Roman'" font-size="5.5172">Джоуль Парк</text>
		<text transform="matrix(1 0 0 1 128.8674 248.2324)" fill="#39393A" font-family="'HelveticaNeueCyr-Roman'" font-size="5.5172">Краснодар</text>
	</g>
	<g>
		<text transform="matrix(1 0 0 1 213.5725 188.0444)" fill="#39393A" font-family="'HelveticaNeueCyr-Roman'" font-size="5.5172">Мировые</text>
		<text transform="matrix(1 0 0 1 218.1702 194.6655)" fill="#39393A" font-family="'HelveticaNeueCyr-Roman'" font-size="5.5172">судьи</text>
	</g>
	<g>
		<text transform="matrix(1 0 0 1 213.5725 162.6406)" fill="#39393A" font-family="'HelveticaNeueCyr-Roman'" font-size="5.5172">Мировые</text>
		<text transform="matrix(1 0 0 1 218.1702 169.2612)" fill="#39393A" font-family="'HelveticaNeueCyr-Roman'" font-size="5.5172">судьи</text>
	</g>
	<text transform="matrix(1 0 0 1 218.0725 290.1582)" fill="#39393A" font-family="'HelveticaNeueCyr-Roman'" font-size="5.5172">Магнит</text>
	<g>
		<text transform="matrix(1 0 0 1 173.2351 283.502)" fill="#39393A" font-family="'HelveticaNeueCyr-Roman'" font-size="5.5172">Патрик</text>
		<text transform="matrix(1 0 0 1 173.0515 290.123)" fill="#39393A" font-family="'HelveticaNeueCyr-Roman'" font-size="5.5172">&amp; Мари</text>
	</g>
	<path fill="none" stroke="#E6E6E6" stroke-width="6" d="M370.574,302.621H22.437c-2.851,0-5.241-2.299-5.241-5.242V101.885
		c0-2.851,2.299-5.242,5.241-5.242h348.138c2.851,0,5.241,2.299,5.241,5.242v195.494
		C375.816,300.23,373.517,302.621,370.574,302.621z M17.196,280.92v36.321 M31.632,302.621H2.759 M17.196,82.207v36.23
		 M375.816,82.207v28.874 M375.816,288.367v28.874 M390.252,302.621h-28.873 M390.252,96.644h-28.873 M31.632,96.644H2.759"/>
	<g>
		<path fill="none" stroke="#999999" d="M381.885,298.391V100.689 M385.747,298.391V100.689 M380.873,102.621h5.885
			 M380.873,105.012h5.885 M380.873,107.494h5.885 M380.873,109.885h5.885 M380.873,112.368h5.885 M380.873,114.759h5.885
			 M380.873,117.149h5.885 M380.873,119.632h5.885 M380.873,122.023h5.885 M380.873,124.414h5.885 M380.873,126.896h5.885
			 M380.873,129.288h5.885 M380.873,131.77h5.885 M380.873,134.161h5.885 M380.873,136.552h5.885 M380.873,139.035h5.885
			 M380.873,141.425h5.885 M380.873,143.908h5.885 M380.873,146.299h5.885 M380.873,148.689h5.885 M380.873,151.172h5.885
			 M380.873,153.563h5.885 M380.873,155.954h5.885 M380.873,158.437h5.885 M380.873,160.828h5.885 M380.873,163.311h5.885
			 M380.873,165.701h5.885 M380.873,168.092h5.885 M380.873,170.575h5.885 M380.873,172.965h5.885 M380.873,175.356h5.885
			 M380.873,177.839h5.885 M380.873,180.23h5.885 M380.873,182.713h5.885 M380.873,185.104h5.885 M380.873,187.494h5.885
			 M380.873,189.977h5.885 M380.873,192.368h5.885 M380.873,194.851h5.885 M380.873,197.241h5.885 M380.873,199.632h5.885
			 M380.873,202.115h5.885 M380.873,204.506h5.885 M380.873,206.896h5.885 M380.873,209.379h5.885 M380.873,211.77h5.885
			 M380.873,214.253h5.885 M380.873,216.644h5.885 M380.873,219.035h5.885 M380.873,221.518h5.885 M380.873,223.908h5.885
			 M380.873,226.299h5.885 M380.873,228.781h5.885 M380.873,231.172h5.885 M380.873,233.655h5.885 M380.873,236.046h5.885
			 M380.873,238.438h5.885 M380.873,240.92h5.885 M380.873,243.311h5.885 M380.873,245.701h5.885 M380.873,248.184h5.885
			 M380.873,250.574h5.885 M380.873,253.058h5.885 M380.873,255.448h5.885 M380.873,257.839h5.885 M380.873,260.322h5.885
			 M380.873,262.713h5.885 M380.873,265.195h5.885 M380.873,267.586h5.885 M380.873,269.977h5.885 M380.873,272.46h5.885
			 M380.873,274.851h5.885 M380.873,277.241h5.885 M380.873,279.725h5.885 M380.873,282.115h5.885 M380.873,284.598h5.885
			 M380.873,286.988h5.885 M380.873,289.379h5.885 M380.873,291.862h5.885 M380.873,294.253h5.885 M380.873,296.644h5.885"/>
	</g>
	<text transform="matrix(1 0 0 1 166.5159 316.709)" fill="#999999" font-family="'HelveticaNeueCyr-Roman'" font-size="11.954">Зиповская</text>
	<text transform="matrix(1 0 0 1 168.8997 90.5313)" fill="#999999" font-family="'HelveticaNeueCyr-Roman'" font-size="11.954">Солнечная</text>
	
		<text transform="matrix(6.123234e-017 1 -1 6.123234e-017 391.1604 173.0532)" fill="#999999" font-family="'HelveticaNeueCyr-Roman'" font-size="11.954">Московская</text>
	
		<text transform="matrix(6.123234e-017 -1 1 6.123234e-017 9.259 259.7188)" fill="#999999" font-family="'HelveticaNeueCyr-Roman'" font-size="11.954">Ростовское шоссе</text>
	<text transform="matrix(1 0 0 1 260.1995 116.6289)" fill="#1692D0" font-family="'HelveticaNeueCyr-Roman'" font-size="5.5172">+650м</text>
	<path fill="none" stroke="#FFFFFF" stroke-width="0.442" d="M193.931,155.77c0.184,0,0.092-0.919,0.276-0.919
		c1.471,0.184,1.839,1.104,1.839,2.023c0,1.104-0.735,1.839-2.483,1.839c-1.103,0-2.022-0.276-2.666-0.92
		c-0.552-0.552-1.012-1.287-1.287-2.023c-0.645-1.931-0.093-3.954-1.563-5.701l3.402-0.919c0.275,0.184,0.46,0.276,0.735,0.644
		c0.092,0.276,0.184,0.644,0.276,1.012c0.367,1.747,0.184,2.759,0.919,4.506C193.563,155.494,193.747,155.77,193.931,155.77
		L193.931,155.77z"/>
	<path fill="#FFFFFF" d="M190.897,157.701c0.367,0.46,1.379,1.104,2.759,1.012c1.839-0.092,2.851-1.012,3.31-2.667
		c0.552-1.747,0.828-3.678,1.196-5.517c0.184-1.012-0.185-2.299-1.563-2.483c-2.023-0.184-2.115,1.747-2.483,3.311
		c-0.275,1.011-0.459,2.299-0.827,3.402C193.012,155.586,192.552,158.161,190.897,157.701L190.897,157.701z"/>
	<path fill="none" stroke="#FFFFFF" stroke-width="0.442" d="M190.897,157.701c0.367,0.46,1.379,1.104,2.759,1.012
		c1.839-0.092,2.851-1.012,3.31-2.667c0.552-1.747,0.828-3.678,1.196-5.517c0.184-1.012-0.185-2.299-1.563-2.483
		c-2.023-0.184-2.115,1.747-2.483,3.311c-0.275,1.011-0.459,2.299-0.827,3.402C193.012,155.586,192.552,158.161,190.897,157.701
		L190.897,157.701z M188.322,156.23c0,1.104-0.459,2.391-2.207,2.391c-1.103,0-2.022-0.276-2.666-0.919
		c-0.552-0.552-1.012-1.287-1.287-2.023c-0.645-1.931-0.093-3.954-1.563-5.701l3.862-0.644c0,0.092,0.184,0.184,0.275,0.276
		c0.092,0.184,0.184,0.552,0.276,1.011c0.367,1.747,0.184,2.759,0.919,4.506C186.207,155.954,188.322,153.655,188.322,156.23
		L188.322,156.23z"/>
	<path fill="#FFFFFF" d="M177.931,155.862c-0.275,1.011,0.184,2.299,1.563,2.482c2.022,0.184,2.207-1.747,2.574-3.31
		c0.185-0.828,0.736-3.126,1.104-4.046c0.092-0.368,0.368-1.287,0.92-1.471c0.275-0.092,0.644,0,0.735,0.276
		c0-0.184-0.275-0.552-0.367-0.644c-0.368-0.552-1.104-1.011-2.115-1.011c-1.655,0-2.575,0.827-3.034,2.391
		C178.666,152.46,178.391,154.023,177.931,155.862L177.931,155.862z"/>
	<path fill="none" stroke="#FFFFFF" stroke-width="0.442" d="M177.931,155.862c-0.275,1.011,0.184,2.299,1.563,2.482
		c2.022,0.184,2.207-1.747,2.574-3.31c0.185-0.828,0.736-3.126,1.104-4.046c0.092-0.368,0.368-1.287,0.92-1.471
		c0.275-0.092,0.644,0,0.735,0.276c0-0.184-0.275-0.552-0.367-0.644c-0.368-0.552-1.104-1.011-2.115-1.011
		c-1.655,0-2.575,0.827-3.034,2.391C178.666,152.46,178.391,154.023,177.931,155.862L177.931,155.862z"/>
	<g>
		<path fill="#FFFFFF" d="M189.241,156.414c0.46-1.748,0.827-3.586,1.471-5.333c0.093-0.368,0.368-1.288,0.92-1.471
			c0.276-0.092,0.644-0.092,0.644,0.184c-0.092-0.735-1.012-1.655-2.391-1.655c-1.655,0-2.574,0.828-3.034,2.391l-1.104,4.138
			c-0.276,0.828-0.735,3.402-2.391,2.943c0.367,0.459,1.379,1.104,2.758,1.011C187.862,158.529,188.69,157.793,189.241,156.414
			L189.241,156.414z"/>
		<path fill="none" stroke="#FFFFFF" stroke-width="0.442" d="M189.241,156.414c0.46-1.748,0.827-3.586,1.471-5.333
			c0.093-0.368,0.368-1.288,0.92-1.471c0.276-0.092,0.644-0.092,0.644,0.184c-0.092-0.735-1.012-1.655-2.391-1.655
			c-1.655,0-2.574,0.828-3.034,2.391l-1.104,4.138c-0.276,0.828-0.735,3.402-2.391,2.943c0.367,0.459,1.379,1.104,2.758,1.011
			C187.862,158.529,188.69,157.793,189.241,156.414L189.241,156.414z"/>
	</g>
	<path fill="none" stroke="#1692D0" stroke-width="3.612" d="M169.104,182.529h37.701V156.23h-3.771"/>
</g>
</svg>
