<svg width="361" height="95" viewBox="0 0 361 95" xmlns="http://www.w3.org/2000/svg" xmlns:xlink="http://www.w3.org/1999/xlink"><title>ill 1</title><defs><rect id="a" x="6" y="28" width="15" height="10" rx="2"/><rect id="b" x="35" y="28" width="15" height="10" rx="2"/><path id="c" d="M11.021 12.427h2v8.69h-2z"/><circle id="d" cx="12" cy="3" r="3"/><path d="M9.252 5.935c2.936 2.552 3.231 5.418 3.231 5.418.448 1.598-.52 2.764-2.16 2.499 0 0-2.871.112-5.8-2.434C1.592 8.872 1 5.064 1 5.064c-.272-1.067.406-1.86 1.5-1.719 0 0 3.816.038 6.751 2.59z" id="e"/><path d="M15.84 5.935c-2.935 2.552-3.23 5.418-3.23 5.418-.449 1.598.52 2.764 2.159 2.499 0 0 2.872.112 5.801-2.434 2.93-2.546 3.522-6.354 3.522-6.354.272-1.067-.407-1.86-1.5-1.719 0 0-3.816.038-6.752 2.59z" id="f"/></defs><g fill="none" fill-rule="evenodd"><g stroke="#39393A" stroke-width="2" stroke-linecap="round" stroke-linejoin="round"><path d="M296.49 66.935a7.5 7.5 0 0 1-2.242-14.831 9 9 0 0 1 17.53-4.1 7 7 0 0 1 1.948 13.782 9 9 0 0 1-17.236 5.15z" fill="#FFF"/><path d="M304.66 92.053v-32.6M310.237 58.273L305 63.775M298 60l6.628 6.775"/></g><path stroke="#39393A" stroke-width="2" stroke-linecap="round" stroke-linejoin="round" d="M26.092 77.419v15.645h20.944v-12.95h8.024v12.894h21.115V77.473"/><g transform="translate(23 51)"><use fill="#FFF" xlink:href="#a"/><rect stroke="#39393A" stroke-width="2" x="7" y="29" width="13" height="8" rx="2"/></g><g transform="translate(23 51)"><use fill="#FFF" xlink:href="#b"/><rect stroke="#39393A" stroke-width="2" x="36" y="29" width="13" height="8" rx="2"/></g><path d="M31 70a4 4 0 1 1-8 0M39 70a4 4 0 1 1-8 0M47 70a4 4 0 1 1-8 0M55 70a4 4 0 1 1-8 0M63 70a4 4 0 1 1-8 0M71 70a4 4 0 1 1-8 0M79 70a4 4 0 1 1-8 0" stroke="#39393A" stroke-width="2" fill="#FFF"/><path d="M23 70.031V65.95L27.479 51h23.47M79 70.031V65.95L74.47 51H51" stroke="#39393A" stroke-width="2" stroke-linecap="round" stroke-linejoin="round"/><path stroke="#39393A" stroke-width="2" stroke-linecap="round" stroke-linejoin="round" d="M39 70.958v-5.05L40.9 51M71.001 70.958v-5.05L67 51M60 51l3 15.739v4.199M55.02 70.038v-4.029L54 51M34.153 51L31 65.74v5.199M47 70.038v-4.029L48.02 51"/><g stroke-linecap="round" stroke-width="2" stroke-linejoin="round"><g stroke="#39393A"><path d="M136 25h8.908l14.547 47h43.092L212 37.438h-63.246M171 85.501a5.5 5.5 0 1 1-11-.002 5.5 5.5 0 0 1 11 .002zM159 86a7 7 0 0 1-7-7.002A6.997 6.997 0 0 1 159 72M200 85.501a5.5 5.5 0 1 1-10.999-.004 5.5 5.5 0 0 1 10.999.004zM159 86h.584M171.306 86H189M200 86h4M171 37.84L173 71M191 37.836L189 71M157 62h48.233M153 50h55"/></g><path d="M231.745 21.071c0 11.085-8.899 20.072-19.874 20.072-10.974 0-19.871-8.987-19.871-20.072C192 9.987 200.897 1 211.87 1c10.976 0 19.875 8.987 19.875 20.071z" stroke="#1692D0" fill="#FFF"/><path stroke="#39393A" d="M202 20.173l6.893 6.893L220.959 15"/></g><path d="M1 93h359" stroke="#39393A" stroke-width="2" stroke-linecap="round" stroke-linejoin="round"/><g><g transform="translate(314 72)"><use fill="#D8D8D8" xlink:href="#c"/><path stroke="#39393A" stroke-width="2" d="M12.021 13.427h1v6.69h-1z"/></g><g transform="translate(314 72)"><use fill="#FFF" xlink:href="#d"/><circle stroke="#39393A" stroke-width="2" cx="12" cy="3" r="2"/></g><g transform="translate(314 72)"><use fill="#FFF" xlink:href="#e"/><path stroke="#39393A" stroke-width="2" d="M8.596 6.69A8.694 8.694 0 0 0 7.06 5.625a10.773 10.773 0 0 0-3.17-1.113c-.38-.072-.73-.119-1.042-.146a5.361 5.361 0 0 0-.357-.022l-.118-.008c-.384-.05-.503.088-.384.573.007.045.026.149.061.302.06.266.141.565.246.888.298.927.72 1.854 1.283 2.713.457.697.988 1.319 1.6 1.85 1.121.975 2.304 1.593 3.482 1.928.72.205 1.29.268 1.629.261h-.005l.199.013c.893.145 1.294-.325 1.036-1.242l-.031-.168c-.022-.208-.116-.632-.334-1.2-.373-.973-.968-1.952-1.835-2.872-.225-.238-.466-.47-.724-.694z"/></g><g transform="translate(314 72)"><use fill="#FFF" xlink:href="#f"/><path stroke="#39393A" stroke-width="2" d="M16.496 6.69c-.258.224-.499.455-.723.693-.868.92-1.462 1.9-1.836 2.873-.217.567-.312.991-.333 1.2l-.032.167c-.257.917.143 1.387 1.037 1.242l.199-.012a.15.15 0 0 1-.005 0c.34.006.908-.057 1.628-.262 1.178-.335 2.361-.953 3.483-1.928a8.897 8.897 0 0 0 1.6-1.85 11.253 11.253 0 0 0 1.609-3.996c.1-.392-.02-.53-.404-.48l-.118.008c-.054 0-.176.006-.356.022-.312.027-.663.074-1.043.146a10.773 10.773 0 0 0-3.17 1.113 8.694 8.694 0 0 0-1.536 1.063z"/></g></g></g></svg>