<svg xmlns="http://www.w3.org/2000/svg" width="280" height="110" viewBox="0 0 280 110"><g fill="none" fill-rule="evenodd" transform="translate(0 1)"><g stroke="#39393A" stroke-linecap="round" stroke-linejoin="round" stroke-width="2"><path d="M81.048 36.013s.92-7.853 0-10.023S76.45 17 68.994 17s-11.238 7.027-11.646 9.506c-.408 2.48 0 9.507 0 9.507s-2.35.516-2.452 2.583c-.101 2.067 2.657 2.79 2.657 2.79s.92 6.2 5.676 7.854l-.352 5.091S50.492 56.623 45 60.944v8.06S53.177 79 69.462 79C85.748 79 93 68.15 93 68.15v-8.06c-5.492-4.323-17.877-6.614-17.877-6.614v-4.34c3.167 0 4.086-7.646 4.904-7.44.817.207 2.553-.93 2.553-2.583s0-3.1-1.532-3.1c-1.533 0-2.349-2.067-2.554-4.237-.204-2.17-3.37-2.639-5.262-2.752-1.89-.113-7.61 2.236-8.937 2.236-.885 0-2.125-.577-3.721-1.732"/><path d="M61 54.692L69.5 66 78 54"/></g><circle cx="5" cy="7" r="5" fill="#39393A"/><circle cx="275" cy="76" r="5" fill="#1692D0"/><path stroke="#1692D0" stroke-width="2" d="M185.993 33.272V20.006c0-11.046 8.954-20 20-20h10.205c11.045 0 20 8.954 20 20v36.072c0 11.046 8.954 20 20 20H270.8"/><path stroke="#39393A" stroke-width="2" d="M4.892 11.393v32.851c0 11.046 8.955 20 20 20h19.974M94 63h14.172c7.73 0 13.998 6.267 13.998 13.998 0 7.73 6.267 13.997 13.997 13.997h24.213"/><g stroke="#1692D0" stroke-linecap="round" stroke-linejoin="round" stroke-width="2"><path d="M167.354 81.72s.096-31.527 2.795-37.338c2.7-5.81 8.002-10.382 16.196-10.382 8.193 0 15.134 6.668 16.386 13.526 1.254 6.858 2.218 33.421 2.218 33.421"/><path d="M186.928 72.172c5.7 0 10.163-7.356 10.163-10.222V51.057h-8.549c-1.234-2.676-4.464-3.917-4.464-3.917 1.046 1.338.57 3.917.57 3.917h-10.545V61.95c0 3.725 3.421 8.217 6.081 8.79v5.541C180.746 76.225 159 78.84 159 97.778c0 0 10.077 10.222 26.887 10.222C202.697 108 214 97.778 214 97.778"/><path d="M192.429 70.654v5.528C191.855 76.126 214 78.735 214 97.626"/><path d="M170.14 80.13s4.846 11.272 15.564 11.272c10.72 0 15.764-11.757 15.764-11.757"/></g></g></svg>